%TF.GenerationSoftware,KiCad,Pcbnew,7.0.11-rc3*%
%TF.CreationDate,2025-03-19T02:12:51+01:00*%
%TF.ProjectId,jf-ecu32.7,6a662d65-6375-4333-922e-372e6b696361,rev?*%
%TF.SameCoordinates,Original*%
%TF.FileFunction,AssemblyDrawing,Bot*%
%FSLAX46Y46*%
G04 Gerber Fmt 4.6, Leading zero omitted, Abs format (unit mm)*
G04 Created by KiCad (PCBNEW 7.0.11-rc3) date 2025-03-19 02:12:51*
%MOMM*%
%LPD*%
G01*
G04 APERTURE LIST*
%ADD10C,0.150000*%
%ADD11C,0.060000*%
%ADD12C,0.050000*%
%ADD13C,0.120000*%
%ADD14C,0.100000*%
G04 APERTURE END LIST*
D10*
X45214819Y-190610714D02*
X45214819Y-190039286D01*
X45214819Y-190325000D02*
X44214819Y-190325000D01*
X44214819Y-190325000D02*
X44357676Y-190229762D01*
X44357676Y-190229762D02*
X44452914Y-190134524D01*
X44452914Y-190134524D02*
X44500533Y-190039286D01*
X45214819Y-191039286D02*
X44214819Y-191039286D01*
X45214819Y-191610714D02*
X44643390Y-191182143D01*
X44214819Y-191610714D02*
X44786247Y-191039286D01*
D11*
X46371927Y-190567857D02*
X46181451Y-190434524D01*
X46371927Y-190339286D02*
X45971927Y-190339286D01*
X45971927Y-190339286D02*
X45971927Y-190491667D01*
X45971927Y-190491667D02*
X45990975Y-190529762D01*
X45990975Y-190529762D02*
X46010022Y-190548809D01*
X46010022Y-190548809D02*
X46048118Y-190567857D01*
X46048118Y-190567857D02*
X46105260Y-190567857D01*
X46105260Y-190567857D02*
X46143356Y-190548809D01*
X46143356Y-190548809D02*
X46162403Y-190529762D01*
X46162403Y-190529762D02*
X46181451Y-190491667D01*
X46181451Y-190491667D02*
X46181451Y-190339286D01*
X46010022Y-190720238D02*
X45990975Y-190739286D01*
X45990975Y-190739286D02*
X45971927Y-190777381D01*
X45971927Y-190777381D02*
X45971927Y-190872619D01*
X45971927Y-190872619D02*
X45990975Y-190910714D01*
X45990975Y-190910714D02*
X46010022Y-190929762D01*
X46010022Y-190929762D02*
X46048118Y-190948809D01*
X46048118Y-190948809D02*
X46086213Y-190948809D01*
X46086213Y-190948809D02*
X46143356Y-190929762D01*
X46143356Y-190929762D02*
X46371927Y-190701190D01*
X46371927Y-190701190D02*
X46371927Y-190948809D01*
X45971927Y-191082142D02*
X45971927Y-191329761D01*
X45971927Y-191329761D02*
X46124308Y-191196428D01*
X46124308Y-191196428D02*
X46124308Y-191253571D01*
X46124308Y-191253571D02*
X46143356Y-191291666D01*
X46143356Y-191291666D02*
X46162403Y-191310714D01*
X46162403Y-191310714D02*
X46200499Y-191329761D01*
X46200499Y-191329761D02*
X46295737Y-191329761D01*
X46295737Y-191329761D02*
X46333832Y-191310714D01*
X46333832Y-191310714D02*
X46352880Y-191291666D01*
X46352880Y-191291666D02*
X46371927Y-191253571D01*
X46371927Y-191253571D02*
X46371927Y-191139285D01*
X46371927Y-191139285D02*
X46352880Y-191101190D01*
X46352880Y-191101190D02*
X46333832Y-191082142D01*
D10*
X34289524Y-172599819D02*
X34289524Y-171599819D01*
X34289524Y-171599819D02*
X34051429Y-171599819D01*
X34051429Y-171599819D02*
X33908572Y-171647438D01*
X33908572Y-171647438D02*
X33813334Y-171742676D01*
X33813334Y-171742676D02*
X33765715Y-171837914D01*
X33765715Y-171837914D02*
X33718096Y-172028390D01*
X33718096Y-172028390D02*
X33718096Y-172171247D01*
X33718096Y-172171247D02*
X33765715Y-172361723D01*
X33765715Y-172361723D02*
X33813334Y-172456961D01*
X33813334Y-172456961D02*
X33908572Y-172552200D01*
X33908572Y-172552200D02*
X34051429Y-172599819D01*
X34051429Y-172599819D02*
X34289524Y-172599819D01*
X33527620Y-172695057D02*
X32765715Y-172695057D01*
X32575238Y-172552200D02*
X32432381Y-172599819D01*
X32432381Y-172599819D02*
X32194286Y-172599819D01*
X32194286Y-172599819D02*
X32099048Y-172552200D01*
X32099048Y-172552200D02*
X32051429Y-172504580D01*
X32051429Y-172504580D02*
X32003810Y-172409342D01*
X32003810Y-172409342D02*
X32003810Y-172314104D01*
X32003810Y-172314104D02*
X32051429Y-172218866D01*
X32051429Y-172218866D02*
X32099048Y-172171247D01*
X32099048Y-172171247D02*
X32194286Y-172123628D01*
X32194286Y-172123628D02*
X32384762Y-172076009D01*
X32384762Y-172076009D02*
X32480000Y-172028390D01*
X32480000Y-172028390D02*
X32527619Y-171980771D01*
X32527619Y-171980771D02*
X32575238Y-171885533D01*
X32575238Y-171885533D02*
X32575238Y-171790295D01*
X32575238Y-171790295D02*
X32527619Y-171695057D01*
X32527619Y-171695057D02*
X32480000Y-171647438D01*
X32480000Y-171647438D02*
X32384762Y-171599819D01*
X32384762Y-171599819D02*
X32146667Y-171599819D01*
X32146667Y-171599819D02*
X32003810Y-171647438D01*
X31146667Y-172552200D02*
X31241905Y-172599819D01*
X31241905Y-172599819D02*
X31432381Y-172599819D01*
X31432381Y-172599819D02*
X31527619Y-172552200D01*
X31527619Y-172552200D02*
X31575238Y-172504580D01*
X31575238Y-172504580D02*
X31622857Y-172409342D01*
X31622857Y-172409342D02*
X31622857Y-172123628D01*
X31622857Y-172123628D02*
X31575238Y-172028390D01*
X31575238Y-172028390D02*
X31527619Y-171980771D01*
X31527619Y-171980771D02*
X31432381Y-171933152D01*
X31432381Y-171933152D02*
X31241905Y-171933152D01*
X31241905Y-171933152D02*
X31146667Y-171980771D01*
X30718095Y-172599819D02*
X30718095Y-171599819D01*
X30289524Y-172599819D02*
X30289524Y-172076009D01*
X30289524Y-172076009D02*
X30337143Y-171980771D01*
X30337143Y-171980771D02*
X30432381Y-171933152D01*
X30432381Y-171933152D02*
X30575238Y-171933152D01*
X30575238Y-171933152D02*
X30670476Y-171980771D01*
X30670476Y-171980771D02*
X30718095Y-172028390D01*
X29670476Y-172599819D02*
X29765714Y-172552200D01*
X29765714Y-172552200D02*
X29813333Y-172504580D01*
X29813333Y-172504580D02*
X29860952Y-172409342D01*
X29860952Y-172409342D02*
X29860952Y-172123628D01*
X29860952Y-172123628D02*
X29813333Y-172028390D01*
X29813333Y-172028390D02*
X29765714Y-171980771D01*
X29765714Y-171980771D02*
X29670476Y-171933152D01*
X29670476Y-171933152D02*
X29527619Y-171933152D01*
X29527619Y-171933152D02*
X29432381Y-171980771D01*
X29432381Y-171980771D02*
X29384762Y-172028390D01*
X29384762Y-172028390D02*
X29337143Y-172123628D01*
X29337143Y-172123628D02*
X29337143Y-172409342D01*
X29337143Y-172409342D02*
X29384762Y-172504580D01*
X29384762Y-172504580D02*
X29432381Y-172552200D01*
X29432381Y-172552200D02*
X29527619Y-172599819D01*
X29527619Y-172599819D02*
X29670476Y-172599819D01*
X29051428Y-171933152D02*
X28670476Y-171933152D01*
X28908571Y-171599819D02*
X28908571Y-172456961D01*
X28908571Y-172456961D02*
X28860952Y-172552200D01*
X28860952Y-172552200D02*
X28765714Y-172599819D01*
X28765714Y-172599819D02*
X28670476Y-172599819D01*
X28479999Y-171933152D02*
X28099047Y-171933152D01*
X28337142Y-171599819D02*
X28337142Y-172456961D01*
X28337142Y-172456961D02*
X28289523Y-172552200D01*
X28289523Y-172552200D02*
X28194285Y-172599819D01*
X28194285Y-172599819D02*
X28099047Y-172599819D01*
X27765713Y-172599819D02*
X27765713Y-171599819D01*
X27670475Y-172218866D02*
X27384761Y-172599819D01*
X27384761Y-171933152D02*
X27765713Y-172314104D01*
X27051427Y-171933152D02*
X26813332Y-172599819D01*
X26575237Y-171933152D02*
X26813332Y-172599819D01*
X26813332Y-172599819D02*
X26908570Y-172837914D01*
X26908570Y-172837914D02*
X26956189Y-172885533D01*
X26956189Y-172885533D02*
X27051427Y-172933152D01*
X31218094Y-167499819D02*
X31218094Y-166499819D01*
X31218094Y-166499819D02*
X30979999Y-166499819D01*
X30979999Y-166499819D02*
X30837142Y-166547438D01*
X30837142Y-166547438D02*
X30741904Y-166642676D01*
X30741904Y-166642676D02*
X30694285Y-166737914D01*
X30694285Y-166737914D02*
X30646666Y-166928390D01*
X30646666Y-166928390D02*
X30646666Y-167071247D01*
X30646666Y-167071247D02*
X30694285Y-167261723D01*
X30694285Y-167261723D02*
X30741904Y-167356961D01*
X30741904Y-167356961D02*
X30837142Y-167452200D01*
X30837142Y-167452200D02*
X30979999Y-167499819D01*
X30979999Y-167499819D02*
X31218094Y-167499819D01*
X30170475Y-167499819D02*
X29979999Y-167499819D01*
X29979999Y-167499819D02*
X29884761Y-167452200D01*
X29884761Y-167452200D02*
X29837142Y-167404580D01*
X29837142Y-167404580D02*
X29741904Y-167261723D01*
X29741904Y-167261723D02*
X29694285Y-167071247D01*
X29694285Y-167071247D02*
X29694285Y-166690295D01*
X29694285Y-166690295D02*
X29741904Y-166595057D01*
X29741904Y-166595057D02*
X29789523Y-166547438D01*
X29789523Y-166547438D02*
X29884761Y-166499819D01*
X29884761Y-166499819D02*
X30075237Y-166499819D01*
X30075237Y-166499819D02*
X30170475Y-166547438D01*
X30170475Y-166547438D02*
X30218094Y-166595057D01*
X30218094Y-166595057D02*
X30265713Y-166690295D01*
X30265713Y-166690295D02*
X30265713Y-166928390D01*
X30265713Y-166928390D02*
X30218094Y-167023628D01*
X30218094Y-167023628D02*
X30170475Y-167071247D01*
X30170475Y-167071247D02*
X30075237Y-167118866D01*
X30075237Y-167118866D02*
X29884761Y-167118866D01*
X29884761Y-167118866D02*
X29789523Y-167071247D01*
X29789523Y-167071247D02*
X29741904Y-167023628D01*
X29741904Y-167023628D02*
X29694285Y-166928390D01*
X63473237Y-150426200D02*
X63330380Y-150473819D01*
X63330380Y-150473819D02*
X63092285Y-150473819D01*
X63092285Y-150473819D02*
X62997047Y-150426200D01*
X62997047Y-150426200D02*
X62949428Y-150378580D01*
X62949428Y-150378580D02*
X62901809Y-150283342D01*
X62901809Y-150283342D02*
X62901809Y-150188104D01*
X62901809Y-150188104D02*
X62949428Y-150092866D01*
X62949428Y-150092866D02*
X62997047Y-150045247D01*
X62997047Y-150045247D02*
X63092285Y-149997628D01*
X63092285Y-149997628D02*
X63282761Y-149950009D01*
X63282761Y-149950009D02*
X63377999Y-149902390D01*
X63377999Y-149902390D02*
X63425618Y-149854771D01*
X63425618Y-149854771D02*
X63473237Y-149759533D01*
X63473237Y-149759533D02*
X63473237Y-149664295D01*
X63473237Y-149664295D02*
X63425618Y-149569057D01*
X63425618Y-149569057D02*
X63377999Y-149521438D01*
X63377999Y-149521438D02*
X63282761Y-149473819D01*
X63282761Y-149473819D02*
X63044666Y-149473819D01*
X63044666Y-149473819D02*
X62901809Y-149521438D01*
X62473237Y-150473819D02*
X62473237Y-149473819D01*
X62473237Y-149473819D02*
X62139904Y-150188104D01*
X62139904Y-150188104D02*
X61806571Y-149473819D01*
X61806571Y-149473819D02*
X61806571Y-150473819D01*
X60997047Y-149950009D02*
X61330380Y-149950009D01*
X61330380Y-150473819D02*
X61330380Y-149473819D01*
X61330380Y-149473819D02*
X60854190Y-149473819D01*
X59997047Y-149473819D02*
X60473237Y-149473819D01*
X60473237Y-149473819D02*
X60520856Y-149950009D01*
X60520856Y-149950009D02*
X60473237Y-149902390D01*
X60473237Y-149902390D02*
X60377999Y-149854771D01*
X60377999Y-149854771D02*
X60139904Y-149854771D01*
X60139904Y-149854771D02*
X60044666Y-149902390D01*
X60044666Y-149902390D02*
X59997047Y-149950009D01*
X59997047Y-149950009D02*
X59949428Y-150045247D01*
X59949428Y-150045247D02*
X59949428Y-150283342D01*
X59949428Y-150283342D02*
X59997047Y-150378580D01*
X59997047Y-150378580D02*
X60044666Y-150426200D01*
X60044666Y-150426200D02*
X60139904Y-150473819D01*
X60139904Y-150473819D02*
X60377999Y-150473819D01*
X60377999Y-150473819D02*
X60473237Y-150426200D01*
X60473237Y-150426200D02*
X60520856Y-150378580D01*
X59663713Y-149473819D02*
X59330380Y-150473819D01*
X59330380Y-150473819D02*
X58997047Y-149473819D01*
X58473237Y-149473819D02*
X58377999Y-149473819D01*
X58377999Y-149473819D02*
X58282761Y-149521438D01*
X58282761Y-149521438D02*
X58235142Y-149569057D01*
X58235142Y-149569057D02*
X58187523Y-149664295D01*
X58187523Y-149664295D02*
X58139904Y-149854771D01*
X58139904Y-149854771D02*
X58139904Y-150092866D01*
X58139904Y-150092866D02*
X58187523Y-150283342D01*
X58187523Y-150283342D02*
X58235142Y-150378580D01*
X58235142Y-150378580D02*
X58282761Y-150426200D01*
X58282761Y-150426200D02*
X58377999Y-150473819D01*
X58377999Y-150473819D02*
X58473237Y-150473819D01*
X58473237Y-150473819D02*
X58568475Y-150426200D01*
X58568475Y-150426200D02*
X58616094Y-150378580D01*
X58616094Y-150378580D02*
X58663713Y-150283342D01*
X58663713Y-150283342D02*
X58711332Y-150092866D01*
X58711332Y-150092866D02*
X58711332Y-149854771D01*
X58711332Y-149854771D02*
X58663713Y-149664295D01*
X58663713Y-149664295D02*
X58616094Y-149569057D01*
X58616094Y-149569057D02*
X58568475Y-149521438D01*
X58568475Y-149521438D02*
X58473237Y-149473819D01*
X57758951Y-150188104D02*
X57282761Y-150188104D01*
X57854189Y-150473819D02*
X57520856Y-149473819D01*
X57520856Y-149473819D02*
X57187523Y-150473819D01*
X61116094Y-154473819D02*
X61116094Y-153473819D01*
X61116094Y-153473819D02*
X60877999Y-153473819D01*
X60877999Y-153473819D02*
X60735142Y-153521438D01*
X60735142Y-153521438D02*
X60639904Y-153616676D01*
X60639904Y-153616676D02*
X60592285Y-153711914D01*
X60592285Y-153711914D02*
X60544666Y-153902390D01*
X60544666Y-153902390D02*
X60544666Y-154045247D01*
X60544666Y-154045247D02*
X60592285Y-154235723D01*
X60592285Y-154235723D02*
X60639904Y-154330961D01*
X60639904Y-154330961D02*
X60735142Y-154426200D01*
X60735142Y-154426200D02*
X60877999Y-154473819D01*
X60877999Y-154473819D02*
X61116094Y-154473819D01*
X59592285Y-154473819D02*
X60163713Y-154473819D01*
X59877999Y-154473819D02*
X59877999Y-153473819D01*
X59877999Y-153473819D02*
X59973237Y-153616676D01*
X59973237Y-153616676D02*
X60068475Y-153711914D01*
X60068475Y-153711914D02*
X60163713Y-153759533D01*
X44812261Y-179908819D02*
X44621785Y-179908819D01*
X44621785Y-179908819D02*
X44526547Y-179956438D01*
X44526547Y-179956438D02*
X44431309Y-180051676D01*
X44431309Y-180051676D02*
X44383690Y-180242152D01*
X44383690Y-180242152D02*
X44383690Y-180575485D01*
X44383690Y-180575485D02*
X44431309Y-180765961D01*
X44431309Y-180765961D02*
X44526547Y-180861200D01*
X44526547Y-180861200D02*
X44621785Y-180908819D01*
X44621785Y-180908819D02*
X44812261Y-180908819D01*
X44812261Y-180908819D02*
X44907499Y-180861200D01*
X44907499Y-180861200D02*
X45002737Y-180765961D01*
X45002737Y-180765961D02*
X45050356Y-180575485D01*
X45050356Y-180575485D02*
X45050356Y-180242152D01*
X45050356Y-180242152D02*
X45002737Y-180051676D01*
X45002737Y-180051676D02*
X44907499Y-179956438D01*
X44907499Y-179956438D02*
X44812261Y-179908819D01*
X43955118Y-180908819D02*
X43955118Y-179908819D01*
X43955118Y-179908819D02*
X43574166Y-179908819D01*
X43574166Y-179908819D02*
X43478928Y-179956438D01*
X43478928Y-179956438D02*
X43431309Y-180004057D01*
X43431309Y-180004057D02*
X43383690Y-180099295D01*
X43383690Y-180099295D02*
X43383690Y-180242152D01*
X43383690Y-180242152D02*
X43431309Y-180337390D01*
X43431309Y-180337390D02*
X43478928Y-180385009D01*
X43478928Y-180385009D02*
X43574166Y-180432628D01*
X43574166Y-180432628D02*
X43955118Y-180432628D01*
X43002737Y-180623104D02*
X42526547Y-180623104D01*
X43097975Y-180908819D02*
X42764642Y-179908819D01*
X42764642Y-179908819D02*
X42431309Y-180908819D01*
X42193213Y-179908819D02*
X41574166Y-179908819D01*
X41574166Y-179908819D02*
X41907499Y-180289771D01*
X41907499Y-180289771D02*
X41764642Y-180289771D01*
X41764642Y-180289771D02*
X41669404Y-180337390D01*
X41669404Y-180337390D02*
X41621785Y-180385009D01*
X41621785Y-180385009D02*
X41574166Y-180480247D01*
X41574166Y-180480247D02*
X41574166Y-180718342D01*
X41574166Y-180718342D02*
X41621785Y-180813580D01*
X41621785Y-180813580D02*
X41669404Y-180861200D01*
X41669404Y-180861200D02*
X41764642Y-180908819D01*
X41764642Y-180908819D02*
X42050356Y-180908819D01*
X42050356Y-180908819D02*
X42145594Y-180861200D01*
X42145594Y-180861200D02*
X42193213Y-180813580D01*
X40717023Y-180242152D02*
X40717023Y-180908819D01*
X40955118Y-179861200D02*
X41193213Y-180575485D01*
X41193213Y-180575485D02*
X40574166Y-180575485D01*
X40002737Y-179908819D02*
X39907499Y-179908819D01*
X39907499Y-179908819D02*
X39812261Y-179956438D01*
X39812261Y-179956438D02*
X39764642Y-180004057D01*
X39764642Y-180004057D02*
X39717023Y-180099295D01*
X39717023Y-180099295D02*
X39669404Y-180289771D01*
X39669404Y-180289771D02*
X39669404Y-180527866D01*
X39669404Y-180527866D02*
X39717023Y-180718342D01*
X39717023Y-180718342D02*
X39764642Y-180813580D01*
X39764642Y-180813580D02*
X39812261Y-180861200D01*
X39812261Y-180861200D02*
X39907499Y-180908819D01*
X39907499Y-180908819D02*
X40002737Y-180908819D01*
X40002737Y-180908819D02*
X40097975Y-180861200D01*
X40097975Y-180861200D02*
X40145594Y-180813580D01*
X40145594Y-180813580D02*
X40193213Y-180718342D01*
X40193213Y-180718342D02*
X40240832Y-180527866D01*
X40240832Y-180527866D02*
X40240832Y-180289771D01*
X40240832Y-180289771D02*
X40193213Y-180099295D01*
X40193213Y-180099295D02*
X40145594Y-180004057D01*
X40145594Y-180004057D02*
X40097975Y-179956438D01*
X40097975Y-179956438D02*
X40002737Y-179908819D01*
X39240832Y-180908819D02*
X39240832Y-179908819D01*
X39240832Y-179908819D02*
X38669404Y-180908819D01*
X38669404Y-180908819D02*
X38669404Y-179908819D01*
X38240832Y-180623104D02*
X37764642Y-180623104D01*
X38336070Y-180908819D02*
X38002737Y-179908819D01*
X38002737Y-179908819D02*
X37669404Y-180908819D01*
D11*
X41712261Y-177835927D02*
X41712261Y-178159737D01*
X41712261Y-178159737D02*
X41693214Y-178197832D01*
X41693214Y-178197832D02*
X41674166Y-178216880D01*
X41674166Y-178216880D02*
X41636071Y-178235927D01*
X41636071Y-178235927D02*
X41559880Y-178235927D01*
X41559880Y-178235927D02*
X41521785Y-178216880D01*
X41521785Y-178216880D02*
X41502738Y-178197832D01*
X41502738Y-178197832D02*
X41483690Y-178159737D01*
X41483690Y-178159737D02*
X41483690Y-177835927D01*
X41331309Y-177835927D02*
X41064642Y-177835927D01*
X41064642Y-177835927D02*
X41236071Y-178235927D01*
D10*
X45349819Y-176399119D02*
X45349819Y-175922929D01*
X45349819Y-175922929D02*
X44349819Y-175922929D01*
X45349819Y-176732453D02*
X44349819Y-176732453D01*
X44349819Y-176732453D02*
X45064104Y-177065786D01*
X45064104Y-177065786D02*
X44349819Y-177399119D01*
X44349819Y-177399119D02*
X45349819Y-177399119D01*
X44683152Y-178303881D02*
X45349819Y-178303881D01*
X44302200Y-178065786D02*
X45016485Y-177827691D01*
X45016485Y-177827691D02*
X45016485Y-178446738D01*
X44349819Y-179018167D02*
X44349819Y-179113405D01*
X44349819Y-179113405D02*
X44397438Y-179208643D01*
X44397438Y-179208643D02*
X44445057Y-179256262D01*
X44445057Y-179256262D02*
X44540295Y-179303881D01*
X44540295Y-179303881D02*
X44730771Y-179351500D01*
X44730771Y-179351500D02*
X44968866Y-179351500D01*
X44968866Y-179351500D02*
X45159342Y-179303881D01*
X45159342Y-179303881D02*
X45254580Y-179256262D01*
X45254580Y-179256262D02*
X45302200Y-179208643D01*
X45302200Y-179208643D02*
X45349819Y-179113405D01*
X45349819Y-179113405D02*
X45349819Y-179018167D01*
X45349819Y-179018167D02*
X45302200Y-178922929D01*
X45302200Y-178922929D02*
X45254580Y-178875310D01*
X45254580Y-178875310D02*
X45159342Y-178827691D01*
X45159342Y-178827691D02*
X44968866Y-178780072D01*
X44968866Y-178780072D02*
X44730771Y-178780072D01*
X44730771Y-178780072D02*
X44540295Y-178827691D01*
X44540295Y-178827691D02*
X44445057Y-178875310D01*
X44445057Y-178875310D02*
X44397438Y-178922929D01*
X44397438Y-178922929D02*
X44349819Y-179018167D01*
X44683152Y-180208643D02*
X45349819Y-180208643D01*
X44302200Y-179970548D02*
X45016485Y-179732453D01*
X45016485Y-179732453D02*
X45016485Y-180351500D01*
X44349819Y-180922929D02*
X44349819Y-181018167D01*
X44349819Y-181018167D02*
X44397438Y-181113405D01*
X44397438Y-181113405D02*
X44445057Y-181161024D01*
X44445057Y-181161024D02*
X44540295Y-181208643D01*
X44540295Y-181208643D02*
X44730771Y-181256262D01*
X44730771Y-181256262D02*
X44968866Y-181256262D01*
X44968866Y-181256262D02*
X45159342Y-181208643D01*
X45159342Y-181208643D02*
X45254580Y-181161024D01*
X45254580Y-181161024D02*
X45302200Y-181113405D01*
X45302200Y-181113405D02*
X45349819Y-181018167D01*
X45349819Y-181018167D02*
X45349819Y-180922929D01*
X45349819Y-180922929D02*
X45302200Y-180827691D01*
X45302200Y-180827691D02*
X45254580Y-180780072D01*
X45254580Y-180780072D02*
X45159342Y-180732453D01*
X45159342Y-180732453D02*
X44968866Y-180684834D01*
X44968866Y-180684834D02*
X44730771Y-180684834D01*
X44730771Y-180684834D02*
X44540295Y-180732453D01*
X44540295Y-180732453D02*
X44445057Y-180780072D01*
X44445057Y-180780072D02*
X44397438Y-180827691D01*
X44397438Y-180827691D02*
X44349819Y-180922929D01*
X45349819Y-181684834D02*
X44349819Y-181684834D01*
X44349819Y-181684834D02*
X44349819Y-181922929D01*
X44349819Y-181922929D02*
X44397438Y-182065786D01*
X44397438Y-182065786D02*
X44492676Y-182161024D01*
X44492676Y-182161024D02*
X44587914Y-182208643D01*
X44587914Y-182208643D02*
X44778390Y-182256262D01*
X44778390Y-182256262D02*
X44921247Y-182256262D01*
X44921247Y-182256262D02*
X45111723Y-182208643D01*
X45111723Y-182208643D02*
X45206961Y-182161024D01*
X45206961Y-182161024D02*
X45302200Y-182065786D01*
X45302200Y-182065786D02*
X45349819Y-181922929D01*
X45349819Y-181922929D02*
X45349819Y-181684834D01*
X44826009Y-183018167D02*
X44873628Y-183161024D01*
X44873628Y-183161024D02*
X44921247Y-183208643D01*
X44921247Y-183208643D02*
X45016485Y-183256262D01*
X45016485Y-183256262D02*
X45159342Y-183256262D01*
X45159342Y-183256262D02*
X45254580Y-183208643D01*
X45254580Y-183208643D02*
X45302200Y-183161024D01*
X45302200Y-183161024D02*
X45349819Y-183065786D01*
X45349819Y-183065786D02*
X45349819Y-182684834D01*
X45349819Y-182684834D02*
X44349819Y-182684834D01*
X44349819Y-182684834D02*
X44349819Y-183018167D01*
X44349819Y-183018167D02*
X44397438Y-183113405D01*
X44397438Y-183113405D02*
X44445057Y-183161024D01*
X44445057Y-183161024D02*
X44540295Y-183208643D01*
X44540295Y-183208643D02*
X44635533Y-183208643D01*
X44635533Y-183208643D02*
X44730771Y-183161024D01*
X44730771Y-183161024D02*
X44778390Y-183113405D01*
X44778390Y-183113405D02*
X44826009Y-183018167D01*
X44826009Y-183018167D02*
X44826009Y-182684834D01*
X44349819Y-183589596D02*
X44349819Y-184256262D01*
X44349819Y-184256262D02*
X45349819Y-183589596D01*
X45349819Y-183589596D02*
X45349819Y-184256262D01*
X44968866Y-184637215D02*
X44968866Y-185399120D01*
X44445057Y-185827691D02*
X44397438Y-185875310D01*
X44397438Y-185875310D02*
X44349819Y-185970548D01*
X44349819Y-185970548D02*
X44349819Y-186208643D01*
X44349819Y-186208643D02*
X44397438Y-186303881D01*
X44397438Y-186303881D02*
X44445057Y-186351500D01*
X44445057Y-186351500D02*
X44540295Y-186399119D01*
X44540295Y-186399119D02*
X44635533Y-186399119D01*
X44635533Y-186399119D02*
X44778390Y-186351500D01*
X44778390Y-186351500D02*
X45349819Y-185780072D01*
X45349819Y-185780072D02*
X45349819Y-186399119D01*
X45254580Y-186827691D02*
X45302200Y-186875310D01*
X45302200Y-186875310D02*
X45349819Y-186827691D01*
X45349819Y-186827691D02*
X45302200Y-186780072D01*
X45302200Y-186780072D02*
X45254580Y-186827691D01*
X45254580Y-186827691D02*
X45349819Y-186827691D01*
X44349819Y-187780071D02*
X44349819Y-187303881D01*
X44349819Y-187303881D02*
X44826009Y-187256262D01*
X44826009Y-187256262D02*
X44778390Y-187303881D01*
X44778390Y-187303881D02*
X44730771Y-187399119D01*
X44730771Y-187399119D02*
X44730771Y-187637214D01*
X44730771Y-187637214D02*
X44778390Y-187732452D01*
X44778390Y-187732452D02*
X44826009Y-187780071D01*
X44826009Y-187780071D02*
X44921247Y-187827690D01*
X44921247Y-187827690D02*
X45159342Y-187827690D01*
X45159342Y-187827690D02*
X45254580Y-187780071D01*
X45254580Y-187780071D02*
X45302200Y-187732452D01*
X45302200Y-187732452D02*
X45349819Y-187637214D01*
X45349819Y-187637214D02*
X45349819Y-187399119D01*
X45349819Y-187399119D02*
X45302200Y-187303881D01*
X45302200Y-187303881D02*
X45254580Y-187256262D01*
D12*
X42320438Y-181607690D02*
X42579485Y-181607690D01*
X42579485Y-181607690D02*
X42609961Y-181622928D01*
X42609961Y-181622928D02*
X42625200Y-181638166D01*
X42625200Y-181638166D02*
X42640438Y-181668642D01*
X42640438Y-181668642D02*
X42640438Y-181729595D01*
X42640438Y-181729595D02*
X42625200Y-181760071D01*
X42625200Y-181760071D02*
X42609961Y-181775309D01*
X42609961Y-181775309D02*
X42579485Y-181790547D01*
X42579485Y-181790547D02*
X42320438Y-181790547D01*
X42457580Y-181988642D02*
X42442342Y-181958166D01*
X42442342Y-181958166D02*
X42427104Y-181942928D01*
X42427104Y-181942928D02*
X42396628Y-181927690D01*
X42396628Y-181927690D02*
X42381390Y-181927690D01*
X42381390Y-181927690D02*
X42350914Y-181942928D01*
X42350914Y-181942928D02*
X42335676Y-181958166D01*
X42335676Y-181958166D02*
X42320438Y-181988642D01*
X42320438Y-181988642D02*
X42320438Y-182049595D01*
X42320438Y-182049595D02*
X42335676Y-182080071D01*
X42335676Y-182080071D02*
X42350914Y-182095309D01*
X42350914Y-182095309D02*
X42381390Y-182110547D01*
X42381390Y-182110547D02*
X42396628Y-182110547D01*
X42396628Y-182110547D02*
X42427104Y-182095309D01*
X42427104Y-182095309D02*
X42442342Y-182080071D01*
X42442342Y-182080071D02*
X42457580Y-182049595D01*
X42457580Y-182049595D02*
X42457580Y-181988642D01*
X42457580Y-181988642D02*
X42472819Y-181958166D01*
X42472819Y-181958166D02*
X42488057Y-181942928D01*
X42488057Y-181942928D02*
X42518533Y-181927690D01*
X42518533Y-181927690D02*
X42579485Y-181927690D01*
X42579485Y-181927690D02*
X42609961Y-181942928D01*
X42609961Y-181942928D02*
X42625200Y-181958166D01*
X42625200Y-181958166D02*
X42640438Y-181988642D01*
X42640438Y-181988642D02*
X42640438Y-182049595D01*
X42640438Y-182049595D02*
X42625200Y-182080071D01*
X42625200Y-182080071D02*
X42609961Y-182095309D01*
X42609961Y-182095309D02*
X42579485Y-182110547D01*
X42579485Y-182110547D02*
X42518533Y-182110547D01*
X42518533Y-182110547D02*
X42488057Y-182095309D01*
X42488057Y-182095309D02*
X42472819Y-182080071D01*
X42472819Y-182080071D02*
X42457580Y-182049595D01*
D10*
X42536380Y-152248819D02*
X42536380Y-151248819D01*
X42536380Y-151248819D02*
X42203047Y-151963104D01*
X42203047Y-151963104D02*
X41869714Y-151248819D01*
X41869714Y-151248819D02*
X41869714Y-152248819D01*
X41441142Y-151963104D02*
X40964952Y-151963104D01*
X41536380Y-152248819D02*
X41203047Y-151248819D01*
X41203047Y-151248819D02*
X40869714Y-152248819D01*
X40631618Y-151248819D02*
X39964952Y-152248819D01*
X39964952Y-151248819D02*
X40631618Y-152248819D01*
X39679237Y-151248819D02*
X39060190Y-151248819D01*
X39060190Y-151248819D02*
X39393523Y-151629771D01*
X39393523Y-151629771D02*
X39250666Y-151629771D01*
X39250666Y-151629771D02*
X39155428Y-151677390D01*
X39155428Y-151677390D02*
X39107809Y-151725009D01*
X39107809Y-151725009D02*
X39060190Y-151820247D01*
X39060190Y-151820247D02*
X39060190Y-152058342D01*
X39060190Y-152058342D02*
X39107809Y-152153580D01*
X39107809Y-152153580D02*
X39155428Y-152201200D01*
X39155428Y-152201200D02*
X39250666Y-152248819D01*
X39250666Y-152248819D02*
X39536380Y-152248819D01*
X39536380Y-152248819D02*
X39631618Y-152201200D01*
X39631618Y-152201200D02*
X39679237Y-152153580D01*
X38107809Y-152248819D02*
X38679237Y-152248819D01*
X38393523Y-152248819D02*
X38393523Y-151248819D01*
X38393523Y-151248819D02*
X38488761Y-151391676D01*
X38488761Y-151391676D02*
X38583999Y-151486914D01*
X38583999Y-151486914D02*
X38679237Y-151534533D01*
X37536380Y-151677390D02*
X37631618Y-151629771D01*
X37631618Y-151629771D02*
X37679237Y-151582152D01*
X37679237Y-151582152D02*
X37726856Y-151486914D01*
X37726856Y-151486914D02*
X37726856Y-151439295D01*
X37726856Y-151439295D02*
X37679237Y-151344057D01*
X37679237Y-151344057D02*
X37631618Y-151296438D01*
X37631618Y-151296438D02*
X37536380Y-151248819D01*
X37536380Y-151248819D02*
X37345904Y-151248819D01*
X37345904Y-151248819D02*
X37250666Y-151296438D01*
X37250666Y-151296438D02*
X37203047Y-151344057D01*
X37203047Y-151344057D02*
X37155428Y-151439295D01*
X37155428Y-151439295D02*
X37155428Y-151486914D01*
X37155428Y-151486914D02*
X37203047Y-151582152D01*
X37203047Y-151582152D02*
X37250666Y-151629771D01*
X37250666Y-151629771D02*
X37345904Y-151677390D01*
X37345904Y-151677390D02*
X37536380Y-151677390D01*
X37536380Y-151677390D02*
X37631618Y-151725009D01*
X37631618Y-151725009D02*
X37679237Y-151772628D01*
X37679237Y-151772628D02*
X37726856Y-151867866D01*
X37726856Y-151867866D02*
X37726856Y-152058342D01*
X37726856Y-152058342D02*
X37679237Y-152153580D01*
X37679237Y-152153580D02*
X37631618Y-152201200D01*
X37631618Y-152201200D02*
X37536380Y-152248819D01*
X37536380Y-152248819D02*
X37345904Y-152248819D01*
X37345904Y-152248819D02*
X37250666Y-152201200D01*
X37250666Y-152201200D02*
X37203047Y-152153580D01*
X37203047Y-152153580D02*
X37155428Y-152058342D01*
X37155428Y-152058342D02*
X37155428Y-151867866D01*
X37155428Y-151867866D02*
X37203047Y-151772628D01*
X37203047Y-151772628D02*
X37250666Y-151725009D01*
X37250666Y-151725009D02*
X37345904Y-151677390D01*
X36250666Y-151248819D02*
X36726856Y-151248819D01*
X36726856Y-151248819D02*
X36774475Y-151725009D01*
X36774475Y-151725009D02*
X36726856Y-151677390D01*
X36726856Y-151677390D02*
X36631618Y-151629771D01*
X36631618Y-151629771D02*
X36393523Y-151629771D01*
X36393523Y-151629771D02*
X36298285Y-151677390D01*
X36298285Y-151677390D02*
X36250666Y-151725009D01*
X36250666Y-151725009D02*
X36203047Y-151820247D01*
X36203047Y-151820247D02*
X36203047Y-152058342D01*
X36203047Y-152058342D02*
X36250666Y-152153580D01*
X36250666Y-152153580D02*
X36298285Y-152201200D01*
X36298285Y-152201200D02*
X36393523Y-152248819D01*
X36393523Y-152248819D02*
X36631618Y-152248819D01*
X36631618Y-152248819D02*
X36726856Y-152201200D01*
X36726856Y-152201200D02*
X36774475Y-152153580D01*
X35298285Y-151248819D02*
X35774475Y-151248819D01*
X35774475Y-151248819D02*
X35822094Y-151725009D01*
X35822094Y-151725009D02*
X35774475Y-151677390D01*
X35774475Y-151677390D02*
X35679237Y-151629771D01*
X35679237Y-151629771D02*
X35441142Y-151629771D01*
X35441142Y-151629771D02*
X35345904Y-151677390D01*
X35345904Y-151677390D02*
X35298285Y-151725009D01*
X35298285Y-151725009D02*
X35250666Y-151820247D01*
X35250666Y-151820247D02*
X35250666Y-152058342D01*
X35250666Y-152058342D02*
X35298285Y-152153580D01*
X35298285Y-152153580D02*
X35345904Y-152201200D01*
X35345904Y-152201200D02*
X35441142Y-152248819D01*
X35441142Y-152248819D02*
X35679237Y-152248819D01*
X35679237Y-152248819D02*
X35774475Y-152201200D01*
X35774475Y-152201200D02*
X35822094Y-152153580D01*
X34822094Y-152248819D02*
X34822094Y-151248819D01*
X34250666Y-152248819D02*
X34679237Y-151677390D01*
X34250666Y-151248819D02*
X34822094Y-151820247D01*
X33869713Y-151963104D02*
X33393523Y-151963104D01*
X33964951Y-152248819D02*
X33631618Y-151248819D01*
X33631618Y-151248819D02*
X33298285Y-152248819D01*
X33012570Y-152201200D02*
X32869713Y-152248819D01*
X32869713Y-152248819D02*
X32631618Y-152248819D01*
X32631618Y-152248819D02*
X32536380Y-152201200D01*
X32536380Y-152201200D02*
X32488761Y-152153580D01*
X32488761Y-152153580D02*
X32441142Y-152058342D01*
X32441142Y-152058342D02*
X32441142Y-151963104D01*
X32441142Y-151963104D02*
X32488761Y-151867866D01*
X32488761Y-151867866D02*
X32536380Y-151820247D01*
X32536380Y-151820247D02*
X32631618Y-151772628D01*
X32631618Y-151772628D02*
X32822094Y-151725009D01*
X32822094Y-151725009D02*
X32917332Y-151677390D01*
X32917332Y-151677390D02*
X32964951Y-151629771D01*
X32964951Y-151629771D02*
X33012570Y-151534533D01*
X33012570Y-151534533D02*
X33012570Y-151439295D01*
X33012570Y-151439295D02*
X32964951Y-151344057D01*
X32964951Y-151344057D02*
X32917332Y-151296438D01*
X32917332Y-151296438D02*
X32822094Y-151248819D01*
X32822094Y-151248819D02*
X32583999Y-151248819D01*
X32583999Y-151248819D02*
X32441142Y-151296438D01*
X32060189Y-151963104D02*
X31583999Y-151963104D01*
X32155427Y-152248819D02*
X31822094Y-151248819D01*
X31822094Y-151248819D02*
X31488761Y-152248819D01*
X36549566Y-154447333D02*
X37342900Y-154447333D01*
X37342900Y-154447333D02*
X37436233Y-154494000D01*
X37436233Y-154494000D02*
X37482900Y-154540666D01*
X37482900Y-154540666D02*
X37529566Y-154634000D01*
X37529566Y-154634000D02*
X37529566Y-154820666D01*
X37529566Y-154820666D02*
X37482900Y-154914000D01*
X37482900Y-154914000D02*
X37436233Y-154960666D01*
X37436233Y-154960666D02*
X37342900Y-155007333D01*
X37342900Y-155007333D02*
X36549566Y-155007333D01*
X36549566Y-155380667D02*
X36549566Y-155987333D01*
X36549566Y-155987333D02*
X36922900Y-155660667D01*
X36922900Y-155660667D02*
X36922900Y-155800667D01*
X36922900Y-155800667D02*
X36969566Y-155894000D01*
X36969566Y-155894000D02*
X37016233Y-155940667D01*
X37016233Y-155940667D02*
X37109566Y-155987333D01*
X37109566Y-155987333D02*
X37342900Y-155987333D01*
X37342900Y-155987333D02*
X37436233Y-155940667D01*
X37436233Y-155940667D02*
X37482900Y-155894000D01*
X37482900Y-155894000D02*
X37529566Y-155800667D01*
X37529566Y-155800667D02*
X37529566Y-155520667D01*
X37529566Y-155520667D02*
X37482900Y-155427333D01*
X37482900Y-155427333D02*
X37436233Y-155380667D01*
X40484819Y-187170714D02*
X40484819Y-187265952D01*
X40484819Y-187265952D02*
X40532438Y-187361190D01*
X40532438Y-187361190D02*
X40580057Y-187408809D01*
X40580057Y-187408809D02*
X40675295Y-187456428D01*
X40675295Y-187456428D02*
X40865771Y-187504047D01*
X40865771Y-187504047D02*
X41103866Y-187504047D01*
X41103866Y-187504047D02*
X41294342Y-187456428D01*
X41294342Y-187456428D02*
X41389580Y-187408809D01*
X41389580Y-187408809D02*
X41437200Y-187361190D01*
X41437200Y-187361190D02*
X41484819Y-187265952D01*
X41484819Y-187265952D02*
X41484819Y-187170714D01*
X41484819Y-187170714D02*
X41437200Y-187075476D01*
X41437200Y-187075476D02*
X41389580Y-187027857D01*
X41389580Y-187027857D02*
X41294342Y-186980238D01*
X41294342Y-186980238D02*
X41103866Y-186932619D01*
X41103866Y-186932619D02*
X40865771Y-186932619D01*
X40865771Y-186932619D02*
X40675295Y-186980238D01*
X40675295Y-186980238D02*
X40580057Y-187027857D01*
X40580057Y-187027857D02*
X40532438Y-187075476D01*
X40532438Y-187075476D02*
X40484819Y-187170714D01*
X41389580Y-187932619D02*
X41437200Y-187980238D01*
X41437200Y-187980238D02*
X41484819Y-187932619D01*
X41484819Y-187932619D02*
X41437200Y-187885000D01*
X41437200Y-187885000D02*
X41389580Y-187932619D01*
X41389580Y-187932619D02*
X41484819Y-187932619D01*
X41484819Y-188932618D02*
X41484819Y-188361190D01*
X41484819Y-188646904D02*
X40484819Y-188646904D01*
X40484819Y-188646904D02*
X40627676Y-188551666D01*
X40627676Y-188551666D02*
X40722914Y-188456428D01*
X40722914Y-188456428D02*
X40770533Y-188361190D01*
X40818152Y-189361190D02*
X41818152Y-189361190D01*
X41341961Y-189837380D02*
X41437200Y-189884999D01*
X41437200Y-189884999D02*
X41484819Y-189980237D01*
X41341961Y-189361190D02*
X41437200Y-189408809D01*
X41437200Y-189408809D02*
X41484819Y-189504047D01*
X41484819Y-189504047D02*
X41484819Y-189694523D01*
X41484819Y-189694523D02*
X41437200Y-189789761D01*
X41437200Y-189789761D02*
X41341961Y-189837380D01*
X41341961Y-189837380D02*
X40818152Y-189837380D01*
X40961009Y-190742142D02*
X40961009Y-190408809D01*
X41484819Y-190408809D02*
X40484819Y-190408809D01*
X40484819Y-190408809D02*
X40484819Y-190884999D01*
D11*
X42603832Y-188818333D02*
X42622880Y-188799285D01*
X42622880Y-188799285D02*
X42641927Y-188742143D01*
X42641927Y-188742143D02*
X42641927Y-188704047D01*
X42641927Y-188704047D02*
X42622880Y-188646904D01*
X42622880Y-188646904D02*
X42584784Y-188608809D01*
X42584784Y-188608809D02*
X42546689Y-188589762D01*
X42546689Y-188589762D02*
X42470499Y-188570714D01*
X42470499Y-188570714D02*
X42413356Y-188570714D01*
X42413356Y-188570714D02*
X42337165Y-188589762D01*
X42337165Y-188589762D02*
X42299070Y-188608809D01*
X42299070Y-188608809D02*
X42260975Y-188646904D01*
X42260975Y-188646904D02*
X42241927Y-188704047D01*
X42241927Y-188704047D02*
X42241927Y-188742143D01*
X42241927Y-188742143D02*
X42260975Y-188799285D01*
X42260975Y-188799285D02*
X42280022Y-188818333D01*
X42280022Y-188970714D02*
X42260975Y-188989762D01*
X42260975Y-188989762D02*
X42241927Y-189027857D01*
X42241927Y-189027857D02*
X42241927Y-189123095D01*
X42241927Y-189123095D02*
X42260975Y-189161190D01*
X42260975Y-189161190D02*
X42280022Y-189180238D01*
X42280022Y-189180238D02*
X42318118Y-189199285D01*
X42318118Y-189199285D02*
X42356213Y-189199285D01*
X42356213Y-189199285D02*
X42413356Y-189180238D01*
X42413356Y-189180238D02*
X42641927Y-188951666D01*
X42641927Y-188951666D02*
X42641927Y-189199285D01*
D10*
X25634819Y-189270475D02*
X24634819Y-189270475D01*
X24634819Y-189270475D02*
X24634819Y-189508570D01*
X24634819Y-189508570D02*
X24682438Y-189651427D01*
X24682438Y-189651427D02*
X24777676Y-189746665D01*
X24777676Y-189746665D02*
X24872914Y-189794284D01*
X24872914Y-189794284D02*
X25063390Y-189841903D01*
X25063390Y-189841903D02*
X25206247Y-189841903D01*
X25206247Y-189841903D02*
X25396723Y-189794284D01*
X25396723Y-189794284D02*
X25491961Y-189746665D01*
X25491961Y-189746665D02*
X25587200Y-189651427D01*
X25587200Y-189651427D02*
X25634819Y-189508570D01*
X25634819Y-189508570D02*
X25634819Y-189270475D01*
X25730057Y-190032380D02*
X25730057Y-190794284D01*
X25587200Y-190984761D02*
X25634819Y-191127618D01*
X25634819Y-191127618D02*
X25634819Y-191365713D01*
X25634819Y-191365713D02*
X25587200Y-191460951D01*
X25587200Y-191460951D02*
X25539580Y-191508570D01*
X25539580Y-191508570D02*
X25444342Y-191556189D01*
X25444342Y-191556189D02*
X25349104Y-191556189D01*
X25349104Y-191556189D02*
X25253866Y-191508570D01*
X25253866Y-191508570D02*
X25206247Y-191460951D01*
X25206247Y-191460951D02*
X25158628Y-191365713D01*
X25158628Y-191365713D02*
X25111009Y-191175237D01*
X25111009Y-191175237D02*
X25063390Y-191079999D01*
X25063390Y-191079999D02*
X25015771Y-191032380D01*
X25015771Y-191032380D02*
X24920533Y-190984761D01*
X24920533Y-190984761D02*
X24825295Y-190984761D01*
X24825295Y-190984761D02*
X24730057Y-191032380D01*
X24730057Y-191032380D02*
X24682438Y-191079999D01*
X24682438Y-191079999D02*
X24634819Y-191175237D01*
X24634819Y-191175237D02*
X24634819Y-191413332D01*
X24634819Y-191413332D02*
X24682438Y-191556189D01*
X25587200Y-192413332D02*
X25634819Y-192318094D01*
X25634819Y-192318094D02*
X25634819Y-192127618D01*
X25634819Y-192127618D02*
X25587200Y-192032380D01*
X25587200Y-192032380D02*
X25539580Y-191984761D01*
X25539580Y-191984761D02*
X25444342Y-191937142D01*
X25444342Y-191937142D02*
X25158628Y-191937142D01*
X25158628Y-191937142D02*
X25063390Y-191984761D01*
X25063390Y-191984761D02*
X25015771Y-192032380D01*
X25015771Y-192032380D02*
X24968152Y-192127618D01*
X24968152Y-192127618D02*
X24968152Y-192318094D01*
X24968152Y-192318094D02*
X25015771Y-192413332D01*
X25634819Y-192841904D02*
X24634819Y-192841904D01*
X25634819Y-193270475D02*
X25111009Y-193270475D01*
X25111009Y-193270475D02*
X25015771Y-193222856D01*
X25015771Y-193222856D02*
X24968152Y-193127618D01*
X24968152Y-193127618D02*
X24968152Y-192984761D01*
X24968152Y-192984761D02*
X25015771Y-192889523D01*
X25015771Y-192889523D02*
X25063390Y-192841904D01*
X25634819Y-193889523D02*
X25587200Y-193794285D01*
X25587200Y-193794285D02*
X25539580Y-193746666D01*
X25539580Y-193746666D02*
X25444342Y-193699047D01*
X25444342Y-193699047D02*
X25158628Y-193699047D01*
X25158628Y-193699047D02*
X25063390Y-193746666D01*
X25063390Y-193746666D02*
X25015771Y-193794285D01*
X25015771Y-193794285D02*
X24968152Y-193889523D01*
X24968152Y-193889523D02*
X24968152Y-194032380D01*
X24968152Y-194032380D02*
X25015771Y-194127618D01*
X25015771Y-194127618D02*
X25063390Y-194175237D01*
X25063390Y-194175237D02*
X25158628Y-194222856D01*
X25158628Y-194222856D02*
X25444342Y-194222856D01*
X25444342Y-194222856D02*
X25539580Y-194175237D01*
X25539580Y-194175237D02*
X25587200Y-194127618D01*
X25587200Y-194127618D02*
X25634819Y-194032380D01*
X25634819Y-194032380D02*
X25634819Y-193889523D01*
X24968152Y-194508571D02*
X24968152Y-194889523D01*
X24634819Y-194651428D02*
X25491961Y-194651428D01*
X25491961Y-194651428D02*
X25587200Y-194699047D01*
X25587200Y-194699047D02*
X25634819Y-194794285D01*
X25634819Y-194794285D02*
X25634819Y-194889523D01*
X24968152Y-195080000D02*
X24968152Y-195460952D01*
X24634819Y-195222857D02*
X25491961Y-195222857D01*
X25491961Y-195222857D02*
X25587200Y-195270476D01*
X25587200Y-195270476D02*
X25634819Y-195365714D01*
X25634819Y-195365714D02*
X25634819Y-195460952D01*
X25634819Y-195794286D02*
X24634819Y-195794286D01*
X25253866Y-195889524D02*
X25634819Y-196175238D01*
X24968152Y-196175238D02*
X25349104Y-195794286D01*
X24968152Y-196508572D02*
X25634819Y-196746667D01*
X24968152Y-196984762D02*
X25634819Y-196746667D01*
X25634819Y-196746667D02*
X25872914Y-196651429D01*
X25872914Y-196651429D02*
X25920533Y-196603810D01*
X25920533Y-196603810D02*
X25968152Y-196508572D01*
X30734819Y-191865714D02*
X29734819Y-191865714D01*
X29734819Y-191865714D02*
X29734819Y-192103809D01*
X29734819Y-192103809D02*
X29782438Y-192246666D01*
X29782438Y-192246666D02*
X29877676Y-192341904D01*
X29877676Y-192341904D02*
X29972914Y-192389523D01*
X29972914Y-192389523D02*
X30163390Y-192437142D01*
X30163390Y-192437142D02*
X30306247Y-192437142D01*
X30306247Y-192437142D02*
X30496723Y-192389523D01*
X30496723Y-192389523D02*
X30591961Y-192341904D01*
X30591961Y-192341904D02*
X30687200Y-192246666D01*
X30687200Y-192246666D02*
X30734819Y-192103809D01*
X30734819Y-192103809D02*
X30734819Y-191865714D01*
X30734819Y-193389523D02*
X30734819Y-192818095D01*
X30734819Y-193103809D02*
X29734819Y-193103809D01*
X29734819Y-193103809D02*
X29877676Y-193008571D01*
X29877676Y-193008571D02*
X29972914Y-192913333D01*
X29972914Y-192913333D02*
X30020533Y-192818095D01*
X29734819Y-194008571D02*
X29734819Y-194103809D01*
X29734819Y-194103809D02*
X29782438Y-194199047D01*
X29782438Y-194199047D02*
X29830057Y-194246666D01*
X29830057Y-194246666D02*
X29925295Y-194294285D01*
X29925295Y-194294285D02*
X30115771Y-194341904D01*
X30115771Y-194341904D02*
X30353866Y-194341904D01*
X30353866Y-194341904D02*
X30544342Y-194294285D01*
X30544342Y-194294285D02*
X30639580Y-194246666D01*
X30639580Y-194246666D02*
X30687200Y-194199047D01*
X30687200Y-194199047D02*
X30734819Y-194103809D01*
X30734819Y-194103809D02*
X30734819Y-194008571D01*
X30734819Y-194008571D02*
X30687200Y-193913333D01*
X30687200Y-193913333D02*
X30639580Y-193865714D01*
X30639580Y-193865714D02*
X30544342Y-193818095D01*
X30544342Y-193818095D02*
X30353866Y-193770476D01*
X30353866Y-193770476D02*
X30115771Y-193770476D01*
X30115771Y-193770476D02*
X29925295Y-193818095D01*
X29925295Y-193818095D02*
X29830057Y-193865714D01*
X29830057Y-193865714D02*
X29782438Y-193913333D01*
X29782438Y-193913333D02*
X29734819Y-194008571D01*
X46659285Y-160015819D02*
X46564047Y-160015819D01*
X46564047Y-160015819D02*
X46468809Y-160063438D01*
X46468809Y-160063438D02*
X46421190Y-160111057D01*
X46421190Y-160111057D02*
X46373571Y-160206295D01*
X46373571Y-160206295D02*
X46325952Y-160396771D01*
X46325952Y-160396771D02*
X46325952Y-160634866D01*
X46325952Y-160634866D02*
X46373571Y-160825342D01*
X46373571Y-160825342D02*
X46421190Y-160920580D01*
X46421190Y-160920580D02*
X46468809Y-160968200D01*
X46468809Y-160968200D02*
X46564047Y-161015819D01*
X46564047Y-161015819D02*
X46659285Y-161015819D01*
X46659285Y-161015819D02*
X46754523Y-160968200D01*
X46754523Y-160968200D02*
X46802142Y-160920580D01*
X46802142Y-160920580D02*
X46849761Y-160825342D01*
X46849761Y-160825342D02*
X46897380Y-160634866D01*
X46897380Y-160634866D02*
X46897380Y-160396771D01*
X46897380Y-160396771D02*
X46849761Y-160206295D01*
X46849761Y-160206295D02*
X46802142Y-160111057D01*
X46802142Y-160111057D02*
X46754523Y-160063438D01*
X46754523Y-160063438D02*
X46659285Y-160015819D01*
X45897380Y-160920580D02*
X45849761Y-160968200D01*
X45849761Y-160968200D02*
X45897380Y-161015819D01*
X45897380Y-161015819D02*
X45944999Y-160968200D01*
X45944999Y-160968200D02*
X45897380Y-160920580D01*
X45897380Y-160920580D02*
X45897380Y-161015819D01*
X44897381Y-161015819D02*
X45468809Y-161015819D01*
X45183095Y-161015819D02*
X45183095Y-160015819D01*
X45183095Y-160015819D02*
X45278333Y-160158676D01*
X45278333Y-160158676D02*
X45373571Y-160253914D01*
X45373571Y-160253914D02*
X45468809Y-160301533D01*
X44468809Y-160349152D02*
X44468809Y-161349152D01*
X43992619Y-160872961D02*
X43945000Y-160968200D01*
X43945000Y-160968200D02*
X43849762Y-161015819D01*
X44468809Y-160872961D02*
X44421190Y-160968200D01*
X44421190Y-160968200D02*
X44325952Y-161015819D01*
X44325952Y-161015819D02*
X44135476Y-161015819D01*
X44135476Y-161015819D02*
X44040238Y-160968200D01*
X44040238Y-160968200D02*
X43992619Y-160872961D01*
X43992619Y-160872961D02*
X43992619Y-160349152D01*
X43087857Y-160492009D02*
X43421190Y-160492009D01*
X43421190Y-161015819D02*
X43421190Y-160015819D01*
X43421190Y-160015819D02*
X42945000Y-160015819D01*
D11*
X45011666Y-159274832D02*
X45030714Y-159293880D01*
X45030714Y-159293880D02*
X45087856Y-159312927D01*
X45087856Y-159312927D02*
X45125952Y-159312927D01*
X45125952Y-159312927D02*
X45183095Y-159293880D01*
X45183095Y-159293880D02*
X45221190Y-159255784D01*
X45221190Y-159255784D02*
X45240237Y-159217689D01*
X45240237Y-159217689D02*
X45259285Y-159141499D01*
X45259285Y-159141499D02*
X45259285Y-159084356D01*
X45259285Y-159084356D02*
X45240237Y-159008165D01*
X45240237Y-159008165D02*
X45221190Y-158970070D01*
X45221190Y-158970070D02*
X45183095Y-158931975D01*
X45183095Y-158931975D02*
X45125952Y-158912927D01*
X45125952Y-158912927D02*
X45087856Y-158912927D01*
X45087856Y-158912927D02*
X45030714Y-158931975D01*
X45030714Y-158931975D02*
X45011666Y-158951022D01*
X44649761Y-158912927D02*
X44840237Y-158912927D01*
X44840237Y-158912927D02*
X44859285Y-159103403D01*
X44859285Y-159103403D02*
X44840237Y-159084356D01*
X44840237Y-159084356D02*
X44802142Y-159065308D01*
X44802142Y-159065308D02*
X44706904Y-159065308D01*
X44706904Y-159065308D02*
X44668809Y-159084356D01*
X44668809Y-159084356D02*
X44649761Y-159103403D01*
X44649761Y-159103403D02*
X44630714Y-159141499D01*
X44630714Y-159141499D02*
X44630714Y-159236737D01*
X44630714Y-159236737D02*
X44649761Y-159274832D01*
X44649761Y-159274832D02*
X44668809Y-159293880D01*
X44668809Y-159293880D02*
X44706904Y-159312927D01*
X44706904Y-159312927D02*
X44802142Y-159312927D01*
X44802142Y-159312927D02*
X44840237Y-159293880D01*
X44840237Y-159293880D02*
X44859285Y-159274832D01*
D10*
X78414476Y-174604819D02*
X78985904Y-174604819D01*
X78700190Y-174604819D02*
X78700190Y-173604819D01*
X78700190Y-173604819D02*
X78795428Y-173747676D01*
X78795428Y-173747676D02*
X78890666Y-173842914D01*
X78890666Y-173842914D02*
X78985904Y-173890533D01*
X77795428Y-173604819D02*
X77700190Y-173604819D01*
X77700190Y-173604819D02*
X77604952Y-173652438D01*
X77604952Y-173652438D02*
X77557333Y-173700057D01*
X77557333Y-173700057D02*
X77509714Y-173795295D01*
X77509714Y-173795295D02*
X77462095Y-173985771D01*
X77462095Y-173985771D02*
X77462095Y-174223866D01*
X77462095Y-174223866D02*
X77509714Y-174414342D01*
X77509714Y-174414342D02*
X77557333Y-174509580D01*
X77557333Y-174509580D02*
X77604952Y-174557200D01*
X77604952Y-174557200D02*
X77700190Y-174604819D01*
X77700190Y-174604819D02*
X77795428Y-174604819D01*
X77795428Y-174604819D02*
X77890666Y-174557200D01*
X77890666Y-174557200D02*
X77938285Y-174509580D01*
X77938285Y-174509580D02*
X77985904Y-174414342D01*
X77985904Y-174414342D02*
X78033523Y-174223866D01*
X78033523Y-174223866D02*
X78033523Y-173985771D01*
X78033523Y-173985771D02*
X77985904Y-173795295D01*
X77985904Y-173795295D02*
X77938285Y-173700057D01*
X77938285Y-173700057D02*
X77890666Y-173652438D01*
X77890666Y-173652438D02*
X77795428Y-173604819D01*
X77033523Y-174604819D02*
X77033523Y-173604819D01*
X76462095Y-174604819D02*
X76890666Y-174033390D01*
X76462095Y-173604819D02*
X77033523Y-174176247D01*
D11*
X77981142Y-172901927D02*
X78114475Y-172711451D01*
X78209713Y-172901927D02*
X78209713Y-172501927D01*
X78209713Y-172501927D02*
X78057332Y-172501927D01*
X78057332Y-172501927D02*
X78019237Y-172520975D01*
X78019237Y-172520975D02*
X78000190Y-172540022D01*
X78000190Y-172540022D02*
X77981142Y-172578118D01*
X77981142Y-172578118D02*
X77981142Y-172635260D01*
X77981142Y-172635260D02*
X78000190Y-172673356D01*
X78000190Y-172673356D02*
X78019237Y-172692403D01*
X78019237Y-172692403D02*
X78057332Y-172711451D01*
X78057332Y-172711451D02*
X78209713Y-172711451D01*
X77600190Y-172901927D02*
X77828761Y-172901927D01*
X77714475Y-172901927D02*
X77714475Y-172501927D01*
X77714475Y-172501927D02*
X77752571Y-172559070D01*
X77752571Y-172559070D02*
X77790666Y-172597165D01*
X77790666Y-172597165D02*
X77828761Y-172616213D01*
X77257333Y-172501927D02*
X77333523Y-172501927D01*
X77333523Y-172501927D02*
X77371619Y-172520975D01*
X77371619Y-172520975D02*
X77390666Y-172540022D01*
X77390666Y-172540022D02*
X77428761Y-172597165D01*
X77428761Y-172597165D02*
X77447809Y-172673356D01*
X77447809Y-172673356D02*
X77447809Y-172825737D01*
X77447809Y-172825737D02*
X77428761Y-172863832D01*
X77428761Y-172863832D02*
X77409714Y-172882880D01*
X77409714Y-172882880D02*
X77371619Y-172901927D01*
X77371619Y-172901927D02*
X77295428Y-172901927D01*
X77295428Y-172901927D02*
X77257333Y-172882880D01*
X77257333Y-172882880D02*
X77238285Y-172863832D01*
X77238285Y-172863832D02*
X77219238Y-172825737D01*
X77219238Y-172825737D02*
X77219238Y-172730499D01*
X77219238Y-172730499D02*
X77238285Y-172692403D01*
X77238285Y-172692403D02*
X77257333Y-172673356D01*
X77257333Y-172673356D02*
X77295428Y-172654308D01*
X77295428Y-172654308D02*
X77371619Y-172654308D01*
X77371619Y-172654308D02*
X77409714Y-172673356D01*
X77409714Y-172673356D02*
X77428761Y-172692403D01*
X77428761Y-172692403D02*
X77447809Y-172730499D01*
D10*
X40577737Y-184179104D02*
X40101547Y-184179104D01*
X40672975Y-184464819D02*
X40339642Y-183464819D01*
X40339642Y-183464819D02*
X40006309Y-184464819D01*
X39482499Y-183464819D02*
X39292023Y-183464819D01*
X39292023Y-183464819D02*
X39196785Y-183512438D01*
X39196785Y-183512438D02*
X39101547Y-183607676D01*
X39101547Y-183607676D02*
X39053928Y-183798152D01*
X39053928Y-183798152D02*
X39053928Y-184131485D01*
X39053928Y-184131485D02*
X39101547Y-184321961D01*
X39101547Y-184321961D02*
X39196785Y-184417200D01*
X39196785Y-184417200D02*
X39292023Y-184464819D01*
X39292023Y-184464819D02*
X39482499Y-184464819D01*
X39482499Y-184464819D02*
X39577737Y-184417200D01*
X39577737Y-184417200D02*
X39672975Y-184321961D01*
X39672975Y-184321961D02*
X39720594Y-184131485D01*
X39720594Y-184131485D02*
X39720594Y-183798152D01*
X39720594Y-183798152D02*
X39672975Y-183607676D01*
X39672975Y-183607676D02*
X39577737Y-183512438D01*
X39577737Y-183512438D02*
X39482499Y-183464819D01*
X38720594Y-183464819D02*
X38101547Y-183464819D01*
X38101547Y-183464819D02*
X38434880Y-183845771D01*
X38434880Y-183845771D02*
X38292023Y-183845771D01*
X38292023Y-183845771D02*
X38196785Y-183893390D01*
X38196785Y-183893390D02*
X38149166Y-183941009D01*
X38149166Y-183941009D02*
X38101547Y-184036247D01*
X38101547Y-184036247D02*
X38101547Y-184274342D01*
X38101547Y-184274342D02*
X38149166Y-184369580D01*
X38149166Y-184369580D02*
X38196785Y-184417200D01*
X38196785Y-184417200D02*
X38292023Y-184464819D01*
X38292023Y-184464819D02*
X38577737Y-184464819D01*
X38577737Y-184464819D02*
X38672975Y-184417200D01*
X38672975Y-184417200D02*
X38720594Y-184369580D01*
X37244404Y-183798152D02*
X37244404Y-184464819D01*
X37482499Y-183417200D02*
X37720594Y-184131485D01*
X37720594Y-184131485D02*
X37101547Y-184131485D01*
X36530118Y-183464819D02*
X36434880Y-183464819D01*
X36434880Y-183464819D02*
X36339642Y-183512438D01*
X36339642Y-183512438D02*
X36292023Y-183560057D01*
X36292023Y-183560057D02*
X36244404Y-183655295D01*
X36244404Y-183655295D02*
X36196785Y-183845771D01*
X36196785Y-183845771D02*
X36196785Y-184083866D01*
X36196785Y-184083866D02*
X36244404Y-184274342D01*
X36244404Y-184274342D02*
X36292023Y-184369580D01*
X36292023Y-184369580D02*
X36339642Y-184417200D01*
X36339642Y-184417200D02*
X36434880Y-184464819D01*
X36434880Y-184464819D02*
X36530118Y-184464819D01*
X36530118Y-184464819D02*
X36625356Y-184417200D01*
X36625356Y-184417200D02*
X36672975Y-184369580D01*
X36672975Y-184369580D02*
X36720594Y-184274342D01*
X36720594Y-184274342D02*
X36768213Y-184083866D01*
X36768213Y-184083866D02*
X36768213Y-183845771D01*
X36768213Y-183845771D02*
X36720594Y-183655295D01*
X36720594Y-183655295D02*
X36672975Y-183560057D01*
X36672975Y-183560057D02*
X36625356Y-183512438D01*
X36625356Y-183512438D02*
X36530118Y-183464819D01*
X35577737Y-183464819D02*
X35482499Y-183464819D01*
X35482499Y-183464819D02*
X35387261Y-183512438D01*
X35387261Y-183512438D02*
X35339642Y-183560057D01*
X35339642Y-183560057D02*
X35292023Y-183655295D01*
X35292023Y-183655295D02*
X35244404Y-183845771D01*
X35244404Y-183845771D02*
X35244404Y-184083866D01*
X35244404Y-184083866D02*
X35292023Y-184274342D01*
X35292023Y-184274342D02*
X35339642Y-184369580D01*
X35339642Y-184369580D02*
X35387261Y-184417200D01*
X35387261Y-184417200D02*
X35482499Y-184464819D01*
X35482499Y-184464819D02*
X35577737Y-184464819D01*
X35577737Y-184464819D02*
X35672975Y-184417200D01*
X35672975Y-184417200D02*
X35720594Y-184369580D01*
X35720594Y-184369580D02*
X35768213Y-184274342D01*
X35768213Y-184274342D02*
X35815832Y-184083866D01*
X35815832Y-184083866D02*
X35815832Y-183845771D01*
X35815832Y-183845771D02*
X35768213Y-183655295D01*
X35768213Y-183655295D02*
X35720594Y-183560057D01*
X35720594Y-183560057D02*
X35672975Y-183512438D01*
X35672975Y-183512438D02*
X35577737Y-183464819D01*
X34863451Y-184179104D02*
X34387261Y-184179104D01*
X34958689Y-184464819D02*
X34625356Y-183464819D01*
X34625356Y-183464819D02*
X34292023Y-184464819D01*
D12*
X37512976Y-186585914D02*
X37543452Y-186570676D01*
X37543452Y-186570676D02*
X37573928Y-186540200D01*
X37573928Y-186540200D02*
X37619642Y-186494485D01*
X37619642Y-186494485D02*
X37650119Y-186479247D01*
X37650119Y-186479247D02*
X37680595Y-186479247D01*
X37665357Y-186555438D02*
X37695833Y-186540200D01*
X37695833Y-186540200D02*
X37726309Y-186509723D01*
X37726309Y-186509723D02*
X37741547Y-186448771D01*
X37741547Y-186448771D02*
X37741547Y-186342104D01*
X37741547Y-186342104D02*
X37726309Y-186281152D01*
X37726309Y-186281152D02*
X37695833Y-186250676D01*
X37695833Y-186250676D02*
X37665357Y-186235438D01*
X37665357Y-186235438D02*
X37604404Y-186235438D01*
X37604404Y-186235438D02*
X37573928Y-186250676D01*
X37573928Y-186250676D02*
X37543452Y-186281152D01*
X37543452Y-186281152D02*
X37528214Y-186342104D01*
X37528214Y-186342104D02*
X37528214Y-186448771D01*
X37528214Y-186448771D02*
X37543452Y-186509723D01*
X37543452Y-186509723D02*
X37573928Y-186540200D01*
X37573928Y-186540200D02*
X37604404Y-186555438D01*
X37604404Y-186555438D02*
X37665357Y-186555438D01*
X37421547Y-186235438D02*
X37208214Y-186235438D01*
X37208214Y-186235438D02*
X37345357Y-186555438D01*
D10*
X59746819Y-160083714D02*
X59746819Y-160178952D01*
X59746819Y-160178952D02*
X59794438Y-160274190D01*
X59794438Y-160274190D02*
X59842057Y-160321809D01*
X59842057Y-160321809D02*
X59937295Y-160369428D01*
X59937295Y-160369428D02*
X60127771Y-160417047D01*
X60127771Y-160417047D02*
X60365866Y-160417047D01*
X60365866Y-160417047D02*
X60556342Y-160369428D01*
X60556342Y-160369428D02*
X60651580Y-160321809D01*
X60651580Y-160321809D02*
X60699200Y-160274190D01*
X60699200Y-160274190D02*
X60746819Y-160178952D01*
X60746819Y-160178952D02*
X60746819Y-160083714D01*
X60746819Y-160083714D02*
X60699200Y-159988476D01*
X60699200Y-159988476D02*
X60651580Y-159940857D01*
X60651580Y-159940857D02*
X60556342Y-159893238D01*
X60556342Y-159893238D02*
X60365866Y-159845619D01*
X60365866Y-159845619D02*
X60127771Y-159845619D01*
X60127771Y-159845619D02*
X59937295Y-159893238D01*
X59937295Y-159893238D02*
X59842057Y-159940857D01*
X59842057Y-159940857D02*
X59794438Y-159988476D01*
X59794438Y-159988476D02*
X59746819Y-160083714D01*
X60651580Y-160845619D02*
X60699200Y-160893238D01*
X60699200Y-160893238D02*
X60746819Y-160845619D01*
X60746819Y-160845619D02*
X60699200Y-160798000D01*
X60699200Y-160798000D02*
X60651580Y-160845619D01*
X60651580Y-160845619D02*
X60746819Y-160845619D01*
X60746819Y-161845618D02*
X60746819Y-161274190D01*
X60746819Y-161559904D02*
X59746819Y-161559904D01*
X59746819Y-161559904D02*
X59889676Y-161464666D01*
X59889676Y-161464666D02*
X59984914Y-161369428D01*
X59984914Y-161369428D02*
X60032533Y-161274190D01*
X60080152Y-162274190D02*
X61080152Y-162274190D01*
X60603961Y-162750380D02*
X60699200Y-162797999D01*
X60699200Y-162797999D02*
X60746819Y-162893237D01*
X60603961Y-162274190D02*
X60699200Y-162321809D01*
X60699200Y-162321809D02*
X60746819Y-162417047D01*
X60746819Y-162417047D02*
X60746819Y-162607523D01*
X60746819Y-162607523D02*
X60699200Y-162702761D01*
X60699200Y-162702761D02*
X60603961Y-162750380D01*
X60603961Y-162750380D02*
X60080152Y-162750380D01*
X60223009Y-163655142D02*
X60223009Y-163321809D01*
X60746819Y-163321809D02*
X59746819Y-163321809D01*
X59746819Y-163321809D02*
X59746819Y-163797999D01*
D11*
X61865832Y-161731333D02*
X61884880Y-161712285D01*
X61884880Y-161712285D02*
X61903927Y-161655143D01*
X61903927Y-161655143D02*
X61903927Y-161617047D01*
X61903927Y-161617047D02*
X61884880Y-161559904D01*
X61884880Y-161559904D02*
X61846784Y-161521809D01*
X61846784Y-161521809D02*
X61808689Y-161502762D01*
X61808689Y-161502762D02*
X61732499Y-161483714D01*
X61732499Y-161483714D02*
X61675356Y-161483714D01*
X61675356Y-161483714D02*
X61599165Y-161502762D01*
X61599165Y-161502762D02*
X61561070Y-161521809D01*
X61561070Y-161521809D02*
X61522975Y-161559904D01*
X61522975Y-161559904D02*
X61503927Y-161617047D01*
X61503927Y-161617047D02*
X61503927Y-161655143D01*
X61503927Y-161655143D02*
X61522975Y-161712285D01*
X61522975Y-161712285D02*
X61542022Y-161731333D01*
X61503927Y-162074190D02*
X61503927Y-161998000D01*
X61503927Y-161998000D02*
X61522975Y-161959904D01*
X61522975Y-161959904D02*
X61542022Y-161940857D01*
X61542022Y-161940857D02*
X61599165Y-161902762D01*
X61599165Y-161902762D02*
X61675356Y-161883714D01*
X61675356Y-161883714D02*
X61827737Y-161883714D01*
X61827737Y-161883714D02*
X61865832Y-161902762D01*
X61865832Y-161902762D02*
X61884880Y-161921809D01*
X61884880Y-161921809D02*
X61903927Y-161959904D01*
X61903927Y-161959904D02*
X61903927Y-162036095D01*
X61903927Y-162036095D02*
X61884880Y-162074190D01*
X61884880Y-162074190D02*
X61865832Y-162093238D01*
X61865832Y-162093238D02*
X61827737Y-162112285D01*
X61827737Y-162112285D02*
X61732499Y-162112285D01*
X61732499Y-162112285D02*
X61694403Y-162093238D01*
X61694403Y-162093238D02*
X61675356Y-162074190D01*
X61675356Y-162074190D02*
X61656308Y-162036095D01*
X61656308Y-162036095D02*
X61656308Y-161959904D01*
X61656308Y-161959904D02*
X61675356Y-161921809D01*
X61675356Y-161921809D02*
X61694403Y-161902762D01*
X61694403Y-161902762D02*
X61732499Y-161883714D01*
D10*
X33845285Y-155570819D02*
X33750047Y-155570819D01*
X33750047Y-155570819D02*
X33654809Y-155618438D01*
X33654809Y-155618438D02*
X33607190Y-155666057D01*
X33607190Y-155666057D02*
X33559571Y-155761295D01*
X33559571Y-155761295D02*
X33511952Y-155951771D01*
X33511952Y-155951771D02*
X33511952Y-156189866D01*
X33511952Y-156189866D02*
X33559571Y-156380342D01*
X33559571Y-156380342D02*
X33607190Y-156475580D01*
X33607190Y-156475580D02*
X33654809Y-156523200D01*
X33654809Y-156523200D02*
X33750047Y-156570819D01*
X33750047Y-156570819D02*
X33845285Y-156570819D01*
X33845285Y-156570819D02*
X33940523Y-156523200D01*
X33940523Y-156523200D02*
X33988142Y-156475580D01*
X33988142Y-156475580D02*
X34035761Y-156380342D01*
X34035761Y-156380342D02*
X34083380Y-156189866D01*
X34083380Y-156189866D02*
X34083380Y-155951771D01*
X34083380Y-155951771D02*
X34035761Y-155761295D01*
X34035761Y-155761295D02*
X33988142Y-155666057D01*
X33988142Y-155666057D02*
X33940523Y-155618438D01*
X33940523Y-155618438D02*
X33845285Y-155570819D01*
X33083380Y-156475580D02*
X33035761Y-156523200D01*
X33035761Y-156523200D02*
X33083380Y-156570819D01*
X33083380Y-156570819D02*
X33130999Y-156523200D01*
X33130999Y-156523200D02*
X33083380Y-156475580D01*
X33083380Y-156475580D02*
X33083380Y-156570819D01*
X32083381Y-156570819D02*
X32654809Y-156570819D01*
X32369095Y-156570819D02*
X32369095Y-155570819D01*
X32369095Y-155570819D02*
X32464333Y-155713676D01*
X32464333Y-155713676D02*
X32559571Y-155808914D01*
X32559571Y-155808914D02*
X32654809Y-155856533D01*
X31654809Y-155904152D02*
X31654809Y-156904152D01*
X31178619Y-156427961D02*
X31131000Y-156523200D01*
X31131000Y-156523200D02*
X31035762Y-156570819D01*
X31654809Y-156427961D02*
X31607190Y-156523200D01*
X31607190Y-156523200D02*
X31511952Y-156570819D01*
X31511952Y-156570819D02*
X31321476Y-156570819D01*
X31321476Y-156570819D02*
X31226238Y-156523200D01*
X31226238Y-156523200D02*
X31178619Y-156427961D01*
X31178619Y-156427961D02*
X31178619Y-155904152D01*
X30273857Y-156047009D02*
X30607190Y-156047009D01*
X30607190Y-156570819D02*
X30607190Y-155570819D01*
X30607190Y-155570819D02*
X30131000Y-155570819D01*
D11*
X32388142Y-154829832D02*
X32407190Y-154848880D01*
X32407190Y-154848880D02*
X32464332Y-154867927D01*
X32464332Y-154867927D02*
X32502428Y-154867927D01*
X32502428Y-154867927D02*
X32559571Y-154848880D01*
X32559571Y-154848880D02*
X32597666Y-154810784D01*
X32597666Y-154810784D02*
X32616713Y-154772689D01*
X32616713Y-154772689D02*
X32635761Y-154696499D01*
X32635761Y-154696499D02*
X32635761Y-154639356D01*
X32635761Y-154639356D02*
X32616713Y-154563165D01*
X32616713Y-154563165D02*
X32597666Y-154525070D01*
X32597666Y-154525070D02*
X32559571Y-154486975D01*
X32559571Y-154486975D02*
X32502428Y-154467927D01*
X32502428Y-154467927D02*
X32464332Y-154467927D01*
X32464332Y-154467927D02*
X32407190Y-154486975D01*
X32407190Y-154486975D02*
X32388142Y-154506022D01*
X32007190Y-154867927D02*
X32235761Y-154867927D01*
X32121475Y-154867927D02*
X32121475Y-154467927D01*
X32121475Y-154467927D02*
X32159571Y-154525070D01*
X32159571Y-154525070D02*
X32197666Y-154563165D01*
X32197666Y-154563165D02*
X32235761Y-154582213D01*
X31759571Y-154467927D02*
X31721476Y-154467927D01*
X31721476Y-154467927D02*
X31683380Y-154486975D01*
X31683380Y-154486975D02*
X31664333Y-154506022D01*
X31664333Y-154506022D02*
X31645285Y-154544118D01*
X31645285Y-154544118D02*
X31626238Y-154620308D01*
X31626238Y-154620308D02*
X31626238Y-154715546D01*
X31626238Y-154715546D02*
X31645285Y-154791737D01*
X31645285Y-154791737D02*
X31664333Y-154829832D01*
X31664333Y-154829832D02*
X31683380Y-154848880D01*
X31683380Y-154848880D02*
X31721476Y-154867927D01*
X31721476Y-154867927D02*
X31759571Y-154867927D01*
X31759571Y-154867927D02*
X31797666Y-154848880D01*
X31797666Y-154848880D02*
X31816714Y-154829832D01*
X31816714Y-154829832D02*
X31835761Y-154791737D01*
X31835761Y-154791737D02*
X31854809Y-154715546D01*
X31854809Y-154715546D02*
X31854809Y-154620308D01*
X31854809Y-154620308D02*
X31835761Y-154544118D01*
X31835761Y-154544118D02*
X31816714Y-154506022D01*
X31816714Y-154506022D02*
X31797666Y-154486975D01*
X31797666Y-154486975D02*
X31759571Y-154467927D01*
D10*
X38174285Y-177226819D02*
X38079047Y-177226819D01*
X38079047Y-177226819D02*
X37983809Y-177274438D01*
X37983809Y-177274438D02*
X37936190Y-177322057D01*
X37936190Y-177322057D02*
X37888571Y-177417295D01*
X37888571Y-177417295D02*
X37840952Y-177607771D01*
X37840952Y-177607771D02*
X37840952Y-177845866D01*
X37840952Y-177845866D02*
X37888571Y-178036342D01*
X37888571Y-178036342D02*
X37936190Y-178131580D01*
X37936190Y-178131580D02*
X37983809Y-178179200D01*
X37983809Y-178179200D02*
X38079047Y-178226819D01*
X38079047Y-178226819D02*
X38174285Y-178226819D01*
X38174285Y-178226819D02*
X38269523Y-178179200D01*
X38269523Y-178179200D02*
X38317142Y-178131580D01*
X38317142Y-178131580D02*
X38364761Y-178036342D01*
X38364761Y-178036342D02*
X38412380Y-177845866D01*
X38412380Y-177845866D02*
X38412380Y-177607771D01*
X38412380Y-177607771D02*
X38364761Y-177417295D01*
X38364761Y-177417295D02*
X38317142Y-177322057D01*
X38317142Y-177322057D02*
X38269523Y-177274438D01*
X38269523Y-177274438D02*
X38174285Y-177226819D01*
X37412380Y-178131580D02*
X37364761Y-178179200D01*
X37364761Y-178179200D02*
X37412380Y-178226819D01*
X37412380Y-178226819D02*
X37459999Y-178179200D01*
X37459999Y-178179200D02*
X37412380Y-178131580D01*
X37412380Y-178131580D02*
X37412380Y-178226819D01*
X36412381Y-178226819D02*
X36983809Y-178226819D01*
X36698095Y-178226819D02*
X36698095Y-177226819D01*
X36698095Y-177226819D02*
X36793333Y-177369676D01*
X36793333Y-177369676D02*
X36888571Y-177464914D01*
X36888571Y-177464914D02*
X36983809Y-177512533D01*
X35983809Y-177560152D02*
X35983809Y-178560152D01*
X35507619Y-178083961D02*
X35460000Y-178179200D01*
X35460000Y-178179200D02*
X35364762Y-178226819D01*
X35983809Y-178083961D02*
X35936190Y-178179200D01*
X35936190Y-178179200D02*
X35840952Y-178226819D01*
X35840952Y-178226819D02*
X35650476Y-178226819D01*
X35650476Y-178226819D02*
X35555238Y-178179200D01*
X35555238Y-178179200D02*
X35507619Y-178083961D01*
X35507619Y-178083961D02*
X35507619Y-177560152D01*
X34602857Y-177703009D02*
X34936190Y-177703009D01*
X34936190Y-178226819D02*
X34936190Y-177226819D01*
X34936190Y-177226819D02*
X34460000Y-177226819D01*
D11*
X36526666Y-176485832D02*
X36545714Y-176504880D01*
X36545714Y-176504880D02*
X36602856Y-176523927D01*
X36602856Y-176523927D02*
X36640952Y-176523927D01*
X36640952Y-176523927D02*
X36698095Y-176504880D01*
X36698095Y-176504880D02*
X36736190Y-176466784D01*
X36736190Y-176466784D02*
X36755237Y-176428689D01*
X36755237Y-176428689D02*
X36774285Y-176352499D01*
X36774285Y-176352499D02*
X36774285Y-176295356D01*
X36774285Y-176295356D02*
X36755237Y-176219165D01*
X36755237Y-176219165D02*
X36736190Y-176181070D01*
X36736190Y-176181070D02*
X36698095Y-176142975D01*
X36698095Y-176142975D02*
X36640952Y-176123927D01*
X36640952Y-176123927D02*
X36602856Y-176123927D01*
X36602856Y-176123927D02*
X36545714Y-176142975D01*
X36545714Y-176142975D02*
X36526666Y-176162022D01*
X36183809Y-176257260D02*
X36183809Y-176523927D01*
X36279047Y-176104880D02*
X36374285Y-176390594D01*
X36374285Y-176390594D02*
X36126666Y-176390594D01*
D10*
X37658904Y-178719057D02*
X37611285Y-178671438D01*
X37611285Y-178671438D02*
X37516047Y-178623819D01*
X37516047Y-178623819D02*
X37277952Y-178623819D01*
X37277952Y-178623819D02*
X37182714Y-178671438D01*
X37182714Y-178671438D02*
X37135095Y-178719057D01*
X37135095Y-178719057D02*
X37087476Y-178814295D01*
X37087476Y-178814295D02*
X37087476Y-178909533D01*
X37087476Y-178909533D02*
X37135095Y-179052390D01*
X37135095Y-179052390D02*
X37706523Y-179623819D01*
X37706523Y-179623819D02*
X37087476Y-179623819D01*
X36468428Y-178623819D02*
X36373190Y-178623819D01*
X36373190Y-178623819D02*
X36277952Y-178671438D01*
X36277952Y-178671438D02*
X36230333Y-178719057D01*
X36230333Y-178719057D02*
X36182714Y-178814295D01*
X36182714Y-178814295D02*
X36135095Y-179004771D01*
X36135095Y-179004771D02*
X36135095Y-179242866D01*
X36135095Y-179242866D02*
X36182714Y-179433342D01*
X36182714Y-179433342D02*
X36230333Y-179528580D01*
X36230333Y-179528580D02*
X36277952Y-179576200D01*
X36277952Y-179576200D02*
X36373190Y-179623819D01*
X36373190Y-179623819D02*
X36468428Y-179623819D01*
X36468428Y-179623819D02*
X36563666Y-179576200D01*
X36563666Y-179576200D02*
X36611285Y-179528580D01*
X36611285Y-179528580D02*
X36658904Y-179433342D01*
X36658904Y-179433342D02*
X36706523Y-179242866D01*
X36706523Y-179242866D02*
X36706523Y-179004771D01*
X36706523Y-179004771D02*
X36658904Y-178814295D01*
X36658904Y-178814295D02*
X36611285Y-178719057D01*
X36611285Y-178719057D02*
X36563666Y-178671438D01*
X36563666Y-178671438D02*
X36468428Y-178623819D01*
X35706523Y-179623819D02*
X35706523Y-178623819D01*
X35135095Y-179623819D02*
X35563666Y-179052390D01*
X35135095Y-178623819D02*
X35706523Y-179195247D01*
D11*
X36654142Y-177920927D02*
X36787475Y-177730451D01*
X36882713Y-177920927D02*
X36882713Y-177520927D01*
X36882713Y-177520927D02*
X36730332Y-177520927D01*
X36730332Y-177520927D02*
X36692237Y-177539975D01*
X36692237Y-177539975D02*
X36673190Y-177559022D01*
X36673190Y-177559022D02*
X36654142Y-177597118D01*
X36654142Y-177597118D02*
X36654142Y-177654260D01*
X36654142Y-177654260D02*
X36673190Y-177692356D01*
X36673190Y-177692356D02*
X36692237Y-177711403D01*
X36692237Y-177711403D02*
X36730332Y-177730451D01*
X36730332Y-177730451D02*
X36882713Y-177730451D01*
X36273190Y-177920927D02*
X36501761Y-177920927D01*
X36387475Y-177920927D02*
X36387475Y-177520927D01*
X36387475Y-177520927D02*
X36425571Y-177578070D01*
X36425571Y-177578070D02*
X36463666Y-177616165D01*
X36463666Y-177616165D02*
X36501761Y-177635213D01*
X36139857Y-177520927D02*
X35873190Y-177520927D01*
X35873190Y-177520927D02*
X36044619Y-177920927D01*
D10*
X34321524Y-176917819D02*
X34321524Y-175917819D01*
X34321524Y-175917819D02*
X34083429Y-175917819D01*
X34083429Y-175917819D02*
X33940572Y-175965438D01*
X33940572Y-175965438D02*
X33845334Y-176060676D01*
X33845334Y-176060676D02*
X33797715Y-176155914D01*
X33797715Y-176155914D02*
X33750096Y-176346390D01*
X33750096Y-176346390D02*
X33750096Y-176489247D01*
X33750096Y-176489247D02*
X33797715Y-176679723D01*
X33797715Y-176679723D02*
X33845334Y-176774961D01*
X33845334Y-176774961D02*
X33940572Y-176870200D01*
X33940572Y-176870200D02*
X34083429Y-176917819D01*
X34083429Y-176917819D02*
X34321524Y-176917819D01*
X33559620Y-177013057D02*
X32797715Y-177013057D01*
X32607238Y-176870200D02*
X32464381Y-176917819D01*
X32464381Y-176917819D02*
X32226286Y-176917819D01*
X32226286Y-176917819D02*
X32131048Y-176870200D01*
X32131048Y-176870200D02*
X32083429Y-176822580D01*
X32083429Y-176822580D02*
X32035810Y-176727342D01*
X32035810Y-176727342D02*
X32035810Y-176632104D01*
X32035810Y-176632104D02*
X32083429Y-176536866D01*
X32083429Y-176536866D02*
X32131048Y-176489247D01*
X32131048Y-176489247D02*
X32226286Y-176441628D01*
X32226286Y-176441628D02*
X32416762Y-176394009D01*
X32416762Y-176394009D02*
X32512000Y-176346390D01*
X32512000Y-176346390D02*
X32559619Y-176298771D01*
X32559619Y-176298771D02*
X32607238Y-176203533D01*
X32607238Y-176203533D02*
X32607238Y-176108295D01*
X32607238Y-176108295D02*
X32559619Y-176013057D01*
X32559619Y-176013057D02*
X32512000Y-175965438D01*
X32512000Y-175965438D02*
X32416762Y-175917819D01*
X32416762Y-175917819D02*
X32178667Y-175917819D01*
X32178667Y-175917819D02*
X32035810Y-175965438D01*
X31178667Y-176870200D02*
X31273905Y-176917819D01*
X31273905Y-176917819D02*
X31464381Y-176917819D01*
X31464381Y-176917819D02*
X31559619Y-176870200D01*
X31559619Y-176870200D02*
X31607238Y-176822580D01*
X31607238Y-176822580D02*
X31654857Y-176727342D01*
X31654857Y-176727342D02*
X31654857Y-176441628D01*
X31654857Y-176441628D02*
X31607238Y-176346390D01*
X31607238Y-176346390D02*
X31559619Y-176298771D01*
X31559619Y-176298771D02*
X31464381Y-176251152D01*
X31464381Y-176251152D02*
X31273905Y-176251152D01*
X31273905Y-176251152D02*
X31178667Y-176298771D01*
X30750095Y-176917819D02*
X30750095Y-175917819D01*
X30321524Y-176917819D02*
X30321524Y-176394009D01*
X30321524Y-176394009D02*
X30369143Y-176298771D01*
X30369143Y-176298771D02*
X30464381Y-176251152D01*
X30464381Y-176251152D02*
X30607238Y-176251152D01*
X30607238Y-176251152D02*
X30702476Y-176298771D01*
X30702476Y-176298771D02*
X30750095Y-176346390D01*
X29702476Y-176917819D02*
X29797714Y-176870200D01*
X29797714Y-176870200D02*
X29845333Y-176822580D01*
X29845333Y-176822580D02*
X29892952Y-176727342D01*
X29892952Y-176727342D02*
X29892952Y-176441628D01*
X29892952Y-176441628D02*
X29845333Y-176346390D01*
X29845333Y-176346390D02*
X29797714Y-176298771D01*
X29797714Y-176298771D02*
X29702476Y-176251152D01*
X29702476Y-176251152D02*
X29559619Y-176251152D01*
X29559619Y-176251152D02*
X29464381Y-176298771D01*
X29464381Y-176298771D02*
X29416762Y-176346390D01*
X29416762Y-176346390D02*
X29369143Y-176441628D01*
X29369143Y-176441628D02*
X29369143Y-176727342D01*
X29369143Y-176727342D02*
X29416762Y-176822580D01*
X29416762Y-176822580D02*
X29464381Y-176870200D01*
X29464381Y-176870200D02*
X29559619Y-176917819D01*
X29559619Y-176917819D02*
X29702476Y-176917819D01*
X29083428Y-176251152D02*
X28702476Y-176251152D01*
X28940571Y-175917819D02*
X28940571Y-176774961D01*
X28940571Y-176774961D02*
X28892952Y-176870200D01*
X28892952Y-176870200D02*
X28797714Y-176917819D01*
X28797714Y-176917819D02*
X28702476Y-176917819D01*
X28511999Y-176251152D02*
X28131047Y-176251152D01*
X28369142Y-175917819D02*
X28369142Y-176774961D01*
X28369142Y-176774961D02*
X28321523Y-176870200D01*
X28321523Y-176870200D02*
X28226285Y-176917819D01*
X28226285Y-176917819D02*
X28131047Y-176917819D01*
X27797713Y-176917819D02*
X27797713Y-175917819D01*
X27702475Y-176536866D02*
X27416761Y-176917819D01*
X27416761Y-176251152D02*
X27797713Y-176632104D01*
X27083427Y-176251152D02*
X26845332Y-176917819D01*
X26607237Y-176251152D02*
X26845332Y-176917819D01*
X26845332Y-176917819D02*
X26940570Y-177155914D01*
X26940570Y-177155914D02*
X26988189Y-177203533D01*
X26988189Y-177203533D02*
X27083427Y-177251152D01*
X31726285Y-171817819D02*
X31726285Y-170817819D01*
X31726285Y-170817819D02*
X31488190Y-170817819D01*
X31488190Y-170817819D02*
X31345333Y-170865438D01*
X31345333Y-170865438D02*
X31250095Y-170960676D01*
X31250095Y-170960676D02*
X31202476Y-171055914D01*
X31202476Y-171055914D02*
X31154857Y-171246390D01*
X31154857Y-171246390D02*
X31154857Y-171389247D01*
X31154857Y-171389247D02*
X31202476Y-171579723D01*
X31202476Y-171579723D02*
X31250095Y-171674961D01*
X31250095Y-171674961D02*
X31345333Y-171770200D01*
X31345333Y-171770200D02*
X31488190Y-171817819D01*
X31488190Y-171817819D02*
X31726285Y-171817819D01*
X30202476Y-171817819D02*
X30773904Y-171817819D01*
X30488190Y-171817819D02*
X30488190Y-170817819D01*
X30488190Y-170817819D02*
X30583428Y-170960676D01*
X30583428Y-170960676D02*
X30678666Y-171055914D01*
X30678666Y-171055914D02*
X30773904Y-171103533D01*
X29297714Y-170817819D02*
X29773904Y-170817819D01*
X29773904Y-170817819D02*
X29821523Y-171294009D01*
X29821523Y-171294009D02*
X29773904Y-171246390D01*
X29773904Y-171246390D02*
X29678666Y-171198771D01*
X29678666Y-171198771D02*
X29440571Y-171198771D01*
X29440571Y-171198771D02*
X29345333Y-171246390D01*
X29345333Y-171246390D02*
X29297714Y-171294009D01*
X29297714Y-171294009D02*
X29250095Y-171389247D01*
X29250095Y-171389247D02*
X29250095Y-171627342D01*
X29250095Y-171627342D02*
X29297714Y-171722580D01*
X29297714Y-171722580D02*
X29345333Y-171770200D01*
X29345333Y-171770200D02*
X29440571Y-171817819D01*
X29440571Y-171817819D02*
X29678666Y-171817819D01*
X29678666Y-171817819D02*
X29773904Y-171770200D01*
X29773904Y-171770200D02*
X29821523Y-171722580D01*
X39503819Y-176325714D02*
X39503819Y-175849524D01*
X39503819Y-175849524D02*
X39980009Y-175801905D01*
X39980009Y-175801905D02*
X39932390Y-175849524D01*
X39932390Y-175849524D02*
X39884771Y-175944762D01*
X39884771Y-175944762D02*
X39884771Y-176182857D01*
X39884771Y-176182857D02*
X39932390Y-176278095D01*
X39932390Y-176278095D02*
X39980009Y-176325714D01*
X39980009Y-176325714D02*
X40075247Y-176373333D01*
X40075247Y-176373333D02*
X40313342Y-176373333D01*
X40313342Y-176373333D02*
X40408580Y-176325714D01*
X40408580Y-176325714D02*
X40456200Y-176278095D01*
X40456200Y-176278095D02*
X40503819Y-176182857D01*
X40503819Y-176182857D02*
X40503819Y-175944762D01*
X40503819Y-175944762D02*
X40456200Y-175849524D01*
X40456200Y-175849524D02*
X40408580Y-175801905D01*
X39503819Y-176992381D02*
X39503819Y-177087619D01*
X39503819Y-177087619D02*
X39551438Y-177182857D01*
X39551438Y-177182857D02*
X39599057Y-177230476D01*
X39599057Y-177230476D02*
X39694295Y-177278095D01*
X39694295Y-177278095D02*
X39884771Y-177325714D01*
X39884771Y-177325714D02*
X40122866Y-177325714D01*
X40122866Y-177325714D02*
X40313342Y-177278095D01*
X40313342Y-177278095D02*
X40408580Y-177230476D01*
X40408580Y-177230476D02*
X40456200Y-177182857D01*
X40456200Y-177182857D02*
X40503819Y-177087619D01*
X40503819Y-177087619D02*
X40503819Y-176992381D01*
X40503819Y-176992381D02*
X40456200Y-176897143D01*
X40456200Y-176897143D02*
X40408580Y-176849524D01*
X40408580Y-176849524D02*
X40313342Y-176801905D01*
X40313342Y-176801905D02*
X40122866Y-176754286D01*
X40122866Y-176754286D02*
X39884771Y-176754286D01*
X39884771Y-176754286D02*
X39694295Y-176801905D01*
X39694295Y-176801905D02*
X39599057Y-176849524D01*
X39599057Y-176849524D02*
X39551438Y-176897143D01*
X39551438Y-176897143D02*
X39503819Y-176992381D01*
X39503819Y-177944762D02*
X39503819Y-178040000D01*
X39503819Y-178040000D02*
X39551438Y-178135238D01*
X39551438Y-178135238D02*
X39599057Y-178182857D01*
X39599057Y-178182857D02*
X39694295Y-178230476D01*
X39694295Y-178230476D02*
X39884771Y-178278095D01*
X39884771Y-178278095D02*
X40122866Y-178278095D01*
X40122866Y-178278095D02*
X40313342Y-178230476D01*
X40313342Y-178230476D02*
X40408580Y-178182857D01*
X40408580Y-178182857D02*
X40456200Y-178135238D01*
X40456200Y-178135238D02*
X40503819Y-178040000D01*
X40503819Y-178040000D02*
X40503819Y-177944762D01*
X40503819Y-177944762D02*
X40456200Y-177849524D01*
X40456200Y-177849524D02*
X40408580Y-177801905D01*
X40408580Y-177801905D02*
X40313342Y-177754286D01*
X40313342Y-177754286D02*
X40122866Y-177706667D01*
X40122866Y-177706667D02*
X39884771Y-177706667D01*
X39884771Y-177706667D02*
X39694295Y-177754286D01*
X39694295Y-177754286D02*
X39599057Y-177801905D01*
X39599057Y-177801905D02*
X39551438Y-177849524D01*
X39551438Y-177849524D02*
X39503819Y-177944762D01*
D11*
X38800927Y-176782857D02*
X38610451Y-176649524D01*
X38800927Y-176554286D02*
X38400927Y-176554286D01*
X38400927Y-176554286D02*
X38400927Y-176706667D01*
X38400927Y-176706667D02*
X38419975Y-176744762D01*
X38419975Y-176744762D02*
X38439022Y-176763809D01*
X38439022Y-176763809D02*
X38477118Y-176782857D01*
X38477118Y-176782857D02*
X38534260Y-176782857D01*
X38534260Y-176782857D02*
X38572356Y-176763809D01*
X38572356Y-176763809D02*
X38591403Y-176744762D01*
X38591403Y-176744762D02*
X38610451Y-176706667D01*
X38610451Y-176706667D02*
X38610451Y-176554286D01*
X38439022Y-176935238D02*
X38419975Y-176954286D01*
X38419975Y-176954286D02*
X38400927Y-176992381D01*
X38400927Y-176992381D02*
X38400927Y-177087619D01*
X38400927Y-177087619D02*
X38419975Y-177125714D01*
X38419975Y-177125714D02*
X38439022Y-177144762D01*
X38439022Y-177144762D02*
X38477118Y-177163809D01*
X38477118Y-177163809D02*
X38515213Y-177163809D01*
X38515213Y-177163809D02*
X38572356Y-177144762D01*
X38572356Y-177144762D02*
X38800927Y-176916190D01*
X38800927Y-176916190D02*
X38800927Y-177163809D01*
X38439022Y-177316190D02*
X38419975Y-177335238D01*
X38419975Y-177335238D02*
X38400927Y-177373333D01*
X38400927Y-177373333D02*
X38400927Y-177468571D01*
X38400927Y-177468571D02*
X38419975Y-177506666D01*
X38419975Y-177506666D02*
X38439022Y-177525714D01*
X38439022Y-177525714D02*
X38477118Y-177544761D01*
X38477118Y-177544761D02*
X38515213Y-177544761D01*
X38515213Y-177544761D02*
X38572356Y-177525714D01*
X38572356Y-177525714D02*
X38800927Y-177297142D01*
X38800927Y-177297142D02*
X38800927Y-177544761D01*
D10*
X37658904Y-181513057D02*
X37611285Y-181465438D01*
X37611285Y-181465438D02*
X37516047Y-181417819D01*
X37516047Y-181417819D02*
X37277952Y-181417819D01*
X37277952Y-181417819D02*
X37182714Y-181465438D01*
X37182714Y-181465438D02*
X37135095Y-181513057D01*
X37135095Y-181513057D02*
X37087476Y-181608295D01*
X37087476Y-181608295D02*
X37087476Y-181703533D01*
X37087476Y-181703533D02*
X37135095Y-181846390D01*
X37135095Y-181846390D02*
X37706523Y-182417819D01*
X37706523Y-182417819D02*
X37087476Y-182417819D01*
X36468428Y-181417819D02*
X36373190Y-181417819D01*
X36373190Y-181417819D02*
X36277952Y-181465438D01*
X36277952Y-181465438D02*
X36230333Y-181513057D01*
X36230333Y-181513057D02*
X36182714Y-181608295D01*
X36182714Y-181608295D02*
X36135095Y-181798771D01*
X36135095Y-181798771D02*
X36135095Y-182036866D01*
X36135095Y-182036866D02*
X36182714Y-182227342D01*
X36182714Y-182227342D02*
X36230333Y-182322580D01*
X36230333Y-182322580D02*
X36277952Y-182370200D01*
X36277952Y-182370200D02*
X36373190Y-182417819D01*
X36373190Y-182417819D02*
X36468428Y-182417819D01*
X36468428Y-182417819D02*
X36563666Y-182370200D01*
X36563666Y-182370200D02*
X36611285Y-182322580D01*
X36611285Y-182322580D02*
X36658904Y-182227342D01*
X36658904Y-182227342D02*
X36706523Y-182036866D01*
X36706523Y-182036866D02*
X36706523Y-181798771D01*
X36706523Y-181798771D02*
X36658904Y-181608295D01*
X36658904Y-181608295D02*
X36611285Y-181513057D01*
X36611285Y-181513057D02*
X36563666Y-181465438D01*
X36563666Y-181465438D02*
X36468428Y-181417819D01*
X35706523Y-182417819D02*
X35706523Y-181417819D01*
X35135095Y-182417819D02*
X35563666Y-181846390D01*
X35135095Y-181417819D02*
X35706523Y-181989247D01*
D11*
X36654142Y-180714927D02*
X36787475Y-180524451D01*
X36882713Y-180714927D02*
X36882713Y-180314927D01*
X36882713Y-180314927D02*
X36730332Y-180314927D01*
X36730332Y-180314927D02*
X36692237Y-180333975D01*
X36692237Y-180333975D02*
X36673190Y-180353022D01*
X36673190Y-180353022D02*
X36654142Y-180391118D01*
X36654142Y-180391118D02*
X36654142Y-180448260D01*
X36654142Y-180448260D02*
X36673190Y-180486356D01*
X36673190Y-180486356D02*
X36692237Y-180505403D01*
X36692237Y-180505403D02*
X36730332Y-180524451D01*
X36730332Y-180524451D02*
X36882713Y-180524451D01*
X36501761Y-180353022D02*
X36482713Y-180333975D01*
X36482713Y-180333975D02*
X36444618Y-180314927D01*
X36444618Y-180314927D02*
X36349380Y-180314927D01*
X36349380Y-180314927D02*
X36311285Y-180333975D01*
X36311285Y-180333975D02*
X36292237Y-180353022D01*
X36292237Y-180353022D02*
X36273190Y-180391118D01*
X36273190Y-180391118D02*
X36273190Y-180429213D01*
X36273190Y-180429213D02*
X36292237Y-180486356D01*
X36292237Y-180486356D02*
X36520809Y-180714927D01*
X36520809Y-180714927D02*
X36273190Y-180714927D01*
X36025571Y-180314927D02*
X35987476Y-180314927D01*
X35987476Y-180314927D02*
X35949380Y-180333975D01*
X35949380Y-180333975D02*
X35930333Y-180353022D01*
X35930333Y-180353022D02*
X35911285Y-180391118D01*
X35911285Y-180391118D02*
X35892238Y-180467308D01*
X35892238Y-180467308D02*
X35892238Y-180562546D01*
X35892238Y-180562546D02*
X35911285Y-180638737D01*
X35911285Y-180638737D02*
X35930333Y-180676832D01*
X35930333Y-180676832D02*
X35949380Y-180695880D01*
X35949380Y-180695880D02*
X35987476Y-180714927D01*
X35987476Y-180714927D02*
X36025571Y-180714927D01*
X36025571Y-180714927D02*
X36063666Y-180695880D01*
X36063666Y-180695880D02*
X36082714Y-180676832D01*
X36082714Y-180676832D02*
X36101761Y-180638737D01*
X36101761Y-180638737D02*
X36120809Y-180562546D01*
X36120809Y-180562546D02*
X36120809Y-180467308D01*
X36120809Y-180467308D02*
X36101761Y-180391118D01*
X36101761Y-180391118D02*
X36082714Y-180353022D01*
X36082714Y-180353022D02*
X36063666Y-180333975D01*
X36063666Y-180333975D02*
X36025571Y-180314927D01*
D10*
X46544819Y-176018333D02*
X46544819Y-175446905D01*
X46544819Y-175732619D02*
X45544819Y-175732619D01*
X45544819Y-175732619D02*
X45687676Y-175637381D01*
X45687676Y-175637381D02*
X45782914Y-175542143D01*
X45782914Y-175542143D02*
X45830533Y-175446905D01*
X45544819Y-176637381D02*
X45544819Y-176732619D01*
X45544819Y-176732619D02*
X45592438Y-176827857D01*
X45592438Y-176827857D02*
X45640057Y-176875476D01*
X45640057Y-176875476D02*
X45735295Y-176923095D01*
X45735295Y-176923095D02*
X45925771Y-176970714D01*
X45925771Y-176970714D02*
X46163866Y-176970714D01*
X46163866Y-176970714D02*
X46354342Y-176923095D01*
X46354342Y-176923095D02*
X46449580Y-176875476D01*
X46449580Y-176875476D02*
X46497200Y-176827857D01*
X46497200Y-176827857D02*
X46544819Y-176732619D01*
X46544819Y-176732619D02*
X46544819Y-176637381D01*
X46544819Y-176637381D02*
X46497200Y-176542143D01*
X46497200Y-176542143D02*
X46449580Y-176494524D01*
X46449580Y-176494524D02*
X46354342Y-176446905D01*
X46354342Y-176446905D02*
X46163866Y-176399286D01*
X46163866Y-176399286D02*
X45925771Y-176399286D01*
X45925771Y-176399286D02*
X45735295Y-176446905D01*
X45735295Y-176446905D02*
X45640057Y-176494524D01*
X45640057Y-176494524D02*
X45592438Y-176542143D01*
X45592438Y-176542143D02*
X45544819Y-176637381D01*
X45544819Y-177589762D02*
X45544819Y-177685000D01*
X45544819Y-177685000D02*
X45592438Y-177780238D01*
X45592438Y-177780238D02*
X45640057Y-177827857D01*
X45640057Y-177827857D02*
X45735295Y-177875476D01*
X45735295Y-177875476D02*
X45925771Y-177923095D01*
X45925771Y-177923095D02*
X46163866Y-177923095D01*
X46163866Y-177923095D02*
X46354342Y-177875476D01*
X46354342Y-177875476D02*
X46449580Y-177827857D01*
X46449580Y-177827857D02*
X46497200Y-177780238D01*
X46497200Y-177780238D02*
X46544819Y-177685000D01*
X46544819Y-177685000D02*
X46544819Y-177589762D01*
X46544819Y-177589762D02*
X46497200Y-177494524D01*
X46497200Y-177494524D02*
X46449580Y-177446905D01*
X46449580Y-177446905D02*
X46354342Y-177399286D01*
X46354342Y-177399286D02*
X46163866Y-177351667D01*
X46163866Y-177351667D02*
X45925771Y-177351667D01*
X45925771Y-177351667D02*
X45735295Y-177399286D01*
X45735295Y-177399286D02*
X45640057Y-177446905D01*
X45640057Y-177446905D02*
X45592438Y-177494524D01*
X45592438Y-177494524D02*
X45544819Y-177589762D01*
X46544819Y-178351667D02*
X45544819Y-178351667D01*
X46544819Y-178923095D02*
X45973390Y-178494524D01*
X45544819Y-178923095D02*
X46116247Y-178351667D01*
D11*
X44841927Y-176927857D02*
X44651451Y-176794524D01*
X44841927Y-176699286D02*
X44441927Y-176699286D01*
X44441927Y-176699286D02*
X44441927Y-176851667D01*
X44441927Y-176851667D02*
X44460975Y-176889762D01*
X44460975Y-176889762D02*
X44480022Y-176908809D01*
X44480022Y-176908809D02*
X44518118Y-176927857D01*
X44518118Y-176927857D02*
X44575260Y-176927857D01*
X44575260Y-176927857D02*
X44613356Y-176908809D01*
X44613356Y-176908809D02*
X44632403Y-176889762D01*
X44632403Y-176889762D02*
X44651451Y-176851667D01*
X44651451Y-176851667D02*
X44651451Y-176699286D01*
X44480022Y-177080238D02*
X44460975Y-177099286D01*
X44460975Y-177099286D02*
X44441927Y-177137381D01*
X44441927Y-177137381D02*
X44441927Y-177232619D01*
X44441927Y-177232619D02*
X44460975Y-177270714D01*
X44460975Y-177270714D02*
X44480022Y-177289762D01*
X44480022Y-177289762D02*
X44518118Y-177308809D01*
X44518118Y-177308809D02*
X44556213Y-177308809D01*
X44556213Y-177308809D02*
X44613356Y-177289762D01*
X44613356Y-177289762D02*
X44841927Y-177061190D01*
X44841927Y-177061190D02*
X44841927Y-177308809D01*
X44575260Y-177651666D02*
X44841927Y-177651666D01*
X44422880Y-177556428D02*
X44708594Y-177461190D01*
X44708594Y-177461190D02*
X44708594Y-177708809D01*
D10*
X34543524Y-189109819D02*
X34543524Y-188109819D01*
X34543524Y-188109819D02*
X34305429Y-188109819D01*
X34305429Y-188109819D02*
X34162572Y-188157438D01*
X34162572Y-188157438D02*
X34067334Y-188252676D01*
X34067334Y-188252676D02*
X34019715Y-188347914D01*
X34019715Y-188347914D02*
X33972096Y-188538390D01*
X33972096Y-188538390D02*
X33972096Y-188681247D01*
X33972096Y-188681247D02*
X34019715Y-188871723D01*
X34019715Y-188871723D02*
X34067334Y-188966961D01*
X34067334Y-188966961D02*
X34162572Y-189062200D01*
X34162572Y-189062200D02*
X34305429Y-189109819D01*
X34305429Y-189109819D02*
X34543524Y-189109819D01*
X33781620Y-189205057D02*
X33019715Y-189205057D01*
X32829238Y-189062200D02*
X32686381Y-189109819D01*
X32686381Y-189109819D02*
X32448286Y-189109819D01*
X32448286Y-189109819D02*
X32353048Y-189062200D01*
X32353048Y-189062200D02*
X32305429Y-189014580D01*
X32305429Y-189014580D02*
X32257810Y-188919342D01*
X32257810Y-188919342D02*
X32257810Y-188824104D01*
X32257810Y-188824104D02*
X32305429Y-188728866D01*
X32305429Y-188728866D02*
X32353048Y-188681247D01*
X32353048Y-188681247D02*
X32448286Y-188633628D01*
X32448286Y-188633628D02*
X32638762Y-188586009D01*
X32638762Y-188586009D02*
X32734000Y-188538390D01*
X32734000Y-188538390D02*
X32781619Y-188490771D01*
X32781619Y-188490771D02*
X32829238Y-188395533D01*
X32829238Y-188395533D02*
X32829238Y-188300295D01*
X32829238Y-188300295D02*
X32781619Y-188205057D01*
X32781619Y-188205057D02*
X32734000Y-188157438D01*
X32734000Y-188157438D02*
X32638762Y-188109819D01*
X32638762Y-188109819D02*
X32400667Y-188109819D01*
X32400667Y-188109819D02*
X32257810Y-188157438D01*
X31400667Y-189062200D02*
X31495905Y-189109819D01*
X31495905Y-189109819D02*
X31686381Y-189109819D01*
X31686381Y-189109819D02*
X31781619Y-189062200D01*
X31781619Y-189062200D02*
X31829238Y-189014580D01*
X31829238Y-189014580D02*
X31876857Y-188919342D01*
X31876857Y-188919342D02*
X31876857Y-188633628D01*
X31876857Y-188633628D02*
X31829238Y-188538390D01*
X31829238Y-188538390D02*
X31781619Y-188490771D01*
X31781619Y-188490771D02*
X31686381Y-188443152D01*
X31686381Y-188443152D02*
X31495905Y-188443152D01*
X31495905Y-188443152D02*
X31400667Y-188490771D01*
X30972095Y-189109819D02*
X30972095Y-188109819D01*
X30543524Y-189109819D02*
X30543524Y-188586009D01*
X30543524Y-188586009D02*
X30591143Y-188490771D01*
X30591143Y-188490771D02*
X30686381Y-188443152D01*
X30686381Y-188443152D02*
X30829238Y-188443152D01*
X30829238Y-188443152D02*
X30924476Y-188490771D01*
X30924476Y-188490771D02*
X30972095Y-188538390D01*
X29924476Y-189109819D02*
X30019714Y-189062200D01*
X30019714Y-189062200D02*
X30067333Y-189014580D01*
X30067333Y-189014580D02*
X30114952Y-188919342D01*
X30114952Y-188919342D02*
X30114952Y-188633628D01*
X30114952Y-188633628D02*
X30067333Y-188538390D01*
X30067333Y-188538390D02*
X30019714Y-188490771D01*
X30019714Y-188490771D02*
X29924476Y-188443152D01*
X29924476Y-188443152D02*
X29781619Y-188443152D01*
X29781619Y-188443152D02*
X29686381Y-188490771D01*
X29686381Y-188490771D02*
X29638762Y-188538390D01*
X29638762Y-188538390D02*
X29591143Y-188633628D01*
X29591143Y-188633628D02*
X29591143Y-188919342D01*
X29591143Y-188919342D02*
X29638762Y-189014580D01*
X29638762Y-189014580D02*
X29686381Y-189062200D01*
X29686381Y-189062200D02*
X29781619Y-189109819D01*
X29781619Y-189109819D02*
X29924476Y-189109819D01*
X29305428Y-188443152D02*
X28924476Y-188443152D01*
X29162571Y-188109819D02*
X29162571Y-188966961D01*
X29162571Y-188966961D02*
X29114952Y-189062200D01*
X29114952Y-189062200D02*
X29019714Y-189109819D01*
X29019714Y-189109819D02*
X28924476Y-189109819D01*
X28733999Y-188443152D02*
X28353047Y-188443152D01*
X28591142Y-188109819D02*
X28591142Y-188966961D01*
X28591142Y-188966961D02*
X28543523Y-189062200D01*
X28543523Y-189062200D02*
X28448285Y-189109819D01*
X28448285Y-189109819D02*
X28353047Y-189109819D01*
X28019713Y-189109819D02*
X28019713Y-188109819D01*
X27924475Y-188728866D02*
X27638761Y-189109819D01*
X27638761Y-188443152D02*
X28019713Y-188824104D01*
X27305427Y-188443152D02*
X27067332Y-189109819D01*
X26829237Y-188443152D02*
X27067332Y-189109819D01*
X27067332Y-189109819D02*
X27162570Y-189347914D01*
X27162570Y-189347914D02*
X27210189Y-189395533D01*
X27210189Y-189395533D02*
X27305427Y-189443152D01*
X31948285Y-184009819D02*
X31948285Y-183009819D01*
X31948285Y-183009819D02*
X31710190Y-183009819D01*
X31710190Y-183009819D02*
X31567333Y-183057438D01*
X31567333Y-183057438D02*
X31472095Y-183152676D01*
X31472095Y-183152676D02*
X31424476Y-183247914D01*
X31424476Y-183247914D02*
X31376857Y-183438390D01*
X31376857Y-183438390D02*
X31376857Y-183581247D01*
X31376857Y-183581247D02*
X31424476Y-183771723D01*
X31424476Y-183771723D02*
X31472095Y-183866961D01*
X31472095Y-183866961D02*
X31567333Y-183962200D01*
X31567333Y-183962200D02*
X31710190Y-184009819D01*
X31710190Y-184009819D02*
X31948285Y-184009819D01*
X30424476Y-184009819D02*
X30995904Y-184009819D01*
X30710190Y-184009819D02*
X30710190Y-183009819D01*
X30710190Y-183009819D02*
X30805428Y-183152676D01*
X30805428Y-183152676D02*
X30900666Y-183247914D01*
X30900666Y-183247914D02*
X30995904Y-183295533D01*
X30091142Y-183009819D02*
X29472095Y-183009819D01*
X29472095Y-183009819D02*
X29805428Y-183390771D01*
X29805428Y-183390771D02*
X29662571Y-183390771D01*
X29662571Y-183390771D02*
X29567333Y-183438390D01*
X29567333Y-183438390D02*
X29519714Y-183486009D01*
X29519714Y-183486009D02*
X29472095Y-183581247D01*
X29472095Y-183581247D02*
X29472095Y-183819342D01*
X29472095Y-183819342D02*
X29519714Y-183914580D01*
X29519714Y-183914580D02*
X29567333Y-183962200D01*
X29567333Y-183962200D02*
X29662571Y-184009819D01*
X29662571Y-184009819D02*
X29948285Y-184009819D01*
X29948285Y-184009819D02*
X30043523Y-183962200D01*
X30043523Y-183962200D02*
X30091142Y-183914580D01*
X46424819Y-189950714D02*
X46424819Y-189379286D01*
X46424819Y-189665000D02*
X45424819Y-189665000D01*
X45424819Y-189665000D02*
X45567676Y-189569762D01*
X45567676Y-189569762D02*
X45662914Y-189474524D01*
X45662914Y-189474524D02*
X45710533Y-189379286D01*
X46424819Y-190379286D02*
X45424819Y-190379286D01*
X46424819Y-190950714D02*
X45853390Y-190522143D01*
X45424819Y-190950714D02*
X45996247Y-190379286D01*
D11*
X47581927Y-190098333D02*
X47391451Y-189965000D01*
X47581927Y-189869762D02*
X47181927Y-189869762D01*
X47181927Y-189869762D02*
X47181927Y-190022143D01*
X47181927Y-190022143D02*
X47200975Y-190060238D01*
X47200975Y-190060238D02*
X47220022Y-190079285D01*
X47220022Y-190079285D02*
X47258118Y-190098333D01*
X47258118Y-190098333D02*
X47315260Y-190098333D01*
X47315260Y-190098333D02*
X47353356Y-190079285D01*
X47353356Y-190079285D02*
X47372403Y-190060238D01*
X47372403Y-190060238D02*
X47391451Y-190022143D01*
X47391451Y-190022143D02*
X47391451Y-189869762D01*
X47181927Y-190441190D02*
X47181927Y-190365000D01*
X47181927Y-190365000D02*
X47200975Y-190326904D01*
X47200975Y-190326904D02*
X47220022Y-190307857D01*
X47220022Y-190307857D02*
X47277165Y-190269762D01*
X47277165Y-190269762D02*
X47353356Y-190250714D01*
X47353356Y-190250714D02*
X47505737Y-190250714D01*
X47505737Y-190250714D02*
X47543832Y-190269762D01*
X47543832Y-190269762D02*
X47562880Y-190288809D01*
X47562880Y-190288809D02*
X47581927Y-190326904D01*
X47581927Y-190326904D02*
X47581927Y-190403095D01*
X47581927Y-190403095D02*
X47562880Y-190441190D01*
X47562880Y-190441190D02*
X47543832Y-190460238D01*
X47543832Y-190460238D02*
X47505737Y-190479285D01*
X47505737Y-190479285D02*
X47410499Y-190479285D01*
X47410499Y-190479285D02*
X47372403Y-190460238D01*
X47372403Y-190460238D02*
X47353356Y-190441190D01*
X47353356Y-190441190D02*
X47334308Y-190403095D01*
X47334308Y-190403095D02*
X47334308Y-190326904D01*
X47334308Y-190326904D02*
X47353356Y-190288809D01*
X47353356Y-190288809D02*
X47372403Y-190269762D01*
X47372403Y-190269762D02*
X47410499Y-190250714D01*
D10*
X56047819Y-175292923D02*
X56047819Y-174721495D01*
X56047819Y-175007209D02*
X55047819Y-175007209D01*
X55047819Y-175007209D02*
X55190676Y-174911971D01*
X55190676Y-174911971D02*
X55285914Y-174816733D01*
X55285914Y-174816733D02*
X55333533Y-174721495D01*
X55047819Y-175911971D02*
X55047819Y-176007209D01*
X55047819Y-176007209D02*
X55095438Y-176102447D01*
X55095438Y-176102447D02*
X55143057Y-176150066D01*
X55143057Y-176150066D02*
X55238295Y-176197685D01*
X55238295Y-176197685D02*
X55428771Y-176245304D01*
X55428771Y-176245304D02*
X55666866Y-176245304D01*
X55666866Y-176245304D02*
X55857342Y-176197685D01*
X55857342Y-176197685D02*
X55952580Y-176150066D01*
X55952580Y-176150066D02*
X56000200Y-176102447D01*
X56000200Y-176102447D02*
X56047819Y-176007209D01*
X56047819Y-176007209D02*
X56047819Y-175911971D01*
X56047819Y-175911971D02*
X56000200Y-175816733D01*
X56000200Y-175816733D02*
X55952580Y-175769114D01*
X55952580Y-175769114D02*
X55857342Y-175721495D01*
X55857342Y-175721495D02*
X55666866Y-175673876D01*
X55666866Y-175673876D02*
X55428771Y-175673876D01*
X55428771Y-175673876D02*
X55238295Y-175721495D01*
X55238295Y-175721495D02*
X55143057Y-175769114D01*
X55143057Y-175769114D02*
X55095438Y-175816733D01*
X55095438Y-175816733D02*
X55047819Y-175911971D01*
X56047819Y-176673876D02*
X55047819Y-176673876D01*
X56047819Y-177245304D02*
X55476390Y-176816733D01*
X55047819Y-177245304D02*
X55619247Y-176673876D01*
D11*
X57204927Y-175726257D02*
X57014451Y-175592924D01*
X57204927Y-175497686D02*
X56804927Y-175497686D01*
X56804927Y-175497686D02*
X56804927Y-175650067D01*
X56804927Y-175650067D02*
X56823975Y-175688162D01*
X56823975Y-175688162D02*
X56843022Y-175707209D01*
X56843022Y-175707209D02*
X56881118Y-175726257D01*
X56881118Y-175726257D02*
X56938260Y-175726257D01*
X56938260Y-175726257D02*
X56976356Y-175707209D01*
X56976356Y-175707209D02*
X56995403Y-175688162D01*
X56995403Y-175688162D02*
X57014451Y-175650067D01*
X57014451Y-175650067D02*
X57014451Y-175497686D01*
X57204927Y-176107209D02*
X57204927Y-175878638D01*
X57204927Y-175992924D02*
X56804927Y-175992924D01*
X56804927Y-175992924D02*
X56862070Y-175954828D01*
X56862070Y-175954828D02*
X56900165Y-175916733D01*
X56900165Y-175916733D02*
X56919213Y-175878638D01*
X56938260Y-176450066D02*
X57204927Y-176450066D01*
X56785880Y-176354828D02*
X57071594Y-176259590D01*
X57071594Y-176259590D02*
X57071594Y-176507209D01*
D10*
X72004352Y-166122504D02*
X72671019Y-166122504D01*
X71623400Y-165884409D02*
X72337685Y-165646314D01*
X72337685Y-165646314D02*
X72337685Y-166265361D01*
X71671019Y-166836790D02*
X71671019Y-166932028D01*
X71671019Y-166932028D02*
X71718638Y-167027266D01*
X71718638Y-167027266D02*
X71766257Y-167074885D01*
X71766257Y-167074885D02*
X71861495Y-167122504D01*
X71861495Y-167122504D02*
X72051971Y-167170123D01*
X72051971Y-167170123D02*
X72290066Y-167170123D01*
X72290066Y-167170123D02*
X72480542Y-167122504D01*
X72480542Y-167122504D02*
X72575780Y-167074885D01*
X72575780Y-167074885D02*
X72623400Y-167027266D01*
X72623400Y-167027266D02*
X72671019Y-166932028D01*
X72671019Y-166932028D02*
X72671019Y-166836790D01*
X72671019Y-166836790D02*
X72623400Y-166741552D01*
X72623400Y-166741552D02*
X72575780Y-166693933D01*
X72575780Y-166693933D02*
X72480542Y-166646314D01*
X72480542Y-166646314D02*
X72290066Y-166598695D01*
X72290066Y-166598695D02*
X72051971Y-166598695D01*
X72051971Y-166598695D02*
X71861495Y-166646314D01*
X71861495Y-166646314D02*
X71766257Y-166693933D01*
X71766257Y-166693933D02*
X71718638Y-166741552D01*
X71718638Y-166741552D02*
X71671019Y-166836790D01*
X71671019Y-168074885D02*
X71671019Y-167598695D01*
X71671019Y-167598695D02*
X72147209Y-167551076D01*
X72147209Y-167551076D02*
X72099590Y-167598695D01*
X72099590Y-167598695D02*
X72051971Y-167693933D01*
X72051971Y-167693933D02*
X72051971Y-167932028D01*
X72051971Y-167932028D02*
X72099590Y-168027266D01*
X72099590Y-168027266D02*
X72147209Y-168074885D01*
X72147209Y-168074885D02*
X72242447Y-168122504D01*
X72242447Y-168122504D02*
X72480542Y-168122504D01*
X72480542Y-168122504D02*
X72575780Y-168074885D01*
X72575780Y-168074885D02*
X72623400Y-168027266D01*
X72623400Y-168027266D02*
X72671019Y-167932028D01*
X72671019Y-167932028D02*
X72671019Y-167693933D01*
X72671019Y-167693933D02*
X72623400Y-167598695D01*
X72623400Y-167598695D02*
X72575780Y-167551076D01*
X71671019Y-168741552D02*
X71671019Y-168836790D01*
X71671019Y-168836790D02*
X71718638Y-168932028D01*
X71718638Y-168932028D02*
X71766257Y-168979647D01*
X71766257Y-168979647D02*
X71861495Y-169027266D01*
X71861495Y-169027266D02*
X72051971Y-169074885D01*
X72051971Y-169074885D02*
X72290066Y-169074885D01*
X72290066Y-169074885D02*
X72480542Y-169027266D01*
X72480542Y-169027266D02*
X72575780Y-168979647D01*
X72575780Y-168979647D02*
X72623400Y-168932028D01*
X72623400Y-168932028D02*
X72671019Y-168836790D01*
X72671019Y-168836790D02*
X72671019Y-168741552D01*
X72671019Y-168741552D02*
X72623400Y-168646314D01*
X72623400Y-168646314D02*
X72575780Y-168598695D01*
X72575780Y-168598695D02*
X72480542Y-168551076D01*
X72480542Y-168551076D02*
X72290066Y-168503457D01*
X72290066Y-168503457D02*
X72051971Y-168503457D01*
X72051971Y-168503457D02*
X71861495Y-168551076D01*
X71861495Y-168551076D02*
X71766257Y-168598695D01*
X71766257Y-168598695D02*
X71718638Y-168646314D01*
X71718638Y-168646314D02*
X71671019Y-168741552D01*
X65678495Y-166751076D02*
X66326114Y-166751076D01*
X66326114Y-166751076D02*
X66402304Y-166789171D01*
X66402304Y-166789171D02*
X66440400Y-166827266D01*
X66440400Y-166827266D02*
X66478495Y-166903457D01*
X66478495Y-166903457D02*
X66478495Y-167055838D01*
X66478495Y-167055838D02*
X66440400Y-167132028D01*
X66440400Y-167132028D02*
X66402304Y-167170123D01*
X66402304Y-167170123D02*
X66326114Y-167208219D01*
X66326114Y-167208219D02*
X65678495Y-167208219D01*
X65754685Y-167551075D02*
X65716590Y-167589171D01*
X65716590Y-167589171D02*
X65678495Y-167665361D01*
X65678495Y-167665361D02*
X65678495Y-167855837D01*
X65678495Y-167855837D02*
X65716590Y-167932028D01*
X65716590Y-167932028D02*
X65754685Y-167970123D01*
X65754685Y-167970123D02*
X65830876Y-168008218D01*
X65830876Y-168008218D02*
X65907066Y-168008218D01*
X65907066Y-168008218D02*
X66021352Y-167970123D01*
X66021352Y-167970123D02*
X66478495Y-167512980D01*
X66478495Y-167512980D02*
X66478495Y-168008218D01*
X34289524Y-168789819D02*
X34289524Y-167789819D01*
X34289524Y-167789819D02*
X34051429Y-167789819D01*
X34051429Y-167789819D02*
X33908572Y-167837438D01*
X33908572Y-167837438D02*
X33813334Y-167932676D01*
X33813334Y-167932676D02*
X33765715Y-168027914D01*
X33765715Y-168027914D02*
X33718096Y-168218390D01*
X33718096Y-168218390D02*
X33718096Y-168361247D01*
X33718096Y-168361247D02*
X33765715Y-168551723D01*
X33765715Y-168551723D02*
X33813334Y-168646961D01*
X33813334Y-168646961D02*
X33908572Y-168742200D01*
X33908572Y-168742200D02*
X34051429Y-168789819D01*
X34051429Y-168789819D02*
X34289524Y-168789819D01*
X33527620Y-168885057D02*
X32765715Y-168885057D01*
X32575238Y-168742200D02*
X32432381Y-168789819D01*
X32432381Y-168789819D02*
X32194286Y-168789819D01*
X32194286Y-168789819D02*
X32099048Y-168742200D01*
X32099048Y-168742200D02*
X32051429Y-168694580D01*
X32051429Y-168694580D02*
X32003810Y-168599342D01*
X32003810Y-168599342D02*
X32003810Y-168504104D01*
X32003810Y-168504104D02*
X32051429Y-168408866D01*
X32051429Y-168408866D02*
X32099048Y-168361247D01*
X32099048Y-168361247D02*
X32194286Y-168313628D01*
X32194286Y-168313628D02*
X32384762Y-168266009D01*
X32384762Y-168266009D02*
X32480000Y-168218390D01*
X32480000Y-168218390D02*
X32527619Y-168170771D01*
X32527619Y-168170771D02*
X32575238Y-168075533D01*
X32575238Y-168075533D02*
X32575238Y-167980295D01*
X32575238Y-167980295D02*
X32527619Y-167885057D01*
X32527619Y-167885057D02*
X32480000Y-167837438D01*
X32480000Y-167837438D02*
X32384762Y-167789819D01*
X32384762Y-167789819D02*
X32146667Y-167789819D01*
X32146667Y-167789819D02*
X32003810Y-167837438D01*
X31146667Y-168742200D02*
X31241905Y-168789819D01*
X31241905Y-168789819D02*
X31432381Y-168789819D01*
X31432381Y-168789819D02*
X31527619Y-168742200D01*
X31527619Y-168742200D02*
X31575238Y-168694580D01*
X31575238Y-168694580D02*
X31622857Y-168599342D01*
X31622857Y-168599342D02*
X31622857Y-168313628D01*
X31622857Y-168313628D02*
X31575238Y-168218390D01*
X31575238Y-168218390D02*
X31527619Y-168170771D01*
X31527619Y-168170771D02*
X31432381Y-168123152D01*
X31432381Y-168123152D02*
X31241905Y-168123152D01*
X31241905Y-168123152D02*
X31146667Y-168170771D01*
X30718095Y-168789819D02*
X30718095Y-167789819D01*
X30289524Y-168789819D02*
X30289524Y-168266009D01*
X30289524Y-168266009D02*
X30337143Y-168170771D01*
X30337143Y-168170771D02*
X30432381Y-168123152D01*
X30432381Y-168123152D02*
X30575238Y-168123152D01*
X30575238Y-168123152D02*
X30670476Y-168170771D01*
X30670476Y-168170771D02*
X30718095Y-168218390D01*
X29670476Y-168789819D02*
X29765714Y-168742200D01*
X29765714Y-168742200D02*
X29813333Y-168694580D01*
X29813333Y-168694580D02*
X29860952Y-168599342D01*
X29860952Y-168599342D02*
X29860952Y-168313628D01*
X29860952Y-168313628D02*
X29813333Y-168218390D01*
X29813333Y-168218390D02*
X29765714Y-168170771D01*
X29765714Y-168170771D02*
X29670476Y-168123152D01*
X29670476Y-168123152D02*
X29527619Y-168123152D01*
X29527619Y-168123152D02*
X29432381Y-168170771D01*
X29432381Y-168170771D02*
X29384762Y-168218390D01*
X29384762Y-168218390D02*
X29337143Y-168313628D01*
X29337143Y-168313628D02*
X29337143Y-168599342D01*
X29337143Y-168599342D02*
X29384762Y-168694580D01*
X29384762Y-168694580D02*
X29432381Y-168742200D01*
X29432381Y-168742200D02*
X29527619Y-168789819D01*
X29527619Y-168789819D02*
X29670476Y-168789819D01*
X29051428Y-168123152D02*
X28670476Y-168123152D01*
X28908571Y-167789819D02*
X28908571Y-168646961D01*
X28908571Y-168646961D02*
X28860952Y-168742200D01*
X28860952Y-168742200D02*
X28765714Y-168789819D01*
X28765714Y-168789819D02*
X28670476Y-168789819D01*
X28479999Y-168123152D02*
X28099047Y-168123152D01*
X28337142Y-167789819D02*
X28337142Y-168646961D01*
X28337142Y-168646961D02*
X28289523Y-168742200D01*
X28289523Y-168742200D02*
X28194285Y-168789819D01*
X28194285Y-168789819D02*
X28099047Y-168789819D01*
X27765713Y-168789819D02*
X27765713Y-167789819D01*
X27670475Y-168408866D02*
X27384761Y-168789819D01*
X27384761Y-168123152D02*
X27765713Y-168504104D01*
X27051427Y-168123152D02*
X26813332Y-168789819D01*
X26575237Y-168123152D02*
X26813332Y-168789819D01*
X26813332Y-168789819D02*
X26908570Y-169027914D01*
X26908570Y-169027914D02*
X26956189Y-169075533D01*
X26956189Y-169075533D02*
X27051427Y-169123152D01*
X31218094Y-163689819D02*
X31218094Y-162689819D01*
X31218094Y-162689819D02*
X30979999Y-162689819D01*
X30979999Y-162689819D02*
X30837142Y-162737438D01*
X30837142Y-162737438D02*
X30741904Y-162832676D01*
X30741904Y-162832676D02*
X30694285Y-162927914D01*
X30694285Y-162927914D02*
X30646666Y-163118390D01*
X30646666Y-163118390D02*
X30646666Y-163261247D01*
X30646666Y-163261247D02*
X30694285Y-163451723D01*
X30694285Y-163451723D02*
X30741904Y-163546961D01*
X30741904Y-163546961D02*
X30837142Y-163642200D01*
X30837142Y-163642200D02*
X30979999Y-163689819D01*
X30979999Y-163689819D02*
X31218094Y-163689819D01*
X30313332Y-162689819D02*
X29646666Y-162689819D01*
X29646666Y-162689819D02*
X30075237Y-163689819D01*
X57297752Y-161448904D02*
X57964419Y-161448904D01*
X56916800Y-161210809D02*
X57631085Y-160972714D01*
X57631085Y-160972714D02*
X57631085Y-161591761D01*
X56964419Y-162163190D02*
X56964419Y-162258428D01*
X56964419Y-162258428D02*
X57012038Y-162353666D01*
X57012038Y-162353666D02*
X57059657Y-162401285D01*
X57059657Y-162401285D02*
X57154895Y-162448904D01*
X57154895Y-162448904D02*
X57345371Y-162496523D01*
X57345371Y-162496523D02*
X57583466Y-162496523D01*
X57583466Y-162496523D02*
X57773942Y-162448904D01*
X57773942Y-162448904D02*
X57869180Y-162401285D01*
X57869180Y-162401285D02*
X57916800Y-162353666D01*
X57916800Y-162353666D02*
X57964419Y-162258428D01*
X57964419Y-162258428D02*
X57964419Y-162163190D01*
X57964419Y-162163190D02*
X57916800Y-162067952D01*
X57916800Y-162067952D02*
X57869180Y-162020333D01*
X57869180Y-162020333D02*
X57773942Y-161972714D01*
X57773942Y-161972714D02*
X57583466Y-161925095D01*
X57583466Y-161925095D02*
X57345371Y-161925095D01*
X57345371Y-161925095D02*
X57154895Y-161972714D01*
X57154895Y-161972714D02*
X57059657Y-162020333D01*
X57059657Y-162020333D02*
X57012038Y-162067952D01*
X57012038Y-162067952D02*
X56964419Y-162163190D01*
X56964419Y-163401285D02*
X56964419Y-162925095D01*
X56964419Y-162925095D02*
X57440609Y-162877476D01*
X57440609Y-162877476D02*
X57392990Y-162925095D01*
X57392990Y-162925095D02*
X57345371Y-163020333D01*
X57345371Y-163020333D02*
X57345371Y-163258428D01*
X57345371Y-163258428D02*
X57392990Y-163353666D01*
X57392990Y-163353666D02*
X57440609Y-163401285D01*
X57440609Y-163401285D02*
X57535847Y-163448904D01*
X57535847Y-163448904D02*
X57773942Y-163448904D01*
X57773942Y-163448904D02*
X57869180Y-163401285D01*
X57869180Y-163401285D02*
X57916800Y-163353666D01*
X57916800Y-163353666D02*
X57964419Y-163258428D01*
X57964419Y-163258428D02*
X57964419Y-163020333D01*
X57964419Y-163020333D02*
X57916800Y-162925095D01*
X57916800Y-162925095D02*
X57869180Y-162877476D01*
X56964419Y-164067952D02*
X56964419Y-164163190D01*
X56964419Y-164163190D02*
X57012038Y-164258428D01*
X57012038Y-164258428D02*
X57059657Y-164306047D01*
X57059657Y-164306047D02*
X57154895Y-164353666D01*
X57154895Y-164353666D02*
X57345371Y-164401285D01*
X57345371Y-164401285D02*
X57583466Y-164401285D01*
X57583466Y-164401285D02*
X57773942Y-164353666D01*
X57773942Y-164353666D02*
X57869180Y-164306047D01*
X57869180Y-164306047D02*
X57916800Y-164258428D01*
X57916800Y-164258428D02*
X57964419Y-164163190D01*
X57964419Y-164163190D02*
X57964419Y-164067952D01*
X57964419Y-164067952D02*
X57916800Y-163972714D01*
X57916800Y-163972714D02*
X57869180Y-163925095D01*
X57869180Y-163925095D02*
X57773942Y-163877476D01*
X57773942Y-163877476D02*
X57583466Y-163829857D01*
X57583466Y-163829857D02*
X57345371Y-163829857D01*
X57345371Y-163829857D02*
X57154895Y-163877476D01*
X57154895Y-163877476D02*
X57059657Y-163925095D01*
X57059657Y-163925095D02*
X57012038Y-163972714D01*
X57012038Y-163972714D02*
X56964419Y-164067952D01*
X50971895Y-165887476D02*
X51619514Y-165887476D01*
X51619514Y-165887476D02*
X51695704Y-165925571D01*
X51695704Y-165925571D02*
X51733800Y-165963666D01*
X51733800Y-165963666D02*
X51771895Y-166039857D01*
X51771895Y-166039857D02*
X51771895Y-166192238D01*
X51771895Y-166192238D02*
X51733800Y-166268428D01*
X51733800Y-166268428D02*
X51695704Y-166306523D01*
X51695704Y-166306523D02*
X51619514Y-166344619D01*
X51619514Y-166344619D02*
X50971895Y-166344619D01*
X50971895Y-167106523D02*
X50971895Y-166725571D01*
X50971895Y-166725571D02*
X51352847Y-166687475D01*
X51352847Y-166687475D02*
X51314752Y-166725571D01*
X51314752Y-166725571D02*
X51276657Y-166801761D01*
X51276657Y-166801761D02*
X51276657Y-166992237D01*
X51276657Y-166992237D02*
X51314752Y-167068428D01*
X51314752Y-167068428D02*
X51352847Y-167106523D01*
X51352847Y-167106523D02*
X51429038Y-167144618D01*
X51429038Y-167144618D02*
X51619514Y-167144618D01*
X51619514Y-167144618D02*
X51695704Y-167106523D01*
X51695704Y-167106523D02*
X51733800Y-167068428D01*
X51733800Y-167068428D02*
X51771895Y-166992237D01*
X51771895Y-166992237D02*
X51771895Y-166801761D01*
X51771895Y-166801761D02*
X51733800Y-166725571D01*
X51733800Y-166725571D02*
X51695704Y-166687475D01*
X37594904Y-180177057D02*
X37547285Y-180129438D01*
X37547285Y-180129438D02*
X37452047Y-180081819D01*
X37452047Y-180081819D02*
X37213952Y-180081819D01*
X37213952Y-180081819D02*
X37118714Y-180129438D01*
X37118714Y-180129438D02*
X37071095Y-180177057D01*
X37071095Y-180177057D02*
X37023476Y-180272295D01*
X37023476Y-180272295D02*
X37023476Y-180367533D01*
X37023476Y-180367533D02*
X37071095Y-180510390D01*
X37071095Y-180510390D02*
X37642523Y-181081819D01*
X37642523Y-181081819D02*
X37023476Y-181081819D01*
X36404428Y-180081819D02*
X36309190Y-180081819D01*
X36309190Y-180081819D02*
X36213952Y-180129438D01*
X36213952Y-180129438D02*
X36166333Y-180177057D01*
X36166333Y-180177057D02*
X36118714Y-180272295D01*
X36118714Y-180272295D02*
X36071095Y-180462771D01*
X36071095Y-180462771D02*
X36071095Y-180700866D01*
X36071095Y-180700866D02*
X36118714Y-180891342D01*
X36118714Y-180891342D02*
X36166333Y-180986580D01*
X36166333Y-180986580D02*
X36213952Y-181034200D01*
X36213952Y-181034200D02*
X36309190Y-181081819D01*
X36309190Y-181081819D02*
X36404428Y-181081819D01*
X36404428Y-181081819D02*
X36499666Y-181034200D01*
X36499666Y-181034200D02*
X36547285Y-180986580D01*
X36547285Y-180986580D02*
X36594904Y-180891342D01*
X36594904Y-180891342D02*
X36642523Y-180700866D01*
X36642523Y-180700866D02*
X36642523Y-180462771D01*
X36642523Y-180462771D02*
X36594904Y-180272295D01*
X36594904Y-180272295D02*
X36547285Y-180177057D01*
X36547285Y-180177057D02*
X36499666Y-180129438D01*
X36499666Y-180129438D02*
X36404428Y-180081819D01*
X35642523Y-181081819D02*
X35642523Y-180081819D01*
X35071095Y-181081819D02*
X35499666Y-180510390D01*
X35071095Y-180081819D02*
X35642523Y-180653247D01*
D11*
X36590142Y-182238927D02*
X36723475Y-182048451D01*
X36818713Y-182238927D02*
X36818713Y-181838927D01*
X36818713Y-181838927D02*
X36666332Y-181838927D01*
X36666332Y-181838927D02*
X36628237Y-181857975D01*
X36628237Y-181857975D02*
X36609190Y-181877022D01*
X36609190Y-181877022D02*
X36590142Y-181915118D01*
X36590142Y-181915118D02*
X36590142Y-181972260D01*
X36590142Y-181972260D02*
X36609190Y-182010356D01*
X36609190Y-182010356D02*
X36628237Y-182029403D01*
X36628237Y-182029403D02*
X36666332Y-182048451D01*
X36666332Y-182048451D02*
X36818713Y-182048451D01*
X36437761Y-181877022D02*
X36418713Y-181857975D01*
X36418713Y-181857975D02*
X36380618Y-181838927D01*
X36380618Y-181838927D02*
X36285380Y-181838927D01*
X36285380Y-181838927D02*
X36247285Y-181857975D01*
X36247285Y-181857975D02*
X36228237Y-181877022D01*
X36228237Y-181877022D02*
X36209190Y-181915118D01*
X36209190Y-181915118D02*
X36209190Y-181953213D01*
X36209190Y-181953213D02*
X36228237Y-182010356D01*
X36228237Y-182010356D02*
X36456809Y-182238927D01*
X36456809Y-182238927D02*
X36209190Y-182238927D01*
X35828238Y-182238927D02*
X36056809Y-182238927D01*
X35942523Y-182238927D02*
X35942523Y-181838927D01*
X35942523Y-181838927D02*
X35980619Y-181896070D01*
X35980619Y-181896070D02*
X36018714Y-181934165D01*
X36018714Y-181934165D02*
X36056809Y-181953213D01*
D10*
X40515904Y-183037057D02*
X40468285Y-182989438D01*
X40468285Y-182989438D02*
X40373047Y-182941819D01*
X40373047Y-182941819D02*
X40134952Y-182941819D01*
X40134952Y-182941819D02*
X40039714Y-182989438D01*
X40039714Y-182989438D02*
X39992095Y-183037057D01*
X39992095Y-183037057D02*
X39944476Y-183132295D01*
X39944476Y-183132295D02*
X39944476Y-183227533D01*
X39944476Y-183227533D02*
X39992095Y-183370390D01*
X39992095Y-183370390D02*
X40563523Y-183941819D01*
X40563523Y-183941819D02*
X39944476Y-183941819D01*
X39325428Y-182941819D02*
X39230190Y-182941819D01*
X39230190Y-182941819D02*
X39134952Y-182989438D01*
X39134952Y-182989438D02*
X39087333Y-183037057D01*
X39087333Y-183037057D02*
X39039714Y-183132295D01*
X39039714Y-183132295D02*
X38992095Y-183322771D01*
X38992095Y-183322771D02*
X38992095Y-183560866D01*
X38992095Y-183560866D02*
X39039714Y-183751342D01*
X39039714Y-183751342D02*
X39087333Y-183846580D01*
X39087333Y-183846580D02*
X39134952Y-183894200D01*
X39134952Y-183894200D02*
X39230190Y-183941819D01*
X39230190Y-183941819D02*
X39325428Y-183941819D01*
X39325428Y-183941819D02*
X39420666Y-183894200D01*
X39420666Y-183894200D02*
X39468285Y-183846580D01*
X39468285Y-183846580D02*
X39515904Y-183751342D01*
X39515904Y-183751342D02*
X39563523Y-183560866D01*
X39563523Y-183560866D02*
X39563523Y-183322771D01*
X39563523Y-183322771D02*
X39515904Y-183132295D01*
X39515904Y-183132295D02*
X39468285Y-183037057D01*
X39468285Y-183037057D02*
X39420666Y-182989438D01*
X39420666Y-182989438D02*
X39325428Y-182941819D01*
X38563523Y-183941819D02*
X38563523Y-182941819D01*
X37992095Y-183941819D02*
X38420666Y-183370390D01*
X37992095Y-182941819D02*
X38563523Y-183513247D01*
D11*
X39511142Y-182238927D02*
X39644475Y-182048451D01*
X39739713Y-182238927D02*
X39739713Y-181838927D01*
X39739713Y-181838927D02*
X39587332Y-181838927D01*
X39587332Y-181838927D02*
X39549237Y-181857975D01*
X39549237Y-181857975D02*
X39530190Y-181877022D01*
X39530190Y-181877022D02*
X39511142Y-181915118D01*
X39511142Y-181915118D02*
X39511142Y-181972260D01*
X39511142Y-181972260D02*
X39530190Y-182010356D01*
X39530190Y-182010356D02*
X39549237Y-182029403D01*
X39549237Y-182029403D02*
X39587332Y-182048451D01*
X39587332Y-182048451D02*
X39739713Y-182048451D01*
X39130190Y-182238927D02*
X39358761Y-182238927D01*
X39244475Y-182238927D02*
X39244475Y-181838927D01*
X39244475Y-181838927D02*
X39282571Y-181896070D01*
X39282571Y-181896070D02*
X39320666Y-181934165D01*
X39320666Y-181934165D02*
X39358761Y-181953213D01*
X38901619Y-182010356D02*
X38939714Y-181991308D01*
X38939714Y-181991308D02*
X38958761Y-181972260D01*
X38958761Y-181972260D02*
X38977809Y-181934165D01*
X38977809Y-181934165D02*
X38977809Y-181915118D01*
X38977809Y-181915118D02*
X38958761Y-181877022D01*
X38958761Y-181877022D02*
X38939714Y-181857975D01*
X38939714Y-181857975D02*
X38901619Y-181838927D01*
X38901619Y-181838927D02*
X38825428Y-181838927D01*
X38825428Y-181838927D02*
X38787333Y-181857975D01*
X38787333Y-181857975D02*
X38768285Y-181877022D01*
X38768285Y-181877022D02*
X38749238Y-181915118D01*
X38749238Y-181915118D02*
X38749238Y-181934165D01*
X38749238Y-181934165D02*
X38768285Y-181972260D01*
X38768285Y-181972260D02*
X38787333Y-181991308D01*
X38787333Y-181991308D02*
X38825428Y-182010356D01*
X38825428Y-182010356D02*
X38901619Y-182010356D01*
X38901619Y-182010356D02*
X38939714Y-182029403D01*
X38939714Y-182029403D02*
X38958761Y-182048451D01*
X38958761Y-182048451D02*
X38977809Y-182086546D01*
X38977809Y-182086546D02*
X38977809Y-182162737D01*
X38977809Y-182162737D02*
X38958761Y-182200832D01*
X38958761Y-182200832D02*
X38939714Y-182219880D01*
X38939714Y-182219880D02*
X38901619Y-182238927D01*
X38901619Y-182238927D02*
X38825428Y-182238927D01*
X38825428Y-182238927D02*
X38787333Y-182219880D01*
X38787333Y-182219880D02*
X38768285Y-182200832D01*
X38768285Y-182200832D02*
X38749238Y-182162737D01*
X38749238Y-182162737D02*
X38749238Y-182086546D01*
X38749238Y-182086546D02*
X38768285Y-182048451D01*
X38768285Y-182048451D02*
X38787333Y-182029403D01*
X38787333Y-182029403D02*
X38825428Y-182010356D01*
D10*
X38161285Y-180020819D02*
X38066047Y-180020819D01*
X38066047Y-180020819D02*
X37970809Y-180068438D01*
X37970809Y-180068438D02*
X37923190Y-180116057D01*
X37923190Y-180116057D02*
X37875571Y-180211295D01*
X37875571Y-180211295D02*
X37827952Y-180401771D01*
X37827952Y-180401771D02*
X37827952Y-180639866D01*
X37827952Y-180639866D02*
X37875571Y-180830342D01*
X37875571Y-180830342D02*
X37923190Y-180925580D01*
X37923190Y-180925580D02*
X37970809Y-180973200D01*
X37970809Y-180973200D02*
X38066047Y-181020819D01*
X38066047Y-181020819D02*
X38161285Y-181020819D01*
X38161285Y-181020819D02*
X38256523Y-180973200D01*
X38256523Y-180973200D02*
X38304142Y-180925580D01*
X38304142Y-180925580D02*
X38351761Y-180830342D01*
X38351761Y-180830342D02*
X38399380Y-180639866D01*
X38399380Y-180639866D02*
X38399380Y-180401771D01*
X38399380Y-180401771D02*
X38351761Y-180211295D01*
X38351761Y-180211295D02*
X38304142Y-180116057D01*
X38304142Y-180116057D02*
X38256523Y-180068438D01*
X38256523Y-180068438D02*
X38161285Y-180020819D01*
X37399380Y-180925580D02*
X37351761Y-180973200D01*
X37351761Y-180973200D02*
X37399380Y-181020819D01*
X37399380Y-181020819D02*
X37446999Y-180973200D01*
X37446999Y-180973200D02*
X37399380Y-180925580D01*
X37399380Y-180925580D02*
X37399380Y-181020819D01*
X36399381Y-181020819D02*
X36970809Y-181020819D01*
X36685095Y-181020819D02*
X36685095Y-180020819D01*
X36685095Y-180020819D02*
X36780333Y-180163676D01*
X36780333Y-180163676D02*
X36875571Y-180258914D01*
X36875571Y-180258914D02*
X36970809Y-180306533D01*
X35970809Y-180354152D02*
X35970809Y-181354152D01*
X35494619Y-180877961D02*
X35447000Y-180973200D01*
X35447000Y-180973200D02*
X35351762Y-181020819D01*
X35970809Y-180877961D02*
X35923190Y-180973200D01*
X35923190Y-180973200D02*
X35827952Y-181020819D01*
X35827952Y-181020819D02*
X35637476Y-181020819D01*
X35637476Y-181020819D02*
X35542238Y-180973200D01*
X35542238Y-180973200D02*
X35494619Y-180877961D01*
X35494619Y-180877961D02*
X35494619Y-180354152D01*
X34589857Y-180497009D02*
X34923190Y-180497009D01*
X34923190Y-181020819D02*
X34923190Y-180020819D01*
X34923190Y-180020819D02*
X34447000Y-180020819D01*
D11*
X36704142Y-179279832D02*
X36723190Y-179298880D01*
X36723190Y-179298880D02*
X36780332Y-179317927D01*
X36780332Y-179317927D02*
X36818428Y-179317927D01*
X36818428Y-179317927D02*
X36875571Y-179298880D01*
X36875571Y-179298880D02*
X36913666Y-179260784D01*
X36913666Y-179260784D02*
X36932713Y-179222689D01*
X36932713Y-179222689D02*
X36951761Y-179146499D01*
X36951761Y-179146499D02*
X36951761Y-179089356D01*
X36951761Y-179089356D02*
X36932713Y-179013165D01*
X36932713Y-179013165D02*
X36913666Y-178975070D01*
X36913666Y-178975070D02*
X36875571Y-178936975D01*
X36875571Y-178936975D02*
X36818428Y-178917927D01*
X36818428Y-178917927D02*
X36780332Y-178917927D01*
X36780332Y-178917927D02*
X36723190Y-178936975D01*
X36723190Y-178936975D02*
X36704142Y-178956022D01*
X36323190Y-179317927D02*
X36551761Y-179317927D01*
X36437475Y-179317927D02*
X36437475Y-178917927D01*
X36437475Y-178917927D02*
X36475571Y-178975070D01*
X36475571Y-178975070D02*
X36513666Y-179013165D01*
X36513666Y-179013165D02*
X36551761Y-179032213D01*
X36170809Y-178956022D02*
X36151761Y-178936975D01*
X36151761Y-178936975D02*
X36113666Y-178917927D01*
X36113666Y-178917927D02*
X36018428Y-178917927D01*
X36018428Y-178917927D02*
X35980333Y-178936975D01*
X35980333Y-178936975D02*
X35961285Y-178956022D01*
X35961285Y-178956022D02*
X35942238Y-178994118D01*
X35942238Y-178994118D02*
X35942238Y-179032213D01*
X35942238Y-179032213D02*
X35961285Y-179089356D01*
X35961285Y-179089356D02*
X36189857Y-179317927D01*
X36189857Y-179317927D02*
X35942238Y-179317927D01*
D10*
X58593999Y-149847104D02*
X58117809Y-149847104D01*
X58689237Y-150132819D02*
X58355904Y-149132819D01*
X58355904Y-149132819D02*
X58022571Y-150132819D01*
X57689237Y-150132819D02*
X57689237Y-149132819D01*
X57689237Y-149132819D02*
X57355904Y-149847104D01*
X57355904Y-149847104D02*
X57022571Y-149132819D01*
X57022571Y-149132819D02*
X57022571Y-150132819D01*
X56593999Y-150085200D02*
X56451142Y-150132819D01*
X56451142Y-150132819D02*
X56213047Y-150132819D01*
X56213047Y-150132819D02*
X56117809Y-150085200D01*
X56117809Y-150085200D02*
X56070190Y-150037580D01*
X56070190Y-150037580D02*
X56022571Y-149942342D01*
X56022571Y-149942342D02*
X56022571Y-149847104D01*
X56022571Y-149847104D02*
X56070190Y-149751866D01*
X56070190Y-149751866D02*
X56117809Y-149704247D01*
X56117809Y-149704247D02*
X56213047Y-149656628D01*
X56213047Y-149656628D02*
X56403523Y-149609009D01*
X56403523Y-149609009D02*
X56498761Y-149561390D01*
X56498761Y-149561390D02*
X56546380Y-149513771D01*
X56546380Y-149513771D02*
X56593999Y-149418533D01*
X56593999Y-149418533D02*
X56593999Y-149323295D01*
X56593999Y-149323295D02*
X56546380Y-149228057D01*
X56546380Y-149228057D02*
X56498761Y-149180438D01*
X56498761Y-149180438D02*
X56403523Y-149132819D01*
X56403523Y-149132819D02*
X56165428Y-149132819D01*
X56165428Y-149132819D02*
X56022571Y-149180438D01*
X55070190Y-150132819D02*
X55641618Y-150132819D01*
X55355904Y-150132819D02*
X55355904Y-149132819D01*
X55355904Y-149132819D02*
X55451142Y-149275676D01*
X55451142Y-149275676D02*
X55546380Y-149370914D01*
X55546380Y-149370914D02*
X55641618Y-149418533D01*
X54117809Y-150132819D02*
X54689237Y-150132819D01*
X54403523Y-150132819D02*
X54403523Y-149132819D01*
X54403523Y-149132819D02*
X54498761Y-149275676D01*
X54498761Y-149275676D02*
X54593999Y-149370914D01*
X54593999Y-149370914D02*
X54689237Y-149418533D01*
X53165428Y-150132819D02*
X53736856Y-150132819D01*
X53451142Y-150132819D02*
X53451142Y-149132819D01*
X53451142Y-149132819D02*
X53546380Y-149275676D01*
X53546380Y-149275676D02*
X53641618Y-149370914D01*
X53641618Y-149370914D02*
X53736856Y-149418533D01*
X52832094Y-149132819D02*
X52165428Y-149132819D01*
X52165428Y-149132819D02*
X52593999Y-150132819D01*
X51784475Y-149751866D02*
X51022571Y-149751866D01*
X50070190Y-149132819D02*
X50546380Y-149132819D01*
X50546380Y-149132819D02*
X50593999Y-149609009D01*
X50593999Y-149609009D02*
X50546380Y-149561390D01*
X50546380Y-149561390D02*
X50451142Y-149513771D01*
X50451142Y-149513771D02*
X50213047Y-149513771D01*
X50213047Y-149513771D02*
X50117809Y-149561390D01*
X50117809Y-149561390D02*
X50070190Y-149609009D01*
X50070190Y-149609009D02*
X50022571Y-149704247D01*
X50022571Y-149704247D02*
X50022571Y-149942342D01*
X50022571Y-149942342D02*
X50070190Y-150037580D01*
X50070190Y-150037580D02*
X50117809Y-150085200D01*
X50117809Y-150085200D02*
X50213047Y-150132819D01*
X50213047Y-150132819D02*
X50451142Y-150132819D01*
X50451142Y-150132819D02*
X50546380Y-150085200D01*
X50546380Y-150085200D02*
X50593999Y-150037580D01*
X49593999Y-150037580D02*
X49546380Y-150085200D01*
X49546380Y-150085200D02*
X49593999Y-150132819D01*
X49593999Y-150132819D02*
X49641618Y-150085200D01*
X49641618Y-150085200D02*
X49593999Y-150037580D01*
X49593999Y-150037580D02*
X49593999Y-150132819D01*
X48927333Y-149132819D02*
X48832095Y-149132819D01*
X48832095Y-149132819D02*
X48736857Y-149180438D01*
X48736857Y-149180438D02*
X48689238Y-149228057D01*
X48689238Y-149228057D02*
X48641619Y-149323295D01*
X48641619Y-149323295D02*
X48594000Y-149513771D01*
X48594000Y-149513771D02*
X48594000Y-149751866D01*
X48594000Y-149751866D02*
X48641619Y-149942342D01*
X48641619Y-149942342D02*
X48689238Y-150037580D01*
X48689238Y-150037580D02*
X48736857Y-150085200D01*
X48736857Y-150085200D02*
X48832095Y-150132819D01*
X48832095Y-150132819D02*
X48927333Y-150132819D01*
X48927333Y-150132819D02*
X49022571Y-150085200D01*
X49022571Y-150085200D02*
X49070190Y-150037580D01*
X49070190Y-150037580D02*
X49117809Y-149942342D01*
X49117809Y-149942342D02*
X49165428Y-149751866D01*
X49165428Y-149751866D02*
X49165428Y-149513771D01*
X49165428Y-149513771D02*
X49117809Y-149323295D01*
X49117809Y-149323295D02*
X49070190Y-149228057D01*
X49070190Y-149228057D02*
X49022571Y-149180438D01*
X49022571Y-149180438D02*
X48927333Y-149132819D01*
D13*
X53157855Y-153568476D02*
X53805474Y-153568476D01*
X53805474Y-153568476D02*
X53881664Y-153606571D01*
X53881664Y-153606571D02*
X53919760Y-153644666D01*
X53919760Y-153644666D02*
X53957855Y-153720857D01*
X53957855Y-153720857D02*
X53957855Y-153873238D01*
X53957855Y-153873238D02*
X53919760Y-153949428D01*
X53919760Y-153949428D02*
X53881664Y-153987523D01*
X53881664Y-153987523D02*
X53805474Y-154025619D01*
X53805474Y-154025619D02*
X53157855Y-154025619D01*
X53157855Y-154749428D02*
X53157855Y-154597047D01*
X53157855Y-154597047D02*
X53195950Y-154520856D01*
X53195950Y-154520856D02*
X53234045Y-154482761D01*
X53234045Y-154482761D02*
X53348331Y-154406571D01*
X53348331Y-154406571D02*
X53500712Y-154368475D01*
X53500712Y-154368475D02*
X53805474Y-154368475D01*
X53805474Y-154368475D02*
X53881664Y-154406571D01*
X53881664Y-154406571D02*
X53919760Y-154444666D01*
X53919760Y-154444666D02*
X53957855Y-154520856D01*
X53957855Y-154520856D02*
X53957855Y-154673237D01*
X53957855Y-154673237D02*
X53919760Y-154749428D01*
X53919760Y-154749428D02*
X53881664Y-154787523D01*
X53881664Y-154787523D02*
X53805474Y-154825618D01*
X53805474Y-154825618D02*
X53614998Y-154825618D01*
X53614998Y-154825618D02*
X53538807Y-154787523D01*
X53538807Y-154787523D02*
X53500712Y-154749428D01*
X53500712Y-154749428D02*
X53462617Y-154673237D01*
X53462617Y-154673237D02*
X53462617Y-154520856D01*
X53462617Y-154520856D02*
X53500712Y-154444666D01*
X53500712Y-154444666D02*
X53538807Y-154406571D01*
X53538807Y-154406571D02*
X53614998Y-154368475D01*
D10*
X36118285Y-152522819D02*
X36023047Y-152522819D01*
X36023047Y-152522819D02*
X35927809Y-152570438D01*
X35927809Y-152570438D02*
X35880190Y-152618057D01*
X35880190Y-152618057D02*
X35832571Y-152713295D01*
X35832571Y-152713295D02*
X35784952Y-152903771D01*
X35784952Y-152903771D02*
X35784952Y-153141866D01*
X35784952Y-153141866D02*
X35832571Y-153332342D01*
X35832571Y-153332342D02*
X35880190Y-153427580D01*
X35880190Y-153427580D02*
X35927809Y-153475200D01*
X35927809Y-153475200D02*
X36023047Y-153522819D01*
X36023047Y-153522819D02*
X36118285Y-153522819D01*
X36118285Y-153522819D02*
X36213523Y-153475200D01*
X36213523Y-153475200D02*
X36261142Y-153427580D01*
X36261142Y-153427580D02*
X36308761Y-153332342D01*
X36308761Y-153332342D02*
X36356380Y-153141866D01*
X36356380Y-153141866D02*
X36356380Y-152903771D01*
X36356380Y-152903771D02*
X36308761Y-152713295D01*
X36308761Y-152713295D02*
X36261142Y-152618057D01*
X36261142Y-152618057D02*
X36213523Y-152570438D01*
X36213523Y-152570438D02*
X36118285Y-152522819D01*
X35356380Y-153427580D02*
X35308761Y-153475200D01*
X35308761Y-153475200D02*
X35356380Y-153522819D01*
X35356380Y-153522819D02*
X35403999Y-153475200D01*
X35403999Y-153475200D02*
X35356380Y-153427580D01*
X35356380Y-153427580D02*
X35356380Y-153522819D01*
X34356381Y-153522819D02*
X34927809Y-153522819D01*
X34642095Y-153522819D02*
X34642095Y-152522819D01*
X34642095Y-152522819D02*
X34737333Y-152665676D01*
X34737333Y-152665676D02*
X34832571Y-152760914D01*
X34832571Y-152760914D02*
X34927809Y-152808533D01*
X33927809Y-152856152D02*
X33927809Y-153856152D01*
X33451619Y-153379961D02*
X33404000Y-153475200D01*
X33404000Y-153475200D02*
X33308762Y-153522819D01*
X33927809Y-153379961D02*
X33880190Y-153475200D01*
X33880190Y-153475200D02*
X33784952Y-153522819D01*
X33784952Y-153522819D02*
X33594476Y-153522819D01*
X33594476Y-153522819D02*
X33499238Y-153475200D01*
X33499238Y-153475200D02*
X33451619Y-153379961D01*
X33451619Y-153379961D02*
X33451619Y-152856152D01*
X32546857Y-152999009D02*
X32880190Y-152999009D01*
X32880190Y-153522819D02*
X32880190Y-152522819D01*
X32880190Y-152522819D02*
X32404000Y-152522819D01*
D11*
X34661142Y-151781832D02*
X34680190Y-151800880D01*
X34680190Y-151800880D02*
X34737332Y-151819927D01*
X34737332Y-151819927D02*
X34775428Y-151819927D01*
X34775428Y-151819927D02*
X34832571Y-151800880D01*
X34832571Y-151800880D02*
X34870666Y-151762784D01*
X34870666Y-151762784D02*
X34889713Y-151724689D01*
X34889713Y-151724689D02*
X34908761Y-151648499D01*
X34908761Y-151648499D02*
X34908761Y-151591356D01*
X34908761Y-151591356D02*
X34889713Y-151515165D01*
X34889713Y-151515165D02*
X34870666Y-151477070D01*
X34870666Y-151477070D02*
X34832571Y-151438975D01*
X34832571Y-151438975D02*
X34775428Y-151419927D01*
X34775428Y-151419927D02*
X34737332Y-151419927D01*
X34737332Y-151419927D02*
X34680190Y-151438975D01*
X34680190Y-151438975D02*
X34661142Y-151458022D01*
X34280190Y-151819927D02*
X34508761Y-151819927D01*
X34394475Y-151819927D02*
X34394475Y-151419927D01*
X34394475Y-151419927D02*
X34432571Y-151477070D01*
X34432571Y-151477070D02*
X34470666Y-151515165D01*
X34470666Y-151515165D02*
X34508761Y-151534213D01*
X33899238Y-151819927D02*
X34127809Y-151819927D01*
X34013523Y-151819927D02*
X34013523Y-151419927D01*
X34013523Y-151419927D02*
X34051619Y-151477070D01*
X34051619Y-151477070D02*
X34089714Y-151515165D01*
X34089714Y-151515165D02*
X34127809Y-151534213D01*
D10*
X40578904Y-178653057D02*
X40531285Y-178605438D01*
X40531285Y-178605438D02*
X40436047Y-178557819D01*
X40436047Y-178557819D02*
X40197952Y-178557819D01*
X40197952Y-178557819D02*
X40102714Y-178605438D01*
X40102714Y-178605438D02*
X40055095Y-178653057D01*
X40055095Y-178653057D02*
X40007476Y-178748295D01*
X40007476Y-178748295D02*
X40007476Y-178843533D01*
X40007476Y-178843533D02*
X40055095Y-178986390D01*
X40055095Y-178986390D02*
X40626523Y-179557819D01*
X40626523Y-179557819D02*
X40007476Y-179557819D01*
X39388428Y-178557819D02*
X39293190Y-178557819D01*
X39293190Y-178557819D02*
X39197952Y-178605438D01*
X39197952Y-178605438D02*
X39150333Y-178653057D01*
X39150333Y-178653057D02*
X39102714Y-178748295D01*
X39102714Y-178748295D02*
X39055095Y-178938771D01*
X39055095Y-178938771D02*
X39055095Y-179176866D01*
X39055095Y-179176866D02*
X39102714Y-179367342D01*
X39102714Y-179367342D02*
X39150333Y-179462580D01*
X39150333Y-179462580D02*
X39197952Y-179510200D01*
X39197952Y-179510200D02*
X39293190Y-179557819D01*
X39293190Y-179557819D02*
X39388428Y-179557819D01*
X39388428Y-179557819D02*
X39483666Y-179510200D01*
X39483666Y-179510200D02*
X39531285Y-179462580D01*
X39531285Y-179462580D02*
X39578904Y-179367342D01*
X39578904Y-179367342D02*
X39626523Y-179176866D01*
X39626523Y-179176866D02*
X39626523Y-178938771D01*
X39626523Y-178938771D02*
X39578904Y-178748295D01*
X39578904Y-178748295D02*
X39531285Y-178653057D01*
X39531285Y-178653057D02*
X39483666Y-178605438D01*
X39483666Y-178605438D02*
X39388428Y-178557819D01*
X38626523Y-179557819D02*
X38626523Y-178557819D01*
X38055095Y-179557819D02*
X38483666Y-178986390D01*
X38055095Y-178557819D02*
X38626523Y-179129247D01*
D11*
X39574142Y-180714927D02*
X39707475Y-180524451D01*
X39802713Y-180714927D02*
X39802713Y-180314927D01*
X39802713Y-180314927D02*
X39650332Y-180314927D01*
X39650332Y-180314927D02*
X39612237Y-180333975D01*
X39612237Y-180333975D02*
X39593190Y-180353022D01*
X39593190Y-180353022D02*
X39574142Y-180391118D01*
X39574142Y-180391118D02*
X39574142Y-180448260D01*
X39574142Y-180448260D02*
X39593190Y-180486356D01*
X39593190Y-180486356D02*
X39612237Y-180505403D01*
X39612237Y-180505403D02*
X39650332Y-180524451D01*
X39650332Y-180524451D02*
X39802713Y-180524451D01*
X39193190Y-180714927D02*
X39421761Y-180714927D01*
X39307475Y-180714927D02*
X39307475Y-180314927D01*
X39307475Y-180314927D02*
X39345571Y-180372070D01*
X39345571Y-180372070D02*
X39383666Y-180410165D01*
X39383666Y-180410165D02*
X39421761Y-180429213D01*
X39002714Y-180714927D02*
X38926523Y-180714927D01*
X38926523Y-180714927D02*
X38888428Y-180695880D01*
X38888428Y-180695880D02*
X38869380Y-180676832D01*
X38869380Y-180676832D02*
X38831285Y-180619689D01*
X38831285Y-180619689D02*
X38812238Y-180543499D01*
X38812238Y-180543499D02*
X38812238Y-180391118D01*
X38812238Y-180391118D02*
X38831285Y-180353022D01*
X38831285Y-180353022D02*
X38850333Y-180333975D01*
X38850333Y-180333975D02*
X38888428Y-180314927D01*
X38888428Y-180314927D02*
X38964619Y-180314927D01*
X38964619Y-180314927D02*
X39002714Y-180333975D01*
X39002714Y-180333975D02*
X39021761Y-180353022D01*
X39021761Y-180353022D02*
X39040809Y-180391118D01*
X39040809Y-180391118D02*
X39040809Y-180486356D01*
X39040809Y-180486356D02*
X39021761Y-180524451D01*
X39021761Y-180524451D02*
X39002714Y-180543499D01*
X39002714Y-180543499D02*
X38964619Y-180562546D01*
X38964619Y-180562546D02*
X38888428Y-180562546D01*
X38888428Y-180562546D02*
X38850333Y-180543499D01*
X38850333Y-180543499D02*
X38831285Y-180524451D01*
X38831285Y-180524451D02*
X38812238Y-180486356D01*
D10*
X34329524Y-182251819D02*
X34329524Y-181251819D01*
X34329524Y-181251819D02*
X34091429Y-181251819D01*
X34091429Y-181251819D02*
X33948572Y-181299438D01*
X33948572Y-181299438D02*
X33853334Y-181394676D01*
X33853334Y-181394676D02*
X33805715Y-181489914D01*
X33805715Y-181489914D02*
X33758096Y-181680390D01*
X33758096Y-181680390D02*
X33758096Y-181823247D01*
X33758096Y-181823247D02*
X33805715Y-182013723D01*
X33805715Y-182013723D02*
X33853334Y-182108961D01*
X33853334Y-182108961D02*
X33948572Y-182204200D01*
X33948572Y-182204200D02*
X34091429Y-182251819D01*
X34091429Y-182251819D02*
X34329524Y-182251819D01*
X33567620Y-182347057D02*
X32805715Y-182347057D01*
X32615238Y-182204200D02*
X32472381Y-182251819D01*
X32472381Y-182251819D02*
X32234286Y-182251819D01*
X32234286Y-182251819D02*
X32139048Y-182204200D01*
X32139048Y-182204200D02*
X32091429Y-182156580D01*
X32091429Y-182156580D02*
X32043810Y-182061342D01*
X32043810Y-182061342D02*
X32043810Y-181966104D01*
X32043810Y-181966104D02*
X32091429Y-181870866D01*
X32091429Y-181870866D02*
X32139048Y-181823247D01*
X32139048Y-181823247D02*
X32234286Y-181775628D01*
X32234286Y-181775628D02*
X32424762Y-181728009D01*
X32424762Y-181728009D02*
X32520000Y-181680390D01*
X32520000Y-181680390D02*
X32567619Y-181632771D01*
X32567619Y-181632771D02*
X32615238Y-181537533D01*
X32615238Y-181537533D02*
X32615238Y-181442295D01*
X32615238Y-181442295D02*
X32567619Y-181347057D01*
X32567619Y-181347057D02*
X32520000Y-181299438D01*
X32520000Y-181299438D02*
X32424762Y-181251819D01*
X32424762Y-181251819D02*
X32186667Y-181251819D01*
X32186667Y-181251819D02*
X32043810Y-181299438D01*
X31186667Y-182204200D02*
X31281905Y-182251819D01*
X31281905Y-182251819D02*
X31472381Y-182251819D01*
X31472381Y-182251819D02*
X31567619Y-182204200D01*
X31567619Y-182204200D02*
X31615238Y-182156580D01*
X31615238Y-182156580D02*
X31662857Y-182061342D01*
X31662857Y-182061342D02*
X31662857Y-181775628D01*
X31662857Y-181775628D02*
X31615238Y-181680390D01*
X31615238Y-181680390D02*
X31567619Y-181632771D01*
X31567619Y-181632771D02*
X31472381Y-181585152D01*
X31472381Y-181585152D02*
X31281905Y-181585152D01*
X31281905Y-181585152D02*
X31186667Y-181632771D01*
X30758095Y-182251819D02*
X30758095Y-181251819D01*
X30329524Y-182251819D02*
X30329524Y-181728009D01*
X30329524Y-181728009D02*
X30377143Y-181632771D01*
X30377143Y-181632771D02*
X30472381Y-181585152D01*
X30472381Y-181585152D02*
X30615238Y-181585152D01*
X30615238Y-181585152D02*
X30710476Y-181632771D01*
X30710476Y-181632771D02*
X30758095Y-181680390D01*
X29710476Y-182251819D02*
X29805714Y-182204200D01*
X29805714Y-182204200D02*
X29853333Y-182156580D01*
X29853333Y-182156580D02*
X29900952Y-182061342D01*
X29900952Y-182061342D02*
X29900952Y-181775628D01*
X29900952Y-181775628D02*
X29853333Y-181680390D01*
X29853333Y-181680390D02*
X29805714Y-181632771D01*
X29805714Y-181632771D02*
X29710476Y-181585152D01*
X29710476Y-181585152D02*
X29567619Y-181585152D01*
X29567619Y-181585152D02*
X29472381Y-181632771D01*
X29472381Y-181632771D02*
X29424762Y-181680390D01*
X29424762Y-181680390D02*
X29377143Y-181775628D01*
X29377143Y-181775628D02*
X29377143Y-182061342D01*
X29377143Y-182061342D02*
X29424762Y-182156580D01*
X29424762Y-182156580D02*
X29472381Y-182204200D01*
X29472381Y-182204200D02*
X29567619Y-182251819D01*
X29567619Y-182251819D02*
X29710476Y-182251819D01*
X29091428Y-181585152D02*
X28710476Y-181585152D01*
X28948571Y-181251819D02*
X28948571Y-182108961D01*
X28948571Y-182108961D02*
X28900952Y-182204200D01*
X28900952Y-182204200D02*
X28805714Y-182251819D01*
X28805714Y-182251819D02*
X28710476Y-182251819D01*
X28519999Y-181585152D02*
X28139047Y-181585152D01*
X28377142Y-181251819D02*
X28377142Y-182108961D01*
X28377142Y-182108961D02*
X28329523Y-182204200D01*
X28329523Y-182204200D02*
X28234285Y-182251819D01*
X28234285Y-182251819D02*
X28139047Y-182251819D01*
X27805713Y-182251819D02*
X27805713Y-181251819D01*
X27710475Y-181870866D02*
X27424761Y-182251819D01*
X27424761Y-181585152D02*
X27805713Y-181966104D01*
X27091427Y-181585152D02*
X26853332Y-182251819D01*
X26615237Y-181585152D02*
X26853332Y-182251819D01*
X26853332Y-182251819D02*
X26948570Y-182489914D01*
X26948570Y-182489914D02*
X26996189Y-182537533D01*
X26996189Y-182537533D02*
X27091427Y-182585152D01*
X31258094Y-177151819D02*
X31258094Y-176151819D01*
X31258094Y-176151819D02*
X31019999Y-176151819D01*
X31019999Y-176151819D02*
X30877142Y-176199438D01*
X30877142Y-176199438D02*
X30781904Y-176294676D01*
X30781904Y-176294676D02*
X30734285Y-176389914D01*
X30734285Y-176389914D02*
X30686666Y-176580390D01*
X30686666Y-176580390D02*
X30686666Y-176723247D01*
X30686666Y-176723247D02*
X30734285Y-176913723D01*
X30734285Y-176913723D02*
X30781904Y-177008961D01*
X30781904Y-177008961D02*
X30877142Y-177104200D01*
X30877142Y-177104200D02*
X31019999Y-177151819D01*
X31019999Y-177151819D02*
X31258094Y-177151819D01*
X30353332Y-176151819D02*
X29734285Y-176151819D01*
X29734285Y-176151819D02*
X30067618Y-176532771D01*
X30067618Y-176532771D02*
X29924761Y-176532771D01*
X29924761Y-176532771D02*
X29829523Y-176580390D01*
X29829523Y-176580390D02*
X29781904Y-176628009D01*
X29781904Y-176628009D02*
X29734285Y-176723247D01*
X29734285Y-176723247D02*
X29734285Y-176961342D01*
X29734285Y-176961342D02*
X29781904Y-177056580D01*
X29781904Y-177056580D02*
X29829523Y-177104200D01*
X29829523Y-177104200D02*
X29924761Y-177151819D01*
X29924761Y-177151819D02*
X30210475Y-177151819D01*
X30210475Y-177151819D02*
X30305713Y-177104200D01*
X30305713Y-177104200D02*
X30353332Y-177056580D01*
X48335594Y-190009819D02*
X48335594Y-189009819D01*
X47859404Y-190009819D02*
X47859404Y-189009819D01*
X47859404Y-189009819D02*
X47287976Y-190009819D01*
X47287976Y-190009819D02*
X47287976Y-189009819D01*
X46859404Y-189724104D02*
X46383214Y-189724104D01*
X46954642Y-190009819D02*
X46621309Y-189009819D01*
X46621309Y-189009819D02*
X46287976Y-190009819D01*
X46002261Y-189105057D02*
X45954642Y-189057438D01*
X45954642Y-189057438D02*
X45859404Y-189009819D01*
X45859404Y-189009819D02*
X45621309Y-189009819D01*
X45621309Y-189009819D02*
X45526071Y-189057438D01*
X45526071Y-189057438D02*
X45478452Y-189105057D01*
X45478452Y-189105057D02*
X45430833Y-189200295D01*
X45430833Y-189200295D02*
X45430833Y-189295533D01*
X45430833Y-189295533D02*
X45478452Y-189438390D01*
X45478452Y-189438390D02*
X46049880Y-190009819D01*
X46049880Y-190009819D02*
X45430833Y-190009819D01*
X44478452Y-190009819D02*
X45049880Y-190009819D01*
X44764166Y-190009819D02*
X44764166Y-189009819D01*
X44764166Y-189009819D02*
X44859404Y-189152676D01*
X44859404Y-189152676D02*
X44954642Y-189247914D01*
X44954642Y-189247914D02*
X45049880Y-189295533D01*
X44002261Y-190009819D02*
X43811785Y-190009819D01*
X43811785Y-190009819D02*
X43716547Y-189962200D01*
X43716547Y-189962200D02*
X43668928Y-189914580D01*
X43668928Y-189914580D02*
X43573690Y-189771723D01*
X43573690Y-189771723D02*
X43526071Y-189581247D01*
X43526071Y-189581247D02*
X43526071Y-189200295D01*
X43526071Y-189200295D02*
X43573690Y-189105057D01*
X43573690Y-189105057D02*
X43621309Y-189057438D01*
X43621309Y-189057438D02*
X43716547Y-189009819D01*
X43716547Y-189009819D02*
X43907023Y-189009819D01*
X43907023Y-189009819D02*
X44002261Y-189057438D01*
X44002261Y-189057438D02*
X44049880Y-189105057D01*
X44049880Y-189105057D02*
X44097499Y-189200295D01*
X44097499Y-189200295D02*
X44097499Y-189438390D01*
X44097499Y-189438390D02*
X44049880Y-189533628D01*
X44049880Y-189533628D02*
X44002261Y-189581247D01*
X44002261Y-189581247D02*
X43907023Y-189628866D01*
X43907023Y-189628866D02*
X43716547Y-189628866D01*
X43716547Y-189628866D02*
X43621309Y-189581247D01*
X43621309Y-189581247D02*
X43573690Y-189533628D01*
X43573690Y-189533628D02*
X43526071Y-189438390D01*
X43145118Y-189724104D02*
X42668928Y-189724104D01*
X43240356Y-190009819D02*
X42907023Y-189009819D01*
X42907023Y-189009819D02*
X42573690Y-190009819D01*
X42335594Y-190009819D02*
X41811785Y-189343152D01*
X42335594Y-189343152D02*
X41811785Y-190009819D01*
X41430832Y-190009819D02*
X41430832Y-189009819D01*
X41430832Y-189009819D02*
X41192737Y-189009819D01*
X41192737Y-189009819D02*
X41049880Y-189057438D01*
X41049880Y-189057438D02*
X40954642Y-189152676D01*
X40954642Y-189152676D02*
X40907023Y-189247914D01*
X40907023Y-189247914D02*
X40859404Y-189438390D01*
X40859404Y-189438390D02*
X40859404Y-189581247D01*
X40859404Y-189581247D02*
X40907023Y-189771723D01*
X40907023Y-189771723D02*
X40954642Y-189866961D01*
X40954642Y-189866961D02*
X41049880Y-189962200D01*
X41049880Y-189962200D02*
X41192737Y-190009819D01*
X41192737Y-190009819D02*
X41430832Y-190009819D01*
X39859404Y-189914580D02*
X39907023Y-189962200D01*
X39907023Y-189962200D02*
X40049880Y-190009819D01*
X40049880Y-190009819D02*
X40145118Y-190009819D01*
X40145118Y-190009819D02*
X40287975Y-189962200D01*
X40287975Y-189962200D02*
X40383213Y-189866961D01*
X40383213Y-189866961D02*
X40430832Y-189771723D01*
X40430832Y-189771723D02*
X40478451Y-189581247D01*
X40478451Y-189581247D02*
X40478451Y-189438390D01*
X40478451Y-189438390D02*
X40430832Y-189247914D01*
X40430832Y-189247914D02*
X40383213Y-189152676D01*
X40383213Y-189152676D02*
X40287975Y-189057438D01*
X40287975Y-189057438D02*
X40145118Y-189009819D01*
X40145118Y-189009819D02*
X40049880Y-189009819D01*
X40049880Y-189009819D02*
X39907023Y-189057438D01*
X39907023Y-189057438D02*
X39859404Y-189105057D01*
X39430832Y-190009819D02*
X39430832Y-189009819D01*
X39430832Y-189009819D02*
X38859404Y-190009819D01*
X38859404Y-190009819D02*
X38859404Y-189009819D01*
D11*
X43902261Y-191736927D02*
X43902261Y-192060737D01*
X43902261Y-192060737D02*
X43883214Y-192098832D01*
X43883214Y-192098832D02*
X43864166Y-192117880D01*
X43864166Y-192117880D02*
X43826071Y-192136927D01*
X43826071Y-192136927D02*
X43749880Y-192136927D01*
X43749880Y-192136927D02*
X43711785Y-192117880D01*
X43711785Y-192117880D02*
X43692738Y-192098832D01*
X43692738Y-192098832D02*
X43673690Y-192060737D01*
X43673690Y-192060737D02*
X43673690Y-191736927D01*
X43464166Y-192136927D02*
X43387975Y-192136927D01*
X43387975Y-192136927D02*
X43349880Y-192117880D01*
X43349880Y-192117880D02*
X43330832Y-192098832D01*
X43330832Y-192098832D02*
X43292737Y-192041689D01*
X43292737Y-192041689D02*
X43273690Y-191965499D01*
X43273690Y-191965499D02*
X43273690Y-191813118D01*
X43273690Y-191813118D02*
X43292737Y-191775022D01*
X43292737Y-191775022D02*
X43311785Y-191755975D01*
X43311785Y-191755975D02*
X43349880Y-191736927D01*
X43349880Y-191736927D02*
X43426071Y-191736927D01*
X43426071Y-191736927D02*
X43464166Y-191755975D01*
X43464166Y-191755975D02*
X43483213Y-191775022D01*
X43483213Y-191775022D02*
X43502261Y-191813118D01*
X43502261Y-191813118D02*
X43502261Y-191908356D01*
X43502261Y-191908356D02*
X43483213Y-191946451D01*
X43483213Y-191946451D02*
X43464166Y-191965499D01*
X43464166Y-191965499D02*
X43426071Y-191984546D01*
X43426071Y-191984546D02*
X43349880Y-191984546D01*
X43349880Y-191984546D02*
X43311785Y-191965499D01*
X43311785Y-191965499D02*
X43292737Y-191946451D01*
X43292737Y-191946451D02*
X43273690Y-191908356D01*
D10*
X31607737Y-180359104D02*
X31131547Y-180359104D01*
X31702975Y-180644819D02*
X31369642Y-179644819D01*
X31369642Y-179644819D02*
X31036309Y-180644819D01*
X30512499Y-179644819D02*
X30322023Y-179644819D01*
X30322023Y-179644819D02*
X30226785Y-179692438D01*
X30226785Y-179692438D02*
X30131547Y-179787676D01*
X30131547Y-179787676D02*
X30083928Y-179978152D01*
X30083928Y-179978152D02*
X30083928Y-180311485D01*
X30083928Y-180311485D02*
X30131547Y-180501961D01*
X30131547Y-180501961D02*
X30226785Y-180597200D01*
X30226785Y-180597200D02*
X30322023Y-180644819D01*
X30322023Y-180644819D02*
X30512499Y-180644819D01*
X30512499Y-180644819D02*
X30607737Y-180597200D01*
X30607737Y-180597200D02*
X30702975Y-180501961D01*
X30702975Y-180501961D02*
X30750594Y-180311485D01*
X30750594Y-180311485D02*
X30750594Y-179978152D01*
X30750594Y-179978152D02*
X30702975Y-179787676D01*
X30702975Y-179787676D02*
X30607737Y-179692438D01*
X30607737Y-179692438D02*
X30512499Y-179644819D01*
X29750594Y-179644819D02*
X29131547Y-179644819D01*
X29131547Y-179644819D02*
X29464880Y-180025771D01*
X29464880Y-180025771D02*
X29322023Y-180025771D01*
X29322023Y-180025771D02*
X29226785Y-180073390D01*
X29226785Y-180073390D02*
X29179166Y-180121009D01*
X29179166Y-180121009D02*
X29131547Y-180216247D01*
X29131547Y-180216247D02*
X29131547Y-180454342D01*
X29131547Y-180454342D02*
X29179166Y-180549580D01*
X29179166Y-180549580D02*
X29226785Y-180597200D01*
X29226785Y-180597200D02*
X29322023Y-180644819D01*
X29322023Y-180644819D02*
X29607737Y-180644819D01*
X29607737Y-180644819D02*
X29702975Y-180597200D01*
X29702975Y-180597200D02*
X29750594Y-180549580D01*
X28274404Y-179978152D02*
X28274404Y-180644819D01*
X28512499Y-179597200D02*
X28750594Y-180311485D01*
X28750594Y-180311485D02*
X28131547Y-180311485D01*
X27560118Y-179644819D02*
X27464880Y-179644819D01*
X27464880Y-179644819D02*
X27369642Y-179692438D01*
X27369642Y-179692438D02*
X27322023Y-179740057D01*
X27322023Y-179740057D02*
X27274404Y-179835295D01*
X27274404Y-179835295D02*
X27226785Y-180025771D01*
X27226785Y-180025771D02*
X27226785Y-180263866D01*
X27226785Y-180263866D02*
X27274404Y-180454342D01*
X27274404Y-180454342D02*
X27322023Y-180549580D01*
X27322023Y-180549580D02*
X27369642Y-180597200D01*
X27369642Y-180597200D02*
X27464880Y-180644819D01*
X27464880Y-180644819D02*
X27560118Y-180644819D01*
X27560118Y-180644819D02*
X27655356Y-180597200D01*
X27655356Y-180597200D02*
X27702975Y-180549580D01*
X27702975Y-180549580D02*
X27750594Y-180454342D01*
X27750594Y-180454342D02*
X27798213Y-180263866D01*
X27798213Y-180263866D02*
X27798213Y-180025771D01*
X27798213Y-180025771D02*
X27750594Y-179835295D01*
X27750594Y-179835295D02*
X27702975Y-179740057D01*
X27702975Y-179740057D02*
X27655356Y-179692438D01*
X27655356Y-179692438D02*
X27560118Y-179644819D01*
X26607737Y-179644819D02*
X26512499Y-179644819D01*
X26512499Y-179644819D02*
X26417261Y-179692438D01*
X26417261Y-179692438D02*
X26369642Y-179740057D01*
X26369642Y-179740057D02*
X26322023Y-179835295D01*
X26322023Y-179835295D02*
X26274404Y-180025771D01*
X26274404Y-180025771D02*
X26274404Y-180263866D01*
X26274404Y-180263866D02*
X26322023Y-180454342D01*
X26322023Y-180454342D02*
X26369642Y-180549580D01*
X26369642Y-180549580D02*
X26417261Y-180597200D01*
X26417261Y-180597200D02*
X26512499Y-180644819D01*
X26512499Y-180644819D02*
X26607737Y-180644819D01*
X26607737Y-180644819D02*
X26702975Y-180597200D01*
X26702975Y-180597200D02*
X26750594Y-180549580D01*
X26750594Y-180549580D02*
X26798213Y-180454342D01*
X26798213Y-180454342D02*
X26845832Y-180263866D01*
X26845832Y-180263866D02*
X26845832Y-180025771D01*
X26845832Y-180025771D02*
X26798213Y-179835295D01*
X26798213Y-179835295D02*
X26750594Y-179740057D01*
X26750594Y-179740057D02*
X26702975Y-179692438D01*
X26702975Y-179692438D02*
X26607737Y-179644819D01*
X25893451Y-180359104D02*
X25417261Y-180359104D01*
X25988689Y-180644819D02*
X25655356Y-179644819D01*
X25655356Y-179644819D02*
X25322023Y-180644819D01*
D12*
X28542976Y-182765914D02*
X28573452Y-182750676D01*
X28573452Y-182750676D02*
X28603928Y-182720200D01*
X28603928Y-182720200D02*
X28649642Y-182674485D01*
X28649642Y-182674485D02*
X28680119Y-182659247D01*
X28680119Y-182659247D02*
X28710595Y-182659247D01*
X28695357Y-182735438D02*
X28725833Y-182720200D01*
X28725833Y-182720200D02*
X28756309Y-182689723D01*
X28756309Y-182689723D02*
X28771547Y-182628771D01*
X28771547Y-182628771D02*
X28771547Y-182522104D01*
X28771547Y-182522104D02*
X28756309Y-182461152D01*
X28756309Y-182461152D02*
X28725833Y-182430676D01*
X28725833Y-182430676D02*
X28695357Y-182415438D01*
X28695357Y-182415438D02*
X28634404Y-182415438D01*
X28634404Y-182415438D02*
X28603928Y-182430676D01*
X28603928Y-182430676D02*
X28573452Y-182461152D01*
X28573452Y-182461152D02*
X28558214Y-182522104D01*
X28558214Y-182522104D02*
X28558214Y-182628771D01*
X28558214Y-182628771D02*
X28573452Y-182689723D01*
X28573452Y-182689723D02*
X28603928Y-182720200D01*
X28603928Y-182720200D02*
X28634404Y-182735438D01*
X28634404Y-182735438D02*
X28695357Y-182735438D01*
X28375357Y-182552580D02*
X28405833Y-182537342D01*
X28405833Y-182537342D02*
X28421071Y-182522104D01*
X28421071Y-182522104D02*
X28436309Y-182491628D01*
X28436309Y-182491628D02*
X28436309Y-182476390D01*
X28436309Y-182476390D02*
X28421071Y-182445914D01*
X28421071Y-182445914D02*
X28405833Y-182430676D01*
X28405833Y-182430676D02*
X28375357Y-182415438D01*
X28375357Y-182415438D02*
X28314404Y-182415438D01*
X28314404Y-182415438D02*
X28283928Y-182430676D01*
X28283928Y-182430676D02*
X28268690Y-182445914D01*
X28268690Y-182445914D02*
X28253452Y-182476390D01*
X28253452Y-182476390D02*
X28253452Y-182491628D01*
X28253452Y-182491628D02*
X28268690Y-182522104D01*
X28268690Y-182522104D02*
X28283928Y-182537342D01*
X28283928Y-182537342D02*
X28314404Y-182552580D01*
X28314404Y-182552580D02*
X28375357Y-182552580D01*
X28375357Y-182552580D02*
X28405833Y-182567819D01*
X28405833Y-182567819D02*
X28421071Y-182583057D01*
X28421071Y-182583057D02*
X28436309Y-182613533D01*
X28436309Y-182613533D02*
X28436309Y-182674485D01*
X28436309Y-182674485D02*
X28421071Y-182704961D01*
X28421071Y-182704961D02*
X28405833Y-182720200D01*
X28405833Y-182720200D02*
X28375357Y-182735438D01*
X28375357Y-182735438D02*
X28314404Y-182735438D01*
X28314404Y-182735438D02*
X28283928Y-182720200D01*
X28283928Y-182720200D02*
X28268690Y-182704961D01*
X28268690Y-182704961D02*
X28253452Y-182674485D01*
X28253452Y-182674485D02*
X28253452Y-182613533D01*
X28253452Y-182613533D02*
X28268690Y-182583057D01*
X28268690Y-182583057D02*
X28283928Y-182567819D01*
X28283928Y-182567819D02*
X28314404Y-182552580D01*
D10*
X41861666Y-185124819D02*
X42433094Y-185124819D01*
X42147380Y-185124819D02*
X42147380Y-184124819D01*
X42147380Y-184124819D02*
X42242618Y-184267676D01*
X42242618Y-184267676D02*
X42337856Y-184362914D01*
X42337856Y-184362914D02*
X42433094Y-184410533D01*
X41433094Y-184458152D02*
X41433094Y-185458152D01*
X40956904Y-184981961D02*
X40909285Y-185077200D01*
X40909285Y-185077200D02*
X40814047Y-185124819D01*
X41433094Y-184981961D02*
X41385475Y-185077200D01*
X41385475Y-185077200D02*
X41290237Y-185124819D01*
X41290237Y-185124819D02*
X41099761Y-185124819D01*
X41099761Y-185124819D02*
X41004523Y-185077200D01*
X41004523Y-185077200D02*
X40956904Y-184981961D01*
X40956904Y-184981961D02*
X40956904Y-184458152D01*
X40052142Y-184601009D02*
X40385475Y-184601009D01*
X40385475Y-185124819D02*
X40385475Y-184124819D01*
X40385475Y-184124819D02*
X39909285Y-184124819D01*
D11*
X41452142Y-186243832D02*
X41471190Y-186262880D01*
X41471190Y-186262880D02*
X41528332Y-186281927D01*
X41528332Y-186281927D02*
X41566428Y-186281927D01*
X41566428Y-186281927D02*
X41623571Y-186262880D01*
X41623571Y-186262880D02*
X41661666Y-186224784D01*
X41661666Y-186224784D02*
X41680713Y-186186689D01*
X41680713Y-186186689D02*
X41699761Y-186110499D01*
X41699761Y-186110499D02*
X41699761Y-186053356D01*
X41699761Y-186053356D02*
X41680713Y-185977165D01*
X41680713Y-185977165D02*
X41661666Y-185939070D01*
X41661666Y-185939070D02*
X41623571Y-185900975D01*
X41623571Y-185900975D02*
X41566428Y-185881927D01*
X41566428Y-185881927D02*
X41528332Y-185881927D01*
X41528332Y-185881927D02*
X41471190Y-185900975D01*
X41471190Y-185900975D02*
X41452142Y-185920022D01*
X41071190Y-186281927D02*
X41299761Y-186281927D01*
X41185475Y-186281927D02*
X41185475Y-185881927D01*
X41185475Y-185881927D02*
X41223571Y-185939070D01*
X41223571Y-185939070D02*
X41261666Y-185977165D01*
X41261666Y-185977165D02*
X41299761Y-185996213D01*
X40937857Y-185881927D02*
X40690238Y-185881927D01*
X40690238Y-185881927D02*
X40823571Y-186034308D01*
X40823571Y-186034308D02*
X40766428Y-186034308D01*
X40766428Y-186034308D02*
X40728333Y-186053356D01*
X40728333Y-186053356D02*
X40709285Y-186072403D01*
X40709285Y-186072403D02*
X40690238Y-186110499D01*
X40690238Y-186110499D02*
X40690238Y-186205737D01*
X40690238Y-186205737D02*
X40709285Y-186243832D01*
X40709285Y-186243832D02*
X40728333Y-186262880D01*
X40728333Y-186262880D02*
X40766428Y-186281927D01*
X40766428Y-186281927D02*
X40880714Y-186281927D01*
X40880714Y-186281927D02*
X40918809Y-186262880D01*
X40918809Y-186262880D02*
X40937857Y-186243832D01*
D14*
%TO.C,R23*%
X45777500Y-191625000D02*
X46602500Y-191625000D01*
X46602500Y-191625000D02*
X46602500Y-190025000D01*
X45777500Y-190025000D02*
X45777500Y-191625000D01*
X46602500Y-190025000D02*
X45777500Y-190025000D01*
%TO.C,D9*%
X32780000Y-171045000D02*
X32780000Y-168045000D01*
X31129440Y-169546020D02*
X32031140Y-169546020D01*
X31129440Y-169546020D02*
X29978820Y-170295320D01*
X31129440Y-169546020D02*
X29978820Y-168745920D01*
X31129440Y-168745920D02*
X31129440Y-170346120D01*
X29978820Y-170295320D02*
X29978820Y-168745920D01*
X29978820Y-169546020D02*
X28980600Y-169546020D01*
X28180000Y-171045000D02*
X32780000Y-171045000D01*
X28180000Y-168045000D02*
X32780000Y-168045000D01*
X28180000Y-168045000D02*
X28180000Y-171045000D01*
%TO.C,D1*%
X58978000Y-151119000D02*
X58978000Y-152919000D01*
X60078000Y-152017980D02*
X60678000Y-151619000D01*
X60078000Y-152019000D02*
X59478000Y-152019000D01*
X60078000Y-152019000D02*
X60678000Y-152419000D01*
X60078000Y-152419000D02*
X60078000Y-151619000D01*
X60678000Y-151619000D02*
X60678000Y-152419000D01*
X60678000Y-152019000D02*
X61278000Y-152019000D01*
X61778000Y-151119000D02*
X58978000Y-151119000D01*
X61778000Y-152919000D02*
X58978000Y-152919000D01*
X61778000Y-152919000D02*
X61778000Y-151119000D01*
%TO.C,U7*%
X42207500Y-179504000D02*
X42207500Y-177004000D01*
X42207500Y-177004000D02*
X41807500Y-176604000D01*
X41807500Y-176604000D02*
X40607500Y-176604000D01*
X40607500Y-179504000D02*
X42207500Y-179504000D01*
X40607500Y-176604000D02*
X40607500Y-179504000D01*
%TO.C,U8*%
X43945000Y-181201500D02*
X41370000Y-181201500D01*
X41370000Y-181201500D02*
X41045000Y-181526500D01*
X41045000Y-181526500D02*
X41045000Y-182501500D01*
X43945000Y-182501500D02*
X43945000Y-181201500D01*
X41045000Y-182501500D02*
X43945000Y-182501500D01*
%TO.C,U3*%
X35134000Y-152744000D02*
X35134000Y-156669000D01*
X35134000Y-156669000D02*
X36109000Y-157644000D01*
X36109000Y-157644000D02*
X39034000Y-157644000D01*
X39034000Y-152744000D02*
X35134000Y-152744000D01*
X39034000Y-157644000D02*
X39034000Y-152744000D01*
%TO.C,C2*%
X42060000Y-189685000D02*
X42860000Y-189685000D01*
X42860000Y-189685000D02*
X42860000Y-188085000D01*
X42060000Y-188085000D02*
X42060000Y-189685000D01*
X42860000Y-188085000D02*
X42060000Y-188085000D01*
%TO.C,D10*%
X26280000Y-195380000D02*
X29280000Y-195380000D01*
X27778980Y-193729440D02*
X27778980Y-194631140D01*
X27778980Y-193729440D02*
X27029680Y-192578820D01*
X27778980Y-193729440D02*
X28579080Y-192578820D01*
X28579080Y-193729440D02*
X26978880Y-193729440D01*
X27029680Y-192578820D02*
X28579080Y-192578820D01*
X27778980Y-192578820D02*
X27778980Y-191580600D01*
X26280000Y-190780000D02*
X26280000Y-195380000D01*
X29280000Y-190780000D02*
X29280000Y-195380000D01*
X29280000Y-190780000D02*
X26280000Y-190780000D01*
%TO.C,C5*%
X45745000Y-159531000D02*
X45745000Y-158731000D01*
X45745000Y-158731000D02*
X44145000Y-158731000D01*
X44145000Y-159531000D02*
X45745000Y-159531000D01*
X44145000Y-158731000D02*
X44145000Y-159531000D01*
%TO.C,R16*%
X78524000Y-173132500D02*
X78524000Y-172307500D01*
X78524000Y-172307500D02*
X76924000Y-172307500D01*
X76924000Y-173132500D02*
X78524000Y-173132500D01*
X76924000Y-172307500D02*
X76924000Y-173132500D01*
%TO.C,Q7*%
X36832500Y-184960000D02*
X36832500Y-187535000D01*
X36832500Y-187535000D02*
X37157500Y-187860000D01*
X37157500Y-187860000D02*
X38132500Y-187860000D01*
X38132500Y-184960000D02*
X36832500Y-184960000D01*
X38132500Y-187860000D02*
X38132500Y-184960000D01*
%TO.C,C6*%
X61322000Y-162598000D02*
X62122000Y-162598000D01*
X62122000Y-162598000D02*
X62122000Y-160998000D01*
X61322000Y-160998000D02*
X61322000Y-162598000D01*
X62122000Y-160998000D02*
X61322000Y-160998000D01*
%TO.C,C10*%
X32931000Y-155086000D02*
X32931000Y-154286000D01*
X32931000Y-154286000D02*
X31331000Y-154286000D01*
X31331000Y-155086000D02*
X32931000Y-155086000D01*
X31331000Y-154286000D02*
X31331000Y-155086000D01*
%TO.C,C4*%
X37260000Y-176742000D02*
X37260000Y-175942000D01*
X37260000Y-175942000D02*
X35660000Y-175942000D01*
X35660000Y-176742000D02*
X37260000Y-176742000D01*
X35660000Y-175942000D02*
X35660000Y-176742000D01*
%TO.C,R17*%
X37197000Y-178151500D02*
X37197000Y-177326500D01*
X37197000Y-177326500D02*
X35597000Y-177326500D01*
X35597000Y-178151500D02*
X37197000Y-178151500D01*
X35597000Y-177326500D02*
X35597000Y-178151500D01*
%TO.C,D15*%
X32812000Y-175363000D02*
X32812000Y-172363000D01*
X31161440Y-173864020D02*
X32063140Y-173864020D01*
X31161440Y-173864020D02*
X30010820Y-174613320D01*
X31161440Y-173864020D02*
X30010820Y-173063920D01*
X31161440Y-173063920D02*
X31161440Y-174664120D01*
X30010820Y-174613320D02*
X30010820Y-173063920D01*
X30010820Y-173864020D02*
X29012600Y-173864020D01*
X28212000Y-175363000D02*
X32812000Y-175363000D01*
X28212000Y-172363000D02*
X32812000Y-172363000D01*
X28212000Y-172363000D02*
X28212000Y-175363000D01*
%TO.C,R22*%
X39031500Y-176240000D02*
X38206500Y-176240000D01*
X38206500Y-176240000D02*
X38206500Y-177840000D01*
X39031500Y-177840000D02*
X39031500Y-176240000D01*
X38206500Y-177840000D02*
X39031500Y-177840000D01*
%TO.C,R20*%
X37197000Y-180945500D02*
X37197000Y-180120500D01*
X37197000Y-180120500D02*
X35597000Y-180120500D01*
X35597000Y-180945500D02*
X37197000Y-180945500D01*
X35597000Y-180120500D02*
X35597000Y-180945500D01*
%TO.C,R24*%
X45072500Y-176385000D02*
X44247500Y-176385000D01*
X44247500Y-176385000D02*
X44247500Y-177985000D01*
X45072500Y-177985000D02*
X45072500Y-176385000D01*
X44247500Y-177985000D02*
X45072500Y-177985000D01*
%TO.C,D13*%
X33034000Y-187555000D02*
X33034000Y-184555000D01*
X31383440Y-186056020D02*
X32285140Y-186056020D01*
X31383440Y-186056020D02*
X30232820Y-186805320D01*
X31383440Y-186056020D02*
X30232820Y-185255920D01*
X31383440Y-185255920D02*
X31383440Y-186856120D01*
X30232820Y-186805320D02*
X30232820Y-185255920D01*
X30232820Y-186056020D02*
X29234600Y-186056020D01*
X28434000Y-187555000D02*
X33034000Y-187555000D01*
X28434000Y-184555000D02*
X33034000Y-184555000D01*
X28434000Y-184555000D02*
X28434000Y-187555000D01*
%TO.C,R6*%
X46987500Y-190965000D02*
X47812500Y-190965000D01*
X47812500Y-190965000D02*
X47812500Y-189365000D01*
X46987500Y-189365000D02*
X46987500Y-190965000D01*
X47812500Y-189365000D02*
X46987500Y-189365000D01*
%TO.C,R14*%
X56610500Y-176783400D02*
X57435500Y-176783400D01*
X57435500Y-176783400D02*
X57435500Y-175183400D01*
X56610500Y-175183400D02*
X56610500Y-176783400D01*
X57435500Y-175183400D02*
X56610500Y-175183400D01*
%TO.C,U2*%
X71316200Y-165160600D02*
X61516200Y-165160600D01*
X61516200Y-165160600D02*
X60916200Y-165760600D01*
X60916200Y-165760600D02*
X60916200Y-169560600D01*
X71316200Y-169560600D02*
X71316200Y-165160600D01*
X60916200Y-169560600D02*
X71316200Y-169560600D01*
%TO.C,D7*%
X32780000Y-167235000D02*
X32780000Y-164235000D01*
X31129440Y-165736020D02*
X32031140Y-165736020D01*
X31129440Y-165736020D02*
X29978820Y-166485320D01*
X31129440Y-165736020D02*
X29978820Y-164935920D01*
X31129440Y-164935920D02*
X31129440Y-166536120D01*
X29978820Y-166485320D02*
X29978820Y-164935920D01*
X29978820Y-165736020D02*
X28980600Y-165736020D01*
X28180000Y-167235000D02*
X32780000Y-167235000D01*
X28180000Y-164235000D02*
X32780000Y-164235000D01*
X28180000Y-164235000D02*
X28180000Y-167235000D01*
%TO.C,U5*%
X56609600Y-160487000D02*
X46809600Y-160487000D01*
X46809600Y-160487000D02*
X46209600Y-161087000D01*
X46209600Y-161087000D02*
X46209600Y-164887000D01*
X56609600Y-164887000D02*
X56609600Y-160487000D01*
X46209600Y-164887000D02*
X56609600Y-164887000D01*
%TO.C,R21*%
X35533000Y-181644500D02*
X35533000Y-182469500D01*
X35533000Y-182469500D02*
X37133000Y-182469500D01*
X37133000Y-181644500D02*
X35533000Y-181644500D01*
X37133000Y-182469500D02*
X37133000Y-181644500D01*
%TO.C,R18*%
X40054000Y-182469500D02*
X40054000Y-181644500D01*
X40054000Y-181644500D02*
X38454000Y-181644500D01*
X38454000Y-182469500D02*
X40054000Y-182469500D01*
X38454000Y-181644500D02*
X38454000Y-182469500D01*
%TO.C,C12*%
X37247000Y-179536000D02*
X37247000Y-178736000D01*
X37247000Y-178736000D02*
X35647000Y-178736000D01*
X35647000Y-179536000D02*
X37247000Y-179536000D01*
X35647000Y-178736000D02*
X35647000Y-179536000D01*
%TO.C,U6*%
X51744000Y-150828000D02*
X55444000Y-150828000D01*
X51744000Y-156528000D02*
X51744000Y-150828000D01*
X51744000Y-156528000D02*
X52744000Y-157528000D01*
X52744000Y-157528000D02*
X55444000Y-157528000D01*
X55444000Y-157528000D02*
X55444000Y-150828000D01*
%TO.C,C11*%
X35204000Y-152038000D02*
X35204000Y-151238000D01*
X35204000Y-151238000D02*
X33604000Y-151238000D01*
X33604000Y-152038000D02*
X35204000Y-152038000D01*
X33604000Y-151238000D02*
X33604000Y-152038000D01*
%TO.C,R19*%
X38517000Y-180120500D02*
X38517000Y-180945500D01*
X38517000Y-180945500D02*
X40117000Y-180945500D01*
X40117000Y-180120500D02*
X38517000Y-180120500D01*
X40117000Y-180945500D02*
X40117000Y-180120500D01*
%TO.C,D3*%
X32820000Y-180697000D02*
X32820000Y-177697000D01*
X31169440Y-179198020D02*
X32071140Y-179198020D01*
X31169440Y-179198020D02*
X30018820Y-179947320D01*
X31169440Y-179198020D02*
X30018820Y-178397920D01*
X31169440Y-178397920D02*
X31169440Y-179998120D01*
X30018820Y-179947320D02*
X30018820Y-178397920D01*
X30018820Y-179198020D02*
X29020600Y-179198020D01*
X28220000Y-180697000D02*
X32820000Y-180697000D01*
X28220000Y-177697000D02*
X32820000Y-177697000D01*
X28220000Y-177697000D02*
X28220000Y-180697000D01*
%TO.C,U9*%
X42797500Y-190505000D02*
X42797500Y-193005000D01*
X42797500Y-193005000D02*
X43197500Y-193405000D01*
X43197500Y-193405000D02*
X44397500Y-193405000D01*
X44397500Y-190505000D02*
X42797500Y-190505000D01*
X44397500Y-193405000D02*
X44397500Y-190505000D01*
%TO.C,Q8*%
X27862500Y-181140000D02*
X27862500Y-183715000D01*
X27862500Y-183715000D02*
X28187500Y-184040000D01*
X28187500Y-184040000D02*
X29162500Y-184040000D01*
X29162500Y-181140000D02*
X27862500Y-181140000D01*
X29162500Y-184040000D02*
X29162500Y-181140000D01*
%TO.C,C13*%
X40395000Y-185700000D02*
X40395000Y-186500000D01*
X40395000Y-186500000D02*
X41995000Y-186500000D01*
X41995000Y-185700000D02*
X40395000Y-185700000D01*
X41995000Y-186500000D02*
X41995000Y-185700000D01*
%TD*%
M02*
