%TF.GenerationSoftware,KiCad,Pcbnew,(6.0.9)*%
%TF.CreationDate,2023-01-31T13:38:18+01:00*%
%TF.ProjectId,jf-ecu32,6a662d65-6375-4333-922e-6b696361645f,rev?*%
%TF.SameCoordinates,Original*%
%TF.FileFunction,Soldermask,Bot*%
%TF.FilePolarity,Negative*%
%FSLAX46Y46*%
G04 Gerber Fmt 4.6, Leading zero omitted, Abs format (unit mm)*
G04 Created by KiCad (PCBNEW (6.0.9)) date 2023-01-31 13:38:18*
%MOMM*%
%LPD*%
G01*
G04 APERTURE LIST*
G04 Aperture macros list*
%AMRoundRect*
0 Rectangle with rounded corners*
0 $1 Rounding radius*
0 $2 $3 $4 $5 $6 $7 $8 $9 X,Y pos of 4 corners*
0 Add a 4 corners polygon primitive as box body*
4,1,4,$2,$3,$4,$5,$6,$7,$8,$9,$2,$3,0*
0 Add four circle primitives for the rounded corners*
1,1,$1+$1,$2,$3*
1,1,$1+$1,$4,$5*
1,1,$1+$1,$6,$7*
1,1,$1+$1,$8,$9*
0 Add four rect primitives between the rounded corners*
20,1,$1+$1,$2,$3,$4,$5,0*
20,1,$1+$1,$4,$5,$6,$7,0*
20,1,$1+$1,$6,$7,$8,$9,0*
20,1,$1+$1,$8,$9,$2,$3,0*%
G04 Aperture macros list end*
%ADD10R,1.700000X1.700000*%
%ADD11O,1.700000X1.700000*%
%ADD12R,3.800000X3.800000*%
%ADD13C,4.000000*%
%ADD14C,3.800000*%
%ADD15R,1.800000X2.500000*%
%ADD16R,2.500000X1.800000*%
%ADD17RoundRect,0.150000X-0.825000X-0.150000X0.825000X-0.150000X0.825000X0.150000X-0.825000X0.150000X0*%
%ADD18RoundRect,0.200000X0.275000X-0.200000X0.275000X0.200000X-0.275000X0.200000X-0.275000X-0.200000X0*%
%ADD19R,0.800000X1.300000*%
G04 APERTURE END LIST*
D10*
%TO.C,J16*%
X54610000Y-175880000D03*
D11*
X54610000Y-173340000D03*
X54610000Y-170800000D03*
%TD*%
D10*
%TO.C,J19*%
X80568800Y-182651400D03*
D11*
X80568800Y-185191400D03*
X80568800Y-187731400D03*
%TD*%
D10*
%TO.C,J18*%
X46583600Y-191287400D03*
D11*
X46583600Y-193827400D03*
X46583600Y-196367400D03*
%TD*%
D10*
%TO.C,J7*%
X18811000Y-166624000D03*
D11*
X21351000Y-166624000D03*
X23891000Y-166624000D03*
%TD*%
D10*
%TO.C,J4*%
X41503600Y-191317400D03*
D11*
X41503600Y-193857400D03*
X41503600Y-196397400D03*
%TD*%
D10*
%TO.C,J15*%
X44043600Y-191317400D03*
D11*
X44043600Y-193857400D03*
X44043600Y-196397400D03*
%TD*%
D10*
%TO.C,J10*%
X27940000Y-153162000D03*
D11*
X30480000Y-153162000D03*
%TD*%
D12*
%TO.C,J9*%
X22780000Y-179705000D03*
D13*
X17780000Y-179705000D03*
%TD*%
D10*
%TO.C,J6*%
X18811000Y-169418000D03*
D11*
X21351000Y-169418000D03*
X23891000Y-169418000D03*
%TD*%
D10*
%TO.C,J3*%
X49530000Y-175895000D03*
D11*
X49530000Y-173355000D03*
X49530000Y-170815000D03*
%TD*%
D12*
%TO.C,J8*%
X22860000Y-157480000D03*
D14*
X17860000Y-157480000D03*
%TD*%
D10*
%TO.C,J1*%
X76200000Y-158003000D03*
D11*
X76200000Y-155463000D03*
X76200000Y-152923000D03*
%TD*%
D12*
%TO.C,J17*%
X22780000Y-191135000D03*
D13*
X17780000Y-191135000D03*
%TD*%
D12*
%TO.C,J5*%
X22780000Y-173990000D03*
D13*
X17780000Y-173990000D03*
%TD*%
D10*
%TO.C,J12*%
X81280000Y-157988000D03*
D11*
X81280000Y-155448000D03*
X81280000Y-152908000D03*
%TD*%
D10*
%TO.C,J13*%
X52070000Y-175895000D03*
D11*
X52070000Y-173355000D03*
X52070000Y-170815000D03*
%TD*%
D10*
%TO.C,J2*%
X78740000Y-158003000D03*
D11*
X78740000Y-155463000D03*
X78740000Y-152923000D03*
%TD*%
D10*
%TO.C,J11*%
X22606000Y-153162000D03*
D11*
X20066000Y-153162000D03*
X17526000Y-153162000D03*
%TD*%
D12*
%TO.C,J14*%
X22780000Y-185420000D03*
D13*
X17780000Y-185420000D03*
%TD*%
D15*
%TO.C,D14*%
X45339000Y-185750200D03*
X45339000Y-181750200D03*
%TD*%
D16*
%TO.C,D9*%
X32480000Y-169545000D03*
X28480000Y-169545000D03*
%TD*%
D15*
%TO.C,D16*%
X48793400Y-185750200D03*
X48793400Y-181750200D03*
%TD*%
D17*
%TO.C,U3*%
X34609000Y-157099000D03*
X34609000Y-155829000D03*
X34609000Y-154559000D03*
X34609000Y-153289000D03*
X39559000Y-153289000D03*
X39559000Y-154559000D03*
X39559000Y-155829000D03*
X39559000Y-157099000D03*
%TD*%
D16*
%TO.C,D10*%
X32520000Y-173355000D03*
X28520000Y-173355000D03*
%TD*%
%TO.C,D6*%
X27686000Y-161036000D03*
X31686000Y-161036000D03*
%TD*%
%TO.C,D15*%
X32705000Y-191135000D03*
X28705000Y-191135000D03*
%TD*%
%TO.C,D13*%
X32520000Y-185420000D03*
X28520000Y-185420000D03*
%TD*%
D18*
%TO.C,R14*%
X56743600Y-176808400D03*
X56743600Y-175158400D03*
%TD*%
D19*
%TO.C,U2*%
X61666200Y-164210600D03*
X62946200Y-164210600D03*
X64206200Y-164210600D03*
X65476200Y-164210600D03*
X66756200Y-164210600D03*
X68026200Y-164210600D03*
X69286200Y-164210600D03*
X70566200Y-164210600D03*
X70566200Y-170510600D03*
X69286200Y-170510600D03*
X68026200Y-170510600D03*
X66756200Y-170510600D03*
X65476200Y-170510600D03*
X64206200Y-170510600D03*
X62946200Y-170510600D03*
X61666200Y-170510600D03*
%TD*%
D16*
%TO.C,D7*%
X32480000Y-165735000D03*
X28480000Y-165735000D03*
%TD*%
D19*
%TO.C,U5*%
X46959600Y-159537000D03*
X48239600Y-159537000D03*
X49499600Y-159537000D03*
X50769600Y-159537000D03*
X52049600Y-159537000D03*
X53319600Y-159537000D03*
X54579600Y-159537000D03*
X55859600Y-159537000D03*
X55859600Y-165837000D03*
X54579600Y-165837000D03*
X53319600Y-165837000D03*
X52049600Y-165837000D03*
X50769600Y-165837000D03*
X49499600Y-165837000D03*
X48239600Y-165837000D03*
X46959600Y-165837000D03*
%TD*%
D15*
%TO.C,D4*%
X41910000Y-185740000D03*
X41910000Y-181740000D03*
%TD*%
D16*
%TO.C,D3*%
X32520000Y-179705000D03*
X28520000Y-179705000D03*
%TD*%
M02*
