M48
; DRILL file {KiCad (6.0.9)} date Tue Jan 31 13:38:23 2023
; FORMAT={-:-/ absolute / inch / decimal}
; #@! TF.CreationDate,2023-01-31T13:38:23+01:00
; #@! TF.GenerationSoftware,Kicad,Pcbnew,(6.0.9)
; #@! TF.FileFunction,Plated,1,2,PTH
FMAT,2
INCH
; #@! TA.AperFunction,Plated,PTH,ViaDrill
T1C0.0039
; #@! TA.AperFunction,Plated,PTH,ComponentDrill
T2C0.0079
; #@! TA.AperFunction,Plated,PTH,ViaDrill
T3C0.0157
; #@! TA.AperFunction,Plated,PTH,ComponentDrill
T4C0.0394
; #@! TA.AperFunction,Plated,PTH,ComponentDrill
T5C0.1063
%
G90
G05
T1
X0.59Y-6.1
X0.59Y-6.13
X0.59Y-6.21
X0.59Y-6.25
X0.59Y-6.27
X0.6Y-5.96
X0.6Y-6.16
X0.6Y-6.34
X0.6Y-6.34
X0.6Y-6.36
X0.6Y-6.37
X0.6Y-6.39
X0.61Y-6.07
X0.61Y-6.1
X0.61Y-6.12
X0.61Y-6.13
X0.61Y-6.15
X0.61Y-6.23
X0.61Y-6.25
X0.61Y-6.29
X0.61Y-6.32
X0.61Y-6.33
X0.61Y-6.36
X0.62Y-5.99
X0.62Y-6.04
X0.62Y-6.27
X0.62Y-6.32
X0.62Y-6.33
X0.62Y-6.34
X0.62Y-6.38
X0.63Y-6.1
X0.63Y-6.12
X0.63Y-6.34
X0.63Y-6.36
X0.63Y-6.4
X0.64Y-6.1
X0.65Y-5.97
X0.66Y-6.09
X0.67Y-5.96
X0.67Y-7.67
X0.68Y-6.1
X0.68Y-7.74
X0.69Y-6.09
X0.71Y-5.97
X0.71Y-6.09
X0.71Y-6.1
X0.72Y-6.09
X0.74Y-6.1
X0.75Y-6.09
X0.76Y-5.96
X0.76Y-6.09
X0.78Y-6.1
X0.79Y-6.09
X0.81Y-6.09
X0.81Y-6.1
X0.83Y-6.09
X0.83Y-6.1
X0.84Y-6.09
X0.84Y-6.11
X0.85Y-6.09
X0.85Y-6.1
X0.86Y-6.09
X0.86Y-6.09
X0.86Y-6.09
X0.86Y-6.11
X0.86Y-7.74
X0.87Y-6.1
X0.88Y-6.1
X0.88Y-6.1
X0.89Y-6.11
X0.9Y-6.09
X0.91Y-6.1
X0.91Y-6.11
X0.91Y-7.67
X0.92Y-6.09
X0.92Y-6.1
X0.94Y-6.11
X0.95Y-6.07
X0.95Y-6.09
X0.96Y-6.1
X0.97Y-6.09
X0.98Y-7.66
X0.99Y-6.12
X1.0Y-6.01
X1.0Y-7.74
X1.02Y-6.15
X1.03Y-6.01
X1.03Y-6.17
X1.04Y-6.01
X1.04Y-6.03
X1.04Y-6.04
X1.04Y-6.05
X1.04Y-6.18
X1.04Y-6.24
X1.04Y-6.25
X1.04Y-6.26
X1.05Y-6.24
X1.05Y-6.25
X1.05Y-6.26
X1.06Y-6.24
X1.06Y-6.25
X1.06Y-6.26
X1.07Y-6.08
X1.07Y-6.24
X1.07Y-6.25
X1.07Y-6.26
X1.07Y-6.26
X1.08Y-6.24
X1.08Y-6.24
X1.08Y-6.25
X1.08Y-6.26
X1.09Y-6.24
X1.09Y-6.25
X1.09Y-6.26
X1.09Y-7.71
X1.1Y-6.24
X1.1Y-6.25
X1.1Y-6.26
X1.1Y-7.76
X1.11Y-6.08
X1.14Y-6.08
X1.15Y-6.08
X1.19Y-7.74
X1.21Y-6.31
X1.22Y-6.33
X1.22Y-6.35
X1.24Y-6.31
X1.24Y-6.35
X1.25Y-6.33
X1.26Y-6.16
X1.26Y-6.18
X1.26Y-6.2
X1.26Y-6.31
X1.26Y-6.35
X1.27Y-6.33
X1.28Y-6.16
X1.28Y-6.18
X1.28Y-6.2
X1.28Y-6.35
X1.28Y-7.72
X1.29Y-6.18
X1.29Y-6.31
X1.29Y-6.33
X1.3Y-6.16
X1.3Y-6.2
X1.31Y-6.17
X1.31Y-6.18
X1.31Y-6.19
X1.33Y-6.35
X1.34Y-6.19
X1.36Y-6.94
X1.37Y-6.18
X1.37Y-6.8
X1.37Y-6.94
X1.37Y-6.98
X1.37Y-7.07
X1.37Y-7.24
X1.37Y-7.52
X1.38Y-6.31
X1.38Y-7.76
X1.39Y-6.19
X1.39Y-6.31
X1.39Y-7.29
X1.39Y-7.36
X1.39Y-7.56
X1.41Y-6.33
X1.41Y-6.34
X1.41Y-6.54
X1.42Y-6.05
X1.42Y-6.07
X1.42Y-6.34
X1.42Y-6.53
X1.43Y-6.04
X1.43Y-6.33
X1.43Y-6.53
X1.43Y-6.55
X1.44Y-6.51
X1.45Y-6.31
X1.45Y-6.53
X1.46Y-6.03
X1.46Y-7.06
X1.47Y-6.08
X1.47Y-6.33
X1.47Y-6.48
X1.47Y-6.49
X1.48Y-6.06
X1.48Y-6.09
X1.48Y-6.32
X1.48Y-6.35
X1.48Y-6.48
X1.48Y-6.54
X1.48Y-6.93
X1.49Y-6.53
X1.49Y-6.54
X1.5Y-6.04
X1.5Y-6.54
X1.5Y-6.76
X1.5Y-6.77
X1.5Y-6.78
X1.5Y-7.75
X1.51Y-6.76
X1.51Y-6.77
X1.51Y-6.78
X1.51Y-6.91
X1.51Y-6.94
X1.52Y-6.76
X1.52Y-6.77
X1.52Y-6.78
X1.52Y-6.88
X1.53Y-6.97
X1.54Y-7.06
X1.56Y-7.06
X1.62Y-7.06
X1.63Y-7.13
X1.63Y-7.14
X1.63Y-7.15
X1.63Y-7.16
X1.63Y-7.17
X1.63Y-7.18
X1.63Y-7.19
X1.64Y-7.06
X1.64Y-7.13
X1.64Y-7.14
X1.64Y-7.15
X1.64Y-7.16
X1.64Y-7.17
X1.64Y-7.18
X1.64Y-7.19
X1.65Y-6.88
X1.65Y-6.89
X1.65Y-6.9
X1.65Y-6.91
X1.65Y-6.92
X1.65Y-6.93
X1.65Y-6.94
X1.65Y-7.13
X1.65Y-7.14
X1.65Y-7.15
X1.65Y-7.15
X1.65Y-7.16
X1.65Y-7.17
X1.65Y-7.18
X1.65Y-7.19
X1.66Y-6.88
X1.66Y-6.89
X1.66Y-6.9
X1.66Y-6.91
X1.66Y-6.92
X1.66Y-6.93
X1.66Y-6.94
X1.66Y-7.13
X1.66Y-7.14
X1.66Y-7.15
X1.66Y-7.16
X1.66Y-7.17
X1.66Y-7.18
X1.66Y-7.19
X1.67Y-6.88
X1.67Y-6.89
X1.67Y-6.9
X1.67Y-6.91
X1.67Y-6.92
X1.67Y-6.93
X1.67Y-6.93
X1.67Y-6.94
X1.67Y-7.06
X1.68Y-6.88
X1.68Y-6.89
X1.68Y-6.89
X1.68Y-6.9
X1.68Y-6.91
X1.68Y-6.92
X1.68Y-6.93
X1.68Y-6.94
X1.74Y-7.05
X1.75Y-7.03
X1.76Y-7.12
X1.76Y-7.13
X1.76Y-7.14
X1.76Y-7.15
X1.76Y-7.15
X1.76Y-7.16
X1.76Y-7.17
X1.77Y-7.12
X1.77Y-7.13
X1.77Y-7.14
X1.77Y-7.15
X1.77Y-7.16
X1.77Y-7.23
X1.77Y-7.24
X1.78Y-7.12
X1.78Y-7.13
X1.78Y-7.14
X1.78Y-7.15
X1.78Y-7.23
X1.78Y-7.24
X1.79Y-7.12
X1.79Y-7.13
X1.79Y-7.14
X1.79Y-7.2
X1.79Y-7.23
X1.79Y-7.24
X1.8Y-6.72
X1.8Y-6.73
X1.8Y-6.74
X1.8Y-6.75
X1.8Y-6.76
X1.8Y-6.77
X1.8Y-6.78
X1.8Y-6.79
X1.8Y-6.8
X1.8Y-6.81
X1.8Y-6.82
X1.8Y-6.82
X1.8Y-6.83
X1.8Y-6.87
X1.8Y-6.88
X1.8Y-6.94
X1.8Y-6.95
X1.8Y-6.96
X1.8Y-6.97
X1.8Y-6.98
X1.8Y-7.12
X1.8Y-7.13
X1.8Y-7.19
X1.8Y-7.2
X1.8Y-7.23
X1.8Y-7.24
X1.81Y-6.72
X1.81Y-6.73
X1.81Y-6.74
X1.81Y-6.75
X1.81Y-6.76
X1.81Y-6.77
X1.81Y-6.78
X1.81Y-6.79
X1.81Y-6.8
X1.81Y-6.81
X1.81Y-6.82
X1.81Y-6.83
X1.81Y-6.87
X1.81Y-6.93
X1.81Y-6.94
X1.81Y-6.95
X1.81Y-6.96
X1.81Y-6.97
X1.81Y-6.98
X1.81Y-7.12
X1.81Y-7.18
X1.81Y-7.19
X1.81Y-7.2
X1.82Y-6.72
X1.82Y-6.73
X1.82Y-6.74
X1.82Y-6.75
X1.82Y-6.76
X1.82Y-6.77
X1.82Y-6.78
X1.82Y-6.79
X1.82Y-6.8
X1.82Y-6.81
X1.82Y-6.82
X1.82Y-6.83
X1.82Y-6.92
X1.82Y-6.93
X1.82Y-6.94
X1.82Y-6.95
X1.82Y-6.96
X1.82Y-6.97
X1.82Y-6.98
X1.83Y-6.72
X1.83Y-6.73
X1.83Y-6.74
X1.83Y-6.75
X1.83Y-6.76
X1.83Y-6.77
X1.83Y-6.78
X1.83Y-6.79
X1.83Y-6.8
X1.83Y-6.81
X1.83Y-6.82
X1.83Y-6.83
X1.83Y-6.91
X1.83Y-6.92
X1.83Y-6.93
X1.83Y-6.94
X1.83Y-6.95
X1.83Y-6.96
X1.83Y-6.97
X1.83Y-6.98
X1.83Y-7.06
X1.87Y-7.03
X1.88Y-5.97
X1.88Y-7.48
X1.89Y-7.61
X1.9Y-7.12
X1.9Y-7.13
X1.9Y-7.14
X1.9Y-7.65
X1.91Y-6.99
X1.91Y-7.12
X1.91Y-7.13
X1.91Y-7.2
X1.91Y-7.77
X1.92Y-7.12
X1.92Y-7.19
X1.92Y-7.2
X1.92Y-7.71
X1.93Y-6.03
X1.93Y-7.09
X1.93Y-7.18
X1.93Y-7.19
X1.93Y-7.2
X1.94Y-7.17
X1.94Y-7.18
X1.94Y-7.19
X1.94Y-7.2
X1.95Y-7.16
X1.95Y-7.17
X1.95Y-7.18
X1.95Y-7.19
X1.95Y-7.2
X1.96Y-7.07
X1.96Y-7.39
X1.98Y-7.26
X1.98Y-7.35
X1.98Y-7.71
X1.99Y-5.97
X2.0Y-7.13
X2.01Y-7.01
X2.02Y-6.98
X2.02Y-7.52
X2.03Y-6.1
X2.03Y-7.56
X2.05Y-6.04
X2.06Y-6.98
X2.06Y-7.34
X2.07Y-6.0
X2.07Y-7.04
X2.07Y-7.17
X2.08Y-6.09
X2.08Y-7.48
X2.09Y-7.62
X2.09Y-7.77
X2.1Y-7.41
X2.11Y-7.27
X2.12Y-6.05
X2.12Y-6.09
X2.12Y-6.13
X2.12Y-7.17
X2.13Y-7.0
X2.13Y-7.08
X2.13Y-7.49
X2.15Y-6.0
X2.15Y-7.11
X2.16Y-6.08
X2.16Y-7.01
X2.16Y-7.16
X2.17Y-6.99
X2.18Y-6.32
X2.18Y-7.19
X2.18Y-7.4
X2.19Y-6.32
X2.2Y-6.27
X2.2Y-6.29
X2.2Y-6.32
X2.2Y-7.21
X2.21Y-6.32
X2.21Y-7.11
X2.21Y-7.14
X2.21Y-7.35
X2.22Y-6.01
X2.22Y-6.32
X2.22Y-6.37
X2.23Y-5.98
X2.23Y-6.12
X2.23Y-6.27
X2.23Y-6.28
X2.23Y-6.29
X2.23Y-6.3
X2.23Y-6.31
X2.23Y-6.32
X2.23Y-7.43
X2.23Y-7.66
X2.23Y-7.78
X2.25Y-6.37
X2.25Y-7.56
X2.26Y-7.17
X2.27Y-6.32
X2.27Y-7.0
X2.27Y-7.19
X2.29Y-7.01
X2.29Y-7.18
X2.29Y-7.21
X2.35Y-7.66
X2.36Y-7.55
X2.37Y-6.64
X2.39Y-7.06
X2.39Y-7.13
X2.39Y-7.21
X2.39Y-7.25
X2.39Y-7.45
X2.4Y-7.3
X2.4Y-7.35
X2.4Y-7.49
X2.41Y-6.61
X2.41Y-7.28
X2.42Y-7.33
X2.42Y-7.41
X2.43Y-6.58
X2.43Y-7.24
X2.44Y-6.76
X2.45Y-7.27
X2.45Y-7.3
X2.45Y-7.6
X2.46Y-6.32
X2.46Y-6.66
X2.47Y-6.23
X2.47Y-7.28
X2.48Y-6.17
X2.48Y-6.26
X2.48Y-6.34
X2.48Y-7.16
X2.48Y-7.23
X2.48Y-7.36
X2.48Y-7.49
X2.49Y-6.86
X2.49Y-7.44
X2.5Y-7.4
X2.51Y-6.2
X2.51Y-6.76
X2.52Y-6.26
X2.52Y-7.34
X2.53Y-5.96
X2.53Y-6.89
X2.53Y-7.05
X2.53Y-7.21
X2.54Y-6.58
X2.54Y-6.63
X2.54Y-7.1
X2.54Y-7.55
X2.55Y-7.07
X2.55Y-7.13
X2.55Y-7.38
X2.55Y-7.42
X2.56Y-6.28
X2.56Y-7.05
X2.56Y-7.5
X2.57Y-6.86
X2.57Y-6.92
X2.57Y-7.07
X2.57Y-7.09
X2.57Y-7.11
X2.57Y-7.49
X2.58Y-6.76
X2.58Y-7.14
X2.59Y-7.33
X2.6Y-6.31
X2.6Y-6.66
X2.6Y-7.6
X2.61Y-6.89
X2.62Y-6.98
X2.63Y-5.96
X2.63Y-6.86
X2.63Y-7.05
X2.64Y-6.61
X2.64Y-6.76
X2.65Y-7.1
X2.66Y-6.35
X2.67Y-6.17
X2.67Y-6.36
X2.68Y-6.92
X2.68Y-6.95
X2.68Y-7.1
X2.68Y-7.55
X2.69Y-6.3
X2.69Y-6.76
X2.7Y-6.58
X2.7Y-6.66
X2.71Y-5.96
X2.71Y-6.99
X2.72Y-6.17
X2.72Y-6.87
X2.72Y-7.5
X2.74Y-6.76
X2.74Y-6.9
X2.74Y-7.05
X2.74Y-7.52
X2.75Y-6.24
X2.76Y-6.31
X2.76Y-6.37
X2.77Y-6.14
X2.77Y-6.66
X2.77Y-6.94
X2.77Y-7.11
X2.78Y-6.9
X2.79Y-6.1
X2.79Y-6.17
X2.79Y-6.25
X2.79Y-6.99
X2.81Y-6.92
X2.81Y-7.51
X2.82Y-6.34
X2.82Y-6.47
X2.82Y-6.88
X2.82Y-7.54
X2.83Y-6.38
X2.83Y-6.76
X2.83Y-6.95
X2.84Y-6.29
X2.84Y-6.51
X2.84Y-7.39
X2.85Y-5.97
X2.85Y-6.9
X2.85Y-7.2
X2.85Y-7.6
X2.86Y-6.48
X2.86Y-6.74
X2.86Y-6.74
X2.86Y-7.05
X2.86Y-7.38
X2.87Y-7.11
X2.88Y-6.25
X2.88Y-6.87
X2.88Y-6.94
X2.88Y-6.99
X2.88Y-7.34
X2.89Y-6.47
X2.89Y-6.53
X2.89Y-7.53
X2.9Y-5.99
X2.9Y-6.5
X2.91Y-6.47
X2.91Y-6.53
X2.91Y-6.82
X2.91Y-6.93
X2.91Y-7.15
X2.91Y-7.3
X2.91Y-7.37
X2.92Y-6.14
X2.92Y-6.5
X2.92Y-6.57
X2.92Y-7.5
X2.93Y-6.04
X2.93Y-6.47
X2.93Y-6.53
X2.93Y-6.91
X2.93Y-7.05
X2.93Y-7.28
X2.93Y-7.33
X2.94Y-6.83
X2.94Y-6.96
X2.95Y-6.56
X2.95Y-7.08
X2.95Y-7.3
X2.96Y-6.86
X2.96Y-6.99
X2.96Y-7.11
X2.97Y-6.52
X2.97Y-6.64
X2.97Y-7.33
X2.97Y-7.38
X2.98Y-7.36
X3.0Y-6.42
X3.0Y-6.44
X3.02Y-6.42
X3.02Y-6.44
X3.02Y-6.46
X3.03Y-6.46
X3.03Y-6.48
X3.04Y-6.42
X3.04Y-6.44
X3.04Y-6.46
X3.04Y-6.47
X3.05Y-6.46
X3.06Y-6.42
X3.06Y-6.44
X3.06Y-6.53
X3.07Y-6.52
X3.07Y-6.54
X3.09Y-7.63
X3.1Y-6.65
X3.11Y-6.57
X3.13Y-6.63
X3.17Y-6.47
X3.17Y-6.5
X3.17Y-6.53
X3.17Y-7.74
X3.19Y-6.47
X3.19Y-6.5
X3.19Y-6.53
X3.19Y-7.63
X3.19Y-7.78
X3.2Y-6.86
X3.21Y-6.47
X3.21Y-6.5
X3.21Y-6.53
X3.21Y-6.74
X3.21Y-7.01
X3.21Y-7.71
X3.24Y-6.67
X3.25Y-7.12
X3.25Y-7.78
T2
X2.6509Y-7.1942
X2.6509Y-7.2543
X2.6809Y-7.1642
X2.6809Y-7.2242
X2.6809Y-7.2843
X2.711Y-7.1942
X2.711Y-7.2543
X2.741Y-7.1642
X2.741Y-7.2242
X2.741Y-7.2843
X2.771Y-7.1942
X2.771Y-7.2543
T3
X1.424Y-6.584
X1.649Y-6.624
X1.6985Y-6.4026
X1.7897Y-6.5738
X1.8954Y-6.6053
X1.9535Y-6.4711
X2.0022Y-6.4194
X2.0577Y-6.4363
X2.1106Y-6.3717
X2.1379Y-6.4126
X2.2285Y-7.0493
X2.2707Y-6.6748
X2.2797Y-6.5101
X2.2815Y-6.9648
X2.363Y-6.553
X2.4694Y-6.974
X2.5079Y-6.956
X2.6187Y-7.4481
X2.9257Y-7.632
X2.9271Y-7.2333
X3.0891Y-7.0941
X3.0947Y-7.0196
T4
X0.69Y-6.03
X0.7406Y-6.56
X0.7406Y-6.67
X0.79Y-6.03
X0.8406Y-6.56
X0.8406Y-6.67
X0.89Y-6.03
X0.9406Y-6.56
X0.9406Y-6.67
X1.1Y-6.03
X1.2Y-6.03
X1.634Y-7.5322
X1.634Y-7.6322
X1.634Y-7.7322
X1.734Y-7.5322
X1.734Y-7.6322
X1.734Y-7.7322
X1.834Y-7.531
X1.834Y-7.631
X1.834Y-7.731
X1.95Y-6.725
X1.95Y-6.825
X1.95Y-6.925
X2.05Y-6.725
X2.05Y-6.825
X2.05Y-6.925
X2.15Y-6.7244
X2.15Y-6.8244
X2.15Y-6.9244
X3.0Y-6.0206
X3.0Y-6.1206
X3.0Y-6.2206
X3.1Y-6.0206
X3.1Y-6.1206
X3.1Y-6.2206
X3.172Y-7.191
X3.172Y-7.291
X3.172Y-7.391
X3.2Y-6.02
X3.2Y-6.12
X3.2Y-6.22
T5
X0.7Y-6.85
X0.7Y-7.075
X0.7Y-7.3
X0.7Y-7.525
X0.7031Y-6.2
X0.8969Y-6.85
X0.8969Y-7.075
X0.8969Y-7.3
X0.8969Y-7.525
X0.9Y-6.2
T0
M30
