%TF.GenerationSoftware,KiCad,Pcbnew,(6.0.9)*%
%TF.CreationDate,2023-02-03T20:00:34+01:00*%
%TF.ProjectId,jf-ecu32,6a662d65-6375-4333-922e-6b696361645f,rev?*%
%TF.SameCoordinates,Original*%
%TF.FileFunction,Legend,Top*%
%TF.FilePolarity,Positive*%
%FSLAX46Y46*%
G04 Gerber Fmt 4.6, Leading zero omitted, Abs format (unit mm)*
G04 Created by KiCad (PCBNEW (6.0.9)) date 2023-02-03 20:00:34*
%MOMM*%
%LPD*%
G01*
G04 APERTURE LIST*
%ADD10C,0.150000*%
%ADD11C,0.120000*%
G04 APERTURE END LIST*
D10*
%TO.C,GND*%
X66675095Y-168029000D02*
X66579857Y-167981380D01*
X66437000Y-167981380D01*
X66294142Y-168029000D01*
X66198904Y-168124238D01*
X66151285Y-168219476D01*
X66103666Y-168409952D01*
X66103666Y-168552809D01*
X66151285Y-168743285D01*
X66198904Y-168838523D01*
X66294142Y-168933761D01*
X66437000Y-168981380D01*
X66532238Y-168981380D01*
X66675095Y-168933761D01*
X66722714Y-168886142D01*
X66722714Y-168552809D01*
X66532238Y-168552809D01*
X67151285Y-168981380D02*
X67151285Y-167981380D01*
X67722714Y-168981380D01*
X67722714Y-167981380D01*
X68198904Y-168981380D02*
X68198904Y-167981380D01*
X68437000Y-167981380D01*
X68579857Y-168029000D01*
X68675095Y-168124238D01*
X68722714Y-168219476D01*
X68770333Y-168409952D01*
X68770333Y-168552809D01*
X68722714Y-168743285D01*
X68675095Y-168838523D01*
X68579857Y-168933761D01*
X68437000Y-168981380D01*
X68198904Y-168981380D01*
%TO.C,Q5*%
X37758619Y-185515238D02*
X37711000Y-185610476D01*
X37615761Y-185705714D01*
X37472904Y-185848571D01*
X37425285Y-185943809D01*
X37425285Y-186039047D01*
X37663380Y-185991428D02*
X37615761Y-186086666D01*
X37520523Y-186181904D01*
X37330047Y-186229523D01*
X36996714Y-186229523D01*
X36806238Y-186181904D01*
X36711000Y-186086666D01*
X36663380Y-185991428D01*
X36663380Y-185800952D01*
X36711000Y-185705714D01*
X36806238Y-185610476D01*
X36996714Y-185562857D01*
X37330047Y-185562857D01*
X37520523Y-185610476D01*
X37615761Y-185705714D01*
X37663380Y-185800952D01*
X37663380Y-185991428D01*
X36663380Y-184658095D02*
X36663380Y-185134285D01*
X37139571Y-185181904D01*
X37091952Y-185134285D01*
X37044333Y-185039047D01*
X37044333Y-184800952D01*
X37091952Y-184705714D01*
X37139571Y-184658095D01*
X37234809Y-184610476D01*
X37472904Y-184610476D01*
X37568142Y-184658095D01*
X37615761Y-184705714D01*
X37663380Y-184800952D01*
X37663380Y-185039047D01*
X37615761Y-185134285D01*
X37568142Y-185181904D01*
%TO.C,TCK*%
X71358285Y-169342380D02*
X71929714Y-169342380D01*
X71644000Y-170342380D02*
X71644000Y-169342380D01*
X72834476Y-170247142D02*
X72786857Y-170294761D01*
X72644000Y-170342380D01*
X72548761Y-170342380D01*
X72405904Y-170294761D01*
X72310666Y-170199523D01*
X72263047Y-170104285D01*
X72215428Y-169913809D01*
X72215428Y-169770952D01*
X72263047Y-169580476D01*
X72310666Y-169485238D01*
X72405904Y-169390000D01*
X72548761Y-169342380D01*
X72644000Y-169342380D01*
X72786857Y-169390000D01*
X72834476Y-169437619D01*
X73263047Y-170342380D02*
X73263047Y-169342380D01*
X73834476Y-170342380D02*
X73405904Y-169770952D01*
X73834476Y-169342380D02*
X73263047Y-169913809D01*
%TO.C,Q6*%
X37631619Y-191865238D02*
X37584000Y-191960476D01*
X37488761Y-192055714D01*
X37345904Y-192198571D01*
X37298285Y-192293809D01*
X37298285Y-192389047D01*
X37536380Y-192341428D02*
X37488761Y-192436666D01*
X37393523Y-192531904D01*
X37203047Y-192579523D01*
X36869714Y-192579523D01*
X36679238Y-192531904D01*
X36584000Y-192436666D01*
X36536380Y-192341428D01*
X36536380Y-192150952D01*
X36584000Y-192055714D01*
X36679238Y-191960476D01*
X36869714Y-191912857D01*
X37203047Y-191912857D01*
X37393523Y-191960476D01*
X37488761Y-192055714D01*
X37536380Y-192150952D01*
X37536380Y-192341428D01*
X36536380Y-191055714D02*
X36536380Y-191246190D01*
X36584000Y-191341428D01*
X36631619Y-191389047D01*
X36774476Y-191484285D01*
X36964952Y-191531904D01*
X37345904Y-191531904D01*
X37441142Y-191484285D01*
X37488761Y-191436666D01*
X37536380Y-191341428D01*
X37536380Y-191150952D01*
X37488761Y-191055714D01*
X37441142Y-191008095D01*
X37345904Y-190960476D01*
X37107809Y-190960476D01*
X37012571Y-191008095D01*
X36964952Y-191055714D01*
X36917333Y-191150952D01*
X36917333Y-191341428D01*
X36964952Y-191436666D01*
X37012571Y-191484285D01*
X37107809Y-191531904D01*
%TO.C,R4*%
X23582333Y-162758380D02*
X23249000Y-162282190D01*
X23010904Y-162758380D02*
X23010904Y-161758380D01*
X23391857Y-161758380D01*
X23487095Y-161806000D01*
X23534714Y-161853619D01*
X23582333Y-161948857D01*
X23582333Y-162091714D01*
X23534714Y-162186952D01*
X23487095Y-162234571D01*
X23391857Y-162282190D01*
X23010904Y-162282190D01*
X24439476Y-162091714D02*
X24439476Y-162758380D01*
X24201380Y-161710761D02*
X23963285Y-162425047D01*
X24582333Y-162425047D01*
%TO.C,C2*%
X36933142Y-167044666D02*
X36980761Y-167092285D01*
X37028380Y-167235142D01*
X37028380Y-167330380D01*
X36980761Y-167473238D01*
X36885523Y-167568476D01*
X36790285Y-167616095D01*
X36599809Y-167663714D01*
X36456952Y-167663714D01*
X36266476Y-167616095D01*
X36171238Y-167568476D01*
X36076000Y-167473238D01*
X36028380Y-167330380D01*
X36028380Y-167235142D01*
X36076000Y-167092285D01*
X36123619Y-167044666D01*
X36123619Y-166663714D02*
X36076000Y-166616095D01*
X36028380Y-166520857D01*
X36028380Y-166282761D01*
X36076000Y-166187523D01*
X36123619Y-166139904D01*
X36218857Y-166092285D01*
X36314095Y-166092285D01*
X36456952Y-166139904D01*
X37028380Y-166711333D01*
X37028380Y-166092285D01*
%TO.C,BOOT1*%
X59415371Y-169701933D02*
X59462990Y-169559076D01*
X59510609Y-169511457D01*
X59605847Y-169463838D01*
X59748704Y-169463838D01*
X59843942Y-169511457D01*
X59891561Y-169559076D01*
X59939180Y-169654314D01*
X59939180Y-170035266D01*
X58939180Y-170035266D01*
X58939180Y-169701933D01*
X58986800Y-169606695D01*
X59034419Y-169559076D01*
X59129657Y-169511457D01*
X59224895Y-169511457D01*
X59320133Y-169559076D01*
X59367752Y-169606695D01*
X59415371Y-169701933D01*
X59415371Y-170035266D01*
X58939180Y-168844790D02*
X58939180Y-168654314D01*
X58986800Y-168559076D01*
X59082038Y-168463838D01*
X59272514Y-168416219D01*
X59605847Y-168416219D01*
X59796323Y-168463838D01*
X59891561Y-168559076D01*
X59939180Y-168654314D01*
X59939180Y-168844790D01*
X59891561Y-168940028D01*
X59796323Y-169035266D01*
X59605847Y-169082885D01*
X59272514Y-169082885D01*
X59082038Y-169035266D01*
X58986800Y-168940028D01*
X58939180Y-168844790D01*
X58939180Y-167797171D02*
X58939180Y-167606695D01*
X58986800Y-167511457D01*
X59082038Y-167416219D01*
X59272514Y-167368600D01*
X59605847Y-167368600D01*
X59796323Y-167416219D01*
X59891561Y-167511457D01*
X59939180Y-167606695D01*
X59939180Y-167797171D01*
X59891561Y-167892409D01*
X59796323Y-167987647D01*
X59605847Y-168035266D01*
X59272514Y-168035266D01*
X59082038Y-167987647D01*
X58986800Y-167892409D01*
X58939180Y-167797171D01*
X58939180Y-167082885D02*
X58939180Y-166511457D01*
X59939180Y-166797171D02*
X58939180Y-166797171D01*
X59939180Y-165654314D02*
X59939180Y-166225742D01*
X59939180Y-165940028D02*
X58939180Y-165940028D01*
X59082038Y-166035266D01*
X59177276Y-166130504D01*
X59224895Y-166225742D01*
%TO.C,C7*%
X37996533Y-163933142D02*
X37948914Y-163980761D01*
X37806057Y-164028380D01*
X37710819Y-164028380D01*
X37567961Y-163980761D01*
X37472723Y-163885523D01*
X37425104Y-163790285D01*
X37377485Y-163599809D01*
X37377485Y-163456952D01*
X37425104Y-163266476D01*
X37472723Y-163171238D01*
X37567961Y-163076000D01*
X37710819Y-163028380D01*
X37806057Y-163028380D01*
X37948914Y-163076000D01*
X37996533Y-163123619D01*
X38329866Y-163028380D02*
X38996533Y-163028380D01*
X38567961Y-164028380D01*
%TO.C,C4*%
X48761142Y-155274666D02*
X48808761Y-155322285D01*
X48856380Y-155465142D01*
X48856380Y-155560380D01*
X48808761Y-155703238D01*
X48713523Y-155798476D01*
X48618285Y-155846095D01*
X48427809Y-155893714D01*
X48284952Y-155893714D01*
X48094476Y-155846095D01*
X47999238Y-155798476D01*
X47904000Y-155703238D01*
X47856380Y-155560380D01*
X47856380Y-155465142D01*
X47904000Y-155322285D01*
X47951619Y-155274666D01*
X48189714Y-154417523D02*
X48856380Y-154417523D01*
X47808761Y-154655619D02*
X48523047Y-154893714D01*
X48523047Y-154274666D01*
%TO.C,J16*%
X54062380Y-179498523D02*
X54776666Y-179498523D01*
X54919523Y-179546142D01*
X55014761Y-179641380D01*
X55062380Y-179784238D01*
X55062380Y-179879476D01*
X55062380Y-178498523D02*
X55062380Y-179069952D01*
X55062380Y-178784238D02*
X54062380Y-178784238D01*
X54205238Y-178879476D01*
X54300476Y-178974714D01*
X54348095Y-179069952D01*
X54062380Y-177641380D02*
X54062380Y-177831857D01*
X54110000Y-177927095D01*
X54157619Y-177974714D01*
X54300476Y-178069952D01*
X54490952Y-178117571D01*
X54871904Y-178117571D01*
X54967142Y-178069952D01*
X55014761Y-178022333D01*
X55062380Y-177927095D01*
X55062380Y-177736619D01*
X55014761Y-177641380D01*
X54967142Y-177593761D01*
X54871904Y-177546142D01*
X54633809Y-177546142D01*
X54538571Y-177593761D01*
X54490952Y-177641380D01*
X54443333Y-177736619D01*
X54443333Y-177927095D01*
X54490952Y-178022333D01*
X54538571Y-178069952D01*
X54633809Y-178117571D01*
%TO.C,TDI*%
X47363190Y-160579380D02*
X47934619Y-160579380D01*
X47648904Y-161579380D02*
X47648904Y-160579380D01*
X48267952Y-161579380D02*
X48267952Y-160579380D01*
X48506047Y-160579380D01*
X48648904Y-160627000D01*
X48744142Y-160722238D01*
X48791761Y-160817476D01*
X48839380Y-161007952D01*
X48839380Y-161150809D01*
X48791761Y-161341285D01*
X48744142Y-161436523D01*
X48648904Y-161531761D01*
X48506047Y-161579380D01*
X48267952Y-161579380D01*
X49267952Y-161579380D02*
X49267952Y-160579380D01*
%TO.C,D17*%
X62158714Y-162885380D02*
X62158714Y-161885380D01*
X62396809Y-161885380D01*
X62539666Y-161933000D01*
X62634904Y-162028238D01*
X62682523Y-162123476D01*
X62730142Y-162313952D01*
X62730142Y-162456809D01*
X62682523Y-162647285D01*
X62634904Y-162742523D01*
X62539666Y-162837761D01*
X62396809Y-162885380D01*
X62158714Y-162885380D01*
X63682523Y-162885380D02*
X63111095Y-162885380D01*
X63396809Y-162885380D02*
X63396809Y-161885380D01*
X63301571Y-162028238D01*
X63206333Y-162123476D01*
X63111095Y-162171095D01*
X64015857Y-161885380D02*
X64682523Y-161885380D01*
X64253952Y-162885380D01*
%TO.C,J19*%
X79759276Y-179773780D02*
X79759276Y-180488066D01*
X79711657Y-180630923D01*
X79616419Y-180726161D01*
X79473561Y-180773780D01*
X79378323Y-180773780D01*
X80759276Y-180773780D02*
X80187847Y-180773780D01*
X80473561Y-180773780D02*
X80473561Y-179773780D01*
X80378323Y-179916638D01*
X80283085Y-180011876D01*
X80187847Y-180059495D01*
X81235466Y-180773780D02*
X81425942Y-180773780D01*
X81521180Y-180726161D01*
X81568800Y-180678542D01*
X81664038Y-180535685D01*
X81711657Y-180345209D01*
X81711657Y-179964257D01*
X81664038Y-179869019D01*
X81616419Y-179821400D01*
X81521180Y-179773780D01*
X81330704Y-179773780D01*
X81235466Y-179821400D01*
X81187847Y-179869019D01*
X81140228Y-179964257D01*
X81140228Y-180202352D01*
X81187847Y-180297590D01*
X81235466Y-180345209D01*
X81330704Y-180392828D01*
X81521180Y-180392828D01*
X81616419Y-180345209D01*
X81664038Y-180297590D01*
X81711657Y-180202352D01*
%TO.C,R3*%
X20534333Y-162504380D02*
X20201000Y-162028190D01*
X19962904Y-162504380D02*
X19962904Y-161504380D01*
X20343857Y-161504380D01*
X20439095Y-161552000D01*
X20486714Y-161599619D01*
X20534333Y-161694857D01*
X20534333Y-161837714D01*
X20486714Y-161932952D01*
X20439095Y-161980571D01*
X20343857Y-162028190D01*
X19962904Y-162028190D01*
X20867666Y-161504380D02*
X21486714Y-161504380D01*
X21153380Y-161885333D01*
X21296238Y-161885333D01*
X21391476Y-161932952D01*
X21439095Y-161980571D01*
X21486714Y-162075809D01*
X21486714Y-162313904D01*
X21439095Y-162409142D01*
X21391476Y-162456761D01*
X21296238Y-162504380D01*
X21010523Y-162504380D01*
X20915285Y-162456761D01*
X20867666Y-162409142D01*
%TO.C,R11*%
X40203380Y-173235857D02*
X39727190Y-173569190D01*
X40203380Y-173807285D02*
X39203380Y-173807285D01*
X39203380Y-173426333D01*
X39251000Y-173331095D01*
X39298619Y-173283476D01*
X39393857Y-173235857D01*
X39536714Y-173235857D01*
X39631952Y-173283476D01*
X39679571Y-173331095D01*
X39727190Y-173426333D01*
X39727190Y-173807285D01*
X40203380Y-172283476D02*
X40203380Y-172854904D01*
X40203380Y-172569190D02*
X39203380Y-172569190D01*
X39346238Y-172664428D01*
X39441476Y-172759666D01*
X39489095Y-172854904D01*
X40203380Y-171331095D02*
X40203380Y-171902523D01*
X40203380Y-171616809D02*
X39203380Y-171616809D01*
X39346238Y-171712047D01*
X39441476Y-171807285D01*
X39489095Y-171902523D01*
%TO.C,J18*%
X45934380Y-189277523D02*
X46648666Y-189277523D01*
X46791523Y-189325142D01*
X46886761Y-189420380D01*
X46934380Y-189563238D01*
X46934380Y-189658476D01*
X46934380Y-188277523D02*
X46934380Y-188848952D01*
X46934380Y-188563238D02*
X45934380Y-188563238D01*
X46077238Y-188658476D01*
X46172476Y-188753714D01*
X46220095Y-188848952D01*
X46362952Y-187706095D02*
X46315333Y-187801333D01*
X46267714Y-187848952D01*
X46172476Y-187896571D01*
X46124857Y-187896571D01*
X46029619Y-187848952D01*
X45982000Y-187801333D01*
X45934380Y-187706095D01*
X45934380Y-187515619D01*
X45982000Y-187420380D01*
X46029619Y-187372761D01*
X46124857Y-187325142D01*
X46172476Y-187325142D01*
X46267714Y-187372761D01*
X46315333Y-187420380D01*
X46362952Y-187515619D01*
X46362952Y-187706095D01*
X46410571Y-187801333D01*
X46458190Y-187848952D01*
X46553428Y-187896571D01*
X46743904Y-187896571D01*
X46839142Y-187848952D01*
X46886761Y-187801333D01*
X46934380Y-187706095D01*
X46934380Y-187515619D01*
X46886761Y-187420380D01*
X46839142Y-187372761D01*
X46743904Y-187325142D01*
X46553428Y-187325142D01*
X46458190Y-187372761D01*
X46410571Y-187420380D01*
X46362952Y-187515619D01*
%TO.C,J7*%
X15933380Y-166957333D02*
X16647666Y-166957333D01*
X16790523Y-167004952D01*
X16885761Y-167100190D01*
X16933380Y-167243047D01*
X16933380Y-167338285D01*
X15933380Y-166576380D02*
X15933380Y-165909714D01*
X16933380Y-166338285D01*
%TO.C,D12*%
X81325980Y-169844885D02*
X80325980Y-169844885D01*
X80325980Y-169606790D01*
X80373600Y-169463933D01*
X80468838Y-169368695D01*
X80564076Y-169321076D01*
X80754552Y-169273457D01*
X80897409Y-169273457D01*
X81087885Y-169321076D01*
X81183123Y-169368695D01*
X81278361Y-169463933D01*
X81325980Y-169606790D01*
X81325980Y-169844885D01*
X81325980Y-168321076D02*
X81325980Y-168892504D01*
X81325980Y-168606790D02*
X80325980Y-168606790D01*
X80468838Y-168702028D01*
X80564076Y-168797266D01*
X80611695Y-168892504D01*
X80421219Y-167940123D02*
X80373600Y-167892504D01*
X80325980Y-167797266D01*
X80325980Y-167559171D01*
X80373600Y-167463933D01*
X80421219Y-167416314D01*
X80516457Y-167368695D01*
X80611695Y-167368695D01*
X80754552Y-167416314D01*
X81325980Y-167987742D01*
X81325980Y-167368695D01*
%TO.C,J4*%
X40955980Y-189320733D02*
X41670266Y-189320733D01*
X41813123Y-189368352D01*
X41908361Y-189463590D01*
X41955980Y-189606447D01*
X41955980Y-189701685D01*
X41289314Y-188415971D02*
X41955980Y-188415971D01*
X40908361Y-188654066D02*
X41622647Y-188892161D01*
X41622647Y-188273114D01*
%TO.C,J15*%
X43267380Y-189404523D02*
X43981666Y-189404523D01*
X44124523Y-189452142D01*
X44219761Y-189547380D01*
X44267380Y-189690238D01*
X44267380Y-189785476D01*
X44267380Y-188404523D02*
X44267380Y-188975952D01*
X44267380Y-188690238D02*
X43267380Y-188690238D01*
X43410238Y-188785476D01*
X43505476Y-188880714D01*
X43553095Y-188975952D01*
X43267380Y-187499761D02*
X43267380Y-187975952D01*
X43743571Y-188023571D01*
X43695952Y-187975952D01*
X43648333Y-187880714D01*
X43648333Y-187642619D01*
X43695952Y-187547380D01*
X43743571Y-187499761D01*
X43838809Y-187452142D01*
X44076904Y-187452142D01*
X44172142Y-187499761D01*
X44219761Y-187547380D01*
X44267380Y-187642619D01*
X44267380Y-187880714D01*
X44219761Y-187975952D01*
X44172142Y-188023571D01*
%TO.C,J10*%
X32218380Y-153971523D02*
X32932666Y-153971523D01*
X33075523Y-154019142D01*
X33170761Y-154114380D01*
X33218380Y-154257238D01*
X33218380Y-154352476D01*
X33218380Y-152971523D02*
X33218380Y-153542952D01*
X33218380Y-153257238D02*
X32218380Y-153257238D01*
X32361238Y-153352476D01*
X32456476Y-153447714D01*
X32504095Y-153542952D01*
X32218380Y-152352476D02*
X32218380Y-152257238D01*
X32266000Y-152162000D01*
X32313619Y-152114380D01*
X32408857Y-152066761D01*
X32599333Y-152019142D01*
X32837428Y-152019142D01*
X33027904Y-152066761D01*
X33123142Y-152114380D01*
X33170761Y-152162000D01*
X33218380Y-152257238D01*
X33218380Y-152352476D01*
X33170761Y-152447714D01*
X33123142Y-152495333D01*
X33027904Y-152542952D01*
X32837428Y-152590571D01*
X32599333Y-152590571D01*
X32408857Y-152542952D01*
X32313619Y-152495333D01*
X32266000Y-152447714D01*
X32218380Y-152352476D01*
%TO.C,R7*%
X40711380Y-185586666D02*
X40235190Y-185920000D01*
X40711380Y-186158095D02*
X39711380Y-186158095D01*
X39711380Y-185777142D01*
X39759000Y-185681904D01*
X39806619Y-185634285D01*
X39901857Y-185586666D01*
X40044714Y-185586666D01*
X40139952Y-185634285D01*
X40187571Y-185681904D01*
X40235190Y-185777142D01*
X40235190Y-186158095D01*
X39711380Y-185253333D02*
X39711380Y-184586666D01*
X40711380Y-185015238D01*
%TO.C,TMS*%
X57975666Y-162484380D02*
X58547095Y-162484380D01*
X58261380Y-163484380D02*
X58261380Y-162484380D01*
X58880428Y-163484380D02*
X58880428Y-162484380D01*
X59213761Y-163198666D01*
X59547095Y-162484380D01*
X59547095Y-163484380D01*
X59975666Y-163436761D02*
X60118523Y-163484380D01*
X60356619Y-163484380D01*
X60451857Y-163436761D01*
X60499476Y-163389142D01*
X60547095Y-163293904D01*
X60547095Y-163198666D01*
X60499476Y-163103428D01*
X60451857Y-163055809D01*
X60356619Y-163008190D01*
X60166142Y-162960571D01*
X60070904Y-162912952D01*
X60023285Y-162865333D01*
X59975666Y-162770095D01*
X59975666Y-162674857D01*
X60023285Y-162579619D01*
X60070904Y-162532000D01*
X60166142Y-162484380D01*
X60404238Y-162484380D01*
X60547095Y-162532000D01*
%TO.C,R12*%
X31694380Y-165107857D02*
X31218190Y-165441190D01*
X31694380Y-165679285D02*
X30694380Y-165679285D01*
X30694380Y-165298333D01*
X30742000Y-165203095D01*
X30789619Y-165155476D01*
X30884857Y-165107857D01*
X31027714Y-165107857D01*
X31122952Y-165155476D01*
X31170571Y-165203095D01*
X31218190Y-165298333D01*
X31218190Y-165679285D01*
X31694380Y-164155476D02*
X31694380Y-164726904D01*
X31694380Y-164441190D02*
X30694380Y-164441190D01*
X30837238Y-164536428D01*
X30932476Y-164631666D01*
X30980095Y-164726904D01*
X30789619Y-163774523D02*
X30742000Y-163726904D01*
X30694380Y-163631666D01*
X30694380Y-163393571D01*
X30742000Y-163298333D01*
X30789619Y-163250714D01*
X30884857Y-163203095D01*
X30980095Y-163203095D01*
X31122952Y-163250714D01*
X31694380Y-163822142D01*
X31694380Y-163203095D01*
%TO.C,J9*%
X25868380Y-181308333D02*
X26582666Y-181308333D01*
X26725523Y-181355952D01*
X26820761Y-181451190D01*
X26868380Y-181594047D01*
X26868380Y-181689285D01*
X26868380Y-180784523D02*
X26868380Y-180594047D01*
X26820761Y-180498809D01*
X26773142Y-180451190D01*
X26630285Y-180355952D01*
X26439809Y-180308333D01*
X26058857Y-180308333D01*
X25963619Y-180355952D01*
X25916000Y-180403571D01*
X25868380Y-180498809D01*
X25868380Y-180689285D01*
X25916000Y-180784523D01*
X25963619Y-180832142D01*
X26058857Y-180879761D01*
X26296952Y-180879761D01*
X26392190Y-180832142D01*
X26439809Y-180784523D01*
X26487428Y-180689285D01*
X26487428Y-180498809D01*
X26439809Y-180403571D01*
X26392190Y-180355952D01*
X26296952Y-180308333D01*
X13208571Y-179812142D02*
X14351428Y-179812142D01*
X13780000Y-180383571D02*
X13780000Y-179240714D01*
X26208571Y-179812142D02*
X27351428Y-179812142D01*
%TO.C,Q4*%
X36996619Y-179038238D02*
X36949000Y-179133476D01*
X36853761Y-179228714D01*
X36710904Y-179371571D01*
X36663285Y-179466809D01*
X36663285Y-179562047D01*
X36901380Y-179514428D02*
X36853761Y-179609666D01*
X36758523Y-179704904D01*
X36568047Y-179752523D01*
X36234714Y-179752523D01*
X36044238Y-179704904D01*
X35949000Y-179609666D01*
X35901380Y-179514428D01*
X35901380Y-179323952D01*
X35949000Y-179228714D01*
X36044238Y-179133476D01*
X36234714Y-179085857D01*
X36568047Y-179085857D01*
X36758523Y-179133476D01*
X36853761Y-179228714D01*
X36901380Y-179323952D01*
X36901380Y-179514428D01*
X36234714Y-178228714D02*
X36901380Y-178228714D01*
X35853761Y-178466809D02*
X36568047Y-178704904D01*
X36568047Y-178085857D01*
%TO.C,R2*%
X43013333Y-169917380D02*
X42680000Y-169441190D01*
X42441904Y-169917380D02*
X42441904Y-168917380D01*
X42822857Y-168917380D01*
X42918095Y-168965000D01*
X42965714Y-169012619D01*
X43013333Y-169107857D01*
X43013333Y-169250714D01*
X42965714Y-169345952D01*
X42918095Y-169393571D01*
X42822857Y-169441190D01*
X42441904Y-169441190D01*
X43394285Y-169012619D02*
X43441904Y-168965000D01*
X43537142Y-168917380D01*
X43775238Y-168917380D01*
X43870476Y-168965000D01*
X43918095Y-169012619D01*
X43965714Y-169107857D01*
X43965714Y-169203095D01*
X43918095Y-169345952D01*
X43346666Y-169917380D01*
X43965714Y-169917380D01*
%TO.C,D11*%
X29392714Y-159964380D02*
X29392714Y-158964380D01*
X29630809Y-158964380D01*
X29773666Y-159012000D01*
X29868904Y-159107238D01*
X29916523Y-159202476D01*
X29964142Y-159392952D01*
X29964142Y-159535809D01*
X29916523Y-159726285D01*
X29868904Y-159821523D01*
X29773666Y-159916761D01*
X29630809Y-159964380D01*
X29392714Y-159964380D01*
X30916523Y-159964380D02*
X30345095Y-159964380D01*
X30630809Y-159964380D02*
X30630809Y-158964380D01*
X30535571Y-159107238D01*
X30440333Y-159202476D01*
X30345095Y-159250095D01*
X31868904Y-159964380D02*
X31297476Y-159964380D01*
X31583190Y-159964380D02*
X31583190Y-158964380D01*
X31487952Y-159107238D01*
X31392714Y-159202476D01*
X31297476Y-159250095D01*
%TO.C,J6*%
X15933380Y-169751333D02*
X16647666Y-169751333D01*
X16790523Y-169798952D01*
X16885761Y-169894190D01*
X16933380Y-170037047D01*
X16933380Y-170132285D01*
X15933380Y-168846571D02*
X15933380Y-169037047D01*
X15981000Y-169132285D01*
X16028619Y-169179904D01*
X16171476Y-169275142D01*
X16361952Y-169322761D01*
X16742904Y-169322761D01*
X16838142Y-169275142D01*
X16885761Y-169227523D01*
X16933380Y-169132285D01*
X16933380Y-168941809D01*
X16885761Y-168846571D01*
X16838142Y-168798952D01*
X16742904Y-168751333D01*
X16504809Y-168751333D01*
X16409571Y-168798952D01*
X16361952Y-168846571D01*
X16314333Y-168941809D01*
X16314333Y-169132285D01*
X16361952Y-169227523D01*
X16409571Y-169275142D01*
X16504809Y-169322761D01*
%TO.C,D18*%
X37774714Y-157805380D02*
X37774714Y-156805380D01*
X38012809Y-156805380D01*
X38155666Y-156853000D01*
X38250904Y-156948238D01*
X38298523Y-157043476D01*
X38346142Y-157233952D01*
X38346142Y-157376809D01*
X38298523Y-157567285D01*
X38250904Y-157662523D01*
X38155666Y-157757761D01*
X38012809Y-157805380D01*
X37774714Y-157805380D01*
X39298523Y-157805380D02*
X38727095Y-157805380D01*
X39012809Y-157805380D02*
X39012809Y-156805380D01*
X38917571Y-156948238D01*
X38822333Y-157043476D01*
X38727095Y-157091095D01*
X39869952Y-157233952D02*
X39774714Y-157186333D01*
X39727095Y-157138714D01*
X39679476Y-157043476D01*
X39679476Y-156995857D01*
X39727095Y-156900619D01*
X39774714Y-156853000D01*
X39869952Y-156805380D01*
X40060428Y-156805380D01*
X40155666Y-156853000D01*
X40203285Y-156900619D01*
X40250904Y-156995857D01*
X40250904Y-157043476D01*
X40203285Y-157138714D01*
X40155666Y-157186333D01*
X40060428Y-157233952D01*
X39869952Y-157233952D01*
X39774714Y-157281571D01*
X39727095Y-157329190D01*
X39679476Y-157424428D01*
X39679476Y-157614904D01*
X39727095Y-157710142D01*
X39774714Y-157757761D01*
X39869952Y-157805380D01*
X40060428Y-157805380D01*
X40155666Y-157757761D01*
X40203285Y-157710142D01*
X40250904Y-157614904D01*
X40250904Y-157424428D01*
X40203285Y-157329190D01*
X40155666Y-157281571D01*
X40060428Y-157233952D01*
%TO.C,J3*%
X49109380Y-178641333D02*
X49823666Y-178641333D01*
X49966523Y-178688952D01*
X50061761Y-178784190D01*
X50109380Y-178927047D01*
X50109380Y-179022285D01*
X49109380Y-178260380D02*
X49109380Y-177641333D01*
X49490333Y-177974666D01*
X49490333Y-177831809D01*
X49537952Y-177736571D01*
X49585571Y-177688952D01*
X49680809Y-177641333D01*
X49918904Y-177641333D01*
X50014142Y-177688952D01*
X50061761Y-177736571D01*
X50109380Y-177831809D01*
X50109380Y-178117523D01*
X50061761Y-178212761D01*
X50014142Y-178260380D01*
%TO.C,Q2*%
X37377619Y-172561238D02*
X37330000Y-172656476D01*
X37234761Y-172751714D01*
X37091904Y-172894571D01*
X37044285Y-172989809D01*
X37044285Y-173085047D01*
X37282380Y-173037428D02*
X37234761Y-173132666D01*
X37139523Y-173227904D01*
X36949047Y-173275523D01*
X36615714Y-173275523D01*
X36425238Y-173227904D01*
X36330000Y-173132666D01*
X36282380Y-173037428D01*
X36282380Y-172846952D01*
X36330000Y-172751714D01*
X36425238Y-172656476D01*
X36615714Y-172608857D01*
X36949047Y-172608857D01*
X37139523Y-172656476D01*
X37234761Y-172751714D01*
X37282380Y-172846952D01*
X37282380Y-173037428D01*
X36377619Y-172227904D02*
X36330000Y-172180285D01*
X36282380Y-172085047D01*
X36282380Y-171846952D01*
X36330000Y-171751714D01*
X36377619Y-171704095D01*
X36472857Y-171656476D01*
X36568095Y-171656476D01*
X36710952Y-171704095D01*
X37282380Y-172275523D01*
X37282380Y-171656476D01*
%TO.C,J8*%
X25868380Y-158956333D02*
X26582666Y-158956333D01*
X26725523Y-159003952D01*
X26820761Y-159099190D01*
X26868380Y-159242047D01*
X26868380Y-159337285D01*
X26296952Y-158337285D02*
X26249333Y-158432523D01*
X26201714Y-158480142D01*
X26106476Y-158527761D01*
X26058857Y-158527761D01*
X25963619Y-158480142D01*
X25916000Y-158432523D01*
X25868380Y-158337285D01*
X25868380Y-158146809D01*
X25916000Y-158051571D01*
X25963619Y-158003952D01*
X26058857Y-157956333D01*
X26106476Y-157956333D01*
X26201714Y-158003952D01*
X26249333Y-158051571D01*
X26296952Y-158146809D01*
X26296952Y-158337285D01*
X26344571Y-158432523D01*
X26392190Y-158480142D01*
X26487428Y-158527761D01*
X26677904Y-158527761D01*
X26773142Y-158480142D01*
X26820761Y-158432523D01*
X26868380Y-158337285D01*
X26868380Y-158146809D01*
X26820761Y-158051571D01*
X26773142Y-158003952D01*
X26677904Y-157956333D01*
X26487428Y-157956333D01*
X26392190Y-158003952D01*
X26344571Y-158051571D01*
X26296952Y-158146809D01*
X13288571Y-157587142D02*
X14431428Y-157587142D01*
X13860000Y-158158571D02*
X13860000Y-157015714D01*
X26288571Y-157587142D02*
X27431428Y-157587142D01*
%TO.C,R10*%
X31694380Y-168282857D02*
X31218190Y-168616190D01*
X31694380Y-168854285D02*
X30694380Y-168854285D01*
X30694380Y-168473333D01*
X30742000Y-168378095D01*
X30789619Y-168330476D01*
X30884857Y-168282857D01*
X31027714Y-168282857D01*
X31122952Y-168330476D01*
X31170571Y-168378095D01*
X31218190Y-168473333D01*
X31218190Y-168854285D01*
X31694380Y-167330476D02*
X31694380Y-167901904D01*
X31694380Y-167616190D02*
X30694380Y-167616190D01*
X30837238Y-167711428D01*
X30932476Y-167806666D01*
X30980095Y-167901904D01*
X30694380Y-166711428D02*
X30694380Y-166616190D01*
X30742000Y-166520952D01*
X30789619Y-166473333D01*
X30884857Y-166425714D01*
X31075333Y-166378095D01*
X31313428Y-166378095D01*
X31503904Y-166425714D01*
X31599142Y-166473333D01*
X31646761Y-166520952D01*
X31694380Y-166616190D01*
X31694380Y-166711428D01*
X31646761Y-166806666D01*
X31599142Y-166854285D01*
X31503904Y-166901904D01*
X31313428Y-166949523D01*
X31075333Y-166949523D01*
X30884857Y-166901904D01*
X30789619Y-166854285D01*
X30742000Y-166806666D01*
X30694380Y-166711428D01*
%TO.C,D19*%
X45664380Y-166695285D02*
X44664380Y-166695285D01*
X44664380Y-166457190D01*
X44712000Y-166314333D01*
X44807238Y-166219095D01*
X44902476Y-166171476D01*
X45092952Y-166123857D01*
X45235809Y-166123857D01*
X45426285Y-166171476D01*
X45521523Y-166219095D01*
X45616761Y-166314333D01*
X45664380Y-166457190D01*
X45664380Y-166695285D01*
X45664380Y-165171476D02*
X45664380Y-165742904D01*
X45664380Y-165457190D02*
X44664380Y-165457190D01*
X44807238Y-165552428D01*
X44902476Y-165647666D01*
X44950095Y-165742904D01*
X45664380Y-164695285D02*
X45664380Y-164504809D01*
X45616761Y-164409571D01*
X45569142Y-164361952D01*
X45426285Y-164266714D01*
X45235809Y-164219095D01*
X44854857Y-164219095D01*
X44759619Y-164266714D01*
X44712000Y-164314333D01*
X44664380Y-164409571D01*
X44664380Y-164600047D01*
X44712000Y-164695285D01*
X44759619Y-164742904D01*
X44854857Y-164790523D01*
X45092952Y-164790523D01*
X45188190Y-164742904D01*
X45235809Y-164695285D01*
X45283428Y-164600047D01*
X45283428Y-164409571D01*
X45235809Y-164314333D01*
X45188190Y-164266714D01*
X45092952Y-164219095D01*
%TO.C,R1*%
X43013333Y-173727380D02*
X42680000Y-173251190D01*
X42441904Y-173727380D02*
X42441904Y-172727380D01*
X42822857Y-172727380D01*
X42918095Y-172775000D01*
X42965714Y-172822619D01*
X43013333Y-172917857D01*
X43013333Y-173060714D01*
X42965714Y-173155952D01*
X42918095Y-173203571D01*
X42822857Y-173251190D01*
X42441904Y-173251190D01*
X43965714Y-173727380D02*
X43394285Y-173727380D01*
X43680000Y-173727380D02*
X43680000Y-172727380D01*
X43584761Y-172870238D01*
X43489523Y-172965476D01*
X43394285Y-173013095D01*
%TO.C,R6*%
X39203333Y-170124380D02*
X38870000Y-169648190D01*
X38631904Y-170124380D02*
X38631904Y-169124380D01*
X39012857Y-169124380D01*
X39108095Y-169172000D01*
X39155714Y-169219619D01*
X39203333Y-169314857D01*
X39203333Y-169457714D01*
X39155714Y-169552952D01*
X39108095Y-169600571D01*
X39012857Y-169648190D01*
X38631904Y-169648190D01*
X40060476Y-169124380D02*
X39870000Y-169124380D01*
X39774761Y-169172000D01*
X39727142Y-169219619D01*
X39631904Y-169362476D01*
X39584285Y-169552952D01*
X39584285Y-169933904D01*
X39631904Y-170029142D01*
X39679523Y-170076761D01*
X39774761Y-170124380D01*
X39965238Y-170124380D01*
X40060476Y-170076761D01*
X40108095Y-170029142D01*
X40155714Y-169933904D01*
X40155714Y-169695809D01*
X40108095Y-169600571D01*
X40060476Y-169552952D01*
X39965238Y-169505333D01*
X39774761Y-169505333D01*
X39679523Y-169552952D01*
X39631904Y-169600571D01*
X39584285Y-169695809D01*
%TO.C,U1*%
X78240980Y-174917504D02*
X79050504Y-174917504D01*
X79145742Y-174869885D01*
X79193361Y-174822266D01*
X79240980Y-174727028D01*
X79240980Y-174536552D01*
X79193361Y-174441314D01*
X79145742Y-174393695D01*
X79050504Y-174346076D01*
X78240980Y-174346076D01*
X79240980Y-173346076D02*
X79240980Y-173917504D01*
X79240980Y-173631790D02*
X78240980Y-173631790D01*
X78383838Y-173727028D01*
X78479076Y-173822266D01*
X78526695Y-173917504D01*
%TO.C,Q1*%
X27336761Y-162726619D02*
X27241523Y-162679000D01*
X27146285Y-162583761D01*
X27003428Y-162440904D01*
X26908190Y-162393285D01*
X26812952Y-162393285D01*
X26860571Y-162631380D02*
X26765333Y-162583761D01*
X26670095Y-162488523D01*
X26622476Y-162298047D01*
X26622476Y-161964714D01*
X26670095Y-161774238D01*
X26765333Y-161679000D01*
X26860571Y-161631380D01*
X27051047Y-161631380D01*
X27146285Y-161679000D01*
X27241523Y-161774238D01*
X27289142Y-161964714D01*
X27289142Y-162298047D01*
X27241523Y-162488523D01*
X27146285Y-162583761D01*
X27051047Y-162631380D01*
X26860571Y-162631380D01*
X28241523Y-162631380D02*
X27670095Y-162631380D01*
X27955809Y-162631380D02*
X27955809Y-161631380D01*
X27860571Y-161774238D01*
X27765333Y-161869476D01*
X27670095Y-161917095D01*
%TO.C,U4*%
X68580095Y-159142180D02*
X68580095Y-159951704D01*
X68627714Y-160046942D01*
X68675333Y-160094561D01*
X68770571Y-160142180D01*
X68961047Y-160142180D01*
X69056285Y-160094561D01*
X69103904Y-160046942D01*
X69151523Y-159951704D01*
X69151523Y-159142180D01*
X70056285Y-159475514D02*
X70056285Y-160142180D01*
X69818190Y-159094561D02*
X69580095Y-159808847D01*
X70199142Y-159808847D01*
%TO.C,J1*%
X76323866Y-150252180D02*
X76323866Y-150966466D01*
X76276247Y-151109323D01*
X76181009Y-151204561D01*
X76038152Y-151252180D01*
X75942914Y-151252180D01*
X77323866Y-151252180D02*
X76752438Y-151252180D01*
X77038152Y-151252180D02*
X77038152Y-150252180D01*
X76942914Y-150395038D01*
X76847676Y-150490276D01*
X76752438Y-150537895D01*
%TO.C,J17*%
X25995380Y-193595523D02*
X26709666Y-193595523D01*
X26852523Y-193643142D01*
X26947761Y-193738380D01*
X26995380Y-193881238D01*
X26995380Y-193976476D01*
X26995380Y-192595523D02*
X26995380Y-193166952D01*
X26995380Y-192881238D02*
X25995380Y-192881238D01*
X26138238Y-192976476D01*
X26233476Y-193071714D01*
X26281095Y-193166952D01*
X25995380Y-192262190D02*
X25995380Y-191595523D01*
X26995380Y-192024095D01*
X13208571Y-191242142D02*
X14351428Y-191242142D01*
X13780000Y-191813571D02*
X13780000Y-190670714D01*
X26208571Y-191242142D02*
X27351428Y-191242142D01*
%TO.C,R8*%
X39822380Y-189396666D02*
X39346190Y-189730000D01*
X39822380Y-189968095D02*
X38822380Y-189968095D01*
X38822380Y-189587142D01*
X38870000Y-189491904D01*
X38917619Y-189444285D01*
X39012857Y-189396666D01*
X39155714Y-189396666D01*
X39250952Y-189444285D01*
X39298571Y-189491904D01*
X39346190Y-189587142D01*
X39346190Y-189968095D01*
X39250952Y-188825238D02*
X39203333Y-188920476D01*
X39155714Y-188968095D01*
X39060476Y-189015714D01*
X39012857Y-189015714D01*
X38917619Y-188968095D01*
X38870000Y-188920476D01*
X38822380Y-188825238D01*
X38822380Y-188634761D01*
X38870000Y-188539523D01*
X38917619Y-188491904D01*
X39012857Y-188444285D01*
X39060476Y-188444285D01*
X39155714Y-188491904D01*
X39203333Y-188539523D01*
X39250952Y-188634761D01*
X39250952Y-188825238D01*
X39298571Y-188920476D01*
X39346190Y-188968095D01*
X39441428Y-189015714D01*
X39631904Y-189015714D01*
X39727142Y-188968095D01*
X39774761Y-188920476D01*
X39822380Y-188825238D01*
X39822380Y-188634761D01*
X39774761Y-188539523D01*
X39727142Y-188491904D01*
X39631904Y-188444285D01*
X39441428Y-188444285D01*
X39346190Y-188491904D01*
X39298571Y-188539523D01*
X39250952Y-188634761D01*
%TO.C,C1*%
X35155142Y-160440666D02*
X35202761Y-160488285D01*
X35250380Y-160631142D01*
X35250380Y-160726380D01*
X35202761Y-160869238D01*
X35107523Y-160964476D01*
X35012285Y-161012095D01*
X34821809Y-161059714D01*
X34678952Y-161059714D01*
X34488476Y-161012095D01*
X34393238Y-160964476D01*
X34298000Y-160869238D01*
X34250380Y-160726380D01*
X34250380Y-160631142D01*
X34298000Y-160488285D01*
X34345619Y-160440666D01*
X35250380Y-159488285D02*
X35250380Y-160059714D01*
X35250380Y-159774000D02*
X34250380Y-159774000D01*
X34393238Y-159869238D01*
X34488476Y-159964476D01*
X34536095Y-160059714D01*
%TO.C,J5*%
X25995380Y-175339333D02*
X26709666Y-175339333D01*
X26852523Y-175386952D01*
X26947761Y-175482190D01*
X26995380Y-175625047D01*
X26995380Y-175720285D01*
X25995380Y-174386952D02*
X25995380Y-174863142D01*
X26471571Y-174910761D01*
X26423952Y-174863142D01*
X26376333Y-174767904D01*
X26376333Y-174529809D01*
X26423952Y-174434571D01*
X26471571Y-174386952D01*
X26566809Y-174339333D01*
X26804904Y-174339333D01*
X26900142Y-174386952D01*
X26947761Y-174434571D01*
X26995380Y-174529809D01*
X26995380Y-174767904D01*
X26947761Y-174863142D01*
X26900142Y-174910761D01*
X26208571Y-174097142D02*
X27351428Y-174097142D01*
X13208571Y-174097142D02*
X14351428Y-174097142D01*
X13780000Y-174668571D02*
X13780000Y-173525714D01*
%TO.C,J12*%
X80419676Y-150353780D02*
X80419676Y-151068066D01*
X80372057Y-151210923D01*
X80276819Y-151306161D01*
X80133961Y-151353780D01*
X80038723Y-151353780D01*
X81419676Y-151353780D02*
X80848247Y-151353780D01*
X81133961Y-151353780D02*
X81133961Y-150353780D01*
X81038723Y-150496638D01*
X80943485Y-150591876D01*
X80848247Y-150639495D01*
X81800628Y-150449019D02*
X81848247Y-150401400D01*
X81943485Y-150353780D01*
X82181580Y-150353780D01*
X82276819Y-150401400D01*
X82324438Y-150449019D01*
X82372057Y-150544257D01*
X82372057Y-150639495D01*
X82324438Y-150782352D01*
X81753009Y-151353780D01*
X82372057Y-151353780D01*
%TO.C,J13*%
X51649380Y-179625523D02*
X52363666Y-179625523D01*
X52506523Y-179673142D01*
X52601761Y-179768380D01*
X52649380Y-179911238D01*
X52649380Y-180006476D01*
X52649380Y-178625523D02*
X52649380Y-179196952D01*
X52649380Y-178911238D02*
X51649380Y-178911238D01*
X51792238Y-179006476D01*
X51887476Y-179101714D01*
X51935095Y-179196952D01*
X51649380Y-178292190D02*
X51649380Y-177673142D01*
X52030333Y-178006476D01*
X52030333Y-177863619D01*
X52077952Y-177768380D01*
X52125571Y-177720761D01*
X52220809Y-177673142D01*
X52458904Y-177673142D01*
X52554142Y-177720761D01*
X52601761Y-177768380D01*
X52649380Y-177863619D01*
X52649380Y-178149333D01*
X52601761Y-178244571D01*
X52554142Y-178292190D01*
%TO.C,C8*%
X83034142Y-189777666D02*
X83081761Y-189825285D01*
X83129380Y-189968142D01*
X83129380Y-190063380D01*
X83081761Y-190206238D01*
X82986523Y-190301476D01*
X82891285Y-190349095D01*
X82700809Y-190396714D01*
X82557952Y-190396714D01*
X82367476Y-190349095D01*
X82272238Y-190301476D01*
X82177000Y-190206238D01*
X82129380Y-190063380D01*
X82129380Y-189968142D01*
X82177000Y-189825285D01*
X82224619Y-189777666D01*
X82557952Y-189206238D02*
X82510333Y-189301476D01*
X82462714Y-189349095D01*
X82367476Y-189396714D01*
X82319857Y-189396714D01*
X82224619Y-189349095D01*
X82177000Y-189301476D01*
X82129380Y-189206238D01*
X82129380Y-189015761D01*
X82177000Y-188920523D01*
X82224619Y-188872904D01*
X82319857Y-188825285D01*
X82367476Y-188825285D01*
X82462714Y-188872904D01*
X82510333Y-188920523D01*
X82557952Y-189015761D01*
X82557952Y-189206238D01*
X82605571Y-189301476D01*
X82653190Y-189349095D01*
X82748428Y-189396714D01*
X82938904Y-189396714D01*
X83034142Y-189349095D01*
X83081761Y-189301476D01*
X83129380Y-189206238D01*
X83129380Y-189015761D01*
X83081761Y-188920523D01*
X83034142Y-188872904D01*
X82938904Y-188825285D01*
X82748428Y-188825285D01*
X82653190Y-188872904D01*
X82605571Y-188920523D01*
X82557952Y-189015761D01*
%TO.C,R13*%
X57221380Y-172219857D02*
X56745190Y-172553190D01*
X57221380Y-172791285D02*
X56221380Y-172791285D01*
X56221380Y-172410333D01*
X56269000Y-172315095D01*
X56316619Y-172267476D01*
X56411857Y-172219857D01*
X56554714Y-172219857D01*
X56649952Y-172267476D01*
X56697571Y-172315095D01*
X56745190Y-172410333D01*
X56745190Y-172791285D01*
X57221380Y-171267476D02*
X57221380Y-171838904D01*
X57221380Y-171553190D02*
X56221380Y-171553190D01*
X56364238Y-171648428D01*
X56459476Y-171743666D01*
X56507095Y-171838904D01*
X56221380Y-170934142D02*
X56221380Y-170315095D01*
X56602333Y-170648428D01*
X56602333Y-170505571D01*
X56649952Y-170410333D01*
X56697571Y-170362714D01*
X56792809Y-170315095D01*
X57030904Y-170315095D01*
X57126142Y-170362714D01*
X57173761Y-170410333D01*
X57221380Y-170505571D01*
X57221380Y-170791285D01*
X57173761Y-170886523D01*
X57126142Y-170934142D01*
%TO.C,R9*%
X40076380Y-178855666D02*
X39600190Y-179189000D01*
X40076380Y-179427095D02*
X39076380Y-179427095D01*
X39076380Y-179046142D01*
X39124000Y-178950904D01*
X39171619Y-178903285D01*
X39266857Y-178855666D01*
X39409714Y-178855666D01*
X39504952Y-178903285D01*
X39552571Y-178950904D01*
X39600190Y-179046142D01*
X39600190Y-179427095D01*
X40076380Y-178379476D02*
X40076380Y-178189000D01*
X40028761Y-178093761D01*
X39981142Y-178046142D01*
X39838285Y-177950904D01*
X39647809Y-177903285D01*
X39266857Y-177903285D01*
X39171619Y-177950904D01*
X39124000Y-177998523D01*
X39076380Y-178093761D01*
X39076380Y-178284238D01*
X39124000Y-178379476D01*
X39171619Y-178427095D01*
X39266857Y-178474714D01*
X39504952Y-178474714D01*
X39600190Y-178427095D01*
X39647809Y-178379476D01*
X39695428Y-178284238D01*
X39695428Y-178093761D01*
X39647809Y-177998523D01*
X39600190Y-177950904D01*
X39504952Y-177903285D01*
%TO.C,R5*%
X41981380Y-165901666D02*
X41505190Y-166235000D01*
X41981380Y-166473095D02*
X40981380Y-166473095D01*
X40981380Y-166092142D01*
X41029000Y-165996904D01*
X41076619Y-165949285D01*
X41171857Y-165901666D01*
X41314714Y-165901666D01*
X41409952Y-165949285D01*
X41457571Y-165996904D01*
X41505190Y-166092142D01*
X41505190Y-166473095D01*
X40981380Y-164996904D02*
X40981380Y-165473095D01*
X41457571Y-165520714D01*
X41409952Y-165473095D01*
X41362333Y-165377857D01*
X41362333Y-165139761D01*
X41409952Y-165044523D01*
X41457571Y-164996904D01*
X41552809Y-164949285D01*
X41790904Y-164949285D01*
X41886142Y-164996904D01*
X41933761Y-165044523D01*
X41981380Y-165139761D01*
X41981380Y-165377857D01*
X41933761Y-165473095D01*
X41886142Y-165520714D01*
%TO.C,J2*%
X78457466Y-150328380D02*
X78457466Y-151042666D01*
X78409847Y-151185523D01*
X78314609Y-151280761D01*
X78171752Y-151328380D01*
X78076514Y-151328380D01*
X78886038Y-150423619D02*
X78933657Y-150376000D01*
X79028895Y-150328380D01*
X79266990Y-150328380D01*
X79362228Y-150376000D01*
X79409847Y-150423619D01*
X79457466Y-150518857D01*
X79457466Y-150614095D01*
X79409847Y-150756952D01*
X78838419Y-151328380D01*
X79457466Y-151328380D01*
%TO.C,J11*%
X24388380Y-153844523D02*
X25102666Y-153844523D01*
X25245523Y-153892142D01*
X25340761Y-153987380D01*
X25388380Y-154130238D01*
X25388380Y-154225476D01*
X25388380Y-152844523D02*
X25388380Y-153415952D01*
X25388380Y-153130238D02*
X24388380Y-153130238D01*
X24531238Y-153225476D01*
X24626476Y-153320714D01*
X24674095Y-153415952D01*
X25388380Y-151892142D02*
X25388380Y-152463571D01*
X25388380Y-152177857D02*
X24388380Y-152177857D01*
X24531238Y-152273095D01*
X24626476Y-152368333D01*
X24674095Y-152463571D01*
%TO.C,D5*%
X74391780Y-168784495D02*
X73391780Y-168784495D01*
X73391780Y-168546400D01*
X73439400Y-168403542D01*
X73534638Y-168308304D01*
X73629876Y-168260685D01*
X73820352Y-168213066D01*
X73963209Y-168213066D01*
X74153685Y-168260685D01*
X74248923Y-168308304D01*
X74344161Y-168403542D01*
X74391780Y-168546400D01*
X74391780Y-168784495D01*
X73391780Y-167308304D02*
X73391780Y-167784495D01*
X73867971Y-167832114D01*
X73820352Y-167784495D01*
X73772733Y-167689257D01*
X73772733Y-167451161D01*
X73820352Y-167355923D01*
X73867971Y-167308304D01*
X73963209Y-167260685D01*
X74201304Y-167260685D01*
X74296542Y-167308304D01*
X74344161Y-167355923D01*
X74391780Y-167451161D01*
X74391780Y-167689257D01*
X74344161Y-167784495D01*
X74296542Y-167832114D01*
%TO.C,TDO*%
X60793476Y-166584380D02*
X61364904Y-166584380D01*
X61079190Y-167584380D02*
X61079190Y-166584380D01*
X61698238Y-167584380D02*
X61698238Y-166584380D01*
X61936333Y-166584380D01*
X62079190Y-166632000D01*
X62174428Y-166727238D01*
X62222047Y-166822476D01*
X62269666Y-167012952D01*
X62269666Y-167155809D01*
X62222047Y-167346285D01*
X62174428Y-167441523D01*
X62079190Y-167536761D01*
X61936333Y-167584380D01*
X61698238Y-167584380D01*
X62888714Y-166584380D02*
X63079190Y-166584380D01*
X63174428Y-166632000D01*
X63269666Y-166727238D01*
X63317285Y-166917714D01*
X63317285Y-167251047D01*
X63269666Y-167441523D01*
X63174428Y-167536761D01*
X63079190Y-167584380D01*
X62888714Y-167584380D01*
X62793476Y-167536761D01*
X62698238Y-167441523D01*
X62650619Y-167251047D01*
X62650619Y-166917714D01*
X62698238Y-166727238D01*
X62793476Y-166632000D01*
X62888714Y-166584380D01*
%TO.C,C3*%
X57617142Y-154979666D02*
X57664761Y-155027285D01*
X57712380Y-155170142D01*
X57712380Y-155265380D01*
X57664761Y-155408238D01*
X57569523Y-155503476D01*
X57474285Y-155551095D01*
X57283809Y-155598714D01*
X57140952Y-155598714D01*
X56950476Y-155551095D01*
X56855238Y-155503476D01*
X56760000Y-155408238D01*
X56712380Y-155265380D01*
X56712380Y-155170142D01*
X56760000Y-155027285D01*
X56807619Y-154979666D01*
X56712380Y-154646333D02*
X56712380Y-154027285D01*
X57093333Y-154360619D01*
X57093333Y-154217761D01*
X57140952Y-154122523D01*
X57188571Y-154074904D01*
X57283809Y-154027285D01*
X57521904Y-154027285D01*
X57617142Y-154074904D01*
X57664761Y-154122523D01*
X57712380Y-154217761D01*
X57712380Y-154503476D01*
X57664761Y-154598714D01*
X57617142Y-154646333D01*
%TO.C,C9*%
X83161142Y-192190666D02*
X83208761Y-192238285D01*
X83256380Y-192381142D01*
X83256380Y-192476380D01*
X83208761Y-192619238D01*
X83113523Y-192714476D01*
X83018285Y-192762095D01*
X82827809Y-192809714D01*
X82684952Y-192809714D01*
X82494476Y-192762095D01*
X82399238Y-192714476D01*
X82304000Y-192619238D01*
X82256380Y-192476380D01*
X82256380Y-192381142D01*
X82304000Y-192238285D01*
X82351619Y-192190666D01*
X83256380Y-191714476D02*
X83256380Y-191524000D01*
X83208761Y-191428761D01*
X83161142Y-191381142D01*
X83018285Y-191285904D01*
X82827809Y-191238285D01*
X82446857Y-191238285D01*
X82351619Y-191285904D01*
X82304000Y-191333523D01*
X82256380Y-191428761D01*
X82256380Y-191619238D01*
X82304000Y-191714476D01*
X82351619Y-191762095D01*
X82446857Y-191809714D01*
X82684952Y-191809714D01*
X82780190Y-191762095D01*
X82827809Y-191714476D01*
X82875428Y-191619238D01*
X82875428Y-191428761D01*
X82827809Y-191333523D01*
X82780190Y-191285904D01*
X82684952Y-191238285D01*
%TO.C,Q3*%
X25939761Y-170092619D02*
X25844523Y-170045000D01*
X25749285Y-169949761D01*
X25606428Y-169806904D01*
X25511190Y-169759285D01*
X25415952Y-169759285D01*
X25463571Y-169997380D02*
X25368333Y-169949761D01*
X25273095Y-169854523D01*
X25225476Y-169664047D01*
X25225476Y-169330714D01*
X25273095Y-169140238D01*
X25368333Y-169045000D01*
X25463571Y-168997380D01*
X25654047Y-168997380D01*
X25749285Y-169045000D01*
X25844523Y-169140238D01*
X25892142Y-169330714D01*
X25892142Y-169664047D01*
X25844523Y-169854523D01*
X25749285Y-169949761D01*
X25654047Y-169997380D01*
X25463571Y-169997380D01*
X26225476Y-168997380D02*
X26844523Y-168997380D01*
X26511190Y-169378333D01*
X26654047Y-169378333D01*
X26749285Y-169425952D01*
X26796904Y-169473571D01*
X26844523Y-169568809D01*
X26844523Y-169806904D01*
X26796904Y-169902142D01*
X26749285Y-169949761D01*
X26654047Y-169997380D01*
X26368333Y-169997380D01*
X26273095Y-169949761D01*
X26225476Y-169902142D01*
%TO.C,J14*%
X25868380Y-187753523D02*
X26582666Y-187753523D01*
X26725523Y-187801142D01*
X26820761Y-187896380D01*
X26868380Y-188039238D01*
X26868380Y-188134476D01*
X26868380Y-186753523D02*
X26868380Y-187324952D01*
X26868380Y-187039238D02*
X25868380Y-187039238D01*
X26011238Y-187134476D01*
X26106476Y-187229714D01*
X26154095Y-187324952D01*
X26201714Y-185896380D02*
X26868380Y-185896380D01*
X25820761Y-186134476D02*
X26535047Y-186372571D01*
X26535047Y-185753523D01*
X26208571Y-185527142D02*
X27351428Y-185527142D01*
X13208571Y-185527142D02*
X14351428Y-185527142D01*
X13780000Y-186098571D02*
X13780000Y-184955714D01*
%TO.C,D8*%
X77693780Y-169013095D02*
X76693780Y-169013095D01*
X76693780Y-168775000D01*
X76741400Y-168632142D01*
X76836638Y-168536904D01*
X76931876Y-168489285D01*
X77122352Y-168441666D01*
X77265209Y-168441666D01*
X77455685Y-168489285D01*
X77550923Y-168536904D01*
X77646161Y-168632142D01*
X77693780Y-168775000D01*
X77693780Y-169013095D01*
X77122352Y-167870238D02*
X77074733Y-167965476D01*
X77027114Y-168013095D01*
X76931876Y-168060714D01*
X76884257Y-168060714D01*
X76789019Y-168013095D01*
X76741400Y-167965476D01*
X76693780Y-167870238D01*
X76693780Y-167679761D01*
X76741400Y-167584523D01*
X76789019Y-167536904D01*
X76884257Y-167489285D01*
X76931876Y-167489285D01*
X77027114Y-167536904D01*
X77074733Y-167584523D01*
X77122352Y-167679761D01*
X77122352Y-167870238D01*
X77169971Y-167965476D01*
X77217590Y-168013095D01*
X77312828Y-168060714D01*
X77503304Y-168060714D01*
X77598542Y-168013095D01*
X77646161Y-167965476D01*
X77693780Y-167870238D01*
X77693780Y-167679761D01*
X77646161Y-167584523D01*
X77598542Y-167536904D01*
X77503304Y-167489285D01*
X77312828Y-167489285D01*
X77217590Y-167536904D01*
X77169971Y-167584523D01*
X77122352Y-167679761D01*
D11*
%TO.C,GND*%
X65973000Y-169214000D02*
X65973000Y-169089000D01*
X64583000Y-169214000D02*
X65973000Y-169214000D01*
X64583000Y-167844000D02*
X65278000Y-167844000D01*
X64583000Y-169214000D02*
X64583000Y-169089000D01*
X65886276Y-169214000D02*
X65973000Y-169214000D01*
X64583000Y-168529000D02*
X64583000Y-167844000D01*
X64583000Y-169214000D02*
X64669724Y-169214000D01*
%TO.C,Q5*%
X33320000Y-182225000D02*
X34820000Y-182225000D01*
X34820000Y-188855000D02*
X37650000Y-188855000D01*
X33320000Y-189125000D02*
X34820000Y-189125000D01*
X34820000Y-182225000D02*
X34820000Y-182495000D01*
X34820000Y-182495000D02*
X35920000Y-182495000D01*
X34820000Y-189125000D02*
X34820000Y-188855000D01*
%TO.C,TCK*%
X71949000Y-170765000D02*
X72644000Y-170765000D01*
X71949000Y-171450000D02*
X71949000Y-170765000D01*
X73252276Y-172135000D02*
X73339000Y-172135000D01*
X73339000Y-172135000D02*
X73339000Y-172010000D01*
X71949000Y-172135000D02*
X73339000Y-172135000D01*
X71949000Y-172135000D02*
X71949000Y-172010000D01*
X71949000Y-172135000D02*
X72035724Y-172135000D01*
%TO.C,Q6*%
X33320000Y-195475000D02*
X34820000Y-195475000D01*
X34820000Y-195475000D02*
X34820000Y-195205000D01*
X34820000Y-188845000D02*
X35920000Y-188845000D01*
X34820000Y-188575000D02*
X34820000Y-188845000D01*
X34820000Y-195205000D02*
X37650000Y-195205000D01*
X33320000Y-188575000D02*
X34820000Y-188575000D01*
%TO.C,R4*%
X23600742Y-160386500D02*
X24075258Y-160386500D01*
X23600742Y-161431500D02*
X24075258Y-161431500D01*
%TO.C,C2*%
X38356000Y-167018580D02*
X38356000Y-166737420D01*
X37336000Y-167018580D02*
X37336000Y-166737420D01*
%TO.C,BOOT1*%
X59971400Y-171730580D02*
X59971400Y-171449420D01*
X58951400Y-171730580D02*
X58951400Y-171449420D01*
%TO.C,C7*%
X38303780Y-165254400D02*
X38022620Y-165254400D01*
X38303780Y-164234400D02*
X38022620Y-164234400D01*
%TO.C,C4*%
X46701500Y-151795500D02*
X46076500Y-151795500D01*
X47464000Y-157868000D02*
X45764000Y-157868000D01*
X43008437Y-152348000D02*
X41944000Y-153412437D01*
X46399563Y-152348000D02*
X47464000Y-153412437D01*
X47464000Y-153412437D02*
X47464000Y-157868000D01*
X46399563Y-152348000D02*
X45764000Y-152348000D01*
X46389000Y-151483000D02*
X46389000Y-152108000D01*
X41944000Y-157868000D02*
X43644000Y-157868000D01*
X41944000Y-153412437D02*
X41944000Y-157868000D01*
X43008437Y-152348000D02*
X43644000Y-152348000D01*
%TO.C,J16*%
X55940000Y-169470000D02*
X53280000Y-169470000D01*
X55940000Y-174610000D02*
X53280000Y-174610000D01*
X55940000Y-175880000D02*
X55940000Y-177210000D01*
X53280000Y-174610000D02*
X53280000Y-169470000D01*
X55940000Y-177210000D02*
X54610000Y-177210000D01*
X55940000Y-174610000D02*
X55940000Y-169470000D01*
%TO.C,TDI*%
X47692000Y-163372000D02*
X47778724Y-163372000D01*
X47692000Y-163372000D02*
X47692000Y-163247000D01*
X47692000Y-162002000D02*
X48387000Y-162002000D01*
X48995276Y-163372000D02*
X49082000Y-163372000D01*
X49082000Y-163372000D02*
X49082000Y-163247000D01*
X47692000Y-162687000D02*
X47692000Y-162002000D01*
X47692000Y-163372000D02*
X49082000Y-163372000D01*
%TO.C,D17*%
X60331000Y-159518000D02*
X60331000Y-161538000D01*
X60331000Y-159518000D02*
X64011000Y-159518000D01*
X60331000Y-161538000D02*
X64011000Y-161538000D01*
%TO.C,J19*%
X79238800Y-181321400D02*
X80568800Y-181321400D01*
X79238800Y-183921400D02*
X81898800Y-183921400D01*
X81898800Y-183921400D02*
X81898800Y-189061400D01*
X79238800Y-182651400D02*
X79238800Y-181321400D01*
X79238800Y-189061400D02*
X81898800Y-189061400D01*
X79238800Y-183921400D02*
X79238800Y-189061400D01*
%TO.C,R3*%
X20590742Y-160386500D02*
X21065258Y-160386500D01*
X20590742Y-161431500D02*
X21065258Y-161431500D01*
%TO.C,R11*%
X37831500Y-173020258D02*
X37831500Y-172545742D01*
X38876500Y-173020258D02*
X38876500Y-172545742D01*
%TO.C,J18*%
X45253600Y-191287400D02*
X45253600Y-189957400D01*
X45253600Y-192557400D02*
X47913600Y-192557400D01*
X45253600Y-192557400D02*
X45253600Y-197697400D01*
X45253600Y-197697400D02*
X47913600Y-197697400D01*
X47913600Y-192557400D02*
X47913600Y-197697400D01*
X45253600Y-189957400D02*
X46583600Y-189957400D01*
%TO.C,J7*%
X20081000Y-165294000D02*
X25221000Y-165294000D01*
X20081000Y-167954000D02*
X20081000Y-165294000D01*
X20081000Y-167954000D02*
X25221000Y-167954000D01*
X25221000Y-167954000D02*
X25221000Y-165294000D01*
X18811000Y-167954000D02*
X17481000Y-167954000D01*
X17481000Y-167954000D02*
X17481000Y-166624000D01*
%TO.C,D12*%
X82574400Y-159763000D02*
X79274400Y-159763000D01*
X82574400Y-159763000D02*
X82574400Y-165163000D01*
X79274400Y-159763000D02*
X79274400Y-165163000D01*
%TO.C,J4*%
X40173600Y-197727400D02*
X42833600Y-197727400D01*
X40173600Y-192587400D02*
X40173600Y-197727400D01*
X40173600Y-189987400D02*
X41503600Y-189987400D01*
X40173600Y-191317400D02*
X40173600Y-189987400D01*
X40173600Y-192587400D02*
X42833600Y-192587400D01*
X42833600Y-192587400D02*
X42833600Y-197727400D01*
%TO.C,J15*%
X42713600Y-192587400D02*
X45373600Y-192587400D01*
X42713600Y-197727400D02*
X45373600Y-197727400D01*
X45373600Y-192587400D02*
X45373600Y-197727400D01*
X42713600Y-192587400D02*
X42713600Y-197727400D01*
X42713600Y-191317400D02*
X42713600Y-189987400D01*
X42713600Y-189987400D02*
X44043600Y-189987400D01*
%TO.C,J10*%
X29210000Y-154492000D02*
X29210000Y-151832000D01*
X27940000Y-154492000D02*
X26610000Y-154492000D01*
X26610000Y-154492000D02*
X26610000Y-153162000D01*
X29210000Y-154492000D02*
X31810000Y-154492000D01*
X31810000Y-154492000D02*
X31810000Y-151832000D01*
X29210000Y-151832000D02*
X31810000Y-151832000D01*
%TO.C,R7*%
X39257500Y-185657258D02*
X39257500Y-185182742D01*
X38212500Y-185657258D02*
X38212500Y-185182742D01*
%TO.C,TMS*%
X58614000Y-163907000D02*
X59309000Y-163907000D01*
X58614000Y-165277000D02*
X60004000Y-165277000D01*
X58614000Y-164592000D02*
X58614000Y-163907000D01*
X59917276Y-165277000D02*
X60004000Y-165277000D01*
X58614000Y-165277000D02*
X58700724Y-165277000D01*
X60004000Y-165277000D02*
X60004000Y-165152000D01*
X58614000Y-165277000D02*
X58614000Y-165152000D01*
%TO.C,R12*%
X30367500Y-164702258D02*
X30367500Y-164227742D01*
X29322500Y-164702258D02*
X29322500Y-164227742D01*
%TO.C,J9*%
X25490000Y-181115000D02*
X23790000Y-182415000D01*
X25490000Y-178295000D02*
X23790000Y-176995000D01*
X23790000Y-182415000D02*
X15070000Y-182415000D01*
X25490000Y-181115000D02*
X25490000Y-178295000D01*
X23790000Y-176995000D02*
X15070000Y-176995000D01*
X15070000Y-182415000D02*
X15070000Y-176995000D01*
%TO.C,Q4*%
X33355000Y-182520000D02*
X34855000Y-182520000D01*
X34855000Y-182250000D02*
X37685000Y-182250000D01*
X34855000Y-182520000D02*
X34855000Y-182250000D01*
X33355000Y-175620000D02*
X34855000Y-175620000D01*
X34855000Y-175620000D02*
X34855000Y-175890000D01*
X34855000Y-175890000D02*
X35955000Y-175890000D01*
%TO.C,R2*%
X41002936Y-173795000D02*
X45357064Y-173795000D01*
X41002936Y-170375000D02*
X45357064Y-170375000D01*
%TO.C,D11*%
X27188200Y-155296600D02*
X27188200Y-158596600D01*
X27188200Y-155296600D02*
X32588200Y-155296600D01*
X27188200Y-158596600D02*
X32588200Y-158596600D01*
%TO.C,J6*%
X17481000Y-170748000D02*
X17481000Y-169418000D01*
X25221000Y-170748000D02*
X25221000Y-168088000D01*
X20081000Y-170748000D02*
X25221000Y-170748000D01*
X18811000Y-170748000D02*
X17481000Y-170748000D01*
X20081000Y-168088000D02*
X25221000Y-168088000D01*
X20081000Y-170748000D02*
X20081000Y-168088000D01*
%TO.C,D18*%
X37201000Y-158232600D02*
X37201000Y-160232600D01*
X37201000Y-160232600D02*
X41501000Y-160232600D01*
X41501000Y-158232600D02*
X37201000Y-158232600D01*
%TO.C,J3*%
X50860000Y-169485000D02*
X48200000Y-169485000D01*
X50860000Y-175895000D02*
X50860000Y-177225000D01*
X50860000Y-177225000D02*
X49530000Y-177225000D01*
X50860000Y-174625000D02*
X50860000Y-169485000D01*
X50860000Y-174625000D02*
X48200000Y-174625000D01*
X48200000Y-174625000D02*
X48200000Y-169485000D01*
%TO.C,Q2*%
X34820000Y-168890000D02*
X34820000Y-169160000D01*
X33320000Y-168890000D02*
X34820000Y-168890000D01*
X34820000Y-175790000D02*
X34820000Y-175520000D01*
X33320000Y-175790000D02*
X34820000Y-175790000D01*
X34820000Y-169160000D02*
X35920000Y-169160000D01*
X34820000Y-175520000D02*
X37650000Y-175520000D01*
%TO.C,J8*%
X25570000Y-158890000D02*
X25570000Y-156070000D01*
X23870000Y-160190000D02*
X15150000Y-160190000D01*
X25570000Y-156070000D02*
X23870000Y-154770000D01*
X23870000Y-154770000D02*
X15150000Y-154770000D01*
X25570000Y-158890000D02*
X23870000Y-160190000D01*
X15150000Y-160190000D02*
X15150000Y-154770000D01*
%TO.C,R10*%
X30367500Y-167877258D02*
X30367500Y-167402742D01*
X29322500Y-167877258D02*
X29322500Y-167402742D01*
%TO.C,D19*%
X42434000Y-163934200D02*
X42434000Y-168234200D01*
X42434000Y-168234200D02*
X44434000Y-168234200D01*
X44434000Y-168234200D02*
X44434000Y-163934200D01*
%TO.C,R1*%
X41002936Y-177605000D02*
X45357064Y-177605000D01*
X41002936Y-174185000D02*
X45357064Y-174185000D01*
%TO.C,R6*%
X39640742Y-168797500D02*
X40115258Y-168797500D01*
X39640742Y-167752500D02*
X40115258Y-167752500D01*
%TO.C,U1*%
X77298600Y-192030600D02*
X77678600Y-192030600D01*
X77298600Y-198445600D02*
X59058600Y-198445600D01*
X59058600Y-173485600D02*
X59058600Y-172705600D01*
X59058600Y-172705600D02*
X60058600Y-172705600D01*
X77298600Y-172705600D02*
X76298600Y-172705600D01*
X77298600Y-198445600D02*
X77298600Y-192030600D01*
X59058600Y-198445600D02*
X59058600Y-192030600D01*
X77298600Y-173485600D02*
X77298600Y-172705600D01*
%TO.C,Q1*%
X27305000Y-162905000D02*
X27955000Y-162905000D01*
X27305000Y-166025000D02*
X28980000Y-166025000D01*
X27305000Y-166025000D02*
X26655000Y-166025000D01*
X27305000Y-162905000D02*
X26655000Y-162905000D01*
%TO.C,U4*%
X67390000Y-158858000D02*
X71150000Y-158858000D01*
X65140000Y-152038000D02*
X71150000Y-152038000D01*
X71150000Y-152038000D02*
X71150000Y-153298000D01*
X71150000Y-158858000D02*
X71150000Y-157598000D01*
%TO.C,J1*%
X77530000Y-156733000D02*
X74870000Y-156733000D01*
X77530000Y-159333000D02*
X76200000Y-159333000D01*
X77530000Y-158003000D02*
X77530000Y-159333000D01*
X77530000Y-156733000D02*
X77530000Y-151593000D01*
X77530000Y-151593000D02*
X74870000Y-151593000D01*
X74870000Y-156733000D02*
X74870000Y-151593000D01*
%TO.C,J17*%
X25490000Y-189725000D02*
X23790000Y-188425000D01*
X25490000Y-192545000D02*
X25490000Y-189725000D01*
X25490000Y-192545000D02*
X23790000Y-193845000D01*
X15070000Y-193845000D02*
X15070000Y-188425000D01*
X23790000Y-193845000D02*
X15070000Y-193845000D01*
X23790000Y-188425000D02*
X15070000Y-188425000D01*
%TO.C,R8*%
X38435000Y-191842258D02*
X38435000Y-191367742D01*
X39480000Y-191842258D02*
X39480000Y-191367742D01*
%TO.C,C1*%
X36501800Y-160108020D02*
X36501800Y-160389180D01*
X35481800Y-160108020D02*
X35481800Y-160389180D01*
%TO.C,J5*%
X25490000Y-175400000D02*
X25490000Y-172580000D01*
X15070000Y-176700000D02*
X15070000Y-171280000D01*
X23790000Y-176700000D02*
X15070000Y-176700000D01*
X25490000Y-175400000D02*
X23790000Y-176700000D01*
X23790000Y-171280000D02*
X15070000Y-171280000D01*
X25490000Y-172580000D02*
X23790000Y-171280000D01*
%TO.C,J12*%
X82610000Y-156718000D02*
X82610000Y-151578000D01*
X82610000Y-157988000D02*
X82610000Y-159318000D01*
X82610000Y-156718000D02*
X79950000Y-156718000D01*
X82610000Y-151578000D02*
X79950000Y-151578000D01*
X82610000Y-159318000D02*
X81280000Y-159318000D01*
X79950000Y-156718000D02*
X79950000Y-151578000D01*
%TO.C,J13*%
X53400000Y-174625000D02*
X50740000Y-174625000D01*
X50740000Y-174625000D02*
X50740000Y-169485000D01*
X53400000Y-175895000D02*
X53400000Y-177225000D01*
X53400000Y-169485000D02*
X50740000Y-169485000D01*
X53400000Y-174625000D02*
X53400000Y-169485000D01*
X53400000Y-177225000D02*
X52070000Y-177225000D01*
%TO.C,C8*%
X80390420Y-190502000D02*
X80671580Y-190502000D01*
X80390420Y-189482000D02*
X80671580Y-189482000D01*
%TO.C,R13*%
X57516500Y-171402742D02*
X57516500Y-171877258D01*
X58561500Y-171402742D02*
X58561500Y-171877258D01*
%TO.C,R9*%
X38655000Y-179472258D02*
X38655000Y-178997742D01*
X37610000Y-179472258D02*
X37610000Y-178997742D01*
%TO.C,R5*%
X39782500Y-165964958D02*
X39782500Y-165490442D01*
X40827500Y-165964958D02*
X40827500Y-165490442D01*
%TO.C,J2*%
X80070000Y-151593000D02*
X77410000Y-151593000D01*
X80070000Y-159333000D02*
X78740000Y-159333000D01*
X80070000Y-158003000D02*
X80070000Y-159333000D01*
X80070000Y-156733000D02*
X80070000Y-151593000D01*
X80070000Y-156733000D02*
X77410000Y-156733000D01*
X77410000Y-156733000D02*
X77410000Y-151593000D01*
%TO.C,J11*%
X21336000Y-151832000D02*
X21336000Y-154492000D01*
X21336000Y-154492000D02*
X16196000Y-154492000D01*
X23936000Y-151832000D02*
X23936000Y-153162000D01*
X22606000Y-151832000D02*
X23936000Y-151832000D01*
X21336000Y-151832000D02*
X16196000Y-151832000D01*
X16196000Y-151832000D02*
X16196000Y-154492000D01*
%TO.C,D5*%
X75564000Y-159744200D02*
X75564000Y-165144200D01*
X75564000Y-159744200D02*
X72264000Y-159744200D01*
X72264000Y-159744200D02*
X72264000Y-165144200D01*
%TO.C,TDO*%
X62932000Y-169214000D02*
X63018724Y-169214000D01*
X62932000Y-168529000D02*
X62932000Y-167844000D01*
X62932000Y-167844000D02*
X63627000Y-167844000D01*
X62932000Y-169214000D02*
X64322000Y-169214000D01*
X64235276Y-169214000D02*
X64322000Y-169214000D01*
X62932000Y-169214000D02*
X62932000Y-169089000D01*
X64322000Y-169214000D02*
X64322000Y-169089000D01*
%TO.C,C3*%
X58200000Y-156508563D02*
X58200000Y-152053000D01*
X59264437Y-157573000D02*
X58200000Y-156508563D01*
X63720000Y-156508563D02*
X63720000Y-152053000D01*
X59264437Y-157573000D02*
X59900000Y-157573000D01*
X58962500Y-158125500D02*
X59587500Y-158125500D01*
X63720000Y-152053000D02*
X62020000Y-152053000D01*
X62655563Y-157573000D02*
X62020000Y-157573000D01*
X62655563Y-157573000D02*
X63720000Y-156508563D01*
X59275000Y-158438000D02*
X59275000Y-157813000D01*
X58200000Y-152053000D02*
X59900000Y-152053000D01*
%TO.C,C9*%
X80504420Y-191006000D02*
X80785580Y-191006000D01*
X80504420Y-192026000D02*
X80785580Y-192026000D01*
%TO.C,Q3*%
X27305000Y-166080000D02*
X26655000Y-166080000D01*
X27305000Y-169200000D02*
X26655000Y-169200000D01*
X27305000Y-166080000D02*
X27955000Y-166080000D01*
X27305000Y-169200000D02*
X28980000Y-169200000D01*
%TO.C,J14*%
X25490000Y-186830000D02*
X23790000Y-188130000D01*
X23790000Y-188130000D02*
X15070000Y-188130000D01*
X15070000Y-188130000D02*
X15070000Y-182710000D01*
X23790000Y-182710000D02*
X15070000Y-182710000D01*
X25490000Y-186830000D02*
X25490000Y-184010000D01*
X25490000Y-184010000D02*
X23790000Y-182710000D01*
%TO.C,D8*%
X79094600Y-159763000D02*
X79094600Y-165163000D01*
X75794600Y-159763000D02*
X75794600Y-165163000D01*
X79094600Y-159763000D02*
X75794600Y-159763000D01*
%TD*%
M02*
