%TF.GenerationSoftware,KiCad,Pcbnew,(6.0.9)*%
%TF.CreationDate,2023-01-31T13:38:18+01:00*%
%TF.ProjectId,jf-ecu32,6a662d65-6375-4333-922e-6b696361645f,rev?*%
%TF.SameCoordinates,Original*%
%TF.FileFunction,Legend,Bot*%
%TF.FilePolarity,Positive*%
%FSLAX46Y46*%
G04 Gerber Fmt 4.6, Leading zero omitted, Abs format (unit mm)*
G04 Created by KiCad (PCBNEW (6.0.9)) date 2023-01-31 13:38:18*
%MOMM*%
%LPD*%
G01*
G04 APERTURE LIST*
%ADD10C,0.150000*%
%ADD11C,0.120000*%
G04 APERTURE END LIST*
D10*
%TO.C,D14*%
X48291380Y-182535914D02*
X47291380Y-182535914D01*
X47291380Y-182774009D01*
X47339000Y-182916866D01*
X47434238Y-183012104D01*
X47529476Y-183059723D01*
X47719952Y-183107342D01*
X47862809Y-183107342D01*
X48053285Y-183059723D01*
X48148523Y-183012104D01*
X48243761Y-182916866D01*
X48291380Y-182774009D01*
X48291380Y-182535914D01*
X48291380Y-184059723D02*
X48291380Y-183488295D01*
X48291380Y-183774009D02*
X47291380Y-183774009D01*
X47434238Y-183678771D01*
X47529476Y-183583533D01*
X47577095Y-183488295D01*
X47624714Y-184916866D02*
X48291380Y-184916866D01*
X47243761Y-184678771D02*
X47958047Y-184440676D01*
X47958047Y-185059723D01*
%TO.C,D9*%
X31218095Y-167497380D02*
X31218095Y-166497380D01*
X30980000Y-166497380D01*
X30837142Y-166545000D01*
X30741904Y-166640238D01*
X30694285Y-166735476D01*
X30646666Y-166925952D01*
X30646666Y-167068809D01*
X30694285Y-167259285D01*
X30741904Y-167354523D01*
X30837142Y-167449761D01*
X30980000Y-167497380D01*
X31218095Y-167497380D01*
X30170476Y-167497380D02*
X29980000Y-167497380D01*
X29884761Y-167449761D01*
X29837142Y-167402142D01*
X29741904Y-167259285D01*
X29694285Y-167068809D01*
X29694285Y-166687857D01*
X29741904Y-166592619D01*
X29789523Y-166545000D01*
X29884761Y-166497380D01*
X30075238Y-166497380D01*
X30170476Y-166545000D01*
X30218095Y-166592619D01*
X30265714Y-166687857D01*
X30265714Y-166925952D01*
X30218095Y-167021190D01*
X30170476Y-167068809D01*
X30075238Y-167116428D01*
X29884761Y-167116428D01*
X29789523Y-167068809D01*
X29741904Y-167021190D01*
X29694285Y-166925952D01*
%TO.C,D16*%
X51745780Y-182535914D02*
X50745780Y-182535914D01*
X50745780Y-182774009D01*
X50793400Y-182916866D01*
X50888638Y-183012104D01*
X50983876Y-183059723D01*
X51174352Y-183107342D01*
X51317209Y-183107342D01*
X51507685Y-183059723D01*
X51602923Y-183012104D01*
X51698161Y-182916866D01*
X51745780Y-182774009D01*
X51745780Y-182535914D01*
X51745780Y-184059723D02*
X51745780Y-183488295D01*
X51745780Y-183774009D02*
X50745780Y-183774009D01*
X50888638Y-183678771D01*
X50983876Y-183583533D01*
X51031495Y-183488295D01*
X50745780Y-184916866D02*
X50745780Y-184726390D01*
X50793400Y-184631152D01*
X50841019Y-184583533D01*
X50983876Y-184488295D01*
X51174352Y-184440676D01*
X51555304Y-184440676D01*
X51650542Y-184488295D01*
X51698161Y-184535914D01*
X51745780Y-184631152D01*
X51745780Y-184821628D01*
X51698161Y-184916866D01*
X51650542Y-184964485D01*
X51555304Y-185012104D01*
X51317209Y-185012104D01*
X51221971Y-184964485D01*
X51174352Y-184916866D01*
X51126733Y-184821628D01*
X51126733Y-184631152D01*
X51174352Y-184535914D01*
X51221971Y-184488295D01*
X51317209Y-184440676D01*
%TO.C,U3*%
X37845904Y-158046380D02*
X37845904Y-158855904D01*
X37798285Y-158951142D01*
X37750666Y-158998761D01*
X37655428Y-159046380D01*
X37464952Y-159046380D01*
X37369714Y-158998761D01*
X37322095Y-158951142D01*
X37274476Y-158855904D01*
X37274476Y-158046380D01*
X36893523Y-158046380D02*
X36274476Y-158046380D01*
X36607809Y-158427333D01*
X36464952Y-158427333D01*
X36369714Y-158474952D01*
X36322095Y-158522571D01*
X36274476Y-158617809D01*
X36274476Y-158855904D01*
X36322095Y-158951142D01*
X36369714Y-158998761D01*
X36464952Y-159046380D01*
X36750666Y-159046380D01*
X36845904Y-158998761D01*
X36893523Y-158951142D01*
%TO.C,D10*%
X31734285Y-171307380D02*
X31734285Y-170307380D01*
X31496190Y-170307380D01*
X31353333Y-170355000D01*
X31258095Y-170450238D01*
X31210476Y-170545476D01*
X31162857Y-170735952D01*
X31162857Y-170878809D01*
X31210476Y-171069285D01*
X31258095Y-171164523D01*
X31353333Y-171259761D01*
X31496190Y-171307380D01*
X31734285Y-171307380D01*
X30210476Y-171307380D02*
X30781904Y-171307380D01*
X30496190Y-171307380D02*
X30496190Y-170307380D01*
X30591428Y-170450238D01*
X30686666Y-170545476D01*
X30781904Y-170593095D01*
X29591428Y-170307380D02*
X29496190Y-170307380D01*
X29400952Y-170355000D01*
X29353333Y-170402619D01*
X29305714Y-170497857D01*
X29258095Y-170688333D01*
X29258095Y-170926428D01*
X29305714Y-171116904D01*
X29353333Y-171212142D01*
X29400952Y-171259761D01*
X29496190Y-171307380D01*
X29591428Y-171307380D01*
X29686666Y-171259761D01*
X29734285Y-171212142D01*
X29781904Y-171116904D01*
X29829523Y-170926428D01*
X29829523Y-170688333D01*
X29781904Y-170497857D01*
X29734285Y-170402619D01*
X29686666Y-170355000D01*
X29591428Y-170307380D01*
%TO.C,D6*%
X30424095Y-163988380D02*
X30424095Y-162988380D01*
X30186000Y-162988380D01*
X30043142Y-163036000D01*
X29947904Y-163131238D01*
X29900285Y-163226476D01*
X29852666Y-163416952D01*
X29852666Y-163559809D01*
X29900285Y-163750285D01*
X29947904Y-163845523D01*
X30043142Y-163940761D01*
X30186000Y-163988380D01*
X30424095Y-163988380D01*
X28995523Y-162988380D02*
X29186000Y-162988380D01*
X29281238Y-163036000D01*
X29328857Y-163083619D01*
X29424095Y-163226476D01*
X29471714Y-163416952D01*
X29471714Y-163797904D01*
X29424095Y-163893142D01*
X29376476Y-163940761D01*
X29281238Y-163988380D01*
X29090761Y-163988380D01*
X28995523Y-163940761D01*
X28947904Y-163893142D01*
X28900285Y-163797904D01*
X28900285Y-163559809D01*
X28947904Y-163464571D01*
X28995523Y-163416952D01*
X29090761Y-163369333D01*
X29281238Y-163369333D01*
X29376476Y-163416952D01*
X29424095Y-163464571D01*
X29471714Y-163559809D01*
%TO.C,D15*%
X31919285Y-189087380D02*
X31919285Y-188087380D01*
X31681190Y-188087380D01*
X31538333Y-188135000D01*
X31443095Y-188230238D01*
X31395476Y-188325476D01*
X31347857Y-188515952D01*
X31347857Y-188658809D01*
X31395476Y-188849285D01*
X31443095Y-188944523D01*
X31538333Y-189039761D01*
X31681190Y-189087380D01*
X31919285Y-189087380D01*
X30395476Y-189087380D02*
X30966904Y-189087380D01*
X30681190Y-189087380D02*
X30681190Y-188087380D01*
X30776428Y-188230238D01*
X30871666Y-188325476D01*
X30966904Y-188373095D01*
X29490714Y-188087380D02*
X29966904Y-188087380D01*
X30014523Y-188563571D01*
X29966904Y-188515952D01*
X29871666Y-188468333D01*
X29633571Y-188468333D01*
X29538333Y-188515952D01*
X29490714Y-188563571D01*
X29443095Y-188658809D01*
X29443095Y-188896904D01*
X29490714Y-188992142D01*
X29538333Y-189039761D01*
X29633571Y-189087380D01*
X29871666Y-189087380D01*
X29966904Y-189039761D01*
X30014523Y-188992142D01*
%TO.C,D13*%
X31734285Y-183372380D02*
X31734285Y-182372380D01*
X31496190Y-182372380D01*
X31353333Y-182420000D01*
X31258095Y-182515238D01*
X31210476Y-182610476D01*
X31162857Y-182800952D01*
X31162857Y-182943809D01*
X31210476Y-183134285D01*
X31258095Y-183229523D01*
X31353333Y-183324761D01*
X31496190Y-183372380D01*
X31734285Y-183372380D01*
X30210476Y-183372380D02*
X30781904Y-183372380D01*
X30496190Y-183372380D02*
X30496190Y-182372380D01*
X30591428Y-182515238D01*
X30686666Y-182610476D01*
X30781904Y-182658095D01*
X29877142Y-182372380D02*
X29258095Y-182372380D01*
X29591428Y-182753333D01*
X29448571Y-182753333D01*
X29353333Y-182800952D01*
X29305714Y-182848571D01*
X29258095Y-182943809D01*
X29258095Y-183181904D01*
X29305714Y-183277142D01*
X29353333Y-183324761D01*
X29448571Y-183372380D01*
X29734285Y-183372380D01*
X29829523Y-183324761D01*
X29877142Y-183277142D01*
%TO.C,R14*%
X58625980Y-175340542D02*
X58149790Y-175007209D01*
X58625980Y-174769114D02*
X57625980Y-174769114D01*
X57625980Y-175150066D01*
X57673600Y-175245304D01*
X57721219Y-175292923D01*
X57816457Y-175340542D01*
X57959314Y-175340542D01*
X58054552Y-175292923D01*
X58102171Y-175245304D01*
X58149790Y-175150066D01*
X58149790Y-174769114D01*
X58625980Y-176292923D02*
X58625980Y-175721495D01*
X58625980Y-176007209D02*
X57625980Y-176007209D01*
X57768838Y-175911971D01*
X57864076Y-175816733D01*
X57911695Y-175721495D01*
X57959314Y-177150066D02*
X58625980Y-177150066D01*
X57578361Y-176911971D02*
X58292647Y-176673876D01*
X58292647Y-177292923D01*
%TO.C,U2*%
X59368580Y-166598695D02*
X60178104Y-166598695D01*
X60273342Y-166646314D01*
X60320961Y-166693933D01*
X60368580Y-166789171D01*
X60368580Y-166979647D01*
X60320961Y-167074885D01*
X60273342Y-167122504D01*
X60178104Y-167170123D01*
X59368580Y-167170123D01*
X59463819Y-167598695D02*
X59416200Y-167646314D01*
X59368580Y-167741552D01*
X59368580Y-167979647D01*
X59416200Y-168074885D01*
X59463819Y-168122504D01*
X59559057Y-168170123D01*
X59654295Y-168170123D01*
X59797152Y-168122504D01*
X60368580Y-167551076D01*
X60368580Y-168170123D01*
%TO.C,D7*%
X31218095Y-163687380D02*
X31218095Y-162687380D01*
X30980000Y-162687380D01*
X30837142Y-162735000D01*
X30741904Y-162830238D01*
X30694285Y-162925476D01*
X30646666Y-163115952D01*
X30646666Y-163258809D01*
X30694285Y-163449285D01*
X30741904Y-163544523D01*
X30837142Y-163639761D01*
X30980000Y-163687380D01*
X31218095Y-163687380D01*
X30313333Y-162687380D02*
X29646666Y-162687380D01*
X30075238Y-163687380D01*
%TO.C,U5*%
X45296980Y-168783095D02*
X46106504Y-168783095D01*
X46201742Y-168830714D01*
X46249361Y-168878333D01*
X46296980Y-168973571D01*
X46296980Y-169164047D01*
X46249361Y-169259285D01*
X46201742Y-169306904D01*
X46106504Y-169354523D01*
X45296980Y-169354523D01*
X45296980Y-170306904D02*
X45296980Y-169830714D01*
X45773171Y-169783095D01*
X45725552Y-169830714D01*
X45677933Y-169925952D01*
X45677933Y-170164047D01*
X45725552Y-170259285D01*
X45773171Y-170306904D01*
X45868409Y-170354523D01*
X46106504Y-170354523D01*
X46201742Y-170306904D01*
X46249361Y-170259285D01*
X46296980Y-170164047D01*
X46296980Y-169925952D01*
X46249361Y-169830714D01*
X46201742Y-169783095D01*
%TO.C,D4*%
X44862380Y-183001904D02*
X43862380Y-183001904D01*
X43862380Y-183240000D01*
X43910000Y-183382857D01*
X44005238Y-183478095D01*
X44100476Y-183525714D01*
X44290952Y-183573333D01*
X44433809Y-183573333D01*
X44624285Y-183525714D01*
X44719523Y-183478095D01*
X44814761Y-183382857D01*
X44862380Y-183240000D01*
X44862380Y-183001904D01*
X44195714Y-184430476D02*
X44862380Y-184430476D01*
X43814761Y-184192380D02*
X44529047Y-183954285D01*
X44529047Y-184573333D01*
%TO.C,D3*%
X31258095Y-177657380D02*
X31258095Y-176657380D01*
X31020000Y-176657380D01*
X30877142Y-176705000D01*
X30781904Y-176800238D01*
X30734285Y-176895476D01*
X30686666Y-177085952D01*
X30686666Y-177228809D01*
X30734285Y-177419285D01*
X30781904Y-177514523D01*
X30877142Y-177609761D01*
X31020000Y-177657380D01*
X31258095Y-177657380D01*
X30353333Y-176657380D02*
X29734285Y-176657380D01*
X30067619Y-177038333D01*
X29924761Y-177038333D01*
X29829523Y-177085952D01*
X29781904Y-177133571D01*
X29734285Y-177228809D01*
X29734285Y-177466904D01*
X29781904Y-177562142D01*
X29829523Y-177609761D01*
X29924761Y-177657380D01*
X30210476Y-177657380D01*
X30305714Y-177609761D01*
X30353333Y-177562142D01*
D11*
%TO.C,D14*%
X43689000Y-187150200D02*
X43689000Y-181750200D01*
X46989000Y-187150200D02*
X43689000Y-187150200D01*
X46989000Y-187150200D02*
X46989000Y-181750200D01*
%TO.C,D9*%
X33880000Y-171195000D02*
X28480000Y-171195000D01*
X33880000Y-167895000D02*
X28480000Y-167895000D01*
X33880000Y-167895000D02*
X33880000Y-171195000D01*
%TO.C,D16*%
X50443400Y-187150200D02*
X50443400Y-181750200D01*
X50443400Y-187150200D02*
X47143400Y-187150200D01*
X47143400Y-187150200D02*
X47143400Y-181750200D01*
%TO.C,U3*%
X37084000Y-157754000D02*
X33634000Y-157754000D01*
X37084000Y-152634000D02*
X35134000Y-152634000D01*
X37084000Y-157754000D02*
X39034000Y-157754000D01*
X37084000Y-152634000D02*
X39034000Y-152634000D01*
%TO.C,D10*%
X33920000Y-171705000D02*
X33920000Y-175005000D01*
X33920000Y-175005000D02*
X28520000Y-175005000D01*
X33920000Y-171705000D02*
X28520000Y-171705000D01*
%TO.C,D6*%
X26286000Y-159386000D02*
X31686000Y-159386000D01*
X26286000Y-162686000D02*
X31686000Y-162686000D01*
X26286000Y-162686000D02*
X26286000Y-159386000D01*
%TO.C,D15*%
X34105000Y-189485000D02*
X34105000Y-192785000D01*
X34105000Y-192785000D02*
X28705000Y-192785000D01*
X34105000Y-189485000D02*
X28705000Y-189485000D01*
%TO.C,D13*%
X33920000Y-187070000D02*
X28520000Y-187070000D01*
X33920000Y-183770000D02*
X28520000Y-183770000D01*
X33920000Y-183770000D02*
X33920000Y-187070000D01*
%TO.C,R14*%
X56221100Y-176220658D02*
X56221100Y-175746142D01*
X57266100Y-176220658D02*
X57266100Y-175746142D01*
%TO.C,U2*%
X61116200Y-164960600D02*
X61116200Y-163560600D01*
X60716200Y-164960600D02*
X60716200Y-169760600D01*
X71516200Y-164960600D02*
X71516200Y-169760600D01*
X60716200Y-164960600D02*
X61116200Y-164960600D01*
%TO.C,D7*%
X33880000Y-164085000D02*
X33880000Y-167385000D01*
X33880000Y-167385000D02*
X28480000Y-167385000D01*
X33880000Y-164085000D02*
X28480000Y-164085000D01*
%TO.C,U5*%
X46009600Y-160287000D02*
X46409600Y-160287000D01*
X46409600Y-160287000D02*
X46409600Y-158887000D01*
X46009600Y-160287000D02*
X46009600Y-165087000D01*
X56809600Y-160287000D02*
X56809600Y-165087000D01*
%TO.C,D4*%
X40260000Y-187140000D02*
X40260000Y-181740000D01*
X43560000Y-187140000D02*
X43560000Y-181740000D01*
X43560000Y-187140000D02*
X40260000Y-187140000D01*
%TO.C,D3*%
X33920000Y-178055000D02*
X28520000Y-178055000D01*
X33920000Y-181355000D02*
X28520000Y-181355000D01*
X33920000Y-178055000D02*
X33920000Y-181355000D01*
%TD*%
M02*
