%TF.GenerationSoftware,KiCad,Pcbnew,(6.0.10)*%
%TF.CreationDate,2023-02-01T19:36:09+01:00*%
%TF.ProjectId,jf-ecu32,6a662d65-6375-4333-922e-6b696361645f,rev?*%
%TF.SameCoordinates,Original*%
%TF.FileFunction,Legend,Bot*%
%TF.FilePolarity,Positive*%
%FSLAX46Y46*%
G04 Gerber Fmt 4.6, Leading zero omitted, Abs format (unit mm)*
G04 Created by KiCad (PCBNEW (6.0.10)) date 2023-02-01 19:36:09*
%MOMM*%
%LPD*%
G01*
G04 APERTURE LIST*
%ADD10C,0.150000*%
%ADD11C,0.120000*%
G04 APERTURE END LIST*
D10*
%TO.C,C11*%
X39758857Y-151614142D02*
X39806476Y-151661761D01*
X39949333Y-151709380D01*
X40044571Y-151709380D01*
X40187428Y-151661761D01*
X40282666Y-151566523D01*
X40330285Y-151471285D01*
X40377904Y-151280809D01*
X40377904Y-151137952D01*
X40330285Y-150947476D01*
X40282666Y-150852238D01*
X40187428Y-150757000D01*
X40044571Y-150709380D01*
X39949333Y-150709380D01*
X39806476Y-150757000D01*
X39758857Y-150804619D01*
X38806476Y-151709380D02*
X39377904Y-151709380D01*
X39092190Y-151709380D02*
X39092190Y-150709380D01*
X39187428Y-150852238D01*
X39282666Y-150947476D01*
X39377904Y-150995095D01*
X37854095Y-151709380D02*
X38425523Y-151709380D01*
X38139809Y-151709380D02*
X38139809Y-150709380D01*
X38235047Y-150852238D01*
X38330285Y-150947476D01*
X38425523Y-150995095D01*
%TO.C,C10*%
X32773857Y-156186142D02*
X32821476Y-156233761D01*
X32964333Y-156281380D01*
X33059571Y-156281380D01*
X33202428Y-156233761D01*
X33297666Y-156138523D01*
X33345285Y-156043285D01*
X33392904Y-155852809D01*
X33392904Y-155709952D01*
X33345285Y-155519476D01*
X33297666Y-155424238D01*
X33202428Y-155329000D01*
X33059571Y-155281380D01*
X32964333Y-155281380D01*
X32821476Y-155329000D01*
X32773857Y-155376619D01*
X31821476Y-156281380D02*
X32392904Y-156281380D01*
X32107190Y-156281380D02*
X32107190Y-155281380D01*
X32202428Y-155424238D01*
X32297666Y-155519476D01*
X32392904Y-155567095D01*
X31202428Y-155281380D02*
X31107190Y-155281380D01*
X31011952Y-155329000D01*
X30964333Y-155376619D01*
X30916714Y-155471857D01*
X30869095Y-155662333D01*
X30869095Y-155900428D01*
X30916714Y-156090904D01*
X30964333Y-156186142D01*
X31011952Y-156233761D01*
X31107190Y-156281380D01*
X31202428Y-156281380D01*
X31297666Y-156233761D01*
X31345285Y-156186142D01*
X31392904Y-156090904D01*
X31440523Y-155900428D01*
X31440523Y-155662333D01*
X31392904Y-155471857D01*
X31345285Y-155376619D01*
X31297666Y-155329000D01*
X31202428Y-155281380D01*
%TO.C,C6*%
X50268142Y-156551333D02*
X50315761Y-156503714D01*
X50363380Y-156360857D01*
X50363380Y-156265619D01*
X50315761Y-156122761D01*
X50220523Y-156027523D01*
X50125285Y-155979904D01*
X49934809Y-155932285D01*
X49791952Y-155932285D01*
X49601476Y-155979904D01*
X49506238Y-156027523D01*
X49411000Y-156122761D01*
X49363380Y-156265619D01*
X49363380Y-156360857D01*
X49411000Y-156503714D01*
X49458619Y-156551333D01*
X49363380Y-157408476D02*
X49363380Y-157218000D01*
X49411000Y-157122761D01*
X49458619Y-157075142D01*
X49601476Y-156979904D01*
X49791952Y-156932285D01*
X50172904Y-156932285D01*
X50268142Y-156979904D01*
X50315761Y-157027523D01*
X50363380Y-157122761D01*
X50363380Y-157313238D01*
X50315761Y-157408476D01*
X50268142Y-157456095D01*
X50172904Y-157503714D01*
X49934809Y-157503714D01*
X49839571Y-157456095D01*
X49791952Y-157408476D01*
X49744333Y-157313238D01*
X49744333Y-157122761D01*
X49791952Y-157027523D01*
X49839571Y-156979904D01*
X49934809Y-156932285D01*
%TO.C,C5*%
X62129666Y-161393142D02*
X62177285Y-161440761D01*
X62320142Y-161488380D01*
X62415380Y-161488380D01*
X62558238Y-161440761D01*
X62653476Y-161345523D01*
X62701095Y-161250285D01*
X62748714Y-161059809D01*
X62748714Y-160916952D01*
X62701095Y-160726476D01*
X62653476Y-160631238D01*
X62558238Y-160536000D01*
X62415380Y-160488380D01*
X62320142Y-160488380D01*
X62177285Y-160536000D01*
X62129666Y-160583619D01*
X61224904Y-160488380D02*
X61701095Y-160488380D01*
X61748714Y-160964571D01*
X61701095Y-160916952D01*
X61605857Y-160869333D01*
X61367761Y-160869333D01*
X61272523Y-160916952D01*
X61224904Y-160964571D01*
X61177285Y-161059809D01*
X61177285Y-161297904D01*
X61224904Y-161393142D01*
X61272523Y-161440761D01*
X61367761Y-161488380D01*
X61605857Y-161488380D01*
X61701095Y-161440761D01*
X61748714Y-161393142D01*
%TO.C,D14*%
X45791380Y-177601714D02*
X44791380Y-177601714D01*
X44791380Y-177839809D01*
X44839000Y-177982666D01*
X44934238Y-178077904D01*
X45029476Y-178125523D01*
X45219952Y-178173142D01*
X45362809Y-178173142D01*
X45553285Y-178125523D01*
X45648523Y-178077904D01*
X45743761Y-177982666D01*
X45791380Y-177839809D01*
X45791380Y-177601714D01*
X45791380Y-179125523D02*
X45791380Y-178554095D01*
X45791380Y-178839809D02*
X44791380Y-178839809D01*
X44934238Y-178744571D01*
X45029476Y-178649333D01*
X45077095Y-178554095D01*
X45124714Y-179982666D02*
X45791380Y-179982666D01*
X44743761Y-179744571D02*
X45458047Y-179506476D01*
X45458047Y-180125523D01*
%TO.C,D9*%
X36044095Y-169997380D02*
X36044095Y-168997380D01*
X35806000Y-168997380D01*
X35663142Y-169045000D01*
X35567904Y-169140238D01*
X35520285Y-169235476D01*
X35472666Y-169425952D01*
X35472666Y-169568809D01*
X35520285Y-169759285D01*
X35567904Y-169854523D01*
X35663142Y-169949761D01*
X35806000Y-169997380D01*
X36044095Y-169997380D01*
X34996476Y-169997380D02*
X34806000Y-169997380D01*
X34710761Y-169949761D01*
X34663142Y-169902142D01*
X34567904Y-169759285D01*
X34520285Y-169568809D01*
X34520285Y-169187857D01*
X34567904Y-169092619D01*
X34615523Y-169045000D01*
X34710761Y-168997380D01*
X34901238Y-168997380D01*
X34996476Y-169045000D01*
X35044095Y-169092619D01*
X35091714Y-169187857D01*
X35091714Y-169425952D01*
X35044095Y-169521190D01*
X34996476Y-169568809D01*
X34901238Y-169616428D01*
X34710761Y-169616428D01*
X34615523Y-169568809D01*
X34567904Y-169521190D01*
X34520285Y-169425952D01*
%TO.C,D16*%
X49347380Y-177601714D02*
X48347380Y-177601714D01*
X48347380Y-177839809D01*
X48395000Y-177982666D01*
X48490238Y-178077904D01*
X48585476Y-178125523D01*
X48775952Y-178173142D01*
X48918809Y-178173142D01*
X49109285Y-178125523D01*
X49204523Y-178077904D01*
X49299761Y-177982666D01*
X49347380Y-177839809D01*
X49347380Y-177601714D01*
X49347380Y-179125523D02*
X49347380Y-178554095D01*
X49347380Y-178839809D02*
X48347380Y-178839809D01*
X48490238Y-178744571D01*
X48585476Y-178649333D01*
X48633095Y-178554095D01*
X48347380Y-179982666D02*
X48347380Y-179792190D01*
X48395000Y-179696952D01*
X48442619Y-179649333D01*
X48585476Y-179554095D01*
X48775952Y-179506476D01*
X49156904Y-179506476D01*
X49252142Y-179554095D01*
X49299761Y-179601714D01*
X49347380Y-179696952D01*
X49347380Y-179887428D01*
X49299761Y-179982666D01*
X49252142Y-180030285D01*
X49156904Y-180077904D01*
X48918809Y-180077904D01*
X48823571Y-180030285D01*
X48775952Y-179982666D01*
X48728333Y-179887428D01*
X48728333Y-179696952D01*
X48775952Y-179601714D01*
X48823571Y-179554095D01*
X48918809Y-179506476D01*
%TO.C,U3*%
X37845904Y-158046380D02*
X37845904Y-158855904D01*
X37798285Y-158951142D01*
X37750666Y-158998761D01*
X37655428Y-159046380D01*
X37464952Y-159046380D01*
X37369714Y-158998761D01*
X37322095Y-158951142D01*
X37274476Y-158855904D01*
X37274476Y-158046380D01*
X36893523Y-158046380D02*
X36274476Y-158046380D01*
X36607809Y-158427333D01*
X36464952Y-158427333D01*
X36369714Y-158474952D01*
X36322095Y-158522571D01*
X36274476Y-158617809D01*
X36274476Y-158855904D01*
X36322095Y-158951142D01*
X36369714Y-158998761D01*
X36464952Y-159046380D01*
X36750666Y-159046380D01*
X36845904Y-158998761D01*
X36893523Y-158951142D01*
%TO.C,D10*%
X36901285Y-173807380D02*
X36901285Y-172807380D01*
X36663190Y-172807380D01*
X36520333Y-172855000D01*
X36425095Y-172950238D01*
X36377476Y-173045476D01*
X36329857Y-173235952D01*
X36329857Y-173378809D01*
X36377476Y-173569285D01*
X36425095Y-173664523D01*
X36520333Y-173759761D01*
X36663190Y-173807380D01*
X36901285Y-173807380D01*
X35377476Y-173807380D02*
X35948904Y-173807380D01*
X35663190Y-173807380D02*
X35663190Y-172807380D01*
X35758428Y-172950238D01*
X35853666Y-173045476D01*
X35948904Y-173093095D01*
X34758428Y-172807380D02*
X34663190Y-172807380D01*
X34567952Y-172855000D01*
X34520333Y-172902619D01*
X34472714Y-172997857D01*
X34425095Y-173188333D01*
X34425095Y-173426428D01*
X34472714Y-173616904D01*
X34520333Y-173712142D01*
X34567952Y-173759761D01*
X34663190Y-173807380D01*
X34758428Y-173807380D01*
X34853666Y-173759761D01*
X34901285Y-173712142D01*
X34948904Y-173616904D01*
X34996523Y-173426428D01*
X34996523Y-173188333D01*
X34948904Y-172997857D01*
X34901285Y-172902619D01*
X34853666Y-172855000D01*
X34758428Y-172807380D01*
%TO.C,D6*%
X35028095Y-161361380D02*
X35028095Y-160361380D01*
X34790000Y-160361380D01*
X34647142Y-160409000D01*
X34551904Y-160504238D01*
X34504285Y-160599476D01*
X34456666Y-160789952D01*
X34456666Y-160932809D01*
X34504285Y-161123285D01*
X34551904Y-161218523D01*
X34647142Y-161313761D01*
X34790000Y-161361380D01*
X35028095Y-161361380D01*
X33599523Y-160361380D02*
X33790000Y-160361380D01*
X33885238Y-160409000D01*
X33932857Y-160456619D01*
X34028095Y-160599476D01*
X34075714Y-160789952D01*
X34075714Y-161170904D01*
X34028095Y-161266142D01*
X33980476Y-161313761D01*
X33885238Y-161361380D01*
X33694761Y-161361380D01*
X33599523Y-161313761D01*
X33551904Y-161266142D01*
X33504285Y-161170904D01*
X33504285Y-160932809D01*
X33551904Y-160837571D01*
X33599523Y-160789952D01*
X33694761Y-160742333D01*
X33885238Y-160742333D01*
X33980476Y-160789952D01*
X34028095Y-160837571D01*
X34075714Y-160932809D01*
%TO.C,D15*%
X31919285Y-189087380D02*
X31919285Y-188087380D01*
X31681190Y-188087380D01*
X31538333Y-188135000D01*
X31443095Y-188230238D01*
X31395476Y-188325476D01*
X31347857Y-188515952D01*
X31347857Y-188658809D01*
X31395476Y-188849285D01*
X31443095Y-188944523D01*
X31538333Y-189039761D01*
X31681190Y-189087380D01*
X31919285Y-189087380D01*
X30395476Y-189087380D02*
X30966904Y-189087380D01*
X30681190Y-189087380D02*
X30681190Y-188087380D01*
X30776428Y-188230238D01*
X30871666Y-188325476D01*
X30966904Y-188373095D01*
X29490714Y-188087380D02*
X29966904Y-188087380D01*
X30014523Y-188563571D01*
X29966904Y-188515952D01*
X29871666Y-188468333D01*
X29633571Y-188468333D01*
X29538333Y-188515952D01*
X29490714Y-188563571D01*
X29443095Y-188658809D01*
X29443095Y-188896904D01*
X29490714Y-188992142D01*
X29538333Y-189039761D01*
X29633571Y-189087380D01*
X29871666Y-189087380D01*
X29966904Y-189039761D01*
X30014523Y-188992142D01*
%TO.C,D13*%
X31734285Y-183372380D02*
X31734285Y-182372380D01*
X31496190Y-182372380D01*
X31353333Y-182420000D01*
X31258095Y-182515238D01*
X31210476Y-182610476D01*
X31162857Y-182800952D01*
X31162857Y-182943809D01*
X31210476Y-183134285D01*
X31258095Y-183229523D01*
X31353333Y-183324761D01*
X31496190Y-183372380D01*
X31734285Y-183372380D01*
X30210476Y-183372380D02*
X30781904Y-183372380D01*
X30496190Y-183372380D02*
X30496190Y-182372380D01*
X30591428Y-182515238D01*
X30686666Y-182610476D01*
X30781904Y-182658095D01*
X29877142Y-182372380D02*
X29258095Y-182372380D01*
X29591428Y-182753333D01*
X29448571Y-182753333D01*
X29353333Y-182800952D01*
X29305714Y-182848571D01*
X29258095Y-182943809D01*
X29258095Y-183181904D01*
X29305714Y-183277142D01*
X29353333Y-183324761D01*
X29448571Y-183372380D01*
X29734285Y-183372380D01*
X29829523Y-183324761D01*
X29877142Y-183277142D01*
%TO.C,R14*%
X58625980Y-175340542D02*
X58149790Y-175007209D01*
X58625980Y-174769114D02*
X57625980Y-174769114D01*
X57625980Y-175150066D01*
X57673600Y-175245304D01*
X57721219Y-175292923D01*
X57816457Y-175340542D01*
X57959314Y-175340542D01*
X58054552Y-175292923D01*
X58102171Y-175245304D01*
X58149790Y-175150066D01*
X58149790Y-174769114D01*
X58625980Y-176292923D02*
X58625980Y-175721495D01*
X58625980Y-176007209D02*
X57625980Y-176007209D01*
X57768838Y-175911971D01*
X57864076Y-175816733D01*
X57911695Y-175721495D01*
X57959314Y-177150066D02*
X58625980Y-177150066D01*
X57578361Y-176911971D02*
X58292647Y-176673876D01*
X58292647Y-177292923D01*
%TO.C,U2*%
X59368580Y-166598695D02*
X60178104Y-166598695D01*
X60273342Y-166646314D01*
X60320961Y-166693933D01*
X60368580Y-166789171D01*
X60368580Y-166979647D01*
X60320961Y-167074885D01*
X60273342Y-167122504D01*
X60178104Y-167170123D01*
X59368580Y-167170123D01*
X59463819Y-167598695D02*
X59416200Y-167646314D01*
X59368580Y-167741552D01*
X59368580Y-167979647D01*
X59416200Y-168074885D01*
X59463819Y-168122504D01*
X59559057Y-168170123D01*
X59654295Y-168170123D01*
X59797152Y-168122504D01*
X60368580Y-167551076D01*
X60368580Y-168170123D01*
%TO.C,D7*%
X35917095Y-166060380D02*
X35917095Y-165060380D01*
X35679000Y-165060380D01*
X35536142Y-165108000D01*
X35440904Y-165203238D01*
X35393285Y-165298476D01*
X35345666Y-165488952D01*
X35345666Y-165631809D01*
X35393285Y-165822285D01*
X35440904Y-165917523D01*
X35536142Y-166012761D01*
X35679000Y-166060380D01*
X35917095Y-166060380D01*
X35012333Y-165060380D02*
X34345666Y-165060380D01*
X34774238Y-166060380D01*
%TO.C,U5*%
X44410380Y-162179095D02*
X45219904Y-162179095D01*
X45315142Y-162226714D01*
X45362761Y-162274333D01*
X45410380Y-162369571D01*
X45410380Y-162560047D01*
X45362761Y-162655285D01*
X45315142Y-162702904D01*
X45219904Y-162750523D01*
X44410380Y-162750523D01*
X44410380Y-163702904D02*
X44410380Y-163226714D01*
X44886571Y-163179095D01*
X44838952Y-163226714D01*
X44791333Y-163321952D01*
X44791333Y-163560047D01*
X44838952Y-163655285D01*
X44886571Y-163702904D01*
X44981809Y-163750523D01*
X45219904Y-163750523D01*
X45315142Y-163702904D01*
X45362761Y-163655285D01*
X45410380Y-163560047D01*
X45410380Y-163321952D01*
X45362761Y-163226714D01*
X45315142Y-163179095D01*
%TO.C,D4*%
X42489380Y-177823904D02*
X41489380Y-177823904D01*
X41489380Y-178062000D01*
X41537000Y-178204857D01*
X41632238Y-178300095D01*
X41727476Y-178347714D01*
X41917952Y-178395333D01*
X42060809Y-178395333D01*
X42251285Y-178347714D01*
X42346523Y-178300095D01*
X42441761Y-178204857D01*
X42489380Y-178062000D01*
X42489380Y-177823904D01*
X41822714Y-179252476D02*
X42489380Y-179252476D01*
X41441761Y-179014380D02*
X42156047Y-178776285D01*
X42156047Y-179395333D01*
%TO.C,D3*%
X31258095Y-177657380D02*
X31258095Y-176657380D01*
X31020000Y-176657380D01*
X30877142Y-176705000D01*
X30781904Y-176800238D01*
X30734285Y-176895476D01*
X30686666Y-177085952D01*
X30686666Y-177228809D01*
X30734285Y-177419285D01*
X30781904Y-177514523D01*
X30877142Y-177609761D01*
X31020000Y-177657380D01*
X31258095Y-177657380D01*
X30353333Y-176657380D02*
X29734285Y-176657380D01*
X30067619Y-177038333D01*
X29924761Y-177038333D01*
X29829523Y-177085952D01*
X29781904Y-177133571D01*
X29734285Y-177228809D01*
X29734285Y-177466904D01*
X29781904Y-177562142D01*
X29829523Y-177609761D01*
X29924761Y-177657380D01*
X30210476Y-177657380D01*
X30305714Y-177609761D01*
X30353333Y-177562142D01*
D11*
%TO.C,C11*%
X35927420Y-151001000D02*
X36208580Y-151001000D01*
X35927420Y-152021000D02*
X36208580Y-152021000D01*
%TO.C,C10*%
X32271580Y-155196000D02*
X31990420Y-155196000D01*
X32271580Y-154176000D02*
X31990420Y-154176000D01*
%TO.C,C6*%
X47877000Y-157379580D02*
X47877000Y-157098420D01*
X48897000Y-157379580D02*
X48897000Y-157098420D01*
%TO.C,C5*%
X61822420Y-161796000D02*
X62103580Y-161796000D01*
X61822420Y-162816000D02*
X62103580Y-162816000D01*
%TO.C,D14*%
X43689000Y-187150200D02*
X43689000Y-181750200D01*
X46989000Y-187150200D02*
X43689000Y-187150200D01*
X46989000Y-187150200D02*
X46989000Y-181750200D01*
%TO.C,D9*%
X33880000Y-167895000D02*
X33880000Y-171195000D01*
X33880000Y-167895000D02*
X28480000Y-167895000D01*
X33880000Y-171195000D02*
X28480000Y-171195000D01*
%TO.C,D16*%
X50443400Y-187150200D02*
X50443400Y-181750200D01*
X50443400Y-187150200D02*
X47143400Y-187150200D01*
X47143400Y-187150200D02*
X47143400Y-181750200D01*
%TO.C,U3*%
X37084000Y-157754000D02*
X33634000Y-157754000D01*
X37084000Y-152634000D02*
X35134000Y-152634000D01*
X37084000Y-157754000D02*
X39034000Y-157754000D01*
X37084000Y-152634000D02*
X39034000Y-152634000D01*
%TO.C,D10*%
X33920000Y-171705000D02*
X33920000Y-175005000D01*
X33920000Y-175005000D02*
X28520000Y-175005000D01*
X33920000Y-171705000D02*
X28520000Y-171705000D01*
%TO.C,D6*%
X26286000Y-159386000D02*
X31686000Y-159386000D01*
X26286000Y-162686000D02*
X31686000Y-162686000D01*
X26286000Y-162686000D02*
X26286000Y-159386000D01*
%TO.C,D15*%
X34105000Y-189485000D02*
X34105000Y-192785000D01*
X34105000Y-192785000D02*
X28705000Y-192785000D01*
X34105000Y-189485000D02*
X28705000Y-189485000D01*
%TO.C,D13*%
X33920000Y-187070000D02*
X28520000Y-187070000D01*
X33920000Y-183770000D02*
X28520000Y-183770000D01*
X33920000Y-183770000D02*
X33920000Y-187070000D01*
%TO.C,R14*%
X56221100Y-176220658D02*
X56221100Y-175746142D01*
X57266100Y-176220658D02*
X57266100Y-175746142D01*
%TO.C,U2*%
X61116200Y-164960600D02*
X61116200Y-163560600D01*
X60716200Y-164960600D02*
X60716200Y-169760600D01*
X71516200Y-164960600D02*
X71516200Y-169760600D01*
X60716200Y-164960600D02*
X61116200Y-164960600D01*
%TO.C,D7*%
X33880000Y-164085000D02*
X28480000Y-164085000D01*
X33880000Y-167385000D02*
X28480000Y-167385000D01*
X33880000Y-164085000D02*
X33880000Y-167385000D01*
%TO.C,U5*%
X56809600Y-160287000D02*
X56809600Y-165087000D01*
X46009600Y-160287000D02*
X46009600Y-165087000D01*
X46409600Y-160287000D02*
X46409600Y-158887000D01*
X46009600Y-160287000D02*
X46409600Y-160287000D01*
%TO.C,D4*%
X40260000Y-187140000D02*
X40260000Y-181740000D01*
X43560000Y-187140000D02*
X43560000Y-181740000D01*
X43560000Y-187140000D02*
X40260000Y-187140000D01*
%TO.C,D3*%
X33920000Y-178055000D02*
X28520000Y-178055000D01*
X33920000Y-181355000D02*
X28520000Y-181355000D01*
X33920000Y-178055000D02*
X33920000Y-181355000D01*
%TD*%
M02*
