%TF.GenerationSoftware,KiCad,Pcbnew,(6.0.9)*%
%TF.CreationDate,2023-04-19T21:58:59+02:00*%
%TF.ProjectId,jf-ecu32,6a662d65-6375-4333-922e-6b696361645f,rev?*%
%TF.SameCoordinates,Original*%
%TF.FileFunction,Drillmap*%
%TF.FilePolarity,Positive*%
%FSLAX45Y45*%
G04 Gerber Fmt 4.5, Leading zero omitted, Abs format (unit mm)*
G04 Created by KiCad (PCBNEW (6.0.9)) date 2023-04-19 21:58:59*
%MOMM*%
%LPD*%
G01*
G04 APERTURE LIST*
%ADD10C,0.200000*%
G04 APERTURE END LIST*
D10*
X1282700Y-15011400D02*
X8407400Y-15011400D01*
X8407400Y-15011400D02*
X8407400Y-19710400D01*
X8407400Y-19710400D02*
X1282700Y-19710400D01*
X1282700Y-19710400D02*
X1282700Y-15011400D01*
X1530319Y-20030876D02*
X1530319Y-19830876D01*
X1577938Y-19830876D01*
X1606509Y-19840400D01*
X1625557Y-19859448D01*
X1635081Y-19878495D01*
X1644605Y-19916590D01*
X1644605Y-19945162D01*
X1635081Y-19983257D01*
X1625557Y-20002305D01*
X1606509Y-20021352D01*
X1577938Y-20030876D01*
X1530319Y-20030876D01*
X1730319Y-20030876D02*
X1730319Y-19897543D01*
X1730319Y-19935638D02*
X1739843Y-19916590D01*
X1749367Y-19907067D01*
X1768414Y-19897543D01*
X1787462Y-19897543D01*
X1854128Y-20030876D02*
X1854128Y-19897543D01*
X1854128Y-19830876D02*
X1844605Y-19840400D01*
X1854128Y-19849924D01*
X1863652Y-19840400D01*
X1854128Y-19830876D01*
X1854128Y-19849924D01*
X1977938Y-20030876D02*
X1958890Y-20021352D01*
X1949367Y-20002305D01*
X1949367Y-19830876D01*
X2082700Y-20030876D02*
X2063652Y-20021352D01*
X2054128Y-20002305D01*
X2054128Y-19830876D01*
X2311271Y-20030876D02*
X2311271Y-19830876D01*
X2377938Y-19973733D01*
X2444605Y-19830876D01*
X2444605Y-20030876D01*
X2625557Y-20030876D02*
X2625557Y-19926114D01*
X2616033Y-19907067D01*
X2596986Y-19897543D01*
X2558890Y-19897543D01*
X2539843Y-19907067D01*
X2625557Y-20021352D02*
X2606510Y-20030876D01*
X2558890Y-20030876D01*
X2539843Y-20021352D01*
X2530319Y-20002305D01*
X2530319Y-19983257D01*
X2539843Y-19964210D01*
X2558890Y-19954686D01*
X2606510Y-19954686D01*
X2625557Y-19945162D01*
X2720795Y-19897543D02*
X2720795Y-20097543D01*
X2720795Y-19907067D02*
X2739843Y-19897543D01*
X2777938Y-19897543D01*
X2796986Y-19907067D01*
X2806509Y-19916590D01*
X2816033Y-19935638D01*
X2816033Y-19992781D01*
X2806509Y-20011829D01*
X2796986Y-20021352D01*
X2777938Y-20030876D01*
X2739843Y-20030876D01*
X2720795Y-20021352D01*
X2901748Y-20011829D02*
X2911271Y-20021352D01*
X2901748Y-20030876D01*
X2892224Y-20021352D01*
X2901748Y-20011829D01*
X2901748Y-20030876D01*
X2901748Y-19907067D02*
X2911271Y-19916590D01*
X2901748Y-19926114D01*
X2892224Y-19916590D01*
X2901748Y-19907067D01*
X2901748Y-19926114D01*
M02*
