M48
; DRILL file {KiCad (6.0.9)} date Wed Apr 19 21:58:58 2023
; FORMAT={-:-/ absolute / inch / decimal}
; #@! TF.CreationDate,2023-04-19T21:58:58+02:00
; #@! TF.GenerationSoftware,Kicad,Pcbnew,(6.0.9)
; #@! TF.FileFunction,Plated,1,2,PTH
FMAT,2
INCH
; #@! TA.AperFunction,Plated,PTH,ComponentDrill
T1C0.0079
; #@! TA.AperFunction,Plated,PTH,ViaDrill
T2C0.0118
; #@! TA.AperFunction,Plated,PTH,ViaDrill
T3C0.0157
; #@! TA.AperFunction,Plated,PTH,ComponentDrill
T4C0.0315
; #@! TA.AperFunction,Plated,PTH,ComponentDrill
T5C0.0394
; #@! TA.AperFunction,Plated,PTH,ComponentDrill
T6C0.1063
%
G90
G05
T1
X2.6517Y-7.1976
X2.6517Y-7.2576
X2.6818Y-7.1676
X2.6818Y-7.2276
X2.6818Y-7.2876
X2.7118Y-7.1976
X2.7118Y-7.2576
X2.7418Y-7.1676
X2.7418Y-7.2276
X2.7418Y-7.2876
X2.7718Y-7.1976
X2.7718Y-7.2576
T2
X0.555Y-5.96
X0.555Y-6.435
X0.555Y-6.8
X0.555Y-7.025
X0.555Y-7.48
X0.555Y-7.685
X0.56Y-6.595
X0.56Y-7.265
X0.59Y-6.21
X0.59Y-6.25
X0.59Y-6.27
X0.6Y-6.16
X0.6Y-6.34
X0.6Y-6.36
X0.6Y-6.39
X0.61Y-6.23
X0.61Y-6.25
X0.61Y-6.29
X0.61Y-6.32
X0.62Y-6.27
X0.62Y-6.34
X0.62Y-6.38
X0.63Y-6.36
X0.63Y-6.4
X0.67Y-7.67
X0.68Y-6.1
X0.71Y-6.1
X0.74Y-6.1
X0.76Y-6.09
X0.78Y-6.1
X0.79Y-6.97
X0.79Y-7.42
X0.81Y-6.1
X0.845Y-6.09
X0.86Y-6.105
X0.87Y-6.09
X0.885Y-6.105
X0.9Y-6.09
X0.91Y-6.105
X0.91Y-7.67
X0.92Y-6.09
X0.935Y-6.105
X0.945Y-6.07
X0.945Y-6.09
X0.965Y-6.095
X0.98Y-7.66
X0.99Y-6.12
X1.0Y-6.01
X1.01Y-6.96
X1.01Y-7.42
X1.02Y-6.15
X1.04Y-6.01
X1.04Y-6.03
X1.04Y-6.05
X1.04Y-6.18
X1.04Y-6.24
X1.04Y-6.26
X1.06Y-6.24
X1.06Y-6.26
X1.08Y-6.09
X1.08Y-6.24
X1.08Y-6.26
X1.1Y-6.24
X1.1Y-6.26
X1.11Y-6.09
X1.145Y-6.09
X1.21Y-6.32
X1.21Y-6.34
X1.23Y-6.32
X1.23Y-6.34
X1.25Y-6.32
X1.25Y-6.34
X1.26Y-6.16
X1.26Y-6.18
X1.26Y-6.2
X1.27Y-6.32
X1.27Y-6.34
X1.28Y-6.16
X1.28Y-6.18
X1.28Y-6.2
X1.3Y-6.16
X1.3Y-6.179
X1.3Y-6.2
X1.345Y-6.945
X1.35Y-6.4
X1.36Y-6.49
X1.37Y-6.8
X1.37Y-6.94
X1.37Y-6.98
X1.37Y-7.07
X1.37Y-7.24
X1.37Y-7.52
X1.38Y-6.4
X1.38Y-6.47
X1.39Y-6.22
X1.39Y-6.32
X1.39Y-7.29
X1.39Y-7.56
X1.395Y-7.34
X1.41Y-6.54
X1.417Y-6.3395
X1.42Y-6.22
X1.43Y-6.04
X1.43Y-6.07
X1.43Y-6.53
X1.43Y-6.55
X1.44Y-6.51
X1.45Y-6.31
X1.45Y-6.34
X1.45Y-6.53
X1.455Y-6.04
X1.46Y-7.06
X1.465Y-6.195
X1.47Y-6.06
X1.47Y-6.09
X1.47Y-6.49
X1.48Y-6.34
X1.48Y-6.54
X1.48Y-6.93
X1.49Y-6.04
X1.49Y-6.4
X1.5Y-6.54
X1.51Y-6.77
X1.51Y-6.91
X1.51Y-6.94
X1.52Y-6.88
X1.53Y-6.97
X1.545Y-6.225
X1.545Y-6.34
X1.575Y-6.225
X1.575Y-6.25
X1.625Y-6.07
X1.6706Y-5.9444
X1.69Y-6.015
X1.715Y-6.73
X1.715Y-6.755
X1.715Y-6.78
X1.715Y-6.805
X1.735Y-6.89
X1.735Y-6.915
X1.735Y-6.94
X1.735Y-6.965
X1.735Y-6.99
X1.745Y-6.73
X1.745Y-6.755
X1.745Y-6.78
X1.745Y-6.805
X1.75Y-6.205
X1.75Y-6.23
X1.765Y-6.64
X1.765Y-6.89
X1.765Y-6.915
X1.765Y-6.94
X1.765Y-6.965
X1.765Y-6.99
X1.77Y-6.405
X1.775Y-6.23
X1.795Y-6.455
X1.8Y-6.405
X1.805Y-6.88
X1.805Y-6.9
X1.805Y-6.92
X1.805Y-6.94
X1.805Y-6.96
X1.805Y-6.98
X1.81Y-6.72
X1.81Y-6.74
X1.81Y-6.76
X1.81Y-6.78
X1.81Y-6.8
X1.81Y-6.82
X1.825Y-6.98
X1.83Y-6.74
X1.83Y-6.76
X1.83Y-6.78
X1.83Y-6.8
X1.83Y-6.82
X1.83Y-6.88
X1.83Y-6.9
X1.83Y-6.92
X1.83Y-6.94
X1.83Y-6.96
X1.85Y-6.28
X1.865Y-6.07
X1.865Y-6.19
X1.8821Y-6.6629
X1.89Y-5.98
X1.91Y-6.64
X1.92Y-6.01
X1.92Y-6.345
X1.945Y-7.11
X1.95Y-7.065
X1.986Y-6.07
X2.075Y-6.985
X2.09Y-7.62
X2.095Y-6.0
X2.1Y-7.41
X2.12Y-6.055
X2.12Y-6.085
X2.125Y-7.265
X2.15Y-6.0
X2.15Y-7.06
X2.165Y-6.055
X2.165Y-6.085
X2.165Y-7.185
X2.18Y-6.32
X2.18Y-7.4
X2.2Y-6.27
X2.2Y-6.29
X2.2Y-6.32
X2.22Y-6.32
X2.22Y-6.37
X2.23Y-6.27
X2.23Y-6.29
X2.23Y-7.345
X2.23Y-7.43
X2.23Y-7.66
X2.2446Y-7.0654
X2.25Y-6.37
X2.25Y-7.56
X2.26Y-7.28
X2.27Y-6.32
X2.27Y-7.19
X2.2815Y-6.9648
X2.285Y-6.725
X2.34Y-6.725
X2.34Y-6.91
X2.35Y-7.66
X2.37Y-6.64
X2.385Y-7.5422
X2.39Y-6.625
X2.39Y-7.08
X2.39Y-7.13
X2.39Y-7.45
X2.4Y-7.28
X2.41Y-6.605
X2.415Y-7.15
X2.415Y-7.245
X2.42Y-7.41
X2.43Y-6.58
X2.455Y-7.645
X2.46Y-6.32
X2.46Y-6.66
X2.4689Y-7.04
X2.47Y-6.23
X2.47Y-7.28
X2.4799Y-6.9845
X2.48Y-6.17
X2.48Y-6.34
X2.48Y-7.16
X2.48Y-7.21
X2.48Y-7.36
X2.49Y-7.44
X2.5Y-7.4
X2.5079Y-6.956
X2.51Y-6.2
X2.52Y-6.76
X2.52Y-7.34
X2.53Y-6.89
X2.53Y-7.05
X2.54Y-6.58
X2.54Y-7.1
X2.54Y-7.5422
X2.5446Y-7.2154
X2.55Y-7.07
X2.55Y-7.13
X2.55Y-7.38
X2.55Y-7.42
X2.56Y-6.28
X2.56Y-7.05
X2.57Y-6.92
X2.57Y-7.07
X2.57Y-7.09
X2.57Y-7.11
X2.57Y-7.15
X2.575Y-6.87
X2.58Y-6.195
X2.58Y-6.225
X2.58Y-6.76
X2.59Y-7.33
X2.605Y-6.195
X2.605Y-6.225
X2.605Y-7.6445
X2.61Y-6.89
X2.62Y-6.98
X2.63Y-6.195
X2.63Y-6.225
X2.63Y-7.05
X2.64Y-6.76
X2.64Y-6.87
X2.65Y-7.1
X2.66Y-6.35
X2.67Y-6.17
X2.68Y-6.92
X2.68Y-6.95
X2.68Y-7.1
X2.68Y-7.535
X2.69Y-6.3
X2.69Y-6.76
X2.71Y-6.99
X2.72Y-6.17
X2.72Y-6.87
X2.72Y-7.5
X2.74Y-6.76
X2.74Y-6.9
X2.74Y-7.05
X2.74Y-7.52
X2.75Y-6.26
X2.76Y-6.31
X2.76Y-6.37
X2.77Y-6.14
X2.77Y-6.66
X2.77Y-6.94
X2.77Y-7.11
X2.78Y-6.9
X2.79Y-6.1
X2.79Y-6.17
X2.79Y-6.25
X2.79Y-6.99
X2.81Y-6.92
X2.81Y-7.51
X2.82Y-6.34
X2.82Y-6.47
X2.82Y-6.88
X2.82Y-7.54
X2.83Y-6.38
X2.83Y-6.95
X2.845Y-7.65
X2.85Y-5.97
X2.85Y-6.1
X2.85Y-6.18
X2.85Y-6.9
X2.85Y-7.2
X2.86Y-6.48
X2.86Y-7.05
X2.87Y-7.11
X2.88Y-6.87
X2.88Y-6.94
X2.88Y-6.99
X2.89Y-6.47
X2.89Y-6.53
X2.89Y-7.53
X2.9Y-5.99
X2.9Y-6.5
X2.91Y-6.47
X2.91Y-6.53
X2.91Y-6.82
X2.91Y-6.93
X2.91Y-7.15
X2.92Y-6.14
X2.92Y-6.5
X2.92Y-6.57
X2.92Y-7.5
X2.93Y-6.04
X2.93Y-6.47
X2.93Y-6.53
X2.93Y-6.91
X2.93Y-7.05
X2.94Y-6.83
X2.94Y-6.96
X2.95Y-6.56
X2.95Y-7.08
X2.96Y-6.86
X2.96Y-6.99
X2.96Y-7.11
X2.97Y-6.52
X2.99Y-6.37
X2.995Y-6.62
X3.03Y-6.48
X3.03Y-6.86
X3.04Y-6.42
X3.07Y-6.535
X3.1Y-6.65
X3.11Y-6.57
X3.11Y-6.61
X3.12Y-7.63
X3.125Y-6.335
X3.17Y-6.5
X3.19Y-7.63
X3.2Y-6.74
X3.2Y-6.86
X3.21Y-6.53
X3.21Y-7.01
X3.24Y-6.67
T3
X1.424Y-6.584
X1.649Y-6.624
X1.6985Y-6.4026
X1.815Y-7.02
X1.9535Y-6.4711
X1.995Y-7.1
X2.0022Y-6.4194
X2.0577Y-6.4363
X2.095Y-7.12
X2.095Y-7.31
X2.1106Y-6.3717
X2.1379Y-6.4126
X2.2441Y-6.68
X2.2797Y-6.5101
X2.2974Y-6.8632
X2.363Y-6.553
X2.44Y-7.31
X2.96Y-7.31
X3.0891Y-7.6009
X3.0947Y-7.015
X3.095Y-7.065
T4
X1.865Y-6.42
X2.18Y-7.24
X2.18Y-7.355
X2.35Y-6.485
X2.55Y-6.63
X2.635Y-6.63
X2.72Y-6.63
T5
X0.69Y-6.03
X0.7406Y-6.56
X0.7406Y-6.67
X0.79Y-6.03
X0.8406Y-6.56
X0.8406Y-6.67
X0.89Y-6.03
X0.9406Y-6.56
X0.9406Y-6.67
X1.1Y-6.03
X1.2Y-6.03
X1.634Y-7.42
X1.634Y-7.52
X1.634Y-7.62
X1.745Y-7.42
X1.745Y-7.52
X1.745Y-7.62
X1.855Y-7.42
X1.855Y-7.52
X1.855Y-7.62
X1.95Y-6.725
X1.95Y-6.825
X1.95Y-6.925
X2.05Y-6.725
X2.05Y-6.825
X2.05Y-6.925
X2.15Y-6.7244
X2.15Y-6.8244
X2.15Y-6.9244
X3.0Y-6.0206
X3.0Y-6.1206
X3.0Y-6.2206
X3.1Y-6.0206
X3.1Y-6.1206
X3.1Y-6.2206
X3.2Y-6.02
X3.2Y-6.12
X3.2Y-6.22
X3.21Y-7.16
X3.21Y-7.26
X3.21Y-7.36
X3.21Y-7.46
T6
X0.6966Y-6.85
X0.6966Y-7.09
X0.6966Y-7.325
X0.6966Y-7.56
X0.7031Y-6.2
X0.8934Y-6.85
X0.8934Y-7.09
X0.8934Y-7.325
X0.8934Y-7.56
X0.9Y-6.2
T0
M30
