%TF.GenerationSoftware,KiCad,Pcbnew,(6.0.10)*%
%TF.CreationDate,2023-04-19T18:30:43+02:00*%
%TF.ProjectId,jf-ecu32,6a662d65-6375-4333-922e-6b696361645f,rev?*%
%TF.SameCoordinates,Original*%
%TF.FileFunction,Legend,Top*%
%TF.FilePolarity,Positive*%
%FSLAX46Y46*%
G04 Gerber Fmt 4.6, Leading zero omitted, Abs format (unit mm)*
G04 Created by KiCad (PCBNEW (6.0.10)) date 2023-04-19 18:30:43*
%MOMM*%
%LPD*%
G01*
G04 APERTURE LIST*
%ADD10C,0.150000*%
%ADD11C,0.120000*%
G04 APERTURE END LIST*
D10*
%TO.C,GND2*%
X54133904Y-188095000D02*
X54038666Y-188047380D01*
X53895809Y-188047380D01*
X53752952Y-188095000D01*
X53657714Y-188190238D01*
X53610095Y-188285476D01*
X53562476Y-188475952D01*
X53562476Y-188618809D01*
X53610095Y-188809285D01*
X53657714Y-188904523D01*
X53752952Y-188999761D01*
X53895809Y-189047380D01*
X53991047Y-189047380D01*
X54133904Y-188999761D01*
X54181523Y-188952142D01*
X54181523Y-188618809D01*
X53991047Y-188618809D01*
X54610095Y-189047380D02*
X54610095Y-188047380D01*
X55181523Y-189047380D01*
X55181523Y-188047380D01*
X55657714Y-189047380D02*
X55657714Y-188047380D01*
X55895809Y-188047380D01*
X56038666Y-188095000D01*
X56133904Y-188190238D01*
X56181523Y-188285476D01*
X56229142Y-188475952D01*
X56229142Y-188618809D01*
X56181523Y-188809285D01*
X56133904Y-188904523D01*
X56038666Y-188999761D01*
X55895809Y-189047380D01*
X55657714Y-189047380D01*
X56610095Y-188142619D02*
X56657714Y-188095000D01*
X56752952Y-188047380D01*
X56991047Y-188047380D01*
X57086285Y-188095000D01*
X57133904Y-188142619D01*
X57181523Y-188237857D01*
X57181523Y-188333095D01*
X57133904Y-188475952D01*
X56562476Y-189047380D01*
X57181523Y-189047380D01*
%TO.C,TMS1*%
X57880476Y-162111380D02*
X58451904Y-162111380D01*
X58166190Y-163111380D02*
X58166190Y-162111380D01*
X58785238Y-163111380D02*
X58785238Y-162111380D01*
X59118571Y-162825666D01*
X59451904Y-162111380D01*
X59451904Y-163111380D01*
X59880476Y-163063761D02*
X60023333Y-163111380D01*
X60261428Y-163111380D01*
X60356666Y-163063761D01*
X60404285Y-163016142D01*
X60451904Y-162920904D01*
X60451904Y-162825666D01*
X60404285Y-162730428D01*
X60356666Y-162682809D01*
X60261428Y-162635190D01*
X60070952Y-162587571D01*
X59975714Y-162539952D01*
X59928095Y-162492333D01*
X59880476Y-162397095D01*
X59880476Y-162301857D01*
X59928095Y-162206619D01*
X59975714Y-162159000D01*
X60070952Y-162111380D01*
X60309047Y-162111380D01*
X60451904Y-162159000D01*
X61404285Y-163111380D02*
X60832857Y-163111380D01*
X61118571Y-163111380D02*
X61118571Y-162111380D01*
X61023333Y-162254238D01*
X60928095Y-162349476D01*
X60832857Y-162397095D01*
%TO.C,TDO1*%
X62984285Y-165794380D02*
X63555714Y-165794380D01*
X63270000Y-166794380D02*
X63270000Y-165794380D01*
X63889047Y-166794380D02*
X63889047Y-165794380D01*
X64127142Y-165794380D01*
X64270000Y-165842000D01*
X64365238Y-165937238D01*
X64412857Y-166032476D01*
X64460476Y-166222952D01*
X64460476Y-166365809D01*
X64412857Y-166556285D01*
X64365238Y-166651523D01*
X64270000Y-166746761D01*
X64127142Y-166794380D01*
X63889047Y-166794380D01*
X65079523Y-165794380D02*
X65270000Y-165794380D01*
X65365238Y-165842000D01*
X65460476Y-165937238D01*
X65508095Y-166127714D01*
X65508095Y-166461047D01*
X65460476Y-166651523D01*
X65365238Y-166746761D01*
X65270000Y-166794380D01*
X65079523Y-166794380D01*
X64984285Y-166746761D01*
X64889047Y-166651523D01*
X64841428Y-166461047D01*
X64841428Y-166127714D01*
X64889047Y-165937238D01*
X64984285Y-165842000D01*
X65079523Y-165794380D01*
X66460476Y-166794380D02*
X65889047Y-166794380D01*
X66174761Y-166794380D02*
X66174761Y-165794380D01*
X66079523Y-165937238D01*
X65984285Y-166032476D01*
X65889047Y-166080095D01*
%TO.C,TDI1*%
X45871000Y-160460380D02*
X46442428Y-160460380D01*
X46156714Y-161460380D02*
X46156714Y-160460380D01*
X46775761Y-161460380D02*
X46775761Y-160460380D01*
X47013857Y-160460380D01*
X47156714Y-160508000D01*
X47251952Y-160603238D01*
X47299571Y-160698476D01*
X47347190Y-160888952D01*
X47347190Y-161031809D01*
X47299571Y-161222285D01*
X47251952Y-161317523D01*
X47156714Y-161412761D01*
X47013857Y-161460380D01*
X46775761Y-161460380D01*
X47775761Y-161460380D02*
X47775761Y-160460380D01*
X48775761Y-161460380D02*
X48204333Y-161460380D01*
X48490047Y-161460380D02*
X48490047Y-160460380D01*
X48394809Y-160603238D01*
X48299571Y-160698476D01*
X48204333Y-160746095D01*
%TO.C,TCK1*%
X65167095Y-165794380D02*
X65738523Y-165794380D01*
X65452809Y-166794380D02*
X65452809Y-165794380D01*
X66643285Y-166699142D02*
X66595666Y-166746761D01*
X66452809Y-166794380D01*
X66357571Y-166794380D01*
X66214714Y-166746761D01*
X66119476Y-166651523D01*
X66071857Y-166556285D01*
X66024238Y-166365809D01*
X66024238Y-166222952D01*
X66071857Y-166032476D01*
X66119476Y-165937238D01*
X66214714Y-165842000D01*
X66357571Y-165794380D01*
X66452809Y-165794380D01*
X66595666Y-165842000D01*
X66643285Y-165889619D01*
X67071857Y-166794380D02*
X67071857Y-165794380D01*
X67643285Y-166794380D02*
X67214714Y-166222952D01*
X67643285Y-165794380D02*
X67071857Y-166365809D01*
X68595666Y-166794380D02*
X68024238Y-166794380D01*
X68309952Y-166794380D02*
X68309952Y-165794380D01*
X68214714Y-165937238D01*
X68119476Y-166032476D01*
X68024238Y-166080095D01*
%TO.C,GND1*%
X67849904Y-165842000D02*
X67754666Y-165794380D01*
X67611809Y-165794380D01*
X67468952Y-165842000D01*
X67373714Y-165937238D01*
X67326095Y-166032476D01*
X67278476Y-166222952D01*
X67278476Y-166365809D01*
X67326095Y-166556285D01*
X67373714Y-166651523D01*
X67468952Y-166746761D01*
X67611809Y-166794380D01*
X67707047Y-166794380D01*
X67849904Y-166746761D01*
X67897523Y-166699142D01*
X67897523Y-166365809D01*
X67707047Y-166365809D01*
X68326095Y-166794380D02*
X68326095Y-165794380D01*
X68897523Y-166794380D01*
X68897523Y-165794380D01*
X69373714Y-166794380D02*
X69373714Y-165794380D01*
X69611809Y-165794380D01*
X69754666Y-165842000D01*
X69849904Y-165937238D01*
X69897523Y-166032476D01*
X69945142Y-166222952D01*
X69945142Y-166365809D01*
X69897523Y-166556285D01*
X69849904Y-166651523D01*
X69754666Y-166746761D01*
X69611809Y-166794380D01*
X69373714Y-166794380D01*
X70897523Y-166794380D02*
X70326095Y-166794380D01*
X70611809Y-166794380D02*
X70611809Y-165794380D01*
X70516571Y-165937238D01*
X70421333Y-166032476D01*
X70326095Y-166080095D01*
%TO.C,BOOT0*%
X53538666Y-181764571D02*
X53681523Y-181812190D01*
X53729142Y-181859809D01*
X53776761Y-181955047D01*
X53776761Y-182097904D01*
X53729142Y-182193142D01*
X53681523Y-182240761D01*
X53586285Y-182288380D01*
X53205333Y-182288380D01*
X53205333Y-181288380D01*
X53538666Y-181288380D01*
X53633904Y-181336000D01*
X53681523Y-181383619D01*
X53729142Y-181478857D01*
X53729142Y-181574095D01*
X53681523Y-181669333D01*
X53633904Y-181716952D01*
X53538666Y-181764571D01*
X53205333Y-181764571D01*
X54395809Y-181288380D02*
X54586285Y-181288380D01*
X54681523Y-181336000D01*
X54776761Y-181431238D01*
X54824380Y-181621714D01*
X54824380Y-181955047D01*
X54776761Y-182145523D01*
X54681523Y-182240761D01*
X54586285Y-182288380D01*
X54395809Y-182288380D01*
X54300571Y-182240761D01*
X54205333Y-182145523D01*
X54157714Y-181955047D01*
X54157714Y-181621714D01*
X54205333Y-181431238D01*
X54300571Y-181336000D01*
X54395809Y-181288380D01*
X55443428Y-181288380D02*
X55633904Y-181288380D01*
X55729142Y-181336000D01*
X55824380Y-181431238D01*
X55872000Y-181621714D01*
X55872000Y-181955047D01*
X55824380Y-182145523D01*
X55729142Y-182240761D01*
X55633904Y-182288380D01*
X55443428Y-182288380D01*
X55348190Y-182240761D01*
X55252952Y-182145523D01*
X55205333Y-181955047D01*
X55205333Y-181621714D01*
X55252952Y-181431238D01*
X55348190Y-181336000D01*
X55443428Y-181288380D01*
X56157714Y-181288380D02*
X56729142Y-181288380D01*
X56443428Y-182288380D02*
X56443428Y-181288380D01*
X57252952Y-181288380D02*
X57348190Y-181288380D01*
X57443428Y-181336000D01*
X57491047Y-181383619D01*
X57538666Y-181478857D01*
X57586285Y-181669333D01*
X57586285Y-181907428D01*
X57538666Y-182097904D01*
X57491047Y-182193142D01*
X57443428Y-182240761D01*
X57348190Y-182288380D01*
X57252952Y-182288380D01*
X57157714Y-182240761D01*
X57110095Y-182193142D01*
X57062476Y-182097904D01*
X57014857Y-181907428D01*
X57014857Y-181669333D01*
X57062476Y-181478857D01*
X57110095Y-181383619D01*
X57157714Y-181336000D01*
X57252952Y-181288380D01*
%TO.C,Q5*%
X34881619Y-186405238D02*
X34834000Y-186500476D01*
X34738761Y-186595714D01*
X34595904Y-186738571D01*
X34548285Y-186833809D01*
X34548285Y-186929047D01*
X34786380Y-186881428D02*
X34738761Y-186976666D01*
X34643523Y-187071904D01*
X34453047Y-187119523D01*
X34119714Y-187119523D01*
X33929238Y-187071904D01*
X33834000Y-186976666D01*
X33786380Y-186881428D01*
X33786380Y-186690952D01*
X33834000Y-186595714D01*
X33929238Y-186500476D01*
X34119714Y-186452857D01*
X34453047Y-186452857D01*
X34643523Y-186500476D01*
X34738761Y-186595714D01*
X34786380Y-186690952D01*
X34786380Y-186881428D01*
X33786380Y-185548095D02*
X33786380Y-186024285D01*
X34262571Y-186071904D01*
X34214952Y-186024285D01*
X34167333Y-185929047D01*
X34167333Y-185690952D01*
X34214952Y-185595714D01*
X34262571Y-185548095D01*
X34357809Y-185500476D01*
X34595904Y-185500476D01*
X34691142Y-185548095D01*
X34738761Y-185595714D01*
X34786380Y-185690952D01*
X34786380Y-185929047D01*
X34738761Y-186024285D01*
X34691142Y-186071904D01*
%TO.C,Q6*%
X34837619Y-193136238D02*
X34790000Y-193231476D01*
X34694761Y-193326714D01*
X34551904Y-193469571D01*
X34504285Y-193564809D01*
X34504285Y-193660047D01*
X34742380Y-193612428D02*
X34694761Y-193707666D01*
X34599523Y-193802904D01*
X34409047Y-193850523D01*
X34075714Y-193850523D01*
X33885238Y-193802904D01*
X33790000Y-193707666D01*
X33742380Y-193612428D01*
X33742380Y-193421952D01*
X33790000Y-193326714D01*
X33885238Y-193231476D01*
X34075714Y-193183857D01*
X34409047Y-193183857D01*
X34599523Y-193231476D01*
X34694761Y-193326714D01*
X34742380Y-193421952D01*
X34742380Y-193612428D01*
X33742380Y-192326714D02*
X33742380Y-192517190D01*
X33790000Y-192612428D01*
X33837619Y-192660047D01*
X33980476Y-192755285D01*
X34170952Y-192802904D01*
X34551904Y-192802904D01*
X34647142Y-192755285D01*
X34694761Y-192707666D01*
X34742380Y-192612428D01*
X34742380Y-192421952D01*
X34694761Y-192326714D01*
X34647142Y-192279095D01*
X34551904Y-192231476D01*
X34313809Y-192231476D01*
X34218571Y-192279095D01*
X34170952Y-192326714D01*
X34123333Y-192421952D01*
X34123333Y-192612428D01*
X34170952Y-192707666D01*
X34218571Y-192755285D01*
X34313809Y-192802904D01*
%TO.C,R4*%
X23582333Y-162758380D02*
X23249000Y-162282190D01*
X23010904Y-162758380D02*
X23010904Y-161758380D01*
X23391857Y-161758380D01*
X23487095Y-161806000D01*
X23534714Y-161853619D01*
X23582333Y-161948857D01*
X23582333Y-162091714D01*
X23534714Y-162186952D01*
X23487095Y-162234571D01*
X23391857Y-162282190D01*
X23010904Y-162282190D01*
X24439476Y-162091714D02*
X24439476Y-162758380D01*
X24201380Y-161710761D02*
X23963285Y-162425047D01*
X24582333Y-162425047D01*
%TO.C,C2*%
X36933142Y-167044666D02*
X36980761Y-167092285D01*
X37028380Y-167235142D01*
X37028380Y-167330380D01*
X36980761Y-167473238D01*
X36885523Y-167568476D01*
X36790285Y-167616095D01*
X36599809Y-167663714D01*
X36456952Y-167663714D01*
X36266476Y-167616095D01*
X36171238Y-167568476D01*
X36076000Y-167473238D01*
X36028380Y-167330380D01*
X36028380Y-167235142D01*
X36076000Y-167092285D01*
X36123619Y-167044666D01*
X36123619Y-166663714D02*
X36076000Y-166616095D01*
X36028380Y-166520857D01*
X36028380Y-166282761D01*
X36076000Y-166187523D01*
X36123619Y-166139904D01*
X36218857Y-166092285D01*
X36314095Y-166092285D01*
X36456952Y-166139904D01*
X37028380Y-166711333D01*
X37028380Y-166092285D01*
%TO.C,BOOT1*%
X59415371Y-169701933D02*
X59462990Y-169559076D01*
X59510609Y-169511457D01*
X59605847Y-169463838D01*
X59748704Y-169463838D01*
X59843942Y-169511457D01*
X59891561Y-169559076D01*
X59939180Y-169654314D01*
X59939180Y-170035266D01*
X58939180Y-170035266D01*
X58939180Y-169701933D01*
X58986800Y-169606695D01*
X59034419Y-169559076D01*
X59129657Y-169511457D01*
X59224895Y-169511457D01*
X59320133Y-169559076D01*
X59367752Y-169606695D01*
X59415371Y-169701933D01*
X59415371Y-170035266D01*
X58939180Y-168844790D02*
X58939180Y-168654314D01*
X58986800Y-168559076D01*
X59082038Y-168463838D01*
X59272514Y-168416219D01*
X59605847Y-168416219D01*
X59796323Y-168463838D01*
X59891561Y-168559076D01*
X59939180Y-168654314D01*
X59939180Y-168844790D01*
X59891561Y-168940028D01*
X59796323Y-169035266D01*
X59605847Y-169082885D01*
X59272514Y-169082885D01*
X59082038Y-169035266D01*
X58986800Y-168940028D01*
X58939180Y-168844790D01*
X58939180Y-167797171D02*
X58939180Y-167606695D01*
X58986800Y-167511457D01*
X59082038Y-167416219D01*
X59272514Y-167368600D01*
X59605847Y-167368600D01*
X59796323Y-167416219D01*
X59891561Y-167511457D01*
X59939180Y-167606695D01*
X59939180Y-167797171D01*
X59891561Y-167892409D01*
X59796323Y-167987647D01*
X59605847Y-168035266D01*
X59272514Y-168035266D01*
X59082038Y-167987647D01*
X58986800Y-167892409D01*
X58939180Y-167797171D01*
X58939180Y-167082885D02*
X58939180Y-166511457D01*
X59939180Y-166797171D02*
X58939180Y-166797171D01*
X59939180Y-165654314D02*
X59939180Y-166225742D01*
X59939180Y-165940028D02*
X58939180Y-165940028D01*
X59082038Y-166035266D01*
X59177276Y-166130504D01*
X59224895Y-166225742D01*
%TO.C,C7*%
X37996533Y-163933142D02*
X37948914Y-163980761D01*
X37806057Y-164028380D01*
X37710819Y-164028380D01*
X37567961Y-163980761D01*
X37472723Y-163885523D01*
X37425104Y-163790285D01*
X37377485Y-163599809D01*
X37377485Y-163456952D01*
X37425104Y-163266476D01*
X37472723Y-163171238D01*
X37567961Y-163076000D01*
X37710819Y-163028380D01*
X37806057Y-163028380D01*
X37948914Y-163076000D01*
X37996533Y-163123619D01*
X38329866Y-163028380D02*
X38996533Y-163028380D01*
X38567961Y-164028380D01*
%TO.C,J16*%
X54062380Y-179498523D02*
X54776666Y-179498523D01*
X54919523Y-179546142D01*
X55014761Y-179641380D01*
X55062380Y-179784238D01*
X55062380Y-179879476D01*
X55062380Y-178498523D02*
X55062380Y-179069952D01*
X55062380Y-178784238D02*
X54062380Y-178784238D01*
X54205238Y-178879476D01*
X54300476Y-178974714D01*
X54348095Y-179069952D01*
X54062380Y-177641380D02*
X54062380Y-177831857D01*
X54110000Y-177927095D01*
X54157619Y-177974714D01*
X54300476Y-178069952D01*
X54490952Y-178117571D01*
X54871904Y-178117571D01*
X54967142Y-178069952D01*
X55014761Y-178022333D01*
X55062380Y-177927095D01*
X55062380Y-177736619D01*
X55014761Y-177641380D01*
X54967142Y-177593761D01*
X54871904Y-177546142D01*
X54633809Y-177546142D01*
X54538571Y-177593761D01*
X54490952Y-177641380D01*
X54443333Y-177736619D01*
X54443333Y-177927095D01*
X54490952Y-178022333D01*
X54538571Y-178069952D01*
X54633809Y-178117571D01*
%TO.C,J19*%
X80724476Y-178986380D02*
X80724476Y-179700666D01*
X80676857Y-179843523D01*
X80581619Y-179938761D01*
X80438761Y-179986380D01*
X80343523Y-179986380D01*
X81724476Y-179986380D02*
X81153047Y-179986380D01*
X81438761Y-179986380D02*
X81438761Y-178986380D01*
X81343523Y-179129238D01*
X81248285Y-179224476D01*
X81153047Y-179272095D01*
X82200666Y-179986380D02*
X82391142Y-179986380D01*
X82486380Y-179938761D01*
X82534000Y-179891142D01*
X82629238Y-179748285D01*
X82676857Y-179557809D01*
X82676857Y-179176857D01*
X82629238Y-179081619D01*
X82581619Y-179034000D01*
X82486380Y-178986380D01*
X82295904Y-178986380D01*
X82200666Y-179034000D01*
X82153047Y-179081619D01*
X82105428Y-179176857D01*
X82105428Y-179414952D01*
X82153047Y-179510190D01*
X82200666Y-179557809D01*
X82295904Y-179605428D01*
X82486380Y-179605428D01*
X82581619Y-179557809D01*
X82629238Y-179510190D01*
X82676857Y-179414952D01*
%TO.C,R3*%
X20534333Y-162504380D02*
X20201000Y-162028190D01*
X19962904Y-162504380D02*
X19962904Y-161504380D01*
X20343857Y-161504380D01*
X20439095Y-161552000D01*
X20486714Y-161599619D01*
X20534333Y-161694857D01*
X20534333Y-161837714D01*
X20486714Y-161932952D01*
X20439095Y-161980571D01*
X20343857Y-162028190D01*
X19962904Y-162028190D01*
X20867666Y-161504380D02*
X21486714Y-161504380D01*
X21153380Y-161885333D01*
X21296238Y-161885333D01*
X21391476Y-161932952D01*
X21439095Y-161980571D01*
X21486714Y-162075809D01*
X21486714Y-162313904D01*
X21439095Y-162409142D01*
X21391476Y-162456761D01*
X21296238Y-162504380D01*
X21010523Y-162504380D01*
X20915285Y-162456761D01*
X20867666Y-162409142D01*
%TO.C,R11*%
X38679380Y-173235857D02*
X38203190Y-173569190D01*
X38679380Y-173807285D02*
X37679380Y-173807285D01*
X37679380Y-173426333D01*
X37727000Y-173331095D01*
X37774619Y-173283476D01*
X37869857Y-173235857D01*
X38012714Y-173235857D01*
X38107952Y-173283476D01*
X38155571Y-173331095D01*
X38203190Y-173426333D01*
X38203190Y-173807285D01*
X38679380Y-172283476D02*
X38679380Y-172854904D01*
X38679380Y-172569190D02*
X37679380Y-172569190D01*
X37822238Y-172664428D01*
X37917476Y-172759666D01*
X37965095Y-172854904D01*
X38679380Y-171331095D02*
X38679380Y-171902523D01*
X38679380Y-171616809D02*
X37679380Y-171616809D01*
X37822238Y-171712047D01*
X37917476Y-171807285D01*
X37965095Y-171902523D01*
%TO.C,J18*%
X46467780Y-186458123D02*
X47182066Y-186458123D01*
X47324923Y-186505742D01*
X47420161Y-186600980D01*
X47467780Y-186743838D01*
X47467780Y-186839076D01*
X47467780Y-185458123D02*
X47467780Y-186029552D01*
X47467780Y-185743838D02*
X46467780Y-185743838D01*
X46610638Y-185839076D01*
X46705876Y-185934314D01*
X46753495Y-186029552D01*
X46896352Y-184886695D02*
X46848733Y-184981933D01*
X46801114Y-185029552D01*
X46705876Y-185077171D01*
X46658257Y-185077171D01*
X46563019Y-185029552D01*
X46515400Y-184981933D01*
X46467780Y-184886695D01*
X46467780Y-184696219D01*
X46515400Y-184600980D01*
X46563019Y-184553361D01*
X46658257Y-184505742D01*
X46705876Y-184505742D01*
X46801114Y-184553361D01*
X46848733Y-184600980D01*
X46896352Y-184696219D01*
X46896352Y-184886695D01*
X46943971Y-184981933D01*
X46991590Y-185029552D01*
X47086828Y-185077171D01*
X47277304Y-185077171D01*
X47372542Y-185029552D01*
X47420161Y-184981933D01*
X47467780Y-184886695D01*
X47467780Y-184696219D01*
X47420161Y-184600980D01*
X47372542Y-184553361D01*
X47277304Y-184505742D01*
X47086828Y-184505742D01*
X46991590Y-184553361D01*
X46943971Y-184600980D01*
X46896352Y-184696219D01*
%TO.C,J7*%
X15933380Y-166957333D02*
X16647666Y-166957333D01*
X16790523Y-167004952D01*
X16885761Y-167100190D01*
X16933380Y-167243047D01*
X16933380Y-167338285D01*
X15933380Y-166576380D02*
X15933380Y-165909714D01*
X16933380Y-166338285D01*
%TO.C,J4*%
X40955980Y-186471333D02*
X41670266Y-186471333D01*
X41813123Y-186518952D01*
X41908361Y-186614190D01*
X41955980Y-186757047D01*
X41955980Y-186852285D01*
X41289314Y-185566571D02*
X41955980Y-185566571D01*
X40908361Y-185804666D02*
X41622647Y-186042761D01*
X41622647Y-185423714D01*
%TO.C,J15*%
X43546780Y-186555123D02*
X44261066Y-186555123D01*
X44403923Y-186602742D01*
X44499161Y-186697980D01*
X44546780Y-186840838D01*
X44546780Y-186936076D01*
X44546780Y-185555123D02*
X44546780Y-186126552D01*
X44546780Y-185840838D02*
X43546780Y-185840838D01*
X43689638Y-185936076D01*
X43784876Y-186031314D01*
X43832495Y-186126552D01*
X43546780Y-184650361D02*
X43546780Y-185126552D01*
X44022971Y-185174171D01*
X43975352Y-185126552D01*
X43927733Y-185031314D01*
X43927733Y-184793219D01*
X43975352Y-184697980D01*
X44022971Y-184650361D01*
X44118209Y-184602742D01*
X44356304Y-184602742D01*
X44451542Y-184650361D01*
X44499161Y-184697980D01*
X44546780Y-184793219D01*
X44546780Y-185031314D01*
X44499161Y-185126552D01*
X44451542Y-185174171D01*
%TO.C,J10*%
X32218380Y-153971523D02*
X32932666Y-153971523D01*
X33075523Y-154019142D01*
X33170761Y-154114380D01*
X33218380Y-154257238D01*
X33218380Y-154352476D01*
X33218380Y-152971523D02*
X33218380Y-153542952D01*
X33218380Y-153257238D02*
X32218380Y-153257238D01*
X32361238Y-153352476D01*
X32456476Y-153447714D01*
X32504095Y-153542952D01*
X32218380Y-152352476D02*
X32218380Y-152257238D01*
X32266000Y-152162000D01*
X32313619Y-152114380D01*
X32408857Y-152066761D01*
X32599333Y-152019142D01*
X32837428Y-152019142D01*
X33027904Y-152066761D01*
X33123142Y-152114380D01*
X33170761Y-152162000D01*
X33218380Y-152257238D01*
X33218380Y-152352476D01*
X33170761Y-152447714D01*
X33123142Y-152495333D01*
X33027904Y-152542952D01*
X32837428Y-152590571D01*
X32599333Y-152590571D01*
X32408857Y-152542952D01*
X32313619Y-152495333D01*
X32266000Y-152447714D01*
X32218380Y-152352476D01*
%TO.C,R7*%
X38425380Y-186348666D02*
X37949190Y-186682000D01*
X38425380Y-186920095D02*
X37425380Y-186920095D01*
X37425380Y-186539142D01*
X37473000Y-186443904D01*
X37520619Y-186396285D01*
X37615857Y-186348666D01*
X37758714Y-186348666D01*
X37853952Y-186396285D01*
X37901571Y-186443904D01*
X37949190Y-186539142D01*
X37949190Y-186920095D01*
X37425380Y-186015333D02*
X37425380Y-185348666D01*
X38425380Y-185777238D01*
%TO.C,R12*%
X31694380Y-165107857D02*
X31218190Y-165441190D01*
X31694380Y-165679285D02*
X30694380Y-165679285D01*
X30694380Y-165298333D01*
X30742000Y-165203095D01*
X30789619Y-165155476D01*
X30884857Y-165107857D01*
X31027714Y-165107857D01*
X31122952Y-165155476D01*
X31170571Y-165203095D01*
X31218190Y-165298333D01*
X31218190Y-165679285D01*
X31694380Y-164155476D02*
X31694380Y-164726904D01*
X31694380Y-164441190D02*
X30694380Y-164441190D01*
X30837238Y-164536428D01*
X30932476Y-164631666D01*
X30980095Y-164726904D01*
X30789619Y-163774523D02*
X30742000Y-163726904D01*
X30694380Y-163631666D01*
X30694380Y-163393571D01*
X30742000Y-163298333D01*
X30789619Y-163250714D01*
X30884857Y-163203095D01*
X30980095Y-163203095D01*
X31122952Y-163250714D01*
X31694380Y-163822142D01*
X31694380Y-163203095D01*
%TO.C,J9*%
X24598380Y-183467333D02*
X25312666Y-183467333D01*
X25455523Y-183514952D01*
X25550761Y-183610190D01*
X25598380Y-183753047D01*
X25598380Y-183848285D01*
X25598380Y-182943523D02*
X25598380Y-182753047D01*
X25550761Y-182657809D01*
X25503142Y-182610190D01*
X25360285Y-182514952D01*
X25169809Y-182467333D01*
X24788857Y-182467333D01*
X24693619Y-182514952D01*
X24646000Y-182562571D01*
X24598380Y-182657809D01*
X24598380Y-182848285D01*
X24646000Y-182943523D01*
X24693619Y-182991142D01*
X24788857Y-183038761D01*
X25026952Y-183038761D01*
X25122190Y-182991142D01*
X25169809Y-182943523D01*
X25217428Y-182848285D01*
X25217428Y-182657809D01*
X25169809Y-182562571D01*
X25122190Y-182514952D01*
X25026952Y-182467333D01*
X13121571Y-180193142D02*
X14264428Y-180193142D01*
X13693000Y-180764571D02*
X13693000Y-179621714D01*
X26121571Y-180193142D02*
X27264428Y-180193142D01*
%TO.C,Q4*%
X34837619Y-179293238D02*
X34790000Y-179388476D01*
X34694761Y-179483714D01*
X34551904Y-179626571D01*
X34504285Y-179721809D01*
X34504285Y-179817047D01*
X34742380Y-179769428D02*
X34694761Y-179864666D01*
X34599523Y-179959904D01*
X34409047Y-180007523D01*
X34075714Y-180007523D01*
X33885238Y-179959904D01*
X33790000Y-179864666D01*
X33742380Y-179769428D01*
X33742380Y-179578952D01*
X33790000Y-179483714D01*
X33885238Y-179388476D01*
X34075714Y-179340857D01*
X34409047Y-179340857D01*
X34599523Y-179388476D01*
X34694761Y-179483714D01*
X34742380Y-179578952D01*
X34742380Y-179769428D01*
X34075714Y-178483714D02*
X34742380Y-178483714D01*
X33694761Y-178721809D02*
X34409047Y-178959904D01*
X34409047Y-178340857D01*
%TO.C,R2*%
X43013333Y-169917380D02*
X42680000Y-169441190D01*
X42441904Y-169917380D02*
X42441904Y-168917380D01*
X42822857Y-168917380D01*
X42918095Y-168965000D01*
X42965714Y-169012619D01*
X43013333Y-169107857D01*
X43013333Y-169250714D01*
X42965714Y-169345952D01*
X42918095Y-169393571D01*
X42822857Y-169441190D01*
X42441904Y-169441190D01*
X43394285Y-169012619D02*
X43441904Y-168965000D01*
X43537142Y-168917380D01*
X43775238Y-168917380D01*
X43870476Y-168965000D01*
X43918095Y-169012619D01*
X43965714Y-169107857D01*
X43965714Y-169203095D01*
X43918095Y-169345952D01*
X43346666Y-169917380D01*
X43965714Y-169917380D01*
%TO.C,R15*%
X62428380Y-168282857D02*
X61952190Y-168616190D01*
X62428380Y-168854285D02*
X61428380Y-168854285D01*
X61428380Y-168473333D01*
X61476000Y-168378095D01*
X61523619Y-168330476D01*
X61618857Y-168282857D01*
X61761714Y-168282857D01*
X61856952Y-168330476D01*
X61904571Y-168378095D01*
X61952190Y-168473333D01*
X61952190Y-168854285D01*
X62428380Y-167330476D02*
X62428380Y-167901904D01*
X62428380Y-167616190D02*
X61428380Y-167616190D01*
X61571238Y-167711428D01*
X61666476Y-167806666D01*
X61714095Y-167901904D01*
X61428380Y-166425714D02*
X61428380Y-166901904D01*
X61904571Y-166949523D01*
X61856952Y-166901904D01*
X61809333Y-166806666D01*
X61809333Y-166568571D01*
X61856952Y-166473333D01*
X61904571Y-166425714D01*
X61999809Y-166378095D01*
X62237904Y-166378095D01*
X62333142Y-166425714D01*
X62380761Y-166473333D01*
X62428380Y-166568571D01*
X62428380Y-166806666D01*
X62380761Y-166901904D01*
X62333142Y-166949523D01*
%TO.C,J6*%
X15933380Y-169751333D02*
X16647666Y-169751333D01*
X16790523Y-169798952D01*
X16885761Y-169894190D01*
X16933380Y-170037047D01*
X16933380Y-170132285D01*
X15933380Y-168846571D02*
X15933380Y-169037047D01*
X15981000Y-169132285D01*
X16028619Y-169179904D01*
X16171476Y-169275142D01*
X16361952Y-169322761D01*
X16742904Y-169322761D01*
X16838142Y-169275142D01*
X16885761Y-169227523D01*
X16933380Y-169132285D01*
X16933380Y-168941809D01*
X16885761Y-168846571D01*
X16838142Y-168798952D01*
X16742904Y-168751333D01*
X16504809Y-168751333D01*
X16409571Y-168798952D01*
X16361952Y-168846571D01*
X16314333Y-168941809D01*
X16314333Y-169132285D01*
X16361952Y-169227523D01*
X16409571Y-169275142D01*
X16504809Y-169322761D01*
%TO.C,D18*%
X37774714Y-157805380D02*
X37774714Y-156805380D01*
X38012809Y-156805380D01*
X38155666Y-156853000D01*
X38250904Y-156948238D01*
X38298523Y-157043476D01*
X38346142Y-157233952D01*
X38346142Y-157376809D01*
X38298523Y-157567285D01*
X38250904Y-157662523D01*
X38155666Y-157757761D01*
X38012809Y-157805380D01*
X37774714Y-157805380D01*
X39298523Y-157805380D02*
X38727095Y-157805380D01*
X39012809Y-157805380D02*
X39012809Y-156805380D01*
X38917571Y-156948238D01*
X38822333Y-157043476D01*
X38727095Y-157091095D01*
X39869952Y-157233952D02*
X39774714Y-157186333D01*
X39727095Y-157138714D01*
X39679476Y-157043476D01*
X39679476Y-156995857D01*
X39727095Y-156900619D01*
X39774714Y-156853000D01*
X39869952Y-156805380D01*
X40060428Y-156805380D01*
X40155666Y-156853000D01*
X40203285Y-156900619D01*
X40250904Y-156995857D01*
X40250904Y-157043476D01*
X40203285Y-157138714D01*
X40155666Y-157186333D01*
X40060428Y-157233952D01*
X39869952Y-157233952D01*
X39774714Y-157281571D01*
X39727095Y-157329190D01*
X39679476Y-157424428D01*
X39679476Y-157614904D01*
X39727095Y-157710142D01*
X39774714Y-157757761D01*
X39869952Y-157805380D01*
X40060428Y-157805380D01*
X40155666Y-157757761D01*
X40203285Y-157710142D01*
X40250904Y-157614904D01*
X40250904Y-157424428D01*
X40203285Y-157329190D01*
X40155666Y-157281571D01*
X40060428Y-157233952D01*
%TO.C,J3*%
X49109380Y-178641333D02*
X49823666Y-178641333D01*
X49966523Y-178688952D01*
X50061761Y-178784190D01*
X50109380Y-178927047D01*
X50109380Y-179022285D01*
X49109380Y-178260380D02*
X49109380Y-177641333D01*
X49490333Y-177974666D01*
X49490333Y-177831809D01*
X49537952Y-177736571D01*
X49585571Y-177688952D01*
X49680809Y-177641333D01*
X49918904Y-177641333D01*
X50014142Y-177688952D01*
X50061761Y-177736571D01*
X50109380Y-177831809D01*
X50109380Y-178117523D01*
X50061761Y-178212761D01*
X50014142Y-178260380D01*
%TO.C,Q2*%
X34802619Y-172308238D02*
X34755000Y-172403476D01*
X34659761Y-172498714D01*
X34516904Y-172641571D01*
X34469285Y-172736809D01*
X34469285Y-172832047D01*
X34707380Y-172784428D02*
X34659761Y-172879666D01*
X34564523Y-172974904D01*
X34374047Y-173022523D01*
X34040714Y-173022523D01*
X33850238Y-172974904D01*
X33755000Y-172879666D01*
X33707380Y-172784428D01*
X33707380Y-172593952D01*
X33755000Y-172498714D01*
X33850238Y-172403476D01*
X34040714Y-172355857D01*
X34374047Y-172355857D01*
X34564523Y-172403476D01*
X34659761Y-172498714D01*
X34707380Y-172593952D01*
X34707380Y-172784428D01*
X33802619Y-171974904D02*
X33755000Y-171927285D01*
X33707380Y-171832047D01*
X33707380Y-171593952D01*
X33755000Y-171498714D01*
X33802619Y-171451095D01*
X33897857Y-171403476D01*
X33993095Y-171403476D01*
X34135952Y-171451095D01*
X34707380Y-172022523D01*
X34707380Y-171403476D01*
%TO.C,J8*%
X25868380Y-158956333D02*
X26582666Y-158956333D01*
X26725523Y-159003952D01*
X26820761Y-159099190D01*
X26868380Y-159242047D01*
X26868380Y-159337285D01*
X26296952Y-158337285D02*
X26249333Y-158432523D01*
X26201714Y-158480142D01*
X26106476Y-158527761D01*
X26058857Y-158527761D01*
X25963619Y-158480142D01*
X25916000Y-158432523D01*
X25868380Y-158337285D01*
X25868380Y-158146809D01*
X25916000Y-158051571D01*
X25963619Y-158003952D01*
X26058857Y-157956333D01*
X26106476Y-157956333D01*
X26201714Y-158003952D01*
X26249333Y-158051571D01*
X26296952Y-158146809D01*
X26296952Y-158337285D01*
X26344571Y-158432523D01*
X26392190Y-158480142D01*
X26487428Y-158527761D01*
X26677904Y-158527761D01*
X26773142Y-158480142D01*
X26820761Y-158432523D01*
X26868380Y-158337285D01*
X26868380Y-158146809D01*
X26820761Y-158051571D01*
X26773142Y-158003952D01*
X26677904Y-157956333D01*
X26487428Y-157956333D01*
X26392190Y-158003952D01*
X26344571Y-158051571D01*
X26296952Y-158146809D01*
X13288571Y-157587142D02*
X14431428Y-157587142D01*
X13860000Y-158158571D02*
X13860000Y-157015714D01*
X26288571Y-157587142D02*
X27431428Y-157587142D01*
%TO.C,R10*%
X31694380Y-168282857D02*
X31218190Y-168616190D01*
X31694380Y-168854285D02*
X30694380Y-168854285D01*
X30694380Y-168473333D01*
X30742000Y-168378095D01*
X30789619Y-168330476D01*
X30884857Y-168282857D01*
X31027714Y-168282857D01*
X31122952Y-168330476D01*
X31170571Y-168378095D01*
X31218190Y-168473333D01*
X31218190Y-168854285D01*
X31694380Y-167330476D02*
X31694380Y-167901904D01*
X31694380Y-167616190D02*
X30694380Y-167616190D01*
X30837238Y-167711428D01*
X30932476Y-167806666D01*
X30980095Y-167901904D01*
X30694380Y-166711428D02*
X30694380Y-166616190D01*
X30742000Y-166520952D01*
X30789619Y-166473333D01*
X30884857Y-166425714D01*
X31075333Y-166378095D01*
X31313428Y-166378095D01*
X31503904Y-166425714D01*
X31599142Y-166473333D01*
X31646761Y-166520952D01*
X31694380Y-166616190D01*
X31694380Y-166711428D01*
X31646761Y-166806666D01*
X31599142Y-166854285D01*
X31503904Y-166901904D01*
X31313428Y-166949523D01*
X31075333Y-166949523D01*
X30884857Y-166901904D01*
X30789619Y-166854285D01*
X30742000Y-166806666D01*
X30694380Y-166711428D01*
%TO.C,D19*%
X45664380Y-166695285D02*
X44664380Y-166695285D01*
X44664380Y-166457190D01*
X44712000Y-166314333D01*
X44807238Y-166219095D01*
X44902476Y-166171476D01*
X45092952Y-166123857D01*
X45235809Y-166123857D01*
X45426285Y-166171476D01*
X45521523Y-166219095D01*
X45616761Y-166314333D01*
X45664380Y-166457190D01*
X45664380Y-166695285D01*
X45664380Y-165171476D02*
X45664380Y-165742904D01*
X45664380Y-165457190D02*
X44664380Y-165457190D01*
X44807238Y-165552428D01*
X44902476Y-165647666D01*
X44950095Y-165742904D01*
X45664380Y-164695285D02*
X45664380Y-164504809D01*
X45616761Y-164409571D01*
X45569142Y-164361952D01*
X45426285Y-164266714D01*
X45235809Y-164219095D01*
X44854857Y-164219095D01*
X44759619Y-164266714D01*
X44712000Y-164314333D01*
X44664380Y-164409571D01*
X44664380Y-164600047D01*
X44712000Y-164695285D01*
X44759619Y-164742904D01*
X44854857Y-164790523D01*
X45092952Y-164790523D01*
X45188190Y-164742904D01*
X45235809Y-164695285D01*
X45283428Y-164600047D01*
X45283428Y-164409571D01*
X45235809Y-164314333D01*
X45188190Y-164266714D01*
X45092952Y-164219095D01*
%TO.C,R1*%
X43013333Y-173727380D02*
X42680000Y-173251190D01*
X42441904Y-173727380D02*
X42441904Y-172727380D01*
X42822857Y-172727380D01*
X42918095Y-172775000D01*
X42965714Y-172822619D01*
X43013333Y-172917857D01*
X43013333Y-173060714D01*
X42965714Y-173155952D01*
X42918095Y-173203571D01*
X42822857Y-173251190D01*
X42441904Y-173251190D01*
X43965714Y-173727380D02*
X43394285Y-173727380D01*
X43680000Y-173727380D02*
X43680000Y-172727380D01*
X43584761Y-172870238D01*
X43489523Y-172965476D01*
X43394285Y-173013095D01*
%TO.C,R6*%
X39203333Y-170124380D02*
X38870000Y-169648190D01*
X38631904Y-170124380D02*
X38631904Y-169124380D01*
X39012857Y-169124380D01*
X39108095Y-169172000D01*
X39155714Y-169219619D01*
X39203333Y-169314857D01*
X39203333Y-169457714D01*
X39155714Y-169552952D01*
X39108095Y-169600571D01*
X39012857Y-169648190D01*
X38631904Y-169648190D01*
X40060476Y-169124380D02*
X39870000Y-169124380D01*
X39774761Y-169172000D01*
X39727142Y-169219619D01*
X39631904Y-169362476D01*
X39584285Y-169552952D01*
X39584285Y-169933904D01*
X39631904Y-170029142D01*
X39679523Y-170076761D01*
X39774761Y-170124380D01*
X39965238Y-170124380D01*
X40060476Y-170076761D01*
X40108095Y-170029142D01*
X40155714Y-169933904D01*
X40155714Y-169695809D01*
X40108095Y-169600571D01*
X40060476Y-169552952D01*
X39965238Y-169505333D01*
X39774761Y-169505333D01*
X39679523Y-169552952D01*
X39631904Y-169600571D01*
X39584285Y-169695809D01*
%TO.C,U1*%
X78261380Y-175002904D02*
X79070904Y-175002904D01*
X79166142Y-174955285D01*
X79213761Y-174907666D01*
X79261380Y-174812428D01*
X79261380Y-174621952D01*
X79213761Y-174526714D01*
X79166142Y-174479095D01*
X79070904Y-174431476D01*
X78261380Y-174431476D01*
X79261380Y-173431476D02*
X79261380Y-174002904D01*
X79261380Y-173717190D02*
X78261380Y-173717190D01*
X78404238Y-173812428D01*
X78499476Y-173907666D01*
X78547095Y-174002904D01*
%TO.C,Q1*%
X27336761Y-162726619D02*
X27241523Y-162679000D01*
X27146285Y-162583761D01*
X27003428Y-162440904D01*
X26908190Y-162393285D01*
X26812952Y-162393285D01*
X26860571Y-162631380D02*
X26765333Y-162583761D01*
X26670095Y-162488523D01*
X26622476Y-162298047D01*
X26622476Y-161964714D01*
X26670095Y-161774238D01*
X26765333Y-161679000D01*
X26860571Y-161631380D01*
X27051047Y-161631380D01*
X27146285Y-161679000D01*
X27241523Y-161774238D01*
X27289142Y-161964714D01*
X27289142Y-162298047D01*
X27241523Y-162488523D01*
X27146285Y-162583761D01*
X27051047Y-162631380D01*
X26860571Y-162631380D01*
X28241523Y-162631380D02*
X27670095Y-162631380D01*
X27955809Y-162631380D02*
X27955809Y-161631380D01*
X27860571Y-161774238D01*
X27765333Y-161869476D01*
X27670095Y-161917095D01*
%TO.C,U4*%
X68580095Y-159142180D02*
X68580095Y-159951704D01*
X68627714Y-160046942D01*
X68675333Y-160094561D01*
X68770571Y-160142180D01*
X68961047Y-160142180D01*
X69056285Y-160094561D01*
X69103904Y-160046942D01*
X69151523Y-159951704D01*
X69151523Y-159142180D01*
X70056285Y-159475514D02*
X70056285Y-160142180D01*
X69818190Y-159094561D02*
X69580095Y-159808847D01*
X70199142Y-159808847D01*
%TO.C,J1*%
X76323866Y-150252180D02*
X76323866Y-150966466D01*
X76276247Y-151109323D01*
X76181009Y-151204561D01*
X76038152Y-151252180D01*
X75942914Y-151252180D01*
X77323866Y-151252180D02*
X76752438Y-151252180D01*
X77038152Y-151252180D02*
X77038152Y-150252180D01*
X76942914Y-150395038D01*
X76847676Y-150490276D01*
X76752438Y-150537895D01*
%TO.C,J17*%
X25233380Y-195881523D02*
X25947666Y-195881523D01*
X26090523Y-195929142D01*
X26185761Y-196024380D01*
X26233380Y-196167238D01*
X26233380Y-196262476D01*
X26233380Y-194881523D02*
X26233380Y-195452952D01*
X26233380Y-195167238D02*
X25233380Y-195167238D01*
X25376238Y-195262476D01*
X25471476Y-195357714D01*
X25519095Y-195452952D01*
X25233380Y-194548190D02*
X25233380Y-193881523D01*
X26233380Y-194310095D01*
X13121571Y-192131142D02*
X14264428Y-192131142D01*
X13693000Y-192702571D02*
X13693000Y-191559714D01*
X26121571Y-192131142D02*
X27264428Y-192131142D01*
%TO.C,R8*%
X38425380Y-193332666D02*
X37949190Y-193666000D01*
X38425380Y-193904095D02*
X37425380Y-193904095D01*
X37425380Y-193523142D01*
X37473000Y-193427904D01*
X37520619Y-193380285D01*
X37615857Y-193332666D01*
X37758714Y-193332666D01*
X37853952Y-193380285D01*
X37901571Y-193427904D01*
X37949190Y-193523142D01*
X37949190Y-193904095D01*
X37853952Y-192761238D02*
X37806333Y-192856476D01*
X37758714Y-192904095D01*
X37663476Y-192951714D01*
X37615857Y-192951714D01*
X37520619Y-192904095D01*
X37473000Y-192856476D01*
X37425380Y-192761238D01*
X37425380Y-192570761D01*
X37473000Y-192475523D01*
X37520619Y-192427904D01*
X37615857Y-192380285D01*
X37663476Y-192380285D01*
X37758714Y-192427904D01*
X37806333Y-192475523D01*
X37853952Y-192570761D01*
X37853952Y-192761238D01*
X37901571Y-192856476D01*
X37949190Y-192904095D01*
X38044428Y-192951714D01*
X38234904Y-192951714D01*
X38330142Y-192904095D01*
X38377761Y-192856476D01*
X38425380Y-192761238D01*
X38425380Y-192570761D01*
X38377761Y-192475523D01*
X38330142Y-192427904D01*
X38234904Y-192380285D01*
X38044428Y-192380285D01*
X37949190Y-192427904D01*
X37901571Y-192475523D01*
X37853952Y-192570761D01*
%TO.C,C1*%
X35155142Y-160440666D02*
X35202761Y-160488285D01*
X35250380Y-160631142D01*
X35250380Y-160726380D01*
X35202761Y-160869238D01*
X35107523Y-160964476D01*
X35012285Y-161012095D01*
X34821809Y-161059714D01*
X34678952Y-161059714D01*
X34488476Y-161012095D01*
X34393238Y-160964476D01*
X34298000Y-160869238D01*
X34250380Y-160726380D01*
X34250380Y-160631142D01*
X34298000Y-160488285D01*
X34345619Y-160440666D01*
X35250380Y-159488285D02*
X35250380Y-160059714D01*
X35250380Y-159774000D02*
X34250380Y-159774000D01*
X34393238Y-159869238D01*
X34488476Y-159964476D01*
X34536095Y-160059714D01*
%TO.C,J5*%
X24471380Y-177498333D02*
X25185666Y-177498333D01*
X25328523Y-177545952D01*
X25423761Y-177641190D01*
X25471380Y-177784047D01*
X25471380Y-177879285D01*
X24471380Y-176545952D02*
X24471380Y-177022142D01*
X24947571Y-177069761D01*
X24899952Y-177022142D01*
X24852333Y-176926904D01*
X24852333Y-176688809D01*
X24899952Y-176593571D01*
X24947571Y-176545952D01*
X25042809Y-176498333D01*
X25280904Y-176498333D01*
X25376142Y-176545952D01*
X25423761Y-176593571D01*
X25471380Y-176688809D01*
X25471380Y-176926904D01*
X25423761Y-177022142D01*
X25376142Y-177069761D01*
X26121571Y-174097142D02*
X27264428Y-174097142D01*
X13121571Y-174097142D02*
X14264428Y-174097142D01*
X13693000Y-174668571D02*
X13693000Y-173525714D01*
%TO.C,J12*%
X80419676Y-150353780D02*
X80419676Y-151068066D01*
X80372057Y-151210923D01*
X80276819Y-151306161D01*
X80133961Y-151353780D01*
X80038723Y-151353780D01*
X81419676Y-151353780D02*
X80848247Y-151353780D01*
X81133961Y-151353780D02*
X81133961Y-150353780D01*
X81038723Y-150496638D01*
X80943485Y-150591876D01*
X80848247Y-150639495D01*
X81800628Y-150449019D02*
X81848247Y-150401400D01*
X81943485Y-150353780D01*
X82181580Y-150353780D01*
X82276819Y-150401400D01*
X82324438Y-150449019D01*
X82372057Y-150544257D01*
X82372057Y-150639495D01*
X82324438Y-150782352D01*
X81753009Y-151353780D01*
X82372057Y-151353780D01*
%TO.C,J13*%
X51649380Y-179625523D02*
X52363666Y-179625523D01*
X52506523Y-179673142D01*
X52601761Y-179768380D01*
X52649380Y-179911238D01*
X52649380Y-180006476D01*
X52649380Y-178625523D02*
X52649380Y-179196952D01*
X52649380Y-178911238D02*
X51649380Y-178911238D01*
X51792238Y-179006476D01*
X51887476Y-179101714D01*
X51935095Y-179196952D01*
X51649380Y-178292190D02*
X51649380Y-177673142D01*
X52030333Y-178006476D01*
X52030333Y-177863619D01*
X52077952Y-177768380D01*
X52125571Y-177720761D01*
X52220809Y-177673142D01*
X52458904Y-177673142D01*
X52554142Y-177720761D01*
X52601761Y-177768380D01*
X52649380Y-177863619D01*
X52649380Y-178149333D01*
X52601761Y-178244571D01*
X52554142Y-178292190D01*
%TO.C,C8*%
X52243333Y-150835142D02*
X52195714Y-150882761D01*
X52052857Y-150930380D01*
X51957619Y-150930380D01*
X51814761Y-150882761D01*
X51719523Y-150787523D01*
X51671904Y-150692285D01*
X51624285Y-150501809D01*
X51624285Y-150358952D01*
X51671904Y-150168476D01*
X51719523Y-150073238D01*
X51814761Y-149978000D01*
X51957619Y-149930380D01*
X52052857Y-149930380D01*
X52195714Y-149978000D01*
X52243333Y-150025619D01*
X52814761Y-150358952D02*
X52719523Y-150311333D01*
X52671904Y-150263714D01*
X52624285Y-150168476D01*
X52624285Y-150120857D01*
X52671904Y-150025619D01*
X52719523Y-149978000D01*
X52814761Y-149930380D01*
X53005238Y-149930380D01*
X53100476Y-149978000D01*
X53148095Y-150025619D01*
X53195714Y-150120857D01*
X53195714Y-150168476D01*
X53148095Y-150263714D01*
X53100476Y-150311333D01*
X53005238Y-150358952D01*
X52814761Y-150358952D01*
X52719523Y-150406571D01*
X52671904Y-150454190D01*
X52624285Y-150549428D01*
X52624285Y-150739904D01*
X52671904Y-150835142D01*
X52719523Y-150882761D01*
X52814761Y-150930380D01*
X53005238Y-150930380D01*
X53100476Y-150882761D01*
X53148095Y-150835142D01*
X53195714Y-150739904D01*
X53195714Y-150549428D01*
X53148095Y-150454190D01*
X53100476Y-150406571D01*
X53005238Y-150358952D01*
%TO.C,R13*%
X57221380Y-172219857D02*
X56745190Y-172553190D01*
X57221380Y-172791285D02*
X56221380Y-172791285D01*
X56221380Y-172410333D01*
X56269000Y-172315095D01*
X56316619Y-172267476D01*
X56411857Y-172219857D01*
X56554714Y-172219857D01*
X56649952Y-172267476D01*
X56697571Y-172315095D01*
X56745190Y-172410333D01*
X56745190Y-172791285D01*
X57221380Y-171267476D02*
X57221380Y-171838904D01*
X57221380Y-171553190D02*
X56221380Y-171553190D01*
X56364238Y-171648428D01*
X56459476Y-171743666D01*
X56507095Y-171838904D01*
X56221380Y-170934142D02*
X56221380Y-170315095D01*
X56602333Y-170648428D01*
X56602333Y-170505571D01*
X56649952Y-170410333D01*
X56697571Y-170362714D01*
X56792809Y-170315095D01*
X57030904Y-170315095D01*
X57126142Y-170362714D01*
X57173761Y-170410333D01*
X57221380Y-170505571D01*
X57221380Y-170791285D01*
X57173761Y-170886523D01*
X57126142Y-170934142D01*
%TO.C,R9*%
X38679380Y-179490666D02*
X38203190Y-179824000D01*
X38679380Y-180062095D02*
X37679380Y-180062095D01*
X37679380Y-179681142D01*
X37727000Y-179585904D01*
X37774619Y-179538285D01*
X37869857Y-179490666D01*
X38012714Y-179490666D01*
X38107952Y-179538285D01*
X38155571Y-179585904D01*
X38203190Y-179681142D01*
X38203190Y-180062095D01*
X38679380Y-179014476D02*
X38679380Y-178824000D01*
X38631761Y-178728761D01*
X38584142Y-178681142D01*
X38441285Y-178585904D01*
X38250809Y-178538285D01*
X37869857Y-178538285D01*
X37774619Y-178585904D01*
X37727000Y-178633523D01*
X37679380Y-178728761D01*
X37679380Y-178919238D01*
X37727000Y-179014476D01*
X37774619Y-179062095D01*
X37869857Y-179109714D01*
X38107952Y-179109714D01*
X38203190Y-179062095D01*
X38250809Y-179014476D01*
X38298428Y-178919238D01*
X38298428Y-178728761D01*
X38250809Y-178633523D01*
X38203190Y-178585904D01*
X38107952Y-178538285D01*
%TO.C,R5*%
X41981380Y-165901666D02*
X41505190Y-166235000D01*
X41981380Y-166473095D02*
X40981380Y-166473095D01*
X40981380Y-166092142D01*
X41029000Y-165996904D01*
X41076619Y-165949285D01*
X41171857Y-165901666D01*
X41314714Y-165901666D01*
X41409952Y-165949285D01*
X41457571Y-165996904D01*
X41505190Y-166092142D01*
X41505190Y-166473095D01*
X40981380Y-164996904D02*
X40981380Y-165473095D01*
X41457571Y-165520714D01*
X41409952Y-165473095D01*
X41362333Y-165377857D01*
X41362333Y-165139761D01*
X41409952Y-165044523D01*
X41457571Y-164996904D01*
X41552809Y-164949285D01*
X41790904Y-164949285D01*
X41886142Y-164996904D01*
X41933761Y-165044523D01*
X41981380Y-165139761D01*
X41981380Y-165377857D01*
X41933761Y-165473095D01*
X41886142Y-165520714D01*
%TO.C,J2*%
X78457466Y-150328380D02*
X78457466Y-151042666D01*
X78409847Y-151185523D01*
X78314609Y-151280761D01*
X78171752Y-151328380D01*
X78076514Y-151328380D01*
X78886038Y-150423619D02*
X78933657Y-150376000D01*
X79028895Y-150328380D01*
X79266990Y-150328380D01*
X79362228Y-150376000D01*
X79409847Y-150423619D01*
X79457466Y-150518857D01*
X79457466Y-150614095D01*
X79409847Y-150756952D01*
X78838419Y-151328380D01*
X79457466Y-151328380D01*
%TO.C,J11*%
X24388380Y-153844523D02*
X25102666Y-153844523D01*
X25245523Y-153892142D01*
X25340761Y-153987380D01*
X25388380Y-154130238D01*
X25388380Y-154225476D01*
X25388380Y-152844523D02*
X25388380Y-153415952D01*
X25388380Y-153130238D02*
X24388380Y-153130238D01*
X24531238Y-153225476D01*
X24626476Y-153320714D01*
X24674095Y-153415952D01*
X25388380Y-151892142D02*
X25388380Y-152463571D01*
X25388380Y-152177857D02*
X24388380Y-152177857D01*
X24531238Y-152273095D01*
X24626476Y-152368333D01*
X24674095Y-152463571D01*
%TO.C,C3*%
X57617142Y-154979666D02*
X57664761Y-155027285D01*
X57712380Y-155170142D01*
X57712380Y-155265380D01*
X57664761Y-155408238D01*
X57569523Y-155503476D01*
X57474285Y-155551095D01*
X57283809Y-155598714D01*
X57140952Y-155598714D01*
X56950476Y-155551095D01*
X56855238Y-155503476D01*
X56760000Y-155408238D01*
X56712380Y-155265380D01*
X56712380Y-155170142D01*
X56760000Y-155027285D01*
X56807619Y-154979666D01*
X56712380Y-154646333D02*
X56712380Y-154027285D01*
X57093333Y-154360619D01*
X57093333Y-154217761D01*
X57140952Y-154122523D01*
X57188571Y-154074904D01*
X57283809Y-154027285D01*
X57521904Y-154027285D01*
X57617142Y-154074904D01*
X57664761Y-154122523D01*
X57712380Y-154217761D01*
X57712380Y-154503476D01*
X57664761Y-154598714D01*
X57617142Y-154646333D01*
%TO.C,C9*%
X83161142Y-192190666D02*
X83208761Y-192238285D01*
X83256380Y-192381142D01*
X83256380Y-192476380D01*
X83208761Y-192619238D01*
X83113523Y-192714476D01*
X83018285Y-192762095D01*
X82827809Y-192809714D01*
X82684952Y-192809714D01*
X82494476Y-192762095D01*
X82399238Y-192714476D01*
X82304000Y-192619238D01*
X82256380Y-192476380D01*
X82256380Y-192381142D01*
X82304000Y-192238285D01*
X82351619Y-192190666D01*
X83256380Y-191714476D02*
X83256380Y-191524000D01*
X83208761Y-191428761D01*
X83161142Y-191381142D01*
X83018285Y-191285904D01*
X82827809Y-191238285D01*
X82446857Y-191238285D01*
X82351619Y-191285904D01*
X82304000Y-191333523D01*
X82256380Y-191428761D01*
X82256380Y-191619238D01*
X82304000Y-191714476D01*
X82351619Y-191762095D01*
X82446857Y-191809714D01*
X82684952Y-191809714D01*
X82780190Y-191762095D01*
X82827809Y-191714476D01*
X82875428Y-191619238D01*
X82875428Y-191428761D01*
X82827809Y-191333523D01*
X82780190Y-191285904D01*
X82684952Y-191238285D01*
%TO.C,Q3*%
X25939761Y-170092619D02*
X25844523Y-170045000D01*
X25749285Y-169949761D01*
X25606428Y-169806904D01*
X25511190Y-169759285D01*
X25415952Y-169759285D01*
X25463571Y-169997380D02*
X25368333Y-169949761D01*
X25273095Y-169854523D01*
X25225476Y-169664047D01*
X25225476Y-169330714D01*
X25273095Y-169140238D01*
X25368333Y-169045000D01*
X25463571Y-168997380D01*
X25654047Y-168997380D01*
X25749285Y-169045000D01*
X25844523Y-169140238D01*
X25892142Y-169330714D01*
X25892142Y-169664047D01*
X25844523Y-169854523D01*
X25749285Y-169949761D01*
X25654047Y-169997380D01*
X25463571Y-169997380D01*
X26225476Y-168997380D02*
X26844523Y-168997380D01*
X26511190Y-169378333D01*
X26654047Y-169378333D01*
X26749285Y-169425952D01*
X26796904Y-169473571D01*
X26844523Y-169568809D01*
X26844523Y-169806904D01*
X26796904Y-169902142D01*
X26749285Y-169949761D01*
X26654047Y-169997380D01*
X26368333Y-169997380D01*
X26273095Y-169949761D01*
X26225476Y-169902142D01*
%TO.C,J14*%
X24725380Y-189912523D02*
X25439666Y-189912523D01*
X25582523Y-189960142D01*
X25677761Y-190055380D01*
X25725380Y-190198238D01*
X25725380Y-190293476D01*
X25725380Y-188912523D02*
X25725380Y-189483952D01*
X25725380Y-189198238D02*
X24725380Y-189198238D01*
X24868238Y-189293476D01*
X24963476Y-189388714D01*
X25011095Y-189483952D01*
X25058714Y-188055380D02*
X25725380Y-188055380D01*
X24677761Y-188293476D02*
X25392047Y-188531571D01*
X25392047Y-187912523D01*
X26121571Y-186162142D02*
X27264428Y-186162142D01*
X13121571Y-186162142D02*
X14264428Y-186162142D01*
X13693000Y-186733571D02*
X13693000Y-185590714D01*
D11*
%TO.C,GND2*%
X54312000Y-187877000D02*
X56432000Y-187877000D01*
X54312000Y-187817000D02*
X54312000Y-187877000D01*
X54312000Y-185757000D02*
X55372000Y-185757000D01*
X54312000Y-187817000D02*
X56432000Y-187817000D01*
X56432000Y-187817000D02*
X56432000Y-187877000D01*
X54312000Y-186817000D02*
X54312000Y-185757000D01*
%TO.C,TMS1*%
X58630000Y-165779000D02*
X60750000Y-165779000D01*
X58630000Y-165719000D02*
X58630000Y-165779000D01*
X58630000Y-163659000D02*
X59690000Y-163659000D01*
X58630000Y-165719000D02*
X60750000Y-165719000D01*
X60750000Y-165719000D02*
X60750000Y-165779000D01*
X58630000Y-164719000D02*
X58630000Y-163659000D01*
%TO.C,TDO1*%
X63710000Y-169462000D02*
X65830000Y-169462000D01*
X63710000Y-169402000D02*
X63710000Y-169462000D01*
X63710000Y-167342000D02*
X64770000Y-167342000D01*
X63710000Y-169402000D02*
X65830000Y-169402000D01*
X65830000Y-169402000D02*
X65830000Y-169462000D01*
X63710000Y-168402000D02*
X63710000Y-167342000D01*
%TO.C,TDI1*%
X46311000Y-164128000D02*
X48431000Y-164128000D01*
X46311000Y-164068000D02*
X46311000Y-164128000D01*
X46311000Y-162008000D02*
X47371000Y-162008000D01*
X46311000Y-164068000D02*
X48431000Y-164068000D01*
X48431000Y-164068000D02*
X48431000Y-164128000D01*
X46311000Y-163068000D02*
X46311000Y-162008000D01*
%TO.C,TCK1*%
X65869000Y-169462000D02*
X67989000Y-169462000D01*
X65869000Y-169402000D02*
X65869000Y-169462000D01*
X65869000Y-167342000D02*
X66929000Y-167342000D01*
X65869000Y-169402000D02*
X67989000Y-169402000D01*
X67989000Y-169402000D02*
X67989000Y-169462000D01*
X65869000Y-168402000D02*
X65869000Y-167342000D01*
%TO.C,GND1*%
X68028000Y-169462000D02*
X70148000Y-169462000D01*
X68028000Y-169402000D02*
X68028000Y-169462000D01*
X68028000Y-167342000D02*
X69088000Y-167342000D01*
X68028000Y-169402000D02*
X70148000Y-169402000D01*
X70148000Y-169402000D02*
X70148000Y-169462000D01*
X68028000Y-168402000D02*
X68028000Y-167342000D01*
%TO.C,BOOT0*%
X54312000Y-184956000D02*
X56432000Y-184956000D01*
X54312000Y-184896000D02*
X54312000Y-184956000D01*
X54312000Y-182836000D02*
X55372000Y-182836000D01*
X54312000Y-184896000D02*
X56432000Y-184896000D01*
X56432000Y-184896000D02*
X56432000Y-184956000D01*
X54312000Y-183896000D02*
X54312000Y-182836000D01*
%TO.C,Q5*%
X33399000Y-182860000D02*
X34899000Y-182860000D01*
X34899000Y-189490000D02*
X37729000Y-189490000D01*
X33399000Y-189760000D02*
X34899000Y-189760000D01*
X34899000Y-182860000D02*
X34899000Y-183130000D01*
X34899000Y-183130000D02*
X35999000Y-183130000D01*
X34899000Y-189760000D02*
X34899000Y-189490000D01*
%TO.C,Q6*%
X33355000Y-196745000D02*
X34855000Y-196745000D01*
X34855000Y-196745000D02*
X34855000Y-196475000D01*
X34855000Y-190115000D02*
X35955000Y-190115000D01*
X34855000Y-189845000D02*
X34855000Y-190115000D01*
X34855000Y-196475000D02*
X37685000Y-196475000D01*
X33355000Y-189845000D02*
X34855000Y-189845000D01*
%TO.C,R4*%
X23600742Y-160386500D02*
X24075258Y-160386500D01*
X23600742Y-161431500D02*
X24075258Y-161431500D01*
%TO.C,C2*%
X38356000Y-167018580D02*
X38356000Y-166737420D01*
X37336000Y-167018580D02*
X37336000Y-166737420D01*
%TO.C,BOOT1*%
X59971400Y-171730580D02*
X59971400Y-171449420D01*
X58951400Y-171730580D02*
X58951400Y-171449420D01*
%TO.C,C7*%
X38303780Y-165254400D02*
X38022620Y-165254400D01*
X38303780Y-164234400D02*
X38022620Y-164234400D01*
%TO.C,J16*%
X55940000Y-169470000D02*
X53280000Y-169470000D01*
X55940000Y-174610000D02*
X53280000Y-174610000D01*
X55940000Y-175880000D02*
X55940000Y-177210000D01*
X53280000Y-174610000D02*
X53280000Y-169470000D01*
X55940000Y-177210000D02*
X54610000Y-177210000D01*
X55940000Y-174610000D02*
X55940000Y-169470000D01*
%TO.C,J19*%
X80204000Y-183134000D02*
X82864000Y-183134000D01*
X80204000Y-180534000D02*
X81534000Y-180534000D01*
X80204000Y-190814000D02*
X82864000Y-190814000D01*
X80204000Y-181864000D02*
X80204000Y-180534000D01*
X80204000Y-183134000D02*
X80204000Y-190814000D01*
X82864000Y-183134000D02*
X82864000Y-190814000D01*
%TO.C,R3*%
X20590742Y-160386500D02*
X21065258Y-160386500D01*
X20590742Y-161431500D02*
X21065258Y-161431500D01*
%TO.C,R11*%
X36053500Y-172639258D02*
X36053500Y-172164742D01*
X37098500Y-172639258D02*
X37098500Y-172164742D01*
%TO.C,J18*%
X45787000Y-188468000D02*
X45787000Y-187138000D01*
X45787000Y-189738000D02*
X48447000Y-189738000D01*
X45787000Y-189738000D02*
X45787000Y-194878000D01*
X45787000Y-194878000D02*
X48447000Y-194878000D01*
X48447000Y-189738000D02*
X48447000Y-194878000D01*
X45787000Y-187138000D02*
X47117000Y-187138000D01*
%TO.C,J7*%
X20081000Y-165294000D02*
X25221000Y-165294000D01*
X20081000Y-167954000D02*
X20081000Y-165294000D01*
X20081000Y-167954000D02*
X25221000Y-167954000D01*
X25221000Y-167954000D02*
X25221000Y-165294000D01*
X18811000Y-167954000D02*
X17481000Y-167954000D01*
X17481000Y-167954000D02*
X17481000Y-166624000D01*
%TO.C,J4*%
X40173600Y-194878000D02*
X42833600Y-194878000D01*
X40173600Y-189738000D02*
X40173600Y-194878000D01*
X40173600Y-187138000D02*
X41503600Y-187138000D01*
X40173600Y-188468000D02*
X40173600Y-187138000D01*
X40173600Y-189738000D02*
X42833600Y-189738000D01*
X42833600Y-189738000D02*
X42833600Y-194878000D01*
%TO.C,J15*%
X42993000Y-189738000D02*
X45653000Y-189738000D01*
X42993000Y-194878000D02*
X45653000Y-194878000D01*
X45653000Y-189738000D02*
X45653000Y-194878000D01*
X42993000Y-189738000D02*
X42993000Y-194878000D01*
X42993000Y-188468000D02*
X42993000Y-187138000D01*
X42993000Y-187138000D02*
X44323000Y-187138000D01*
%TO.C,J10*%
X29210000Y-154492000D02*
X29210000Y-151832000D01*
X27940000Y-154492000D02*
X26610000Y-154492000D01*
X26610000Y-154492000D02*
X26610000Y-153162000D01*
X29210000Y-154492000D02*
X31810000Y-154492000D01*
X31810000Y-154492000D02*
X31810000Y-151832000D01*
X29210000Y-151832000D02*
X31810000Y-151832000D01*
%TO.C,R7*%
X37098500Y-186482258D02*
X37098500Y-186007742D01*
X36053500Y-186482258D02*
X36053500Y-186007742D01*
%TO.C,R12*%
X30367500Y-164702258D02*
X30367500Y-164227742D01*
X29322500Y-164702258D02*
X29322500Y-164227742D01*
%TO.C,J9*%
X25403000Y-181496000D02*
X23703000Y-182796000D01*
X25403000Y-178676000D02*
X23703000Y-177376000D01*
X23703000Y-182796000D02*
X14983000Y-182796000D01*
X25403000Y-181496000D02*
X25403000Y-178676000D01*
X23703000Y-177376000D02*
X14983000Y-177376000D01*
X14983000Y-182796000D02*
X14983000Y-177376000D01*
%TO.C,Q4*%
X34855000Y-176145000D02*
X35955000Y-176145000D01*
X34855000Y-175875000D02*
X34855000Y-176145000D01*
X33355000Y-175875000D02*
X34855000Y-175875000D01*
X34855000Y-182775000D02*
X34855000Y-182505000D01*
X34855000Y-182505000D02*
X37685000Y-182505000D01*
X33355000Y-182775000D02*
X34855000Y-182775000D01*
%TO.C,R2*%
X41002936Y-173795000D02*
X45357064Y-173795000D01*
X41002936Y-170375000D02*
X45357064Y-170375000D01*
%TO.C,R15*%
X61453500Y-170671258D02*
X61453500Y-170196742D01*
X62498500Y-170671258D02*
X62498500Y-170196742D01*
%TO.C,J6*%
X17481000Y-170748000D02*
X17481000Y-169418000D01*
X25221000Y-170748000D02*
X25221000Y-168088000D01*
X20081000Y-170748000D02*
X25221000Y-170748000D01*
X18811000Y-170748000D02*
X17481000Y-170748000D01*
X20081000Y-168088000D02*
X25221000Y-168088000D01*
X20081000Y-170748000D02*
X20081000Y-168088000D01*
%TO.C,D18*%
X37201000Y-158232600D02*
X37201000Y-160232600D01*
X37201000Y-160232600D02*
X41501000Y-160232600D01*
X41501000Y-158232600D02*
X37201000Y-158232600D01*
%TO.C,J3*%
X50860000Y-169485000D02*
X48200000Y-169485000D01*
X50860000Y-175895000D02*
X50860000Y-177225000D01*
X50860000Y-177225000D02*
X49530000Y-177225000D01*
X50860000Y-174625000D02*
X50860000Y-169485000D01*
X50860000Y-174625000D02*
X48200000Y-174625000D01*
X48200000Y-174625000D02*
X48200000Y-169485000D01*
%TO.C,Q2*%
X34820000Y-168890000D02*
X34820000Y-169160000D01*
X33320000Y-168890000D02*
X34820000Y-168890000D01*
X34820000Y-175790000D02*
X34820000Y-175520000D01*
X33320000Y-175790000D02*
X34820000Y-175790000D01*
X34820000Y-169160000D02*
X35920000Y-169160000D01*
X34820000Y-175520000D02*
X37650000Y-175520000D01*
%TO.C,J8*%
X25570000Y-158890000D02*
X25570000Y-156070000D01*
X23870000Y-160190000D02*
X15150000Y-160190000D01*
X25570000Y-156070000D02*
X23870000Y-154770000D01*
X23870000Y-154770000D02*
X15150000Y-154770000D01*
X25570000Y-158890000D02*
X23870000Y-160190000D01*
X15150000Y-160190000D02*
X15150000Y-154770000D01*
%TO.C,R10*%
X30367500Y-167877258D02*
X30367500Y-167402742D01*
X29322500Y-167877258D02*
X29322500Y-167402742D01*
%TO.C,D19*%
X42434000Y-163934200D02*
X42434000Y-168234200D01*
X42434000Y-168234200D02*
X44434000Y-168234200D01*
X44434000Y-168234200D02*
X44434000Y-163934200D01*
%TO.C,R1*%
X41002936Y-177605000D02*
X45357064Y-177605000D01*
X41002936Y-174185000D02*
X45357064Y-174185000D01*
%TO.C,R6*%
X39640742Y-168797500D02*
X40115258Y-168797500D01*
X39640742Y-167752500D02*
X40115258Y-167752500D01*
%TO.C,U1*%
X77319000Y-192116000D02*
X77699000Y-192116000D01*
X77319000Y-198531000D02*
X59079000Y-198531000D01*
X59079000Y-173571000D02*
X59079000Y-172791000D01*
X59079000Y-172791000D02*
X60079000Y-172791000D01*
X77319000Y-172791000D02*
X76319000Y-172791000D01*
X77319000Y-198531000D02*
X77319000Y-192116000D01*
X59079000Y-198531000D02*
X59079000Y-192116000D01*
X77319000Y-173571000D02*
X77319000Y-172791000D01*
%TO.C,Q1*%
X27305000Y-162905000D02*
X27955000Y-162905000D01*
X27305000Y-166025000D02*
X28980000Y-166025000D01*
X27305000Y-166025000D02*
X26655000Y-166025000D01*
X27305000Y-162905000D02*
X26655000Y-162905000D01*
%TO.C,U4*%
X67390000Y-158858000D02*
X71150000Y-158858000D01*
X65140000Y-152038000D02*
X71150000Y-152038000D01*
X71150000Y-152038000D02*
X71150000Y-153298000D01*
X71150000Y-158858000D02*
X71150000Y-157598000D01*
%TO.C,J1*%
X77530000Y-156733000D02*
X74870000Y-156733000D01*
X77530000Y-159333000D02*
X76200000Y-159333000D01*
X77530000Y-158003000D02*
X77530000Y-159333000D01*
X77530000Y-156733000D02*
X77530000Y-151593000D01*
X77530000Y-151593000D02*
X74870000Y-151593000D01*
X74870000Y-156733000D02*
X74870000Y-151593000D01*
%TO.C,J17*%
X25403000Y-190614000D02*
X23703000Y-189314000D01*
X25403000Y-193434000D02*
X25403000Y-190614000D01*
X25403000Y-193434000D02*
X23703000Y-194734000D01*
X14983000Y-194734000D02*
X14983000Y-189314000D01*
X23703000Y-194734000D02*
X14983000Y-194734000D01*
X23703000Y-189314000D02*
X14983000Y-189314000D01*
%TO.C,R8*%
X36053500Y-193467258D02*
X36053500Y-192992742D01*
X37098500Y-193467258D02*
X37098500Y-192992742D01*
%TO.C,C1*%
X36501800Y-160108020D02*
X36501800Y-160389180D01*
X35481800Y-160108020D02*
X35481800Y-160389180D01*
%TO.C,J5*%
X25403000Y-175400000D02*
X25403000Y-172580000D01*
X14983000Y-176700000D02*
X14983000Y-171280000D01*
X23703000Y-176700000D02*
X14983000Y-176700000D01*
X25403000Y-175400000D02*
X23703000Y-176700000D01*
X23703000Y-171280000D02*
X14983000Y-171280000D01*
X25403000Y-172580000D02*
X23703000Y-171280000D01*
%TO.C,J12*%
X82610000Y-156718000D02*
X82610000Y-151578000D01*
X82610000Y-157988000D02*
X82610000Y-159318000D01*
X82610000Y-156718000D02*
X79950000Y-156718000D01*
X82610000Y-151578000D02*
X79950000Y-151578000D01*
X82610000Y-159318000D02*
X81280000Y-159318000D01*
X79950000Y-156718000D02*
X79950000Y-151578000D01*
%TO.C,J13*%
X53400000Y-174625000D02*
X50740000Y-174625000D01*
X50740000Y-174625000D02*
X50740000Y-169485000D01*
X53400000Y-175895000D02*
X53400000Y-177225000D01*
X53400000Y-169485000D02*
X50740000Y-169485000D01*
X53400000Y-174625000D02*
X53400000Y-169485000D01*
X53400000Y-177225000D02*
X52070000Y-177225000D01*
%TO.C,C8*%
X55170000Y-156938000D02*
X55170000Y-155238000D01*
X50714437Y-151418000D02*
X55170000Y-151418000D01*
X55170000Y-151418000D02*
X55170000Y-153118000D01*
X49650000Y-155873563D02*
X49650000Y-155238000D01*
X49097500Y-152180500D02*
X49097500Y-152805500D01*
X50714437Y-156938000D02*
X55170000Y-156938000D01*
X49650000Y-152482437D02*
X50714437Y-151418000D01*
X49650000Y-152482437D02*
X49650000Y-153118000D01*
X48785000Y-152493000D02*
X49410000Y-152493000D01*
X49650000Y-155873563D02*
X50714437Y-156938000D01*
%TO.C,R13*%
X57516500Y-171402742D02*
X57516500Y-171877258D01*
X58561500Y-171402742D02*
X58561500Y-171877258D01*
%TO.C,R9*%
X37098500Y-179624258D02*
X37098500Y-179149742D01*
X36053500Y-179624258D02*
X36053500Y-179149742D01*
%TO.C,R5*%
X39782500Y-165964958D02*
X39782500Y-165490442D01*
X40827500Y-165964958D02*
X40827500Y-165490442D01*
%TO.C,J2*%
X80070000Y-151593000D02*
X77410000Y-151593000D01*
X80070000Y-159333000D02*
X78740000Y-159333000D01*
X80070000Y-158003000D02*
X80070000Y-159333000D01*
X80070000Y-156733000D02*
X80070000Y-151593000D01*
X80070000Y-156733000D02*
X77410000Y-156733000D01*
X77410000Y-156733000D02*
X77410000Y-151593000D01*
%TO.C,J11*%
X21336000Y-151832000D02*
X21336000Y-154492000D01*
X21336000Y-154492000D02*
X16196000Y-154492000D01*
X23936000Y-151832000D02*
X23936000Y-153162000D01*
X22606000Y-151832000D02*
X23936000Y-151832000D01*
X21336000Y-151832000D02*
X16196000Y-151832000D01*
X16196000Y-151832000D02*
X16196000Y-154492000D01*
%TO.C,C3*%
X58200000Y-156508563D02*
X58200000Y-152053000D01*
X59264437Y-157573000D02*
X58200000Y-156508563D01*
X63720000Y-156508563D02*
X63720000Y-152053000D01*
X59264437Y-157573000D02*
X59900000Y-157573000D01*
X58962500Y-158125500D02*
X59587500Y-158125500D01*
X63720000Y-152053000D02*
X62020000Y-152053000D01*
X62655563Y-157573000D02*
X62020000Y-157573000D01*
X62655563Y-157573000D02*
X63720000Y-156508563D01*
X59275000Y-158438000D02*
X59275000Y-157813000D01*
X58200000Y-152053000D02*
X59900000Y-152053000D01*
%TO.C,C9*%
X80504420Y-191006000D02*
X80785580Y-191006000D01*
X80504420Y-192026000D02*
X80785580Y-192026000D01*
%TO.C,Q3*%
X27305000Y-166080000D02*
X26655000Y-166080000D01*
X27305000Y-169200000D02*
X26655000Y-169200000D01*
X27305000Y-166080000D02*
X27955000Y-166080000D01*
X27305000Y-169200000D02*
X28980000Y-169200000D01*
%TO.C,J14*%
X25403000Y-187465000D02*
X23703000Y-188765000D01*
X23703000Y-188765000D02*
X14983000Y-188765000D01*
X14983000Y-188765000D02*
X14983000Y-183345000D01*
X23703000Y-183345000D02*
X14983000Y-183345000D01*
X25403000Y-187465000D02*
X25403000Y-184645000D01*
X25403000Y-184645000D02*
X23703000Y-183345000D01*
%TD*%
M02*
