%TF.GenerationSoftware,KiCad,Pcbnew,(6.0.9)*%
%TF.CreationDate,2023-04-19T21:58:53+02:00*%
%TF.ProjectId,jf-ecu32,6a662d65-6375-4333-922e-6b696361645f,rev?*%
%TF.SameCoordinates,Original*%
%TF.FileFunction,Legend,Bot*%
%TF.FilePolarity,Positive*%
%FSLAX46Y46*%
G04 Gerber Fmt 4.6, Leading zero omitted, Abs format (unit mm)*
G04 Created by KiCad (PCBNEW (6.0.9)) date 2023-04-19 21:58:53*
%MOMM*%
%LPD*%
G01*
G04 APERTURE LIST*
%ADD10C,0.150000*%
%ADD11C,0.120000*%
G04 APERTURE END LIST*
D10*
X76579904Y-194397380D02*
X76579904Y-195111666D01*
X76627523Y-195254523D01*
X76722761Y-195349761D01*
X76865619Y-195397380D01*
X76960857Y-195397380D01*
X75770380Y-194873571D02*
X76103714Y-194873571D01*
X76103714Y-195397380D02*
X76103714Y-194397380D01*
X75627523Y-194397380D01*
X75246571Y-195016428D02*
X74484666Y-195016428D01*
X74008476Y-194873571D02*
X73675142Y-194873571D01*
X73532285Y-195397380D02*
X74008476Y-195397380D01*
X74008476Y-194397380D01*
X73532285Y-194397380D01*
X72532285Y-195302142D02*
X72579904Y-195349761D01*
X72722761Y-195397380D01*
X72818000Y-195397380D01*
X72960857Y-195349761D01*
X73056095Y-195254523D01*
X73103714Y-195159285D01*
X73151333Y-194968809D01*
X73151333Y-194825952D01*
X73103714Y-194635476D01*
X73056095Y-194540238D01*
X72960857Y-194445000D01*
X72818000Y-194397380D01*
X72722761Y-194397380D01*
X72579904Y-194445000D01*
X72532285Y-194492619D01*
X72103714Y-194397380D02*
X72103714Y-195206904D01*
X72056095Y-195302142D01*
X72008476Y-195349761D01*
X71913238Y-195397380D01*
X71722761Y-195397380D01*
X71627523Y-195349761D01*
X71579904Y-195302142D01*
X71532285Y-195206904D01*
X71532285Y-194397380D01*
X71151333Y-194397380D02*
X70532285Y-194397380D01*
X70865619Y-194778333D01*
X70722761Y-194778333D01*
X70627523Y-194825952D01*
X70579904Y-194873571D01*
X70532285Y-194968809D01*
X70532285Y-195206904D01*
X70579904Y-195302142D01*
X70627523Y-195349761D01*
X70722761Y-195397380D01*
X71008476Y-195397380D01*
X71103714Y-195349761D01*
X71151333Y-195302142D01*
X70151333Y-194492619D02*
X70103714Y-194445000D01*
X70008476Y-194397380D01*
X69770380Y-194397380D01*
X69675142Y-194445000D01*
X69627523Y-194492619D01*
X69579904Y-194587857D01*
X69579904Y-194683095D01*
X69627523Y-194825952D01*
X70198952Y-195397380D01*
X69579904Y-195397380D01*
X68437047Y-194492619D02*
X68389428Y-194445000D01*
X68294190Y-194397380D01*
X68056095Y-194397380D01*
X67960857Y-194445000D01*
X67913238Y-194492619D01*
X67865619Y-194587857D01*
X67865619Y-194683095D01*
X67913238Y-194825952D01*
X68484666Y-195397380D01*
X67865619Y-195397380D01*
X67437047Y-195302142D02*
X67389428Y-195349761D01*
X67437047Y-195397380D01*
X67484666Y-195349761D01*
X67437047Y-195302142D01*
X67437047Y-195397380D01*
X66770380Y-194397380D02*
X66675142Y-194397380D01*
X66579904Y-194445000D01*
X66532285Y-194492619D01*
X66484666Y-194587857D01*
X66437047Y-194778333D01*
X66437047Y-195016428D01*
X66484666Y-195206904D01*
X66532285Y-195302142D01*
X66579904Y-195349761D01*
X66675142Y-195397380D01*
X66770380Y-195397380D01*
X66865619Y-195349761D01*
X66913238Y-195302142D01*
X66960857Y-195206904D01*
X67008476Y-195016428D01*
X67008476Y-194778333D01*
X66960857Y-194587857D01*
X66913238Y-194492619D01*
X66865619Y-194445000D01*
X66770380Y-194397380D01*
X65056095Y-194397380D02*
X64960857Y-194397380D01*
X64865619Y-194445000D01*
X64818000Y-194492619D01*
X64770380Y-194587857D01*
X64722761Y-194778333D01*
X64722761Y-195016428D01*
X64770380Y-195206904D01*
X64818000Y-195302142D01*
X64865619Y-195349761D01*
X64960857Y-195397380D01*
X65056095Y-195397380D01*
X65151333Y-195349761D01*
X65198952Y-195302142D01*
X65246571Y-195206904D01*
X65294190Y-195016428D01*
X65294190Y-194778333D01*
X65246571Y-194587857D01*
X65198952Y-194492619D01*
X65151333Y-194445000D01*
X65056095Y-194397380D01*
X63865619Y-194730714D02*
X63865619Y-195397380D01*
X64103714Y-194349761D02*
X64341809Y-195064047D01*
X63722761Y-195064047D01*
X63341809Y-195016428D02*
X62579904Y-195016428D01*
X62151333Y-194492619D02*
X62103714Y-194445000D01*
X62008476Y-194397380D01*
X61770380Y-194397380D01*
X61675142Y-194445000D01*
X61627523Y-194492619D01*
X61579904Y-194587857D01*
X61579904Y-194683095D01*
X61627523Y-194825952D01*
X62198952Y-195397380D01*
X61579904Y-195397380D01*
X60960857Y-194397380D02*
X60865619Y-194397380D01*
X60770380Y-194445000D01*
X60722761Y-194492619D01*
X60675142Y-194587857D01*
X60627523Y-194778333D01*
X60627523Y-195016428D01*
X60675142Y-195206904D01*
X60722761Y-195302142D01*
X60770380Y-195349761D01*
X60865619Y-195397380D01*
X60960857Y-195397380D01*
X61056095Y-195349761D01*
X61103714Y-195302142D01*
X61151333Y-195206904D01*
X61198952Y-195016428D01*
X61198952Y-194778333D01*
X61151333Y-194587857D01*
X61103714Y-194492619D01*
X61056095Y-194445000D01*
X60960857Y-194397380D01*
X60246571Y-194492619D02*
X60198952Y-194445000D01*
X60103714Y-194397380D01*
X59865619Y-194397380D01*
X59770380Y-194445000D01*
X59722761Y-194492619D01*
X59675142Y-194587857D01*
X59675142Y-194683095D01*
X59722761Y-194825952D01*
X60294190Y-195397380D01*
X59675142Y-195397380D01*
X59341809Y-194397380D02*
X58722761Y-194397380D01*
X59056095Y-194778333D01*
X58913238Y-194778333D01*
X58818000Y-194825952D01*
X58770380Y-194873571D01*
X58722761Y-194968809D01*
X58722761Y-195206904D01*
X58770380Y-195302142D01*
X58818000Y-195349761D01*
X58913238Y-195397380D01*
X59198952Y-195397380D01*
X59294190Y-195349761D01*
X59341809Y-195302142D01*
%TO.C,D9*%
X36044095Y-169997380D02*
X36044095Y-168997380D01*
X35806000Y-168997380D01*
X35663142Y-169045000D01*
X35567904Y-169140238D01*
X35520285Y-169235476D01*
X35472666Y-169425952D01*
X35472666Y-169568809D01*
X35520285Y-169759285D01*
X35567904Y-169854523D01*
X35663142Y-169949761D01*
X35806000Y-169997380D01*
X36044095Y-169997380D01*
X34996476Y-169997380D02*
X34806000Y-169997380D01*
X34710761Y-169949761D01*
X34663142Y-169902142D01*
X34567904Y-169759285D01*
X34520285Y-169568809D01*
X34520285Y-169187857D01*
X34567904Y-169092619D01*
X34615523Y-169045000D01*
X34710761Y-168997380D01*
X34901238Y-168997380D01*
X34996476Y-169045000D01*
X35044095Y-169092619D01*
X35091714Y-169187857D01*
X35091714Y-169425952D01*
X35044095Y-169521190D01*
X34996476Y-169568809D01*
X34901238Y-169616428D01*
X34710761Y-169616428D01*
X34615523Y-169568809D01*
X34567904Y-169521190D01*
X34520285Y-169425952D01*
%TO.C,D1*%
X61116095Y-154471380D02*
X61116095Y-153471380D01*
X60878000Y-153471380D01*
X60735142Y-153519000D01*
X60639904Y-153614238D01*
X60592285Y-153709476D01*
X60544666Y-153899952D01*
X60544666Y-154042809D01*
X60592285Y-154233285D01*
X60639904Y-154328523D01*
X60735142Y-154423761D01*
X60878000Y-154471380D01*
X61116095Y-154471380D01*
X59592285Y-154471380D02*
X60163714Y-154471380D01*
X59878000Y-154471380D02*
X59878000Y-153471380D01*
X59973238Y-153614238D01*
X60068476Y-153709476D01*
X60163714Y-153757095D01*
%TO.C,U3*%
X37845904Y-158046380D02*
X37845904Y-158855904D01*
X37798285Y-158951142D01*
X37750666Y-158998761D01*
X37655428Y-159046380D01*
X37464952Y-159046380D01*
X37369714Y-158998761D01*
X37322095Y-158951142D01*
X37274476Y-158855904D01*
X37274476Y-158046380D01*
X36893523Y-158046380D02*
X36274476Y-158046380D01*
X36607809Y-158427333D01*
X36464952Y-158427333D01*
X36369714Y-158474952D01*
X36322095Y-158522571D01*
X36274476Y-158617809D01*
X36274476Y-158855904D01*
X36322095Y-158951142D01*
X36369714Y-158998761D01*
X36464952Y-159046380D01*
X36750666Y-159046380D01*
X36845904Y-158998761D01*
X36893523Y-158951142D01*
%TO.C,D10*%
X36901285Y-173807380D02*
X36901285Y-172807380D01*
X36663190Y-172807380D01*
X36520333Y-172855000D01*
X36425095Y-172950238D01*
X36377476Y-173045476D01*
X36329857Y-173235952D01*
X36329857Y-173378809D01*
X36377476Y-173569285D01*
X36425095Y-173664523D01*
X36520333Y-173759761D01*
X36663190Y-173807380D01*
X36901285Y-173807380D01*
X35377476Y-173807380D02*
X35948904Y-173807380D01*
X35663190Y-173807380D02*
X35663190Y-172807380D01*
X35758428Y-172950238D01*
X35853666Y-173045476D01*
X35948904Y-173093095D01*
X34758428Y-172807380D02*
X34663190Y-172807380D01*
X34567952Y-172855000D01*
X34520333Y-172902619D01*
X34472714Y-172997857D01*
X34425095Y-173188333D01*
X34425095Y-173426428D01*
X34472714Y-173616904D01*
X34520333Y-173712142D01*
X34567952Y-173759761D01*
X34663190Y-173807380D01*
X34758428Y-173807380D01*
X34853666Y-173759761D01*
X34901285Y-173712142D01*
X34948904Y-173616904D01*
X34996523Y-173426428D01*
X34996523Y-173188333D01*
X34948904Y-172997857D01*
X34901285Y-172902619D01*
X34853666Y-172855000D01*
X34758428Y-172807380D01*
%TO.C,C5*%
X45111666Y-161139142D02*
X45159285Y-161186761D01*
X45302142Y-161234380D01*
X45397380Y-161234380D01*
X45540238Y-161186761D01*
X45635476Y-161091523D01*
X45683095Y-160996285D01*
X45730714Y-160805809D01*
X45730714Y-160662952D01*
X45683095Y-160472476D01*
X45635476Y-160377238D01*
X45540238Y-160282000D01*
X45397380Y-160234380D01*
X45302142Y-160234380D01*
X45159285Y-160282000D01*
X45111666Y-160329619D01*
X44206904Y-160234380D02*
X44683095Y-160234380D01*
X44730714Y-160710571D01*
X44683095Y-160662952D01*
X44587857Y-160615333D01*
X44349761Y-160615333D01*
X44254523Y-160662952D01*
X44206904Y-160710571D01*
X44159285Y-160805809D01*
X44159285Y-161043904D01*
X44206904Y-161139142D01*
X44254523Y-161186761D01*
X44349761Y-161234380D01*
X44587857Y-161234380D01*
X44683095Y-161186761D01*
X44730714Y-161139142D01*
%TO.C,R16*%
X78366857Y-171742380D02*
X78700190Y-171266190D01*
X78938285Y-171742380D02*
X78938285Y-170742380D01*
X78557333Y-170742380D01*
X78462095Y-170790000D01*
X78414476Y-170837619D01*
X78366857Y-170932857D01*
X78366857Y-171075714D01*
X78414476Y-171170952D01*
X78462095Y-171218571D01*
X78557333Y-171266190D01*
X78938285Y-171266190D01*
X77414476Y-171742380D02*
X77985904Y-171742380D01*
X77700190Y-171742380D02*
X77700190Y-170742380D01*
X77795428Y-170885238D01*
X77890666Y-170980476D01*
X77985904Y-171028095D01*
X76557333Y-170742380D02*
X76747809Y-170742380D01*
X76843047Y-170790000D01*
X76890666Y-170837619D01*
X76985904Y-170980476D01*
X77033523Y-171170952D01*
X77033523Y-171551904D01*
X76985904Y-171647142D01*
X76938285Y-171694761D01*
X76843047Y-171742380D01*
X76652571Y-171742380D01*
X76557333Y-171694761D01*
X76509714Y-171647142D01*
X76462095Y-171551904D01*
X76462095Y-171313809D01*
X76509714Y-171218571D01*
X76557333Y-171170952D01*
X76652571Y-171123333D01*
X76843047Y-171123333D01*
X76938285Y-171170952D01*
X76985904Y-171218571D01*
X77033523Y-171313809D01*
%TO.C,C6*%
X63603142Y-161110333D02*
X63650761Y-161062714D01*
X63698380Y-160919857D01*
X63698380Y-160824619D01*
X63650761Y-160681761D01*
X63555523Y-160586523D01*
X63460285Y-160538904D01*
X63269809Y-160491285D01*
X63126952Y-160491285D01*
X62936476Y-160538904D01*
X62841238Y-160586523D01*
X62746000Y-160681761D01*
X62698380Y-160824619D01*
X62698380Y-160919857D01*
X62746000Y-161062714D01*
X62793619Y-161110333D01*
X62698380Y-161967476D02*
X62698380Y-161777000D01*
X62746000Y-161681761D01*
X62793619Y-161634142D01*
X62936476Y-161538904D01*
X63126952Y-161491285D01*
X63507904Y-161491285D01*
X63603142Y-161538904D01*
X63650761Y-161586523D01*
X63698380Y-161681761D01*
X63698380Y-161872238D01*
X63650761Y-161967476D01*
X63603142Y-162015095D01*
X63507904Y-162062714D01*
X63269809Y-162062714D01*
X63174571Y-162015095D01*
X63126952Y-161967476D01*
X63079333Y-161872238D01*
X63079333Y-161681761D01*
X63126952Y-161586523D01*
X63174571Y-161538904D01*
X63269809Y-161491285D01*
%TO.C,C10*%
X32773857Y-156186142D02*
X32821476Y-156233761D01*
X32964333Y-156281380D01*
X33059571Y-156281380D01*
X33202428Y-156233761D01*
X33297666Y-156138523D01*
X33345285Y-156043285D01*
X33392904Y-155852809D01*
X33392904Y-155709952D01*
X33345285Y-155519476D01*
X33297666Y-155424238D01*
X33202428Y-155329000D01*
X33059571Y-155281380D01*
X32964333Y-155281380D01*
X32821476Y-155329000D01*
X32773857Y-155376619D01*
X31821476Y-156281380D02*
X32392904Y-156281380D01*
X32107190Y-156281380D02*
X32107190Y-155281380D01*
X32202428Y-155424238D01*
X32297666Y-155519476D01*
X32392904Y-155567095D01*
X31202428Y-155281380D02*
X31107190Y-155281380D01*
X31011952Y-155329000D01*
X30964333Y-155376619D01*
X30916714Y-155471857D01*
X30869095Y-155662333D01*
X30869095Y-155900428D01*
X30916714Y-156090904D01*
X30964333Y-156186142D01*
X31011952Y-156233761D01*
X31107190Y-156281380D01*
X31202428Y-156281380D01*
X31297666Y-156233761D01*
X31345285Y-156186142D01*
X31392904Y-156090904D01*
X31440523Y-155900428D01*
X31440523Y-155662333D01*
X31392904Y-155471857D01*
X31345285Y-155376619D01*
X31297666Y-155329000D01*
X31202428Y-155281380D01*
%TO.C,D15*%
X31919285Y-189087380D02*
X31919285Y-188087380D01*
X31681190Y-188087380D01*
X31538333Y-188135000D01*
X31443095Y-188230238D01*
X31395476Y-188325476D01*
X31347857Y-188515952D01*
X31347857Y-188658809D01*
X31395476Y-188849285D01*
X31443095Y-188944523D01*
X31538333Y-189039761D01*
X31681190Y-189087380D01*
X31919285Y-189087380D01*
X30395476Y-189087380D02*
X30966904Y-189087380D01*
X30681190Y-189087380D02*
X30681190Y-188087380D01*
X30776428Y-188230238D01*
X30871666Y-188325476D01*
X30966904Y-188373095D01*
X29490714Y-188087380D02*
X29966904Y-188087380D01*
X30014523Y-188563571D01*
X29966904Y-188515952D01*
X29871666Y-188468333D01*
X29633571Y-188468333D01*
X29538333Y-188515952D01*
X29490714Y-188563571D01*
X29443095Y-188658809D01*
X29443095Y-188896904D01*
X29490714Y-188992142D01*
X29538333Y-189039761D01*
X29633571Y-189087380D01*
X29871666Y-189087380D01*
X29966904Y-189039761D01*
X30014523Y-188992142D01*
%TO.C,D13*%
X31948285Y-184007380D02*
X31948285Y-183007380D01*
X31710190Y-183007380D01*
X31567333Y-183055000D01*
X31472095Y-183150238D01*
X31424476Y-183245476D01*
X31376857Y-183435952D01*
X31376857Y-183578809D01*
X31424476Y-183769285D01*
X31472095Y-183864523D01*
X31567333Y-183959761D01*
X31710190Y-184007380D01*
X31948285Y-184007380D01*
X30424476Y-184007380D02*
X30995904Y-184007380D01*
X30710190Y-184007380D02*
X30710190Y-183007380D01*
X30805428Y-183150238D01*
X30900666Y-183245476D01*
X30995904Y-183293095D01*
X30091142Y-183007380D02*
X29472095Y-183007380D01*
X29805428Y-183388333D01*
X29662571Y-183388333D01*
X29567333Y-183435952D01*
X29519714Y-183483571D01*
X29472095Y-183578809D01*
X29472095Y-183816904D01*
X29519714Y-183912142D01*
X29567333Y-183959761D01*
X29662571Y-184007380D01*
X29948285Y-184007380D01*
X30043523Y-183959761D01*
X30091142Y-183912142D01*
%TO.C,R14*%
X58905380Y-175340542D02*
X58429190Y-175007209D01*
X58905380Y-174769114D02*
X57905380Y-174769114D01*
X57905380Y-175150066D01*
X57953000Y-175245304D01*
X58000619Y-175292923D01*
X58095857Y-175340542D01*
X58238714Y-175340542D01*
X58333952Y-175292923D01*
X58381571Y-175245304D01*
X58429190Y-175150066D01*
X58429190Y-174769114D01*
X58905380Y-176292923D02*
X58905380Y-175721495D01*
X58905380Y-176007209D02*
X57905380Y-176007209D01*
X58048238Y-175911971D01*
X58143476Y-175816733D01*
X58191095Y-175721495D01*
X58238714Y-177150066D02*
X58905380Y-177150066D01*
X57857761Y-176911971D02*
X58572047Y-176673876D01*
X58572047Y-177292923D01*
%TO.C,U2*%
X59368580Y-166598695D02*
X60178104Y-166598695D01*
X60273342Y-166646314D01*
X60320961Y-166693933D01*
X60368580Y-166789171D01*
X60368580Y-166979647D01*
X60320961Y-167074885D01*
X60273342Y-167122504D01*
X60178104Y-167170123D01*
X59368580Y-167170123D01*
X59463819Y-167598695D02*
X59416200Y-167646314D01*
X59368580Y-167741552D01*
X59368580Y-167979647D01*
X59416200Y-168074885D01*
X59463819Y-168122504D01*
X59559057Y-168170123D01*
X59654295Y-168170123D01*
X59797152Y-168122504D01*
X60368580Y-167551076D01*
X60368580Y-168170123D01*
%TO.C,D7*%
X35917095Y-166060380D02*
X35917095Y-165060380D01*
X35679000Y-165060380D01*
X35536142Y-165108000D01*
X35440904Y-165203238D01*
X35393285Y-165298476D01*
X35345666Y-165488952D01*
X35345666Y-165631809D01*
X35393285Y-165822285D01*
X35440904Y-165917523D01*
X35536142Y-166012761D01*
X35679000Y-166060380D01*
X35917095Y-166060380D01*
X35012333Y-165060380D02*
X34345666Y-165060380D01*
X34774238Y-166060380D01*
%TO.C,U5*%
X44410380Y-162179095D02*
X45219904Y-162179095D01*
X45315142Y-162226714D01*
X45362761Y-162274333D01*
X45410380Y-162369571D01*
X45410380Y-162560047D01*
X45362761Y-162655285D01*
X45315142Y-162702904D01*
X45219904Y-162750523D01*
X44410380Y-162750523D01*
X44410380Y-163702904D02*
X44410380Y-163226714D01*
X44886571Y-163179095D01*
X44838952Y-163226714D01*
X44791333Y-163321952D01*
X44791333Y-163560047D01*
X44838952Y-163655285D01*
X44886571Y-163702904D01*
X44981809Y-163750523D01*
X45219904Y-163750523D01*
X45315142Y-163702904D01*
X45362761Y-163655285D01*
X45410380Y-163560047D01*
X45410380Y-163321952D01*
X45362761Y-163226714D01*
X45315142Y-163179095D01*
%TO.C,U6*%
X48767904Y-153757380D02*
X48767904Y-154566904D01*
X48720285Y-154662142D01*
X48672666Y-154709761D01*
X48577428Y-154757380D01*
X48386952Y-154757380D01*
X48291714Y-154709761D01*
X48244095Y-154662142D01*
X48196476Y-154566904D01*
X48196476Y-153757380D01*
X47291714Y-153757380D02*
X47482190Y-153757380D01*
X47577428Y-153805000D01*
X47625047Y-153852619D01*
X47720285Y-153995476D01*
X47767904Y-154185952D01*
X47767904Y-154566904D01*
X47720285Y-154662142D01*
X47672666Y-154709761D01*
X47577428Y-154757380D01*
X47386952Y-154757380D01*
X47291714Y-154709761D01*
X47244095Y-154662142D01*
X47196476Y-154566904D01*
X47196476Y-154328809D01*
X47244095Y-154233571D01*
X47291714Y-154185952D01*
X47386952Y-154138333D01*
X47577428Y-154138333D01*
X47672666Y-154185952D01*
X47720285Y-154233571D01*
X47767904Y-154328809D01*
%TO.C,C11*%
X38107857Y-151487142D02*
X38155476Y-151534761D01*
X38298333Y-151582380D01*
X38393571Y-151582380D01*
X38536428Y-151534761D01*
X38631666Y-151439523D01*
X38679285Y-151344285D01*
X38726904Y-151153809D01*
X38726904Y-151010952D01*
X38679285Y-150820476D01*
X38631666Y-150725238D01*
X38536428Y-150630000D01*
X38393571Y-150582380D01*
X38298333Y-150582380D01*
X38155476Y-150630000D01*
X38107857Y-150677619D01*
X37155476Y-151582380D02*
X37726904Y-151582380D01*
X37441190Y-151582380D02*
X37441190Y-150582380D01*
X37536428Y-150725238D01*
X37631666Y-150820476D01*
X37726904Y-150868095D01*
X36203095Y-151582380D02*
X36774523Y-151582380D01*
X36488809Y-151582380D02*
X36488809Y-150582380D01*
X36584047Y-150725238D01*
X36679285Y-150820476D01*
X36774523Y-150868095D01*
%TO.C,D3*%
X31258095Y-177149380D02*
X31258095Y-176149380D01*
X31020000Y-176149380D01*
X30877142Y-176197000D01*
X30781904Y-176292238D01*
X30734285Y-176387476D01*
X30686666Y-176577952D01*
X30686666Y-176720809D01*
X30734285Y-176911285D01*
X30781904Y-177006523D01*
X30877142Y-177101761D01*
X31020000Y-177149380D01*
X31258095Y-177149380D01*
X30353333Y-176149380D02*
X29734285Y-176149380D01*
X30067619Y-176530333D01*
X29924761Y-176530333D01*
X29829523Y-176577952D01*
X29781904Y-176625571D01*
X29734285Y-176720809D01*
X29734285Y-176958904D01*
X29781904Y-177054142D01*
X29829523Y-177101761D01*
X29924761Y-177149380D01*
X30210476Y-177149380D01*
X30305714Y-177101761D01*
X30353333Y-177054142D01*
%TO.C,Q7*%
X28289238Y-180773619D02*
X28384476Y-180726000D01*
X28479714Y-180630761D01*
X28622571Y-180487904D01*
X28717809Y-180440285D01*
X28813047Y-180440285D01*
X28765428Y-180678380D02*
X28860666Y-180630761D01*
X28955904Y-180535523D01*
X29003523Y-180345047D01*
X29003523Y-180011714D01*
X28955904Y-179821238D01*
X28860666Y-179726000D01*
X28765428Y-179678380D01*
X28574952Y-179678380D01*
X28479714Y-179726000D01*
X28384476Y-179821238D01*
X28336857Y-180011714D01*
X28336857Y-180345047D01*
X28384476Y-180535523D01*
X28479714Y-180630761D01*
X28574952Y-180678380D01*
X28765428Y-180678380D01*
X28003523Y-179678380D02*
X27336857Y-179678380D01*
X27765428Y-180678380D01*
D11*
%TO.C,D9*%
X33880000Y-171195000D02*
X28480000Y-171195000D01*
X33880000Y-167895000D02*
X28480000Y-167895000D01*
X33880000Y-167895000D02*
X33880000Y-171195000D01*
%TO.C,D1*%
X58098000Y-153029000D02*
X58098000Y-151009000D01*
X58098000Y-153029000D02*
X61778000Y-153029000D01*
X58098000Y-151009000D02*
X61778000Y-151009000D01*
%TO.C,U3*%
X37084000Y-157754000D02*
X33634000Y-157754000D01*
X37084000Y-152634000D02*
X35134000Y-152634000D01*
X37084000Y-157754000D02*
X39034000Y-157754000D01*
X37084000Y-152634000D02*
X39034000Y-152634000D01*
%TO.C,D10*%
X33920000Y-171705000D02*
X33920000Y-175005000D01*
X33920000Y-175005000D02*
X28520000Y-175005000D01*
X33920000Y-171705000D02*
X28520000Y-171705000D01*
%TO.C,C5*%
X45085580Y-159002000D02*
X44804420Y-159002000D01*
X45085580Y-160022000D02*
X44804420Y-160022000D01*
%TO.C,R16*%
X77961258Y-172197500D02*
X77486742Y-172197500D01*
X77961258Y-173242500D02*
X77486742Y-173242500D01*
%TO.C,C6*%
X61212000Y-161938580D02*
X61212000Y-161657420D01*
X62232000Y-161938580D02*
X62232000Y-161657420D01*
%TO.C,C10*%
X32271580Y-155196000D02*
X31990420Y-155196000D01*
X32271580Y-154176000D02*
X31990420Y-154176000D01*
%TO.C,D15*%
X34105000Y-189485000D02*
X34105000Y-192785000D01*
X34105000Y-192785000D02*
X28705000Y-192785000D01*
X34105000Y-189485000D02*
X28705000Y-189485000D01*
%TO.C,D13*%
X34134000Y-187705000D02*
X28734000Y-187705000D01*
X34134000Y-184405000D02*
X28734000Y-184405000D01*
X34134000Y-184405000D02*
X34134000Y-187705000D01*
%TO.C,R14*%
X56500500Y-176220658D02*
X56500500Y-175746142D01*
X57545500Y-176220658D02*
X57545500Y-175746142D01*
%TO.C,U2*%
X61116200Y-164960600D02*
X61116200Y-163560600D01*
X60716200Y-164960600D02*
X60716200Y-169760600D01*
X71516200Y-164960600D02*
X71516200Y-169760600D01*
X60716200Y-164960600D02*
X61116200Y-164960600D01*
%TO.C,D7*%
X33880000Y-164085000D02*
X33880000Y-167385000D01*
X33880000Y-167385000D02*
X28480000Y-167385000D01*
X33880000Y-164085000D02*
X28480000Y-164085000D01*
%TO.C,U5*%
X46009600Y-160287000D02*
X46409600Y-160287000D01*
X46409600Y-160287000D02*
X46409600Y-158887000D01*
X46009600Y-160287000D02*
X46009600Y-165087000D01*
X56809600Y-160287000D02*
X56809600Y-165087000D01*
%TO.C,U6*%
X49494000Y-157588000D02*
X55504000Y-157588000D01*
X55504000Y-157588000D02*
X55504000Y-156328000D01*
X55504000Y-150768000D02*
X55504000Y-152028000D01*
X51744000Y-150768000D02*
X55504000Y-150768000D01*
%TO.C,C11*%
X34544580Y-151509000D02*
X34263420Y-151509000D01*
X34544580Y-152529000D02*
X34263420Y-152529000D01*
%TO.C,D3*%
X33920000Y-177547000D02*
X28520000Y-177547000D01*
X33920000Y-180847000D02*
X28520000Y-180847000D01*
X33920000Y-177547000D02*
X33920000Y-180847000D01*
%TO.C,Q7*%
X28194000Y-184186000D02*
X27544000Y-184186000D01*
X28194000Y-184186000D02*
X28844000Y-184186000D01*
X28194000Y-181066000D02*
X29869000Y-181066000D01*
X28194000Y-181066000D02*
X27544000Y-181066000D01*
%TD*%
M02*
