%TF.GenerationSoftware,KiCad,Pcbnew,(6.0.9)*%
%TF.CreationDate,2023-04-19T21:58:53+02:00*%
%TF.ProjectId,jf-ecu32,6a662d65-6375-4333-922e-6b696361645f,rev?*%
%TF.SameCoordinates,Original*%
%TF.FileFunction,AssemblyDrawing,Bot*%
%FSLAX46Y46*%
G04 Gerber Fmt 4.6, Leading zero omitted, Abs format (unit mm)*
G04 Created by KiCad (PCBNEW (6.0.9)) date 2023-04-19 21:58:53*
%MOMM*%
%LPD*%
G01*
G04 APERTURE LIST*
%ADD10C,0.150000*%
%ADD11C,0.060000*%
%ADD12C,0.120000*%
%ADD13C,0.050000*%
%ADD14C,0.100000*%
G04 APERTURE END LIST*
D10*
%TO.C,D9*%
X34289523Y-172597380D02*
X34289523Y-171597380D01*
X34051428Y-171597380D01*
X33908571Y-171645000D01*
X33813333Y-171740238D01*
X33765714Y-171835476D01*
X33718095Y-172025952D01*
X33718095Y-172168809D01*
X33765714Y-172359285D01*
X33813333Y-172454523D01*
X33908571Y-172549761D01*
X34051428Y-172597380D01*
X34289523Y-172597380D01*
X33527619Y-172692619D02*
X32765714Y-172692619D01*
X32575238Y-172549761D02*
X32432380Y-172597380D01*
X32194285Y-172597380D01*
X32099047Y-172549761D01*
X32051428Y-172502142D01*
X32003809Y-172406904D01*
X32003809Y-172311666D01*
X32051428Y-172216428D01*
X32099047Y-172168809D01*
X32194285Y-172121190D01*
X32384761Y-172073571D01*
X32480000Y-172025952D01*
X32527619Y-171978333D01*
X32575238Y-171883095D01*
X32575238Y-171787857D01*
X32527619Y-171692619D01*
X32480000Y-171645000D01*
X32384761Y-171597380D01*
X32146666Y-171597380D01*
X32003809Y-171645000D01*
X31146666Y-172549761D02*
X31241904Y-172597380D01*
X31432380Y-172597380D01*
X31527619Y-172549761D01*
X31575238Y-172502142D01*
X31622857Y-172406904D01*
X31622857Y-172121190D01*
X31575238Y-172025952D01*
X31527619Y-171978333D01*
X31432380Y-171930714D01*
X31241904Y-171930714D01*
X31146666Y-171978333D01*
X30718095Y-172597380D02*
X30718095Y-171597380D01*
X30289523Y-172597380D02*
X30289523Y-172073571D01*
X30337142Y-171978333D01*
X30432380Y-171930714D01*
X30575238Y-171930714D01*
X30670476Y-171978333D01*
X30718095Y-172025952D01*
X29670476Y-172597380D02*
X29765714Y-172549761D01*
X29813333Y-172502142D01*
X29860952Y-172406904D01*
X29860952Y-172121190D01*
X29813333Y-172025952D01*
X29765714Y-171978333D01*
X29670476Y-171930714D01*
X29527619Y-171930714D01*
X29432380Y-171978333D01*
X29384761Y-172025952D01*
X29337142Y-172121190D01*
X29337142Y-172406904D01*
X29384761Y-172502142D01*
X29432380Y-172549761D01*
X29527619Y-172597380D01*
X29670476Y-172597380D01*
X29051428Y-171930714D02*
X28670476Y-171930714D01*
X28908571Y-171597380D02*
X28908571Y-172454523D01*
X28860952Y-172549761D01*
X28765714Y-172597380D01*
X28670476Y-172597380D01*
X28480000Y-171930714D02*
X28099047Y-171930714D01*
X28337142Y-171597380D02*
X28337142Y-172454523D01*
X28289523Y-172549761D01*
X28194285Y-172597380D01*
X28099047Y-172597380D01*
X27765714Y-172597380D02*
X27765714Y-171597380D01*
X27670476Y-172216428D02*
X27384761Y-172597380D01*
X27384761Y-171930714D02*
X27765714Y-172311666D01*
X27051428Y-171930714D02*
X26813333Y-172597380D01*
X26575238Y-171930714D02*
X26813333Y-172597380D01*
X26908571Y-172835476D01*
X26956190Y-172883095D01*
X27051428Y-172930714D01*
X31218095Y-167497380D02*
X31218095Y-166497380D01*
X30980000Y-166497380D01*
X30837142Y-166545000D01*
X30741904Y-166640238D01*
X30694285Y-166735476D01*
X30646666Y-166925952D01*
X30646666Y-167068809D01*
X30694285Y-167259285D01*
X30741904Y-167354523D01*
X30837142Y-167449761D01*
X30980000Y-167497380D01*
X31218095Y-167497380D01*
X30170476Y-167497380D02*
X29980000Y-167497380D01*
X29884761Y-167449761D01*
X29837142Y-167402142D01*
X29741904Y-167259285D01*
X29694285Y-167068809D01*
X29694285Y-166687857D01*
X29741904Y-166592619D01*
X29789523Y-166545000D01*
X29884761Y-166497380D01*
X30075238Y-166497380D01*
X30170476Y-166545000D01*
X30218095Y-166592619D01*
X30265714Y-166687857D01*
X30265714Y-166925952D01*
X30218095Y-167021190D01*
X30170476Y-167068809D01*
X30075238Y-167116428D01*
X29884761Y-167116428D01*
X29789523Y-167068809D01*
X29741904Y-167021190D01*
X29694285Y-166925952D01*
%TO.C,D1*%
X63473238Y-150423761D02*
X63330380Y-150471380D01*
X63092285Y-150471380D01*
X62997047Y-150423761D01*
X62949428Y-150376142D01*
X62901809Y-150280904D01*
X62901809Y-150185666D01*
X62949428Y-150090428D01*
X62997047Y-150042809D01*
X63092285Y-149995190D01*
X63282761Y-149947571D01*
X63378000Y-149899952D01*
X63425619Y-149852333D01*
X63473238Y-149757095D01*
X63473238Y-149661857D01*
X63425619Y-149566619D01*
X63378000Y-149519000D01*
X63282761Y-149471380D01*
X63044666Y-149471380D01*
X62901809Y-149519000D01*
X62473238Y-150471380D02*
X62473238Y-149471380D01*
X62139904Y-150185666D01*
X61806571Y-149471380D01*
X61806571Y-150471380D01*
X60997047Y-149947571D02*
X61330380Y-149947571D01*
X61330380Y-150471380D02*
X61330380Y-149471380D01*
X60854190Y-149471380D01*
X59997047Y-149471380D02*
X60473238Y-149471380D01*
X60520857Y-149947571D01*
X60473238Y-149899952D01*
X60378000Y-149852333D01*
X60139904Y-149852333D01*
X60044666Y-149899952D01*
X59997047Y-149947571D01*
X59949428Y-150042809D01*
X59949428Y-150280904D01*
X59997047Y-150376142D01*
X60044666Y-150423761D01*
X60139904Y-150471380D01*
X60378000Y-150471380D01*
X60473238Y-150423761D01*
X60520857Y-150376142D01*
X59663714Y-149471380D02*
X59330380Y-150471380D01*
X58997047Y-149471380D01*
X58473238Y-149471380D02*
X58378000Y-149471380D01*
X58282761Y-149519000D01*
X58235142Y-149566619D01*
X58187523Y-149661857D01*
X58139904Y-149852333D01*
X58139904Y-150090428D01*
X58187523Y-150280904D01*
X58235142Y-150376142D01*
X58282761Y-150423761D01*
X58378000Y-150471380D01*
X58473238Y-150471380D01*
X58568476Y-150423761D01*
X58616095Y-150376142D01*
X58663714Y-150280904D01*
X58711333Y-150090428D01*
X58711333Y-149852333D01*
X58663714Y-149661857D01*
X58616095Y-149566619D01*
X58568476Y-149519000D01*
X58473238Y-149471380D01*
X57758952Y-150185666D02*
X57282761Y-150185666D01*
X57854190Y-150471380D02*
X57520857Y-149471380D01*
X57187523Y-150471380D01*
X61116095Y-154471380D02*
X61116095Y-153471380D01*
X60878000Y-153471380D01*
X60735142Y-153519000D01*
X60639904Y-153614238D01*
X60592285Y-153709476D01*
X60544666Y-153899952D01*
X60544666Y-154042809D01*
X60592285Y-154233285D01*
X60639904Y-154328523D01*
X60735142Y-154423761D01*
X60878000Y-154471380D01*
X61116095Y-154471380D01*
X59592285Y-154471380D02*
X60163714Y-154471380D01*
X59878000Y-154471380D02*
X59878000Y-153471380D01*
X59973238Y-153614238D01*
X60068476Y-153709476D01*
X60163714Y-153757095D01*
%TO.C,U3*%
X42536380Y-152246380D02*
X42536380Y-151246380D01*
X42203047Y-151960666D01*
X41869714Y-151246380D01*
X41869714Y-152246380D01*
X41441142Y-151960666D02*
X40964952Y-151960666D01*
X41536380Y-152246380D02*
X41203047Y-151246380D01*
X40869714Y-152246380D01*
X40631619Y-151246380D02*
X39964952Y-152246380D01*
X39964952Y-151246380D02*
X40631619Y-152246380D01*
X39679238Y-151246380D02*
X39060190Y-151246380D01*
X39393523Y-151627333D01*
X39250666Y-151627333D01*
X39155428Y-151674952D01*
X39107809Y-151722571D01*
X39060190Y-151817809D01*
X39060190Y-152055904D01*
X39107809Y-152151142D01*
X39155428Y-152198761D01*
X39250666Y-152246380D01*
X39536380Y-152246380D01*
X39631619Y-152198761D01*
X39679238Y-152151142D01*
X38107809Y-152246380D02*
X38679238Y-152246380D01*
X38393523Y-152246380D02*
X38393523Y-151246380D01*
X38488761Y-151389238D01*
X38584000Y-151484476D01*
X38679238Y-151532095D01*
X37536380Y-151674952D02*
X37631619Y-151627333D01*
X37679238Y-151579714D01*
X37726857Y-151484476D01*
X37726857Y-151436857D01*
X37679238Y-151341619D01*
X37631619Y-151294000D01*
X37536380Y-151246380D01*
X37345904Y-151246380D01*
X37250666Y-151294000D01*
X37203047Y-151341619D01*
X37155428Y-151436857D01*
X37155428Y-151484476D01*
X37203047Y-151579714D01*
X37250666Y-151627333D01*
X37345904Y-151674952D01*
X37536380Y-151674952D01*
X37631619Y-151722571D01*
X37679238Y-151770190D01*
X37726857Y-151865428D01*
X37726857Y-152055904D01*
X37679238Y-152151142D01*
X37631619Y-152198761D01*
X37536380Y-152246380D01*
X37345904Y-152246380D01*
X37250666Y-152198761D01*
X37203047Y-152151142D01*
X37155428Y-152055904D01*
X37155428Y-151865428D01*
X37203047Y-151770190D01*
X37250666Y-151722571D01*
X37345904Y-151674952D01*
X36250666Y-151246380D02*
X36726857Y-151246380D01*
X36774476Y-151722571D01*
X36726857Y-151674952D01*
X36631619Y-151627333D01*
X36393523Y-151627333D01*
X36298285Y-151674952D01*
X36250666Y-151722571D01*
X36203047Y-151817809D01*
X36203047Y-152055904D01*
X36250666Y-152151142D01*
X36298285Y-152198761D01*
X36393523Y-152246380D01*
X36631619Y-152246380D01*
X36726857Y-152198761D01*
X36774476Y-152151142D01*
X35298285Y-151246380D02*
X35774476Y-151246380D01*
X35822095Y-151722571D01*
X35774476Y-151674952D01*
X35679238Y-151627333D01*
X35441142Y-151627333D01*
X35345904Y-151674952D01*
X35298285Y-151722571D01*
X35250666Y-151817809D01*
X35250666Y-152055904D01*
X35298285Y-152151142D01*
X35345904Y-152198761D01*
X35441142Y-152246380D01*
X35679238Y-152246380D01*
X35774476Y-152198761D01*
X35822095Y-152151142D01*
X34822095Y-152246380D02*
X34822095Y-151246380D01*
X34250666Y-152246380D02*
X34679238Y-151674952D01*
X34250666Y-151246380D02*
X34822095Y-151817809D01*
X33869714Y-151960666D02*
X33393523Y-151960666D01*
X33964952Y-152246380D02*
X33631619Y-151246380D01*
X33298285Y-152246380D01*
X33012571Y-152198761D02*
X32869714Y-152246380D01*
X32631619Y-152246380D01*
X32536380Y-152198761D01*
X32488761Y-152151142D01*
X32441142Y-152055904D01*
X32441142Y-151960666D01*
X32488761Y-151865428D01*
X32536380Y-151817809D01*
X32631619Y-151770190D01*
X32822095Y-151722571D01*
X32917333Y-151674952D01*
X32964952Y-151627333D01*
X33012571Y-151532095D01*
X33012571Y-151436857D01*
X32964952Y-151341619D01*
X32917333Y-151294000D01*
X32822095Y-151246380D01*
X32584000Y-151246380D01*
X32441142Y-151294000D01*
X32060190Y-151960666D02*
X31584000Y-151960666D01*
X32155428Y-152246380D02*
X31822095Y-151246380D01*
X31488761Y-152246380D01*
X36547333Y-154447333D02*
X37340666Y-154447333D01*
X37434000Y-154494000D01*
X37480666Y-154540666D01*
X37527333Y-154634000D01*
X37527333Y-154820666D01*
X37480666Y-154914000D01*
X37434000Y-154960666D01*
X37340666Y-155007333D01*
X36547333Y-155007333D01*
X36547333Y-155380666D02*
X36547333Y-155987333D01*
X36920666Y-155660666D01*
X36920666Y-155800666D01*
X36967333Y-155894000D01*
X37014000Y-155940666D01*
X37107333Y-155987333D01*
X37340666Y-155987333D01*
X37434000Y-155940666D01*
X37480666Y-155894000D01*
X37527333Y-155800666D01*
X37527333Y-155520666D01*
X37480666Y-155427333D01*
X37434000Y-155380666D01*
%TO.C,D10*%
X34329523Y-176407380D02*
X34329523Y-175407380D01*
X34091428Y-175407380D01*
X33948571Y-175455000D01*
X33853333Y-175550238D01*
X33805714Y-175645476D01*
X33758095Y-175835952D01*
X33758095Y-175978809D01*
X33805714Y-176169285D01*
X33853333Y-176264523D01*
X33948571Y-176359761D01*
X34091428Y-176407380D01*
X34329523Y-176407380D01*
X33567619Y-176502619D02*
X32805714Y-176502619D01*
X32615238Y-176359761D02*
X32472380Y-176407380D01*
X32234285Y-176407380D01*
X32139047Y-176359761D01*
X32091428Y-176312142D01*
X32043809Y-176216904D01*
X32043809Y-176121666D01*
X32091428Y-176026428D01*
X32139047Y-175978809D01*
X32234285Y-175931190D01*
X32424761Y-175883571D01*
X32520000Y-175835952D01*
X32567619Y-175788333D01*
X32615238Y-175693095D01*
X32615238Y-175597857D01*
X32567619Y-175502619D01*
X32520000Y-175455000D01*
X32424761Y-175407380D01*
X32186666Y-175407380D01*
X32043809Y-175455000D01*
X31186666Y-176359761D02*
X31281904Y-176407380D01*
X31472380Y-176407380D01*
X31567619Y-176359761D01*
X31615238Y-176312142D01*
X31662857Y-176216904D01*
X31662857Y-175931190D01*
X31615238Y-175835952D01*
X31567619Y-175788333D01*
X31472380Y-175740714D01*
X31281904Y-175740714D01*
X31186666Y-175788333D01*
X30758095Y-176407380D02*
X30758095Y-175407380D01*
X30329523Y-176407380D02*
X30329523Y-175883571D01*
X30377142Y-175788333D01*
X30472380Y-175740714D01*
X30615238Y-175740714D01*
X30710476Y-175788333D01*
X30758095Y-175835952D01*
X29710476Y-176407380D02*
X29805714Y-176359761D01*
X29853333Y-176312142D01*
X29900952Y-176216904D01*
X29900952Y-175931190D01*
X29853333Y-175835952D01*
X29805714Y-175788333D01*
X29710476Y-175740714D01*
X29567619Y-175740714D01*
X29472380Y-175788333D01*
X29424761Y-175835952D01*
X29377142Y-175931190D01*
X29377142Y-176216904D01*
X29424761Y-176312142D01*
X29472380Y-176359761D01*
X29567619Y-176407380D01*
X29710476Y-176407380D01*
X29091428Y-175740714D02*
X28710476Y-175740714D01*
X28948571Y-175407380D02*
X28948571Y-176264523D01*
X28900952Y-176359761D01*
X28805714Y-176407380D01*
X28710476Y-176407380D01*
X28520000Y-175740714D02*
X28139047Y-175740714D01*
X28377142Y-175407380D02*
X28377142Y-176264523D01*
X28329523Y-176359761D01*
X28234285Y-176407380D01*
X28139047Y-176407380D01*
X27805714Y-176407380D02*
X27805714Y-175407380D01*
X27710476Y-176026428D02*
X27424761Y-176407380D01*
X27424761Y-175740714D02*
X27805714Y-176121666D01*
X27091428Y-175740714D02*
X26853333Y-176407380D01*
X26615238Y-175740714D02*
X26853333Y-176407380D01*
X26948571Y-176645476D01*
X26996190Y-176693095D01*
X27091428Y-176740714D01*
X31734285Y-171307380D02*
X31734285Y-170307380D01*
X31496190Y-170307380D01*
X31353333Y-170355000D01*
X31258095Y-170450238D01*
X31210476Y-170545476D01*
X31162857Y-170735952D01*
X31162857Y-170878809D01*
X31210476Y-171069285D01*
X31258095Y-171164523D01*
X31353333Y-171259761D01*
X31496190Y-171307380D01*
X31734285Y-171307380D01*
X30210476Y-171307380D02*
X30781904Y-171307380D01*
X30496190Y-171307380D02*
X30496190Y-170307380D01*
X30591428Y-170450238D01*
X30686666Y-170545476D01*
X30781904Y-170593095D01*
X29591428Y-170307380D02*
X29496190Y-170307380D01*
X29400952Y-170355000D01*
X29353333Y-170402619D01*
X29305714Y-170497857D01*
X29258095Y-170688333D01*
X29258095Y-170926428D01*
X29305714Y-171116904D01*
X29353333Y-171212142D01*
X29400952Y-171259761D01*
X29496190Y-171307380D01*
X29591428Y-171307380D01*
X29686666Y-171259761D01*
X29734285Y-171212142D01*
X29781904Y-171116904D01*
X29829523Y-170926428D01*
X29829523Y-170688333D01*
X29781904Y-170497857D01*
X29734285Y-170402619D01*
X29686666Y-170355000D01*
X29591428Y-170307380D01*
%TO.C,C5*%
X46659285Y-160394380D02*
X46564047Y-160394380D01*
X46468809Y-160442000D01*
X46421190Y-160489619D01*
X46373571Y-160584857D01*
X46325952Y-160775333D01*
X46325952Y-161013428D01*
X46373571Y-161203904D01*
X46421190Y-161299142D01*
X46468809Y-161346761D01*
X46564047Y-161394380D01*
X46659285Y-161394380D01*
X46754523Y-161346761D01*
X46802142Y-161299142D01*
X46849761Y-161203904D01*
X46897380Y-161013428D01*
X46897380Y-160775333D01*
X46849761Y-160584857D01*
X46802142Y-160489619D01*
X46754523Y-160442000D01*
X46659285Y-160394380D01*
X45897380Y-161299142D02*
X45849761Y-161346761D01*
X45897380Y-161394380D01*
X45945000Y-161346761D01*
X45897380Y-161299142D01*
X45897380Y-161394380D01*
X44897380Y-161394380D02*
X45468809Y-161394380D01*
X45183095Y-161394380D02*
X45183095Y-160394380D01*
X45278333Y-160537238D01*
X45373571Y-160632476D01*
X45468809Y-160680095D01*
X44468809Y-160727714D02*
X44468809Y-161727714D01*
X43992619Y-161251523D02*
X43945000Y-161346761D01*
X43849761Y-161394380D01*
X44468809Y-161251523D02*
X44421190Y-161346761D01*
X44325952Y-161394380D01*
X44135476Y-161394380D01*
X44040238Y-161346761D01*
X43992619Y-161251523D01*
X43992619Y-160727714D01*
X43087857Y-160870571D02*
X43421190Y-160870571D01*
X43421190Y-161394380D02*
X43421190Y-160394380D01*
X42945000Y-160394380D01*
D11*
X45011666Y-159654857D02*
X45030714Y-159673904D01*
X45087857Y-159692952D01*
X45125952Y-159692952D01*
X45183095Y-159673904D01*
X45221190Y-159635809D01*
X45240238Y-159597714D01*
X45259285Y-159521523D01*
X45259285Y-159464380D01*
X45240238Y-159388190D01*
X45221190Y-159350095D01*
X45183095Y-159312000D01*
X45125952Y-159292952D01*
X45087857Y-159292952D01*
X45030714Y-159312000D01*
X45011666Y-159331047D01*
X44649761Y-159292952D02*
X44840238Y-159292952D01*
X44859285Y-159483428D01*
X44840238Y-159464380D01*
X44802142Y-159445333D01*
X44706904Y-159445333D01*
X44668809Y-159464380D01*
X44649761Y-159483428D01*
X44630714Y-159521523D01*
X44630714Y-159616761D01*
X44649761Y-159654857D01*
X44668809Y-159673904D01*
X44706904Y-159692952D01*
X44802142Y-159692952D01*
X44840238Y-159673904D01*
X44859285Y-159654857D01*
D10*
%TO.C,R16*%
X78414476Y-174602380D02*
X78985904Y-174602380D01*
X78700190Y-174602380D02*
X78700190Y-173602380D01*
X78795428Y-173745238D01*
X78890666Y-173840476D01*
X78985904Y-173888095D01*
X77795428Y-173602380D02*
X77700190Y-173602380D01*
X77604952Y-173650000D01*
X77557333Y-173697619D01*
X77509714Y-173792857D01*
X77462095Y-173983333D01*
X77462095Y-174221428D01*
X77509714Y-174411904D01*
X77557333Y-174507142D01*
X77604952Y-174554761D01*
X77700190Y-174602380D01*
X77795428Y-174602380D01*
X77890666Y-174554761D01*
X77938285Y-174507142D01*
X77985904Y-174411904D01*
X78033523Y-174221428D01*
X78033523Y-173983333D01*
X77985904Y-173792857D01*
X77938285Y-173697619D01*
X77890666Y-173650000D01*
X77795428Y-173602380D01*
X77033523Y-174602380D02*
X77033523Y-173602380D01*
X76462095Y-174602380D02*
X76890666Y-174030952D01*
X76462095Y-173602380D02*
X77033523Y-174173809D01*
D11*
X77981142Y-172900952D02*
X78114476Y-172710476D01*
X78209714Y-172900952D02*
X78209714Y-172500952D01*
X78057333Y-172500952D01*
X78019238Y-172520000D01*
X78000190Y-172539047D01*
X77981142Y-172577142D01*
X77981142Y-172634285D01*
X78000190Y-172672380D01*
X78019238Y-172691428D01*
X78057333Y-172710476D01*
X78209714Y-172710476D01*
X77600190Y-172900952D02*
X77828761Y-172900952D01*
X77714476Y-172900952D02*
X77714476Y-172500952D01*
X77752571Y-172558095D01*
X77790666Y-172596190D01*
X77828761Y-172615238D01*
X77257333Y-172500952D02*
X77333523Y-172500952D01*
X77371619Y-172520000D01*
X77390666Y-172539047D01*
X77428761Y-172596190D01*
X77447809Y-172672380D01*
X77447809Y-172824761D01*
X77428761Y-172862857D01*
X77409714Y-172881904D01*
X77371619Y-172900952D01*
X77295428Y-172900952D01*
X77257333Y-172881904D01*
X77238285Y-172862857D01*
X77219238Y-172824761D01*
X77219238Y-172729523D01*
X77238285Y-172691428D01*
X77257333Y-172672380D01*
X77295428Y-172653333D01*
X77371619Y-172653333D01*
X77409714Y-172672380D01*
X77428761Y-172691428D01*
X77447809Y-172729523D01*
D10*
%TO.C,C6*%
X59744380Y-160083714D02*
X59744380Y-160178952D01*
X59792000Y-160274190D01*
X59839619Y-160321809D01*
X59934857Y-160369428D01*
X60125333Y-160417047D01*
X60363428Y-160417047D01*
X60553904Y-160369428D01*
X60649142Y-160321809D01*
X60696761Y-160274190D01*
X60744380Y-160178952D01*
X60744380Y-160083714D01*
X60696761Y-159988476D01*
X60649142Y-159940857D01*
X60553904Y-159893238D01*
X60363428Y-159845619D01*
X60125333Y-159845619D01*
X59934857Y-159893238D01*
X59839619Y-159940857D01*
X59792000Y-159988476D01*
X59744380Y-160083714D01*
X60649142Y-160845619D02*
X60696761Y-160893238D01*
X60744380Y-160845619D01*
X60696761Y-160798000D01*
X60649142Y-160845619D01*
X60744380Y-160845619D01*
X60744380Y-161845619D02*
X60744380Y-161274190D01*
X60744380Y-161559904D02*
X59744380Y-161559904D01*
X59887238Y-161464666D01*
X59982476Y-161369428D01*
X60030095Y-161274190D01*
X60077714Y-162274190D02*
X61077714Y-162274190D01*
X60601523Y-162750380D02*
X60696761Y-162798000D01*
X60744380Y-162893238D01*
X60601523Y-162274190D02*
X60696761Y-162321809D01*
X60744380Y-162417047D01*
X60744380Y-162607523D01*
X60696761Y-162702761D01*
X60601523Y-162750380D01*
X60077714Y-162750380D01*
X60220571Y-163655142D02*
X60220571Y-163321809D01*
X60744380Y-163321809D02*
X59744380Y-163321809D01*
X59744380Y-163798000D01*
D11*
X61864857Y-161731333D02*
X61883904Y-161712285D01*
X61902952Y-161655142D01*
X61902952Y-161617047D01*
X61883904Y-161559904D01*
X61845809Y-161521809D01*
X61807714Y-161502761D01*
X61731523Y-161483714D01*
X61674380Y-161483714D01*
X61598190Y-161502761D01*
X61560095Y-161521809D01*
X61522000Y-161559904D01*
X61502952Y-161617047D01*
X61502952Y-161655142D01*
X61522000Y-161712285D01*
X61541047Y-161731333D01*
X61502952Y-162074190D02*
X61502952Y-161998000D01*
X61522000Y-161959904D01*
X61541047Y-161940857D01*
X61598190Y-161902761D01*
X61674380Y-161883714D01*
X61826761Y-161883714D01*
X61864857Y-161902761D01*
X61883904Y-161921809D01*
X61902952Y-161959904D01*
X61902952Y-162036095D01*
X61883904Y-162074190D01*
X61864857Y-162093238D01*
X61826761Y-162112285D01*
X61731523Y-162112285D01*
X61693428Y-162093238D01*
X61674380Y-162074190D01*
X61655333Y-162036095D01*
X61655333Y-161959904D01*
X61674380Y-161921809D01*
X61693428Y-161902761D01*
X61731523Y-161883714D01*
D10*
%TO.C,C10*%
X33845285Y-155568380D02*
X33750047Y-155568380D01*
X33654809Y-155616000D01*
X33607190Y-155663619D01*
X33559571Y-155758857D01*
X33511952Y-155949333D01*
X33511952Y-156187428D01*
X33559571Y-156377904D01*
X33607190Y-156473142D01*
X33654809Y-156520761D01*
X33750047Y-156568380D01*
X33845285Y-156568380D01*
X33940523Y-156520761D01*
X33988142Y-156473142D01*
X34035761Y-156377904D01*
X34083380Y-156187428D01*
X34083380Y-155949333D01*
X34035761Y-155758857D01*
X33988142Y-155663619D01*
X33940523Y-155616000D01*
X33845285Y-155568380D01*
X33083380Y-156473142D02*
X33035761Y-156520761D01*
X33083380Y-156568380D01*
X33131000Y-156520761D01*
X33083380Y-156473142D01*
X33083380Y-156568380D01*
X32083380Y-156568380D02*
X32654809Y-156568380D01*
X32369095Y-156568380D02*
X32369095Y-155568380D01*
X32464333Y-155711238D01*
X32559571Y-155806476D01*
X32654809Y-155854095D01*
X31654809Y-155901714D02*
X31654809Y-156901714D01*
X31178619Y-156425523D02*
X31131000Y-156520761D01*
X31035761Y-156568380D01*
X31654809Y-156425523D02*
X31607190Y-156520761D01*
X31511952Y-156568380D01*
X31321476Y-156568380D01*
X31226238Y-156520761D01*
X31178619Y-156425523D01*
X31178619Y-155901714D01*
X30273857Y-156044571D02*
X30607190Y-156044571D01*
X30607190Y-156568380D02*
X30607190Y-155568380D01*
X30131000Y-155568380D01*
D11*
X32388142Y-154828857D02*
X32407190Y-154847904D01*
X32464333Y-154866952D01*
X32502428Y-154866952D01*
X32559571Y-154847904D01*
X32597666Y-154809809D01*
X32616714Y-154771714D01*
X32635761Y-154695523D01*
X32635761Y-154638380D01*
X32616714Y-154562190D01*
X32597666Y-154524095D01*
X32559571Y-154486000D01*
X32502428Y-154466952D01*
X32464333Y-154466952D01*
X32407190Y-154486000D01*
X32388142Y-154505047D01*
X32007190Y-154866952D02*
X32235761Y-154866952D01*
X32121476Y-154866952D02*
X32121476Y-154466952D01*
X32159571Y-154524095D01*
X32197666Y-154562190D01*
X32235761Y-154581238D01*
X31759571Y-154466952D02*
X31721476Y-154466952D01*
X31683380Y-154486000D01*
X31664333Y-154505047D01*
X31645285Y-154543142D01*
X31626238Y-154619333D01*
X31626238Y-154714571D01*
X31645285Y-154790761D01*
X31664333Y-154828857D01*
X31683380Y-154847904D01*
X31721476Y-154866952D01*
X31759571Y-154866952D01*
X31797666Y-154847904D01*
X31816714Y-154828857D01*
X31835761Y-154790761D01*
X31854809Y-154714571D01*
X31854809Y-154619333D01*
X31835761Y-154543142D01*
X31816714Y-154505047D01*
X31797666Y-154486000D01*
X31759571Y-154466952D01*
D10*
%TO.C,D15*%
X34514523Y-194187380D02*
X34514523Y-193187380D01*
X34276428Y-193187380D01*
X34133571Y-193235000D01*
X34038333Y-193330238D01*
X33990714Y-193425476D01*
X33943095Y-193615952D01*
X33943095Y-193758809D01*
X33990714Y-193949285D01*
X34038333Y-194044523D01*
X34133571Y-194139761D01*
X34276428Y-194187380D01*
X34514523Y-194187380D01*
X33752619Y-194282619D02*
X32990714Y-194282619D01*
X32800238Y-194139761D02*
X32657380Y-194187380D01*
X32419285Y-194187380D01*
X32324047Y-194139761D01*
X32276428Y-194092142D01*
X32228809Y-193996904D01*
X32228809Y-193901666D01*
X32276428Y-193806428D01*
X32324047Y-193758809D01*
X32419285Y-193711190D01*
X32609761Y-193663571D01*
X32705000Y-193615952D01*
X32752619Y-193568333D01*
X32800238Y-193473095D01*
X32800238Y-193377857D01*
X32752619Y-193282619D01*
X32705000Y-193235000D01*
X32609761Y-193187380D01*
X32371666Y-193187380D01*
X32228809Y-193235000D01*
X31371666Y-194139761D02*
X31466904Y-194187380D01*
X31657380Y-194187380D01*
X31752619Y-194139761D01*
X31800238Y-194092142D01*
X31847857Y-193996904D01*
X31847857Y-193711190D01*
X31800238Y-193615952D01*
X31752619Y-193568333D01*
X31657380Y-193520714D01*
X31466904Y-193520714D01*
X31371666Y-193568333D01*
X30943095Y-194187380D02*
X30943095Y-193187380D01*
X30514523Y-194187380D02*
X30514523Y-193663571D01*
X30562142Y-193568333D01*
X30657380Y-193520714D01*
X30800238Y-193520714D01*
X30895476Y-193568333D01*
X30943095Y-193615952D01*
X29895476Y-194187380D02*
X29990714Y-194139761D01*
X30038333Y-194092142D01*
X30085952Y-193996904D01*
X30085952Y-193711190D01*
X30038333Y-193615952D01*
X29990714Y-193568333D01*
X29895476Y-193520714D01*
X29752619Y-193520714D01*
X29657380Y-193568333D01*
X29609761Y-193615952D01*
X29562142Y-193711190D01*
X29562142Y-193996904D01*
X29609761Y-194092142D01*
X29657380Y-194139761D01*
X29752619Y-194187380D01*
X29895476Y-194187380D01*
X29276428Y-193520714D02*
X28895476Y-193520714D01*
X29133571Y-193187380D02*
X29133571Y-194044523D01*
X29085952Y-194139761D01*
X28990714Y-194187380D01*
X28895476Y-194187380D01*
X28705000Y-193520714D02*
X28324047Y-193520714D01*
X28562142Y-193187380D02*
X28562142Y-194044523D01*
X28514523Y-194139761D01*
X28419285Y-194187380D01*
X28324047Y-194187380D01*
X27990714Y-194187380D02*
X27990714Y-193187380D01*
X27895476Y-193806428D02*
X27609761Y-194187380D01*
X27609761Y-193520714D02*
X27990714Y-193901666D01*
X27276428Y-193520714D02*
X27038333Y-194187380D01*
X26800238Y-193520714D02*
X27038333Y-194187380D01*
X27133571Y-194425476D01*
X27181190Y-194473095D01*
X27276428Y-194520714D01*
X31919285Y-189087380D02*
X31919285Y-188087380D01*
X31681190Y-188087380D01*
X31538333Y-188135000D01*
X31443095Y-188230238D01*
X31395476Y-188325476D01*
X31347857Y-188515952D01*
X31347857Y-188658809D01*
X31395476Y-188849285D01*
X31443095Y-188944523D01*
X31538333Y-189039761D01*
X31681190Y-189087380D01*
X31919285Y-189087380D01*
X30395476Y-189087380D02*
X30966904Y-189087380D01*
X30681190Y-189087380D02*
X30681190Y-188087380D01*
X30776428Y-188230238D01*
X30871666Y-188325476D01*
X30966904Y-188373095D01*
X29490714Y-188087380D02*
X29966904Y-188087380D01*
X30014523Y-188563571D01*
X29966904Y-188515952D01*
X29871666Y-188468333D01*
X29633571Y-188468333D01*
X29538333Y-188515952D01*
X29490714Y-188563571D01*
X29443095Y-188658809D01*
X29443095Y-188896904D01*
X29490714Y-188992142D01*
X29538333Y-189039761D01*
X29633571Y-189087380D01*
X29871666Y-189087380D01*
X29966904Y-189039761D01*
X30014523Y-188992142D01*
%TO.C,D13*%
X34543523Y-189107380D02*
X34543523Y-188107380D01*
X34305428Y-188107380D01*
X34162571Y-188155000D01*
X34067333Y-188250238D01*
X34019714Y-188345476D01*
X33972095Y-188535952D01*
X33972095Y-188678809D01*
X34019714Y-188869285D01*
X34067333Y-188964523D01*
X34162571Y-189059761D01*
X34305428Y-189107380D01*
X34543523Y-189107380D01*
X33781619Y-189202619D02*
X33019714Y-189202619D01*
X32829238Y-189059761D02*
X32686380Y-189107380D01*
X32448285Y-189107380D01*
X32353047Y-189059761D01*
X32305428Y-189012142D01*
X32257809Y-188916904D01*
X32257809Y-188821666D01*
X32305428Y-188726428D01*
X32353047Y-188678809D01*
X32448285Y-188631190D01*
X32638761Y-188583571D01*
X32734000Y-188535952D01*
X32781619Y-188488333D01*
X32829238Y-188393095D01*
X32829238Y-188297857D01*
X32781619Y-188202619D01*
X32734000Y-188155000D01*
X32638761Y-188107380D01*
X32400666Y-188107380D01*
X32257809Y-188155000D01*
X31400666Y-189059761D02*
X31495904Y-189107380D01*
X31686380Y-189107380D01*
X31781619Y-189059761D01*
X31829238Y-189012142D01*
X31876857Y-188916904D01*
X31876857Y-188631190D01*
X31829238Y-188535952D01*
X31781619Y-188488333D01*
X31686380Y-188440714D01*
X31495904Y-188440714D01*
X31400666Y-188488333D01*
X30972095Y-189107380D02*
X30972095Y-188107380D01*
X30543523Y-189107380D02*
X30543523Y-188583571D01*
X30591142Y-188488333D01*
X30686380Y-188440714D01*
X30829238Y-188440714D01*
X30924476Y-188488333D01*
X30972095Y-188535952D01*
X29924476Y-189107380D02*
X30019714Y-189059761D01*
X30067333Y-189012142D01*
X30114952Y-188916904D01*
X30114952Y-188631190D01*
X30067333Y-188535952D01*
X30019714Y-188488333D01*
X29924476Y-188440714D01*
X29781619Y-188440714D01*
X29686380Y-188488333D01*
X29638761Y-188535952D01*
X29591142Y-188631190D01*
X29591142Y-188916904D01*
X29638761Y-189012142D01*
X29686380Y-189059761D01*
X29781619Y-189107380D01*
X29924476Y-189107380D01*
X29305428Y-188440714D02*
X28924476Y-188440714D01*
X29162571Y-188107380D02*
X29162571Y-188964523D01*
X29114952Y-189059761D01*
X29019714Y-189107380D01*
X28924476Y-189107380D01*
X28734000Y-188440714D02*
X28353047Y-188440714D01*
X28591142Y-188107380D02*
X28591142Y-188964523D01*
X28543523Y-189059761D01*
X28448285Y-189107380D01*
X28353047Y-189107380D01*
X28019714Y-189107380D02*
X28019714Y-188107380D01*
X27924476Y-188726428D02*
X27638761Y-189107380D01*
X27638761Y-188440714D02*
X28019714Y-188821666D01*
X27305428Y-188440714D02*
X27067333Y-189107380D01*
X26829238Y-188440714D02*
X27067333Y-189107380D01*
X27162571Y-189345476D01*
X27210190Y-189393095D01*
X27305428Y-189440714D01*
X31948285Y-184007380D02*
X31948285Y-183007380D01*
X31710190Y-183007380D01*
X31567333Y-183055000D01*
X31472095Y-183150238D01*
X31424476Y-183245476D01*
X31376857Y-183435952D01*
X31376857Y-183578809D01*
X31424476Y-183769285D01*
X31472095Y-183864523D01*
X31567333Y-183959761D01*
X31710190Y-184007380D01*
X31948285Y-184007380D01*
X30424476Y-184007380D02*
X30995904Y-184007380D01*
X30710190Y-184007380D02*
X30710190Y-183007380D01*
X30805428Y-183150238D01*
X30900666Y-183245476D01*
X30995904Y-183293095D01*
X30091142Y-183007380D02*
X29472095Y-183007380D01*
X29805428Y-183388333D01*
X29662571Y-183388333D01*
X29567333Y-183435952D01*
X29519714Y-183483571D01*
X29472095Y-183578809D01*
X29472095Y-183816904D01*
X29519714Y-183912142D01*
X29567333Y-183959761D01*
X29662571Y-184007380D01*
X29948285Y-184007380D01*
X30043523Y-183959761D01*
X30091142Y-183912142D01*
%TO.C,R14*%
X56045380Y-175292923D02*
X56045380Y-174721495D01*
X56045380Y-175007209D02*
X55045380Y-175007209D01*
X55188238Y-174911971D01*
X55283476Y-174816733D01*
X55331095Y-174721495D01*
X55045380Y-175911971D02*
X55045380Y-176007209D01*
X55093000Y-176102447D01*
X55140619Y-176150066D01*
X55235857Y-176197685D01*
X55426333Y-176245304D01*
X55664428Y-176245304D01*
X55854904Y-176197685D01*
X55950142Y-176150066D01*
X55997761Y-176102447D01*
X56045380Y-176007209D01*
X56045380Y-175911971D01*
X55997761Y-175816733D01*
X55950142Y-175769114D01*
X55854904Y-175721495D01*
X55664428Y-175673876D01*
X55426333Y-175673876D01*
X55235857Y-175721495D01*
X55140619Y-175769114D01*
X55093000Y-175816733D01*
X55045380Y-175911971D01*
X56045380Y-176673876D02*
X55045380Y-176673876D01*
X56045380Y-177245304D02*
X55473952Y-176816733D01*
X55045380Y-177245304D02*
X55616809Y-176673876D01*
D11*
X57203952Y-175726257D02*
X57013476Y-175592923D01*
X57203952Y-175497685D02*
X56803952Y-175497685D01*
X56803952Y-175650066D01*
X56823000Y-175688161D01*
X56842047Y-175707209D01*
X56880142Y-175726257D01*
X56937285Y-175726257D01*
X56975380Y-175707209D01*
X56994428Y-175688161D01*
X57013476Y-175650066D01*
X57013476Y-175497685D01*
X57203952Y-176107209D02*
X57203952Y-175878638D01*
X57203952Y-175992923D02*
X56803952Y-175992923D01*
X56861095Y-175954828D01*
X56899190Y-175916733D01*
X56918238Y-175878638D01*
X56937285Y-176450066D02*
X57203952Y-176450066D01*
X56784904Y-176354828D02*
X57070619Y-176259590D01*
X57070619Y-176507209D01*
D10*
%TO.C,U2*%
X72001914Y-166122504D02*
X72668580Y-166122504D01*
X71620961Y-165884409D02*
X72335247Y-165646314D01*
X72335247Y-166265361D01*
X71668580Y-166836790D02*
X71668580Y-166932028D01*
X71716200Y-167027266D01*
X71763819Y-167074885D01*
X71859057Y-167122504D01*
X72049533Y-167170123D01*
X72287628Y-167170123D01*
X72478104Y-167122504D01*
X72573342Y-167074885D01*
X72620961Y-167027266D01*
X72668580Y-166932028D01*
X72668580Y-166836790D01*
X72620961Y-166741552D01*
X72573342Y-166693933D01*
X72478104Y-166646314D01*
X72287628Y-166598695D01*
X72049533Y-166598695D01*
X71859057Y-166646314D01*
X71763819Y-166693933D01*
X71716200Y-166741552D01*
X71668580Y-166836790D01*
X71668580Y-168074885D02*
X71668580Y-167598695D01*
X72144771Y-167551076D01*
X72097152Y-167598695D01*
X72049533Y-167693933D01*
X72049533Y-167932028D01*
X72097152Y-168027266D01*
X72144771Y-168074885D01*
X72240009Y-168122504D01*
X72478104Y-168122504D01*
X72573342Y-168074885D01*
X72620961Y-168027266D01*
X72668580Y-167932028D01*
X72668580Y-167693933D01*
X72620961Y-167598695D01*
X72573342Y-167551076D01*
X71668580Y-168741552D02*
X71668580Y-168836790D01*
X71716200Y-168932028D01*
X71763819Y-168979647D01*
X71859057Y-169027266D01*
X72049533Y-169074885D01*
X72287628Y-169074885D01*
X72478104Y-169027266D01*
X72573342Y-168979647D01*
X72620961Y-168932028D01*
X72668580Y-168836790D01*
X72668580Y-168741552D01*
X72620961Y-168646314D01*
X72573342Y-168598695D01*
X72478104Y-168551076D01*
X72287628Y-168503457D01*
X72049533Y-168503457D01*
X71859057Y-168551076D01*
X71763819Y-168598695D01*
X71716200Y-168646314D01*
X71668580Y-168741552D01*
X65678104Y-166751076D02*
X66325723Y-166751076D01*
X66401914Y-166789171D01*
X66440009Y-166827266D01*
X66478104Y-166903457D01*
X66478104Y-167055838D01*
X66440009Y-167132028D01*
X66401914Y-167170123D01*
X66325723Y-167208219D01*
X65678104Y-167208219D01*
X65754295Y-167551076D02*
X65716200Y-167589171D01*
X65678104Y-167665361D01*
X65678104Y-167855838D01*
X65716200Y-167932028D01*
X65754295Y-167970123D01*
X65830485Y-168008219D01*
X65906676Y-168008219D01*
X66020961Y-167970123D01*
X66478104Y-167512980D01*
X66478104Y-168008219D01*
%TO.C,D7*%
X34289523Y-168787380D02*
X34289523Y-167787380D01*
X34051428Y-167787380D01*
X33908571Y-167835000D01*
X33813333Y-167930238D01*
X33765714Y-168025476D01*
X33718095Y-168215952D01*
X33718095Y-168358809D01*
X33765714Y-168549285D01*
X33813333Y-168644523D01*
X33908571Y-168739761D01*
X34051428Y-168787380D01*
X34289523Y-168787380D01*
X33527619Y-168882619D02*
X32765714Y-168882619D01*
X32575238Y-168739761D02*
X32432380Y-168787380D01*
X32194285Y-168787380D01*
X32099047Y-168739761D01*
X32051428Y-168692142D01*
X32003809Y-168596904D01*
X32003809Y-168501666D01*
X32051428Y-168406428D01*
X32099047Y-168358809D01*
X32194285Y-168311190D01*
X32384761Y-168263571D01*
X32480000Y-168215952D01*
X32527619Y-168168333D01*
X32575238Y-168073095D01*
X32575238Y-167977857D01*
X32527619Y-167882619D01*
X32480000Y-167835000D01*
X32384761Y-167787380D01*
X32146666Y-167787380D01*
X32003809Y-167835000D01*
X31146666Y-168739761D02*
X31241904Y-168787380D01*
X31432380Y-168787380D01*
X31527619Y-168739761D01*
X31575238Y-168692142D01*
X31622857Y-168596904D01*
X31622857Y-168311190D01*
X31575238Y-168215952D01*
X31527619Y-168168333D01*
X31432380Y-168120714D01*
X31241904Y-168120714D01*
X31146666Y-168168333D01*
X30718095Y-168787380D02*
X30718095Y-167787380D01*
X30289523Y-168787380D02*
X30289523Y-168263571D01*
X30337142Y-168168333D01*
X30432380Y-168120714D01*
X30575238Y-168120714D01*
X30670476Y-168168333D01*
X30718095Y-168215952D01*
X29670476Y-168787380D02*
X29765714Y-168739761D01*
X29813333Y-168692142D01*
X29860952Y-168596904D01*
X29860952Y-168311190D01*
X29813333Y-168215952D01*
X29765714Y-168168333D01*
X29670476Y-168120714D01*
X29527619Y-168120714D01*
X29432380Y-168168333D01*
X29384761Y-168215952D01*
X29337142Y-168311190D01*
X29337142Y-168596904D01*
X29384761Y-168692142D01*
X29432380Y-168739761D01*
X29527619Y-168787380D01*
X29670476Y-168787380D01*
X29051428Y-168120714D02*
X28670476Y-168120714D01*
X28908571Y-167787380D02*
X28908571Y-168644523D01*
X28860952Y-168739761D01*
X28765714Y-168787380D01*
X28670476Y-168787380D01*
X28480000Y-168120714D02*
X28099047Y-168120714D01*
X28337142Y-167787380D02*
X28337142Y-168644523D01*
X28289523Y-168739761D01*
X28194285Y-168787380D01*
X28099047Y-168787380D01*
X27765714Y-168787380D02*
X27765714Y-167787380D01*
X27670476Y-168406428D02*
X27384761Y-168787380D01*
X27384761Y-168120714D02*
X27765714Y-168501666D01*
X27051428Y-168120714D02*
X26813333Y-168787380D01*
X26575238Y-168120714D02*
X26813333Y-168787380D01*
X26908571Y-169025476D01*
X26956190Y-169073095D01*
X27051428Y-169120714D01*
X31218095Y-163687380D02*
X31218095Y-162687380D01*
X30980000Y-162687380D01*
X30837142Y-162735000D01*
X30741904Y-162830238D01*
X30694285Y-162925476D01*
X30646666Y-163115952D01*
X30646666Y-163258809D01*
X30694285Y-163449285D01*
X30741904Y-163544523D01*
X30837142Y-163639761D01*
X30980000Y-163687380D01*
X31218095Y-163687380D01*
X30313333Y-162687380D02*
X29646666Y-162687380D01*
X30075238Y-163687380D01*
%TO.C,U5*%
X57295314Y-161448904D02*
X57961980Y-161448904D01*
X56914361Y-161210809D02*
X57628647Y-160972714D01*
X57628647Y-161591761D01*
X56961980Y-162163190D02*
X56961980Y-162258428D01*
X57009600Y-162353666D01*
X57057219Y-162401285D01*
X57152457Y-162448904D01*
X57342933Y-162496523D01*
X57581028Y-162496523D01*
X57771504Y-162448904D01*
X57866742Y-162401285D01*
X57914361Y-162353666D01*
X57961980Y-162258428D01*
X57961980Y-162163190D01*
X57914361Y-162067952D01*
X57866742Y-162020333D01*
X57771504Y-161972714D01*
X57581028Y-161925095D01*
X57342933Y-161925095D01*
X57152457Y-161972714D01*
X57057219Y-162020333D01*
X57009600Y-162067952D01*
X56961980Y-162163190D01*
X56961980Y-163401285D02*
X56961980Y-162925095D01*
X57438171Y-162877476D01*
X57390552Y-162925095D01*
X57342933Y-163020333D01*
X57342933Y-163258428D01*
X57390552Y-163353666D01*
X57438171Y-163401285D01*
X57533409Y-163448904D01*
X57771504Y-163448904D01*
X57866742Y-163401285D01*
X57914361Y-163353666D01*
X57961980Y-163258428D01*
X57961980Y-163020333D01*
X57914361Y-162925095D01*
X57866742Y-162877476D01*
X56961980Y-164067952D02*
X56961980Y-164163190D01*
X57009600Y-164258428D01*
X57057219Y-164306047D01*
X57152457Y-164353666D01*
X57342933Y-164401285D01*
X57581028Y-164401285D01*
X57771504Y-164353666D01*
X57866742Y-164306047D01*
X57914361Y-164258428D01*
X57961980Y-164163190D01*
X57961980Y-164067952D01*
X57914361Y-163972714D01*
X57866742Y-163925095D01*
X57771504Y-163877476D01*
X57581028Y-163829857D01*
X57342933Y-163829857D01*
X57152457Y-163877476D01*
X57057219Y-163925095D01*
X57009600Y-163972714D01*
X56961980Y-164067952D01*
X50971504Y-165887476D02*
X51619123Y-165887476D01*
X51695314Y-165925571D01*
X51733409Y-165963666D01*
X51771504Y-166039857D01*
X51771504Y-166192238D01*
X51733409Y-166268428D01*
X51695314Y-166306523D01*
X51619123Y-166344619D01*
X50971504Y-166344619D01*
X50971504Y-167106523D02*
X50971504Y-166725571D01*
X51352457Y-166687476D01*
X51314361Y-166725571D01*
X51276266Y-166801761D01*
X51276266Y-166992238D01*
X51314361Y-167068428D01*
X51352457Y-167106523D01*
X51428647Y-167144619D01*
X51619123Y-167144619D01*
X51695314Y-167106523D01*
X51733409Y-167068428D01*
X51771504Y-166992238D01*
X51771504Y-166801761D01*
X51733409Y-166725571D01*
X51695314Y-166687476D01*
%TO.C,U6*%
X58594000Y-149844666D02*
X58117809Y-149844666D01*
X58689238Y-150130380D02*
X58355904Y-149130380D01*
X58022571Y-150130380D01*
X57689238Y-150130380D02*
X57689238Y-149130380D01*
X57355904Y-149844666D01*
X57022571Y-149130380D01*
X57022571Y-150130380D01*
X56594000Y-150082761D02*
X56451142Y-150130380D01*
X56213047Y-150130380D01*
X56117809Y-150082761D01*
X56070190Y-150035142D01*
X56022571Y-149939904D01*
X56022571Y-149844666D01*
X56070190Y-149749428D01*
X56117809Y-149701809D01*
X56213047Y-149654190D01*
X56403523Y-149606571D01*
X56498761Y-149558952D01*
X56546380Y-149511333D01*
X56594000Y-149416095D01*
X56594000Y-149320857D01*
X56546380Y-149225619D01*
X56498761Y-149178000D01*
X56403523Y-149130380D01*
X56165428Y-149130380D01*
X56022571Y-149178000D01*
X55070190Y-150130380D02*
X55641619Y-150130380D01*
X55355904Y-150130380D02*
X55355904Y-149130380D01*
X55451142Y-149273238D01*
X55546380Y-149368476D01*
X55641619Y-149416095D01*
X54117809Y-150130380D02*
X54689238Y-150130380D01*
X54403523Y-150130380D02*
X54403523Y-149130380D01*
X54498761Y-149273238D01*
X54594000Y-149368476D01*
X54689238Y-149416095D01*
X53165428Y-150130380D02*
X53736857Y-150130380D01*
X53451142Y-150130380D02*
X53451142Y-149130380D01*
X53546380Y-149273238D01*
X53641619Y-149368476D01*
X53736857Y-149416095D01*
X52832095Y-149130380D02*
X52165428Y-149130380D01*
X52594000Y-150130380D01*
X51784476Y-149749428D02*
X51022571Y-149749428D01*
X50070190Y-149130380D02*
X50546380Y-149130380D01*
X50594000Y-149606571D01*
X50546380Y-149558952D01*
X50451142Y-149511333D01*
X50213047Y-149511333D01*
X50117809Y-149558952D01*
X50070190Y-149606571D01*
X50022571Y-149701809D01*
X50022571Y-149939904D01*
X50070190Y-150035142D01*
X50117809Y-150082761D01*
X50213047Y-150130380D01*
X50451142Y-150130380D01*
X50546380Y-150082761D01*
X50594000Y-150035142D01*
X49594000Y-150035142D02*
X49546380Y-150082761D01*
X49594000Y-150130380D01*
X49641619Y-150082761D01*
X49594000Y-150035142D01*
X49594000Y-150130380D01*
X48927333Y-149130380D02*
X48832095Y-149130380D01*
X48736857Y-149178000D01*
X48689238Y-149225619D01*
X48641619Y-149320857D01*
X48594000Y-149511333D01*
X48594000Y-149749428D01*
X48641619Y-149939904D01*
X48689238Y-150035142D01*
X48736857Y-150082761D01*
X48832095Y-150130380D01*
X48927333Y-150130380D01*
X49022571Y-150082761D01*
X49070190Y-150035142D01*
X49117809Y-149939904D01*
X49165428Y-149749428D01*
X49165428Y-149511333D01*
X49117809Y-149320857D01*
X49070190Y-149225619D01*
X49022571Y-149178000D01*
X48927333Y-149130380D01*
D12*
X53155904Y-153568476D02*
X53803523Y-153568476D01*
X53879714Y-153606571D01*
X53917809Y-153644666D01*
X53955904Y-153720857D01*
X53955904Y-153873238D01*
X53917809Y-153949428D01*
X53879714Y-153987523D01*
X53803523Y-154025619D01*
X53155904Y-154025619D01*
X53155904Y-154749428D02*
X53155904Y-154597047D01*
X53194000Y-154520857D01*
X53232095Y-154482761D01*
X53346380Y-154406571D01*
X53498761Y-154368476D01*
X53803523Y-154368476D01*
X53879714Y-154406571D01*
X53917809Y-154444666D01*
X53955904Y-154520857D01*
X53955904Y-154673238D01*
X53917809Y-154749428D01*
X53879714Y-154787523D01*
X53803523Y-154825619D01*
X53613047Y-154825619D01*
X53536857Y-154787523D01*
X53498761Y-154749428D01*
X53460666Y-154673238D01*
X53460666Y-154520857D01*
X53498761Y-154444666D01*
X53536857Y-154406571D01*
X53613047Y-154368476D01*
D10*
%TO.C,C11*%
X36118285Y-152901380D02*
X36023047Y-152901380D01*
X35927809Y-152949000D01*
X35880190Y-152996619D01*
X35832571Y-153091857D01*
X35784952Y-153282333D01*
X35784952Y-153520428D01*
X35832571Y-153710904D01*
X35880190Y-153806142D01*
X35927809Y-153853761D01*
X36023047Y-153901380D01*
X36118285Y-153901380D01*
X36213523Y-153853761D01*
X36261142Y-153806142D01*
X36308761Y-153710904D01*
X36356380Y-153520428D01*
X36356380Y-153282333D01*
X36308761Y-153091857D01*
X36261142Y-152996619D01*
X36213523Y-152949000D01*
X36118285Y-152901380D01*
X35356380Y-153806142D02*
X35308761Y-153853761D01*
X35356380Y-153901380D01*
X35404000Y-153853761D01*
X35356380Y-153806142D01*
X35356380Y-153901380D01*
X34356380Y-153901380D02*
X34927809Y-153901380D01*
X34642095Y-153901380D02*
X34642095Y-152901380D01*
X34737333Y-153044238D01*
X34832571Y-153139476D01*
X34927809Y-153187095D01*
X33927809Y-153234714D02*
X33927809Y-154234714D01*
X33451619Y-153758523D02*
X33404000Y-153853761D01*
X33308761Y-153901380D01*
X33927809Y-153758523D02*
X33880190Y-153853761D01*
X33784952Y-153901380D01*
X33594476Y-153901380D01*
X33499238Y-153853761D01*
X33451619Y-153758523D01*
X33451619Y-153234714D01*
X32546857Y-153377571D02*
X32880190Y-153377571D01*
X32880190Y-153901380D02*
X32880190Y-152901380D01*
X32404000Y-152901380D01*
D11*
X34661142Y-152161857D02*
X34680190Y-152180904D01*
X34737333Y-152199952D01*
X34775428Y-152199952D01*
X34832571Y-152180904D01*
X34870666Y-152142809D01*
X34889714Y-152104714D01*
X34908761Y-152028523D01*
X34908761Y-151971380D01*
X34889714Y-151895190D01*
X34870666Y-151857095D01*
X34832571Y-151819000D01*
X34775428Y-151799952D01*
X34737333Y-151799952D01*
X34680190Y-151819000D01*
X34661142Y-151838047D01*
X34280190Y-152199952D02*
X34508761Y-152199952D01*
X34394476Y-152199952D02*
X34394476Y-151799952D01*
X34432571Y-151857095D01*
X34470666Y-151895190D01*
X34508761Y-151914238D01*
X33899238Y-152199952D02*
X34127809Y-152199952D01*
X34013523Y-152199952D02*
X34013523Y-151799952D01*
X34051619Y-151857095D01*
X34089714Y-151895190D01*
X34127809Y-151914238D01*
D10*
%TO.C,D3*%
X34329523Y-182249380D02*
X34329523Y-181249380D01*
X34091428Y-181249380D01*
X33948571Y-181297000D01*
X33853333Y-181392238D01*
X33805714Y-181487476D01*
X33758095Y-181677952D01*
X33758095Y-181820809D01*
X33805714Y-182011285D01*
X33853333Y-182106523D01*
X33948571Y-182201761D01*
X34091428Y-182249380D01*
X34329523Y-182249380D01*
X33567619Y-182344619D02*
X32805714Y-182344619D01*
X32615238Y-182201761D02*
X32472380Y-182249380D01*
X32234285Y-182249380D01*
X32139047Y-182201761D01*
X32091428Y-182154142D01*
X32043809Y-182058904D01*
X32043809Y-181963666D01*
X32091428Y-181868428D01*
X32139047Y-181820809D01*
X32234285Y-181773190D01*
X32424761Y-181725571D01*
X32520000Y-181677952D01*
X32567619Y-181630333D01*
X32615238Y-181535095D01*
X32615238Y-181439857D01*
X32567619Y-181344619D01*
X32520000Y-181297000D01*
X32424761Y-181249380D01*
X32186666Y-181249380D01*
X32043809Y-181297000D01*
X31186666Y-182201761D02*
X31281904Y-182249380D01*
X31472380Y-182249380D01*
X31567619Y-182201761D01*
X31615238Y-182154142D01*
X31662857Y-182058904D01*
X31662857Y-181773190D01*
X31615238Y-181677952D01*
X31567619Y-181630333D01*
X31472380Y-181582714D01*
X31281904Y-181582714D01*
X31186666Y-181630333D01*
X30758095Y-182249380D02*
X30758095Y-181249380D01*
X30329523Y-182249380D02*
X30329523Y-181725571D01*
X30377142Y-181630333D01*
X30472380Y-181582714D01*
X30615238Y-181582714D01*
X30710476Y-181630333D01*
X30758095Y-181677952D01*
X29710476Y-182249380D02*
X29805714Y-182201761D01*
X29853333Y-182154142D01*
X29900952Y-182058904D01*
X29900952Y-181773190D01*
X29853333Y-181677952D01*
X29805714Y-181630333D01*
X29710476Y-181582714D01*
X29567619Y-181582714D01*
X29472380Y-181630333D01*
X29424761Y-181677952D01*
X29377142Y-181773190D01*
X29377142Y-182058904D01*
X29424761Y-182154142D01*
X29472380Y-182201761D01*
X29567619Y-182249380D01*
X29710476Y-182249380D01*
X29091428Y-181582714D02*
X28710476Y-181582714D01*
X28948571Y-181249380D02*
X28948571Y-182106523D01*
X28900952Y-182201761D01*
X28805714Y-182249380D01*
X28710476Y-182249380D01*
X28520000Y-181582714D02*
X28139047Y-181582714D01*
X28377142Y-181249380D02*
X28377142Y-182106523D01*
X28329523Y-182201761D01*
X28234285Y-182249380D01*
X28139047Y-182249380D01*
X27805714Y-182249380D02*
X27805714Y-181249380D01*
X27710476Y-181868428D02*
X27424761Y-182249380D01*
X27424761Y-181582714D02*
X27805714Y-181963666D01*
X27091428Y-181582714D02*
X26853333Y-182249380D01*
X26615238Y-181582714D02*
X26853333Y-182249380D01*
X26948571Y-182487476D01*
X26996190Y-182535095D01*
X27091428Y-182582714D01*
X31258095Y-177149380D02*
X31258095Y-176149380D01*
X31020000Y-176149380D01*
X30877142Y-176197000D01*
X30781904Y-176292238D01*
X30734285Y-176387476D01*
X30686666Y-176577952D01*
X30686666Y-176720809D01*
X30734285Y-176911285D01*
X30781904Y-177006523D01*
X30877142Y-177101761D01*
X31020000Y-177149380D01*
X31258095Y-177149380D01*
X30353333Y-176149380D02*
X29734285Y-176149380D01*
X30067619Y-176530333D01*
X29924761Y-176530333D01*
X29829523Y-176577952D01*
X29781904Y-176625571D01*
X29734285Y-176720809D01*
X29734285Y-176958904D01*
X29781904Y-177054142D01*
X29829523Y-177101761D01*
X29924761Y-177149380D01*
X30210476Y-177149380D01*
X30305714Y-177101761D01*
X30353333Y-177054142D01*
%TO.C,Q7*%
X31289238Y-185192666D02*
X30813047Y-185192666D01*
X31384476Y-185478380D02*
X31051142Y-184478380D01*
X30717809Y-185478380D01*
X30194000Y-184478380D02*
X30003523Y-184478380D01*
X29908285Y-184526000D01*
X29813047Y-184621238D01*
X29765428Y-184811714D01*
X29765428Y-185145047D01*
X29813047Y-185335523D01*
X29908285Y-185430761D01*
X30003523Y-185478380D01*
X30194000Y-185478380D01*
X30289238Y-185430761D01*
X30384476Y-185335523D01*
X30432095Y-185145047D01*
X30432095Y-184811714D01*
X30384476Y-184621238D01*
X30289238Y-184526000D01*
X30194000Y-184478380D01*
X29432095Y-184478380D02*
X28813047Y-184478380D01*
X29146380Y-184859333D01*
X29003523Y-184859333D01*
X28908285Y-184906952D01*
X28860666Y-184954571D01*
X28813047Y-185049809D01*
X28813047Y-185287904D01*
X28860666Y-185383142D01*
X28908285Y-185430761D01*
X29003523Y-185478380D01*
X29289238Y-185478380D01*
X29384476Y-185430761D01*
X29432095Y-185383142D01*
X27955904Y-184811714D02*
X27955904Y-185478380D01*
X28194000Y-184430761D02*
X28432095Y-185145047D01*
X27813047Y-185145047D01*
X27241619Y-184478380D02*
X27146380Y-184478380D01*
X27051142Y-184526000D01*
X27003523Y-184573619D01*
X26955904Y-184668857D01*
X26908285Y-184859333D01*
X26908285Y-185097428D01*
X26955904Y-185287904D01*
X27003523Y-185383142D01*
X27051142Y-185430761D01*
X27146380Y-185478380D01*
X27241619Y-185478380D01*
X27336857Y-185430761D01*
X27384476Y-185383142D01*
X27432095Y-185287904D01*
X27479714Y-185097428D01*
X27479714Y-184859333D01*
X27432095Y-184668857D01*
X27384476Y-184573619D01*
X27336857Y-184526000D01*
X27241619Y-184478380D01*
X25955904Y-185478380D02*
X26527333Y-185478380D01*
X26241619Y-185478380D02*
X26241619Y-184478380D01*
X26336857Y-184621238D01*
X26432095Y-184716476D01*
X26527333Y-184764095D01*
X25574952Y-185192666D02*
X25098761Y-185192666D01*
X25670190Y-185478380D02*
X25336857Y-184478380D01*
X25003523Y-185478380D01*
D13*
X28224476Y-182801238D02*
X28254952Y-182786000D01*
X28285428Y-182755523D01*
X28331142Y-182709809D01*
X28361619Y-182694571D01*
X28392095Y-182694571D01*
X28376857Y-182770761D02*
X28407333Y-182755523D01*
X28437809Y-182725047D01*
X28453047Y-182664095D01*
X28453047Y-182557428D01*
X28437809Y-182496476D01*
X28407333Y-182466000D01*
X28376857Y-182450761D01*
X28315904Y-182450761D01*
X28285428Y-182466000D01*
X28254952Y-182496476D01*
X28239714Y-182557428D01*
X28239714Y-182664095D01*
X28254952Y-182725047D01*
X28285428Y-182755523D01*
X28315904Y-182770761D01*
X28376857Y-182770761D01*
X28133047Y-182450761D02*
X27919714Y-182450761D01*
X28056857Y-182770761D01*
D14*
%TO.C,D9*%
X28180000Y-171045000D02*
X32780000Y-171045000D01*
X31129440Y-169546020D02*
X29978820Y-170295320D01*
X31129440Y-169546020D02*
X32031140Y-169546020D01*
X28180000Y-168045000D02*
X28180000Y-171045000D01*
X31129440Y-169546020D02*
X29978820Y-168745920D01*
X29978820Y-169546020D02*
X28980600Y-169546020D01*
X32780000Y-171045000D02*
X32780000Y-168045000D01*
X29978820Y-170295320D02*
X29978820Y-168745920D01*
X28180000Y-168045000D02*
X32780000Y-168045000D01*
X31129440Y-168745920D02*
X31129440Y-170346120D01*
%TO.C,D1*%
X60678000Y-151619000D02*
X60678000Y-152419000D01*
X61778000Y-151119000D02*
X58978000Y-151119000D01*
X60078000Y-152419000D02*
X60078000Y-151619000D01*
X61778000Y-152919000D02*
X61778000Y-151119000D01*
X60078000Y-152019000D02*
X60678000Y-152419000D01*
X60078000Y-152017980D02*
X60678000Y-151619000D01*
X58978000Y-151119000D02*
X58978000Y-152919000D01*
X60678000Y-152019000D02*
X61278000Y-152019000D01*
X60078000Y-152019000D02*
X59478000Y-152019000D01*
X61778000Y-152919000D02*
X58978000Y-152919000D01*
%TO.C,U3*%
X39034000Y-152744000D02*
X35134000Y-152744000D01*
X36109000Y-157644000D02*
X39034000Y-157644000D01*
X35134000Y-156669000D02*
X36109000Y-157644000D01*
X39034000Y-157644000D02*
X39034000Y-152744000D01*
X35134000Y-152744000D02*
X35134000Y-156669000D01*
%TO.C,D10*%
X28220000Y-171855000D02*
X28220000Y-174855000D01*
X31169440Y-172555920D02*
X31169440Y-174156120D01*
X30018820Y-173356020D02*
X29020600Y-173356020D01*
X31169440Y-173356020D02*
X32071140Y-173356020D01*
X31169440Y-173356020D02*
X30018820Y-174105320D01*
X28220000Y-174855000D02*
X32820000Y-174855000D01*
X30018820Y-174105320D02*
X30018820Y-172555920D01*
X32820000Y-174855000D02*
X32820000Y-171855000D01*
X31169440Y-173356020D02*
X30018820Y-172555920D01*
X28220000Y-171855000D02*
X32820000Y-171855000D01*
%TO.C,C5*%
X45745000Y-159112000D02*
X44145000Y-159112000D01*
X45745000Y-159912000D02*
X45745000Y-159112000D01*
X44145000Y-159112000D02*
X44145000Y-159912000D01*
X44145000Y-159912000D02*
X45745000Y-159912000D01*
%TO.C,R16*%
X78524000Y-172307500D02*
X76924000Y-172307500D01*
X76924000Y-172307500D02*
X76924000Y-173132500D01*
X78524000Y-173132500D02*
X78524000Y-172307500D01*
X76924000Y-173132500D02*
X78524000Y-173132500D01*
%TO.C,C6*%
X62122000Y-160998000D02*
X61322000Y-160998000D01*
X61322000Y-162598000D02*
X62122000Y-162598000D01*
X61322000Y-160998000D02*
X61322000Y-162598000D01*
X62122000Y-162598000D02*
X62122000Y-160998000D01*
%TO.C,C10*%
X31331000Y-155086000D02*
X32931000Y-155086000D01*
X31331000Y-154286000D02*
X31331000Y-155086000D01*
X32931000Y-154286000D02*
X31331000Y-154286000D01*
X32931000Y-155086000D02*
X32931000Y-154286000D01*
%TO.C,D15*%
X31354440Y-191136020D02*
X32256140Y-191136020D01*
X31354440Y-191136020D02*
X30203820Y-191885320D01*
X28405000Y-189635000D02*
X28405000Y-192635000D01*
X28405000Y-192635000D02*
X33005000Y-192635000D01*
X30203820Y-191885320D02*
X30203820Y-190335920D01*
X31354440Y-191136020D02*
X30203820Y-190335920D01*
X31354440Y-190335920D02*
X31354440Y-191936120D01*
X30203820Y-191136020D02*
X29205600Y-191136020D01*
X33005000Y-192635000D02*
X33005000Y-189635000D01*
X28405000Y-189635000D02*
X33005000Y-189635000D01*
%TO.C,D13*%
X33034000Y-187555000D02*
X33034000Y-184555000D01*
X30232820Y-186056020D02*
X29234600Y-186056020D01*
X28434000Y-187555000D02*
X33034000Y-187555000D01*
X28434000Y-184555000D02*
X33034000Y-184555000D01*
X31383440Y-185255920D02*
X31383440Y-186856120D01*
X30232820Y-186805320D02*
X30232820Y-185255920D01*
X28434000Y-184555000D02*
X28434000Y-187555000D01*
X31383440Y-186056020D02*
X30232820Y-186805320D01*
X31383440Y-186056020D02*
X32285140Y-186056020D01*
X31383440Y-186056020D02*
X30232820Y-185255920D01*
%TO.C,R14*%
X57435500Y-175183400D02*
X56610500Y-175183400D01*
X56610500Y-176783400D02*
X57435500Y-176783400D01*
X56610500Y-175183400D02*
X56610500Y-176783400D01*
X57435500Y-176783400D02*
X57435500Y-175183400D01*
%TO.C,U2*%
X71316200Y-165160600D02*
X61516200Y-165160600D01*
X71316200Y-169560600D02*
X71316200Y-165160600D01*
X60916200Y-169560600D02*
X71316200Y-169560600D01*
X61516200Y-165160600D02*
X60916200Y-165760600D01*
X60916200Y-165760600D02*
X60916200Y-169560600D01*
%TO.C,D7*%
X32780000Y-167235000D02*
X32780000Y-164235000D01*
X31129440Y-164935920D02*
X31129440Y-166536120D01*
X28180000Y-164235000D02*
X32780000Y-164235000D01*
X31129440Y-165736020D02*
X29978820Y-166485320D01*
X31129440Y-165736020D02*
X29978820Y-164935920D01*
X29978820Y-165736020D02*
X28980600Y-165736020D01*
X28180000Y-164235000D02*
X28180000Y-167235000D01*
X31129440Y-165736020D02*
X32031140Y-165736020D01*
X28180000Y-167235000D02*
X32780000Y-167235000D01*
X29978820Y-166485320D02*
X29978820Y-164935920D01*
%TO.C,U5*%
X46809600Y-160487000D02*
X46209600Y-161087000D01*
X56609600Y-164887000D02*
X56609600Y-160487000D01*
X46209600Y-164887000D02*
X56609600Y-164887000D01*
X56609600Y-160487000D02*
X46809600Y-160487000D01*
X46209600Y-161087000D02*
X46209600Y-164887000D01*
%TO.C,U6*%
X51744000Y-156528000D02*
X51744000Y-150828000D01*
X52744000Y-157528000D02*
X55444000Y-157528000D01*
X51744000Y-150828000D02*
X55444000Y-150828000D01*
X55444000Y-157528000D02*
X55444000Y-150828000D01*
X51744000Y-156528000D02*
X52744000Y-157528000D01*
%TO.C,C11*%
X35204000Y-152419000D02*
X35204000Y-151619000D01*
X33604000Y-152419000D02*
X35204000Y-152419000D01*
X35204000Y-151619000D02*
X33604000Y-151619000D01*
X33604000Y-151619000D02*
X33604000Y-152419000D01*
%TO.C,D3*%
X30018820Y-179198020D02*
X29020600Y-179198020D01*
X31169440Y-179198020D02*
X32071140Y-179198020D01*
X31169440Y-179198020D02*
X30018820Y-179947320D01*
X31169440Y-179198020D02*
X30018820Y-178397920D01*
X28220000Y-180697000D02*
X32820000Y-180697000D01*
X28220000Y-177697000D02*
X32820000Y-177697000D01*
X28220000Y-177697000D02*
X28220000Y-180697000D01*
X30018820Y-179947320D02*
X30018820Y-178397920D01*
X32820000Y-180697000D02*
X32820000Y-177697000D01*
X31169440Y-178397920D02*
X31169440Y-179998120D01*
%TO.C,Q7*%
X27544000Y-184076000D02*
X28844000Y-184076000D01*
X28519000Y-181176000D02*
X27544000Y-181176000D01*
X27544000Y-181176000D02*
X27544000Y-184076000D01*
X28844000Y-184076000D02*
X28844000Y-181501000D01*
X28844000Y-181501000D02*
X28519000Y-181176000D01*
%TD*%
M02*
