%TF.GenerationSoftware,KiCad,Pcbnew,(6.0.9)*%
%TF.CreationDate,2023-04-19T21:58:53+02:00*%
%TF.ProjectId,jf-ecu32,6a662d65-6375-4333-922e-6b696361645f,rev?*%
%TF.SameCoordinates,Original*%
%TF.FileFunction,Legend,Top*%
%TF.FilePolarity,Positive*%
%FSLAX46Y46*%
G04 Gerber Fmt 4.6, Leading zero omitted, Abs format (unit mm)*
G04 Created by KiCad (PCBNEW (6.0.9)) date 2023-04-19 21:58:53*
%MOMM*%
%LPD*%
G01*
G04 APERTURE LIST*
%ADD10C,0.150000*%
%ADD11C,0.125000*%
%ADD12C,0.120000*%
G04 APERTURE END LIST*
D10*
X48006000Y-166878000D02*
X56261000Y-166878000D01*
X49432981Y-168021000D02*
G75*
G03*
X49432981Y-168021000I-283981J0D01*
G01*
X49911000Y-182245000D02*
X57277000Y-182245000D01*
X57277000Y-182245000D02*
X57277000Y-189865000D01*
X57277000Y-189865000D02*
X49911000Y-189865000D01*
X49911000Y-189865000D02*
X49911000Y-182245000D01*
X79565500Y-170942000D02*
X83502500Y-170942000D01*
X83502500Y-170942000D02*
X83502500Y-179959000D01*
X83502500Y-179959000D02*
X79565500Y-179959000D01*
X79565500Y-179959000D02*
X79565500Y-170942000D01*
X49432981Y-165735000D02*
G75*
G03*
X49432981Y-165735000I-283981J0D01*
G01*
X38735000Y-184912000D02*
X48895000Y-184912000D01*
X48895000Y-184912000D02*
X48895000Y-196850000D01*
X48895000Y-196850000D02*
X38735000Y-196850000D01*
X38735000Y-196850000D02*
X38735000Y-184912000D01*
X50292000Y-165227000D02*
X50292000Y-168783000D01*
X49432981Y-166878000D02*
G75*
G03*
X49432981Y-166878000I-283981J0D01*
G01*
X48006000Y-165163500D02*
X56261000Y-165163500D01*
X56261000Y-165163500D02*
X56261000Y-168846500D01*
X56261000Y-168846500D02*
X48006000Y-168846500D01*
X48006000Y-168846500D02*
X48006000Y-165163500D01*
X51832000Y-184221380D02*
X51832000Y-183221380D01*
X52498666Y-183221380D02*
X52689142Y-183221380D01*
X52784380Y-183269000D01*
X52879619Y-183364238D01*
X52927238Y-183554714D01*
X52927238Y-183888047D01*
X52879619Y-184078523D01*
X52784380Y-184173761D01*
X52689142Y-184221380D01*
X52498666Y-184221380D01*
X52403428Y-184173761D01*
X52308190Y-184078523D01*
X52260571Y-183888047D01*
X52260571Y-183554714D01*
X52308190Y-183364238D01*
X52403428Y-183269000D01*
X52498666Y-183221380D01*
X53546285Y-183221380D02*
X53641523Y-183221380D01*
X53736761Y-183269000D01*
X53784380Y-183316619D01*
X53832000Y-183411857D01*
X53879619Y-183602333D01*
X53879619Y-183840428D01*
X53832000Y-184030904D01*
X53784380Y-184126142D01*
X53736761Y-184173761D01*
X53641523Y-184221380D01*
X53546285Y-184221380D01*
X53451047Y-184173761D01*
X53403428Y-184126142D01*
X53355809Y-184030904D01*
X53308190Y-183840428D01*
X53308190Y-183602333D01*
X53355809Y-183411857D01*
X53403428Y-183316619D01*
X53451047Y-183269000D01*
X53546285Y-183221380D01*
X76929666Y-160463666D02*
X76929666Y-159763666D01*
X77263000Y-160463666D02*
X77263000Y-159763666D01*
X77663000Y-160463666D01*
X77663000Y-159763666D01*
X77996333Y-160463666D02*
X77996333Y-159763666D01*
X78263000Y-159763666D01*
X78329666Y-159797000D01*
X78363000Y-159830333D01*
X78396333Y-159897000D01*
X78396333Y-159997000D01*
X78363000Y-160063666D01*
X78329666Y-160097000D01*
X78263000Y-160130333D01*
X77996333Y-160130333D01*
X78696333Y-159763666D02*
X78696333Y-160330333D01*
X78729666Y-160397000D01*
X78763000Y-160430333D01*
X78829666Y-160463666D01*
X78963000Y-160463666D01*
X79029666Y-160430333D01*
X79063000Y-160397000D01*
X79096333Y-160330333D01*
X79096333Y-159763666D01*
X79329666Y-159763666D02*
X79729666Y-159763666D01*
X79529666Y-160463666D02*
X79529666Y-159763666D01*
X79929666Y-160430333D02*
X80029666Y-160463666D01*
X80196333Y-160463666D01*
X80263000Y-160430333D01*
X80296333Y-160397000D01*
X80329666Y-160330333D01*
X80329666Y-160263666D01*
X80296333Y-160197000D01*
X80263000Y-160163666D01*
X80196333Y-160130333D01*
X80063000Y-160097000D01*
X79996333Y-160063666D01*
X79963000Y-160030333D01*
X79929666Y-159963666D01*
X79929666Y-159897000D01*
X79963000Y-159830333D01*
X79996333Y-159797000D01*
X80063000Y-159763666D01*
X80229666Y-159763666D01*
X80329666Y-159797000D01*
X74580714Y-157882238D02*
X74437857Y-157834619D01*
X74199761Y-157834619D01*
X74104523Y-157882238D01*
X74056904Y-157929857D01*
X74009285Y-158025095D01*
X74009285Y-158120333D01*
X74056904Y-158215571D01*
X74104523Y-158263190D01*
X74199761Y-158310809D01*
X74390238Y-158358428D01*
X74485476Y-158406047D01*
X74533095Y-158453666D01*
X74580714Y-158548904D01*
X74580714Y-158644142D01*
X74533095Y-158739380D01*
X74485476Y-158787000D01*
X74390238Y-158834619D01*
X74152142Y-158834619D01*
X74009285Y-158787000D01*
X74675952Y-154995571D02*
X73914047Y-154995571D01*
X74295000Y-154614619D02*
X74295000Y-155376523D01*
X74675952Y-151775571D02*
X73914047Y-151775571D01*
X29726047Y-151582380D02*
X29726047Y-150582380D01*
X30297476Y-151582380D02*
X29868904Y-151010952D01*
X30297476Y-150582380D02*
X29726047Y-151153809D01*
X30726047Y-151201428D02*
X31487952Y-151201428D01*
X31107000Y-151582380D02*
X31107000Y-150820476D01*
X13843095Y-153614380D02*
X13509761Y-153138190D01*
X13271666Y-153614380D02*
X13271666Y-152614380D01*
X13652619Y-152614380D01*
X13747857Y-152662000D01*
X13795476Y-152709619D01*
X13843095Y-152804857D01*
X13843095Y-152947714D01*
X13795476Y-153042952D01*
X13747857Y-153090571D01*
X13652619Y-153138190D01*
X13271666Y-153138190D01*
X14271666Y-153614380D02*
X14271666Y-152614380D01*
X14652619Y-152614380D01*
X14747857Y-152662000D01*
X14795476Y-152709619D01*
X14843095Y-152804857D01*
X14843095Y-152947714D01*
X14795476Y-153042952D01*
X14747857Y-153090571D01*
X14652619Y-153138190D01*
X14271666Y-153138190D01*
X15271666Y-153614380D02*
X15271666Y-152614380D01*
X15605000Y-153328666D01*
X15938333Y-152614380D01*
X15938333Y-153614380D01*
X13866952Y-161091571D02*
X14009809Y-161139190D01*
X14057428Y-161186809D01*
X14105047Y-161282047D01*
X14105047Y-161424904D01*
X14057428Y-161520142D01*
X14009809Y-161567761D01*
X13914571Y-161615380D01*
X13533619Y-161615380D01*
X13533619Y-160615380D01*
X13866952Y-160615380D01*
X13962190Y-160663000D01*
X14009809Y-160710619D01*
X14057428Y-160805857D01*
X14057428Y-160901095D01*
X14009809Y-160996333D01*
X13962190Y-161043952D01*
X13866952Y-161091571D01*
X13533619Y-161091571D01*
X14486000Y-161329666D02*
X14962190Y-161329666D01*
X14390761Y-161615380D02*
X14724095Y-160615380D01*
X15057428Y-161615380D01*
X15247904Y-160615380D02*
X15819333Y-160615380D01*
X15533619Y-161615380D02*
X15533619Y-160615380D01*
X16009809Y-160615380D02*
X16581238Y-160615380D01*
X16295523Y-161615380D02*
X16295523Y-160615380D01*
X13176333Y-182268761D02*
X13319190Y-182316380D01*
X13557285Y-182316380D01*
X13652523Y-182268761D01*
X13700142Y-182221142D01*
X13747761Y-182125904D01*
X13747761Y-182030666D01*
X13700142Y-181935428D01*
X13652523Y-181887809D01*
X13557285Y-181840190D01*
X13366809Y-181792571D01*
X13271571Y-181744952D01*
X13223952Y-181697333D01*
X13176333Y-181602095D01*
X13176333Y-181506857D01*
X13223952Y-181411619D01*
X13271571Y-181364000D01*
X13366809Y-181316380D01*
X13604904Y-181316380D01*
X13747761Y-181364000D01*
X14033476Y-181316380D02*
X14604904Y-181316380D01*
X14319190Y-182316380D02*
X14319190Y-181316380D01*
X80084000Y-171447666D02*
X80084000Y-172014333D01*
X80117333Y-172081000D01*
X80150666Y-172114333D01*
X80217333Y-172147666D01*
X80350666Y-172147666D01*
X80417333Y-172114333D01*
X80450666Y-172081000D01*
X80484000Y-172014333D01*
X80484000Y-171447666D01*
X80784000Y-171947666D02*
X81117333Y-171947666D01*
X80717333Y-172147666D02*
X80950666Y-171447666D01*
X81184000Y-172147666D01*
X81817333Y-172147666D02*
X81584000Y-171814333D01*
X81417333Y-172147666D02*
X81417333Y-171447666D01*
X81684000Y-171447666D01*
X81750666Y-171481000D01*
X81784000Y-171514333D01*
X81817333Y-171581000D01*
X81817333Y-171681000D01*
X81784000Y-171747666D01*
X81750666Y-171781000D01*
X81684000Y-171814333D01*
X81417333Y-171814333D01*
X82017333Y-171447666D02*
X82417333Y-171447666D01*
X82217333Y-172147666D02*
X82217333Y-171447666D01*
X82784000Y-171447666D02*
X82850666Y-171447666D01*
X82917333Y-171481000D01*
X82950666Y-171514333D01*
X82984000Y-171581000D01*
X83017333Y-171714333D01*
X83017333Y-171881000D01*
X82984000Y-172014333D01*
X82950666Y-172081000D01*
X82917333Y-172114333D01*
X82850666Y-172147666D01*
X82784000Y-172147666D01*
X82717333Y-172114333D01*
X82684000Y-172081000D01*
X82650666Y-172014333D01*
X82617333Y-171881000D01*
X82617333Y-171714333D01*
X82650666Y-171581000D01*
X82684000Y-171514333D01*
X82717333Y-171481000D01*
X82784000Y-171447666D01*
X40735333Y-186332761D02*
X40878190Y-186380380D01*
X41116285Y-186380380D01*
X41211523Y-186332761D01*
X41259142Y-186285142D01*
X41306761Y-186189904D01*
X41306761Y-186094666D01*
X41259142Y-185999428D01*
X41211523Y-185951809D01*
X41116285Y-185904190D01*
X40925809Y-185856571D01*
X40830571Y-185808952D01*
X40782952Y-185761333D01*
X40735333Y-185666095D01*
X40735333Y-185570857D01*
X40782952Y-185475619D01*
X40830571Y-185428000D01*
X40925809Y-185380380D01*
X41163904Y-185380380D01*
X41306761Y-185428000D01*
X41592476Y-185380380D02*
X42163904Y-185380380D01*
X41878190Y-186380380D02*
X41878190Y-185380380D01*
X16296142Y-150630000D02*
X16200904Y-150582380D01*
X16058047Y-150582380D01*
X15915190Y-150630000D01*
X15819952Y-150725238D01*
X15772333Y-150820476D01*
X15724714Y-151010952D01*
X15724714Y-151153809D01*
X15772333Y-151344285D01*
X15819952Y-151439523D01*
X15915190Y-151534761D01*
X16058047Y-151582380D01*
X16153285Y-151582380D01*
X16296142Y-151534761D01*
X16343761Y-151487142D01*
X16343761Y-151153809D01*
X16153285Y-151153809D01*
X16772333Y-151582380D02*
X16772333Y-150582380D01*
X17343761Y-151582380D01*
X17343761Y-150582380D01*
X17819952Y-151582380D02*
X17819952Y-150582380D01*
X18058047Y-150582380D01*
X18200904Y-150630000D01*
X18296142Y-150725238D01*
X18343761Y-150820476D01*
X18391380Y-151010952D01*
X18391380Y-151153809D01*
X18343761Y-151344285D01*
X18296142Y-151439523D01*
X18200904Y-151534761D01*
X18058047Y-151582380D01*
X17819952Y-151582380D01*
X20058047Y-150582380D02*
X19581857Y-150582380D01*
X19534238Y-151058571D01*
X19581857Y-151010952D01*
X19677095Y-150963333D01*
X19915190Y-150963333D01*
X20010428Y-151010952D01*
X20058047Y-151058571D01*
X20105666Y-151153809D01*
X20105666Y-151391904D01*
X20058047Y-151487142D01*
X20010428Y-151534761D01*
X19915190Y-151582380D01*
X19677095Y-151582380D01*
X19581857Y-151534761D01*
X19534238Y-151487142D01*
X20391380Y-150582380D02*
X20724714Y-151582380D01*
X21058047Y-150582380D01*
X22105666Y-151534761D02*
X22248523Y-151582380D01*
X22486619Y-151582380D01*
X22581857Y-151534761D01*
X22629476Y-151487142D01*
X22677095Y-151391904D01*
X22677095Y-151296666D01*
X22629476Y-151201428D01*
X22581857Y-151153809D01*
X22486619Y-151106190D01*
X22296142Y-151058571D01*
X22200904Y-151010952D01*
X22153285Y-150963333D01*
X22105666Y-150868095D01*
X22105666Y-150772857D01*
X22153285Y-150677619D01*
X22200904Y-150630000D01*
X22296142Y-150582380D01*
X22534238Y-150582380D01*
X22677095Y-150630000D01*
X23105666Y-151582380D02*
X23105666Y-150582380D01*
X24105666Y-150630000D02*
X24010428Y-150582380D01*
X23867571Y-150582380D01*
X23724714Y-150630000D01*
X23629476Y-150725238D01*
X23581857Y-150820476D01*
X23534238Y-151010952D01*
X23534238Y-151153809D01*
X23581857Y-151344285D01*
X23629476Y-151439523D01*
X23724714Y-151534761D01*
X23867571Y-151582380D01*
X23962809Y-151582380D01*
X24105666Y-151534761D01*
X24153285Y-151487142D01*
X24153285Y-151153809D01*
X23962809Y-151153809D01*
X74755476Y-150455380D02*
X75326904Y-150455380D01*
X75041190Y-151455380D02*
X75041190Y-150455380D01*
X75660238Y-151455380D02*
X75660238Y-150455380D01*
X75660238Y-150931571D02*
X76231666Y-150931571D01*
X76231666Y-151455380D02*
X76231666Y-150455380D01*
X13231904Y-194254380D02*
X13231904Y-193254380D01*
X13612857Y-193254380D01*
X13708095Y-193302000D01*
X13755714Y-193349619D01*
X13803333Y-193444857D01*
X13803333Y-193587714D01*
X13755714Y-193682952D01*
X13708095Y-193730571D01*
X13612857Y-193778190D01*
X13231904Y-193778190D01*
X14184285Y-193349619D02*
X14231904Y-193302000D01*
X14327142Y-193254380D01*
X14565238Y-193254380D01*
X14660476Y-193302000D01*
X14708095Y-193349619D01*
X14755714Y-193444857D01*
X14755714Y-193540095D01*
X14708095Y-193682952D01*
X14136666Y-194254380D01*
X14755714Y-194254380D01*
X13962095Y-166822380D02*
X13962095Y-165822380D01*
X14533523Y-166822380D02*
X14104952Y-166250952D01*
X14533523Y-165822380D02*
X13962095Y-166393809D01*
X13485904Y-169743380D02*
X13485904Y-168743380D01*
X14057333Y-169743380D02*
X13628761Y-169171952D01*
X14057333Y-168743380D02*
X13485904Y-169314809D01*
X14438285Y-169695761D02*
X14581142Y-169743380D01*
X14819238Y-169743380D01*
X14914476Y-169695761D01*
X14962095Y-169648142D01*
X15009714Y-169552904D01*
X15009714Y-169457666D01*
X14962095Y-169362428D01*
X14914476Y-169314809D01*
X14819238Y-169267190D01*
X14628761Y-169219571D01*
X14533523Y-169171952D01*
X14485904Y-169124333D01*
X14438285Y-169029095D01*
X14438285Y-168933857D01*
X14485904Y-168838619D01*
X14533523Y-168791000D01*
X14628761Y-168743380D01*
X14866857Y-168743380D01*
X15009714Y-168791000D01*
X51458904Y-178633380D02*
X51458904Y-177633380D01*
X51839857Y-177633380D01*
X51935095Y-177681000D01*
X51982714Y-177728619D01*
X52030333Y-177823857D01*
X52030333Y-177966714D01*
X51982714Y-178061952D01*
X51935095Y-178109571D01*
X51839857Y-178157190D01*
X51458904Y-178157190D01*
X52982714Y-178633380D02*
X52411285Y-178633380D01*
X52697000Y-178633380D02*
X52697000Y-177633380D01*
X52601761Y-177776238D01*
X52506523Y-177871476D01*
X52411285Y-177919095D01*
X43132523Y-195889571D02*
X43465857Y-195889571D01*
X43608714Y-196413380D02*
X43132523Y-196413380D01*
X43132523Y-195413380D01*
X43608714Y-195413380D01*
X43989666Y-196365761D02*
X44132523Y-196413380D01*
X44370619Y-196413380D01*
X44465857Y-196365761D01*
X44513476Y-196318142D01*
X44561095Y-196222904D01*
X44561095Y-196127666D01*
X44513476Y-196032428D01*
X44465857Y-195984809D01*
X44370619Y-195937190D01*
X44180142Y-195889571D01*
X44084904Y-195841952D01*
X44037285Y-195794333D01*
X43989666Y-195699095D01*
X43989666Y-195603857D01*
X44037285Y-195508619D01*
X44084904Y-195461000D01*
X44180142Y-195413380D01*
X44418238Y-195413380D01*
X44561095Y-195461000D01*
X45561095Y-196318142D02*
X45513476Y-196365761D01*
X45370619Y-196413380D01*
X45275380Y-196413380D01*
X45132523Y-196365761D01*
X45037285Y-196270523D01*
X44989666Y-196175285D01*
X44942047Y-195984809D01*
X44942047Y-195841952D01*
X44989666Y-195651476D01*
X45037285Y-195556238D01*
X45132523Y-195461000D01*
X45275380Y-195413380D01*
X45370619Y-195413380D01*
X45513476Y-195461000D01*
X45561095Y-195508619D01*
X53871904Y-178633380D02*
X53871904Y-177633380D01*
X54252857Y-177633380D01*
X54348095Y-177681000D01*
X54395714Y-177728619D01*
X54443333Y-177823857D01*
X54443333Y-177966714D01*
X54395714Y-178061952D01*
X54348095Y-178109571D01*
X54252857Y-178157190D01*
X53871904Y-178157190D01*
X54824285Y-177728619D02*
X54871904Y-177681000D01*
X54967142Y-177633380D01*
X55205238Y-177633380D01*
X55300476Y-177681000D01*
X55348095Y-177728619D01*
X55395714Y-177823857D01*
X55395714Y-177919095D01*
X55348095Y-178061952D01*
X54776666Y-178633380D01*
X55395714Y-178633380D01*
X46251904Y-186380380D02*
X46251904Y-185380380D01*
X46632857Y-185380380D01*
X46728095Y-185428000D01*
X46775714Y-185475619D01*
X46823333Y-185570857D01*
X46823333Y-185713714D01*
X46775714Y-185808952D01*
X46728095Y-185856571D01*
X46632857Y-185904190D01*
X46251904Y-185904190D01*
X47204285Y-185475619D02*
X47251904Y-185428000D01*
X47347142Y-185380380D01*
X47585238Y-185380380D01*
X47680476Y-185428000D01*
X47728095Y-185475619D01*
X47775714Y-185570857D01*
X47775714Y-185666095D01*
X47728095Y-185808952D01*
X47156666Y-186380380D01*
X47775714Y-186380380D01*
X32099476Y-152868380D02*
X32670904Y-152868380D01*
X32385190Y-153868380D02*
X32385190Y-152868380D01*
X33004238Y-153344571D02*
X33337571Y-153344571D01*
X33480428Y-153868380D02*
X33004238Y-153868380D01*
X33004238Y-152868380D01*
X33480428Y-152868380D01*
X33909000Y-153868380D02*
X33909000Y-152868380D01*
X34242333Y-153582666D01*
X34575666Y-152868380D01*
X34575666Y-153868380D01*
X35051857Y-153868380D02*
X35051857Y-152868380D01*
X35432809Y-152868380D01*
X35528047Y-152916000D01*
X35575666Y-152963619D01*
X35623285Y-153058857D01*
X35623285Y-153201714D01*
X35575666Y-153296952D01*
X35528047Y-153344571D01*
X35432809Y-153392190D01*
X35051857Y-153392190D01*
X39211285Y-188319761D02*
X39354142Y-188367380D01*
X39592238Y-188367380D01*
X39687476Y-188319761D01*
X39735095Y-188272142D01*
X39782714Y-188176904D01*
X39782714Y-188081666D01*
X39735095Y-187986428D01*
X39687476Y-187938809D01*
X39592238Y-187891190D01*
X39401761Y-187843571D01*
X39306523Y-187795952D01*
X39258904Y-187748333D01*
X39211285Y-187653095D01*
X39211285Y-187557857D01*
X39258904Y-187462619D01*
X39306523Y-187415000D01*
X39401761Y-187367380D01*
X39639857Y-187367380D01*
X39782714Y-187415000D01*
X39116047Y-191206428D02*
X39877952Y-191206428D01*
X39497000Y-191587380D02*
X39497000Y-190825476D01*
X39116047Y-194426428D02*
X39877952Y-194426428D01*
X80526095Y-150455380D02*
X81097523Y-150455380D01*
X80811809Y-151455380D02*
X80811809Y-150455380D01*
X81907047Y-151455380D02*
X81430857Y-151455380D01*
X81430857Y-150455380D01*
X82240380Y-151455380D02*
X82240380Y-150455380D01*
X82573714Y-151169666D01*
X82907047Y-150455380D01*
X82907047Y-151455380D01*
X48863333Y-178585761D02*
X49006190Y-178633380D01*
X49244285Y-178633380D01*
X49339523Y-178585761D01*
X49387142Y-178538142D01*
X49434761Y-178442904D01*
X49434761Y-178347666D01*
X49387142Y-178252428D01*
X49339523Y-178204809D01*
X49244285Y-178157190D01*
X49053809Y-178109571D01*
X48958571Y-178061952D01*
X48910952Y-178014333D01*
X48863333Y-177919095D01*
X48863333Y-177823857D01*
X48910952Y-177728619D01*
X48958571Y-177681000D01*
X49053809Y-177633380D01*
X49291904Y-177633380D01*
X49434761Y-177681000D01*
X49720476Y-177633380D02*
X50291904Y-177633380D01*
X50006190Y-178633380D02*
X50006190Y-177633380D01*
X13358904Y-188158380D02*
X13358904Y-187158380D01*
X13739857Y-187158380D01*
X13835095Y-187206000D01*
X13882714Y-187253619D01*
X13930333Y-187348857D01*
X13930333Y-187491714D01*
X13882714Y-187586952D01*
X13835095Y-187634571D01*
X13739857Y-187682190D01*
X13358904Y-187682190D01*
X14882714Y-188158380D02*
X14311285Y-188158380D01*
X14597000Y-188158380D02*
X14597000Y-187158380D01*
X14501761Y-187301238D01*
X14406523Y-187396476D01*
X14311285Y-187444095D01*
X50804333Y-188799000D02*
X50904333Y-188832333D01*
X50937666Y-188865666D01*
X50971000Y-188932333D01*
X50971000Y-189032333D01*
X50937666Y-189099000D01*
X50904333Y-189132333D01*
X50837666Y-189165666D01*
X50571000Y-189165666D01*
X50571000Y-188465666D01*
X50804333Y-188465666D01*
X50871000Y-188499000D01*
X50904333Y-188532333D01*
X50937666Y-188599000D01*
X50937666Y-188665666D01*
X50904333Y-188732333D01*
X50871000Y-188765666D01*
X50804333Y-188799000D01*
X50571000Y-188799000D01*
X51404333Y-188465666D02*
X51537666Y-188465666D01*
X51604333Y-188499000D01*
X51671000Y-188565666D01*
X51704333Y-188699000D01*
X51704333Y-188932333D01*
X51671000Y-189065666D01*
X51604333Y-189132333D01*
X51537666Y-189165666D01*
X51404333Y-189165666D01*
X51337666Y-189132333D01*
X51271000Y-189065666D01*
X51237666Y-188932333D01*
X51237666Y-188699000D01*
X51271000Y-188565666D01*
X51337666Y-188499000D01*
X51404333Y-188465666D01*
X52137666Y-188465666D02*
X52271000Y-188465666D01*
X52337666Y-188499000D01*
X52404333Y-188565666D01*
X52437666Y-188699000D01*
X52437666Y-188932333D01*
X52404333Y-189065666D01*
X52337666Y-189132333D01*
X52271000Y-189165666D01*
X52137666Y-189165666D01*
X52071000Y-189132333D01*
X52004333Y-189065666D01*
X51971000Y-188932333D01*
X51971000Y-188699000D01*
X52004333Y-188565666D01*
X52071000Y-188499000D01*
X52137666Y-188465666D01*
X52637666Y-188465666D02*
X53037666Y-188465666D01*
X52837666Y-189165666D02*
X52837666Y-188465666D01*
X53604333Y-189165666D02*
X53271000Y-189165666D01*
X53271000Y-188465666D01*
X53971000Y-188465666D02*
X54104333Y-188465666D01*
X54171000Y-188499000D01*
X54237666Y-188565666D01*
X54271000Y-188699000D01*
X54271000Y-188932333D01*
X54237666Y-189065666D01*
X54171000Y-189132333D01*
X54104333Y-189165666D01*
X53971000Y-189165666D01*
X53904333Y-189132333D01*
X53837666Y-189065666D01*
X53804333Y-188932333D01*
X53804333Y-188699000D01*
X53837666Y-188565666D01*
X53904333Y-188499000D01*
X53971000Y-188465666D01*
X54537666Y-188965666D02*
X54871000Y-188965666D01*
X54471000Y-189165666D02*
X54704333Y-188465666D01*
X54937666Y-189165666D01*
X55171000Y-189165666D02*
X55171000Y-188465666D01*
X55337666Y-188465666D01*
X55437666Y-188499000D01*
X55504333Y-188565666D01*
X55537666Y-188632333D01*
X55571000Y-188765666D01*
X55571000Y-188865666D01*
X55537666Y-188999000D01*
X55504333Y-189065666D01*
X55437666Y-189132333D01*
X55337666Y-189165666D01*
X55171000Y-189165666D01*
X55871000Y-188799000D02*
X56104333Y-188799000D01*
X56204333Y-189165666D02*
X55871000Y-189165666D01*
X55871000Y-188465666D01*
X56204333Y-188465666D01*
X56904333Y-189165666D02*
X56671000Y-188832333D01*
X56504333Y-189165666D02*
X56504333Y-188465666D01*
X56771000Y-188465666D01*
X56837666Y-188499000D01*
X56871000Y-188532333D01*
X56904333Y-188599000D01*
X56904333Y-188699000D01*
X56871000Y-188765666D01*
X56837666Y-188799000D01*
X56771000Y-188832333D01*
X56504333Y-188832333D01*
X79994309Y-173567380D02*
X80613357Y-173567380D01*
X80280023Y-173948333D01*
X80422880Y-173948333D01*
X80518119Y-173995952D01*
X80565738Y-174043571D01*
X80613357Y-174138809D01*
X80613357Y-174376904D01*
X80565738Y-174472142D01*
X80518119Y-174519761D01*
X80422880Y-174567380D01*
X80137166Y-174567380D01*
X80041928Y-174519761D01*
X79994309Y-174472142D01*
X81041928Y-174472142D02*
X81089547Y-174519761D01*
X81041928Y-174567380D01*
X80994309Y-174519761D01*
X81041928Y-174472142D01*
X81041928Y-174567380D01*
X81422880Y-173567380D02*
X82041928Y-173567380D01*
X81708595Y-173948333D01*
X81851452Y-173948333D01*
X81946690Y-173995952D01*
X81994309Y-174043571D01*
X82041928Y-174138809D01*
X82041928Y-174376904D01*
X81994309Y-174472142D01*
X81946690Y-174519761D01*
X81851452Y-174567380D01*
X81565738Y-174567380D01*
X81470500Y-174519761D01*
X81422880Y-174472142D01*
X82327642Y-173567380D02*
X82660976Y-174567380D01*
X82994309Y-173567380D01*
X80708595Y-175177380D02*
X81280023Y-175177380D01*
X80994309Y-176177380D02*
X80994309Y-175177380D01*
X81518119Y-175177380D02*
X82184785Y-176177380D01*
X82184785Y-175177380D02*
X81518119Y-176177380D01*
X81303833Y-177787380D02*
X80970500Y-177311190D01*
X80732404Y-177787380D02*
X80732404Y-176787380D01*
X81113357Y-176787380D01*
X81208595Y-176835000D01*
X81256214Y-176882619D01*
X81303833Y-176977857D01*
X81303833Y-177120714D01*
X81256214Y-177215952D01*
X81208595Y-177263571D01*
X81113357Y-177311190D01*
X80732404Y-177311190D01*
X81637166Y-176787380D02*
X82303833Y-177787380D01*
X82303833Y-176787380D02*
X81637166Y-177787380D01*
X80708595Y-178445000D02*
X80613357Y-178397380D01*
X80470500Y-178397380D01*
X80327642Y-178445000D01*
X80232404Y-178540238D01*
X80184785Y-178635476D01*
X80137166Y-178825952D01*
X80137166Y-178968809D01*
X80184785Y-179159285D01*
X80232404Y-179254523D01*
X80327642Y-179349761D01*
X80470500Y-179397380D01*
X80565738Y-179397380D01*
X80708595Y-179349761D01*
X80756214Y-179302142D01*
X80756214Y-178968809D01*
X80565738Y-178968809D01*
X81184785Y-179397380D02*
X81184785Y-178397380D01*
X81756214Y-179397380D01*
X81756214Y-178397380D01*
X82232404Y-179397380D02*
X82232404Y-178397380D01*
X82470500Y-178397380D01*
X82613357Y-178445000D01*
X82708595Y-178540238D01*
X82756214Y-178635476D01*
X82803833Y-178825952D01*
X82803833Y-178968809D01*
X82756214Y-179159285D01*
X82708595Y-179254523D01*
X82613357Y-179349761D01*
X82470500Y-179397380D01*
X82232404Y-179397380D01*
X13827142Y-175268000D02*
X13731904Y-175220380D01*
X13589047Y-175220380D01*
X13446190Y-175268000D01*
X13350952Y-175363238D01*
X13303333Y-175458476D01*
X13255714Y-175648952D01*
X13255714Y-175791809D01*
X13303333Y-175982285D01*
X13350952Y-176077523D01*
X13446190Y-176172761D01*
X13589047Y-176220380D01*
X13684285Y-176220380D01*
X13827142Y-176172761D01*
X13874761Y-176125142D01*
X13874761Y-175791809D01*
X13684285Y-175791809D01*
X14779523Y-176220380D02*
X14303333Y-176220380D01*
X14303333Y-175220380D01*
X43457904Y-186380380D02*
X43457904Y-185380380D01*
X43838857Y-185380380D01*
X43934095Y-185428000D01*
X43981714Y-185475619D01*
X44029333Y-185570857D01*
X44029333Y-185713714D01*
X43981714Y-185808952D01*
X43934095Y-185856571D01*
X43838857Y-185904190D01*
X43457904Y-185904190D01*
X44981714Y-186380380D02*
X44410285Y-186380380D01*
X44696000Y-186380380D02*
X44696000Y-185380380D01*
X44600761Y-185523238D01*
X44505523Y-185618476D01*
X44410285Y-185666095D01*
X27059047Y-151582380D02*
X27059047Y-150582380D01*
X27630476Y-151582380D02*
X27201904Y-151010952D01*
X27630476Y-150582380D02*
X27059047Y-151153809D01*
X28059047Y-151201428D02*
X28820952Y-151201428D01*
X51943095Y-186444000D02*
X51847857Y-186396380D01*
X51705000Y-186396380D01*
X51562142Y-186444000D01*
X51466904Y-186539238D01*
X51419285Y-186634476D01*
X51371666Y-186824952D01*
X51371666Y-186967809D01*
X51419285Y-187158285D01*
X51466904Y-187253523D01*
X51562142Y-187348761D01*
X51705000Y-187396380D01*
X51800238Y-187396380D01*
X51943095Y-187348761D01*
X51990714Y-187301142D01*
X51990714Y-186967809D01*
X51800238Y-186967809D01*
X52419285Y-187396380D02*
X52419285Y-186396380D01*
X52990714Y-187396380D01*
X52990714Y-186396380D01*
X53466904Y-187396380D02*
X53466904Y-186396380D01*
X53705000Y-186396380D01*
X53847857Y-186444000D01*
X53943095Y-186539238D01*
X53990714Y-186634476D01*
X54038333Y-186824952D01*
X54038333Y-186967809D01*
X53990714Y-187158285D01*
X53943095Y-187253523D01*
X53847857Y-187348761D01*
X53705000Y-187396380D01*
X53466904Y-187396380D01*
D11*
X52149523Y-166128571D02*
X52482857Y-166128571D01*
X52625714Y-166652380D02*
X52149523Y-166652380D01*
X52149523Y-165652380D01*
X52625714Y-165652380D01*
X53006666Y-166604761D02*
X53149523Y-166652380D01*
X53387619Y-166652380D01*
X53482857Y-166604761D01*
X53530476Y-166557142D01*
X53578095Y-166461904D01*
X53578095Y-166366666D01*
X53530476Y-166271428D01*
X53482857Y-166223809D01*
X53387619Y-166176190D01*
X53197142Y-166128571D01*
X53101904Y-166080952D01*
X53054285Y-166033333D01*
X53006666Y-165938095D01*
X53006666Y-165842857D01*
X53054285Y-165747619D01*
X53101904Y-165700000D01*
X53197142Y-165652380D01*
X53435238Y-165652380D01*
X53578095Y-165700000D01*
X54578095Y-166557142D02*
X54530476Y-166604761D01*
X54387619Y-166652380D01*
X54292380Y-166652380D01*
X54149523Y-166604761D01*
X54054285Y-166509523D01*
X54006666Y-166414285D01*
X53959047Y-166223809D01*
X53959047Y-166080952D01*
X54006666Y-165890476D01*
X54054285Y-165795238D01*
X54149523Y-165700000D01*
X54292380Y-165652380D01*
X54387619Y-165652380D01*
X54530476Y-165700000D01*
X54578095Y-165747619D01*
X51006666Y-168262380D02*
X51006666Y-167262380D01*
X51244761Y-167262380D01*
X51387619Y-167310000D01*
X51482857Y-167405238D01*
X51530476Y-167500476D01*
X51578095Y-167690952D01*
X51578095Y-167833809D01*
X51530476Y-168024285D01*
X51482857Y-168119523D01*
X51387619Y-168214761D01*
X51244761Y-168262380D01*
X51006666Y-168262380D01*
X52006666Y-168262380D02*
X52006666Y-167262380D01*
X53054285Y-168262380D02*
X52720952Y-167786190D01*
X52482857Y-168262380D02*
X52482857Y-167262380D01*
X52863809Y-167262380D01*
X52959047Y-167310000D01*
X53006666Y-167357619D01*
X53054285Y-167452857D01*
X53054285Y-167595714D01*
X53006666Y-167690952D01*
X52959047Y-167738571D01*
X52863809Y-167786190D01*
X52482857Y-167786190D01*
X53482857Y-167738571D02*
X53816190Y-167738571D01*
X53959047Y-168262380D02*
X53482857Y-168262380D01*
X53482857Y-167262380D01*
X53959047Y-167262380D01*
X54959047Y-168167142D02*
X54911428Y-168214761D01*
X54768571Y-168262380D01*
X54673333Y-168262380D01*
X54530476Y-168214761D01*
X54435238Y-168119523D01*
X54387619Y-168024285D01*
X54340000Y-167833809D01*
X54340000Y-167690952D01*
X54387619Y-167500476D01*
X54435238Y-167405238D01*
X54530476Y-167310000D01*
X54673333Y-167262380D01*
X54768571Y-167262380D01*
X54911428Y-167310000D01*
X54959047Y-167357619D01*
X55244761Y-167262380D02*
X55816190Y-167262380D01*
X55530476Y-168262380D02*
X55530476Y-167262380D01*
D10*
X77374904Y-151169666D02*
X77851095Y-151169666D01*
X77279666Y-151455380D02*
X77613000Y-150455380D01*
X77946333Y-151455380D01*
X78279666Y-150455380D02*
X78279666Y-151264904D01*
X78327285Y-151360142D01*
X78374904Y-151407761D01*
X78470142Y-151455380D01*
X78660619Y-151455380D01*
X78755857Y-151407761D01*
X78803476Y-151360142D01*
X78851095Y-151264904D01*
X78851095Y-150455380D01*
X79232047Y-150455380D02*
X79898714Y-151455380D01*
X79898714Y-150455380D02*
X79232047Y-151455380D01*
%TO.C,TDI1*%
X46823380Y-161520000D02*
X46823380Y-160948571D01*
X47823380Y-161234285D02*
X46823380Y-161234285D01*
X47823380Y-160615238D02*
X46823380Y-160615238D01*
X46823380Y-160377142D01*
X46871000Y-160234285D01*
X46966238Y-160139047D01*
X47061476Y-160091428D01*
X47251952Y-160043809D01*
X47394809Y-160043809D01*
X47585285Y-160091428D01*
X47680523Y-160139047D01*
X47775761Y-160234285D01*
X47823380Y-160377142D01*
X47823380Y-160615238D01*
X47823380Y-159615238D02*
X46823380Y-159615238D01*
X47823380Y-158615238D02*
X47823380Y-159186666D01*
X47823380Y-158900952D02*
X46823380Y-158900952D01*
X46966238Y-158996190D01*
X47061476Y-159091428D01*
X47109095Y-159186666D01*
%TO.C,Q5*%
X34881619Y-186405238D02*
X34834000Y-186500476D01*
X34738761Y-186595714D01*
X34595904Y-186738571D01*
X34548285Y-186833809D01*
X34548285Y-186929047D01*
X34786380Y-186881428D02*
X34738761Y-186976666D01*
X34643523Y-187071904D01*
X34453047Y-187119523D01*
X34119714Y-187119523D01*
X33929238Y-187071904D01*
X33834000Y-186976666D01*
X33786380Y-186881428D01*
X33786380Y-186690952D01*
X33834000Y-186595714D01*
X33929238Y-186500476D01*
X34119714Y-186452857D01*
X34453047Y-186452857D01*
X34643523Y-186500476D01*
X34738761Y-186595714D01*
X34786380Y-186690952D01*
X34786380Y-186881428D01*
X33786380Y-185548095D02*
X33786380Y-186024285D01*
X34262571Y-186071904D01*
X34214952Y-186024285D01*
X34167333Y-185929047D01*
X34167333Y-185690952D01*
X34214952Y-185595714D01*
X34262571Y-185548095D01*
X34357809Y-185500476D01*
X34595904Y-185500476D01*
X34691142Y-185548095D01*
X34738761Y-185595714D01*
X34786380Y-185690952D01*
X34786380Y-185929047D01*
X34738761Y-186024285D01*
X34691142Y-186071904D01*
%TO.C,Q6*%
X34837619Y-193136238D02*
X34790000Y-193231476D01*
X34694761Y-193326714D01*
X34551904Y-193469571D01*
X34504285Y-193564809D01*
X34504285Y-193660047D01*
X34742380Y-193612428D02*
X34694761Y-193707666D01*
X34599523Y-193802904D01*
X34409047Y-193850523D01*
X34075714Y-193850523D01*
X33885238Y-193802904D01*
X33790000Y-193707666D01*
X33742380Y-193612428D01*
X33742380Y-193421952D01*
X33790000Y-193326714D01*
X33885238Y-193231476D01*
X34075714Y-193183857D01*
X34409047Y-193183857D01*
X34599523Y-193231476D01*
X34694761Y-193326714D01*
X34742380Y-193421952D01*
X34742380Y-193612428D01*
X33742380Y-192326714D02*
X33742380Y-192517190D01*
X33790000Y-192612428D01*
X33837619Y-192660047D01*
X33980476Y-192755285D01*
X34170952Y-192802904D01*
X34551904Y-192802904D01*
X34647142Y-192755285D01*
X34694761Y-192707666D01*
X34742380Y-192612428D01*
X34742380Y-192421952D01*
X34694761Y-192326714D01*
X34647142Y-192279095D01*
X34551904Y-192231476D01*
X34313809Y-192231476D01*
X34218571Y-192279095D01*
X34170952Y-192326714D01*
X34123333Y-192421952D01*
X34123333Y-192612428D01*
X34170952Y-192707666D01*
X34218571Y-192755285D01*
X34313809Y-192802904D01*
%TO.C,R4*%
X23582333Y-162758380D02*
X23249000Y-162282190D01*
X23010904Y-162758380D02*
X23010904Y-161758380D01*
X23391857Y-161758380D01*
X23487095Y-161806000D01*
X23534714Y-161853619D01*
X23582333Y-161948857D01*
X23582333Y-162091714D01*
X23534714Y-162186952D01*
X23487095Y-162234571D01*
X23391857Y-162282190D01*
X23010904Y-162282190D01*
X24439476Y-162091714D02*
X24439476Y-162758380D01*
X24201380Y-161710761D02*
X23963285Y-162425047D01*
X24582333Y-162425047D01*
%TO.C,C2*%
X36933142Y-167044666D02*
X36980761Y-167092285D01*
X37028380Y-167235142D01*
X37028380Y-167330380D01*
X36980761Y-167473238D01*
X36885523Y-167568476D01*
X36790285Y-167616095D01*
X36599809Y-167663714D01*
X36456952Y-167663714D01*
X36266476Y-167616095D01*
X36171238Y-167568476D01*
X36076000Y-167473238D01*
X36028380Y-167330380D01*
X36028380Y-167235142D01*
X36076000Y-167092285D01*
X36123619Y-167044666D01*
X36123619Y-166663714D02*
X36076000Y-166616095D01*
X36028380Y-166520857D01*
X36028380Y-166282761D01*
X36076000Y-166187523D01*
X36123619Y-166139904D01*
X36218857Y-166092285D01*
X36314095Y-166092285D01*
X36456952Y-166139904D01*
X37028380Y-166711333D01*
X37028380Y-166092285D01*
%TO.C,C7*%
X37996533Y-163933142D02*
X37948914Y-163980761D01*
X37806057Y-164028380D01*
X37710819Y-164028380D01*
X37567961Y-163980761D01*
X37472723Y-163885523D01*
X37425104Y-163790285D01*
X37377485Y-163599809D01*
X37377485Y-163456952D01*
X37425104Y-163266476D01*
X37472723Y-163171238D01*
X37567961Y-163076000D01*
X37710819Y-163028380D01*
X37806057Y-163028380D01*
X37948914Y-163076000D01*
X37996533Y-163123619D01*
X38329866Y-163028380D02*
X38996533Y-163028380D01*
X38567961Y-164028380D01*
%TO.C,R3*%
X20534333Y-162504380D02*
X20201000Y-162028190D01*
X19962904Y-162504380D02*
X19962904Y-161504380D01*
X20343857Y-161504380D01*
X20439095Y-161552000D01*
X20486714Y-161599619D01*
X20534333Y-161694857D01*
X20534333Y-161837714D01*
X20486714Y-161932952D01*
X20439095Y-161980571D01*
X20343857Y-162028190D01*
X19962904Y-162028190D01*
X20867666Y-161504380D02*
X21486714Y-161504380D01*
X21153380Y-161885333D01*
X21296238Y-161885333D01*
X21391476Y-161932952D01*
X21439095Y-161980571D01*
X21486714Y-162075809D01*
X21486714Y-162313904D01*
X21439095Y-162409142D01*
X21391476Y-162456761D01*
X21296238Y-162504380D01*
X21010523Y-162504380D01*
X20915285Y-162456761D01*
X20867666Y-162409142D01*
%TO.C,R11*%
X38679380Y-173235857D02*
X38203190Y-173569190D01*
X38679380Y-173807285D02*
X37679380Y-173807285D01*
X37679380Y-173426333D01*
X37727000Y-173331095D01*
X37774619Y-173283476D01*
X37869857Y-173235857D01*
X38012714Y-173235857D01*
X38107952Y-173283476D01*
X38155571Y-173331095D01*
X38203190Y-173426333D01*
X38203190Y-173807285D01*
X38679380Y-172283476D02*
X38679380Y-172854904D01*
X38679380Y-172569190D02*
X37679380Y-172569190D01*
X37822238Y-172664428D01*
X37917476Y-172759666D01*
X37965095Y-172854904D01*
X38679380Y-171331095D02*
X38679380Y-171902523D01*
X38679380Y-171616809D02*
X37679380Y-171616809D01*
X37822238Y-171712047D01*
X37917476Y-171807285D01*
X37965095Y-171902523D01*
%TO.C,R7*%
X38425380Y-186348666D02*
X37949190Y-186682000D01*
X38425380Y-186920095D02*
X37425380Y-186920095D01*
X37425380Y-186539142D01*
X37473000Y-186443904D01*
X37520619Y-186396285D01*
X37615857Y-186348666D01*
X37758714Y-186348666D01*
X37853952Y-186396285D01*
X37901571Y-186443904D01*
X37949190Y-186539142D01*
X37949190Y-186920095D01*
X37425380Y-186015333D02*
X37425380Y-185348666D01*
X38425380Y-185777238D01*
%TO.C,R12*%
X31694380Y-165107857D02*
X31218190Y-165441190D01*
X31694380Y-165679285D02*
X30694380Y-165679285D01*
X30694380Y-165298333D01*
X30742000Y-165203095D01*
X30789619Y-165155476D01*
X30884857Y-165107857D01*
X31027714Y-165107857D01*
X31122952Y-165155476D01*
X31170571Y-165203095D01*
X31218190Y-165298333D01*
X31218190Y-165679285D01*
X31694380Y-164155476D02*
X31694380Y-164726904D01*
X31694380Y-164441190D02*
X30694380Y-164441190D01*
X30837238Y-164536428D01*
X30932476Y-164631666D01*
X30980095Y-164726904D01*
X30789619Y-163774523D02*
X30742000Y-163726904D01*
X30694380Y-163631666D01*
X30694380Y-163393571D01*
X30742000Y-163298333D01*
X30789619Y-163250714D01*
X30884857Y-163203095D01*
X30980095Y-163203095D01*
X31122952Y-163250714D01*
X31694380Y-163822142D01*
X31694380Y-163203095D01*
%TO.C,J9*%
X13121571Y-180193142D02*
X14264428Y-180193142D01*
X13693000Y-180764571D02*
X13693000Y-179621714D01*
X26121571Y-180193142D02*
X27264428Y-180193142D01*
%TO.C,GND1*%
X68588000Y-166465095D02*
X68540380Y-166560333D01*
X68540380Y-166703190D01*
X68588000Y-166846047D01*
X68683238Y-166941285D01*
X68778476Y-166988904D01*
X68968952Y-167036523D01*
X69111809Y-167036523D01*
X69302285Y-166988904D01*
X69397523Y-166941285D01*
X69492761Y-166846047D01*
X69540380Y-166703190D01*
X69540380Y-166607952D01*
X69492761Y-166465095D01*
X69445142Y-166417476D01*
X69111809Y-166417476D01*
X69111809Y-166607952D01*
X69540380Y-165988904D02*
X68540380Y-165988904D01*
X69540380Y-165417476D01*
X68540380Y-165417476D01*
X69540380Y-164941285D02*
X68540380Y-164941285D01*
X68540380Y-164703190D01*
X68588000Y-164560333D01*
X68683238Y-164465095D01*
X68778476Y-164417476D01*
X68968952Y-164369857D01*
X69111809Y-164369857D01*
X69302285Y-164417476D01*
X69397523Y-164465095D01*
X69492761Y-164560333D01*
X69540380Y-164703190D01*
X69540380Y-164941285D01*
X69540380Y-163417476D02*
X69540380Y-163988904D01*
X69540380Y-163703190D02*
X68540380Y-163703190D01*
X68683238Y-163798428D01*
X68778476Y-163893666D01*
X68826095Y-163988904D01*
%TO.C,Q4*%
X34837619Y-179293238D02*
X34790000Y-179388476D01*
X34694761Y-179483714D01*
X34551904Y-179626571D01*
X34504285Y-179721809D01*
X34504285Y-179817047D01*
X34742380Y-179769428D02*
X34694761Y-179864666D01*
X34599523Y-179959904D01*
X34409047Y-180007523D01*
X34075714Y-180007523D01*
X33885238Y-179959904D01*
X33790000Y-179864666D01*
X33742380Y-179769428D01*
X33742380Y-179578952D01*
X33790000Y-179483714D01*
X33885238Y-179388476D01*
X34075714Y-179340857D01*
X34409047Y-179340857D01*
X34599523Y-179388476D01*
X34694761Y-179483714D01*
X34742380Y-179578952D01*
X34742380Y-179769428D01*
X34075714Y-178483714D02*
X34742380Y-178483714D01*
X33694761Y-178721809D02*
X34409047Y-178959904D01*
X34409047Y-178340857D01*
%TO.C,R2*%
X43013333Y-169917380D02*
X42680000Y-169441190D01*
X42441904Y-169917380D02*
X42441904Y-168917380D01*
X42822857Y-168917380D01*
X42918095Y-168965000D01*
X42965714Y-169012619D01*
X43013333Y-169107857D01*
X43013333Y-169250714D01*
X42965714Y-169345952D01*
X42918095Y-169393571D01*
X42822857Y-169441190D01*
X42441904Y-169441190D01*
X43394285Y-169012619D02*
X43441904Y-168965000D01*
X43537142Y-168917380D01*
X43775238Y-168917380D01*
X43870476Y-168965000D01*
X43918095Y-169012619D01*
X43965714Y-169107857D01*
X43965714Y-169203095D01*
X43918095Y-169345952D01*
X43346666Y-169917380D01*
X43965714Y-169917380D01*
%TO.C,R15*%
X62428380Y-168282857D02*
X61952190Y-168616190D01*
X62428380Y-168854285D02*
X61428380Y-168854285D01*
X61428380Y-168473333D01*
X61476000Y-168378095D01*
X61523619Y-168330476D01*
X61618857Y-168282857D01*
X61761714Y-168282857D01*
X61856952Y-168330476D01*
X61904571Y-168378095D01*
X61952190Y-168473333D01*
X61952190Y-168854285D01*
X62428380Y-167330476D02*
X62428380Y-167901904D01*
X62428380Y-167616190D02*
X61428380Y-167616190D01*
X61571238Y-167711428D01*
X61666476Y-167806666D01*
X61714095Y-167901904D01*
X61428380Y-166425714D02*
X61428380Y-166901904D01*
X61904571Y-166949523D01*
X61856952Y-166901904D01*
X61809333Y-166806666D01*
X61809333Y-166568571D01*
X61856952Y-166473333D01*
X61904571Y-166425714D01*
X61999809Y-166378095D01*
X62237904Y-166378095D01*
X62333142Y-166425714D01*
X62380761Y-166473333D01*
X62428380Y-166568571D01*
X62428380Y-166806666D01*
X62380761Y-166901904D01*
X62333142Y-166949523D01*
%TO.C,D18*%
X37774714Y-157805380D02*
X37774714Y-156805380D01*
X38012809Y-156805380D01*
X38155666Y-156853000D01*
X38250904Y-156948238D01*
X38298523Y-157043476D01*
X38346142Y-157233952D01*
X38346142Y-157376809D01*
X38298523Y-157567285D01*
X38250904Y-157662523D01*
X38155666Y-157757761D01*
X38012809Y-157805380D01*
X37774714Y-157805380D01*
X39298523Y-157805380D02*
X38727095Y-157805380D01*
X39012809Y-157805380D02*
X39012809Y-156805380D01*
X38917571Y-156948238D01*
X38822333Y-157043476D01*
X38727095Y-157091095D01*
X39869952Y-157233952D02*
X39774714Y-157186333D01*
X39727095Y-157138714D01*
X39679476Y-157043476D01*
X39679476Y-156995857D01*
X39727095Y-156900619D01*
X39774714Y-156853000D01*
X39869952Y-156805380D01*
X40060428Y-156805380D01*
X40155666Y-156853000D01*
X40203285Y-156900619D01*
X40250904Y-156995857D01*
X40250904Y-157043476D01*
X40203285Y-157138714D01*
X40155666Y-157186333D01*
X40060428Y-157233952D01*
X39869952Y-157233952D01*
X39774714Y-157281571D01*
X39727095Y-157329190D01*
X39679476Y-157424428D01*
X39679476Y-157614904D01*
X39727095Y-157710142D01*
X39774714Y-157757761D01*
X39869952Y-157805380D01*
X40060428Y-157805380D01*
X40155666Y-157757761D01*
X40203285Y-157710142D01*
X40250904Y-157614904D01*
X40250904Y-157424428D01*
X40203285Y-157329190D01*
X40155666Y-157281571D01*
X40060428Y-157233952D01*
%TO.C,TMS1*%
X59269380Y-163480523D02*
X59269380Y-162909095D01*
X60269380Y-163194809D02*
X59269380Y-163194809D01*
X60269380Y-162575761D02*
X59269380Y-162575761D01*
X59983666Y-162242428D01*
X59269380Y-161909095D01*
X60269380Y-161909095D01*
X60221761Y-161480523D02*
X60269380Y-161337666D01*
X60269380Y-161099571D01*
X60221761Y-161004333D01*
X60174142Y-160956714D01*
X60078904Y-160909095D01*
X59983666Y-160909095D01*
X59888428Y-160956714D01*
X59840809Y-161004333D01*
X59793190Y-161099571D01*
X59745571Y-161290047D01*
X59697952Y-161385285D01*
X59650333Y-161432904D01*
X59555095Y-161480523D01*
X59459857Y-161480523D01*
X59364619Y-161432904D01*
X59317000Y-161385285D01*
X59269380Y-161290047D01*
X59269380Y-161051952D01*
X59317000Y-160909095D01*
X60269380Y-159956714D02*
X60269380Y-160528142D01*
X60269380Y-160242428D02*
X59269380Y-160242428D01*
X59412238Y-160337666D01*
X59507476Y-160432904D01*
X59555095Y-160528142D01*
%TO.C,TCK1*%
X66381380Y-166988904D02*
X66381380Y-166417476D01*
X67381380Y-166703190D02*
X66381380Y-166703190D01*
X67286142Y-165512714D02*
X67333761Y-165560333D01*
X67381380Y-165703190D01*
X67381380Y-165798428D01*
X67333761Y-165941285D01*
X67238523Y-166036523D01*
X67143285Y-166084142D01*
X66952809Y-166131761D01*
X66809952Y-166131761D01*
X66619476Y-166084142D01*
X66524238Y-166036523D01*
X66429000Y-165941285D01*
X66381380Y-165798428D01*
X66381380Y-165703190D01*
X66429000Y-165560333D01*
X66476619Y-165512714D01*
X67381380Y-165084142D02*
X66381380Y-165084142D01*
X67381380Y-164512714D02*
X66809952Y-164941285D01*
X66381380Y-164512714D02*
X66952809Y-165084142D01*
X67381380Y-163560333D02*
X67381380Y-164131761D01*
X67381380Y-163846047D02*
X66381380Y-163846047D01*
X66524238Y-163941285D01*
X66619476Y-164036523D01*
X66667095Y-164131761D01*
%TO.C,Q2*%
X34802619Y-172308238D02*
X34755000Y-172403476D01*
X34659761Y-172498714D01*
X34516904Y-172641571D01*
X34469285Y-172736809D01*
X34469285Y-172832047D01*
X34707380Y-172784428D02*
X34659761Y-172879666D01*
X34564523Y-172974904D01*
X34374047Y-173022523D01*
X34040714Y-173022523D01*
X33850238Y-172974904D01*
X33755000Y-172879666D01*
X33707380Y-172784428D01*
X33707380Y-172593952D01*
X33755000Y-172498714D01*
X33850238Y-172403476D01*
X34040714Y-172355857D01*
X34374047Y-172355857D01*
X34564523Y-172403476D01*
X34659761Y-172498714D01*
X34707380Y-172593952D01*
X34707380Y-172784428D01*
X33802619Y-171974904D02*
X33755000Y-171927285D01*
X33707380Y-171832047D01*
X33707380Y-171593952D01*
X33755000Y-171498714D01*
X33802619Y-171451095D01*
X33897857Y-171403476D01*
X33993095Y-171403476D01*
X34135952Y-171451095D01*
X34707380Y-172022523D01*
X34707380Y-171403476D01*
%TO.C,J8*%
X13288571Y-157587142D02*
X14431428Y-157587142D01*
X13860000Y-158158571D02*
X13860000Y-157015714D01*
X26288571Y-157587142D02*
X27431428Y-157587142D01*
%TO.C,R10*%
X31694380Y-168282857D02*
X31218190Y-168616190D01*
X31694380Y-168854285D02*
X30694380Y-168854285D01*
X30694380Y-168473333D01*
X30742000Y-168378095D01*
X30789619Y-168330476D01*
X30884857Y-168282857D01*
X31027714Y-168282857D01*
X31122952Y-168330476D01*
X31170571Y-168378095D01*
X31218190Y-168473333D01*
X31218190Y-168854285D01*
X31694380Y-167330476D02*
X31694380Y-167901904D01*
X31694380Y-167616190D02*
X30694380Y-167616190D01*
X30837238Y-167711428D01*
X30932476Y-167806666D01*
X30980095Y-167901904D01*
X30694380Y-166711428D02*
X30694380Y-166616190D01*
X30742000Y-166520952D01*
X30789619Y-166473333D01*
X30884857Y-166425714D01*
X31075333Y-166378095D01*
X31313428Y-166378095D01*
X31503904Y-166425714D01*
X31599142Y-166473333D01*
X31646761Y-166520952D01*
X31694380Y-166616190D01*
X31694380Y-166711428D01*
X31646761Y-166806666D01*
X31599142Y-166854285D01*
X31503904Y-166901904D01*
X31313428Y-166949523D01*
X31075333Y-166949523D01*
X30884857Y-166901904D01*
X30789619Y-166854285D01*
X30742000Y-166806666D01*
X30694380Y-166711428D01*
%TO.C,D19*%
X45664380Y-166695285D02*
X44664380Y-166695285D01*
X44664380Y-166457190D01*
X44712000Y-166314333D01*
X44807238Y-166219095D01*
X44902476Y-166171476D01*
X45092952Y-166123857D01*
X45235809Y-166123857D01*
X45426285Y-166171476D01*
X45521523Y-166219095D01*
X45616761Y-166314333D01*
X45664380Y-166457190D01*
X45664380Y-166695285D01*
X45664380Y-165171476D02*
X45664380Y-165742904D01*
X45664380Y-165457190D02*
X44664380Y-165457190D01*
X44807238Y-165552428D01*
X44902476Y-165647666D01*
X44950095Y-165742904D01*
X45664380Y-164695285D02*
X45664380Y-164504809D01*
X45616761Y-164409571D01*
X45569142Y-164361952D01*
X45426285Y-164266714D01*
X45235809Y-164219095D01*
X44854857Y-164219095D01*
X44759619Y-164266714D01*
X44712000Y-164314333D01*
X44664380Y-164409571D01*
X44664380Y-164600047D01*
X44712000Y-164695285D01*
X44759619Y-164742904D01*
X44854857Y-164790523D01*
X45092952Y-164790523D01*
X45188190Y-164742904D01*
X45235809Y-164695285D01*
X45283428Y-164600047D01*
X45283428Y-164409571D01*
X45235809Y-164314333D01*
X45188190Y-164266714D01*
X45092952Y-164219095D01*
%TO.C,R1*%
X42886333Y-179014380D02*
X42553000Y-178538190D01*
X42314904Y-179014380D02*
X42314904Y-178014380D01*
X42695857Y-178014380D01*
X42791095Y-178062000D01*
X42838714Y-178109619D01*
X42886333Y-178204857D01*
X42886333Y-178347714D01*
X42838714Y-178442952D01*
X42791095Y-178490571D01*
X42695857Y-178538190D01*
X42314904Y-178538190D01*
X43838714Y-179014380D02*
X43267285Y-179014380D01*
X43553000Y-179014380D02*
X43553000Y-178014380D01*
X43457761Y-178157238D01*
X43362523Y-178252476D01*
X43267285Y-178300095D01*
%TO.C,R6*%
X39203333Y-170124380D02*
X38870000Y-169648190D01*
X38631904Y-170124380D02*
X38631904Y-169124380D01*
X39012857Y-169124380D01*
X39108095Y-169172000D01*
X39155714Y-169219619D01*
X39203333Y-169314857D01*
X39203333Y-169457714D01*
X39155714Y-169552952D01*
X39108095Y-169600571D01*
X39012857Y-169648190D01*
X38631904Y-169648190D01*
X40060476Y-169124380D02*
X39870000Y-169124380D01*
X39774761Y-169172000D01*
X39727142Y-169219619D01*
X39631904Y-169362476D01*
X39584285Y-169552952D01*
X39584285Y-169933904D01*
X39631904Y-170029142D01*
X39679523Y-170076761D01*
X39774761Y-170124380D01*
X39965238Y-170124380D01*
X40060476Y-170076761D01*
X40108095Y-170029142D01*
X40155714Y-169933904D01*
X40155714Y-169695809D01*
X40108095Y-169600571D01*
X40060476Y-169552952D01*
X39965238Y-169505333D01*
X39774761Y-169505333D01*
X39679523Y-169552952D01*
X39631904Y-169600571D01*
X39584285Y-169695809D01*
%TO.C,U1*%
X71207380Y-179069904D02*
X72016904Y-179069904D01*
X72112142Y-179022285D01*
X72159761Y-178974666D01*
X72207380Y-178879428D01*
X72207380Y-178688952D01*
X72159761Y-178593714D01*
X72112142Y-178546095D01*
X72016904Y-178498476D01*
X71207380Y-178498476D01*
X72207380Y-177498476D02*
X72207380Y-178069904D01*
X72207380Y-177784190D02*
X71207380Y-177784190D01*
X71350238Y-177879428D01*
X71445476Y-177974666D01*
X71493095Y-178069904D01*
%TO.C,Q1*%
X27336761Y-162726619D02*
X27241523Y-162679000D01*
X27146285Y-162583761D01*
X27003428Y-162440904D01*
X26908190Y-162393285D01*
X26812952Y-162393285D01*
X26860571Y-162631380D02*
X26765333Y-162583761D01*
X26670095Y-162488523D01*
X26622476Y-162298047D01*
X26622476Y-161964714D01*
X26670095Y-161774238D01*
X26765333Y-161679000D01*
X26860571Y-161631380D01*
X27051047Y-161631380D01*
X27146285Y-161679000D01*
X27241523Y-161774238D01*
X27289142Y-161964714D01*
X27289142Y-162298047D01*
X27241523Y-162488523D01*
X27146285Y-162583761D01*
X27051047Y-162631380D01*
X26860571Y-162631380D01*
X28241523Y-162631380D02*
X27670095Y-162631380D01*
X27955809Y-162631380D02*
X27955809Y-161631380D01*
X27860571Y-161774238D01*
X27765333Y-161869476D01*
X27670095Y-161917095D01*
%TO.C,U4*%
X68580095Y-159142180D02*
X68580095Y-159951704D01*
X68627714Y-160046942D01*
X68675333Y-160094561D01*
X68770571Y-160142180D01*
X68961047Y-160142180D01*
X69056285Y-160094561D01*
X69103904Y-160046942D01*
X69151523Y-159951704D01*
X69151523Y-159142180D01*
X70056285Y-159475514D02*
X70056285Y-160142180D01*
X69818190Y-159094561D02*
X69580095Y-159808847D01*
X70199142Y-159808847D01*
%TO.C,J17*%
X13121571Y-192131142D02*
X14264428Y-192131142D01*
X13693000Y-192702571D02*
X13693000Y-191559714D01*
X26121571Y-192131142D02*
X27264428Y-192131142D01*
%TO.C,R8*%
X38425380Y-193332666D02*
X37949190Y-193666000D01*
X38425380Y-193904095D02*
X37425380Y-193904095D01*
X37425380Y-193523142D01*
X37473000Y-193427904D01*
X37520619Y-193380285D01*
X37615857Y-193332666D01*
X37758714Y-193332666D01*
X37853952Y-193380285D01*
X37901571Y-193427904D01*
X37949190Y-193523142D01*
X37949190Y-193904095D01*
X37853952Y-192761238D02*
X37806333Y-192856476D01*
X37758714Y-192904095D01*
X37663476Y-192951714D01*
X37615857Y-192951714D01*
X37520619Y-192904095D01*
X37473000Y-192856476D01*
X37425380Y-192761238D01*
X37425380Y-192570761D01*
X37473000Y-192475523D01*
X37520619Y-192427904D01*
X37615857Y-192380285D01*
X37663476Y-192380285D01*
X37758714Y-192427904D01*
X37806333Y-192475523D01*
X37853952Y-192570761D01*
X37853952Y-192761238D01*
X37901571Y-192856476D01*
X37949190Y-192904095D01*
X38044428Y-192951714D01*
X38234904Y-192951714D01*
X38330142Y-192904095D01*
X38377761Y-192856476D01*
X38425380Y-192761238D01*
X38425380Y-192570761D01*
X38377761Y-192475523D01*
X38330142Y-192427904D01*
X38234904Y-192380285D01*
X38044428Y-192380285D01*
X37949190Y-192427904D01*
X37901571Y-192475523D01*
X37853952Y-192570761D01*
%TO.C,C1*%
X35155142Y-160440666D02*
X35202761Y-160488285D01*
X35250380Y-160631142D01*
X35250380Y-160726380D01*
X35202761Y-160869238D01*
X35107523Y-160964476D01*
X35012285Y-161012095D01*
X34821809Y-161059714D01*
X34678952Y-161059714D01*
X34488476Y-161012095D01*
X34393238Y-160964476D01*
X34298000Y-160869238D01*
X34250380Y-160726380D01*
X34250380Y-160631142D01*
X34298000Y-160488285D01*
X34345619Y-160440666D01*
X35250380Y-159488285D02*
X35250380Y-160059714D01*
X35250380Y-159774000D02*
X34250380Y-159774000D01*
X34393238Y-159869238D01*
X34488476Y-159964476D01*
X34536095Y-160059714D01*
%TO.C,J5*%
X26121571Y-174097142D02*
X27264428Y-174097142D01*
X13121571Y-174097142D02*
X14264428Y-174097142D01*
X13693000Y-174668571D02*
X13693000Y-173525714D01*
%TO.C,C8*%
X48855333Y-151614142D02*
X48807714Y-151661761D01*
X48664857Y-151709380D01*
X48569619Y-151709380D01*
X48426761Y-151661761D01*
X48331523Y-151566523D01*
X48283904Y-151471285D01*
X48236285Y-151280809D01*
X48236285Y-151137952D01*
X48283904Y-150947476D01*
X48331523Y-150852238D01*
X48426761Y-150757000D01*
X48569619Y-150709380D01*
X48664857Y-150709380D01*
X48807714Y-150757000D01*
X48855333Y-150804619D01*
X49426761Y-151137952D02*
X49331523Y-151090333D01*
X49283904Y-151042714D01*
X49236285Y-150947476D01*
X49236285Y-150899857D01*
X49283904Y-150804619D01*
X49331523Y-150757000D01*
X49426761Y-150709380D01*
X49617238Y-150709380D01*
X49712476Y-150757000D01*
X49760095Y-150804619D01*
X49807714Y-150899857D01*
X49807714Y-150947476D01*
X49760095Y-151042714D01*
X49712476Y-151090333D01*
X49617238Y-151137952D01*
X49426761Y-151137952D01*
X49331523Y-151185571D01*
X49283904Y-151233190D01*
X49236285Y-151328428D01*
X49236285Y-151518904D01*
X49283904Y-151614142D01*
X49331523Y-151661761D01*
X49426761Y-151709380D01*
X49617238Y-151709380D01*
X49712476Y-151661761D01*
X49760095Y-151614142D01*
X49807714Y-151518904D01*
X49807714Y-151328428D01*
X49760095Y-151233190D01*
X49712476Y-151185571D01*
X49617238Y-151137952D01*
%TO.C,R13*%
X57221380Y-172219857D02*
X56745190Y-172553190D01*
X57221380Y-172791285D02*
X56221380Y-172791285D01*
X56221380Y-172410333D01*
X56269000Y-172315095D01*
X56316619Y-172267476D01*
X56411857Y-172219857D01*
X56554714Y-172219857D01*
X56649952Y-172267476D01*
X56697571Y-172315095D01*
X56745190Y-172410333D01*
X56745190Y-172791285D01*
X57221380Y-171267476D02*
X57221380Y-171838904D01*
X57221380Y-171553190D02*
X56221380Y-171553190D01*
X56364238Y-171648428D01*
X56459476Y-171743666D01*
X56507095Y-171838904D01*
X56221380Y-170934142D02*
X56221380Y-170315095D01*
X56602333Y-170648428D01*
X56602333Y-170505571D01*
X56649952Y-170410333D01*
X56697571Y-170362714D01*
X56792809Y-170315095D01*
X57030904Y-170315095D01*
X57126142Y-170362714D01*
X57173761Y-170410333D01*
X57221380Y-170505571D01*
X57221380Y-170791285D01*
X57173761Y-170886523D01*
X57126142Y-170934142D01*
%TO.C,R9*%
X38679380Y-179490666D02*
X38203190Y-179824000D01*
X38679380Y-180062095D02*
X37679380Y-180062095D01*
X37679380Y-179681142D01*
X37727000Y-179585904D01*
X37774619Y-179538285D01*
X37869857Y-179490666D01*
X38012714Y-179490666D01*
X38107952Y-179538285D01*
X38155571Y-179585904D01*
X38203190Y-179681142D01*
X38203190Y-180062095D01*
X38679380Y-179014476D02*
X38679380Y-178824000D01*
X38631761Y-178728761D01*
X38584142Y-178681142D01*
X38441285Y-178585904D01*
X38250809Y-178538285D01*
X37869857Y-178538285D01*
X37774619Y-178585904D01*
X37727000Y-178633523D01*
X37679380Y-178728761D01*
X37679380Y-178919238D01*
X37727000Y-179014476D01*
X37774619Y-179062095D01*
X37869857Y-179109714D01*
X38107952Y-179109714D01*
X38203190Y-179062095D01*
X38250809Y-179014476D01*
X38298428Y-178919238D01*
X38298428Y-178728761D01*
X38250809Y-178633523D01*
X38203190Y-178585904D01*
X38107952Y-178538285D01*
%TO.C,R5*%
X41981380Y-165901666D02*
X41505190Y-166235000D01*
X41981380Y-166473095D02*
X40981380Y-166473095D01*
X40981380Y-166092142D01*
X41029000Y-165996904D01*
X41076619Y-165949285D01*
X41171857Y-165901666D01*
X41314714Y-165901666D01*
X41409952Y-165949285D01*
X41457571Y-165996904D01*
X41505190Y-166092142D01*
X41505190Y-166473095D01*
X40981380Y-164996904D02*
X40981380Y-165473095D01*
X41457571Y-165520714D01*
X41409952Y-165473095D01*
X41362333Y-165377857D01*
X41362333Y-165139761D01*
X41409952Y-165044523D01*
X41457571Y-164996904D01*
X41552809Y-164949285D01*
X41790904Y-164949285D01*
X41886142Y-164996904D01*
X41933761Y-165044523D01*
X41981380Y-165139761D01*
X41981380Y-165377857D01*
X41933761Y-165473095D01*
X41886142Y-165520714D01*
%TO.C,C3*%
X57617142Y-154979666D02*
X57664761Y-155027285D01*
X57712380Y-155170142D01*
X57712380Y-155265380D01*
X57664761Y-155408238D01*
X57569523Y-155503476D01*
X57474285Y-155551095D01*
X57283809Y-155598714D01*
X57140952Y-155598714D01*
X56950476Y-155551095D01*
X56855238Y-155503476D01*
X56760000Y-155408238D01*
X56712380Y-155265380D01*
X56712380Y-155170142D01*
X56760000Y-155027285D01*
X56807619Y-154979666D01*
X56712380Y-154646333D02*
X56712380Y-154027285D01*
X57093333Y-154360619D01*
X57093333Y-154217761D01*
X57140952Y-154122523D01*
X57188571Y-154074904D01*
X57283809Y-154027285D01*
X57521904Y-154027285D01*
X57617142Y-154074904D01*
X57664761Y-154122523D01*
X57712380Y-154217761D01*
X57712380Y-154503476D01*
X57664761Y-154598714D01*
X57617142Y-154646333D01*
%TO.C,C9*%
X83161142Y-192190666D02*
X83208761Y-192238285D01*
X83256380Y-192381142D01*
X83256380Y-192476380D01*
X83208761Y-192619238D01*
X83113523Y-192714476D01*
X83018285Y-192762095D01*
X82827809Y-192809714D01*
X82684952Y-192809714D01*
X82494476Y-192762095D01*
X82399238Y-192714476D01*
X82304000Y-192619238D01*
X82256380Y-192476380D01*
X82256380Y-192381142D01*
X82304000Y-192238285D01*
X82351619Y-192190666D01*
X83256380Y-191714476D02*
X83256380Y-191524000D01*
X83208761Y-191428761D01*
X83161142Y-191381142D01*
X83018285Y-191285904D01*
X82827809Y-191238285D01*
X82446857Y-191238285D01*
X82351619Y-191285904D01*
X82304000Y-191333523D01*
X82256380Y-191428761D01*
X82256380Y-191619238D01*
X82304000Y-191714476D01*
X82351619Y-191762095D01*
X82446857Y-191809714D01*
X82684952Y-191809714D01*
X82780190Y-191762095D01*
X82827809Y-191714476D01*
X82875428Y-191619238D01*
X82875428Y-191428761D01*
X82827809Y-191333523D01*
X82780190Y-191285904D01*
X82684952Y-191238285D01*
%TO.C,TDO1*%
X64222380Y-167139714D02*
X64222380Y-166568285D01*
X65222380Y-166854000D02*
X64222380Y-166854000D01*
X65222380Y-166234952D02*
X64222380Y-166234952D01*
X64222380Y-165996857D01*
X64270000Y-165854000D01*
X64365238Y-165758761D01*
X64460476Y-165711142D01*
X64650952Y-165663523D01*
X64793809Y-165663523D01*
X64984285Y-165711142D01*
X65079523Y-165758761D01*
X65174761Y-165854000D01*
X65222380Y-165996857D01*
X65222380Y-166234952D01*
X64222380Y-165044476D02*
X64222380Y-164854000D01*
X64270000Y-164758761D01*
X64365238Y-164663523D01*
X64555714Y-164615904D01*
X64889047Y-164615904D01*
X65079523Y-164663523D01*
X65174761Y-164758761D01*
X65222380Y-164854000D01*
X65222380Y-165044476D01*
X65174761Y-165139714D01*
X65079523Y-165234952D01*
X64889047Y-165282571D01*
X64555714Y-165282571D01*
X64365238Y-165234952D01*
X64270000Y-165139714D01*
X64222380Y-165044476D01*
X65222380Y-163663523D02*
X65222380Y-164234952D01*
X65222380Y-163949238D02*
X64222380Y-163949238D01*
X64365238Y-164044476D01*
X64460476Y-164139714D01*
X64508095Y-164234952D01*
%TO.C,Q3*%
X25939761Y-170092619D02*
X25844523Y-170045000D01*
X25749285Y-169949761D01*
X25606428Y-169806904D01*
X25511190Y-169759285D01*
X25415952Y-169759285D01*
X25463571Y-169997380D02*
X25368333Y-169949761D01*
X25273095Y-169854523D01*
X25225476Y-169664047D01*
X25225476Y-169330714D01*
X25273095Y-169140238D01*
X25368333Y-169045000D01*
X25463571Y-168997380D01*
X25654047Y-168997380D01*
X25749285Y-169045000D01*
X25844523Y-169140238D01*
X25892142Y-169330714D01*
X25892142Y-169664047D01*
X25844523Y-169854523D01*
X25749285Y-169949761D01*
X25654047Y-169997380D01*
X25463571Y-169997380D01*
X26225476Y-168997380D02*
X26844523Y-168997380D01*
X26511190Y-169378333D01*
X26654047Y-169378333D01*
X26749285Y-169425952D01*
X26796904Y-169473571D01*
X26844523Y-169568809D01*
X26844523Y-169806904D01*
X26796904Y-169902142D01*
X26749285Y-169949761D01*
X26654047Y-169997380D01*
X26368333Y-169997380D01*
X26273095Y-169949761D01*
X26225476Y-169902142D01*
%TO.C,J14*%
X26121571Y-186162142D02*
X27264428Y-186162142D01*
X13121571Y-186162142D02*
X14264428Y-186162142D01*
X13693000Y-186733571D02*
X13693000Y-185590714D01*
D12*
%TO.C,TDI1*%
X46311000Y-162008000D02*
X47371000Y-162008000D01*
X48431000Y-164068000D02*
X48431000Y-164128000D01*
X46311000Y-164128000D02*
X48431000Y-164128000D01*
X46311000Y-163068000D02*
X46311000Y-162008000D01*
X46311000Y-164068000D02*
X48431000Y-164068000D01*
X46311000Y-164068000D02*
X46311000Y-164128000D01*
%TO.C,Q5*%
X33399000Y-182860000D02*
X34899000Y-182860000D01*
X34899000Y-189490000D02*
X37729000Y-189490000D01*
X33399000Y-189760000D02*
X34899000Y-189760000D01*
X34899000Y-182860000D02*
X34899000Y-183130000D01*
X34899000Y-183130000D02*
X35999000Y-183130000D01*
X34899000Y-189760000D02*
X34899000Y-189490000D01*
%TO.C,Q6*%
X33355000Y-196745000D02*
X34855000Y-196745000D01*
X34855000Y-196745000D02*
X34855000Y-196475000D01*
X34855000Y-190115000D02*
X35955000Y-190115000D01*
X34855000Y-189845000D02*
X34855000Y-190115000D01*
X34855000Y-196475000D02*
X37685000Y-196475000D01*
X33355000Y-189845000D02*
X34855000Y-189845000D01*
%TO.C,R4*%
X23600742Y-160386500D02*
X24075258Y-160386500D01*
X23600742Y-161431500D02*
X24075258Y-161431500D01*
%TO.C,C2*%
X38356000Y-167018580D02*
X38356000Y-166737420D01*
X37336000Y-167018580D02*
X37336000Y-166737420D01*
%TO.C,BOOT1*%
X59971400Y-171730580D02*
X59971400Y-171449420D01*
X58951400Y-171730580D02*
X58951400Y-171449420D01*
%TO.C,C7*%
X38303780Y-165254400D02*
X38022620Y-165254400D01*
X38303780Y-164234400D02*
X38022620Y-164234400D01*
%TO.C,J16*%
X55940000Y-169470000D02*
X53280000Y-169470000D01*
X55940000Y-174610000D02*
X53280000Y-174610000D01*
X55940000Y-175880000D02*
X55940000Y-177210000D01*
X53280000Y-174610000D02*
X53280000Y-169470000D01*
X55940000Y-177210000D02*
X54610000Y-177210000D01*
X55940000Y-174610000D02*
X55940000Y-169470000D01*
%TO.C,J19*%
X80204000Y-183134000D02*
X82864000Y-183134000D01*
X80204000Y-180534000D02*
X81534000Y-180534000D01*
X80204000Y-190814000D02*
X82864000Y-190814000D01*
X80204000Y-181864000D02*
X80204000Y-180534000D01*
X80204000Y-183134000D02*
X80204000Y-190814000D01*
X82864000Y-183134000D02*
X82864000Y-190814000D01*
%TO.C,R3*%
X20590742Y-160386500D02*
X21065258Y-160386500D01*
X20590742Y-161431500D02*
X21065258Y-161431500D01*
%TO.C,R11*%
X36053500Y-172639258D02*
X36053500Y-172164742D01*
X37098500Y-172639258D02*
X37098500Y-172164742D01*
%TO.C,J18*%
X45787000Y-188468000D02*
X45787000Y-187138000D01*
X45787000Y-189738000D02*
X48447000Y-189738000D01*
X45787000Y-189738000D02*
X45787000Y-194878000D01*
X45787000Y-194878000D02*
X48447000Y-194878000D01*
X48447000Y-189738000D02*
X48447000Y-194878000D01*
X45787000Y-187138000D02*
X47117000Y-187138000D01*
%TO.C,J7*%
X20081000Y-165294000D02*
X25221000Y-165294000D01*
X20081000Y-167954000D02*
X20081000Y-165294000D01*
X20081000Y-167954000D02*
X25221000Y-167954000D01*
X25221000Y-167954000D02*
X25221000Y-165294000D01*
X18811000Y-167954000D02*
X17481000Y-167954000D01*
X17481000Y-167954000D02*
X17481000Y-166624000D01*
%TO.C,J4*%
X40173600Y-194878000D02*
X42833600Y-194878000D01*
X40173600Y-189738000D02*
X40173600Y-194878000D01*
X40173600Y-187138000D02*
X41503600Y-187138000D01*
X40173600Y-188468000D02*
X40173600Y-187138000D01*
X40173600Y-189738000D02*
X42833600Y-189738000D01*
X42833600Y-189738000D02*
X42833600Y-194878000D01*
%TO.C,J15*%
X42993000Y-189738000D02*
X45653000Y-189738000D01*
X42993000Y-194878000D02*
X45653000Y-194878000D01*
X45653000Y-189738000D02*
X45653000Y-194878000D01*
X42993000Y-189738000D02*
X42993000Y-194878000D01*
X42993000Y-188468000D02*
X42993000Y-187138000D01*
X42993000Y-187138000D02*
X44323000Y-187138000D01*
%TO.C,J10*%
X29210000Y-154492000D02*
X29210000Y-151832000D01*
X27940000Y-154492000D02*
X26610000Y-154492000D01*
X26610000Y-154492000D02*
X26610000Y-153162000D01*
X29210000Y-154492000D02*
X31810000Y-154492000D01*
X31810000Y-154492000D02*
X31810000Y-151832000D01*
X29210000Y-151832000D02*
X31810000Y-151832000D01*
%TO.C,R7*%
X37098500Y-186482258D02*
X37098500Y-186007742D01*
X36053500Y-186482258D02*
X36053500Y-186007742D01*
%TO.C,R12*%
X30367500Y-164702258D02*
X30367500Y-164227742D01*
X29322500Y-164702258D02*
X29322500Y-164227742D01*
%TO.C,J9*%
X25403000Y-181496000D02*
X23703000Y-182796000D01*
X25403000Y-178676000D02*
X23703000Y-177376000D01*
X23703000Y-182796000D02*
X14983000Y-182796000D01*
X25403000Y-181496000D02*
X25403000Y-178676000D01*
X23703000Y-177376000D02*
X14983000Y-177376000D01*
X14983000Y-182796000D02*
X14983000Y-177376000D01*
%TO.C,GND1*%
X68028000Y-169402000D02*
X68028000Y-169462000D01*
X68028000Y-169402000D02*
X70148000Y-169402000D01*
X70148000Y-169402000D02*
X70148000Y-169462000D01*
X68028000Y-167342000D02*
X69088000Y-167342000D01*
X68028000Y-168402000D02*
X68028000Y-167342000D01*
X68028000Y-169462000D02*
X70148000Y-169462000D01*
%TO.C,Q4*%
X33355000Y-182775000D02*
X34855000Y-182775000D01*
X34855000Y-182505000D02*
X37685000Y-182505000D01*
X34855000Y-182775000D02*
X34855000Y-182505000D01*
X33355000Y-175875000D02*
X34855000Y-175875000D01*
X34855000Y-175875000D02*
X34855000Y-176145000D01*
X34855000Y-176145000D02*
X35955000Y-176145000D01*
%TO.C,R2*%
X41002936Y-173795000D02*
X45357064Y-173795000D01*
X41002936Y-170375000D02*
X45357064Y-170375000D01*
%TO.C,R15*%
X61453500Y-170671258D02*
X61453500Y-170196742D01*
X62498500Y-170671258D02*
X62498500Y-170196742D01*
%TO.C,J6*%
X17481000Y-170748000D02*
X17481000Y-169418000D01*
X25221000Y-170748000D02*
X25221000Y-168088000D01*
X20081000Y-170748000D02*
X25221000Y-170748000D01*
X18811000Y-170748000D02*
X17481000Y-170748000D01*
X20081000Y-168088000D02*
X25221000Y-168088000D01*
X20081000Y-170748000D02*
X20081000Y-168088000D01*
%TO.C,D18*%
X37201000Y-158232600D02*
X37201000Y-160232600D01*
X37201000Y-160232600D02*
X41501000Y-160232600D01*
X41501000Y-158232600D02*
X37201000Y-158232600D01*
%TO.C,TMS1*%
X60750000Y-165719000D02*
X60750000Y-165779000D01*
X58630000Y-165779000D02*
X60750000Y-165779000D01*
X58630000Y-165719000D02*
X60750000Y-165719000D01*
X58630000Y-165719000D02*
X58630000Y-165779000D01*
X58630000Y-163659000D02*
X59690000Y-163659000D01*
X58630000Y-164719000D02*
X58630000Y-163659000D01*
%TO.C,TCK1*%
X65869000Y-168402000D02*
X65869000Y-167342000D01*
X67989000Y-169402000D02*
X67989000Y-169462000D01*
X65869000Y-169402000D02*
X65869000Y-169462000D01*
X65869000Y-169402000D02*
X67989000Y-169402000D01*
X65869000Y-169462000D02*
X67989000Y-169462000D01*
X65869000Y-167342000D02*
X66929000Y-167342000D01*
%TO.C,J3*%
X50860000Y-169485000D02*
X48200000Y-169485000D01*
X50860000Y-175895000D02*
X50860000Y-177225000D01*
X50860000Y-177225000D02*
X49530000Y-177225000D01*
X50860000Y-174625000D02*
X50860000Y-169485000D01*
X50860000Y-174625000D02*
X48200000Y-174625000D01*
X48200000Y-174625000D02*
X48200000Y-169485000D01*
%TO.C,Q2*%
X34820000Y-168890000D02*
X34820000Y-169160000D01*
X33320000Y-168890000D02*
X34820000Y-168890000D01*
X34820000Y-175790000D02*
X34820000Y-175520000D01*
X33320000Y-175790000D02*
X34820000Y-175790000D01*
X34820000Y-169160000D02*
X35920000Y-169160000D01*
X34820000Y-175520000D02*
X37650000Y-175520000D01*
%TO.C,J8*%
X25570000Y-158890000D02*
X25570000Y-156070000D01*
X23870000Y-160190000D02*
X15150000Y-160190000D01*
X25570000Y-156070000D02*
X23870000Y-154770000D01*
X23870000Y-154770000D02*
X15150000Y-154770000D01*
X25570000Y-158890000D02*
X23870000Y-160190000D01*
X15150000Y-160190000D02*
X15150000Y-154770000D01*
%TO.C,R10*%
X30367500Y-167877258D02*
X30367500Y-167402742D01*
X29322500Y-167877258D02*
X29322500Y-167402742D01*
%TO.C,D19*%
X42434000Y-163934200D02*
X42434000Y-168234200D01*
X42434000Y-168234200D02*
X44434000Y-168234200D01*
X44434000Y-168234200D02*
X44434000Y-163934200D01*
%TO.C,R1*%
X41002936Y-177605000D02*
X45357064Y-177605000D01*
X41002936Y-174185000D02*
X45357064Y-174185000D01*
%TO.C,R6*%
X39640742Y-168797500D02*
X40115258Y-168797500D01*
X39640742Y-167752500D02*
X40115258Y-167752500D01*
%TO.C,U1*%
X77319000Y-192116000D02*
X77699000Y-192116000D01*
X77319000Y-198531000D02*
X59079000Y-198531000D01*
X59079000Y-173571000D02*
X59079000Y-172791000D01*
X59079000Y-172791000D02*
X60079000Y-172791000D01*
X77319000Y-172791000D02*
X76319000Y-172791000D01*
X77319000Y-198531000D02*
X77319000Y-192116000D01*
X59079000Y-198531000D02*
X59079000Y-192116000D01*
X77319000Y-173571000D02*
X77319000Y-172791000D01*
%TO.C,Q1*%
X27305000Y-162905000D02*
X27955000Y-162905000D01*
X27305000Y-166025000D02*
X28980000Y-166025000D01*
X27305000Y-166025000D02*
X26655000Y-166025000D01*
X27305000Y-162905000D02*
X26655000Y-162905000D01*
%TO.C,U4*%
X67390000Y-158858000D02*
X71150000Y-158858000D01*
X65140000Y-152038000D02*
X71150000Y-152038000D01*
X71150000Y-152038000D02*
X71150000Y-153298000D01*
X71150000Y-158858000D02*
X71150000Y-157598000D01*
%TO.C,J1*%
X77530000Y-156733000D02*
X74870000Y-156733000D01*
X77530000Y-159333000D02*
X76200000Y-159333000D01*
X77530000Y-158003000D02*
X77530000Y-159333000D01*
X77530000Y-156733000D02*
X77530000Y-151593000D01*
X77530000Y-151593000D02*
X74870000Y-151593000D01*
X74870000Y-156733000D02*
X74870000Y-151593000D01*
%TO.C,J17*%
X25403000Y-190614000D02*
X23703000Y-189314000D01*
X25403000Y-193434000D02*
X25403000Y-190614000D01*
X25403000Y-193434000D02*
X23703000Y-194734000D01*
X14983000Y-194734000D02*
X14983000Y-189314000D01*
X23703000Y-194734000D02*
X14983000Y-194734000D01*
X23703000Y-189314000D02*
X14983000Y-189314000D01*
%TO.C,R8*%
X36053500Y-193467258D02*
X36053500Y-192992742D01*
X37098500Y-193467258D02*
X37098500Y-192992742D01*
%TO.C,C1*%
X36501800Y-160108020D02*
X36501800Y-160389180D01*
X35481800Y-160108020D02*
X35481800Y-160389180D01*
%TO.C,J5*%
X25403000Y-175400000D02*
X25403000Y-172580000D01*
X14983000Y-176700000D02*
X14983000Y-171280000D01*
X23703000Y-176700000D02*
X14983000Y-176700000D01*
X25403000Y-175400000D02*
X23703000Y-176700000D01*
X23703000Y-171280000D02*
X14983000Y-171280000D01*
X25403000Y-172580000D02*
X23703000Y-171280000D01*
%TO.C,J12*%
X82610000Y-156718000D02*
X82610000Y-151578000D01*
X82610000Y-157988000D02*
X82610000Y-159318000D01*
X82610000Y-156718000D02*
X79950000Y-156718000D01*
X82610000Y-151578000D02*
X79950000Y-151578000D01*
X82610000Y-159318000D02*
X81280000Y-159318000D01*
X79950000Y-156718000D02*
X79950000Y-151578000D01*
%TO.C,J13*%
X53400000Y-174625000D02*
X50740000Y-174625000D01*
X50740000Y-174625000D02*
X50740000Y-169485000D01*
X53400000Y-175895000D02*
X53400000Y-177225000D01*
X53400000Y-169485000D02*
X50740000Y-169485000D01*
X53400000Y-174625000D02*
X53400000Y-169485000D01*
X53400000Y-177225000D02*
X52070000Y-177225000D01*
%TO.C,C8*%
X55170000Y-156938000D02*
X55170000Y-155238000D01*
X50714437Y-151418000D02*
X55170000Y-151418000D01*
X55170000Y-151418000D02*
X55170000Y-153118000D01*
X49650000Y-155873563D02*
X49650000Y-155238000D01*
X49097500Y-152180500D02*
X49097500Y-152805500D01*
X50714437Y-156938000D02*
X55170000Y-156938000D01*
X49650000Y-152482437D02*
X50714437Y-151418000D01*
X49650000Y-152482437D02*
X49650000Y-153118000D01*
X48785000Y-152493000D02*
X49410000Y-152493000D01*
X49650000Y-155873563D02*
X50714437Y-156938000D01*
%TO.C,R13*%
X57516500Y-171402742D02*
X57516500Y-171877258D01*
X58561500Y-171402742D02*
X58561500Y-171877258D01*
%TO.C,R9*%
X37098500Y-179624258D02*
X37098500Y-179149742D01*
X36053500Y-179624258D02*
X36053500Y-179149742D01*
%TO.C,R5*%
X39782500Y-165964958D02*
X39782500Y-165490442D01*
X40827500Y-165964958D02*
X40827500Y-165490442D01*
%TO.C,J2*%
X80070000Y-151593000D02*
X77410000Y-151593000D01*
X80070000Y-159333000D02*
X78740000Y-159333000D01*
X80070000Y-158003000D02*
X80070000Y-159333000D01*
X80070000Y-156733000D02*
X80070000Y-151593000D01*
X80070000Y-156733000D02*
X77410000Y-156733000D01*
X77410000Y-156733000D02*
X77410000Y-151593000D01*
%TO.C,J11*%
X21336000Y-151832000D02*
X21336000Y-154492000D01*
X21336000Y-154492000D02*
X16196000Y-154492000D01*
X23936000Y-151832000D02*
X23936000Y-153162000D01*
X22606000Y-151832000D02*
X23936000Y-151832000D01*
X21336000Y-151832000D02*
X16196000Y-151832000D01*
X16196000Y-151832000D02*
X16196000Y-154492000D01*
%TO.C,C3*%
X58200000Y-156508563D02*
X58200000Y-152053000D01*
X59264437Y-157573000D02*
X58200000Y-156508563D01*
X63720000Y-156508563D02*
X63720000Y-152053000D01*
X59264437Y-157573000D02*
X59900000Y-157573000D01*
X58962500Y-158125500D02*
X59587500Y-158125500D01*
X63720000Y-152053000D02*
X62020000Y-152053000D01*
X62655563Y-157573000D02*
X62020000Y-157573000D01*
X62655563Y-157573000D02*
X63720000Y-156508563D01*
X59275000Y-158438000D02*
X59275000Y-157813000D01*
X58200000Y-152053000D02*
X59900000Y-152053000D01*
%TO.C,BOOT0*%
X54312000Y-183896000D02*
X54312000Y-182836000D01*
X54312000Y-182836000D02*
X55372000Y-182836000D01*
X54312000Y-184956000D02*
X56432000Y-184956000D01*
X54312000Y-184896000D02*
X56432000Y-184896000D01*
X56432000Y-184896000D02*
X56432000Y-184956000D01*
X54312000Y-184896000D02*
X54312000Y-184956000D01*
%TO.C,C9*%
X80504420Y-191006000D02*
X80785580Y-191006000D01*
X80504420Y-192026000D02*
X80785580Y-192026000D01*
%TO.C,GND2*%
X54312000Y-186817000D02*
X54312000Y-185757000D01*
X54312000Y-187877000D02*
X56432000Y-187877000D01*
X54312000Y-185757000D02*
X55372000Y-185757000D01*
X56432000Y-187817000D02*
X56432000Y-187877000D01*
X54312000Y-187817000D02*
X56432000Y-187817000D01*
X54312000Y-187817000D02*
X54312000Y-187877000D01*
%TO.C,TDO1*%
X65830000Y-169402000D02*
X65830000Y-169462000D01*
X63710000Y-169462000D02*
X65830000Y-169462000D01*
X63710000Y-167342000D02*
X64770000Y-167342000D01*
X63710000Y-169402000D02*
X65830000Y-169402000D01*
X63710000Y-168402000D02*
X63710000Y-167342000D01*
X63710000Y-169402000D02*
X63710000Y-169462000D01*
%TO.C,Q3*%
X27305000Y-166080000D02*
X26655000Y-166080000D01*
X27305000Y-169200000D02*
X26655000Y-169200000D01*
X27305000Y-166080000D02*
X27955000Y-166080000D01*
X27305000Y-169200000D02*
X28980000Y-169200000D01*
%TO.C,J14*%
X25403000Y-187465000D02*
X23703000Y-188765000D01*
X23703000Y-188765000D02*
X14983000Y-188765000D01*
X14983000Y-188765000D02*
X14983000Y-183345000D01*
X23703000Y-183345000D02*
X14983000Y-183345000D01*
X25403000Y-187465000D02*
X25403000Y-184645000D01*
X25403000Y-184645000D02*
X23703000Y-183345000D01*
%TD*%
M02*
