M48
; DRILL file {KiCad 7.0.11-rc3} date Sat Dec 28 02:26:23 2024
; FORMAT={-:-/ absolute / inch / decimal}
; #@! TF.CreationDate,2024-12-28T02:26:23+01:00
; #@! TF.GenerationSoftware,Kicad,Pcbnew,7.0.11-rc3
; #@! TF.FileFunction,Plated,1,2,PTH
FMAT,2
INCH
; #@! TA.AperFunction,Plated,PTH,ComponentDrill
T1C0.0079
; #@! TA.AperFunction,Plated,PTH,ViaDrill
T2C0.0118
; #@! TA.AperFunction,Plated,PTH,ViaDrill
T3C0.0157
; #@! TA.AperFunction,Plated,PTH,ComponentDrill
T4C0.0295
; #@! TA.AperFunction,Plated,PTH,ComponentDrill
T5C0.0315
; #@! TA.AperFunction,Plated,PTH,ComponentDrill
T6C0.0394
; #@! TA.AperFunction,Plated,PTH,ComponentDrill
T7C0.1063
%
G90
G05
T1
X2.6502Y-7.1969
X2.6502Y-7.257
X2.6802Y-7.1669
X2.6802Y-7.227
X2.6802Y-7.287
X2.7102Y-7.1969
X2.7102Y-7.257
X2.7403Y-7.1669
X2.7403Y-7.227
X2.7403Y-7.287
X2.7703Y-7.1969
X2.7703Y-7.257
T2
X0.5354Y-7.7299
X0.54Y-6.27
X0.54Y-6.2936
X0.54Y-6.32
X0.54Y-6.595
X0.555Y-5.96
X0.555Y-6.8
X0.555Y-7.025
X0.555Y-7.48
X0.56Y-7.265
X0.57Y-6.16
X0.57Y-6.1836
X0.57Y-6.2072
X0.57Y-6.27
X0.57Y-6.2936
X0.57Y-6.32
X0.6Y-6.16
X0.6Y-6.1836
X0.6Y-6.2072
X0.6Y-6.36
X0.6Y-6.3836
X0.6Y-6.41
X0.63Y-6.36
X0.63Y-6.3836
X0.63Y-6.41
X0.6343Y-7.6906
X0.6421Y-7.7606
X0.6602Y-6.0835
X0.7004Y-6.085
X0.724Y-5.9827
X0.7303Y-7.7315
X0.7315Y-6.0858
X0.76Y-6.09
X0.78Y-6.1
X0.79Y-6.97
X0.79Y-7.42
X0.7992Y-6.2685
X0.81Y-6.1
X0.845Y-6.09
X0.86Y-6.105
X0.863Y-7.7654
X0.87Y-6.09
X0.885Y-6.105
X0.9Y-6.09
X0.91Y-6.105
X0.92Y-6.09
X0.935Y-6.105
X0.945Y-6.09
X0.9555Y-7.7654
X0.9583Y-6.1071
X0.9756Y-6.0118
X0.9949Y-6.1409
X1.0083Y-6.2146
X1.01Y-7.42
X1.011Y-6.0343
X1.0154Y-6.1646
X1.0169Y-7.2417
X1.0181Y-7.1476
X1.0252Y-7.7638
X1.0262Y-6.2391
X1.0262Y-6.2591
X1.0315Y-6.0094
X1.0462Y-6.2391
X1.0462Y-6.2591
X1.0465Y-6.1921
X1.0662Y-6.2391
X1.0662Y-6.2591
X1.0862Y-6.2391
X1.0862Y-6.2591
X1.1579Y-6.1496
X1.1626Y-6.2559
X1.18Y-6.22
X1.1929Y-6.3161
X1.2016Y-7.7551
X1.2031Y-7.5024
X1.2043Y-7.1976
X1.2094Y-6.2
X1.21Y-6.34
X1.22Y-6.2575
X1.2228Y-6.315
X1.235Y-7.5248
X1.2362Y-6.3425
X1.2567Y-6.315
X1.2618Y-6.3437
X1.2638Y-7.7567
X1.2685Y-7.561
X1.27Y-6.17
X1.27Y-6.19
X1.27Y-6.21
X1.2874Y-6.3429
X1.2878Y-6.3157
X1.2887Y-7.5104
X1.29Y-6.17
X1.29Y-6.19
X1.29Y-6.21
X1.3079Y-7.5953
X1.3083Y-7.5579
X1.31Y-6.17
X1.31Y-6.189
X1.31Y-6.21
X1.3327Y-7.5705
X1.3354Y-6.3276
X1.3406Y-7.5283
X1.3417Y-7.7543
X1.3429Y-7.1996
X1.3492Y-7.5028
X1.3567Y-7.5516
X1.3567Y-7.5921
X1.3646Y-6.9657
X1.3681Y-7.0689
X1.3693Y-6.9043
X1.37Y-6.47
X1.374Y-6.4024
X1.375Y-7.245
X1.38Y-6.6776
X1.38Y-6.83
X1.3827Y-6.5028
X1.3831Y-7.526
X1.385Y-7.5705
X1.39Y-7.28
X1.39Y-7.345
X1.4005Y-7.018
X1.4083Y-7.5051
X1.4087Y-6.528
X1.4087Y-6.5748
X1.4114Y-7.5512
X1.4146Y-7.5949
X1.4291Y-7.7551
X1.43Y-6.22
X1.4331Y-6.05
X1.4421Y-7.2552
X1.45Y-6.18
X1.45Y-6.31
X1.45Y-6.34
X1.452Y-6.0957
X1.4524Y-6.1417
X1.4555Y-7.5965
X1.4618Y-6.4051
X1.47Y-6.58
X1.4772Y-6.0465
X1.4874Y-6.2067
X1.49Y-6.8
X1.4906Y-7.7539
X1.4953Y-6.3315
X1.5091Y-7.0394
X1.5091Y-7.5965
X1.511Y-7.4094
X1.5146Y-7.1075
X1.5272Y-7.4815
X1.54Y-6.53
X1.5423Y-7.0498
X1.5425Y-6.3264
X1.5445Y-7.7602
X1.5488Y-7.0807
X1.5512Y-6.2417
X1.56Y-6.61
X1.56Y-6.73
X1.56Y-6.9
X1.5709Y-6.4307
X1.5724Y-7.4311
X1.5775Y-7.5193
X1.5775Y-7.541
X1.5775Y-7.5643
X1.5775Y-7.5903
X1.5775Y-7.6139
X1.5775Y-7.6336
X1.5775Y-7.6685
X1.585Y-6.345
X1.5862Y-6.2287
X1.5866Y-6.272
X1.61Y-7.08
X1.6224Y-6.9
X1.624Y-7.7602
X1.625Y-6.07
X1.63Y-6.82
X1.6339Y-7.724
X1.6347Y-7.22
X1.6488Y-7.6378
X1.6516Y-7.2713
X1.6563Y-7.3579
X1.6563Y-7.6913
X1.66Y-6.58
X1.665Y-7.08
X1.6685Y-7.5579
X1.67Y-6.73
X1.6706Y-5.9444
X1.685Y-7.01
X1.69Y-6.015
X1.6937Y-7.7602
X1.6969Y-7.7087
X1.7Y-6.345
X1.7008Y-6.2827
X1.7047Y-6.1744
X1.71Y-7.11
X1.71Y-7.22
X1.7228Y-7.3587
X1.724Y-6.4433
X1.7244Y-7.6819
X1.7327Y-7.3165
X1.74Y-7.1
X1.74Y-7.1954
X1.7441Y-6.6512
X1.7445Y-7.7232
X1.7516Y-7.4185
X1.7547Y-6.4024
X1.7567Y-6.4717
X1.7583Y-7.0083
X1.7626Y-6.8839
X1.7634Y-6.8055
X1.7669Y-6.2197
X1.7689Y-7.6189
X1.7697Y-7.7594
X1.7949Y-7.1174
X1.7976Y-6.4024
X1.8142Y-7.0504
X1.8331Y-7.7665
X1.8476Y-7.6024
X1.85Y-6.28
X1.85Y-7.03
X1.8539Y-7.6866
X1.8594Y-7.6469
X1.865Y-6.07
X1.8673Y-6.1941
X1.87Y-6.89
X1.88Y-6.71
X1.8821Y-6.6629
X1.89Y-5.98
X1.91Y-6.64
X1.9146Y-7.2831
X1.9169Y-6.3461
X1.92Y-6.01
X1.9657Y-7.1902
X1.9709Y-7.3398
X1.986Y-6.07
X1.9941Y-7.7626
X2.01Y-6.59
X2.0319Y-7.1886
X2.0535Y-7.4079
X2.095Y-6.0
X2.1035Y-7.2504
X2.1059Y-6.1882
X2.1059Y-7.7642
X2.12Y-6.055
X2.12Y-6.085
X2.15Y-6.0
X2.165Y-6.055
X2.165Y-6.085
X2.17Y-7.04
X2.18Y-7.4
X2.1874Y-6.3307
X2.2Y-6.27
X2.2Y-6.29
X2.2181Y-6.315
X2.2209Y-6.3638
X2.2213Y-7.7559
X2.2283Y-6.2807
X2.23Y-7.345
X2.23Y-7.43
X2.2441Y-6.339
X2.2445Y-7.2831
X2.2614Y-7.6559
X2.2657Y-6.3661
X2.27Y-6.32
X2.27Y-7.18
X2.2756Y-6.189
X2.28Y-7.0
X2.2815Y-6.9648
X2.285Y-6.725
X2.3094Y-6.1213
X2.313Y-6.3665
X2.34Y-6.725
X2.3413Y-6.9169
X2.35Y-7.66
X2.37Y-6.64
X2.3894Y-6.315
X2.39Y-6.625
X2.39Y-7.13
X2.3992Y-7.4949
X2.402Y-7.6472
X2.41Y-6.605
X2.415Y-7.0339
X2.415Y-7.1
X2.42Y-7.41
X2.43Y-6.58
X2.43Y-7.33
X2.455Y-7.645
X2.46Y-6.66
X2.46Y-7.11
X2.46Y-7.22
X2.47Y-7.17
X2.48Y-6.17
X2.48Y-6.31
X2.4872Y-6.9989
X2.4902Y-5.9417
X2.5079Y-6.956
X2.5114Y-7.4949
X2.52Y-6.76
X2.52Y-7.33
X2.5213Y-6.2098
X2.5244Y-6.0425
X2.53Y-6.89
X2.54Y-6.36
X2.54Y-6.58
X2.5571Y-7.4169
X2.57Y-6.92
X2.57Y-7.17
X2.57Y-7.23
X2.575Y-6.87
X2.58Y-6.195
X2.58Y-6.225
X2.58Y-6.76
X2.59Y-6.31
X2.605Y-6.195
X2.605Y-6.225
X2.605Y-7.6445
X2.61Y-6.89
X2.63Y-6.195
X2.63Y-6.225
X2.6358Y-7.4921
X2.64Y-6.76
X2.64Y-6.87
X2.64Y-7.13
X2.66Y-6.35
X2.68Y-6.92
X2.68Y-6.95
X2.6815Y-6.165
X2.69Y-6.76
X2.72Y-6.87
X2.7315Y-6.139
X2.74Y-6.76
X2.74Y-6.9
X2.7409Y-7.5291
X2.75Y-6.26
X2.76Y-6.35
X2.7646Y-6.3201
X2.77Y-6.66
X2.77Y-6.94
X2.7709Y-6.122
X2.78Y-6.9
X2.7866Y-6.0862
X2.7881Y-7.3819
X2.7882Y-6.1583
X2.81Y-6.92
X2.82Y-6.47
X2.82Y-6.88
X2.8201Y-7.5264
X2.83Y-6.95
X2.8331Y-7.4457
X2.837Y-6.3181
X2.84Y-6.36
X2.84Y-7.18
X2.845Y-7.65
X2.85Y-5.97
X2.85Y-6.1
X2.85Y-6.18
X2.85Y-6.9
X2.87Y-7.36
X2.8701Y-6.2583
X2.8795Y-6.5201
X2.88Y-6.87
X2.88Y-6.94
X2.89Y-6.31
X2.89Y-7.13
X2.8976Y-7.4744
X2.9Y-5.99
X2.9031Y-7.526
X2.9059Y-6.465
X2.91Y-6.82
X2.91Y-6.93
X2.92Y-6.14
X2.92Y-6.57
X2.92Y-7.23
X2.9287Y-6.5217
X2.93Y-6.04
X2.93Y-6.91
X2.94Y-6.83
X2.96Y-6.86
X2.9736Y-7.4417
X2.974Y-6.3874
X2.974Y-6.448
X2.9803Y-6.5067
X2.995Y-6.62
X3.0272Y-6.335
X3.03Y-6.86
X3.0402Y-6.3898
X3.0433Y-6.4461
X3.087Y-6.715
X3.0886Y-6.5185
X3.09Y-7.01
X3.0925Y-6.3374
X3.0976Y-7.3008
X3.1047Y-6.3921
X3.11Y-6.44
X3.1161Y-6.6181
X3.1374Y-7.3008
X3.1378Y-7.3776
X3.14Y-6.68
X3.15Y-6.48
X3.152Y-7.7535
X3.1555Y-6.3343
X3.16Y-6.78
X3.1638Y-7.6331
X3.1945Y-7.0063
X3.2622Y-6.289
X3.2634Y-7.6102
X3.2673Y-7.7504
X3.2681Y-5.9484
X3.2717Y-6.1386
X3.2795Y-6.4488
X3.2874Y-6.6772
X3.2913Y-7.124
T3
X1.026Y-6.9311
X1.439Y-6.8747
X1.6277Y-7.2507
X1.6985Y-6.4026
X1.7717Y-7.0638
X1.8055Y-6.6953
X1.8114Y-6.4824
X1.8618Y-7.2453
X1.8618Y-6.5917
X1.8665Y-6.9915
X1.8665Y-6.9915
X1.9122Y-7.2016
X1.9307Y-7.1051
X1.9535Y-6.4711
X1.9665Y-7.0295
X2.0022Y-6.4194
X2.0577Y-6.4363
X2.0752Y-7.0165
X2.0752Y-7.0642
X2.1106Y-6.3717
X2.1378Y-7.0657
X2.1379Y-6.4126
X2.23Y-7.14
X2.2441Y-6.68
X2.2452Y-7.066
X2.2797Y-6.5101
X2.2974Y-6.8632
X2.339Y-7.2685
X2.339Y-7.4159
X2.363Y-6.553
X2.51Y-7.1056
X2.9718Y-7.1401
X3.028Y-7.0126
X3.028Y-7.0697
X3.028Y-7.2159
X3.0891Y-7.5894
T4
X3.2343Y-7.0815
X3.2343Y-7.1602
X3.2343Y-7.239
X3.2343Y-7.3177
X3.2343Y-7.3965
X3.2343Y-7.4752
X3.2343Y-7.5539
T5
X1.865Y-6.42
X2.35Y-6.485
X2.55Y-6.63
X2.635Y-6.63
X2.72Y-6.63
T6
X0.69Y-6.03
X0.7406Y-6.56
X0.7406Y-6.67
X0.79Y-6.03
X0.8406Y-6.56
X0.8406Y-6.67
X0.89Y-6.03
X0.9406Y-6.56
X0.9406Y-6.67
X1.1Y-6.03
X1.2Y-6.03
X1.9388Y-7.4791
X1.9388Y-7.5791
X1.9388Y-7.6791
X1.95Y-6.725
X1.95Y-6.825
X1.95Y-6.925
X2.0498Y-7.4791
X2.0498Y-7.5791
X2.0498Y-7.6791
X2.05Y-6.725
X2.05Y-6.825
X2.05Y-6.925
X2.15Y-6.7244
X2.15Y-6.8244
X2.15Y-6.9244
X2.1587Y-7.1854
X2.1587Y-7.2854
X2.1598Y-7.4791
X2.1598Y-7.5791
X2.1598Y-7.6791
X3.0Y-6.0206
X3.0Y-6.1206
X3.0Y-6.2206
X3.1Y-6.0206
X3.1Y-6.1206
X3.1Y-6.2206
X3.2Y-6.02
X3.2Y-6.12
X3.2Y-6.22
T7
X0.6931Y-7.56
X0.6966Y-6.85
X0.6966Y-7.09
X0.6966Y-7.325
X0.7031Y-6.2
X0.89Y-7.56
X0.8934Y-6.85
X0.8934Y-7.09
X0.8934Y-7.325
X0.9Y-6.2
M30
