%TF.GenerationSoftware,KiCad,Pcbnew,7.0.11-rc3*%
%TF.CreationDate,2024-12-28T02:26:29+01:00*%
%TF.ProjectId,jf-ecu32.7,6a662d65-6375-4333-922e-372e6b696361,rev?*%
%TF.SameCoordinates,Original*%
%TF.FileFunction,Legend,Top*%
%TF.FilePolarity,Positive*%
%FSLAX46Y46*%
G04 Gerber Fmt 4.6, Leading zero omitted, Abs format (unit mm)*
G04 Created by KiCad (PCBNEW 7.0.11-rc3) date 2024-12-28 02:26:29*
%MOMM*%
%LPD*%
G01*
G04 APERTURE LIST*
%ADD10C,0.150000*%
%ADD11C,0.125000*%
%ADD12C,0.120000*%
G04 APERTURE END LIST*
D10*
X48006000Y-166878000D02*
X56261000Y-166878000D01*
X49432981Y-168021000D02*
G75*
G03*
X48865019Y-168021000I-283981J0D01*
G01*
X48865019Y-168021000D02*
G75*
G03*
X49432981Y-168021000I283981J0D01*
G01*
X50442000Y-179520000D02*
X57540000Y-179520000D01*
X57540000Y-186060000D01*
X50442000Y-186060000D01*
X50442000Y-179520000D01*
X79621500Y-165270000D02*
X83558500Y-165270000D01*
X83558500Y-177567000D01*
X79621500Y-177567000D01*
X79621500Y-165270000D01*
X49432981Y-165735000D02*
G75*
G03*
X48865019Y-165735000I-283981J0D01*
G01*
X48865019Y-165735000D02*
G75*
G03*
X49432981Y-165735000I283981J0D01*
G01*
X47420000Y-186062000D02*
X57580000Y-186062000D01*
X57580000Y-198000000D01*
X47420000Y-198000000D01*
X47420000Y-186062000D01*
X50292000Y-165227000D02*
X50292000Y-168783000D01*
X49432981Y-166878000D02*
G75*
G03*
X48865019Y-166878000I-283981J0D01*
G01*
X48865019Y-166878000D02*
G75*
G03*
X49432981Y-166878000I283981J0D01*
G01*
X48006000Y-165163500D02*
X56261000Y-165163500D01*
X56261000Y-168846500D01*
X48006000Y-168846500D01*
X48006000Y-165163500D01*
X56429048Y-192553866D02*
X57190953Y-192553866D01*
X56810000Y-192934819D02*
X56810000Y-192172914D01*
X50880000Y-183114819D02*
X50880000Y-182114819D01*
X51546666Y-182114819D02*
X51737142Y-182114819D01*
X51737142Y-182114819D02*
X51832380Y-182162438D01*
X51832380Y-182162438D02*
X51927618Y-182257676D01*
X51927618Y-182257676D02*
X51975237Y-182448152D01*
X51975237Y-182448152D02*
X51975237Y-182781485D01*
X51975237Y-182781485D02*
X51927618Y-182971961D01*
X51927618Y-182971961D02*
X51832380Y-183067200D01*
X51832380Y-183067200D02*
X51737142Y-183114819D01*
X51737142Y-183114819D02*
X51546666Y-183114819D01*
X51546666Y-183114819D02*
X51451428Y-183067200D01*
X51451428Y-183067200D02*
X51356190Y-182971961D01*
X51356190Y-182971961D02*
X51308571Y-182781485D01*
X51308571Y-182781485D02*
X51308571Y-182448152D01*
X51308571Y-182448152D02*
X51356190Y-182257676D01*
X51356190Y-182257676D02*
X51451428Y-182162438D01*
X51451428Y-182162438D02*
X51546666Y-182114819D01*
X52594285Y-182114819D02*
X52689523Y-182114819D01*
X52689523Y-182114819D02*
X52784761Y-182162438D01*
X52784761Y-182162438D02*
X52832380Y-182210057D01*
X52832380Y-182210057D02*
X52879999Y-182305295D01*
X52879999Y-182305295D02*
X52927618Y-182495771D01*
X52927618Y-182495771D02*
X52927618Y-182733866D01*
X52927618Y-182733866D02*
X52879999Y-182924342D01*
X52879999Y-182924342D02*
X52832380Y-183019580D01*
X52832380Y-183019580D02*
X52784761Y-183067200D01*
X52784761Y-183067200D02*
X52689523Y-183114819D01*
X52689523Y-183114819D02*
X52594285Y-183114819D01*
X52594285Y-183114819D02*
X52499047Y-183067200D01*
X52499047Y-183067200D02*
X52451428Y-183019580D01*
X52451428Y-183019580D02*
X52403809Y-182924342D01*
X52403809Y-182924342D02*
X52356190Y-182733866D01*
X52356190Y-182733866D02*
X52356190Y-182495771D01*
X52356190Y-182495771D02*
X52403809Y-182305295D01*
X52403809Y-182305295D02*
X52451428Y-182210057D01*
X52451428Y-182210057D02*
X52499047Y-182162438D01*
X52499047Y-182162438D02*
X52594285Y-182114819D01*
X76929667Y-160463033D02*
X76929667Y-159763033D01*
X77263000Y-160463033D02*
X77263000Y-159763033D01*
X77263000Y-159763033D02*
X77663000Y-160463033D01*
X77663000Y-160463033D02*
X77663000Y-159763033D01*
X77996333Y-160463033D02*
X77996333Y-159763033D01*
X77996333Y-159763033D02*
X78263000Y-159763033D01*
X78263000Y-159763033D02*
X78329667Y-159796366D01*
X78329667Y-159796366D02*
X78363000Y-159829700D01*
X78363000Y-159829700D02*
X78396333Y-159896366D01*
X78396333Y-159896366D02*
X78396333Y-159996366D01*
X78396333Y-159996366D02*
X78363000Y-160063033D01*
X78363000Y-160063033D02*
X78329667Y-160096366D01*
X78329667Y-160096366D02*
X78263000Y-160129700D01*
X78263000Y-160129700D02*
X77996333Y-160129700D01*
X78696333Y-159763033D02*
X78696333Y-160329700D01*
X78696333Y-160329700D02*
X78729667Y-160396366D01*
X78729667Y-160396366D02*
X78763000Y-160429700D01*
X78763000Y-160429700D02*
X78829667Y-160463033D01*
X78829667Y-160463033D02*
X78963000Y-160463033D01*
X78963000Y-160463033D02*
X79029667Y-160429700D01*
X79029667Y-160429700D02*
X79063000Y-160396366D01*
X79063000Y-160396366D02*
X79096333Y-160329700D01*
X79096333Y-160329700D02*
X79096333Y-159763033D01*
X79329666Y-159763033D02*
X79729666Y-159763033D01*
X79529666Y-160463033D02*
X79529666Y-159763033D01*
X79929666Y-160429700D02*
X80029666Y-160463033D01*
X80029666Y-160463033D02*
X80196333Y-160463033D01*
X80196333Y-160463033D02*
X80262999Y-160429700D01*
X80262999Y-160429700D02*
X80296333Y-160396366D01*
X80296333Y-160396366D02*
X80329666Y-160329700D01*
X80329666Y-160329700D02*
X80329666Y-160263033D01*
X80329666Y-160263033D02*
X80296333Y-160196366D01*
X80296333Y-160196366D02*
X80262999Y-160163033D01*
X80262999Y-160163033D02*
X80196333Y-160129700D01*
X80196333Y-160129700D02*
X80062999Y-160096366D01*
X80062999Y-160096366D02*
X79996333Y-160063033D01*
X79996333Y-160063033D02*
X79962999Y-160029700D01*
X79962999Y-160029700D02*
X79929666Y-159963033D01*
X79929666Y-159963033D02*
X79929666Y-159896366D01*
X79929666Y-159896366D02*
X79962999Y-159829700D01*
X79962999Y-159829700D02*
X79996333Y-159796366D01*
X79996333Y-159796366D02*
X80062999Y-159763033D01*
X80062999Y-159763033D02*
X80229666Y-159763033D01*
X80229666Y-159763033D02*
X80329666Y-159796366D01*
X74580713Y-157879800D02*
X74437856Y-157832180D01*
X74437856Y-157832180D02*
X74199761Y-157832180D01*
X74199761Y-157832180D02*
X74104523Y-157879800D01*
X74104523Y-157879800D02*
X74056904Y-157927419D01*
X74056904Y-157927419D02*
X74009285Y-158022657D01*
X74009285Y-158022657D02*
X74009285Y-158117895D01*
X74009285Y-158117895D02*
X74056904Y-158213133D01*
X74056904Y-158213133D02*
X74104523Y-158260752D01*
X74104523Y-158260752D02*
X74199761Y-158308371D01*
X74199761Y-158308371D02*
X74390237Y-158355990D01*
X74390237Y-158355990D02*
X74485475Y-158403609D01*
X74485475Y-158403609D02*
X74533094Y-158451228D01*
X74533094Y-158451228D02*
X74580713Y-158546466D01*
X74580713Y-158546466D02*
X74580713Y-158641704D01*
X74580713Y-158641704D02*
X74533094Y-158736942D01*
X74533094Y-158736942D02*
X74485475Y-158784561D01*
X74485475Y-158784561D02*
X74390237Y-158832180D01*
X74390237Y-158832180D02*
X74152142Y-158832180D01*
X74152142Y-158832180D02*
X74009285Y-158784561D01*
X74675951Y-154993133D02*
X73914047Y-154993133D01*
X74294999Y-154612180D02*
X74294999Y-155374085D01*
X74675951Y-151773133D02*
X73914047Y-151773133D01*
X29726048Y-151584819D02*
X29726048Y-150584819D01*
X30297476Y-151584819D02*
X29868905Y-151013390D01*
X30297476Y-150584819D02*
X29726048Y-151156247D01*
X30726048Y-151203866D02*
X31487953Y-151203866D01*
X31107000Y-151584819D02*
X31107000Y-150822914D01*
X13843095Y-153616819D02*
X13509762Y-153140628D01*
X13271667Y-153616819D02*
X13271667Y-152616819D01*
X13271667Y-152616819D02*
X13652619Y-152616819D01*
X13652619Y-152616819D02*
X13747857Y-152664438D01*
X13747857Y-152664438D02*
X13795476Y-152712057D01*
X13795476Y-152712057D02*
X13843095Y-152807295D01*
X13843095Y-152807295D02*
X13843095Y-152950152D01*
X13843095Y-152950152D02*
X13795476Y-153045390D01*
X13795476Y-153045390D02*
X13747857Y-153093009D01*
X13747857Y-153093009D02*
X13652619Y-153140628D01*
X13652619Y-153140628D02*
X13271667Y-153140628D01*
X14271667Y-153616819D02*
X14271667Y-152616819D01*
X14271667Y-152616819D02*
X14652619Y-152616819D01*
X14652619Y-152616819D02*
X14747857Y-152664438D01*
X14747857Y-152664438D02*
X14795476Y-152712057D01*
X14795476Y-152712057D02*
X14843095Y-152807295D01*
X14843095Y-152807295D02*
X14843095Y-152950152D01*
X14843095Y-152950152D02*
X14795476Y-153045390D01*
X14795476Y-153045390D02*
X14747857Y-153093009D01*
X14747857Y-153093009D02*
X14652619Y-153140628D01*
X14652619Y-153140628D02*
X14271667Y-153140628D01*
X15271667Y-153616819D02*
X15271667Y-152616819D01*
X15271667Y-152616819D02*
X15605000Y-153331104D01*
X15605000Y-153331104D02*
X15938333Y-152616819D01*
X15938333Y-152616819D02*
X15938333Y-153616819D01*
X13866952Y-161094009D02*
X14009809Y-161141628D01*
X14009809Y-161141628D02*
X14057428Y-161189247D01*
X14057428Y-161189247D02*
X14105047Y-161284485D01*
X14105047Y-161284485D02*
X14105047Y-161427342D01*
X14105047Y-161427342D02*
X14057428Y-161522580D01*
X14057428Y-161522580D02*
X14009809Y-161570200D01*
X14009809Y-161570200D02*
X13914571Y-161617819D01*
X13914571Y-161617819D02*
X13533619Y-161617819D01*
X13533619Y-161617819D02*
X13533619Y-160617819D01*
X13533619Y-160617819D02*
X13866952Y-160617819D01*
X13866952Y-160617819D02*
X13962190Y-160665438D01*
X13962190Y-160665438D02*
X14009809Y-160713057D01*
X14009809Y-160713057D02*
X14057428Y-160808295D01*
X14057428Y-160808295D02*
X14057428Y-160903533D01*
X14057428Y-160903533D02*
X14009809Y-160998771D01*
X14009809Y-160998771D02*
X13962190Y-161046390D01*
X13962190Y-161046390D02*
X13866952Y-161094009D01*
X13866952Y-161094009D02*
X13533619Y-161094009D01*
X14486000Y-161332104D02*
X14962190Y-161332104D01*
X14390762Y-161617819D02*
X14724095Y-160617819D01*
X14724095Y-160617819D02*
X15057428Y-161617819D01*
X15247905Y-160617819D02*
X15819333Y-160617819D01*
X15533619Y-161617819D02*
X15533619Y-160617819D01*
X16009810Y-160617819D02*
X16581238Y-160617819D01*
X16295524Y-161617819D02*
X16295524Y-160617819D01*
X13176333Y-182271200D02*
X13319190Y-182318819D01*
X13319190Y-182318819D02*
X13557285Y-182318819D01*
X13557285Y-182318819D02*
X13652523Y-182271200D01*
X13652523Y-182271200D02*
X13700142Y-182223580D01*
X13700142Y-182223580D02*
X13747761Y-182128342D01*
X13747761Y-182128342D02*
X13747761Y-182033104D01*
X13747761Y-182033104D02*
X13700142Y-181937866D01*
X13700142Y-181937866D02*
X13652523Y-181890247D01*
X13652523Y-181890247D02*
X13557285Y-181842628D01*
X13557285Y-181842628D02*
X13366809Y-181795009D01*
X13366809Y-181795009D02*
X13271571Y-181747390D01*
X13271571Y-181747390D02*
X13223952Y-181699771D01*
X13223952Y-181699771D02*
X13176333Y-181604533D01*
X13176333Y-181604533D02*
X13176333Y-181509295D01*
X13176333Y-181509295D02*
X13223952Y-181414057D01*
X13223952Y-181414057D02*
X13271571Y-181366438D01*
X13271571Y-181366438D02*
X13366809Y-181318819D01*
X13366809Y-181318819D02*
X13604904Y-181318819D01*
X13604904Y-181318819D02*
X13747761Y-181366438D01*
X14033476Y-181318819D02*
X14604904Y-181318819D01*
X14319190Y-182318819D02*
X14319190Y-181318819D01*
X48613333Y-197607200D02*
X48756190Y-197654819D01*
X48756190Y-197654819D02*
X48994285Y-197654819D01*
X48994285Y-197654819D02*
X49089523Y-197607200D01*
X49089523Y-197607200D02*
X49137142Y-197559580D01*
X49137142Y-197559580D02*
X49184761Y-197464342D01*
X49184761Y-197464342D02*
X49184761Y-197369104D01*
X49184761Y-197369104D02*
X49137142Y-197273866D01*
X49137142Y-197273866D02*
X49089523Y-197226247D01*
X49089523Y-197226247D02*
X48994285Y-197178628D01*
X48994285Y-197178628D02*
X48803809Y-197131009D01*
X48803809Y-197131009D02*
X48708571Y-197083390D01*
X48708571Y-197083390D02*
X48660952Y-197035771D01*
X48660952Y-197035771D02*
X48613333Y-196940533D01*
X48613333Y-196940533D02*
X48613333Y-196845295D01*
X48613333Y-196845295D02*
X48660952Y-196750057D01*
X48660952Y-196750057D02*
X48708571Y-196702438D01*
X48708571Y-196702438D02*
X48803809Y-196654819D01*
X48803809Y-196654819D02*
X49041904Y-196654819D01*
X49041904Y-196654819D02*
X49184761Y-196702438D01*
X49470476Y-196654819D02*
X50041904Y-196654819D01*
X49756190Y-197654819D02*
X49756190Y-196654819D01*
X16296142Y-150632438D02*
X16200904Y-150584819D01*
X16200904Y-150584819D02*
X16058047Y-150584819D01*
X16058047Y-150584819D02*
X15915190Y-150632438D01*
X15915190Y-150632438D02*
X15819952Y-150727676D01*
X15819952Y-150727676D02*
X15772333Y-150822914D01*
X15772333Y-150822914D02*
X15724714Y-151013390D01*
X15724714Y-151013390D02*
X15724714Y-151156247D01*
X15724714Y-151156247D02*
X15772333Y-151346723D01*
X15772333Y-151346723D02*
X15819952Y-151441961D01*
X15819952Y-151441961D02*
X15915190Y-151537200D01*
X15915190Y-151537200D02*
X16058047Y-151584819D01*
X16058047Y-151584819D02*
X16153285Y-151584819D01*
X16153285Y-151584819D02*
X16296142Y-151537200D01*
X16296142Y-151537200D02*
X16343761Y-151489580D01*
X16343761Y-151489580D02*
X16343761Y-151156247D01*
X16343761Y-151156247D02*
X16153285Y-151156247D01*
X16772333Y-151584819D02*
X16772333Y-150584819D01*
X16772333Y-150584819D02*
X17343761Y-151584819D01*
X17343761Y-151584819D02*
X17343761Y-150584819D01*
X17819952Y-151584819D02*
X17819952Y-150584819D01*
X17819952Y-150584819D02*
X18058047Y-150584819D01*
X18058047Y-150584819D02*
X18200904Y-150632438D01*
X18200904Y-150632438D02*
X18296142Y-150727676D01*
X18296142Y-150727676D02*
X18343761Y-150822914D01*
X18343761Y-150822914D02*
X18391380Y-151013390D01*
X18391380Y-151013390D02*
X18391380Y-151156247D01*
X18391380Y-151156247D02*
X18343761Y-151346723D01*
X18343761Y-151346723D02*
X18296142Y-151441961D01*
X18296142Y-151441961D02*
X18200904Y-151537200D01*
X18200904Y-151537200D02*
X18058047Y-151584819D01*
X18058047Y-151584819D02*
X17819952Y-151584819D01*
X20058047Y-150584819D02*
X19581857Y-150584819D01*
X19581857Y-150584819D02*
X19534238Y-151061009D01*
X19534238Y-151061009D02*
X19581857Y-151013390D01*
X19581857Y-151013390D02*
X19677095Y-150965771D01*
X19677095Y-150965771D02*
X19915190Y-150965771D01*
X19915190Y-150965771D02*
X20010428Y-151013390D01*
X20010428Y-151013390D02*
X20058047Y-151061009D01*
X20058047Y-151061009D02*
X20105666Y-151156247D01*
X20105666Y-151156247D02*
X20105666Y-151394342D01*
X20105666Y-151394342D02*
X20058047Y-151489580D01*
X20058047Y-151489580D02*
X20010428Y-151537200D01*
X20010428Y-151537200D02*
X19915190Y-151584819D01*
X19915190Y-151584819D02*
X19677095Y-151584819D01*
X19677095Y-151584819D02*
X19581857Y-151537200D01*
X19581857Y-151537200D02*
X19534238Y-151489580D01*
X20391381Y-150584819D02*
X20724714Y-151584819D01*
X20724714Y-151584819D02*
X21058047Y-150584819D01*
X22105667Y-151537200D02*
X22248524Y-151584819D01*
X22248524Y-151584819D02*
X22486619Y-151584819D01*
X22486619Y-151584819D02*
X22581857Y-151537200D01*
X22581857Y-151537200D02*
X22629476Y-151489580D01*
X22629476Y-151489580D02*
X22677095Y-151394342D01*
X22677095Y-151394342D02*
X22677095Y-151299104D01*
X22677095Y-151299104D02*
X22629476Y-151203866D01*
X22629476Y-151203866D02*
X22581857Y-151156247D01*
X22581857Y-151156247D02*
X22486619Y-151108628D01*
X22486619Y-151108628D02*
X22296143Y-151061009D01*
X22296143Y-151061009D02*
X22200905Y-151013390D01*
X22200905Y-151013390D02*
X22153286Y-150965771D01*
X22153286Y-150965771D02*
X22105667Y-150870533D01*
X22105667Y-150870533D02*
X22105667Y-150775295D01*
X22105667Y-150775295D02*
X22153286Y-150680057D01*
X22153286Y-150680057D02*
X22200905Y-150632438D01*
X22200905Y-150632438D02*
X22296143Y-150584819D01*
X22296143Y-150584819D02*
X22534238Y-150584819D01*
X22534238Y-150584819D02*
X22677095Y-150632438D01*
X23105667Y-151584819D02*
X23105667Y-150584819D01*
X24105666Y-150632438D02*
X24010428Y-150584819D01*
X24010428Y-150584819D02*
X23867571Y-150584819D01*
X23867571Y-150584819D02*
X23724714Y-150632438D01*
X23724714Y-150632438D02*
X23629476Y-150727676D01*
X23629476Y-150727676D02*
X23581857Y-150822914D01*
X23581857Y-150822914D02*
X23534238Y-151013390D01*
X23534238Y-151013390D02*
X23534238Y-151156247D01*
X23534238Y-151156247D02*
X23581857Y-151346723D01*
X23581857Y-151346723D02*
X23629476Y-151441961D01*
X23629476Y-151441961D02*
X23724714Y-151537200D01*
X23724714Y-151537200D02*
X23867571Y-151584819D01*
X23867571Y-151584819D02*
X23962809Y-151584819D01*
X23962809Y-151584819D02*
X24105666Y-151537200D01*
X24105666Y-151537200D02*
X24153285Y-151489580D01*
X24153285Y-151489580D02*
X24153285Y-151156247D01*
X24153285Y-151156247D02*
X23962809Y-151156247D01*
X74755476Y-150457819D02*
X75326904Y-150457819D01*
X75041190Y-151457819D02*
X75041190Y-150457819D01*
X75660238Y-151457819D02*
X75660238Y-150457819D01*
X75660238Y-150934009D02*
X76231666Y-150934009D01*
X76231666Y-151457819D02*
X76231666Y-150457819D01*
X13231905Y-194256819D02*
X13231905Y-193256819D01*
X13231905Y-193256819D02*
X13612857Y-193256819D01*
X13612857Y-193256819D02*
X13708095Y-193304438D01*
X13708095Y-193304438D02*
X13755714Y-193352057D01*
X13755714Y-193352057D02*
X13803333Y-193447295D01*
X13803333Y-193447295D02*
X13803333Y-193590152D01*
X13803333Y-193590152D02*
X13755714Y-193685390D01*
X13755714Y-193685390D02*
X13708095Y-193733009D01*
X13708095Y-193733009D02*
X13612857Y-193780628D01*
X13612857Y-193780628D02*
X13231905Y-193780628D01*
X14184286Y-193352057D02*
X14231905Y-193304438D01*
X14231905Y-193304438D02*
X14327143Y-193256819D01*
X14327143Y-193256819D02*
X14565238Y-193256819D01*
X14565238Y-193256819D02*
X14660476Y-193304438D01*
X14660476Y-193304438D02*
X14708095Y-193352057D01*
X14708095Y-193352057D02*
X14755714Y-193447295D01*
X14755714Y-193447295D02*
X14755714Y-193542533D01*
X14755714Y-193542533D02*
X14708095Y-193685390D01*
X14708095Y-193685390D02*
X14136667Y-194256819D01*
X14136667Y-194256819D02*
X14755714Y-194256819D01*
X13962095Y-166824819D02*
X13962095Y-165824819D01*
X14533523Y-166824819D02*
X14104952Y-166253390D01*
X14533523Y-165824819D02*
X13962095Y-166396247D01*
X13485905Y-169745819D02*
X13485905Y-168745819D01*
X14057333Y-169745819D02*
X13628762Y-169174390D01*
X14057333Y-168745819D02*
X13485905Y-169317247D01*
X14438286Y-169698200D02*
X14581143Y-169745819D01*
X14581143Y-169745819D02*
X14819238Y-169745819D01*
X14819238Y-169745819D02*
X14914476Y-169698200D01*
X14914476Y-169698200D02*
X14962095Y-169650580D01*
X14962095Y-169650580D02*
X15009714Y-169555342D01*
X15009714Y-169555342D02*
X15009714Y-169460104D01*
X15009714Y-169460104D02*
X14962095Y-169364866D01*
X14962095Y-169364866D02*
X14914476Y-169317247D01*
X14914476Y-169317247D02*
X14819238Y-169269628D01*
X14819238Y-169269628D02*
X14628762Y-169222009D01*
X14628762Y-169222009D02*
X14533524Y-169174390D01*
X14533524Y-169174390D02*
X14485905Y-169126771D01*
X14485905Y-169126771D02*
X14438286Y-169031533D01*
X14438286Y-169031533D02*
X14438286Y-168936295D01*
X14438286Y-168936295D02*
X14485905Y-168841057D01*
X14485905Y-168841057D02*
X14533524Y-168793438D01*
X14533524Y-168793438D02*
X14628762Y-168745819D01*
X14628762Y-168745819D02*
X14866857Y-168745819D01*
X14866857Y-168745819D02*
X15009714Y-168793438D01*
X51458905Y-178635819D02*
X51458905Y-177635819D01*
X51458905Y-177635819D02*
X51839857Y-177635819D01*
X51839857Y-177635819D02*
X51935095Y-177683438D01*
X51935095Y-177683438D02*
X51982714Y-177731057D01*
X51982714Y-177731057D02*
X52030333Y-177826295D01*
X52030333Y-177826295D02*
X52030333Y-177969152D01*
X52030333Y-177969152D02*
X51982714Y-178064390D01*
X51982714Y-178064390D02*
X51935095Y-178112009D01*
X51935095Y-178112009D02*
X51839857Y-178159628D01*
X51839857Y-178159628D02*
X51458905Y-178159628D01*
X52982714Y-178635819D02*
X52411286Y-178635819D01*
X52697000Y-178635819D02*
X52697000Y-177635819D01*
X52697000Y-177635819D02*
X52601762Y-177778676D01*
X52601762Y-177778676D02*
X52506524Y-177873914D01*
X52506524Y-177873914D02*
X52411286Y-177921533D01*
X50809524Y-187271009D02*
X51142857Y-187271009D01*
X51285714Y-187794819D02*
X50809524Y-187794819D01*
X50809524Y-187794819D02*
X50809524Y-186794819D01*
X50809524Y-186794819D02*
X51285714Y-186794819D01*
X51666667Y-187747200D02*
X51809524Y-187794819D01*
X51809524Y-187794819D02*
X52047619Y-187794819D01*
X52047619Y-187794819D02*
X52142857Y-187747200D01*
X52142857Y-187747200D02*
X52190476Y-187699580D01*
X52190476Y-187699580D02*
X52238095Y-187604342D01*
X52238095Y-187604342D02*
X52238095Y-187509104D01*
X52238095Y-187509104D02*
X52190476Y-187413866D01*
X52190476Y-187413866D02*
X52142857Y-187366247D01*
X52142857Y-187366247D02*
X52047619Y-187318628D01*
X52047619Y-187318628D02*
X51857143Y-187271009D01*
X51857143Y-187271009D02*
X51761905Y-187223390D01*
X51761905Y-187223390D02*
X51714286Y-187175771D01*
X51714286Y-187175771D02*
X51666667Y-187080533D01*
X51666667Y-187080533D02*
X51666667Y-186985295D01*
X51666667Y-186985295D02*
X51714286Y-186890057D01*
X51714286Y-186890057D02*
X51761905Y-186842438D01*
X51761905Y-186842438D02*
X51857143Y-186794819D01*
X51857143Y-186794819D02*
X52095238Y-186794819D01*
X52095238Y-186794819D02*
X52238095Y-186842438D01*
X53238095Y-187699580D02*
X53190476Y-187747200D01*
X53190476Y-187747200D02*
X53047619Y-187794819D01*
X53047619Y-187794819D02*
X52952381Y-187794819D01*
X52952381Y-187794819D02*
X52809524Y-187747200D01*
X52809524Y-187747200D02*
X52714286Y-187651961D01*
X52714286Y-187651961D02*
X52666667Y-187556723D01*
X52666667Y-187556723D02*
X52619048Y-187366247D01*
X52619048Y-187366247D02*
X52619048Y-187223390D01*
X52619048Y-187223390D02*
X52666667Y-187032914D01*
X52666667Y-187032914D02*
X52714286Y-186937676D01*
X52714286Y-186937676D02*
X52809524Y-186842438D01*
X52809524Y-186842438D02*
X52952381Y-186794819D01*
X52952381Y-186794819D02*
X53047619Y-186794819D01*
X53047619Y-186794819D02*
X53190476Y-186842438D01*
X53190476Y-186842438D02*
X53238095Y-186890057D01*
X53871905Y-178635819D02*
X53871905Y-177635819D01*
X53871905Y-177635819D02*
X54252857Y-177635819D01*
X54252857Y-177635819D02*
X54348095Y-177683438D01*
X54348095Y-177683438D02*
X54395714Y-177731057D01*
X54395714Y-177731057D02*
X54443333Y-177826295D01*
X54443333Y-177826295D02*
X54443333Y-177969152D01*
X54443333Y-177969152D02*
X54395714Y-178064390D01*
X54395714Y-178064390D02*
X54348095Y-178112009D01*
X54348095Y-178112009D02*
X54252857Y-178159628D01*
X54252857Y-178159628D02*
X53871905Y-178159628D01*
X54824286Y-177731057D02*
X54871905Y-177683438D01*
X54871905Y-177683438D02*
X54967143Y-177635819D01*
X54967143Y-177635819D02*
X55205238Y-177635819D01*
X55205238Y-177635819D02*
X55300476Y-177683438D01*
X55300476Y-177683438D02*
X55348095Y-177731057D01*
X55348095Y-177731057D02*
X55395714Y-177826295D01*
X55395714Y-177826295D02*
X55395714Y-177921533D01*
X55395714Y-177921533D02*
X55348095Y-178064390D01*
X55348095Y-178064390D02*
X54776667Y-178635819D01*
X54776667Y-178635819D02*
X55395714Y-178635819D01*
X54131905Y-197594819D02*
X54131905Y-196594819D01*
X54131905Y-196594819D02*
X54512857Y-196594819D01*
X54512857Y-196594819D02*
X54608095Y-196642438D01*
X54608095Y-196642438D02*
X54655714Y-196690057D01*
X54655714Y-196690057D02*
X54703333Y-196785295D01*
X54703333Y-196785295D02*
X54703333Y-196928152D01*
X54703333Y-196928152D02*
X54655714Y-197023390D01*
X54655714Y-197023390D02*
X54608095Y-197071009D01*
X54608095Y-197071009D02*
X54512857Y-197118628D01*
X54512857Y-197118628D02*
X54131905Y-197118628D01*
X55084286Y-196690057D02*
X55131905Y-196642438D01*
X55131905Y-196642438D02*
X55227143Y-196594819D01*
X55227143Y-196594819D02*
X55465238Y-196594819D01*
X55465238Y-196594819D02*
X55560476Y-196642438D01*
X55560476Y-196642438D02*
X55608095Y-196690057D01*
X55608095Y-196690057D02*
X55655714Y-196785295D01*
X55655714Y-196785295D02*
X55655714Y-196880533D01*
X55655714Y-196880533D02*
X55608095Y-197023390D01*
X55608095Y-197023390D02*
X55036667Y-197594819D01*
X55036667Y-197594819D02*
X55655714Y-197594819D01*
X32099476Y-152870819D02*
X32670904Y-152870819D01*
X32385190Y-153870819D02*
X32385190Y-152870819D01*
X33004238Y-153347009D02*
X33337571Y-153347009D01*
X33480428Y-153870819D02*
X33004238Y-153870819D01*
X33004238Y-153870819D02*
X33004238Y-152870819D01*
X33004238Y-152870819D02*
X33480428Y-152870819D01*
X33909000Y-153870819D02*
X33909000Y-152870819D01*
X33909000Y-152870819D02*
X34242333Y-153585104D01*
X34242333Y-153585104D02*
X34575666Y-152870819D01*
X34575666Y-152870819D02*
X34575666Y-153870819D01*
X35051857Y-153870819D02*
X35051857Y-152870819D01*
X35051857Y-152870819D02*
X35432809Y-152870819D01*
X35432809Y-152870819D02*
X35528047Y-152918438D01*
X35528047Y-152918438D02*
X35575666Y-152966057D01*
X35575666Y-152966057D02*
X35623285Y-153061295D01*
X35623285Y-153061295D02*
X35623285Y-153204152D01*
X35623285Y-153204152D02*
X35575666Y-153299390D01*
X35575666Y-153299390D02*
X35528047Y-153347009D01*
X35528047Y-153347009D02*
X35432809Y-153394628D01*
X35432809Y-153394628D02*
X35051857Y-153394628D01*
X56324286Y-190337200D02*
X56467143Y-190384819D01*
X56467143Y-190384819D02*
X56705238Y-190384819D01*
X56705238Y-190384819D02*
X56800476Y-190337200D01*
X56800476Y-190337200D02*
X56848095Y-190289580D01*
X56848095Y-190289580D02*
X56895714Y-190194342D01*
X56895714Y-190194342D02*
X56895714Y-190099104D01*
X56895714Y-190099104D02*
X56848095Y-190003866D01*
X56848095Y-190003866D02*
X56800476Y-189956247D01*
X56800476Y-189956247D02*
X56705238Y-189908628D01*
X56705238Y-189908628D02*
X56514762Y-189861009D01*
X56514762Y-189861009D02*
X56419524Y-189813390D01*
X56419524Y-189813390D02*
X56371905Y-189765771D01*
X56371905Y-189765771D02*
X56324286Y-189670533D01*
X56324286Y-189670533D02*
X56324286Y-189575295D01*
X56324286Y-189575295D02*
X56371905Y-189480057D01*
X56371905Y-189480057D02*
X56419524Y-189432438D01*
X56419524Y-189432438D02*
X56514762Y-189384819D01*
X56514762Y-189384819D02*
X56752857Y-189384819D01*
X56752857Y-189384819D02*
X56895714Y-189432438D01*
X80526095Y-150457819D02*
X81097523Y-150457819D01*
X80811809Y-151457819D02*
X80811809Y-150457819D01*
X81907047Y-151457819D02*
X81430857Y-151457819D01*
X81430857Y-151457819D02*
X81430857Y-150457819D01*
X82240381Y-151457819D02*
X82240381Y-150457819D01*
X82240381Y-150457819D02*
X82573714Y-151172104D01*
X82573714Y-151172104D02*
X82907047Y-150457819D01*
X82907047Y-150457819D02*
X82907047Y-151457819D01*
X48863333Y-178588200D02*
X49006190Y-178635819D01*
X49006190Y-178635819D02*
X49244285Y-178635819D01*
X49244285Y-178635819D02*
X49339523Y-178588200D01*
X49339523Y-178588200D02*
X49387142Y-178540580D01*
X49387142Y-178540580D02*
X49434761Y-178445342D01*
X49434761Y-178445342D02*
X49434761Y-178350104D01*
X49434761Y-178350104D02*
X49387142Y-178254866D01*
X49387142Y-178254866D02*
X49339523Y-178207247D01*
X49339523Y-178207247D02*
X49244285Y-178159628D01*
X49244285Y-178159628D02*
X49053809Y-178112009D01*
X49053809Y-178112009D02*
X48958571Y-178064390D01*
X48958571Y-178064390D02*
X48910952Y-178016771D01*
X48910952Y-178016771D02*
X48863333Y-177921533D01*
X48863333Y-177921533D02*
X48863333Y-177826295D01*
X48863333Y-177826295D02*
X48910952Y-177731057D01*
X48910952Y-177731057D02*
X48958571Y-177683438D01*
X48958571Y-177683438D02*
X49053809Y-177635819D01*
X49053809Y-177635819D02*
X49291904Y-177635819D01*
X49291904Y-177635819D02*
X49434761Y-177683438D01*
X49720476Y-177635819D02*
X50291904Y-177635819D01*
X50006190Y-178635819D02*
X50006190Y-177635819D01*
X13358905Y-188160819D02*
X13358905Y-187160819D01*
X13358905Y-187160819D02*
X13739857Y-187160819D01*
X13739857Y-187160819D02*
X13835095Y-187208438D01*
X13835095Y-187208438D02*
X13882714Y-187256057D01*
X13882714Y-187256057D02*
X13930333Y-187351295D01*
X13930333Y-187351295D02*
X13930333Y-187494152D01*
X13930333Y-187494152D02*
X13882714Y-187589390D01*
X13882714Y-187589390D02*
X13835095Y-187637009D01*
X13835095Y-187637009D02*
X13739857Y-187684628D01*
X13739857Y-187684628D02*
X13358905Y-187684628D01*
X14882714Y-188160819D02*
X14311286Y-188160819D01*
X14597000Y-188160819D02*
X14597000Y-187160819D01*
X14597000Y-187160819D02*
X14501762Y-187303676D01*
X14501762Y-187303676D02*
X14406524Y-187398914D01*
X14406524Y-187398914D02*
X14311286Y-187446533D01*
X50883334Y-180339366D02*
X50983334Y-180372700D01*
X50983334Y-180372700D02*
X51016667Y-180406033D01*
X51016667Y-180406033D02*
X51050000Y-180472700D01*
X51050000Y-180472700D02*
X51050000Y-180572700D01*
X51050000Y-180572700D02*
X51016667Y-180639366D01*
X51016667Y-180639366D02*
X50983334Y-180672700D01*
X50983334Y-180672700D02*
X50916667Y-180706033D01*
X50916667Y-180706033D02*
X50650000Y-180706033D01*
X50650000Y-180706033D02*
X50650000Y-180006033D01*
X50650000Y-180006033D02*
X50883334Y-180006033D01*
X50883334Y-180006033D02*
X50950000Y-180039366D01*
X50950000Y-180039366D02*
X50983334Y-180072700D01*
X50983334Y-180072700D02*
X51016667Y-180139366D01*
X51016667Y-180139366D02*
X51016667Y-180206033D01*
X51016667Y-180206033D02*
X50983334Y-180272700D01*
X50983334Y-180272700D02*
X50950000Y-180306033D01*
X50950000Y-180306033D02*
X50883334Y-180339366D01*
X50883334Y-180339366D02*
X50650000Y-180339366D01*
X51483334Y-180006033D02*
X51616667Y-180006033D01*
X51616667Y-180006033D02*
X51683334Y-180039366D01*
X51683334Y-180039366D02*
X51750000Y-180106033D01*
X51750000Y-180106033D02*
X51783334Y-180239366D01*
X51783334Y-180239366D02*
X51783334Y-180472700D01*
X51783334Y-180472700D02*
X51750000Y-180606033D01*
X51750000Y-180606033D02*
X51683334Y-180672700D01*
X51683334Y-180672700D02*
X51616667Y-180706033D01*
X51616667Y-180706033D02*
X51483334Y-180706033D01*
X51483334Y-180706033D02*
X51416667Y-180672700D01*
X51416667Y-180672700D02*
X51350000Y-180606033D01*
X51350000Y-180606033D02*
X51316667Y-180472700D01*
X51316667Y-180472700D02*
X51316667Y-180239366D01*
X51316667Y-180239366D02*
X51350000Y-180106033D01*
X51350000Y-180106033D02*
X51416667Y-180039366D01*
X51416667Y-180039366D02*
X51483334Y-180006033D01*
X52216667Y-180006033D02*
X52350000Y-180006033D01*
X52350000Y-180006033D02*
X52416667Y-180039366D01*
X52416667Y-180039366D02*
X52483333Y-180106033D01*
X52483333Y-180106033D02*
X52516667Y-180239366D01*
X52516667Y-180239366D02*
X52516667Y-180472700D01*
X52516667Y-180472700D02*
X52483333Y-180606033D01*
X52483333Y-180606033D02*
X52416667Y-180672700D01*
X52416667Y-180672700D02*
X52350000Y-180706033D01*
X52350000Y-180706033D02*
X52216667Y-180706033D01*
X52216667Y-180706033D02*
X52150000Y-180672700D01*
X52150000Y-180672700D02*
X52083333Y-180606033D01*
X52083333Y-180606033D02*
X52050000Y-180472700D01*
X52050000Y-180472700D02*
X52050000Y-180239366D01*
X52050000Y-180239366D02*
X52083333Y-180106033D01*
X52083333Y-180106033D02*
X52150000Y-180039366D01*
X52150000Y-180039366D02*
X52216667Y-180006033D01*
X52716666Y-180006033D02*
X53116666Y-180006033D01*
X52916666Y-180706033D02*
X52916666Y-180006033D01*
X53683333Y-180706033D02*
X53349999Y-180706033D01*
X53349999Y-180706033D02*
X53349999Y-180006033D01*
X54050000Y-180006033D02*
X54183333Y-180006033D01*
X54183333Y-180006033D02*
X54250000Y-180039366D01*
X54250000Y-180039366D02*
X54316666Y-180106033D01*
X54316666Y-180106033D02*
X54350000Y-180239366D01*
X54350000Y-180239366D02*
X54350000Y-180472700D01*
X54350000Y-180472700D02*
X54316666Y-180606033D01*
X54316666Y-180606033D02*
X54250000Y-180672700D01*
X54250000Y-180672700D02*
X54183333Y-180706033D01*
X54183333Y-180706033D02*
X54050000Y-180706033D01*
X54050000Y-180706033D02*
X53983333Y-180672700D01*
X53983333Y-180672700D02*
X53916666Y-180606033D01*
X53916666Y-180606033D02*
X53883333Y-180472700D01*
X53883333Y-180472700D02*
X53883333Y-180239366D01*
X53883333Y-180239366D02*
X53916666Y-180106033D01*
X53916666Y-180106033D02*
X53983333Y-180039366D01*
X53983333Y-180039366D02*
X54050000Y-180006033D01*
X54616666Y-180506033D02*
X54949999Y-180506033D01*
X54549999Y-180706033D02*
X54783333Y-180006033D01*
X54783333Y-180006033D02*
X55016666Y-180706033D01*
X55249999Y-180706033D02*
X55249999Y-180006033D01*
X55249999Y-180006033D02*
X55416666Y-180006033D01*
X55416666Y-180006033D02*
X55516666Y-180039366D01*
X55516666Y-180039366D02*
X55583333Y-180106033D01*
X55583333Y-180106033D02*
X55616666Y-180172700D01*
X55616666Y-180172700D02*
X55649999Y-180306033D01*
X55649999Y-180306033D02*
X55649999Y-180406033D01*
X55649999Y-180406033D02*
X55616666Y-180539366D01*
X55616666Y-180539366D02*
X55583333Y-180606033D01*
X55583333Y-180606033D02*
X55516666Y-180672700D01*
X55516666Y-180672700D02*
X55416666Y-180706033D01*
X55416666Y-180706033D02*
X55249999Y-180706033D01*
X55949999Y-180339366D02*
X56183333Y-180339366D01*
X56283333Y-180706033D02*
X55949999Y-180706033D01*
X55949999Y-180706033D02*
X55949999Y-180006033D01*
X55949999Y-180006033D02*
X56283333Y-180006033D01*
X56983332Y-180706033D02*
X56749999Y-180372700D01*
X56583332Y-180706033D02*
X56583332Y-180006033D01*
X56583332Y-180006033D02*
X56849999Y-180006033D01*
X56849999Y-180006033D02*
X56916666Y-180039366D01*
X56916666Y-180039366D02*
X56949999Y-180072700D01*
X56949999Y-180072700D02*
X56983332Y-180139366D01*
X56983332Y-180139366D02*
X56983332Y-180239366D01*
X56983332Y-180239366D02*
X56949999Y-180306033D01*
X56949999Y-180306033D02*
X56916666Y-180339366D01*
X56916666Y-180339366D02*
X56849999Y-180372700D01*
X56849999Y-180372700D02*
X56583332Y-180372700D01*
X56399048Y-195103866D02*
X57160953Y-195103866D01*
X80113810Y-166184819D02*
X80732857Y-166184819D01*
X80732857Y-166184819D02*
X80399524Y-166565771D01*
X80399524Y-166565771D02*
X80542381Y-166565771D01*
X80542381Y-166565771D02*
X80637619Y-166613390D01*
X80637619Y-166613390D02*
X80685238Y-166661009D01*
X80685238Y-166661009D02*
X80732857Y-166756247D01*
X80732857Y-166756247D02*
X80732857Y-166994342D01*
X80732857Y-166994342D02*
X80685238Y-167089580D01*
X80685238Y-167089580D02*
X80637619Y-167137200D01*
X80637619Y-167137200D02*
X80542381Y-167184819D01*
X80542381Y-167184819D02*
X80256667Y-167184819D01*
X80256667Y-167184819D02*
X80161429Y-167137200D01*
X80161429Y-167137200D02*
X80113810Y-167089580D01*
X81161429Y-167089580D02*
X81209048Y-167137200D01*
X81209048Y-167137200D02*
X81161429Y-167184819D01*
X81161429Y-167184819D02*
X81113810Y-167137200D01*
X81113810Y-167137200D02*
X81161429Y-167089580D01*
X81161429Y-167089580D02*
X81161429Y-167184819D01*
X81542381Y-166184819D02*
X82161428Y-166184819D01*
X82161428Y-166184819D02*
X81828095Y-166565771D01*
X81828095Y-166565771D02*
X81970952Y-166565771D01*
X81970952Y-166565771D02*
X82066190Y-166613390D01*
X82066190Y-166613390D02*
X82113809Y-166661009D01*
X82113809Y-166661009D02*
X82161428Y-166756247D01*
X82161428Y-166756247D02*
X82161428Y-166994342D01*
X82161428Y-166994342D02*
X82113809Y-167089580D01*
X82113809Y-167089580D02*
X82066190Y-167137200D01*
X82066190Y-167137200D02*
X81970952Y-167184819D01*
X81970952Y-167184819D02*
X81685238Y-167184819D01*
X81685238Y-167184819D02*
X81590000Y-167137200D01*
X81590000Y-167137200D02*
X81542381Y-167089580D01*
X82447143Y-166184819D02*
X82780476Y-167184819D01*
X82780476Y-167184819D02*
X83113809Y-166184819D01*
X80042381Y-167794819D02*
X80232857Y-167794819D01*
X80232857Y-167794819D02*
X80328095Y-167842438D01*
X80328095Y-167842438D02*
X80423333Y-167937676D01*
X80423333Y-167937676D02*
X80470952Y-168128152D01*
X80470952Y-168128152D02*
X80470952Y-168461485D01*
X80470952Y-168461485D02*
X80423333Y-168651961D01*
X80423333Y-168651961D02*
X80328095Y-168747200D01*
X80328095Y-168747200D02*
X80232857Y-168794819D01*
X80232857Y-168794819D02*
X80042381Y-168794819D01*
X80042381Y-168794819D02*
X79947143Y-168747200D01*
X79947143Y-168747200D02*
X79851905Y-168651961D01*
X79851905Y-168651961D02*
X79804286Y-168461485D01*
X79804286Y-168461485D02*
X79804286Y-168128152D01*
X79804286Y-168128152D02*
X79851905Y-167937676D01*
X79851905Y-167937676D02*
X79947143Y-167842438D01*
X79947143Y-167842438D02*
X80042381Y-167794819D01*
X80899524Y-168128152D02*
X80899524Y-168794819D01*
X80899524Y-168223390D02*
X80947143Y-168175771D01*
X80947143Y-168175771D02*
X81042381Y-168128152D01*
X81042381Y-168128152D02*
X81185238Y-168128152D01*
X81185238Y-168128152D02*
X81280476Y-168175771D01*
X81280476Y-168175771D02*
X81328095Y-168271009D01*
X81328095Y-168271009D02*
X81328095Y-168794819D01*
X82185238Y-168747200D02*
X82090000Y-168794819D01*
X82090000Y-168794819D02*
X81899524Y-168794819D01*
X81899524Y-168794819D02*
X81804286Y-168747200D01*
X81804286Y-168747200D02*
X81756667Y-168651961D01*
X81756667Y-168651961D02*
X81756667Y-168271009D01*
X81756667Y-168271009D02*
X81804286Y-168175771D01*
X81804286Y-168175771D02*
X81899524Y-168128152D01*
X81899524Y-168128152D02*
X82090000Y-168128152D01*
X82090000Y-168128152D02*
X82185238Y-168175771D01*
X82185238Y-168175771D02*
X82232857Y-168271009D01*
X82232857Y-168271009D02*
X82232857Y-168366247D01*
X82232857Y-168366247D02*
X81756667Y-168461485D01*
X82566191Y-167794819D02*
X82804286Y-168794819D01*
X82804286Y-168794819D02*
X82994762Y-168080533D01*
X82994762Y-168080533D02*
X83185238Y-168794819D01*
X83185238Y-168794819D02*
X83423334Y-167794819D01*
X80399524Y-170357200D02*
X80542381Y-170404819D01*
X80542381Y-170404819D02*
X80780476Y-170404819D01*
X80780476Y-170404819D02*
X80875714Y-170357200D01*
X80875714Y-170357200D02*
X80923333Y-170309580D01*
X80923333Y-170309580D02*
X80970952Y-170214342D01*
X80970952Y-170214342D02*
X80970952Y-170119104D01*
X80970952Y-170119104D02*
X80923333Y-170023866D01*
X80923333Y-170023866D02*
X80875714Y-169976247D01*
X80875714Y-169976247D02*
X80780476Y-169928628D01*
X80780476Y-169928628D02*
X80590000Y-169881009D01*
X80590000Y-169881009D02*
X80494762Y-169833390D01*
X80494762Y-169833390D02*
X80447143Y-169785771D01*
X80447143Y-169785771D02*
X80399524Y-169690533D01*
X80399524Y-169690533D02*
X80399524Y-169595295D01*
X80399524Y-169595295D02*
X80447143Y-169500057D01*
X80447143Y-169500057D02*
X80494762Y-169452438D01*
X80494762Y-169452438D02*
X80590000Y-169404819D01*
X80590000Y-169404819D02*
X80828095Y-169404819D01*
X80828095Y-169404819D02*
X80970952Y-169452438D01*
X81970952Y-170309580D02*
X81923333Y-170357200D01*
X81923333Y-170357200D02*
X81780476Y-170404819D01*
X81780476Y-170404819D02*
X81685238Y-170404819D01*
X81685238Y-170404819D02*
X81542381Y-170357200D01*
X81542381Y-170357200D02*
X81447143Y-170261961D01*
X81447143Y-170261961D02*
X81399524Y-170166723D01*
X81399524Y-170166723D02*
X81351905Y-169976247D01*
X81351905Y-169976247D02*
X81351905Y-169833390D01*
X81351905Y-169833390D02*
X81399524Y-169642914D01*
X81399524Y-169642914D02*
X81447143Y-169547676D01*
X81447143Y-169547676D02*
X81542381Y-169452438D01*
X81542381Y-169452438D02*
X81685238Y-169404819D01*
X81685238Y-169404819D02*
X81780476Y-169404819D01*
X81780476Y-169404819D02*
X81923333Y-169452438D01*
X81923333Y-169452438D02*
X81970952Y-169500057D01*
X82875714Y-170404819D02*
X82399524Y-170404819D01*
X82399524Y-170404819D02*
X82399524Y-169404819D01*
X80375714Y-171967200D02*
X80518571Y-172014819D01*
X80518571Y-172014819D02*
X80756666Y-172014819D01*
X80756666Y-172014819D02*
X80851904Y-171967200D01*
X80851904Y-171967200D02*
X80899523Y-171919580D01*
X80899523Y-171919580D02*
X80947142Y-171824342D01*
X80947142Y-171824342D02*
X80947142Y-171729104D01*
X80947142Y-171729104D02*
X80899523Y-171633866D01*
X80899523Y-171633866D02*
X80851904Y-171586247D01*
X80851904Y-171586247D02*
X80756666Y-171538628D01*
X80756666Y-171538628D02*
X80566190Y-171491009D01*
X80566190Y-171491009D02*
X80470952Y-171443390D01*
X80470952Y-171443390D02*
X80423333Y-171395771D01*
X80423333Y-171395771D02*
X80375714Y-171300533D01*
X80375714Y-171300533D02*
X80375714Y-171205295D01*
X80375714Y-171205295D02*
X80423333Y-171110057D01*
X80423333Y-171110057D02*
X80470952Y-171062438D01*
X80470952Y-171062438D02*
X80566190Y-171014819D01*
X80566190Y-171014819D02*
X80804285Y-171014819D01*
X80804285Y-171014819D02*
X80947142Y-171062438D01*
X81375714Y-172014819D02*
X81375714Y-171014819D01*
X81375714Y-171014819D02*
X81613809Y-171014819D01*
X81613809Y-171014819D02*
X81756666Y-171062438D01*
X81756666Y-171062438D02*
X81851904Y-171157676D01*
X81851904Y-171157676D02*
X81899523Y-171252914D01*
X81899523Y-171252914D02*
X81947142Y-171443390D01*
X81947142Y-171443390D02*
X81947142Y-171586247D01*
X81947142Y-171586247D02*
X81899523Y-171776723D01*
X81899523Y-171776723D02*
X81851904Y-171871961D01*
X81851904Y-171871961D02*
X81756666Y-171967200D01*
X81756666Y-171967200D02*
X81613809Y-172014819D01*
X81613809Y-172014819D02*
X81375714Y-172014819D01*
X82328095Y-171729104D02*
X82804285Y-171729104D01*
X82232857Y-172014819D02*
X82566190Y-171014819D01*
X82566190Y-171014819D02*
X82899523Y-172014819D01*
X80828095Y-172624819D02*
X81399523Y-172624819D01*
X81113809Y-173624819D02*
X81113809Y-172624819D01*
X81637619Y-172624819D02*
X82304285Y-173624819D01*
X82304285Y-172624819D02*
X81637619Y-173624819D01*
X81423333Y-175234819D02*
X81090000Y-174758628D01*
X80851905Y-175234819D02*
X80851905Y-174234819D01*
X80851905Y-174234819D02*
X81232857Y-174234819D01*
X81232857Y-174234819D02*
X81328095Y-174282438D01*
X81328095Y-174282438D02*
X81375714Y-174330057D01*
X81375714Y-174330057D02*
X81423333Y-174425295D01*
X81423333Y-174425295D02*
X81423333Y-174568152D01*
X81423333Y-174568152D02*
X81375714Y-174663390D01*
X81375714Y-174663390D02*
X81328095Y-174711009D01*
X81328095Y-174711009D02*
X81232857Y-174758628D01*
X81232857Y-174758628D02*
X80851905Y-174758628D01*
X81756667Y-174234819D02*
X82423333Y-175234819D01*
X82423333Y-174234819D02*
X81756667Y-175234819D01*
X80828095Y-175892438D02*
X80732857Y-175844819D01*
X80732857Y-175844819D02*
X80590000Y-175844819D01*
X80590000Y-175844819D02*
X80447143Y-175892438D01*
X80447143Y-175892438D02*
X80351905Y-175987676D01*
X80351905Y-175987676D02*
X80304286Y-176082914D01*
X80304286Y-176082914D02*
X80256667Y-176273390D01*
X80256667Y-176273390D02*
X80256667Y-176416247D01*
X80256667Y-176416247D02*
X80304286Y-176606723D01*
X80304286Y-176606723D02*
X80351905Y-176701961D01*
X80351905Y-176701961D02*
X80447143Y-176797200D01*
X80447143Y-176797200D02*
X80590000Y-176844819D01*
X80590000Y-176844819D02*
X80685238Y-176844819D01*
X80685238Y-176844819D02*
X80828095Y-176797200D01*
X80828095Y-176797200D02*
X80875714Y-176749580D01*
X80875714Y-176749580D02*
X80875714Y-176416247D01*
X80875714Y-176416247D02*
X80685238Y-176416247D01*
X81304286Y-176844819D02*
X81304286Y-175844819D01*
X81304286Y-175844819D02*
X81875714Y-176844819D01*
X81875714Y-176844819D02*
X81875714Y-175844819D01*
X82351905Y-176844819D02*
X82351905Y-175844819D01*
X82351905Y-175844819D02*
X82590000Y-175844819D01*
X82590000Y-175844819D02*
X82732857Y-175892438D01*
X82732857Y-175892438D02*
X82828095Y-175987676D01*
X82828095Y-175987676D02*
X82875714Y-176082914D01*
X82875714Y-176082914D02*
X82923333Y-176273390D01*
X82923333Y-176273390D02*
X82923333Y-176416247D01*
X82923333Y-176416247D02*
X82875714Y-176606723D01*
X82875714Y-176606723D02*
X82828095Y-176701961D01*
X82828095Y-176701961D02*
X82732857Y-176797200D01*
X82732857Y-176797200D02*
X82590000Y-176844819D01*
X82590000Y-176844819D02*
X82351905Y-176844819D01*
X13827142Y-175270438D02*
X13731904Y-175222819D01*
X13731904Y-175222819D02*
X13589047Y-175222819D01*
X13589047Y-175222819D02*
X13446190Y-175270438D01*
X13446190Y-175270438D02*
X13350952Y-175365676D01*
X13350952Y-175365676D02*
X13303333Y-175460914D01*
X13303333Y-175460914D02*
X13255714Y-175651390D01*
X13255714Y-175651390D02*
X13255714Y-175794247D01*
X13255714Y-175794247D02*
X13303333Y-175984723D01*
X13303333Y-175984723D02*
X13350952Y-176079961D01*
X13350952Y-176079961D02*
X13446190Y-176175200D01*
X13446190Y-176175200D02*
X13589047Y-176222819D01*
X13589047Y-176222819D02*
X13684285Y-176222819D01*
X13684285Y-176222819D02*
X13827142Y-176175200D01*
X13827142Y-176175200D02*
X13874761Y-176127580D01*
X13874761Y-176127580D02*
X13874761Y-175794247D01*
X13874761Y-175794247D02*
X13684285Y-175794247D01*
X14779523Y-176222819D02*
X14303333Y-176222819D01*
X14303333Y-176222819D02*
X14303333Y-175222819D01*
X51471905Y-197574819D02*
X51471905Y-196574819D01*
X51471905Y-196574819D02*
X51852857Y-196574819D01*
X51852857Y-196574819D02*
X51948095Y-196622438D01*
X51948095Y-196622438D02*
X51995714Y-196670057D01*
X51995714Y-196670057D02*
X52043333Y-196765295D01*
X52043333Y-196765295D02*
X52043333Y-196908152D01*
X52043333Y-196908152D02*
X51995714Y-197003390D01*
X51995714Y-197003390D02*
X51948095Y-197051009D01*
X51948095Y-197051009D02*
X51852857Y-197098628D01*
X51852857Y-197098628D02*
X51471905Y-197098628D01*
X52995714Y-197574819D02*
X52424286Y-197574819D01*
X52710000Y-197574819D02*
X52710000Y-196574819D01*
X52710000Y-196574819D02*
X52614762Y-196717676D01*
X52614762Y-196717676D02*
X52519524Y-196812914D01*
X52519524Y-196812914D02*
X52424286Y-196860533D01*
X27059048Y-151584819D02*
X27059048Y-150584819D01*
X27630476Y-151584819D02*
X27201905Y-151013390D01*
X27630476Y-150584819D02*
X27059048Y-151156247D01*
X28059048Y-151203866D02*
X28820953Y-151203866D01*
X51188095Y-184462438D02*
X51092857Y-184414819D01*
X51092857Y-184414819D02*
X50950000Y-184414819D01*
X50950000Y-184414819D02*
X50807143Y-184462438D01*
X50807143Y-184462438D02*
X50711905Y-184557676D01*
X50711905Y-184557676D02*
X50664286Y-184652914D01*
X50664286Y-184652914D02*
X50616667Y-184843390D01*
X50616667Y-184843390D02*
X50616667Y-184986247D01*
X50616667Y-184986247D02*
X50664286Y-185176723D01*
X50664286Y-185176723D02*
X50711905Y-185271961D01*
X50711905Y-185271961D02*
X50807143Y-185367200D01*
X50807143Y-185367200D02*
X50950000Y-185414819D01*
X50950000Y-185414819D02*
X51045238Y-185414819D01*
X51045238Y-185414819D02*
X51188095Y-185367200D01*
X51188095Y-185367200D02*
X51235714Y-185319580D01*
X51235714Y-185319580D02*
X51235714Y-184986247D01*
X51235714Y-184986247D02*
X51045238Y-184986247D01*
X51664286Y-185414819D02*
X51664286Y-184414819D01*
X51664286Y-184414819D02*
X52235714Y-185414819D01*
X52235714Y-185414819D02*
X52235714Y-184414819D01*
X52711905Y-185414819D02*
X52711905Y-184414819D01*
X52711905Y-184414819D02*
X52950000Y-184414819D01*
X52950000Y-184414819D02*
X53092857Y-184462438D01*
X53092857Y-184462438D02*
X53188095Y-184557676D01*
X53188095Y-184557676D02*
X53235714Y-184652914D01*
X53235714Y-184652914D02*
X53283333Y-184843390D01*
X53283333Y-184843390D02*
X53283333Y-184986247D01*
X53283333Y-184986247D02*
X53235714Y-185176723D01*
X53235714Y-185176723D02*
X53188095Y-185271961D01*
X53188095Y-185271961D02*
X53092857Y-185367200D01*
X53092857Y-185367200D02*
X52950000Y-185414819D01*
X52950000Y-185414819D02*
X52711905Y-185414819D01*
D11*
X52149524Y-166132309D02*
X52482857Y-166132309D01*
X52625714Y-166656119D02*
X52149524Y-166656119D01*
X52149524Y-166656119D02*
X52149524Y-165656119D01*
X52149524Y-165656119D02*
X52625714Y-165656119D01*
X53006667Y-166608500D02*
X53149524Y-166656119D01*
X53149524Y-166656119D02*
X53387619Y-166656119D01*
X53387619Y-166656119D02*
X53482857Y-166608500D01*
X53482857Y-166608500D02*
X53530476Y-166560880D01*
X53530476Y-166560880D02*
X53578095Y-166465642D01*
X53578095Y-166465642D02*
X53578095Y-166370404D01*
X53578095Y-166370404D02*
X53530476Y-166275166D01*
X53530476Y-166275166D02*
X53482857Y-166227547D01*
X53482857Y-166227547D02*
X53387619Y-166179928D01*
X53387619Y-166179928D02*
X53197143Y-166132309D01*
X53197143Y-166132309D02*
X53101905Y-166084690D01*
X53101905Y-166084690D02*
X53054286Y-166037071D01*
X53054286Y-166037071D02*
X53006667Y-165941833D01*
X53006667Y-165941833D02*
X53006667Y-165846595D01*
X53006667Y-165846595D02*
X53054286Y-165751357D01*
X53054286Y-165751357D02*
X53101905Y-165703738D01*
X53101905Y-165703738D02*
X53197143Y-165656119D01*
X53197143Y-165656119D02*
X53435238Y-165656119D01*
X53435238Y-165656119D02*
X53578095Y-165703738D01*
X54578095Y-166560880D02*
X54530476Y-166608500D01*
X54530476Y-166608500D02*
X54387619Y-166656119D01*
X54387619Y-166656119D02*
X54292381Y-166656119D01*
X54292381Y-166656119D02*
X54149524Y-166608500D01*
X54149524Y-166608500D02*
X54054286Y-166513261D01*
X54054286Y-166513261D02*
X54006667Y-166418023D01*
X54006667Y-166418023D02*
X53959048Y-166227547D01*
X53959048Y-166227547D02*
X53959048Y-166084690D01*
X53959048Y-166084690D02*
X54006667Y-165894214D01*
X54006667Y-165894214D02*
X54054286Y-165798976D01*
X54054286Y-165798976D02*
X54149524Y-165703738D01*
X54149524Y-165703738D02*
X54292381Y-165656119D01*
X54292381Y-165656119D02*
X54387619Y-165656119D01*
X54387619Y-165656119D02*
X54530476Y-165703738D01*
X54530476Y-165703738D02*
X54578095Y-165751357D01*
X51006667Y-168266119D02*
X51006667Y-167266119D01*
X51006667Y-167266119D02*
X51244762Y-167266119D01*
X51244762Y-167266119D02*
X51387619Y-167313738D01*
X51387619Y-167313738D02*
X51482857Y-167408976D01*
X51482857Y-167408976D02*
X51530476Y-167504214D01*
X51530476Y-167504214D02*
X51578095Y-167694690D01*
X51578095Y-167694690D02*
X51578095Y-167837547D01*
X51578095Y-167837547D02*
X51530476Y-168028023D01*
X51530476Y-168028023D02*
X51482857Y-168123261D01*
X51482857Y-168123261D02*
X51387619Y-168218500D01*
X51387619Y-168218500D02*
X51244762Y-168266119D01*
X51244762Y-168266119D02*
X51006667Y-168266119D01*
X52006667Y-168266119D02*
X52006667Y-167266119D01*
X53054285Y-168266119D02*
X52720952Y-167789928D01*
X52482857Y-168266119D02*
X52482857Y-167266119D01*
X52482857Y-167266119D02*
X52863809Y-167266119D01*
X52863809Y-167266119D02*
X52959047Y-167313738D01*
X52959047Y-167313738D02*
X53006666Y-167361357D01*
X53006666Y-167361357D02*
X53054285Y-167456595D01*
X53054285Y-167456595D02*
X53054285Y-167599452D01*
X53054285Y-167599452D02*
X53006666Y-167694690D01*
X53006666Y-167694690D02*
X52959047Y-167742309D01*
X52959047Y-167742309D02*
X52863809Y-167789928D01*
X52863809Y-167789928D02*
X52482857Y-167789928D01*
X53482857Y-167742309D02*
X53816190Y-167742309D01*
X53959047Y-168266119D02*
X53482857Y-168266119D01*
X53482857Y-168266119D02*
X53482857Y-167266119D01*
X53482857Y-167266119D02*
X53959047Y-167266119D01*
X54959047Y-168170880D02*
X54911428Y-168218500D01*
X54911428Y-168218500D02*
X54768571Y-168266119D01*
X54768571Y-168266119D02*
X54673333Y-168266119D01*
X54673333Y-168266119D02*
X54530476Y-168218500D01*
X54530476Y-168218500D02*
X54435238Y-168123261D01*
X54435238Y-168123261D02*
X54387619Y-168028023D01*
X54387619Y-168028023D02*
X54340000Y-167837547D01*
X54340000Y-167837547D02*
X54340000Y-167694690D01*
X54340000Y-167694690D02*
X54387619Y-167504214D01*
X54387619Y-167504214D02*
X54435238Y-167408976D01*
X54435238Y-167408976D02*
X54530476Y-167313738D01*
X54530476Y-167313738D02*
X54673333Y-167266119D01*
X54673333Y-167266119D02*
X54768571Y-167266119D01*
X54768571Y-167266119D02*
X54911428Y-167313738D01*
X54911428Y-167313738D02*
X54959047Y-167361357D01*
X55244762Y-167266119D02*
X55816190Y-167266119D01*
X55530476Y-168266119D02*
X55530476Y-167266119D01*
D10*
X77374905Y-151172104D02*
X77851095Y-151172104D01*
X77279667Y-151457819D02*
X77613000Y-150457819D01*
X77613000Y-150457819D02*
X77946333Y-151457819D01*
X78279667Y-150457819D02*
X78279667Y-151267342D01*
X78279667Y-151267342D02*
X78327286Y-151362580D01*
X78327286Y-151362580D02*
X78374905Y-151410200D01*
X78374905Y-151410200D02*
X78470143Y-151457819D01*
X78470143Y-151457819D02*
X78660619Y-151457819D01*
X78660619Y-151457819D02*
X78755857Y-151410200D01*
X78755857Y-151410200D02*
X78803476Y-151362580D01*
X78803476Y-151362580D02*
X78851095Y-151267342D01*
X78851095Y-151267342D02*
X78851095Y-150457819D01*
X79232048Y-150457819D02*
X79898714Y-151457819D01*
X79898714Y-150457819D02*
X79232048Y-151457819D01*
X46825819Y-161519999D02*
X46825819Y-160948571D01*
X47825819Y-161234285D02*
X46825819Y-161234285D01*
X47825819Y-160615237D02*
X46825819Y-160615237D01*
X46825819Y-160615237D02*
X46825819Y-160377142D01*
X46825819Y-160377142D02*
X46873438Y-160234285D01*
X46873438Y-160234285D02*
X46968676Y-160139047D01*
X46968676Y-160139047D02*
X47063914Y-160091428D01*
X47063914Y-160091428D02*
X47254390Y-160043809D01*
X47254390Y-160043809D02*
X47397247Y-160043809D01*
X47397247Y-160043809D02*
X47587723Y-160091428D01*
X47587723Y-160091428D02*
X47682961Y-160139047D01*
X47682961Y-160139047D02*
X47778200Y-160234285D01*
X47778200Y-160234285D02*
X47825819Y-160377142D01*
X47825819Y-160377142D02*
X47825819Y-160615237D01*
X47825819Y-159615237D02*
X46825819Y-159615237D01*
X47825819Y-158615238D02*
X47825819Y-159186666D01*
X47825819Y-158900952D02*
X46825819Y-158900952D01*
X46825819Y-158900952D02*
X46968676Y-158996190D01*
X46968676Y-158996190D02*
X47063914Y-159091428D01*
X47063914Y-159091428D02*
X47111533Y-159186666D01*
X26966057Y-186277238D02*
X26918438Y-186372476D01*
X26918438Y-186372476D02*
X26823200Y-186467714D01*
X26823200Y-186467714D02*
X26680342Y-186610571D01*
X26680342Y-186610571D02*
X26632723Y-186705809D01*
X26632723Y-186705809D02*
X26632723Y-186801047D01*
X26870819Y-186753428D02*
X26823200Y-186848666D01*
X26823200Y-186848666D02*
X26727961Y-186943904D01*
X26727961Y-186943904D02*
X26537485Y-186991523D01*
X26537485Y-186991523D02*
X26204152Y-186991523D01*
X26204152Y-186991523D02*
X26013676Y-186943904D01*
X26013676Y-186943904D02*
X25918438Y-186848666D01*
X25918438Y-186848666D02*
X25870819Y-186753428D01*
X25870819Y-186753428D02*
X25870819Y-186562952D01*
X25870819Y-186562952D02*
X25918438Y-186467714D01*
X25918438Y-186467714D02*
X26013676Y-186372476D01*
X26013676Y-186372476D02*
X26204152Y-186324857D01*
X26204152Y-186324857D02*
X26537485Y-186324857D01*
X26537485Y-186324857D02*
X26727961Y-186372476D01*
X26727961Y-186372476D02*
X26823200Y-186467714D01*
X26823200Y-186467714D02*
X26870819Y-186562952D01*
X26870819Y-186562952D02*
X26870819Y-186753428D01*
X25870819Y-185420095D02*
X25870819Y-185896285D01*
X25870819Y-185896285D02*
X26347009Y-185943904D01*
X26347009Y-185943904D02*
X26299390Y-185896285D01*
X26299390Y-185896285D02*
X26251771Y-185801047D01*
X26251771Y-185801047D02*
X26251771Y-185562952D01*
X26251771Y-185562952D02*
X26299390Y-185467714D01*
X26299390Y-185467714D02*
X26347009Y-185420095D01*
X26347009Y-185420095D02*
X26442247Y-185372476D01*
X26442247Y-185372476D02*
X26680342Y-185372476D01*
X26680342Y-185372476D02*
X26775580Y-185420095D01*
X26775580Y-185420095D02*
X26823200Y-185467714D01*
X26823200Y-185467714D02*
X26870819Y-185562952D01*
X26870819Y-185562952D02*
X26870819Y-185801047D01*
X26870819Y-185801047D02*
X26823200Y-185896285D01*
X26823200Y-185896285D02*
X26775580Y-185943904D01*
X26966057Y-172307238D02*
X26918438Y-172402476D01*
X26918438Y-172402476D02*
X26823200Y-172497714D01*
X26823200Y-172497714D02*
X26680342Y-172640571D01*
X26680342Y-172640571D02*
X26632723Y-172735809D01*
X26632723Y-172735809D02*
X26632723Y-172831047D01*
X26870819Y-172783428D02*
X26823200Y-172878666D01*
X26823200Y-172878666D02*
X26727961Y-172973904D01*
X26727961Y-172973904D02*
X26537485Y-173021523D01*
X26537485Y-173021523D02*
X26204152Y-173021523D01*
X26204152Y-173021523D02*
X26013676Y-172973904D01*
X26013676Y-172973904D02*
X25918438Y-172878666D01*
X25918438Y-172878666D02*
X25870819Y-172783428D01*
X25870819Y-172783428D02*
X25870819Y-172592952D01*
X25870819Y-172592952D02*
X25918438Y-172497714D01*
X25918438Y-172497714D02*
X26013676Y-172402476D01*
X26013676Y-172402476D02*
X26204152Y-172354857D01*
X26204152Y-172354857D02*
X26537485Y-172354857D01*
X26537485Y-172354857D02*
X26727961Y-172402476D01*
X26727961Y-172402476D02*
X26823200Y-172497714D01*
X26823200Y-172497714D02*
X26870819Y-172592952D01*
X26870819Y-172592952D02*
X26870819Y-172783428D01*
X25870819Y-171497714D02*
X25870819Y-171688190D01*
X25870819Y-171688190D02*
X25918438Y-171783428D01*
X25918438Y-171783428D02*
X25966057Y-171831047D01*
X25966057Y-171831047D02*
X26108914Y-171926285D01*
X26108914Y-171926285D02*
X26299390Y-171973904D01*
X26299390Y-171973904D02*
X26680342Y-171973904D01*
X26680342Y-171973904D02*
X26775580Y-171926285D01*
X26775580Y-171926285D02*
X26823200Y-171878666D01*
X26823200Y-171878666D02*
X26870819Y-171783428D01*
X26870819Y-171783428D02*
X26870819Y-171592952D01*
X26870819Y-171592952D02*
X26823200Y-171497714D01*
X26823200Y-171497714D02*
X26775580Y-171450095D01*
X26775580Y-171450095D02*
X26680342Y-171402476D01*
X26680342Y-171402476D02*
X26442247Y-171402476D01*
X26442247Y-171402476D02*
X26347009Y-171450095D01*
X26347009Y-171450095D02*
X26299390Y-171497714D01*
X26299390Y-171497714D02*
X26251771Y-171592952D01*
X26251771Y-171592952D02*
X26251771Y-171783428D01*
X26251771Y-171783428D02*
X26299390Y-171878666D01*
X26299390Y-171878666D02*
X26347009Y-171926285D01*
X26347009Y-171926285D02*
X26442247Y-171973904D01*
X23582333Y-162760819D02*
X23249000Y-162284628D01*
X23010905Y-162760819D02*
X23010905Y-161760819D01*
X23010905Y-161760819D02*
X23391857Y-161760819D01*
X23391857Y-161760819D02*
X23487095Y-161808438D01*
X23487095Y-161808438D02*
X23534714Y-161856057D01*
X23534714Y-161856057D02*
X23582333Y-161951295D01*
X23582333Y-161951295D02*
X23582333Y-162094152D01*
X23582333Y-162094152D02*
X23534714Y-162189390D01*
X23534714Y-162189390D02*
X23487095Y-162237009D01*
X23487095Y-162237009D02*
X23391857Y-162284628D01*
X23391857Y-162284628D02*
X23010905Y-162284628D01*
X24439476Y-162094152D02*
X24439476Y-162760819D01*
X24201381Y-161713200D02*
X23963286Y-162427485D01*
X23963286Y-162427485D02*
X24582333Y-162427485D01*
X59417809Y-169701933D02*
X59465428Y-169559076D01*
X59465428Y-169559076D02*
X59513047Y-169511457D01*
X59513047Y-169511457D02*
X59608285Y-169463838D01*
X59608285Y-169463838D02*
X59751142Y-169463838D01*
X59751142Y-169463838D02*
X59846380Y-169511457D01*
X59846380Y-169511457D02*
X59894000Y-169559076D01*
X59894000Y-169559076D02*
X59941619Y-169654314D01*
X59941619Y-169654314D02*
X59941619Y-170035266D01*
X59941619Y-170035266D02*
X58941619Y-170035266D01*
X58941619Y-170035266D02*
X58941619Y-169701933D01*
X58941619Y-169701933D02*
X58989238Y-169606695D01*
X58989238Y-169606695D02*
X59036857Y-169559076D01*
X59036857Y-169559076D02*
X59132095Y-169511457D01*
X59132095Y-169511457D02*
X59227333Y-169511457D01*
X59227333Y-169511457D02*
X59322571Y-169559076D01*
X59322571Y-169559076D02*
X59370190Y-169606695D01*
X59370190Y-169606695D02*
X59417809Y-169701933D01*
X59417809Y-169701933D02*
X59417809Y-170035266D01*
X58941619Y-168844790D02*
X58941619Y-168654314D01*
X58941619Y-168654314D02*
X58989238Y-168559076D01*
X58989238Y-168559076D02*
X59084476Y-168463838D01*
X59084476Y-168463838D02*
X59274952Y-168416219D01*
X59274952Y-168416219D02*
X59608285Y-168416219D01*
X59608285Y-168416219D02*
X59798761Y-168463838D01*
X59798761Y-168463838D02*
X59894000Y-168559076D01*
X59894000Y-168559076D02*
X59941619Y-168654314D01*
X59941619Y-168654314D02*
X59941619Y-168844790D01*
X59941619Y-168844790D02*
X59894000Y-168940028D01*
X59894000Y-168940028D02*
X59798761Y-169035266D01*
X59798761Y-169035266D02*
X59608285Y-169082885D01*
X59608285Y-169082885D02*
X59274952Y-169082885D01*
X59274952Y-169082885D02*
X59084476Y-169035266D01*
X59084476Y-169035266D02*
X58989238Y-168940028D01*
X58989238Y-168940028D02*
X58941619Y-168844790D01*
X58941619Y-167797171D02*
X58941619Y-167606695D01*
X58941619Y-167606695D02*
X58989238Y-167511457D01*
X58989238Y-167511457D02*
X59084476Y-167416219D01*
X59084476Y-167416219D02*
X59274952Y-167368600D01*
X59274952Y-167368600D02*
X59608285Y-167368600D01*
X59608285Y-167368600D02*
X59798761Y-167416219D01*
X59798761Y-167416219D02*
X59894000Y-167511457D01*
X59894000Y-167511457D02*
X59941619Y-167606695D01*
X59941619Y-167606695D02*
X59941619Y-167797171D01*
X59941619Y-167797171D02*
X59894000Y-167892409D01*
X59894000Y-167892409D02*
X59798761Y-167987647D01*
X59798761Y-167987647D02*
X59608285Y-168035266D01*
X59608285Y-168035266D02*
X59274952Y-168035266D01*
X59274952Y-168035266D02*
X59084476Y-167987647D01*
X59084476Y-167987647D02*
X58989238Y-167892409D01*
X58989238Y-167892409D02*
X58941619Y-167797171D01*
X58941619Y-167082885D02*
X58941619Y-166511457D01*
X59941619Y-166797171D02*
X58941619Y-166797171D01*
X59941619Y-165654314D02*
X59941619Y-166225742D01*
X59941619Y-165940028D02*
X58941619Y-165940028D01*
X58941619Y-165940028D02*
X59084476Y-166035266D01*
X59084476Y-166035266D02*
X59179714Y-166130504D01*
X59179714Y-166130504D02*
X59227333Y-166225742D01*
X37996533Y-163935580D02*
X37948914Y-163983200D01*
X37948914Y-163983200D02*
X37806057Y-164030819D01*
X37806057Y-164030819D02*
X37710819Y-164030819D01*
X37710819Y-164030819D02*
X37567962Y-163983200D01*
X37567962Y-163983200D02*
X37472724Y-163887961D01*
X37472724Y-163887961D02*
X37425105Y-163792723D01*
X37425105Y-163792723D02*
X37377486Y-163602247D01*
X37377486Y-163602247D02*
X37377486Y-163459390D01*
X37377486Y-163459390D02*
X37425105Y-163268914D01*
X37425105Y-163268914D02*
X37472724Y-163173676D01*
X37472724Y-163173676D02*
X37567962Y-163078438D01*
X37567962Y-163078438D02*
X37710819Y-163030819D01*
X37710819Y-163030819D02*
X37806057Y-163030819D01*
X37806057Y-163030819D02*
X37948914Y-163078438D01*
X37948914Y-163078438D02*
X37996533Y-163126057D01*
X38329867Y-163030819D02*
X38996533Y-163030819D01*
X38996533Y-163030819D02*
X38567962Y-164030819D01*
X20534333Y-162506819D02*
X20201000Y-162030628D01*
X19962905Y-162506819D02*
X19962905Y-161506819D01*
X19962905Y-161506819D02*
X20343857Y-161506819D01*
X20343857Y-161506819D02*
X20439095Y-161554438D01*
X20439095Y-161554438D02*
X20486714Y-161602057D01*
X20486714Y-161602057D02*
X20534333Y-161697295D01*
X20534333Y-161697295D02*
X20534333Y-161840152D01*
X20534333Y-161840152D02*
X20486714Y-161935390D01*
X20486714Y-161935390D02*
X20439095Y-161983009D01*
X20439095Y-161983009D02*
X20343857Y-162030628D01*
X20343857Y-162030628D02*
X19962905Y-162030628D01*
X20867667Y-161506819D02*
X21486714Y-161506819D01*
X21486714Y-161506819D02*
X21153381Y-161887771D01*
X21153381Y-161887771D02*
X21296238Y-161887771D01*
X21296238Y-161887771D02*
X21391476Y-161935390D01*
X21391476Y-161935390D02*
X21439095Y-161983009D01*
X21439095Y-161983009D02*
X21486714Y-162078247D01*
X21486714Y-162078247D02*
X21486714Y-162316342D01*
X21486714Y-162316342D02*
X21439095Y-162411580D01*
X21439095Y-162411580D02*
X21391476Y-162459200D01*
X21391476Y-162459200D02*
X21296238Y-162506819D01*
X21296238Y-162506819D02*
X21010524Y-162506819D01*
X21010524Y-162506819D02*
X20915286Y-162459200D01*
X20915286Y-162459200D02*
X20867667Y-162411580D01*
X38046819Y-193936857D02*
X37570628Y-194270190D01*
X38046819Y-194508285D02*
X37046819Y-194508285D01*
X37046819Y-194508285D02*
X37046819Y-194127333D01*
X37046819Y-194127333D02*
X37094438Y-194032095D01*
X37094438Y-194032095D02*
X37142057Y-193984476D01*
X37142057Y-193984476D02*
X37237295Y-193936857D01*
X37237295Y-193936857D02*
X37380152Y-193936857D01*
X37380152Y-193936857D02*
X37475390Y-193984476D01*
X37475390Y-193984476D02*
X37523009Y-194032095D01*
X37523009Y-194032095D02*
X37570628Y-194127333D01*
X37570628Y-194127333D02*
X37570628Y-194508285D01*
X38046819Y-192984476D02*
X38046819Y-193555904D01*
X38046819Y-193270190D02*
X37046819Y-193270190D01*
X37046819Y-193270190D02*
X37189676Y-193365428D01*
X37189676Y-193365428D02*
X37284914Y-193460666D01*
X37284914Y-193460666D02*
X37332533Y-193555904D01*
X38046819Y-192032095D02*
X38046819Y-192603523D01*
X38046819Y-192317809D02*
X37046819Y-192317809D01*
X37046819Y-192317809D02*
X37189676Y-192413047D01*
X37189676Y-192413047D02*
X37284914Y-192508285D01*
X37284914Y-192508285D02*
X37332533Y-192603523D01*
X84504819Y-186679523D02*
X85219104Y-186679523D01*
X85219104Y-186679523D02*
X85361961Y-186727142D01*
X85361961Y-186727142D02*
X85457200Y-186822380D01*
X85457200Y-186822380D02*
X85504819Y-186965237D01*
X85504819Y-186965237D02*
X85504819Y-187060475D01*
X84600057Y-186250951D02*
X84552438Y-186203332D01*
X84552438Y-186203332D02*
X84504819Y-186108094D01*
X84504819Y-186108094D02*
X84504819Y-185869999D01*
X84504819Y-185869999D02*
X84552438Y-185774761D01*
X84552438Y-185774761D02*
X84600057Y-185727142D01*
X84600057Y-185727142D02*
X84695295Y-185679523D01*
X84695295Y-185679523D02*
X84790533Y-185679523D01*
X84790533Y-185679523D02*
X84933390Y-185727142D01*
X84933390Y-185727142D02*
X85504819Y-186298570D01*
X85504819Y-186298570D02*
X85504819Y-185679523D01*
X85504819Y-184727142D02*
X85504819Y-185298570D01*
X85504819Y-185012856D02*
X84504819Y-185012856D01*
X84504819Y-185012856D02*
X84647676Y-185108094D01*
X84647676Y-185108094D02*
X84742914Y-185203332D01*
X84742914Y-185203332D02*
X84790533Y-185298570D01*
X38427819Y-186348666D02*
X37951628Y-186681999D01*
X38427819Y-186920094D02*
X37427819Y-186920094D01*
X37427819Y-186920094D02*
X37427819Y-186539142D01*
X37427819Y-186539142D02*
X37475438Y-186443904D01*
X37475438Y-186443904D02*
X37523057Y-186396285D01*
X37523057Y-186396285D02*
X37618295Y-186348666D01*
X37618295Y-186348666D02*
X37761152Y-186348666D01*
X37761152Y-186348666D02*
X37856390Y-186396285D01*
X37856390Y-186396285D02*
X37904009Y-186443904D01*
X37904009Y-186443904D02*
X37951628Y-186539142D01*
X37951628Y-186539142D02*
X37951628Y-186920094D01*
X37427819Y-186015332D02*
X37427819Y-185348666D01*
X37427819Y-185348666D02*
X38427819Y-185777237D01*
X54900476Y-186694819D02*
X54900476Y-187409104D01*
X54900476Y-187409104D02*
X54852857Y-187551961D01*
X54852857Y-187551961D02*
X54757619Y-187647200D01*
X54757619Y-187647200D02*
X54614762Y-187694819D01*
X54614762Y-187694819D02*
X54519524Y-187694819D01*
X55900476Y-187694819D02*
X55329048Y-187694819D01*
X55614762Y-187694819D02*
X55614762Y-186694819D01*
X55614762Y-186694819D02*
X55519524Y-186837676D01*
X55519524Y-186837676D02*
X55424286Y-186932914D01*
X55424286Y-186932914D02*
X55329048Y-186980533D01*
X56376667Y-187694819D02*
X56567143Y-187694819D01*
X56567143Y-187694819D02*
X56662381Y-187647200D01*
X56662381Y-187647200D02*
X56710000Y-187599580D01*
X56710000Y-187599580D02*
X56805238Y-187456723D01*
X56805238Y-187456723D02*
X56852857Y-187266247D01*
X56852857Y-187266247D02*
X56852857Y-186885295D01*
X56852857Y-186885295D02*
X56805238Y-186790057D01*
X56805238Y-186790057D02*
X56757619Y-186742438D01*
X56757619Y-186742438D02*
X56662381Y-186694819D01*
X56662381Y-186694819D02*
X56471905Y-186694819D01*
X56471905Y-186694819D02*
X56376667Y-186742438D01*
X56376667Y-186742438D02*
X56329048Y-186790057D01*
X56329048Y-186790057D02*
X56281429Y-186885295D01*
X56281429Y-186885295D02*
X56281429Y-187123390D01*
X56281429Y-187123390D02*
X56329048Y-187218628D01*
X56329048Y-187218628D02*
X56376667Y-187266247D01*
X56376667Y-187266247D02*
X56471905Y-187313866D01*
X56471905Y-187313866D02*
X56662381Y-187313866D01*
X56662381Y-187313866D02*
X56757619Y-187266247D01*
X56757619Y-187266247D02*
X56805238Y-187218628D01*
X56805238Y-187218628D02*
X56852857Y-187123390D01*
X31696819Y-165107857D02*
X31220628Y-165441190D01*
X31696819Y-165679285D02*
X30696819Y-165679285D01*
X30696819Y-165679285D02*
X30696819Y-165298333D01*
X30696819Y-165298333D02*
X30744438Y-165203095D01*
X30744438Y-165203095D02*
X30792057Y-165155476D01*
X30792057Y-165155476D02*
X30887295Y-165107857D01*
X30887295Y-165107857D02*
X31030152Y-165107857D01*
X31030152Y-165107857D02*
X31125390Y-165155476D01*
X31125390Y-165155476D02*
X31173009Y-165203095D01*
X31173009Y-165203095D02*
X31220628Y-165298333D01*
X31220628Y-165298333D02*
X31220628Y-165679285D01*
X31696819Y-164155476D02*
X31696819Y-164726904D01*
X31696819Y-164441190D02*
X30696819Y-164441190D01*
X30696819Y-164441190D02*
X30839676Y-164536428D01*
X30839676Y-164536428D02*
X30934914Y-164631666D01*
X30934914Y-164631666D02*
X30982533Y-164726904D01*
X30792057Y-163774523D02*
X30744438Y-163726904D01*
X30744438Y-163726904D02*
X30696819Y-163631666D01*
X30696819Y-163631666D02*
X30696819Y-163393571D01*
X30696819Y-163393571D02*
X30744438Y-163298333D01*
X30744438Y-163298333D02*
X30792057Y-163250714D01*
X30792057Y-163250714D02*
X30887295Y-163203095D01*
X30887295Y-163203095D02*
X30982533Y-163203095D01*
X30982533Y-163203095D02*
X31125390Y-163250714D01*
X31125390Y-163250714D02*
X31696819Y-163822142D01*
X31696819Y-163822142D02*
X31696819Y-163203095D01*
X13121571Y-180200700D02*
X14264429Y-180200700D01*
X13693000Y-180772128D02*
X13693000Y-179629271D01*
X26121571Y-180200700D02*
X27264429Y-180200700D01*
X68590438Y-166465095D02*
X68542819Y-166560333D01*
X68542819Y-166560333D02*
X68542819Y-166703190D01*
X68542819Y-166703190D02*
X68590438Y-166846047D01*
X68590438Y-166846047D02*
X68685676Y-166941285D01*
X68685676Y-166941285D02*
X68780914Y-166988904D01*
X68780914Y-166988904D02*
X68971390Y-167036523D01*
X68971390Y-167036523D02*
X69114247Y-167036523D01*
X69114247Y-167036523D02*
X69304723Y-166988904D01*
X69304723Y-166988904D02*
X69399961Y-166941285D01*
X69399961Y-166941285D02*
X69495200Y-166846047D01*
X69495200Y-166846047D02*
X69542819Y-166703190D01*
X69542819Y-166703190D02*
X69542819Y-166607952D01*
X69542819Y-166607952D02*
X69495200Y-166465095D01*
X69495200Y-166465095D02*
X69447580Y-166417476D01*
X69447580Y-166417476D02*
X69114247Y-166417476D01*
X69114247Y-166417476D02*
X69114247Y-166607952D01*
X69542819Y-165988904D02*
X68542819Y-165988904D01*
X68542819Y-165988904D02*
X69542819Y-165417476D01*
X69542819Y-165417476D02*
X68542819Y-165417476D01*
X69542819Y-164941285D02*
X68542819Y-164941285D01*
X68542819Y-164941285D02*
X68542819Y-164703190D01*
X68542819Y-164703190D02*
X68590438Y-164560333D01*
X68590438Y-164560333D02*
X68685676Y-164465095D01*
X68685676Y-164465095D02*
X68780914Y-164417476D01*
X68780914Y-164417476D02*
X68971390Y-164369857D01*
X68971390Y-164369857D02*
X69114247Y-164369857D01*
X69114247Y-164369857D02*
X69304723Y-164417476D01*
X69304723Y-164417476D02*
X69399961Y-164465095D01*
X69399961Y-164465095D02*
X69495200Y-164560333D01*
X69495200Y-164560333D02*
X69542819Y-164703190D01*
X69542819Y-164703190D02*
X69542819Y-164941285D01*
X69542819Y-163417476D02*
X69542819Y-163988904D01*
X69542819Y-163703190D02*
X68542819Y-163703190D01*
X68542819Y-163703190D02*
X68685676Y-163798428D01*
X68685676Y-163798428D02*
X68780914Y-163893666D01*
X68780914Y-163893666D02*
X68828533Y-163988904D01*
X26966057Y-179419238D02*
X26918438Y-179514476D01*
X26918438Y-179514476D02*
X26823200Y-179609714D01*
X26823200Y-179609714D02*
X26680342Y-179752571D01*
X26680342Y-179752571D02*
X26632723Y-179847809D01*
X26632723Y-179847809D02*
X26632723Y-179943047D01*
X26870819Y-179895428D02*
X26823200Y-179990666D01*
X26823200Y-179990666D02*
X26727961Y-180085904D01*
X26727961Y-180085904D02*
X26537485Y-180133523D01*
X26537485Y-180133523D02*
X26204152Y-180133523D01*
X26204152Y-180133523D02*
X26013676Y-180085904D01*
X26013676Y-180085904D02*
X25918438Y-179990666D01*
X25918438Y-179990666D02*
X25870819Y-179895428D01*
X25870819Y-179895428D02*
X25870819Y-179704952D01*
X25870819Y-179704952D02*
X25918438Y-179609714D01*
X25918438Y-179609714D02*
X26013676Y-179514476D01*
X26013676Y-179514476D02*
X26204152Y-179466857D01*
X26204152Y-179466857D02*
X26537485Y-179466857D01*
X26537485Y-179466857D02*
X26727961Y-179514476D01*
X26727961Y-179514476D02*
X26823200Y-179609714D01*
X26823200Y-179609714D02*
X26870819Y-179704952D01*
X26870819Y-179704952D02*
X26870819Y-179895428D01*
X26204152Y-178609714D02*
X26870819Y-178609714D01*
X25823200Y-178847809D02*
X26537485Y-179085904D01*
X26537485Y-179085904D02*
X26537485Y-178466857D01*
X45793333Y-188974819D02*
X45460000Y-188498628D01*
X45221905Y-188974819D02*
X45221905Y-187974819D01*
X45221905Y-187974819D02*
X45602857Y-187974819D01*
X45602857Y-187974819D02*
X45698095Y-188022438D01*
X45698095Y-188022438D02*
X45745714Y-188070057D01*
X45745714Y-188070057D02*
X45793333Y-188165295D01*
X45793333Y-188165295D02*
X45793333Y-188308152D01*
X45793333Y-188308152D02*
X45745714Y-188403390D01*
X45745714Y-188403390D02*
X45698095Y-188451009D01*
X45698095Y-188451009D02*
X45602857Y-188498628D01*
X45602857Y-188498628D02*
X45221905Y-188498628D01*
X46174286Y-188070057D02*
X46221905Y-188022438D01*
X46221905Y-188022438D02*
X46317143Y-187974819D01*
X46317143Y-187974819D02*
X46555238Y-187974819D01*
X46555238Y-187974819D02*
X46650476Y-188022438D01*
X46650476Y-188022438D02*
X46698095Y-188070057D01*
X46698095Y-188070057D02*
X46745714Y-188165295D01*
X46745714Y-188165295D02*
X46745714Y-188260533D01*
X46745714Y-188260533D02*
X46698095Y-188403390D01*
X46698095Y-188403390D02*
X46126667Y-188974819D01*
X46126667Y-188974819D02*
X46745714Y-188974819D01*
X62430819Y-168282857D02*
X61954628Y-168616190D01*
X62430819Y-168854285D02*
X61430819Y-168854285D01*
X61430819Y-168854285D02*
X61430819Y-168473333D01*
X61430819Y-168473333D02*
X61478438Y-168378095D01*
X61478438Y-168378095D02*
X61526057Y-168330476D01*
X61526057Y-168330476D02*
X61621295Y-168282857D01*
X61621295Y-168282857D02*
X61764152Y-168282857D01*
X61764152Y-168282857D02*
X61859390Y-168330476D01*
X61859390Y-168330476D02*
X61907009Y-168378095D01*
X61907009Y-168378095D02*
X61954628Y-168473333D01*
X61954628Y-168473333D02*
X61954628Y-168854285D01*
X62430819Y-167330476D02*
X62430819Y-167901904D01*
X62430819Y-167616190D02*
X61430819Y-167616190D01*
X61430819Y-167616190D02*
X61573676Y-167711428D01*
X61573676Y-167711428D02*
X61668914Y-167806666D01*
X61668914Y-167806666D02*
X61716533Y-167901904D01*
X61430819Y-166425714D02*
X61430819Y-166901904D01*
X61430819Y-166901904D02*
X61907009Y-166949523D01*
X61907009Y-166949523D02*
X61859390Y-166901904D01*
X61859390Y-166901904D02*
X61811771Y-166806666D01*
X61811771Y-166806666D02*
X61811771Y-166568571D01*
X61811771Y-166568571D02*
X61859390Y-166473333D01*
X61859390Y-166473333D02*
X61907009Y-166425714D01*
X61907009Y-166425714D02*
X62002247Y-166378095D01*
X62002247Y-166378095D02*
X62240342Y-166378095D01*
X62240342Y-166378095D02*
X62335580Y-166425714D01*
X62335580Y-166425714D02*
X62383200Y-166473333D01*
X62383200Y-166473333D02*
X62430819Y-166568571D01*
X62430819Y-166568571D02*
X62430819Y-166806666D01*
X62430819Y-166806666D02*
X62383200Y-166901904D01*
X62383200Y-166901904D02*
X62335580Y-166949523D01*
X37774714Y-157807819D02*
X37774714Y-156807819D01*
X37774714Y-156807819D02*
X38012809Y-156807819D01*
X38012809Y-156807819D02*
X38155666Y-156855438D01*
X38155666Y-156855438D02*
X38250904Y-156950676D01*
X38250904Y-156950676D02*
X38298523Y-157045914D01*
X38298523Y-157045914D02*
X38346142Y-157236390D01*
X38346142Y-157236390D02*
X38346142Y-157379247D01*
X38346142Y-157379247D02*
X38298523Y-157569723D01*
X38298523Y-157569723D02*
X38250904Y-157664961D01*
X38250904Y-157664961D02*
X38155666Y-157760200D01*
X38155666Y-157760200D02*
X38012809Y-157807819D01*
X38012809Y-157807819D02*
X37774714Y-157807819D01*
X39298523Y-157807819D02*
X38727095Y-157807819D01*
X39012809Y-157807819D02*
X39012809Y-156807819D01*
X39012809Y-156807819D02*
X38917571Y-156950676D01*
X38917571Y-156950676D02*
X38822333Y-157045914D01*
X38822333Y-157045914D02*
X38727095Y-157093533D01*
X39869952Y-157236390D02*
X39774714Y-157188771D01*
X39774714Y-157188771D02*
X39727095Y-157141152D01*
X39727095Y-157141152D02*
X39679476Y-157045914D01*
X39679476Y-157045914D02*
X39679476Y-156998295D01*
X39679476Y-156998295D02*
X39727095Y-156903057D01*
X39727095Y-156903057D02*
X39774714Y-156855438D01*
X39774714Y-156855438D02*
X39869952Y-156807819D01*
X39869952Y-156807819D02*
X40060428Y-156807819D01*
X40060428Y-156807819D02*
X40155666Y-156855438D01*
X40155666Y-156855438D02*
X40203285Y-156903057D01*
X40203285Y-156903057D02*
X40250904Y-156998295D01*
X40250904Y-156998295D02*
X40250904Y-157045914D01*
X40250904Y-157045914D02*
X40203285Y-157141152D01*
X40203285Y-157141152D02*
X40155666Y-157188771D01*
X40155666Y-157188771D02*
X40060428Y-157236390D01*
X40060428Y-157236390D02*
X39869952Y-157236390D01*
X39869952Y-157236390D02*
X39774714Y-157284009D01*
X39774714Y-157284009D02*
X39727095Y-157331628D01*
X39727095Y-157331628D02*
X39679476Y-157426866D01*
X39679476Y-157426866D02*
X39679476Y-157617342D01*
X39679476Y-157617342D02*
X39727095Y-157712580D01*
X39727095Y-157712580D02*
X39774714Y-157760200D01*
X39774714Y-157760200D02*
X39869952Y-157807819D01*
X39869952Y-157807819D02*
X40060428Y-157807819D01*
X40060428Y-157807819D02*
X40155666Y-157760200D01*
X40155666Y-157760200D02*
X40203285Y-157712580D01*
X40203285Y-157712580D02*
X40250904Y-157617342D01*
X40250904Y-157617342D02*
X40250904Y-157426866D01*
X40250904Y-157426866D02*
X40203285Y-157331628D01*
X40203285Y-157331628D02*
X40155666Y-157284009D01*
X40155666Y-157284009D02*
X40060428Y-157236390D01*
X59271819Y-163480523D02*
X59271819Y-162909095D01*
X60271819Y-163194809D02*
X59271819Y-163194809D01*
X60271819Y-162575761D02*
X59271819Y-162575761D01*
X59271819Y-162575761D02*
X59986104Y-162242428D01*
X59986104Y-162242428D02*
X59271819Y-161909095D01*
X59271819Y-161909095D02*
X60271819Y-161909095D01*
X60224200Y-161480523D02*
X60271819Y-161337666D01*
X60271819Y-161337666D02*
X60271819Y-161099571D01*
X60271819Y-161099571D02*
X60224200Y-161004333D01*
X60224200Y-161004333D02*
X60176580Y-160956714D01*
X60176580Y-160956714D02*
X60081342Y-160909095D01*
X60081342Y-160909095D02*
X59986104Y-160909095D01*
X59986104Y-160909095D02*
X59890866Y-160956714D01*
X59890866Y-160956714D02*
X59843247Y-161004333D01*
X59843247Y-161004333D02*
X59795628Y-161099571D01*
X59795628Y-161099571D02*
X59748009Y-161290047D01*
X59748009Y-161290047D02*
X59700390Y-161385285D01*
X59700390Y-161385285D02*
X59652771Y-161432904D01*
X59652771Y-161432904D02*
X59557533Y-161480523D01*
X59557533Y-161480523D02*
X59462295Y-161480523D01*
X59462295Y-161480523D02*
X59367057Y-161432904D01*
X59367057Y-161432904D02*
X59319438Y-161385285D01*
X59319438Y-161385285D02*
X59271819Y-161290047D01*
X59271819Y-161290047D02*
X59271819Y-161051952D01*
X59271819Y-161051952D02*
X59319438Y-160909095D01*
X60271819Y-159956714D02*
X60271819Y-160528142D01*
X60271819Y-160242428D02*
X59271819Y-160242428D01*
X59271819Y-160242428D02*
X59414676Y-160337666D01*
X59414676Y-160337666D02*
X59509914Y-160432904D01*
X59509914Y-160432904D02*
X59557533Y-160528142D01*
X66383819Y-166988904D02*
X66383819Y-166417476D01*
X67383819Y-166703190D02*
X66383819Y-166703190D01*
X67288580Y-165512714D02*
X67336200Y-165560333D01*
X67336200Y-165560333D02*
X67383819Y-165703190D01*
X67383819Y-165703190D02*
X67383819Y-165798428D01*
X67383819Y-165798428D02*
X67336200Y-165941285D01*
X67336200Y-165941285D02*
X67240961Y-166036523D01*
X67240961Y-166036523D02*
X67145723Y-166084142D01*
X67145723Y-166084142D02*
X66955247Y-166131761D01*
X66955247Y-166131761D02*
X66812390Y-166131761D01*
X66812390Y-166131761D02*
X66621914Y-166084142D01*
X66621914Y-166084142D02*
X66526676Y-166036523D01*
X66526676Y-166036523D02*
X66431438Y-165941285D01*
X66431438Y-165941285D02*
X66383819Y-165798428D01*
X66383819Y-165798428D02*
X66383819Y-165703190D01*
X66383819Y-165703190D02*
X66431438Y-165560333D01*
X66431438Y-165560333D02*
X66479057Y-165512714D01*
X67383819Y-165084142D02*
X66383819Y-165084142D01*
X67383819Y-164512714D02*
X66812390Y-164941285D01*
X66383819Y-164512714D02*
X66955247Y-165084142D01*
X67383819Y-163560333D02*
X67383819Y-164131761D01*
X67383819Y-163846047D02*
X66383819Y-163846047D01*
X66383819Y-163846047D02*
X66526676Y-163941285D01*
X66526676Y-163941285D02*
X66621914Y-164036523D01*
X66621914Y-164036523D02*
X66669533Y-164131761D01*
X30892761Y-197654057D02*
X30797523Y-197606438D01*
X30797523Y-197606438D02*
X30702285Y-197511200D01*
X30702285Y-197511200D02*
X30559428Y-197368342D01*
X30559428Y-197368342D02*
X30464190Y-197320723D01*
X30464190Y-197320723D02*
X30368952Y-197320723D01*
X30416571Y-197558819D02*
X30321333Y-197511200D01*
X30321333Y-197511200D02*
X30226095Y-197415961D01*
X30226095Y-197415961D02*
X30178476Y-197225485D01*
X30178476Y-197225485D02*
X30178476Y-196892152D01*
X30178476Y-196892152D02*
X30226095Y-196701676D01*
X30226095Y-196701676D02*
X30321333Y-196606438D01*
X30321333Y-196606438D02*
X30416571Y-196558819D01*
X30416571Y-196558819D02*
X30607047Y-196558819D01*
X30607047Y-196558819D02*
X30702285Y-196606438D01*
X30702285Y-196606438D02*
X30797523Y-196701676D01*
X30797523Y-196701676D02*
X30845142Y-196892152D01*
X30845142Y-196892152D02*
X30845142Y-197225485D01*
X30845142Y-197225485D02*
X30797523Y-197415961D01*
X30797523Y-197415961D02*
X30702285Y-197511200D01*
X30702285Y-197511200D02*
X30607047Y-197558819D01*
X30607047Y-197558819D02*
X30416571Y-197558819D01*
X31226095Y-196654057D02*
X31273714Y-196606438D01*
X31273714Y-196606438D02*
X31368952Y-196558819D01*
X31368952Y-196558819D02*
X31607047Y-196558819D01*
X31607047Y-196558819D02*
X31702285Y-196606438D01*
X31702285Y-196606438D02*
X31749904Y-196654057D01*
X31749904Y-196654057D02*
X31797523Y-196749295D01*
X31797523Y-196749295D02*
X31797523Y-196844533D01*
X31797523Y-196844533D02*
X31749904Y-196987390D01*
X31749904Y-196987390D02*
X31178476Y-197558819D01*
X31178476Y-197558819D02*
X31797523Y-197558819D01*
X13288571Y-157594700D02*
X14431429Y-157594700D01*
X13860000Y-158166128D02*
X13860000Y-157023271D01*
X26288571Y-157594700D02*
X27431429Y-157594700D01*
X31696819Y-168282857D02*
X31220628Y-168616190D01*
X31696819Y-168854285D02*
X30696819Y-168854285D01*
X30696819Y-168854285D02*
X30696819Y-168473333D01*
X30696819Y-168473333D02*
X30744438Y-168378095D01*
X30744438Y-168378095D02*
X30792057Y-168330476D01*
X30792057Y-168330476D02*
X30887295Y-168282857D01*
X30887295Y-168282857D02*
X31030152Y-168282857D01*
X31030152Y-168282857D02*
X31125390Y-168330476D01*
X31125390Y-168330476D02*
X31173009Y-168378095D01*
X31173009Y-168378095D02*
X31220628Y-168473333D01*
X31220628Y-168473333D02*
X31220628Y-168854285D01*
X31696819Y-167330476D02*
X31696819Y-167901904D01*
X31696819Y-167616190D02*
X30696819Y-167616190D01*
X30696819Y-167616190D02*
X30839676Y-167711428D01*
X30839676Y-167711428D02*
X30934914Y-167806666D01*
X30934914Y-167806666D02*
X30982533Y-167901904D01*
X30696819Y-166711428D02*
X30696819Y-166616190D01*
X30696819Y-166616190D02*
X30744438Y-166520952D01*
X30744438Y-166520952D02*
X30792057Y-166473333D01*
X30792057Y-166473333D02*
X30887295Y-166425714D01*
X30887295Y-166425714D02*
X31077771Y-166378095D01*
X31077771Y-166378095D02*
X31315866Y-166378095D01*
X31315866Y-166378095D02*
X31506342Y-166425714D01*
X31506342Y-166425714D02*
X31601580Y-166473333D01*
X31601580Y-166473333D02*
X31649200Y-166520952D01*
X31649200Y-166520952D02*
X31696819Y-166616190D01*
X31696819Y-166616190D02*
X31696819Y-166711428D01*
X31696819Y-166711428D02*
X31649200Y-166806666D01*
X31649200Y-166806666D02*
X31601580Y-166854285D01*
X31601580Y-166854285D02*
X31506342Y-166901904D01*
X31506342Y-166901904D02*
X31315866Y-166949523D01*
X31315866Y-166949523D02*
X31077771Y-166949523D01*
X31077771Y-166949523D02*
X30887295Y-166901904D01*
X30887295Y-166901904D02*
X30792057Y-166854285D01*
X30792057Y-166854285D02*
X30744438Y-166806666D01*
X30744438Y-166806666D02*
X30696819Y-166711428D01*
X40981333Y-197812819D02*
X40648000Y-197336628D01*
X40409905Y-197812819D02*
X40409905Y-196812819D01*
X40409905Y-196812819D02*
X40790857Y-196812819D01*
X40790857Y-196812819D02*
X40886095Y-196860438D01*
X40886095Y-196860438D02*
X40933714Y-196908057D01*
X40933714Y-196908057D02*
X40981333Y-197003295D01*
X40981333Y-197003295D02*
X40981333Y-197146152D01*
X40981333Y-197146152D02*
X40933714Y-197241390D01*
X40933714Y-197241390D02*
X40886095Y-197289009D01*
X40886095Y-197289009D02*
X40790857Y-197336628D01*
X40790857Y-197336628D02*
X40409905Y-197336628D01*
X41933714Y-197812819D02*
X41362286Y-197812819D01*
X41648000Y-197812819D02*
X41648000Y-196812819D01*
X41648000Y-196812819D02*
X41552762Y-196955676D01*
X41552762Y-196955676D02*
X41457524Y-197050914D01*
X41457524Y-197050914D02*
X41362286Y-197098533D01*
X71170819Y-179053904D02*
X71980342Y-179053904D01*
X71980342Y-179053904D02*
X72075580Y-179006285D01*
X72075580Y-179006285D02*
X72123200Y-178958666D01*
X72123200Y-178958666D02*
X72170819Y-178863428D01*
X72170819Y-178863428D02*
X72170819Y-178672952D01*
X72170819Y-178672952D02*
X72123200Y-178577714D01*
X72123200Y-178577714D02*
X72075580Y-178530095D01*
X72075580Y-178530095D02*
X71980342Y-178482476D01*
X71980342Y-178482476D02*
X71170819Y-178482476D01*
X72170819Y-177482476D02*
X72170819Y-178053904D01*
X72170819Y-177768190D02*
X71170819Y-177768190D01*
X71170819Y-177768190D02*
X71313676Y-177863428D01*
X71313676Y-177863428D02*
X71408914Y-177958666D01*
X71408914Y-177958666D02*
X71456533Y-178053904D01*
X27336761Y-162729057D02*
X27241523Y-162681438D01*
X27241523Y-162681438D02*
X27146285Y-162586200D01*
X27146285Y-162586200D02*
X27003428Y-162443342D01*
X27003428Y-162443342D02*
X26908190Y-162395723D01*
X26908190Y-162395723D02*
X26812952Y-162395723D01*
X26860571Y-162633819D02*
X26765333Y-162586200D01*
X26765333Y-162586200D02*
X26670095Y-162490961D01*
X26670095Y-162490961D02*
X26622476Y-162300485D01*
X26622476Y-162300485D02*
X26622476Y-161967152D01*
X26622476Y-161967152D02*
X26670095Y-161776676D01*
X26670095Y-161776676D02*
X26765333Y-161681438D01*
X26765333Y-161681438D02*
X26860571Y-161633819D01*
X26860571Y-161633819D02*
X27051047Y-161633819D01*
X27051047Y-161633819D02*
X27146285Y-161681438D01*
X27146285Y-161681438D02*
X27241523Y-161776676D01*
X27241523Y-161776676D02*
X27289142Y-161967152D01*
X27289142Y-161967152D02*
X27289142Y-162300485D01*
X27289142Y-162300485D02*
X27241523Y-162490961D01*
X27241523Y-162490961D02*
X27146285Y-162586200D01*
X27146285Y-162586200D02*
X27051047Y-162633819D01*
X27051047Y-162633819D02*
X26860571Y-162633819D01*
X28241523Y-162633819D02*
X27670095Y-162633819D01*
X27955809Y-162633819D02*
X27955809Y-161633819D01*
X27955809Y-161633819D02*
X27860571Y-161776676D01*
X27860571Y-161776676D02*
X27765333Y-161871914D01*
X27765333Y-161871914D02*
X27670095Y-161919533D01*
X68580095Y-159144619D02*
X68580095Y-159954142D01*
X68580095Y-159954142D02*
X68627714Y-160049380D01*
X68627714Y-160049380D02*
X68675333Y-160097000D01*
X68675333Y-160097000D02*
X68770571Y-160144619D01*
X68770571Y-160144619D02*
X68961047Y-160144619D01*
X68961047Y-160144619D02*
X69056285Y-160097000D01*
X69056285Y-160097000D02*
X69103904Y-160049380D01*
X69103904Y-160049380D02*
X69151523Y-159954142D01*
X69151523Y-159954142D02*
X69151523Y-159144619D01*
X70056285Y-159477952D02*
X70056285Y-160144619D01*
X69818190Y-159097000D02*
X69580095Y-159811285D01*
X69580095Y-159811285D02*
X70199142Y-159811285D01*
X13121571Y-174104700D02*
X14264429Y-174104700D01*
X13693000Y-174676128D02*
X13693000Y-173533271D01*
X26121571Y-174104700D02*
X27264429Y-174104700D01*
X38411819Y-172447666D02*
X37935628Y-172780999D01*
X38411819Y-173019094D02*
X37411819Y-173019094D01*
X37411819Y-173019094D02*
X37411819Y-172638142D01*
X37411819Y-172638142D02*
X37459438Y-172542904D01*
X37459438Y-172542904D02*
X37507057Y-172495285D01*
X37507057Y-172495285D02*
X37602295Y-172447666D01*
X37602295Y-172447666D02*
X37745152Y-172447666D01*
X37745152Y-172447666D02*
X37840390Y-172495285D01*
X37840390Y-172495285D02*
X37888009Y-172542904D01*
X37888009Y-172542904D02*
X37935628Y-172638142D01*
X37935628Y-172638142D02*
X37935628Y-173019094D01*
X37840390Y-171876237D02*
X37792771Y-171971475D01*
X37792771Y-171971475D02*
X37745152Y-172019094D01*
X37745152Y-172019094D02*
X37649914Y-172066713D01*
X37649914Y-172066713D02*
X37602295Y-172066713D01*
X37602295Y-172066713D02*
X37507057Y-172019094D01*
X37507057Y-172019094D02*
X37459438Y-171971475D01*
X37459438Y-171971475D02*
X37411819Y-171876237D01*
X37411819Y-171876237D02*
X37411819Y-171685761D01*
X37411819Y-171685761D02*
X37459438Y-171590523D01*
X37459438Y-171590523D02*
X37507057Y-171542904D01*
X37507057Y-171542904D02*
X37602295Y-171495285D01*
X37602295Y-171495285D02*
X37649914Y-171495285D01*
X37649914Y-171495285D02*
X37745152Y-171542904D01*
X37745152Y-171542904D02*
X37792771Y-171590523D01*
X37792771Y-171590523D02*
X37840390Y-171685761D01*
X37840390Y-171685761D02*
X37840390Y-171876237D01*
X37840390Y-171876237D02*
X37888009Y-171971475D01*
X37888009Y-171971475D02*
X37935628Y-172019094D01*
X37935628Y-172019094D02*
X38030866Y-172066713D01*
X38030866Y-172066713D02*
X38221342Y-172066713D01*
X38221342Y-172066713D02*
X38316580Y-172019094D01*
X38316580Y-172019094D02*
X38364200Y-171971475D01*
X38364200Y-171971475D02*
X38411819Y-171876237D01*
X38411819Y-171876237D02*
X38411819Y-171685761D01*
X38411819Y-171685761D02*
X38364200Y-171590523D01*
X38364200Y-171590523D02*
X38316580Y-171542904D01*
X38316580Y-171542904D02*
X38221342Y-171495285D01*
X38221342Y-171495285D02*
X38030866Y-171495285D01*
X38030866Y-171495285D02*
X37935628Y-171542904D01*
X37935628Y-171542904D02*
X37888009Y-171590523D01*
X37888009Y-171590523D02*
X37840390Y-171685761D01*
X74292933Y-186255780D02*
X74245314Y-186303400D01*
X74245314Y-186303400D02*
X74102457Y-186351019D01*
X74102457Y-186351019D02*
X74007219Y-186351019D01*
X74007219Y-186351019D02*
X73864362Y-186303400D01*
X73864362Y-186303400D02*
X73769124Y-186208161D01*
X73769124Y-186208161D02*
X73721505Y-186112923D01*
X73721505Y-186112923D02*
X73673886Y-185922447D01*
X73673886Y-185922447D02*
X73673886Y-185779590D01*
X73673886Y-185779590D02*
X73721505Y-185589114D01*
X73721505Y-185589114D02*
X73769124Y-185493876D01*
X73769124Y-185493876D02*
X73864362Y-185398638D01*
X73864362Y-185398638D02*
X74007219Y-185351019D01*
X74007219Y-185351019D02*
X74102457Y-185351019D01*
X74102457Y-185351019D02*
X74245314Y-185398638D01*
X74245314Y-185398638D02*
X74292933Y-185446257D01*
X75245314Y-186351019D02*
X74673886Y-186351019D01*
X74959600Y-186351019D02*
X74959600Y-185351019D01*
X74959600Y-185351019D02*
X74864362Y-185493876D01*
X74864362Y-185493876D02*
X74769124Y-185589114D01*
X74769124Y-185589114D02*
X74673886Y-185636733D01*
X26034571Y-192138700D02*
X27177429Y-192138700D01*
X13034571Y-192138700D02*
X14177429Y-192138700D01*
X13606000Y-192710128D02*
X13606000Y-191567271D01*
X48855333Y-151616580D02*
X48807714Y-151664200D01*
X48807714Y-151664200D02*
X48664857Y-151711819D01*
X48664857Y-151711819D02*
X48569619Y-151711819D01*
X48569619Y-151711819D02*
X48426762Y-151664200D01*
X48426762Y-151664200D02*
X48331524Y-151568961D01*
X48331524Y-151568961D02*
X48283905Y-151473723D01*
X48283905Y-151473723D02*
X48236286Y-151283247D01*
X48236286Y-151283247D02*
X48236286Y-151140390D01*
X48236286Y-151140390D02*
X48283905Y-150949914D01*
X48283905Y-150949914D02*
X48331524Y-150854676D01*
X48331524Y-150854676D02*
X48426762Y-150759438D01*
X48426762Y-150759438D02*
X48569619Y-150711819D01*
X48569619Y-150711819D02*
X48664857Y-150711819D01*
X48664857Y-150711819D02*
X48807714Y-150759438D01*
X48807714Y-150759438D02*
X48855333Y-150807057D01*
X49426762Y-151140390D02*
X49331524Y-151092771D01*
X49331524Y-151092771D02*
X49283905Y-151045152D01*
X49283905Y-151045152D02*
X49236286Y-150949914D01*
X49236286Y-150949914D02*
X49236286Y-150902295D01*
X49236286Y-150902295D02*
X49283905Y-150807057D01*
X49283905Y-150807057D02*
X49331524Y-150759438D01*
X49331524Y-150759438D02*
X49426762Y-150711819D01*
X49426762Y-150711819D02*
X49617238Y-150711819D01*
X49617238Y-150711819D02*
X49712476Y-150759438D01*
X49712476Y-150759438D02*
X49760095Y-150807057D01*
X49760095Y-150807057D02*
X49807714Y-150902295D01*
X49807714Y-150902295D02*
X49807714Y-150949914D01*
X49807714Y-150949914D02*
X49760095Y-151045152D01*
X49760095Y-151045152D02*
X49712476Y-151092771D01*
X49712476Y-151092771D02*
X49617238Y-151140390D01*
X49617238Y-151140390D02*
X49426762Y-151140390D01*
X49426762Y-151140390D02*
X49331524Y-151188009D01*
X49331524Y-151188009D02*
X49283905Y-151235628D01*
X49283905Y-151235628D02*
X49236286Y-151330866D01*
X49236286Y-151330866D02*
X49236286Y-151521342D01*
X49236286Y-151521342D02*
X49283905Y-151616580D01*
X49283905Y-151616580D02*
X49331524Y-151664200D01*
X49331524Y-151664200D02*
X49426762Y-151711819D01*
X49426762Y-151711819D02*
X49617238Y-151711819D01*
X49617238Y-151711819D02*
X49712476Y-151664200D01*
X49712476Y-151664200D02*
X49760095Y-151616580D01*
X49760095Y-151616580D02*
X49807714Y-151521342D01*
X49807714Y-151521342D02*
X49807714Y-151330866D01*
X49807714Y-151330866D02*
X49760095Y-151235628D01*
X49760095Y-151235628D02*
X49712476Y-151188009D01*
X49712476Y-151188009D02*
X49617238Y-151140390D01*
X57223819Y-172219857D02*
X56747628Y-172553190D01*
X57223819Y-172791285D02*
X56223819Y-172791285D01*
X56223819Y-172791285D02*
X56223819Y-172410333D01*
X56223819Y-172410333D02*
X56271438Y-172315095D01*
X56271438Y-172315095D02*
X56319057Y-172267476D01*
X56319057Y-172267476D02*
X56414295Y-172219857D01*
X56414295Y-172219857D02*
X56557152Y-172219857D01*
X56557152Y-172219857D02*
X56652390Y-172267476D01*
X56652390Y-172267476D02*
X56700009Y-172315095D01*
X56700009Y-172315095D02*
X56747628Y-172410333D01*
X56747628Y-172410333D02*
X56747628Y-172791285D01*
X57223819Y-171267476D02*
X57223819Y-171838904D01*
X57223819Y-171553190D02*
X56223819Y-171553190D01*
X56223819Y-171553190D02*
X56366676Y-171648428D01*
X56366676Y-171648428D02*
X56461914Y-171743666D01*
X56461914Y-171743666D02*
X56509533Y-171838904D01*
X56223819Y-170934142D02*
X56223819Y-170315095D01*
X56223819Y-170315095D02*
X56604771Y-170648428D01*
X56604771Y-170648428D02*
X56604771Y-170505571D01*
X56604771Y-170505571D02*
X56652390Y-170410333D01*
X56652390Y-170410333D02*
X56700009Y-170362714D01*
X56700009Y-170362714D02*
X56795247Y-170315095D01*
X56795247Y-170315095D02*
X57033342Y-170315095D01*
X57033342Y-170315095D02*
X57128580Y-170362714D01*
X57128580Y-170362714D02*
X57176200Y-170410333D01*
X57176200Y-170410333D02*
X57223819Y-170505571D01*
X57223819Y-170505571D02*
X57223819Y-170791285D01*
X57223819Y-170791285D02*
X57176200Y-170886523D01*
X57176200Y-170886523D02*
X57128580Y-170934142D01*
X38681819Y-179490666D02*
X38205628Y-179823999D01*
X38681819Y-180062094D02*
X37681819Y-180062094D01*
X37681819Y-180062094D02*
X37681819Y-179681142D01*
X37681819Y-179681142D02*
X37729438Y-179585904D01*
X37729438Y-179585904D02*
X37777057Y-179538285D01*
X37777057Y-179538285D02*
X37872295Y-179490666D01*
X37872295Y-179490666D02*
X38015152Y-179490666D01*
X38015152Y-179490666D02*
X38110390Y-179538285D01*
X38110390Y-179538285D02*
X38158009Y-179585904D01*
X38158009Y-179585904D02*
X38205628Y-179681142D01*
X38205628Y-179681142D02*
X38205628Y-180062094D01*
X38681819Y-179014475D02*
X38681819Y-178823999D01*
X38681819Y-178823999D02*
X38634200Y-178728761D01*
X38634200Y-178728761D02*
X38586580Y-178681142D01*
X38586580Y-178681142D02*
X38443723Y-178585904D01*
X38443723Y-178585904D02*
X38253247Y-178538285D01*
X38253247Y-178538285D02*
X37872295Y-178538285D01*
X37872295Y-178538285D02*
X37777057Y-178585904D01*
X37777057Y-178585904D02*
X37729438Y-178633523D01*
X37729438Y-178633523D02*
X37681819Y-178728761D01*
X37681819Y-178728761D02*
X37681819Y-178919237D01*
X37681819Y-178919237D02*
X37729438Y-179014475D01*
X37729438Y-179014475D02*
X37777057Y-179062094D01*
X37777057Y-179062094D02*
X37872295Y-179109713D01*
X37872295Y-179109713D02*
X38110390Y-179109713D01*
X38110390Y-179109713D02*
X38205628Y-179062094D01*
X38205628Y-179062094D02*
X38253247Y-179014475D01*
X38253247Y-179014475D02*
X38300866Y-178919237D01*
X38300866Y-178919237D02*
X38300866Y-178728761D01*
X38300866Y-178728761D02*
X38253247Y-178633523D01*
X38253247Y-178633523D02*
X38205628Y-178585904D01*
X38205628Y-178585904D02*
X38110390Y-178538285D01*
X41983819Y-165901666D02*
X41507628Y-166234999D01*
X41983819Y-166473094D02*
X40983819Y-166473094D01*
X40983819Y-166473094D02*
X40983819Y-166092142D01*
X40983819Y-166092142D02*
X41031438Y-165996904D01*
X41031438Y-165996904D02*
X41079057Y-165949285D01*
X41079057Y-165949285D02*
X41174295Y-165901666D01*
X41174295Y-165901666D02*
X41317152Y-165901666D01*
X41317152Y-165901666D02*
X41412390Y-165949285D01*
X41412390Y-165949285D02*
X41460009Y-165996904D01*
X41460009Y-165996904D02*
X41507628Y-166092142D01*
X41507628Y-166092142D02*
X41507628Y-166473094D01*
X40983819Y-164996904D02*
X40983819Y-165473094D01*
X40983819Y-165473094D02*
X41460009Y-165520713D01*
X41460009Y-165520713D02*
X41412390Y-165473094D01*
X41412390Y-165473094D02*
X41364771Y-165377856D01*
X41364771Y-165377856D02*
X41364771Y-165139761D01*
X41364771Y-165139761D02*
X41412390Y-165044523D01*
X41412390Y-165044523D02*
X41460009Y-164996904D01*
X41460009Y-164996904D02*
X41555247Y-164949285D01*
X41555247Y-164949285D02*
X41793342Y-164949285D01*
X41793342Y-164949285D02*
X41888580Y-164996904D01*
X41888580Y-164996904D02*
X41936200Y-165044523D01*
X41936200Y-165044523D02*
X41983819Y-165139761D01*
X41983819Y-165139761D02*
X41983819Y-165377856D01*
X41983819Y-165377856D02*
X41936200Y-165473094D01*
X41936200Y-165473094D02*
X41888580Y-165520713D01*
X57619580Y-154979666D02*
X57667200Y-155027285D01*
X57667200Y-155027285D02*
X57714819Y-155170142D01*
X57714819Y-155170142D02*
X57714819Y-155265380D01*
X57714819Y-155265380D02*
X57667200Y-155408237D01*
X57667200Y-155408237D02*
X57571961Y-155503475D01*
X57571961Y-155503475D02*
X57476723Y-155551094D01*
X57476723Y-155551094D02*
X57286247Y-155598713D01*
X57286247Y-155598713D02*
X57143390Y-155598713D01*
X57143390Y-155598713D02*
X56952914Y-155551094D01*
X56952914Y-155551094D02*
X56857676Y-155503475D01*
X56857676Y-155503475D02*
X56762438Y-155408237D01*
X56762438Y-155408237D02*
X56714819Y-155265380D01*
X56714819Y-155265380D02*
X56714819Y-155170142D01*
X56714819Y-155170142D02*
X56762438Y-155027285D01*
X56762438Y-155027285D02*
X56810057Y-154979666D01*
X56714819Y-154646332D02*
X56714819Y-154027285D01*
X56714819Y-154027285D02*
X57095771Y-154360618D01*
X57095771Y-154360618D02*
X57095771Y-154217761D01*
X57095771Y-154217761D02*
X57143390Y-154122523D01*
X57143390Y-154122523D02*
X57191009Y-154074904D01*
X57191009Y-154074904D02*
X57286247Y-154027285D01*
X57286247Y-154027285D02*
X57524342Y-154027285D01*
X57524342Y-154027285D02*
X57619580Y-154074904D01*
X57619580Y-154074904D02*
X57667200Y-154122523D01*
X57667200Y-154122523D02*
X57714819Y-154217761D01*
X57714819Y-154217761D02*
X57714819Y-154503475D01*
X57714819Y-154503475D02*
X57667200Y-154598713D01*
X57667200Y-154598713D02*
X57619580Y-154646332D01*
X78949580Y-187886666D02*
X78997200Y-187934285D01*
X78997200Y-187934285D02*
X79044819Y-188077142D01*
X79044819Y-188077142D02*
X79044819Y-188172380D01*
X79044819Y-188172380D02*
X78997200Y-188315237D01*
X78997200Y-188315237D02*
X78901961Y-188410475D01*
X78901961Y-188410475D02*
X78806723Y-188458094D01*
X78806723Y-188458094D02*
X78616247Y-188505713D01*
X78616247Y-188505713D02*
X78473390Y-188505713D01*
X78473390Y-188505713D02*
X78282914Y-188458094D01*
X78282914Y-188458094D02*
X78187676Y-188410475D01*
X78187676Y-188410475D02*
X78092438Y-188315237D01*
X78092438Y-188315237D02*
X78044819Y-188172380D01*
X78044819Y-188172380D02*
X78044819Y-188077142D01*
X78044819Y-188077142D02*
X78092438Y-187934285D01*
X78092438Y-187934285D02*
X78140057Y-187886666D01*
X79044819Y-187410475D02*
X79044819Y-187219999D01*
X79044819Y-187219999D02*
X78997200Y-187124761D01*
X78997200Y-187124761D02*
X78949580Y-187077142D01*
X78949580Y-187077142D02*
X78806723Y-186981904D01*
X78806723Y-186981904D02*
X78616247Y-186934285D01*
X78616247Y-186934285D02*
X78235295Y-186934285D01*
X78235295Y-186934285D02*
X78140057Y-186981904D01*
X78140057Y-186981904D02*
X78092438Y-187029523D01*
X78092438Y-187029523D02*
X78044819Y-187124761D01*
X78044819Y-187124761D02*
X78044819Y-187315237D01*
X78044819Y-187315237D02*
X78092438Y-187410475D01*
X78092438Y-187410475D02*
X78140057Y-187458094D01*
X78140057Y-187458094D02*
X78235295Y-187505713D01*
X78235295Y-187505713D02*
X78473390Y-187505713D01*
X78473390Y-187505713D02*
X78568628Y-187458094D01*
X78568628Y-187458094D02*
X78616247Y-187410475D01*
X78616247Y-187410475D02*
X78663866Y-187315237D01*
X78663866Y-187315237D02*
X78663866Y-187124761D01*
X78663866Y-187124761D02*
X78616247Y-187029523D01*
X78616247Y-187029523D02*
X78568628Y-186981904D01*
X78568628Y-186981904D02*
X78473390Y-186934285D01*
X64224819Y-167139713D02*
X64224819Y-166568285D01*
X65224819Y-166853999D02*
X64224819Y-166853999D01*
X65224819Y-166234951D02*
X64224819Y-166234951D01*
X64224819Y-166234951D02*
X64224819Y-165996856D01*
X64224819Y-165996856D02*
X64272438Y-165853999D01*
X64272438Y-165853999D02*
X64367676Y-165758761D01*
X64367676Y-165758761D02*
X64462914Y-165711142D01*
X64462914Y-165711142D02*
X64653390Y-165663523D01*
X64653390Y-165663523D02*
X64796247Y-165663523D01*
X64796247Y-165663523D02*
X64986723Y-165711142D01*
X64986723Y-165711142D02*
X65081961Y-165758761D01*
X65081961Y-165758761D02*
X65177200Y-165853999D01*
X65177200Y-165853999D02*
X65224819Y-165996856D01*
X65224819Y-165996856D02*
X65224819Y-166234951D01*
X64224819Y-165044475D02*
X64224819Y-164853999D01*
X64224819Y-164853999D02*
X64272438Y-164758761D01*
X64272438Y-164758761D02*
X64367676Y-164663523D01*
X64367676Y-164663523D02*
X64558152Y-164615904D01*
X64558152Y-164615904D02*
X64891485Y-164615904D01*
X64891485Y-164615904D02*
X65081961Y-164663523D01*
X65081961Y-164663523D02*
X65177200Y-164758761D01*
X65177200Y-164758761D02*
X65224819Y-164853999D01*
X65224819Y-164853999D02*
X65224819Y-165044475D01*
X65224819Y-165044475D02*
X65177200Y-165139713D01*
X65177200Y-165139713D02*
X65081961Y-165234951D01*
X65081961Y-165234951D02*
X64891485Y-165282570D01*
X64891485Y-165282570D02*
X64558152Y-165282570D01*
X64558152Y-165282570D02*
X64367676Y-165234951D01*
X64367676Y-165234951D02*
X64272438Y-165139713D01*
X64272438Y-165139713D02*
X64224819Y-165044475D01*
X65224819Y-163663523D02*
X65224819Y-164234951D01*
X65224819Y-163949237D02*
X64224819Y-163949237D01*
X64224819Y-163949237D02*
X64367676Y-164044475D01*
X64367676Y-164044475D02*
X64462914Y-164139713D01*
X64462914Y-164139713D02*
X64510533Y-164234951D01*
X25939761Y-170095057D02*
X25844523Y-170047438D01*
X25844523Y-170047438D02*
X25749285Y-169952200D01*
X25749285Y-169952200D02*
X25606428Y-169809342D01*
X25606428Y-169809342D02*
X25511190Y-169761723D01*
X25511190Y-169761723D02*
X25415952Y-169761723D01*
X25463571Y-169999819D02*
X25368333Y-169952200D01*
X25368333Y-169952200D02*
X25273095Y-169856961D01*
X25273095Y-169856961D02*
X25225476Y-169666485D01*
X25225476Y-169666485D02*
X25225476Y-169333152D01*
X25225476Y-169333152D02*
X25273095Y-169142676D01*
X25273095Y-169142676D02*
X25368333Y-169047438D01*
X25368333Y-169047438D02*
X25463571Y-168999819D01*
X25463571Y-168999819D02*
X25654047Y-168999819D01*
X25654047Y-168999819D02*
X25749285Y-169047438D01*
X25749285Y-169047438D02*
X25844523Y-169142676D01*
X25844523Y-169142676D02*
X25892142Y-169333152D01*
X25892142Y-169333152D02*
X25892142Y-169666485D01*
X25892142Y-169666485D02*
X25844523Y-169856961D01*
X25844523Y-169856961D02*
X25749285Y-169952200D01*
X25749285Y-169952200D02*
X25654047Y-169999819D01*
X25654047Y-169999819D02*
X25463571Y-169999819D01*
X26225476Y-168999819D02*
X26844523Y-168999819D01*
X26844523Y-168999819D02*
X26511190Y-169380771D01*
X26511190Y-169380771D02*
X26654047Y-169380771D01*
X26654047Y-169380771D02*
X26749285Y-169428390D01*
X26749285Y-169428390D02*
X26796904Y-169476009D01*
X26796904Y-169476009D02*
X26844523Y-169571247D01*
X26844523Y-169571247D02*
X26844523Y-169809342D01*
X26844523Y-169809342D02*
X26796904Y-169904580D01*
X26796904Y-169904580D02*
X26749285Y-169952200D01*
X26749285Y-169952200D02*
X26654047Y-169999819D01*
X26654047Y-169999819D02*
X26368333Y-169999819D01*
X26368333Y-169999819D02*
X26273095Y-169952200D01*
X26273095Y-169952200D02*
X26225476Y-169904580D01*
X26121571Y-186169700D02*
X27264429Y-186169700D01*
X13121571Y-186169700D02*
X14264429Y-186169700D01*
X13693000Y-186741128D02*
X13693000Y-185598271D01*
D12*
%TO.C,TDI1*%
X46311000Y-162008000D02*
X47371000Y-162008000D01*
X46311000Y-163068000D02*
X46311000Y-162008000D01*
X46311000Y-164068000D02*
X46311000Y-164128000D01*
X46311000Y-164068000D02*
X48431000Y-164068000D01*
X46311000Y-164128000D02*
X48431000Y-164128000D01*
X48431000Y-164068000D02*
X48431000Y-164128000D01*
%TO.C,Q5*%
X34899000Y-189760000D02*
X34899000Y-189490000D01*
X34899000Y-189490000D02*
X37729000Y-189490000D01*
X34899000Y-183130000D02*
X35999000Y-183130000D01*
X34899000Y-182860000D02*
X34899000Y-183130000D01*
X33399000Y-189760000D02*
X34899000Y-189760000D01*
X33399000Y-182860000D02*
X34899000Y-182860000D01*
%TO.C,Q6*%
X34820000Y-175788000D02*
X34820000Y-175518000D01*
X34820000Y-175518000D02*
X37650000Y-175518000D01*
X34820000Y-169158000D02*
X35920000Y-169158000D01*
X34820000Y-168888000D02*
X34820000Y-169158000D01*
X33320000Y-175788000D02*
X34820000Y-175788000D01*
X33320000Y-168888000D02*
X34820000Y-168888000D01*
%TO.C,R4*%
X23600742Y-160386500D02*
X24075258Y-160386500D01*
X23600742Y-161431500D02*
X24075258Y-161431500D01*
%TO.C,BOOT1*%
X58951400Y-171730580D02*
X58951400Y-171449420D01*
X59971400Y-171730580D02*
X59971400Y-171449420D01*
%TO.C,C7*%
X38303780Y-165254400D02*
X38022620Y-165254400D01*
X38303780Y-164234400D02*
X38022620Y-164234400D01*
%TO.C,J16*%
X55940000Y-177210000D02*
X54610000Y-177210000D01*
X55940000Y-175880000D02*
X55940000Y-177210000D01*
X55940000Y-174610000D02*
X55940000Y-169470000D01*
X55940000Y-174610000D02*
X53280000Y-174610000D01*
X55940000Y-169470000D02*
X53280000Y-169470000D01*
X53280000Y-174610000D02*
X53280000Y-169470000D01*
%TO.C,R3*%
X20590742Y-160386500D02*
X21065258Y-160386500D01*
X20590742Y-161431500D02*
X21065258Y-161431500D01*
%TO.C,R11*%
X38082500Y-190747742D02*
X38082500Y-191222258D01*
X37037500Y-190747742D02*
X37037500Y-191222258D01*
%TO.C,J18*%
X53530000Y-188640000D02*
X54860000Y-188640000D01*
X53530000Y-189970000D02*
X53530000Y-188640000D01*
X53530000Y-191240000D02*
X53530000Y-196380000D01*
X53530000Y-191240000D02*
X56190000Y-191240000D01*
X53530000Y-196380000D02*
X56190000Y-196380000D01*
X56190000Y-191240000D02*
X56190000Y-196380000D01*
%TO.C,J7*%
X17481000Y-167954000D02*
X17481000Y-166624000D01*
X18811000Y-167954000D02*
X17481000Y-167954000D01*
X20081000Y-167954000D02*
X25221000Y-167954000D01*
X20081000Y-167954000D02*
X20081000Y-165294000D01*
X25221000Y-167954000D02*
X25221000Y-165294000D01*
X20081000Y-165294000D02*
X25221000Y-165294000D01*
%TO.C,J21*%
X84260000Y-177510000D02*
X83010000Y-177510000D01*
X83960000Y-177810000D02*
X79240000Y-177810000D01*
X82650000Y-177810000D02*
X82650000Y-178420000D01*
X81350000Y-177810000D02*
X81350000Y-178420000D01*
X79240000Y-177810000D02*
X79240000Y-193930000D01*
X83350000Y-178420000D02*
X79850000Y-178420000D01*
X79850000Y-178420000D02*
X79850000Y-193320000D01*
X84260000Y-178760000D02*
X84260000Y-177510000D01*
X84160000Y-179270000D02*
X83960000Y-179270000D01*
X84160000Y-179570000D02*
X84160000Y-179270000D01*
X84060000Y-179570000D02*
X84060000Y-179270000D01*
X83960000Y-179570000D02*
X84160000Y-179570000D01*
X83960000Y-180370000D02*
X83350000Y-180370000D01*
X83350000Y-180370000D02*
X83350000Y-178420000D01*
X80350000Y-180770000D02*
X80350000Y-180970000D01*
X79850000Y-180770000D02*
X80350000Y-180770000D01*
X79850000Y-180870000D02*
X80350000Y-180870000D01*
X80350000Y-180970000D02*
X79850000Y-180970000D01*
X80350000Y-182770000D02*
X80350000Y-182970000D01*
X79850000Y-182770000D02*
X80350000Y-182770000D01*
X79850000Y-182870000D02*
X80350000Y-182870000D01*
X80350000Y-182970000D02*
X79850000Y-182970000D01*
X80350000Y-184770000D02*
X80350000Y-184970000D01*
X79850000Y-184770000D02*
X80350000Y-184770000D01*
X79850000Y-184870000D02*
X80350000Y-184870000D01*
X80350000Y-184970000D02*
X79850000Y-184970000D01*
X80350000Y-186770000D02*
X80350000Y-186970000D01*
X79850000Y-186770000D02*
X80350000Y-186770000D01*
X79850000Y-186870000D02*
X80350000Y-186870000D01*
X80350000Y-186970000D02*
X79850000Y-186970000D01*
X80350000Y-188770000D02*
X80350000Y-188970000D01*
X79850000Y-188770000D02*
X80350000Y-188770000D01*
X79850000Y-188870000D02*
X80350000Y-188870000D01*
X80350000Y-188970000D02*
X79850000Y-188970000D01*
X80350000Y-190770000D02*
X80350000Y-190970000D01*
X79850000Y-190770000D02*
X80350000Y-190770000D01*
X79850000Y-190870000D02*
X80350000Y-190870000D01*
X80350000Y-190970000D02*
X79850000Y-190970000D01*
X83350000Y-191370000D02*
X83960000Y-191370000D01*
X83350000Y-193320000D02*
X83350000Y-191370000D01*
X79850000Y-193320000D02*
X83350000Y-193320000D01*
X83960000Y-193930000D02*
X83960000Y-177810000D01*
X82650000Y-193930000D02*
X82650000Y-193320000D01*
X81350000Y-193930000D02*
X81350000Y-193320000D01*
X79240000Y-193930000D02*
X83960000Y-193930000D01*
%TO.C,J4*%
X47916600Y-188640000D02*
X49246600Y-188640000D01*
X47916600Y-189970000D02*
X47916600Y-188640000D01*
X47916600Y-191240000D02*
X47916600Y-196380000D01*
X47916600Y-191240000D02*
X50576600Y-191240000D01*
X47916600Y-196380000D02*
X50576600Y-196380000D01*
X50576600Y-191240000D02*
X50576600Y-196380000D01*
%TO.C,J15*%
X50736000Y-188640000D02*
X52066000Y-188640000D01*
X50736000Y-189970000D02*
X50736000Y-188640000D01*
X50736000Y-191240000D02*
X50736000Y-196380000D01*
X50736000Y-191240000D02*
X53396000Y-191240000D01*
X50736000Y-196380000D02*
X53396000Y-196380000D01*
X53396000Y-191240000D02*
X53396000Y-196380000D01*
%TO.C,J10*%
X26610000Y-154492000D02*
X26610000Y-153162000D01*
X27940000Y-154492000D02*
X26610000Y-154492000D01*
X29210000Y-154492000D02*
X31810000Y-154492000D01*
X29210000Y-154492000D02*
X29210000Y-151832000D01*
X31810000Y-154492000D02*
X31810000Y-151832000D01*
X29210000Y-151832000D02*
X31810000Y-151832000D01*
%TO.C,R7*%
X36053500Y-186482258D02*
X36053500Y-186007742D01*
X37098500Y-186482258D02*
X37098500Y-186007742D01*
%TO.C,J19*%
X56160000Y-186380000D02*
X54830000Y-186380000D01*
X56160000Y-185050000D02*
X56160000Y-186380000D01*
X56160000Y-183780000D02*
X56160000Y-181180000D01*
X56160000Y-183780000D02*
X53500000Y-183780000D01*
X56160000Y-181180000D02*
X53500000Y-181180000D01*
X53500000Y-183780000D02*
X53500000Y-181180000D01*
%TO.C,R12*%
X29322500Y-164702258D02*
X29322500Y-164227742D01*
X30367500Y-164702258D02*
X30367500Y-164227742D01*
%TO.C,J9*%
X25403000Y-181496000D02*
X25403000Y-178676000D01*
X25403000Y-181496000D02*
X23703000Y-182796000D01*
X25403000Y-178676000D02*
X23703000Y-177376000D01*
X23703000Y-182796000D02*
X14983000Y-182796000D01*
X23703000Y-177376000D02*
X14983000Y-177376000D01*
X14983000Y-182796000D02*
X14983000Y-177376000D01*
%TO.C,GND1*%
X68028000Y-167342000D02*
X69088000Y-167342000D01*
X68028000Y-168402000D02*
X68028000Y-167342000D01*
X68028000Y-169402000D02*
X68028000Y-169462000D01*
X68028000Y-169402000D02*
X70148000Y-169402000D01*
X68028000Y-169462000D02*
X70148000Y-169462000D01*
X70148000Y-169402000D02*
X70148000Y-169462000D01*
%TO.C,Q4*%
X34855000Y-182775000D02*
X34855000Y-182505000D01*
X34855000Y-182505000D02*
X37685000Y-182505000D01*
X34855000Y-176145000D02*
X35955000Y-176145000D01*
X34855000Y-175875000D02*
X34855000Y-176145000D01*
X33355000Y-182775000D02*
X34855000Y-182775000D01*
X33355000Y-175875000D02*
X34855000Y-175875000D01*
%TO.C,R2*%
X40852936Y-189280000D02*
X45207064Y-189280000D01*
X40852936Y-192700000D02*
X45207064Y-192700000D01*
%TO.C,R15*%
X61453500Y-170671258D02*
X61453500Y-170196742D01*
X62498500Y-170671258D02*
X62498500Y-170196742D01*
%TO.C,J6*%
X17481000Y-170748000D02*
X17481000Y-169418000D01*
X18811000Y-170748000D02*
X17481000Y-170748000D01*
X20081000Y-170748000D02*
X25221000Y-170748000D01*
X20081000Y-170748000D02*
X20081000Y-168088000D01*
X25221000Y-170748000D02*
X25221000Y-168088000D01*
X20081000Y-168088000D02*
X25221000Y-168088000D01*
%TO.C,D18*%
X37201000Y-158232600D02*
X37201000Y-160232600D01*
X37201000Y-160232600D02*
X41501000Y-160232600D01*
X41501000Y-158232600D02*
X37201000Y-158232600D01*
%TO.C,TMS1*%
X58630000Y-163659000D02*
X59690000Y-163659000D01*
X58630000Y-164719000D02*
X58630000Y-163659000D01*
X58630000Y-165719000D02*
X58630000Y-165779000D01*
X58630000Y-165719000D02*
X60750000Y-165719000D01*
X58630000Y-165779000D02*
X60750000Y-165779000D01*
X60750000Y-165719000D02*
X60750000Y-165779000D01*
%TO.C,TCK1*%
X65869000Y-167342000D02*
X66929000Y-167342000D01*
X65869000Y-168402000D02*
X65869000Y-167342000D01*
X65869000Y-169402000D02*
X65869000Y-169462000D01*
X65869000Y-169402000D02*
X67989000Y-169402000D01*
X65869000Y-169462000D02*
X67989000Y-169462000D01*
X67989000Y-169402000D02*
X67989000Y-169462000D01*
%TO.C,J3*%
X50860000Y-177225000D02*
X49530000Y-177225000D01*
X50860000Y-175895000D02*
X50860000Y-177225000D01*
X50860000Y-174625000D02*
X50860000Y-169485000D01*
X50860000Y-174625000D02*
X48200000Y-174625000D01*
X50860000Y-169485000D02*
X48200000Y-169485000D01*
X48200000Y-174625000D02*
X48200000Y-169485000D01*
%TO.C,Q2*%
X28553000Y-189718000D02*
X28553000Y-189988000D01*
X28553000Y-189988000D02*
X25723000Y-189988000D01*
X28553000Y-196348000D02*
X27453000Y-196348000D01*
X28553000Y-196618000D02*
X28553000Y-196348000D01*
X30053000Y-189718000D02*
X28553000Y-189718000D01*
X30053000Y-196618000D02*
X28553000Y-196618000D01*
%TO.C,J8*%
X25570000Y-158890000D02*
X25570000Y-156070000D01*
X25570000Y-158890000D02*
X23870000Y-160190000D01*
X25570000Y-156070000D02*
X23870000Y-154770000D01*
X23870000Y-160190000D02*
X15150000Y-160190000D01*
X23870000Y-154770000D02*
X15150000Y-154770000D01*
X15150000Y-160190000D02*
X15150000Y-154770000D01*
%TO.C,R10*%
X29322500Y-167877258D02*
X29322500Y-167402742D01*
X30367500Y-167877258D02*
X30367500Y-167402742D01*
%TO.C,R1*%
X40852936Y-193070000D02*
X45207064Y-193070000D01*
X40852936Y-196490000D02*
X45207064Y-196490000D01*
%TO.C,U1*%
X77280000Y-198515000D02*
X77280000Y-192100000D01*
X77280000Y-198515000D02*
X59040000Y-198515000D01*
X77280000Y-192100000D02*
X77660000Y-192100000D01*
X77280000Y-173555000D02*
X77280000Y-172775000D01*
X77280000Y-172775000D02*
X76280000Y-172775000D01*
X59040000Y-198515000D02*
X59040000Y-192100000D01*
X59040000Y-173555000D02*
X59040000Y-172775000D01*
X59040000Y-172775000D02*
X60040000Y-172775000D01*
%TO.C,Q1*%
X27305000Y-166025000D02*
X28980000Y-166025000D01*
X27305000Y-166025000D02*
X26655000Y-166025000D01*
X27305000Y-162905000D02*
X27955000Y-162905000D01*
X27305000Y-162905000D02*
X26655000Y-162905000D01*
%TO.C,U4*%
X65140000Y-152038000D02*
X71150000Y-152038000D01*
X67390000Y-158858000D02*
X71150000Y-158858000D01*
X71150000Y-152038000D02*
X71150000Y-153298000D01*
X71150000Y-158858000D02*
X71150000Y-157598000D01*
%TO.C,J1*%
X77530000Y-159333000D02*
X76200000Y-159333000D01*
X77530000Y-158003000D02*
X77530000Y-159333000D01*
X77530000Y-156733000D02*
X77530000Y-151593000D01*
X77530000Y-156733000D02*
X74870000Y-156733000D01*
X77530000Y-151593000D02*
X74870000Y-151593000D01*
X74870000Y-156733000D02*
X74870000Y-151593000D01*
%TO.C,J17*%
X25403000Y-175400000D02*
X25403000Y-172580000D01*
X25403000Y-175400000D02*
X23703000Y-176700000D01*
X25403000Y-172580000D02*
X23703000Y-171280000D01*
X23703000Y-176700000D02*
X14983000Y-176700000D01*
X23703000Y-171280000D02*
X14983000Y-171280000D01*
X14983000Y-176700000D02*
X14983000Y-171280000D01*
%TO.C,R8*%
X36037500Y-172582258D02*
X36037500Y-172107742D01*
X37082500Y-172582258D02*
X37082500Y-172107742D01*
%TO.C,C1*%
X74625580Y-187600000D02*
X74344420Y-187600000D01*
X74625580Y-186580000D02*
X74344420Y-186580000D01*
%TO.C,J5*%
X25316000Y-193434000D02*
X25316000Y-190614000D01*
X25316000Y-193434000D02*
X23616000Y-194734000D01*
X25316000Y-190614000D02*
X23616000Y-189314000D01*
X23616000Y-194734000D02*
X14896000Y-194734000D01*
X23616000Y-189314000D02*
X14896000Y-189314000D01*
X14896000Y-194734000D02*
X14896000Y-189314000D01*
%TO.C,J12*%
X82610000Y-159318000D02*
X81280000Y-159318000D01*
X82610000Y-157988000D02*
X82610000Y-159318000D01*
X82610000Y-156718000D02*
X82610000Y-151578000D01*
X82610000Y-156718000D02*
X79950000Y-156718000D01*
X82610000Y-151578000D02*
X79950000Y-151578000D01*
X79950000Y-156718000D02*
X79950000Y-151578000D01*
%TO.C,J13*%
X53400000Y-177225000D02*
X52070000Y-177225000D01*
X53400000Y-175895000D02*
X53400000Y-177225000D01*
X53400000Y-174625000D02*
X53400000Y-169485000D01*
X53400000Y-174625000D02*
X50740000Y-174625000D01*
X53400000Y-169485000D02*
X50740000Y-169485000D01*
X50740000Y-174625000D02*
X50740000Y-169485000D01*
%TO.C,C8*%
X48785000Y-152493000D02*
X49410000Y-152493000D01*
X49097500Y-152180500D02*
X49097500Y-152805500D01*
X49650000Y-152482437D02*
X49650000Y-153118000D01*
X49650000Y-152482437D02*
X50714437Y-151418000D01*
X49650000Y-155873563D02*
X49650000Y-155238000D01*
X49650000Y-155873563D02*
X50714437Y-156938000D01*
X50714437Y-151418000D02*
X55170000Y-151418000D01*
X50714437Y-156938000D02*
X55170000Y-156938000D01*
X55170000Y-151418000D02*
X55170000Y-153118000D01*
X55170000Y-156938000D02*
X55170000Y-155238000D01*
%TO.C,R13*%
X58561500Y-171402742D02*
X58561500Y-171877258D01*
X57516500Y-171402742D02*
X57516500Y-171877258D01*
%TO.C,R9*%
X36053500Y-179624258D02*
X36053500Y-179149742D01*
X37098500Y-179624258D02*
X37098500Y-179149742D01*
%TO.C,R5*%
X39782500Y-165964958D02*
X39782500Y-165490442D01*
X40827500Y-165964958D02*
X40827500Y-165490442D01*
%TO.C,J2*%
X80070000Y-159333000D02*
X78740000Y-159333000D01*
X80070000Y-158003000D02*
X80070000Y-159333000D01*
X80070000Y-156733000D02*
X80070000Y-151593000D01*
X80070000Y-156733000D02*
X77410000Y-156733000D01*
X80070000Y-151593000D02*
X77410000Y-151593000D01*
X77410000Y-156733000D02*
X77410000Y-151593000D01*
%TO.C,J11*%
X23936000Y-151832000D02*
X23936000Y-153162000D01*
X22606000Y-151832000D02*
X23936000Y-151832000D01*
X21336000Y-151832000D02*
X16196000Y-151832000D01*
X21336000Y-151832000D02*
X21336000Y-154492000D01*
X16196000Y-151832000D02*
X16196000Y-154492000D01*
X21336000Y-154492000D02*
X16196000Y-154492000D01*
%TO.C,C3*%
X59275000Y-158438000D02*
X59275000Y-157813000D01*
X58962500Y-158125500D02*
X59587500Y-158125500D01*
X59264437Y-157573000D02*
X59900000Y-157573000D01*
X59264437Y-157573000D02*
X58200000Y-156508563D01*
X62655563Y-157573000D02*
X62020000Y-157573000D01*
X62655563Y-157573000D02*
X63720000Y-156508563D01*
X58200000Y-156508563D02*
X58200000Y-152053000D01*
X63720000Y-156508563D02*
X63720000Y-152053000D01*
X58200000Y-152053000D02*
X59900000Y-152053000D01*
X63720000Y-152053000D02*
X62020000Y-152053000D01*
%TO.C,C9*%
X78970000Y-189974420D02*
X78970000Y-190255580D01*
X77950000Y-189974420D02*
X77950000Y-190255580D01*
%TO.C,TDO1*%
X63710000Y-167342000D02*
X64770000Y-167342000D01*
X63710000Y-168402000D02*
X63710000Y-167342000D01*
X63710000Y-169402000D02*
X63710000Y-169462000D01*
X63710000Y-169402000D02*
X65830000Y-169402000D01*
X63710000Y-169462000D02*
X65830000Y-169462000D01*
X65830000Y-169402000D02*
X65830000Y-169462000D01*
%TO.C,Q3*%
X27305000Y-169200000D02*
X28980000Y-169200000D01*
X27305000Y-169200000D02*
X26655000Y-169200000D01*
X27305000Y-166080000D02*
X27955000Y-166080000D01*
X27305000Y-166080000D02*
X26655000Y-166080000D01*
%TO.C,J14*%
X25403000Y-187465000D02*
X25403000Y-184645000D01*
X25403000Y-187465000D02*
X23703000Y-188765000D01*
X25403000Y-184645000D02*
X23703000Y-183345000D01*
X23703000Y-188765000D02*
X14983000Y-188765000D01*
X23703000Y-183345000D02*
X14983000Y-183345000D01*
X14983000Y-188765000D02*
X14983000Y-183345000D01*
%TD*%
M02*
