%TF.GenerationSoftware,KiCad,Pcbnew,7.0.11-rc3*%
%TF.CreationDate,2024-12-28T02:26:29+01:00*%
%TF.ProjectId,jf-ecu32.7,6a662d65-6375-4333-922e-372e6b696361,rev?*%
%TF.SameCoordinates,Original*%
%TF.FileFunction,Legend,Bot*%
%TF.FilePolarity,Positive*%
%FSLAX46Y46*%
G04 Gerber Fmt 4.6, Leading zero omitted, Abs format (unit mm)*
G04 Created by KiCad (PCBNEW 7.0.11-rc3) date 2024-12-28 02:26:29*
%MOMM*%
%LPD*%
G01*
G04 APERTURE LIST*
%ADD10C,0.150000*%
%ADD11C,0.120000*%
G04 APERTURE END LIST*
D10*
X77201904Y-196004819D02*
X77201904Y-196719104D01*
X77201904Y-196719104D02*
X77249523Y-196861961D01*
X77249523Y-196861961D02*
X77344761Y-196957200D01*
X77344761Y-196957200D02*
X77487618Y-197004819D01*
X77487618Y-197004819D02*
X77582856Y-197004819D01*
X76392380Y-196481009D02*
X76725713Y-196481009D01*
X76725713Y-197004819D02*
X76725713Y-196004819D01*
X76725713Y-196004819D02*
X76249523Y-196004819D01*
X75868570Y-196623866D02*
X75106666Y-196623866D01*
X74630475Y-196481009D02*
X74297142Y-196481009D01*
X74154285Y-197004819D02*
X74630475Y-197004819D01*
X74630475Y-197004819D02*
X74630475Y-196004819D01*
X74630475Y-196004819D02*
X74154285Y-196004819D01*
X73154285Y-196909580D02*
X73201904Y-196957200D01*
X73201904Y-196957200D02*
X73344761Y-197004819D01*
X73344761Y-197004819D02*
X73439999Y-197004819D01*
X73439999Y-197004819D02*
X73582856Y-196957200D01*
X73582856Y-196957200D02*
X73678094Y-196861961D01*
X73678094Y-196861961D02*
X73725713Y-196766723D01*
X73725713Y-196766723D02*
X73773332Y-196576247D01*
X73773332Y-196576247D02*
X73773332Y-196433390D01*
X73773332Y-196433390D02*
X73725713Y-196242914D01*
X73725713Y-196242914D02*
X73678094Y-196147676D01*
X73678094Y-196147676D02*
X73582856Y-196052438D01*
X73582856Y-196052438D02*
X73439999Y-196004819D01*
X73439999Y-196004819D02*
X73344761Y-196004819D01*
X73344761Y-196004819D02*
X73201904Y-196052438D01*
X73201904Y-196052438D02*
X73154285Y-196100057D01*
X72725713Y-196004819D02*
X72725713Y-196814342D01*
X72725713Y-196814342D02*
X72678094Y-196909580D01*
X72678094Y-196909580D02*
X72630475Y-196957200D01*
X72630475Y-196957200D02*
X72535237Y-197004819D01*
X72535237Y-197004819D02*
X72344761Y-197004819D01*
X72344761Y-197004819D02*
X72249523Y-196957200D01*
X72249523Y-196957200D02*
X72201904Y-196909580D01*
X72201904Y-196909580D02*
X72154285Y-196814342D01*
X72154285Y-196814342D02*
X72154285Y-196004819D01*
X71773332Y-196004819D02*
X71154285Y-196004819D01*
X71154285Y-196004819D02*
X71487618Y-196385771D01*
X71487618Y-196385771D02*
X71344761Y-196385771D01*
X71344761Y-196385771D02*
X71249523Y-196433390D01*
X71249523Y-196433390D02*
X71201904Y-196481009D01*
X71201904Y-196481009D02*
X71154285Y-196576247D01*
X71154285Y-196576247D02*
X71154285Y-196814342D01*
X71154285Y-196814342D02*
X71201904Y-196909580D01*
X71201904Y-196909580D02*
X71249523Y-196957200D01*
X71249523Y-196957200D02*
X71344761Y-197004819D01*
X71344761Y-197004819D02*
X71630475Y-197004819D01*
X71630475Y-197004819D02*
X71725713Y-196957200D01*
X71725713Y-196957200D02*
X71773332Y-196909580D01*
X70773332Y-196100057D02*
X70725713Y-196052438D01*
X70725713Y-196052438D02*
X70630475Y-196004819D01*
X70630475Y-196004819D02*
X70392380Y-196004819D01*
X70392380Y-196004819D02*
X70297142Y-196052438D01*
X70297142Y-196052438D02*
X70249523Y-196100057D01*
X70249523Y-196100057D02*
X70201904Y-196195295D01*
X70201904Y-196195295D02*
X70201904Y-196290533D01*
X70201904Y-196290533D02*
X70249523Y-196433390D01*
X70249523Y-196433390D02*
X70820951Y-197004819D01*
X70820951Y-197004819D02*
X70201904Y-197004819D01*
X69106665Y-196004819D02*
X68487618Y-196004819D01*
X68487618Y-196004819D02*
X68820951Y-196385771D01*
X68820951Y-196385771D02*
X68678094Y-196385771D01*
X68678094Y-196385771D02*
X68582856Y-196433390D01*
X68582856Y-196433390D02*
X68535237Y-196481009D01*
X68535237Y-196481009D02*
X68487618Y-196576247D01*
X68487618Y-196576247D02*
X68487618Y-196814342D01*
X68487618Y-196814342D02*
X68535237Y-196909580D01*
X68535237Y-196909580D02*
X68582856Y-196957200D01*
X68582856Y-196957200D02*
X68678094Y-197004819D01*
X68678094Y-197004819D02*
X68963808Y-197004819D01*
X68963808Y-197004819D02*
X69059046Y-196957200D01*
X69059046Y-196957200D02*
X69106665Y-196909580D01*
X68059046Y-196909580D02*
X68011427Y-196957200D01*
X68011427Y-196957200D02*
X68059046Y-197004819D01*
X68059046Y-197004819D02*
X68106665Y-196957200D01*
X68106665Y-196957200D02*
X68059046Y-196909580D01*
X68059046Y-196909580D02*
X68059046Y-197004819D01*
X67392380Y-196004819D02*
X67297142Y-196004819D01*
X67297142Y-196004819D02*
X67201904Y-196052438D01*
X67201904Y-196052438D02*
X67154285Y-196100057D01*
X67154285Y-196100057D02*
X67106666Y-196195295D01*
X67106666Y-196195295D02*
X67059047Y-196385771D01*
X67059047Y-196385771D02*
X67059047Y-196623866D01*
X67059047Y-196623866D02*
X67106666Y-196814342D01*
X67106666Y-196814342D02*
X67154285Y-196909580D01*
X67154285Y-196909580D02*
X67201904Y-196957200D01*
X67201904Y-196957200D02*
X67297142Y-197004819D01*
X67297142Y-197004819D02*
X67392380Y-197004819D01*
X67392380Y-197004819D02*
X67487618Y-196957200D01*
X67487618Y-196957200D02*
X67535237Y-196909580D01*
X67535237Y-196909580D02*
X67582856Y-196814342D01*
X67582856Y-196814342D02*
X67630475Y-196623866D01*
X67630475Y-196623866D02*
X67630475Y-196385771D01*
X67630475Y-196385771D02*
X67582856Y-196195295D01*
X67582856Y-196195295D02*
X67535237Y-196100057D01*
X67535237Y-196100057D02*
X67487618Y-196052438D01*
X67487618Y-196052438D02*
X67392380Y-196004819D01*
X65678094Y-196004819D02*
X65582856Y-196004819D01*
X65582856Y-196004819D02*
X65487618Y-196052438D01*
X65487618Y-196052438D02*
X65439999Y-196100057D01*
X65439999Y-196100057D02*
X65392380Y-196195295D01*
X65392380Y-196195295D02*
X65344761Y-196385771D01*
X65344761Y-196385771D02*
X65344761Y-196623866D01*
X65344761Y-196623866D02*
X65392380Y-196814342D01*
X65392380Y-196814342D02*
X65439999Y-196909580D01*
X65439999Y-196909580D02*
X65487618Y-196957200D01*
X65487618Y-196957200D02*
X65582856Y-197004819D01*
X65582856Y-197004819D02*
X65678094Y-197004819D01*
X65678094Y-197004819D02*
X65773332Y-196957200D01*
X65773332Y-196957200D02*
X65820951Y-196909580D01*
X65820951Y-196909580D02*
X65868570Y-196814342D01*
X65868570Y-196814342D02*
X65916189Y-196623866D01*
X65916189Y-196623866D02*
X65916189Y-196385771D01*
X65916189Y-196385771D02*
X65868570Y-196195295D01*
X65868570Y-196195295D02*
X65820951Y-196100057D01*
X65820951Y-196100057D02*
X65773332Y-196052438D01*
X65773332Y-196052438D02*
X65678094Y-196004819D01*
X64868570Y-197004819D02*
X64678094Y-197004819D01*
X64678094Y-197004819D02*
X64582856Y-196957200D01*
X64582856Y-196957200D02*
X64535237Y-196909580D01*
X64535237Y-196909580D02*
X64439999Y-196766723D01*
X64439999Y-196766723D02*
X64392380Y-196576247D01*
X64392380Y-196576247D02*
X64392380Y-196195295D01*
X64392380Y-196195295D02*
X64439999Y-196100057D01*
X64439999Y-196100057D02*
X64487618Y-196052438D01*
X64487618Y-196052438D02*
X64582856Y-196004819D01*
X64582856Y-196004819D02*
X64773332Y-196004819D01*
X64773332Y-196004819D02*
X64868570Y-196052438D01*
X64868570Y-196052438D02*
X64916189Y-196100057D01*
X64916189Y-196100057D02*
X64963808Y-196195295D01*
X64963808Y-196195295D02*
X64963808Y-196433390D01*
X64963808Y-196433390D02*
X64916189Y-196528628D01*
X64916189Y-196528628D02*
X64868570Y-196576247D01*
X64868570Y-196576247D02*
X64773332Y-196623866D01*
X64773332Y-196623866D02*
X64582856Y-196623866D01*
X64582856Y-196623866D02*
X64487618Y-196576247D01*
X64487618Y-196576247D02*
X64439999Y-196528628D01*
X64439999Y-196528628D02*
X64392380Y-196433390D01*
X63963808Y-196623866D02*
X63201904Y-196623866D01*
X62773332Y-196100057D02*
X62725713Y-196052438D01*
X62725713Y-196052438D02*
X62630475Y-196004819D01*
X62630475Y-196004819D02*
X62392380Y-196004819D01*
X62392380Y-196004819D02*
X62297142Y-196052438D01*
X62297142Y-196052438D02*
X62249523Y-196100057D01*
X62249523Y-196100057D02*
X62201904Y-196195295D01*
X62201904Y-196195295D02*
X62201904Y-196290533D01*
X62201904Y-196290533D02*
X62249523Y-196433390D01*
X62249523Y-196433390D02*
X62820951Y-197004819D01*
X62820951Y-197004819D02*
X62201904Y-197004819D01*
X61582856Y-196004819D02*
X61487618Y-196004819D01*
X61487618Y-196004819D02*
X61392380Y-196052438D01*
X61392380Y-196052438D02*
X61344761Y-196100057D01*
X61344761Y-196100057D02*
X61297142Y-196195295D01*
X61297142Y-196195295D02*
X61249523Y-196385771D01*
X61249523Y-196385771D02*
X61249523Y-196623866D01*
X61249523Y-196623866D02*
X61297142Y-196814342D01*
X61297142Y-196814342D02*
X61344761Y-196909580D01*
X61344761Y-196909580D02*
X61392380Y-196957200D01*
X61392380Y-196957200D02*
X61487618Y-197004819D01*
X61487618Y-197004819D02*
X61582856Y-197004819D01*
X61582856Y-197004819D02*
X61678094Y-196957200D01*
X61678094Y-196957200D02*
X61725713Y-196909580D01*
X61725713Y-196909580D02*
X61773332Y-196814342D01*
X61773332Y-196814342D02*
X61820951Y-196623866D01*
X61820951Y-196623866D02*
X61820951Y-196385771D01*
X61820951Y-196385771D02*
X61773332Y-196195295D01*
X61773332Y-196195295D02*
X61725713Y-196100057D01*
X61725713Y-196100057D02*
X61678094Y-196052438D01*
X61678094Y-196052438D02*
X61582856Y-196004819D01*
X60868570Y-196100057D02*
X60820951Y-196052438D01*
X60820951Y-196052438D02*
X60725713Y-196004819D01*
X60725713Y-196004819D02*
X60487618Y-196004819D01*
X60487618Y-196004819D02*
X60392380Y-196052438D01*
X60392380Y-196052438D02*
X60344761Y-196100057D01*
X60344761Y-196100057D02*
X60297142Y-196195295D01*
X60297142Y-196195295D02*
X60297142Y-196290533D01*
X60297142Y-196290533D02*
X60344761Y-196433390D01*
X60344761Y-196433390D02*
X60916189Y-197004819D01*
X60916189Y-197004819D02*
X60297142Y-197004819D01*
X59439999Y-196338152D02*
X59439999Y-197004819D01*
X59678094Y-195957200D02*
X59916189Y-196671485D01*
X59916189Y-196671485D02*
X59297142Y-196671485D01*
X46524819Y-187057142D02*
X46048628Y-186723809D01*
X46524819Y-186485714D02*
X45524819Y-186485714D01*
X45524819Y-186485714D02*
X45524819Y-186866666D01*
X45524819Y-186866666D02*
X45572438Y-186961904D01*
X45572438Y-186961904D02*
X45620057Y-187009523D01*
X45620057Y-187009523D02*
X45715295Y-187057142D01*
X45715295Y-187057142D02*
X45858152Y-187057142D01*
X45858152Y-187057142D02*
X45953390Y-187009523D01*
X45953390Y-187009523D02*
X46001009Y-186961904D01*
X46001009Y-186961904D02*
X46048628Y-186866666D01*
X46048628Y-186866666D02*
X46048628Y-186485714D01*
X45620057Y-187438095D02*
X45572438Y-187485714D01*
X45572438Y-187485714D02*
X45524819Y-187580952D01*
X45524819Y-187580952D02*
X45524819Y-187819047D01*
X45524819Y-187819047D02*
X45572438Y-187914285D01*
X45572438Y-187914285D02*
X45620057Y-187961904D01*
X45620057Y-187961904D02*
X45715295Y-188009523D01*
X45715295Y-188009523D02*
X45810533Y-188009523D01*
X45810533Y-188009523D02*
X45953390Y-187961904D01*
X45953390Y-187961904D02*
X46524819Y-187390476D01*
X46524819Y-187390476D02*
X46524819Y-188009523D01*
X45524819Y-188342857D02*
X45524819Y-188961904D01*
X45524819Y-188961904D02*
X45905771Y-188628571D01*
X45905771Y-188628571D02*
X45905771Y-188771428D01*
X45905771Y-188771428D02*
X45953390Y-188866666D01*
X45953390Y-188866666D02*
X46001009Y-188914285D01*
X46001009Y-188914285D02*
X46096247Y-188961904D01*
X46096247Y-188961904D02*
X46334342Y-188961904D01*
X46334342Y-188961904D02*
X46429580Y-188914285D01*
X46429580Y-188914285D02*
X46477200Y-188866666D01*
X46477200Y-188866666D02*
X46524819Y-188771428D01*
X46524819Y-188771428D02*
X46524819Y-188485714D01*
X46524819Y-188485714D02*
X46477200Y-188390476D01*
X46477200Y-188390476D02*
X46429580Y-188342857D01*
X36044094Y-169999819D02*
X36044094Y-168999819D01*
X36044094Y-168999819D02*
X35805999Y-168999819D01*
X35805999Y-168999819D02*
X35663142Y-169047438D01*
X35663142Y-169047438D02*
X35567904Y-169142676D01*
X35567904Y-169142676D02*
X35520285Y-169237914D01*
X35520285Y-169237914D02*
X35472666Y-169428390D01*
X35472666Y-169428390D02*
X35472666Y-169571247D01*
X35472666Y-169571247D02*
X35520285Y-169761723D01*
X35520285Y-169761723D02*
X35567904Y-169856961D01*
X35567904Y-169856961D02*
X35663142Y-169952200D01*
X35663142Y-169952200D02*
X35805999Y-169999819D01*
X35805999Y-169999819D02*
X36044094Y-169999819D01*
X34996475Y-169999819D02*
X34805999Y-169999819D01*
X34805999Y-169999819D02*
X34710761Y-169952200D01*
X34710761Y-169952200D02*
X34663142Y-169904580D01*
X34663142Y-169904580D02*
X34567904Y-169761723D01*
X34567904Y-169761723D02*
X34520285Y-169571247D01*
X34520285Y-169571247D02*
X34520285Y-169190295D01*
X34520285Y-169190295D02*
X34567904Y-169095057D01*
X34567904Y-169095057D02*
X34615523Y-169047438D01*
X34615523Y-169047438D02*
X34710761Y-168999819D01*
X34710761Y-168999819D02*
X34901237Y-168999819D01*
X34901237Y-168999819D02*
X34996475Y-169047438D01*
X34996475Y-169047438D02*
X35044094Y-169095057D01*
X35044094Y-169095057D02*
X35091713Y-169190295D01*
X35091713Y-169190295D02*
X35091713Y-169428390D01*
X35091713Y-169428390D02*
X35044094Y-169523628D01*
X35044094Y-169523628D02*
X34996475Y-169571247D01*
X34996475Y-169571247D02*
X34901237Y-169618866D01*
X34901237Y-169618866D02*
X34710761Y-169618866D01*
X34710761Y-169618866D02*
X34615523Y-169571247D01*
X34615523Y-169571247D02*
X34567904Y-169523628D01*
X34567904Y-169523628D02*
X34520285Y-169428390D01*
X61116094Y-154473819D02*
X61116094Y-153473819D01*
X61116094Y-153473819D02*
X60877999Y-153473819D01*
X60877999Y-153473819D02*
X60735142Y-153521438D01*
X60735142Y-153521438D02*
X60639904Y-153616676D01*
X60639904Y-153616676D02*
X60592285Y-153711914D01*
X60592285Y-153711914D02*
X60544666Y-153902390D01*
X60544666Y-153902390D02*
X60544666Y-154045247D01*
X60544666Y-154045247D02*
X60592285Y-154235723D01*
X60592285Y-154235723D02*
X60639904Y-154330961D01*
X60639904Y-154330961D02*
X60735142Y-154426200D01*
X60735142Y-154426200D02*
X60877999Y-154473819D01*
X60877999Y-154473819D02*
X61116094Y-154473819D01*
X59592285Y-154473819D02*
X60163713Y-154473819D01*
X59877999Y-154473819D02*
X59877999Y-153473819D01*
X59877999Y-153473819D02*
X59973237Y-153616676D01*
X59973237Y-153616676D02*
X60068475Y-153711914D01*
X60068475Y-153711914D02*
X60163713Y-153759533D01*
X42169404Y-175108819D02*
X42169404Y-175918342D01*
X42169404Y-175918342D02*
X42121785Y-176013580D01*
X42121785Y-176013580D02*
X42074166Y-176061200D01*
X42074166Y-176061200D02*
X41978928Y-176108819D01*
X41978928Y-176108819D02*
X41788452Y-176108819D01*
X41788452Y-176108819D02*
X41693214Y-176061200D01*
X41693214Y-176061200D02*
X41645595Y-176013580D01*
X41645595Y-176013580D02*
X41597976Y-175918342D01*
X41597976Y-175918342D02*
X41597976Y-175108819D01*
X41217023Y-175108819D02*
X40550357Y-175108819D01*
X40550357Y-175108819D02*
X40978928Y-176108819D01*
X45251819Y-181089595D02*
X46061342Y-181089595D01*
X46061342Y-181089595D02*
X46156580Y-181137214D01*
X46156580Y-181137214D02*
X46204200Y-181184833D01*
X46204200Y-181184833D02*
X46251819Y-181280071D01*
X46251819Y-181280071D02*
X46251819Y-181470547D01*
X46251819Y-181470547D02*
X46204200Y-181565785D01*
X46204200Y-181565785D02*
X46156580Y-181613404D01*
X46156580Y-181613404D02*
X46061342Y-181661023D01*
X46061342Y-181661023D02*
X45251819Y-181661023D01*
X45680390Y-182280071D02*
X45632771Y-182184833D01*
X45632771Y-182184833D02*
X45585152Y-182137214D01*
X45585152Y-182137214D02*
X45489914Y-182089595D01*
X45489914Y-182089595D02*
X45442295Y-182089595D01*
X45442295Y-182089595D02*
X45347057Y-182137214D01*
X45347057Y-182137214D02*
X45299438Y-182184833D01*
X45299438Y-182184833D02*
X45251819Y-182280071D01*
X45251819Y-182280071D02*
X45251819Y-182470547D01*
X45251819Y-182470547D02*
X45299438Y-182565785D01*
X45299438Y-182565785D02*
X45347057Y-182613404D01*
X45347057Y-182613404D02*
X45442295Y-182661023D01*
X45442295Y-182661023D02*
X45489914Y-182661023D01*
X45489914Y-182661023D02*
X45585152Y-182613404D01*
X45585152Y-182613404D02*
X45632771Y-182565785D01*
X45632771Y-182565785D02*
X45680390Y-182470547D01*
X45680390Y-182470547D02*
X45680390Y-182280071D01*
X45680390Y-182280071D02*
X45728009Y-182184833D01*
X45728009Y-182184833D02*
X45775628Y-182137214D01*
X45775628Y-182137214D02*
X45870866Y-182089595D01*
X45870866Y-182089595D02*
X46061342Y-182089595D01*
X46061342Y-182089595D02*
X46156580Y-182137214D01*
X46156580Y-182137214D02*
X46204200Y-182184833D01*
X46204200Y-182184833D02*
X46251819Y-182280071D01*
X46251819Y-182280071D02*
X46251819Y-182470547D01*
X46251819Y-182470547D02*
X46204200Y-182565785D01*
X46204200Y-182565785D02*
X46156580Y-182613404D01*
X46156580Y-182613404D02*
X46061342Y-182661023D01*
X46061342Y-182661023D02*
X45870866Y-182661023D01*
X45870866Y-182661023D02*
X45775628Y-182613404D01*
X45775628Y-182613404D02*
X45728009Y-182565785D01*
X45728009Y-182565785D02*
X45680390Y-182470547D01*
X37845904Y-158048819D02*
X37845904Y-158858342D01*
X37845904Y-158858342D02*
X37798285Y-158953580D01*
X37798285Y-158953580D02*
X37750666Y-159001200D01*
X37750666Y-159001200D02*
X37655428Y-159048819D01*
X37655428Y-159048819D02*
X37464952Y-159048819D01*
X37464952Y-159048819D02*
X37369714Y-159001200D01*
X37369714Y-159001200D02*
X37322095Y-158953580D01*
X37322095Y-158953580D02*
X37274476Y-158858342D01*
X37274476Y-158858342D02*
X37274476Y-158048819D01*
X36893523Y-158048819D02*
X36274476Y-158048819D01*
X36274476Y-158048819D02*
X36607809Y-158429771D01*
X36607809Y-158429771D02*
X36464952Y-158429771D01*
X36464952Y-158429771D02*
X36369714Y-158477390D01*
X36369714Y-158477390D02*
X36322095Y-158525009D01*
X36322095Y-158525009D02*
X36274476Y-158620247D01*
X36274476Y-158620247D02*
X36274476Y-158858342D01*
X36274476Y-158858342D02*
X36322095Y-158953580D01*
X36322095Y-158953580D02*
X36369714Y-159001200D01*
X36369714Y-159001200D02*
X36464952Y-159048819D01*
X36464952Y-159048819D02*
X36750666Y-159048819D01*
X36750666Y-159048819D02*
X36845904Y-159001200D01*
X36845904Y-159001200D02*
X36893523Y-158953580D01*
X41349580Y-188628333D02*
X41397200Y-188580714D01*
X41397200Y-188580714D02*
X41444819Y-188437857D01*
X41444819Y-188437857D02*
X41444819Y-188342619D01*
X41444819Y-188342619D02*
X41397200Y-188199762D01*
X41397200Y-188199762D02*
X41301961Y-188104524D01*
X41301961Y-188104524D02*
X41206723Y-188056905D01*
X41206723Y-188056905D02*
X41016247Y-188009286D01*
X41016247Y-188009286D02*
X40873390Y-188009286D01*
X40873390Y-188009286D02*
X40682914Y-188056905D01*
X40682914Y-188056905D02*
X40587676Y-188104524D01*
X40587676Y-188104524D02*
X40492438Y-188199762D01*
X40492438Y-188199762D02*
X40444819Y-188342619D01*
X40444819Y-188342619D02*
X40444819Y-188437857D01*
X40444819Y-188437857D02*
X40492438Y-188580714D01*
X40492438Y-188580714D02*
X40540057Y-188628333D01*
X40540057Y-189009286D02*
X40492438Y-189056905D01*
X40492438Y-189056905D02*
X40444819Y-189152143D01*
X40444819Y-189152143D02*
X40444819Y-189390238D01*
X40444819Y-189390238D02*
X40492438Y-189485476D01*
X40492438Y-189485476D02*
X40540057Y-189533095D01*
X40540057Y-189533095D02*
X40635295Y-189580714D01*
X40635295Y-189580714D02*
X40730533Y-189580714D01*
X40730533Y-189580714D02*
X40873390Y-189533095D01*
X40873390Y-189533095D02*
X41444819Y-188961667D01*
X41444819Y-188961667D02*
X41444819Y-189580714D01*
X29034285Y-197754819D02*
X29034285Y-196754819D01*
X29034285Y-196754819D02*
X28796190Y-196754819D01*
X28796190Y-196754819D02*
X28653333Y-196802438D01*
X28653333Y-196802438D02*
X28558095Y-196897676D01*
X28558095Y-196897676D02*
X28510476Y-196992914D01*
X28510476Y-196992914D02*
X28462857Y-197183390D01*
X28462857Y-197183390D02*
X28462857Y-197326247D01*
X28462857Y-197326247D02*
X28510476Y-197516723D01*
X28510476Y-197516723D02*
X28558095Y-197611961D01*
X28558095Y-197611961D02*
X28653333Y-197707200D01*
X28653333Y-197707200D02*
X28796190Y-197754819D01*
X28796190Y-197754819D02*
X29034285Y-197754819D01*
X27510476Y-197754819D02*
X28081904Y-197754819D01*
X27796190Y-197754819D02*
X27796190Y-196754819D01*
X27796190Y-196754819D02*
X27891428Y-196897676D01*
X27891428Y-196897676D02*
X27986666Y-196992914D01*
X27986666Y-196992914D02*
X28081904Y-197040533D01*
X26891428Y-196754819D02*
X26796190Y-196754819D01*
X26796190Y-196754819D02*
X26700952Y-196802438D01*
X26700952Y-196802438D02*
X26653333Y-196850057D01*
X26653333Y-196850057D02*
X26605714Y-196945295D01*
X26605714Y-196945295D02*
X26558095Y-197135771D01*
X26558095Y-197135771D02*
X26558095Y-197373866D01*
X26558095Y-197373866D02*
X26605714Y-197564342D01*
X26605714Y-197564342D02*
X26653333Y-197659580D01*
X26653333Y-197659580D02*
X26700952Y-197707200D01*
X26700952Y-197707200D02*
X26796190Y-197754819D01*
X26796190Y-197754819D02*
X26891428Y-197754819D01*
X26891428Y-197754819D02*
X26986666Y-197707200D01*
X26986666Y-197707200D02*
X27034285Y-197659580D01*
X27034285Y-197659580D02*
X27081904Y-197564342D01*
X27081904Y-197564342D02*
X27129523Y-197373866D01*
X27129523Y-197373866D02*
X27129523Y-197135771D01*
X27129523Y-197135771D02*
X27081904Y-196945295D01*
X27081904Y-196945295D02*
X27034285Y-196850057D01*
X27034285Y-196850057D02*
X26986666Y-196802438D01*
X26986666Y-196802438D02*
X26891428Y-196754819D01*
X45111666Y-160760580D02*
X45159285Y-160808200D01*
X45159285Y-160808200D02*
X45302142Y-160855819D01*
X45302142Y-160855819D02*
X45397380Y-160855819D01*
X45397380Y-160855819D02*
X45540237Y-160808200D01*
X45540237Y-160808200D02*
X45635475Y-160712961D01*
X45635475Y-160712961D02*
X45683094Y-160617723D01*
X45683094Y-160617723D02*
X45730713Y-160427247D01*
X45730713Y-160427247D02*
X45730713Y-160284390D01*
X45730713Y-160284390D02*
X45683094Y-160093914D01*
X45683094Y-160093914D02*
X45635475Y-159998676D01*
X45635475Y-159998676D02*
X45540237Y-159903438D01*
X45540237Y-159903438D02*
X45397380Y-159855819D01*
X45397380Y-159855819D02*
X45302142Y-159855819D01*
X45302142Y-159855819D02*
X45159285Y-159903438D01*
X45159285Y-159903438D02*
X45111666Y-159951057D01*
X44206904Y-159855819D02*
X44683094Y-159855819D01*
X44683094Y-159855819D02*
X44730713Y-160332009D01*
X44730713Y-160332009D02*
X44683094Y-160284390D01*
X44683094Y-160284390D02*
X44587856Y-160236771D01*
X44587856Y-160236771D02*
X44349761Y-160236771D01*
X44349761Y-160236771D02*
X44254523Y-160284390D01*
X44254523Y-160284390D02*
X44206904Y-160332009D01*
X44206904Y-160332009D02*
X44159285Y-160427247D01*
X44159285Y-160427247D02*
X44159285Y-160665342D01*
X44159285Y-160665342D02*
X44206904Y-160760580D01*
X44206904Y-160760580D02*
X44254523Y-160808200D01*
X44254523Y-160808200D02*
X44349761Y-160855819D01*
X44349761Y-160855819D02*
X44587856Y-160855819D01*
X44587856Y-160855819D02*
X44683094Y-160808200D01*
X44683094Y-160808200D02*
X44730713Y-160760580D01*
X78366857Y-171744819D02*
X78700190Y-171268628D01*
X78938285Y-171744819D02*
X78938285Y-170744819D01*
X78938285Y-170744819D02*
X78557333Y-170744819D01*
X78557333Y-170744819D02*
X78462095Y-170792438D01*
X78462095Y-170792438D02*
X78414476Y-170840057D01*
X78414476Y-170840057D02*
X78366857Y-170935295D01*
X78366857Y-170935295D02*
X78366857Y-171078152D01*
X78366857Y-171078152D02*
X78414476Y-171173390D01*
X78414476Y-171173390D02*
X78462095Y-171221009D01*
X78462095Y-171221009D02*
X78557333Y-171268628D01*
X78557333Y-171268628D02*
X78938285Y-171268628D01*
X77414476Y-171744819D02*
X77985904Y-171744819D01*
X77700190Y-171744819D02*
X77700190Y-170744819D01*
X77700190Y-170744819D02*
X77795428Y-170887676D01*
X77795428Y-170887676D02*
X77890666Y-170982914D01*
X77890666Y-170982914D02*
X77985904Y-171030533D01*
X76557333Y-170744819D02*
X76747809Y-170744819D01*
X76747809Y-170744819D02*
X76843047Y-170792438D01*
X76843047Y-170792438D02*
X76890666Y-170840057D01*
X76890666Y-170840057D02*
X76985904Y-170982914D01*
X76985904Y-170982914D02*
X77033523Y-171173390D01*
X77033523Y-171173390D02*
X77033523Y-171554342D01*
X77033523Y-171554342D02*
X76985904Y-171649580D01*
X76985904Y-171649580D02*
X76938285Y-171697200D01*
X76938285Y-171697200D02*
X76843047Y-171744819D01*
X76843047Y-171744819D02*
X76652571Y-171744819D01*
X76652571Y-171744819D02*
X76557333Y-171697200D01*
X76557333Y-171697200D02*
X76509714Y-171649580D01*
X76509714Y-171649580D02*
X76462095Y-171554342D01*
X76462095Y-171554342D02*
X76462095Y-171316247D01*
X76462095Y-171316247D02*
X76509714Y-171221009D01*
X76509714Y-171221009D02*
X76557333Y-171173390D01*
X76557333Y-171173390D02*
X76652571Y-171125771D01*
X76652571Y-171125771D02*
X76843047Y-171125771D01*
X76843047Y-171125771D02*
X76938285Y-171173390D01*
X76938285Y-171173390D02*
X76985904Y-171221009D01*
X76985904Y-171221009D02*
X77033523Y-171316247D01*
X37577738Y-189360057D02*
X37672976Y-189312438D01*
X37672976Y-189312438D02*
X37768214Y-189217200D01*
X37768214Y-189217200D02*
X37911071Y-189074342D01*
X37911071Y-189074342D02*
X38006309Y-189026723D01*
X38006309Y-189026723D02*
X38101547Y-189026723D01*
X38053928Y-189264819D02*
X38149166Y-189217200D01*
X38149166Y-189217200D02*
X38244404Y-189121961D01*
X38244404Y-189121961D02*
X38292023Y-188931485D01*
X38292023Y-188931485D02*
X38292023Y-188598152D01*
X38292023Y-188598152D02*
X38244404Y-188407676D01*
X38244404Y-188407676D02*
X38149166Y-188312438D01*
X38149166Y-188312438D02*
X38053928Y-188264819D01*
X38053928Y-188264819D02*
X37863452Y-188264819D01*
X37863452Y-188264819D02*
X37768214Y-188312438D01*
X37768214Y-188312438D02*
X37672976Y-188407676D01*
X37672976Y-188407676D02*
X37625357Y-188598152D01*
X37625357Y-188598152D02*
X37625357Y-188931485D01*
X37625357Y-188931485D02*
X37672976Y-189121961D01*
X37672976Y-189121961D02*
X37768214Y-189217200D01*
X37768214Y-189217200D02*
X37863452Y-189264819D01*
X37863452Y-189264819D02*
X38053928Y-189264819D01*
X37292023Y-188264819D02*
X36625357Y-188264819D01*
X36625357Y-188264819D02*
X37053928Y-189264819D01*
X63605580Y-161110333D02*
X63653200Y-161062714D01*
X63653200Y-161062714D02*
X63700819Y-160919857D01*
X63700819Y-160919857D02*
X63700819Y-160824619D01*
X63700819Y-160824619D02*
X63653200Y-160681762D01*
X63653200Y-160681762D02*
X63557961Y-160586524D01*
X63557961Y-160586524D02*
X63462723Y-160538905D01*
X63462723Y-160538905D02*
X63272247Y-160491286D01*
X63272247Y-160491286D02*
X63129390Y-160491286D01*
X63129390Y-160491286D02*
X62938914Y-160538905D01*
X62938914Y-160538905D02*
X62843676Y-160586524D01*
X62843676Y-160586524D02*
X62748438Y-160681762D01*
X62748438Y-160681762D02*
X62700819Y-160824619D01*
X62700819Y-160824619D02*
X62700819Y-160919857D01*
X62700819Y-160919857D02*
X62748438Y-161062714D01*
X62748438Y-161062714D02*
X62796057Y-161110333D01*
X62700819Y-161967476D02*
X62700819Y-161777000D01*
X62700819Y-161777000D02*
X62748438Y-161681762D01*
X62748438Y-161681762D02*
X62796057Y-161634143D01*
X62796057Y-161634143D02*
X62938914Y-161538905D01*
X62938914Y-161538905D02*
X63129390Y-161491286D01*
X63129390Y-161491286D02*
X63510342Y-161491286D01*
X63510342Y-161491286D02*
X63605580Y-161538905D01*
X63605580Y-161538905D02*
X63653200Y-161586524D01*
X63653200Y-161586524D02*
X63700819Y-161681762D01*
X63700819Y-161681762D02*
X63700819Y-161872238D01*
X63700819Y-161872238D02*
X63653200Y-161967476D01*
X63653200Y-161967476D02*
X63605580Y-162015095D01*
X63605580Y-162015095D02*
X63510342Y-162062714D01*
X63510342Y-162062714D02*
X63272247Y-162062714D01*
X63272247Y-162062714D02*
X63177009Y-162015095D01*
X63177009Y-162015095D02*
X63129390Y-161967476D01*
X63129390Y-161967476D02*
X63081771Y-161872238D01*
X63081771Y-161872238D02*
X63081771Y-161681762D01*
X63081771Y-161681762D02*
X63129390Y-161586524D01*
X63129390Y-161586524D02*
X63177009Y-161538905D01*
X63177009Y-161538905D02*
X63272247Y-161491286D01*
X30106857Y-155299580D02*
X30154476Y-155347200D01*
X30154476Y-155347200D02*
X30297333Y-155394819D01*
X30297333Y-155394819D02*
X30392571Y-155394819D01*
X30392571Y-155394819D02*
X30535428Y-155347200D01*
X30535428Y-155347200D02*
X30630666Y-155251961D01*
X30630666Y-155251961D02*
X30678285Y-155156723D01*
X30678285Y-155156723D02*
X30725904Y-154966247D01*
X30725904Y-154966247D02*
X30725904Y-154823390D01*
X30725904Y-154823390D02*
X30678285Y-154632914D01*
X30678285Y-154632914D02*
X30630666Y-154537676D01*
X30630666Y-154537676D02*
X30535428Y-154442438D01*
X30535428Y-154442438D02*
X30392571Y-154394819D01*
X30392571Y-154394819D02*
X30297333Y-154394819D01*
X30297333Y-154394819D02*
X30154476Y-154442438D01*
X30154476Y-154442438D02*
X30106857Y-154490057D01*
X29154476Y-155394819D02*
X29725904Y-155394819D01*
X29440190Y-155394819D02*
X29440190Y-154394819D01*
X29440190Y-154394819D02*
X29535428Y-154537676D01*
X29535428Y-154537676D02*
X29630666Y-154632914D01*
X29630666Y-154632914D02*
X29725904Y-154680533D01*
X28535428Y-154394819D02*
X28440190Y-154394819D01*
X28440190Y-154394819D02*
X28344952Y-154442438D01*
X28344952Y-154442438D02*
X28297333Y-154490057D01*
X28297333Y-154490057D02*
X28249714Y-154585295D01*
X28249714Y-154585295D02*
X28202095Y-154775771D01*
X28202095Y-154775771D02*
X28202095Y-155013866D01*
X28202095Y-155013866D02*
X28249714Y-155204342D01*
X28249714Y-155204342D02*
X28297333Y-155299580D01*
X28297333Y-155299580D02*
X28344952Y-155347200D01*
X28344952Y-155347200D02*
X28440190Y-155394819D01*
X28440190Y-155394819D02*
X28535428Y-155394819D01*
X28535428Y-155394819D02*
X28630666Y-155347200D01*
X28630666Y-155347200D02*
X28678285Y-155299580D01*
X28678285Y-155299580D02*
X28725904Y-155204342D01*
X28725904Y-155204342D02*
X28773523Y-155013866D01*
X28773523Y-155013866D02*
X28773523Y-154775771D01*
X28773523Y-154775771D02*
X28725904Y-154585295D01*
X28725904Y-154585295D02*
X28678285Y-154490057D01*
X28678285Y-154490057D02*
X28630666Y-154442438D01*
X28630666Y-154442438D02*
X28535428Y-154394819D01*
X34456666Y-176701580D02*
X34504285Y-176749200D01*
X34504285Y-176749200D02*
X34647142Y-176796819D01*
X34647142Y-176796819D02*
X34742380Y-176796819D01*
X34742380Y-176796819D02*
X34885237Y-176749200D01*
X34885237Y-176749200D02*
X34980475Y-176653961D01*
X34980475Y-176653961D02*
X35028094Y-176558723D01*
X35028094Y-176558723D02*
X35075713Y-176368247D01*
X35075713Y-176368247D02*
X35075713Y-176225390D01*
X35075713Y-176225390D02*
X35028094Y-176034914D01*
X35028094Y-176034914D02*
X34980475Y-175939676D01*
X34980475Y-175939676D02*
X34885237Y-175844438D01*
X34885237Y-175844438D02*
X34742380Y-175796819D01*
X34742380Y-175796819D02*
X34647142Y-175796819D01*
X34647142Y-175796819D02*
X34504285Y-175844438D01*
X34504285Y-175844438D02*
X34456666Y-175892057D01*
X33599523Y-176130152D02*
X33599523Y-176796819D01*
X33837618Y-175749200D02*
X34075713Y-176463485D01*
X34075713Y-176463485D02*
X33456666Y-176463485D01*
X34424857Y-178193819D02*
X34758190Y-177717628D01*
X34996285Y-178193819D02*
X34996285Y-177193819D01*
X34996285Y-177193819D02*
X34615333Y-177193819D01*
X34615333Y-177193819D02*
X34520095Y-177241438D01*
X34520095Y-177241438D02*
X34472476Y-177289057D01*
X34472476Y-177289057D02*
X34424857Y-177384295D01*
X34424857Y-177384295D02*
X34424857Y-177527152D01*
X34424857Y-177527152D02*
X34472476Y-177622390D01*
X34472476Y-177622390D02*
X34520095Y-177670009D01*
X34520095Y-177670009D02*
X34615333Y-177717628D01*
X34615333Y-177717628D02*
X34996285Y-177717628D01*
X33472476Y-178193819D02*
X34043904Y-178193819D01*
X33758190Y-178193819D02*
X33758190Y-177193819D01*
X33758190Y-177193819D02*
X33853428Y-177336676D01*
X33853428Y-177336676D02*
X33948666Y-177431914D01*
X33948666Y-177431914D02*
X34043904Y-177479533D01*
X33139142Y-177193819D02*
X32472476Y-177193819D01*
X32472476Y-177193819D02*
X32901047Y-178193819D01*
X36724285Y-174344819D02*
X36724285Y-173344819D01*
X36724285Y-173344819D02*
X36486190Y-173344819D01*
X36486190Y-173344819D02*
X36343333Y-173392438D01*
X36343333Y-173392438D02*
X36248095Y-173487676D01*
X36248095Y-173487676D02*
X36200476Y-173582914D01*
X36200476Y-173582914D02*
X36152857Y-173773390D01*
X36152857Y-173773390D02*
X36152857Y-173916247D01*
X36152857Y-173916247D02*
X36200476Y-174106723D01*
X36200476Y-174106723D02*
X36248095Y-174201961D01*
X36248095Y-174201961D02*
X36343333Y-174297200D01*
X36343333Y-174297200D02*
X36486190Y-174344819D01*
X36486190Y-174344819D02*
X36724285Y-174344819D01*
X35200476Y-174344819D02*
X35771904Y-174344819D01*
X35486190Y-174344819D02*
X35486190Y-173344819D01*
X35486190Y-173344819D02*
X35581428Y-173487676D01*
X35581428Y-173487676D02*
X35676666Y-173582914D01*
X35676666Y-173582914D02*
X35771904Y-173630533D01*
X34295714Y-173344819D02*
X34771904Y-173344819D01*
X34771904Y-173344819D02*
X34819523Y-173821009D01*
X34819523Y-173821009D02*
X34771904Y-173773390D01*
X34771904Y-173773390D02*
X34676666Y-173725771D01*
X34676666Y-173725771D02*
X34438571Y-173725771D01*
X34438571Y-173725771D02*
X34343333Y-173773390D01*
X34343333Y-173773390D02*
X34295714Y-173821009D01*
X34295714Y-173821009D02*
X34248095Y-173916247D01*
X34248095Y-173916247D02*
X34248095Y-174154342D01*
X34248095Y-174154342D02*
X34295714Y-174249580D01*
X34295714Y-174249580D02*
X34343333Y-174297200D01*
X34343333Y-174297200D02*
X34438571Y-174344819D01*
X34438571Y-174344819D02*
X34676666Y-174344819D01*
X34676666Y-174344819D02*
X34771904Y-174297200D01*
X34771904Y-174297200D02*
X34819523Y-174249580D01*
X39073819Y-173413142D02*
X38597628Y-173079809D01*
X39073819Y-172841714D02*
X38073819Y-172841714D01*
X38073819Y-172841714D02*
X38073819Y-173222666D01*
X38073819Y-173222666D02*
X38121438Y-173317904D01*
X38121438Y-173317904D02*
X38169057Y-173365523D01*
X38169057Y-173365523D02*
X38264295Y-173413142D01*
X38264295Y-173413142D02*
X38407152Y-173413142D01*
X38407152Y-173413142D02*
X38502390Y-173365523D01*
X38502390Y-173365523D02*
X38550009Y-173317904D01*
X38550009Y-173317904D02*
X38597628Y-173222666D01*
X38597628Y-173222666D02*
X38597628Y-172841714D01*
X38169057Y-173794095D02*
X38121438Y-173841714D01*
X38121438Y-173841714D02*
X38073819Y-173936952D01*
X38073819Y-173936952D02*
X38073819Y-174175047D01*
X38073819Y-174175047D02*
X38121438Y-174270285D01*
X38121438Y-174270285D02*
X38169057Y-174317904D01*
X38169057Y-174317904D02*
X38264295Y-174365523D01*
X38264295Y-174365523D02*
X38359533Y-174365523D01*
X38359533Y-174365523D02*
X38502390Y-174317904D01*
X38502390Y-174317904D02*
X39073819Y-173746476D01*
X39073819Y-173746476D02*
X39073819Y-174365523D01*
X38169057Y-174746476D02*
X38121438Y-174794095D01*
X38121438Y-174794095D02*
X38073819Y-174889333D01*
X38073819Y-174889333D02*
X38073819Y-175127428D01*
X38073819Y-175127428D02*
X38121438Y-175222666D01*
X38121438Y-175222666D02*
X38169057Y-175270285D01*
X38169057Y-175270285D02*
X38264295Y-175317904D01*
X38264295Y-175317904D02*
X38359533Y-175317904D01*
X38359533Y-175317904D02*
X38502390Y-175270285D01*
X38502390Y-175270285D02*
X39073819Y-174698857D01*
X39073819Y-174698857D02*
X39073819Y-175317904D01*
X34424857Y-181556819D02*
X34758190Y-181080628D01*
X34996285Y-181556819D02*
X34996285Y-180556819D01*
X34996285Y-180556819D02*
X34615333Y-180556819D01*
X34615333Y-180556819D02*
X34520095Y-180604438D01*
X34520095Y-180604438D02*
X34472476Y-180652057D01*
X34472476Y-180652057D02*
X34424857Y-180747295D01*
X34424857Y-180747295D02*
X34424857Y-180890152D01*
X34424857Y-180890152D02*
X34472476Y-180985390D01*
X34472476Y-180985390D02*
X34520095Y-181033009D01*
X34520095Y-181033009D02*
X34615333Y-181080628D01*
X34615333Y-181080628D02*
X34996285Y-181080628D01*
X34043904Y-180652057D02*
X33996285Y-180604438D01*
X33996285Y-180604438D02*
X33901047Y-180556819D01*
X33901047Y-180556819D02*
X33662952Y-180556819D01*
X33662952Y-180556819D02*
X33567714Y-180604438D01*
X33567714Y-180604438D02*
X33520095Y-180652057D01*
X33520095Y-180652057D02*
X33472476Y-180747295D01*
X33472476Y-180747295D02*
X33472476Y-180842533D01*
X33472476Y-180842533D02*
X33520095Y-180985390D01*
X33520095Y-180985390D02*
X34091523Y-181556819D01*
X34091523Y-181556819D02*
X33472476Y-181556819D01*
X32853428Y-180556819D02*
X32758190Y-180556819D01*
X32758190Y-180556819D02*
X32662952Y-180604438D01*
X32662952Y-180604438D02*
X32615333Y-180652057D01*
X32615333Y-180652057D02*
X32567714Y-180747295D01*
X32567714Y-180747295D02*
X32520095Y-180937771D01*
X32520095Y-180937771D02*
X32520095Y-181175866D01*
X32520095Y-181175866D02*
X32567714Y-181366342D01*
X32567714Y-181366342D02*
X32615333Y-181461580D01*
X32615333Y-181461580D02*
X32662952Y-181509200D01*
X32662952Y-181509200D02*
X32758190Y-181556819D01*
X32758190Y-181556819D02*
X32853428Y-181556819D01*
X32853428Y-181556819D02*
X32948666Y-181509200D01*
X32948666Y-181509200D02*
X32996285Y-181461580D01*
X32996285Y-181461580D02*
X33043904Y-181366342D01*
X33043904Y-181366342D02*
X33091523Y-181175866D01*
X33091523Y-181175866D02*
X33091523Y-180937771D01*
X33091523Y-180937771D02*
X33043904Y-180747295D01*
X33043904Y-180747295D02*
X32996285Y-180652057D01*
X32996285Y-180652057D02*
X32948666Y-180604438D01*
X32948666Y-180604438D02*
X32853428Y-180556819D01*
X45124819Y-173457142D02*
X44648628Y-173123809D01*
X45124819Y-172885714D02*
X44124819Y-172885714D01*
X44124819Y-172885714D02*
X44124819Y-173266666D01*
X44124819Y-173266666D02*
X44172438Y-173361904D01*
X44172438Y-173361904D02*
X44220057Y-173409523D01*
X44220057Y-173409523D02*
X44315295Y-173457142D01*
X44315295Y-173457142D02*
X44458152Y-173457142D01*
X44458152Y-173457142D02*
X44553390Y-173409523D01*
X44553390Y-173409523D02*
X44601009Y-173361904D01*
X44601009Y-173361904D02*
X44648628Y-173266666D01*
X44648628Y-173266666D02*
X44648628Y-172885714D01*
X44220057Y-173838095D02*
X44172438Y-173885714D01*
X44172438Y-173885714D02*
X44124819Y-173980952D01*
X44124819Y-173980952D02*
X44124819Y-174219047D01*
X44124819Y-174219047D02*
X44172438Y-174314285D01*
X44172438Y-174314285D02*
X44220057Y-174361904D01*
X44220057Y-174361904D02*
X44315295Y-174409523D01*
X44315295Y-174409523D02*
X44410533Y-174409523D01*
X44410533Y-174409523D02*
X44553390Y-174361904D01*
X44553390Y-174361904D02*
X45124819Y-173790476D01*
X45124819Y-173790476D02*
X45124819Y-174409523D01*
X44458152Y-175266666D02*
X45124819Y-175266666D01*
X44077200Y-175028571D02*
X44791485Y-174790476D01*
X44791485Y-174790476D02*
X44791485Y-175409523D01*
X31694285Y-189176819D02*
X31694285Y-188176819D01*
X31694285Y-188176819D02*
X31456190Y-188176819D01*
X31456190Y-188176819D02*
X31313333Y-188224438D01*
X31313333Y-188224438D02*
X31218095Y-188319676D01*
X31218095Y-188319676D02*
X31170476Y-188414914D01*
X31170476Y-188414914D02*
X31122857Y-188605390D01*
X31122857Y-188605390D02*
X31122857Y-188748247D01*
X31122857Y-188748247D02*
X31170476Y-188938723D01*
X31170476Y-188938723D02*
X31218095Y-189033961D01*
X31218095Y-189033961D02*
X31313333Y-189129200D01*
X31313333Y-189129200D02*
X31456190Y-189176819D01*
X31456190Y-189176819D02*
X31694285Y-189176819D01*
X30170476Y-189176819D02*
X30741904Y-189176819D01*
X30456190Y-189176819D02*
X30456190Y-188176819D01*
X30456190Y-188176819D02*
X30551428Y-188319676D01*
X30551428Y-188319676D02*
X30646666Y-188414914D01*
X30646666Y-188414914D02*
X30741904Y-188462533D01*
X29837142Y-188176819D02*
X29218095Y-188176819D01*
X29218095Y-188176819D02*
X29551428Y-188557771D01*
X29551428Y-188557771D02*
X29408571Y-188557771D01*
X29408571Y-188557771D02*
X29313333Y-188605390D01*
X29313333Y-188605390D02*
X29265714Y-188653009D01*
X29265714Y-188653009D02*
X29218095Y-188748247D01*
X29218095Y-188748247D02*
X29218095Y-188986342D01*
X29218095Y-188986342D02*
X29265714Y-189081580D01*
X29265714Y-189081580D02*
X29313333Y-189129200D01*
X29313333Y-189129200D02*
X29408571Y-189176819D01*
X29408571Y-189176819D02*
X29694285Y-189176819D01*
X29694285Y-189176819D02*
X29789523Y-189129200D01*
X29789523Y-189129200D02*
X29837142Y-189081580D01*
X47884819Y-187733333D02*
X47408628Y-187400000D01*
X47884819Y-187161905D02*
X46884819Y-187161905D01*
X46884819Y-187161905D02*
X46884819Y-187542857D01*
X46884819Y-187542857D02*
X46932438Y-187638095D01*
X46932438Y-187638095D02*
X46980057Y-187685714D01*
X46980057Y-187685714D02*
X47075295Y-187733333D01*
X47075295Y-187733333D02*
X47218152Y-187733333D01*
X47218152Y-187733333D02*
X47313390Y-187685714D01*
X47313390Y-187685714D02*
X47361009Y-187638095D01*
X47361009Y-187638095D02*
X47408628Y-187542857D01*
X47408628Y-187542857D02*
X47408628Y-187161905D01*
X46884819Y-188590476D02*
X46884819Y-188400000D01*
X46884819Y-188400000D02*
X46932438Y-188304762D01*
X46932438Y-188304762D02*
X46980057Y-188257143D01*
X46980057Y-188257143D02*
X47122914Y-188161905D01*
X47122914Y-188161905D02*
X47313390Y-188114286D01*
X47313390Y-188114286D02*
X47694342Y-188114286D01*
X47694342Y-188114286D02*
X47789580Y-188161905D01*
X47789580Y-188161905D02*
X47837200Y-188209524D01*
X47837200Y-188209524D02*
X47884819Y-188304762D01*
X47884819Y-188304762D02*
X47884819Y-188495238D01*
X47884819Y-188495238D02*
X47837200Y-188590476D01*
X47837200Y-188590476D02*
X47789580Y-188638095D01*
X47789580Y-188638095D02*
X47694342Y-188685714D01*
X47694342Y-188685714D02*
X47456247Y-188685714D01*
X47456247Y-188685714D02*
X47361009Y-188638095D01*
X47361009Y-188638095D02*
X47313390Y-188590476D01*
X47313390Y-188590476D02*
X47265771Y-188495238D01*
X47265771Y-188495238D02*
X47265771Y-188304762D01*
X47265771Y-188304762D02*
X47313390Y-188209524D01*
X47313390Y-188209524D02*
X47361009Y-188161905D01*
X47361009Y-188161905D02*
X47456247Y-188114286D01*
X59074819Y-175477142D02*
X58598628Y-175143809D01*
X59074819Y-174905714D02*
X58074819Y-174905714D01*
X58074819Y-174905714D02*
X58074819Y-175286666D01*
X58074819Y-175286666D02*
X58122438Y-175381904D01*
X58122438Y-175381904D02*
X58170057Y-175429523D01*
X58170057Y-175429523D02*
X58265295Y-175477142D01*
X58265295Y-175477142D02*
X58408152Y-175477142D01*
X58408152Y-175477142D02*
X58503390Y-175429523D01*
X58503390Y-175429523D02*
X58551009Y-175381904D01*
X58551009Y-175381904D02*
X58598628Y-175286666D01*
X58598628Y-175286666D02*
X58598628Y-174905714D01*
X59074819Y-176429523D02*
X59074819Y-175858095D01*
X59074819Y-176143809D02*
X58074819Y-176143809D01*
X58074819Y-176143809D02*
X58217676Y-176048571D01*
X58217676Y-176048571D02*
X58312914Y-175953333D01*
X58312914Y-175953333D02*
X58360533Y-175858095D01*
X58408152Y-177286666D02*
X59074819Y-177286666D01*
X58027200Y-177048571D02*
X58741485Y-176810476D01*
X58741485Y-176810476D02*
X58741485Y-177429523D01*
X59371019Y-166598695D02*
X60180542Y-166598695D01*
X60180542Y-166598695D02*
X60275780Y-166646314D01*
X60275780Y-166646314D02*
X60323400Y-166693933D01*
X60323400Y-166693933D02*
X60371019Y-166789171D01*
X60371019Y-166789171D02*
X60371019Y-166979647D01*
X60371019Y-166979647D02*
X60323400Y-167074885D01*
X60323400Y-167074885D02*
X60275780Y-167122504D01*
X60275780Y-167122504D02*
X60180542Y-167170123D01*
X60180542Y-167170123D02*
X59371019Y-167170123D01*
X59466257Y-167598695D02*
X59418638Y-167646314D01*
X59418638Y-167646314D02*
X59371019Y-167741552D01*
X59371019Y-167741552D02*
X59371019Y-167979647D01*
X59371019Y-167979647D02*
X59418638Y-168074885D01*
X59418638Y-168074885D02*
X59466257Y-168122504D01*
X59466257Y-168122504D02*
X59561495Y-168170123D01*
X59561495Y-168170123D02*
X59656733Y-168170123D01*
X59656733Y-168170123D02*
X59799590Y-168122504D01*
X59799590Y-168122504D02*
X60371019Y-167551076D01*
X60371019Y-167551076D02*
X60371019Y-168170123D01*
X35917094Y-166062819D02*
X35917094Y-165062819D01*
X35917094Y-165062819D02*
X35678999Y-165062819D01*
X35678999Y-165062819D02*
X35536142Y-165110438D01*
X35536142Y-165110438D02*
X35440904Y-165205676D01*
X35440904Y-165205676D02*
X35393285Y-165300914D01*
X35393285Y-165300914D02*
X35345666Y-165491390D01*
X35345666Y-165491390D02*
X35345666Y-165634247D01*
X35345666Y-165634247D02*
X35393285Y-165824723D01*
X35393285Y-165824723D02*
X35440904Y-165919961D01*
X35440904Y-165919961D02*
X35536142Y-166015200D01*
X35536142Y-166015200D02*
X35678999Y-166062819D01*
X35678999Y-166062819D02*
X35917094Y-166062819D01*
X35012332Y-165062819D02*
X34345666Y-165062819D01*
X34345666Y-165062819D02*
X34774237Y-166062819D01*
X44412819Y-162179095D02*
X45222342Y-162179095D01*
X45222342Y-162179095D02*
X45317580Y-162226714D01*
X45317580Y-162226714D02*
X45365200Y-162274333D01*
X45365200Y-162274333D02*
X45412819Y-162369571D01*
X45412819Y-162369571D02*
X45412819Y-162560047D01*
X45412819Y-162560047D02*
X45365200Y-162655285D01*
X45365200Y-162655285D02*
X45317580Y-162702904D01*
X45317580Y-162702904D02*
X45222342Y-162750523D01*
X45222342Y-162750523D02*
X44412819Y-162750523D01*
X44412819Y-163702904D02*
X44412819Y-163226714D01*
X44412819Y-163226714D02*
X44889009Y-163179095D01*
X44889009Y-163179095D02*
X44841390Y-163226714D01*
X44841390Y-163226714D02*
X44793771Y-163321952D01*
X44793771Y-163321952D02*
X44793771Y-163560047D01*
X44793771Y-163560047D02*
X44841390Y-163655285D01*
X44841390Y-163655285D02*
X44889009Y-163702904D01*
X44889009Y-163702904D02*
X44984247Y-163750523D01*
X44984247Y-163750523D02*
X45222342Y-163750523D01*
X45222342Y-163750523D02*
X45317580Y-163702904D01*
X45317580Y-163702904D02*
X45365200Y-163655285D01*
X45365200Y-163655285D02*
X45412819Y-163560047D01*
X45412819Y-163560047D02*
X45412819Y-163321952D01*
X45412819Y-163321952D02*
X45365200Y-163226714D01*
X45365200Y-163226714D02*
X45317580Y-163179095D01*
X34424857Y-182826819D02*
X34758190Y-182350628D01*
X34996285Y-182826819D02*
X34996285Y-181826819D01*
X34996285Y-181826819D02*
X34615333Y-181826819D01*
X34615333Y-181826819D02*
X34520095Y-181874438D01*
X34520095Y-181874438D02*
X34472476Y-181922057D01*
X34472476Y-181922057D02*
X34424857Y-182017295D01*
X34424857Y-182017295D02*
X34424857Y-182160152D01*
X34424857Y-182160152D02*
X34472476Y-182255390D01*
X34472476Y-182255390D02*
X34520095Y-182303009D01*
X34520095Y-182303009D02*
X34615333Y-182350628D01*
X34615333Y-182350628D02*
X34996285Y-182350628D01*
X34043904Y-181922057D02*
X33996285Y-181874438D01*
X33996285Y-181874438D02*
X33901047Y-181826819D01*
X33901047Y-181826819D02*
X33662952Y-181826819D01*
X33662952Y-181826819D02*
X33567714Y-181874438D01*
X33567714Y-181874438D02*
X33520095Y-181922057D01*
X33520095Y-181922057D02*
X33472476Y-182017295D01*
X33472476Y-182017295D02*
X33472476Y-182112533D01*
X33472476Y-182112533D02*
X33520095Y-182255390D01*
X33520095Y-182255390D02*
X34091523Y-182826819D01*
X34091523Y-182826819D02*
X33472476Y-182826819D01*
X32520095Y-182826819D02*
X33091523Y-182826819D01*
X32805809Y-182826819D02*
X32805809Y-181826819D01*
X32805809Y-181826819D02*
X32901047Y-181969676D01*
X32901047Y-181969676D02*
X32996285Y-182064914D01*
X32996285Y-182064914D02*
X33091523Y-182112533D01*
X39896857Y-183908819D02*
X40230190Y-183432628D01*
X40468285Y-183908819D02*
X40468285Y-182908819D01*
X40468285Y-182908819D02*
X40087333Y-182908819D01*
X40087333Y-182908819D02*
X39992095Y-182956438D01*
X39992095Y-182956438D02*
X39944476Y-183004057D01*
X39944476Y-183004057D02*
X39896857Y-183099295D01*
X39896857Y-183099295D02*
X39896857Y-183242152D01*
X39896857Y-183242152D02*
X39944476Y-183337390D01*
X39944476Y-183337390D02*
X39992095Y-183385009D01*
X39992095Y-183385009D02*
X40087333Y-183432628D01*
X40087333Y-183432628D02*
X40468285Y-183432628D01*
X38944476Y-183908819D02*
X39515904Y-183908819D01*
X39230190Y-183908819D02*
X39230190Y-182908819D01*
X39230190Y-182908819D02*
X39325428Y-183051676D01*
X39325428Y-183051676D02*
X39420666Y-183146914D01*
X39420666Y-183146914D02*
X39515904Y-183194533D01*
X38373047Y-183337390D02*
X38468285Y-183289771D01*
X38468285Y-183289771D02*
X38515904Y-183242152D01*
X38515904Y-183242152D02*
X38563523Y-183146914D01*
X38563523Y-183146914D02*
X38563523Y-183099295D01*
X38563523Y-183099295D02*
X38515904Y-183004057D01*
X38515904Y-183004057D02*
X38468285Y-182956438D01*
X38468285Y-182956438D02*
X38373047Y-182908819D01*
X38373047Y-182908819D02*
X38182571Y-182908819D01*
X38182571Y-182908819D02*
X38087333Y-182956438D01*
X38087333Y-182956438D02*
X38039714Y-183004057D01*
X38039714Y-183004057D02*
X37992095Y-183099295D01*
X37992095Y-183099295D02*
X37992095Y-183146914D01*
X37992095Y-183146914D02*
X38039714Y-183242152D01*
X38039714Y-183242152D02*
X38087333Y-183289771D01*
X38087333Y-183289771D02*
X38182571Y-183337390D01*
X38182571Y-183337390D02*
X38373047Y-183337390D01*
X38373047Y-183337390D02*
X38468285Y-183385009D01*
X38468285Y-183385009D02*
X38515904Y-183432628D01*
X38515904Y-183432628D02*
X38563523Y-183527866D01*
X38563523Y-183527866D02*
X38563523Y-183718342D01*
X38563523Y-183718342D02*
X38515904Y-183813580D01*
X38515904Y-183813580D02*
X38468285Y-183861200D01*
X38468285Y-183861200D02*
X38373047Y-183908819D01*
X38373047Y-183908819D02*
X38182571Y-183908819D01*
X38182571Y-183908819D02*
X38087333Y-183861200D01*
X38087333Y-183861200D02*
X38039714Y-183813580D01*
X38039714Y-183813580D02*
X37992095Y-183718342D01*
X37992095Y-183718342D02*
X37992095Y-183527866D01*
X37992095Y-183527866D02*
X38039714Y-183432628D01*
X38039714Y-183432628D02*
X38087333Y-183385009D01*
X38087333Y-183385009D02*
X38182571Y-183337390D01*
X34424857Y-179429580D02*
X34472476Y-179477200D01*
X34472476Y-179477200D02*
X34615333Y-179524819D01*
X34615333Y-179524819D02*
X34710571Y-179524819D01*
X34710571Y-179524819D02*
X34853428Y-179477200D01*
X34853428Y-179477200D02*
X34948666Y-179381961D01*
X34948666Y-179381961D02*
X34996285Y-179286723D01*
X34996285Y-179286723D02*
X35043904Y-179096247D01*
X35043904Y-179096247D02*
X35043904Y-178953390D01*
X35043904Y-178953390D02*
X34996285Y-178762914D01*
X34996285Y-178762914D02*
X34948666Y-178667676D01*
X34948666Y-178667676D02*
X34853428Y-178572438D01*
X34853428Y-178572438D02*
X34710571Y-178524819D01*
X34710571Y-178524819D02*
X34615333Y-178524819D01*
X34615333Y-178524819D02*
X34472476Y-178572438D01*
X34472476Y-178572438D02*
X34424857Y-178620057D01*
X33472476Y-179524819D02*
X34043904Y-179524819D01*
X33758190Y-179524819D02*
X33758190Y-178524819D01*
X33758190Y-178524819D02*
X33853428Y-178667676D01*
X33853428Y-178667676D02*
X33948666Y-178762914D01*
X33948666Y-178762914D02*
X34043904Y-178810533D01*
X33091523Y-178620057D02*
X33043904Y-178572438D01*
X33043904Y-178572438D02*
X32948666Y-178524819D01*
X32948666Y-178524819D02*
X32710571Y-178524819D01*
X32710571Y-178524819D02*
X32615333Y-178572438D01*
X32615333Y-178572438D02*
X32567714Y-178620057D01*
X32567714Y-178620057D02*
X32520095Y-178715295D01*
X32520095Y-178715295D02*
X32520095Y-178810533D01*
X32520095Y-178810533D02*
X32567714Y-178953390D01*
X32567714Y-178953390D02*
X33139142Y-179524819D01*
X33139142Y-179524819D02*
X32520095Y-179524819D01*
X48767904Y-153759819D02*
X48767904Y-154569342D01*
X48767904Y-154569342D02*
X48720285Y-154664580D01*
X48720285Y-154664580D02*
X48672666Y-154712200D01*
X48672666Y-154712200D02*
X48577428Y-154759819D01*
X48577428Y-154759819D02*
X48386952Y-154759819D01*
X48386952Y-154759819D02*
X48291714Y-154712200D01*
X48291714Y-154712200D02*
X48244095Y-154664580D01*
X48244095Y-154664580D02*
X48196476Y-154569342D01*
X48196476Y-154569342D02*
X48196476Y-153759819D01*
X47291714Y-153759819D02*
X47482190Y-153759819D01*
X47482190Y-153759819D02*
X47577428Y-153807438D01*
X47577428Y-153807438D02*
X47625047Y-153855057D01*
X47625047Y-153855057D02*
X47720285Y-153997914D01*
X47720285Y-153997914D02*
X47767904Y-154188390D01*
X47767904Y-154188390D02*
X47767904Y-154569342D01*
X47767904Y-154569342D02*
X47720285Y-154664580D01*
X47720285Y-154664580D02*
X47672666Y-154712200D01*
X47672666Y-154712200D02*
X47577428Y-154759819D01*
X47577428Y-154759819D02*
X47386952Y-154759819D01*
X47386952Y-154759819D02*
X47291714Y-154712200D01*
X47291714Y-154712200D02*
X47244095Y-154664580D01*
X47244095Y-154664580D02*
X47196476Y-154569342D01*
X47196476Y-154569342D02*
X47196476Y-154331247D01*
X47196476Y-154331247D02*
X47244095Y-154236009D01*
X47244095Y-154236009D02*
X47291714Y-154188390D01*
X47291714Y-154188390D02*
X47386952Y-154140771D01*
X47386952Y-154140771D02*
X47577428Y-154140771D01*
X47577428Y-154140771D02*
X47672666Y-154188390D01*
X47672666Y-154188390D02*
X47720285Y-154236009D01*
X47720285Y-154236009D02*
X47767904Y-154331247D01*
X38107857Y-151997580D02*
X38155476Y-152045200D01*
X38155476Y-152045200D02*
X38298333Y-152092819D01*
X38298333Y-152092819D02*
X38393571Y-152092819D01*
X38393571Y-152092819D02*
X38536428Y-152045200D01*
X38536428Y-152045200D02*
X38631666Y-151949961D01*
X38631666Y-151949961D02*
X38679285Y-151854723D01*
X38679285Y-151854723D02*
X38726904Y-151664247D01*
X38726904Y-151664247D02*
X38726904Y-151521390D01*
X38726904Y-151521390D02*
X38679285Y-151330914D01*
X38679285Y-151330914D02*
X38631666Y-151235676D01*
X38631666Y-151235676D02*
X38536428Y-151140438D01*
X38536428Y-151140438D02*
X38393571Y-151092819D01*
X38393571Y-151092819D02*
X38298333Y-151092819D01*
X38298333Y-151092819D02*
X38155476Y-151140438D01*
X38155476Y-151140438D02*
X38107857Y-151188057D01*
X37155476Y-152092819D02*
X37726904Y-152092819D01*
X37441190Y-152092819D02*
X37441190Y-151092819D01*
X37441190Y-151092819D02*
X37536428Y-151235676D01*
X37536428Y-151235676D02*
X37631666Y-151330914D01*
X37631666Y-151330914D02*
X37726904Y-151378533D01*
X36203095Y-152092819D02*
X36774523Y-152092819D01*
X36488809Y-152092819D02*
X36488809Y-151092819D01*
X36488809Y-151092819D02*
X36584047Y-151235676D01*
X36584047Y-151235676D02*
X36679285Y-151330914D01*
X36679285Y-151330914D02*
X36774523Y-151378533D01*
X39959857Y-179524819D02*
X40293190Y-179048628D01*
X40531285Y-179524819D02*
X40531285Y-178524819D01*
X40531285Y-178524819D02*
X40150333Y-178524819D01*
X40150333Y-178524819D02*
X40055095Y-178572438D01*
X40055095Y-178572438D02*
X40007476Y-178620057D01*
X40007476Y-178620057D02*
X39959857Y-178715295D01*
X39959857Y-178715295D02*
X39959857Y-178858152D01*
X39959857Y-178858152D02*
X40007476Y-178953390D01*
X40007476Y-178953390D02*
X40055095Y-179001009D01*
X40055095Y-179001009D02*
X40150333Y-179048628D01*
X40150333Y-179048628D02*
X40531285Y-179048628D01*
X39007476Y-179524819D02*
X39578904Y-179524819D01*
X39293190Y-179524819D02*
X39293190Y-178524819D01*
X39293190Y-178524819D02*
X39388428Y-178667676D01*
X39388428Y-178667676D02*
X39483666Y-178762914D01*
X39483666Y-178762914D02*
X39578904Y-178810533D01*
X38531285Y-179524819D02*
X38340809Y-179524819D01*
X38340809Y-179524819D02*
X38245571Y-179477200D01*
X38245571Y-179477200D02*
X38197952Y-179429580D01*
X38197952Y-179429580D02*
X38102714Y-179286723D01*
X38102714Y-179286723D02*
X38055095Y-179096247D01*
X38055095Y-179096247D02*
X38055095Y-178715295D01*
X38055095Y-178715295D02*
X38102714Y-178620057D01*
X38102714Y-178620057D02*
X38150333Y-178572438D01*
X38150333Y-178572438D02*
X38245571Y-178524819D01*
X38245571Y-178524819D02*
X38436047Y-178524819D01*
X38436047Y-178524819D02*
X38531285Y-178572438D01*
X38531285Y-178572438D02*
X38578904Y-178620057D01*
X38578904Y-178620057D02*
X38626523Y-178715295D01*
X38626523Y-178715295D02*
X38626523Y-178953390D01*
X38626523Y-178953390D02*
X38578904Y-179048628D01*
X38578904Y-179048628D02*
X38531285Y-179096247D01*
X38531285Y-179096247D02*
X38436047Y-179143866D01*
X38436047Y-179143866D02*
X38245571Y-179143866D01*
X38245571Y-179143866D02*
X38150333Y-179096247D01*
X38150333Y-179096247D02*
X38102714Y-179048628D01*
X38102714Y-179048628D02*
X38055095Y-178953390D01*
X31258094Y-177151819D02*
X31258094Y-176151819D01*
X31258094Y-176151819D02*
X31019999Y-176151819D01*
X31019999Y-176151819D02*
X30877142Y-176199438D01*
X30877142Y-176199438D02*
X30781904Y-176294676D01*
X30781904Y-176294676D02*
X30734285Y-176389914D01*
X30734285Y-176389914D02*
X30686666Y-176580390D01*
X30686666Y-176580390D02*
X30686666Y-176723247D01*
X30686666Y-176723247D02*
X30734285Y-176913723D01*
X30734285Y-176913723D02*
X30781904Y-177008961D01*
X30781904Y-177008961D02*
X30877142Y-177104200D01*
X30877142Y-177104200D02*
X31019999Y-177151819D01*
X31019999Y-177151819D02*
X31258094Y-177151819D01*
X30353332Y-176151819D02*
X29734285Y-176151819D01*
X29734285Y-176151819D02*
X30067618Y-176532771D01*
X30067618Y-176532771D02*
X29924761Y-176532771D01*
X29924761Y-176532771D02*
X29829523Y-176580390D01*
X29829523Y-176580390D02*
X29781904Y-176628009D01*
X29781904Y-176628009D02*
X29734285Y-176723247D01*
X29734285Y-176723247D02*
X29734285Y-176961342D01*
X29734285Y-176961342D02*
X29781904Y-177056580D01*
X29781904Y-177056580D02*
X29829523Y-177104200D01*
X29829523Y-177104200D02*
X29924761Y-177151819D01*
X29924761Y-177151819D02*
X30210475Y-177151819D01*
X30210475Y-177151819D02*
X30305713Y-177104200D01*
X30305713Y-177104200D02*
X30353332Y-177056580D01*
X43431904Y-193874819D02*
X43431904Y-194684342D01*
X43431904Y-194684342D02*
X43384285Y-194779580D01*
X43384285Y-194779580D02*
X43336666Y-194827200D01*
X43336666Y-194827200D02*
X43241428Y-194874819D01*
X43241428Y-194874819D02*
X43050952Y-194874819D01*
X43050952Y-194874819D02*
X42955714Y-194827200D01*
X42955714Y-194827200D02*
X42908095Y-194779580D01*
X42908095Y-194779580D02*
X42860476Y-194684342D01*
X42860476Y-194684342D02*
X42860476Y-193874819D01*
X42336666Y-194874819D02*
X42146190Y-194874819D01*
X42146190Y-194874819D02*
X42050952Y-194827200D01*
X42050952Y-194827200D02*
X42003333Y-194779580D01*
X42003333Y-194779580D02*
X41908095Y-194636723D01*
X41908095Y-194636723D02*
X41860476Y-194446247D01*
X41860476Y-194446247D02*
X41860476Y-194065295D01*
X41860476Y-194065295D02*
X41908095Y-193970057D01*
X41908095Y-193970057D02*
X41955714Y-193922438D01*
X41955714Y-193922438D02*
X42050952Y-193874819D01*
X42050952Y-193874819D02*
X42241428Y-193874819D01*
X42241428Y-193874819D02*
X42336666Y-193922438D01*
X42336666Y-193922438D02*
X42384285Y-193970057D01*
X42384285Y-193970057D02*
X42431904Y-194065295D01*
X42431904Y-194065295D02*
X42431904Y-194303390D01*
X42431904Y-194303390D02*
X42384285Y-194398628D01*
X42384285Y-194398628D02*
X42336666Y-194446247D01*
X42336666Y-194446247D02*
X42241428Y-194493866D01*
X42241428Y-194493866D02*
X42050952Y-194493866D01*
X42050952Y-194493866D02*
X41955714Y-194446247D01*
X41955714Y-194446247D02*
X41908095Y-194398628D01*
X41908095Y-194398628D02*
X41860476Y-194303390D01*
X26003238Y-183430057D02*
X26098476Y-183382438D01*
X26098476Y-183382438D02*
X26193714Y-183287200D01*
X26193714Y-183287200D02*
X26336571Y-183144342D01*
X26336571Y-183144342D02*
X26431809Y-183096723D01*
X26431809Y-183096723D02*
X26527047Y-183096723D01*
X26479428Y-183334819D02*
X26574666Y-183287200D01*
X26574666Y-183287200D02*
X26669904Y-183191961D01*
X26669904Y-183191961D02*
X26717523Y-183001485D01*
X26717523Y-183001485D02*
X26717523Y-182668152D01*
X26717523Y-182668152D02*
X26669904Y-182477676D01*
X26669904Y-182477676D02*
X26574666Y-182382438D01*
X26574666Y-182382438D02*
X26479428Y-182334819D01*
X26479428Y-182334819D02*
X26288952Y-182334819D01*
X26288952Y-182334819D02*
X26193714Y-182382438D01*
X26193714Y-182382438D02*
X26098476Y-182477676D01*
X26098476Y-182477676D02*
X26050857Y-182668152D01*
X26050857Y-182668152D02*
X26050857Y-183001485D01*
X26050857Y-183001485D02*
X26098476Y-183191961D01*
X26098476Y-183191961D02*
X26193714Y-183287200D01*
X26193714Y-183287200D02*
X26288952Y-183334819D01*
X26288952Y-183334819D02*
X26479428Y-183334819D01*
X25479428Y-182763390D02*
X25574666Y-182715771D01*
X25574666Y-182715771D02*
X25622285Y-182668152D01*
X25622285Y-182668152D02*
X25669904Y-182572914D01*
X25669904Y-182572914D02*
X25669904Y-182525295D01*
X25669904Y-182525295D02*
X25622285Y-182430057D01*
X25622285Y-182430057D02*
X25574666Y-182382438D01*
X25574666Y-182382438D02*
X25479428Y-182334819D01*
X25479428Y-182334819D02*
X25288952Y-182334819D01*
X25288952Y-182334819D02*
X25193714Y-182382438D01*
X25193714Y-182382438D02*
X25146095Y-182430057D01*
X25146095Y-182430057D02*
X25098476Y-182525295D01*
X25098476Y-182525295D02*
X25098476Y-182572914D01*
X25098476Y-182572914D02*
X25146095Y-182668152D01*
X25146095Y-182668152D02*
X25193714Y-182715771D01*
X25193714Y-182715771D02*
X25288952Y-182763390D01*
X25288952Y-182763390D02*
X25479428Y-182763390D01*
X25479428Y-182763390D02*
X25574666Y-182811009D01*
X25574666Y-182811009D02*
X25622285Y-182858628D01*
X25622285Y-182858628D02*
X25669904Y-182953866D01*
X25669904Y-182953866D02*
X25669904Y-183144342D01*
X25669904Y-183144342D02*
X25622285Y-183239580D01*
X25622285Y-183239580D02*
X25574666Y-183287200D01*
X25574666Y-183287200D02*
X25479428Y-183334819D01*
X25479428Y-183334819D02*
X25288952Y-183334819D01*
X25288952Y-183334819D02*
X25193714Y-183287200D01*
X25193714Y-183287200D02*
X25146095Y-183239580D01*
X25146095Y-183239580D02*
X25098476Y-183144342D01*
X25098476Y-183144342D02*
X25098476Y-182953866D01*
X25098476Y-182953866D02*
X25146095Y-182858628D01*
X25146095Y-182858628D02*
X25193714Y-182811009D01*
X25193714Y-182811009D02*
X25288952Y-182763390D01*
X41837857Y-187889580D02*
X41885476Y-187937200D01*
X41885476Y-187937200D02*
X42028333Y-187984819D01*
X42028333Y-187984819D02*
X42123571Y-187984819D01*
X42123571Y-187984819D02*
X42266428Y-187937200D01*
X42266428Y-187937200D02*
X42361666Y-187841961D01*
X42361666Y-187841961D02*
X42409285Y-187746723D01*
X42409285Y-187746723D02*
X42456904Y-187556247D01*
X42456904Y-187556247D02*
X42456904Y-187413390D01*
X42456904Y-187413390D02*
X42409285Y-187222914D01*
X42409285Y-187222914D02*
X42361666Y-187127676D01*
X42361666Y-187127676D02*
X42266428Y-187032438D01*
X42266428Y-187032438D02*
X42123571Y-186984819D01*
X42123571Y-186984819D02*
X42028333Y-186984819D01*
X42028333Y-186984819D02*
X41885476Y-187032438D01*
X41885476Y-187032438D02*
X41837857Y-187080057D01*
X40885476Y-187984819D02*
X41456904Y-187984819D01*
X41171190Y-187984819D02*
X41171190Y-186984819D01*
X41171190Y-186984819D02*
X41266428Y-187127676D01*
X41266428Y-187127676D02*
X41361666Y-187222914D01*
X41361666Y-187222914D02*
X41456904Y-187270533D01*
X40552142Y-186984819D02*
X39933095Y-186984819D01*
X39933095Y-186984819D02*
X40266428Y-187365771D01*
X40266428Y-187365771D02*
X40123571Y-187365771D01*
X40123571Y-187365771D02*
X40028333Y-187413390D01*
X40028333Y-187413390D02*
X39980714Y-187461009D01*
X39980714Y-187461009D02*
X39933095Y-187556247D01*
X39933095Y-187556247D02*
X39933095Y-187794342D01*
X39933095Y-187794342D02*
X39980714Y-187889580D01*
X39980714Y-187889580D02*
X40028333Y-187937200D01*
X40028333Y-187937200D02*
X40123571Y-187984819D01*
X40123571Y-187984819D02*
X40409285Y-187984819D01*
X40409285Y-187984819D02*
X40504523Y-187937200D01*
X40504523Y-187937200D02*
X40552142Y-187889580D01*
D11*
%TO.C,R23*%
X45667500Y-191062258D02*
X45667500Y-190587742D01*
X46712500Y-191062258D02*
X46712500Y-190587742D01*
%TO.C,D9*%
X33880000Y-171195000D02*
X28480000Y-171195000D01*
X33880000Y-167895000D02*
X33880000Y-171195000D01*
X33880000Y-167895000D02*
X28480000Y-167895000D01*
%TO.C,D1*%
X58098000Y-151009000D02*
X61778000Y-151009000D01*
X58098000Y-153029000D02*
X58098000Y-151009000D01*
X58098000Y-153029000D02*
X61778000Y-153029000D01*
%TO.C,U7*%
X41407500Y-179614000D02*
X42207500Y-179614000D01*
X41407500Y-179614000D02*
X40607500Y-179614000D01*
X41407500Y-176494000D02*
X43207500Y-176494000D01*
X41407500Y-176494000D02*
X40607500Y-176494000D01*
%TO.C,U8*%
X44055000Y-181851500D02*
X44055000Y-181201500D01*
X44055000Y-181851500D02*
X44055000Y-182501500D01*
X40935000Y-181851500D02*
X40935000Y-180176500D01*
X40935000Y-181851500D02*
X40935000Y-182501500D01*
%TO.C,U3*%
X37084000Y-152634000D02*
X35134000Y-152634000D01*
X37084000Y-152634000D02*
X39034000Y-152634000D01*
X37084000Y-157754000D02*
X33634000Y-157754000D01*
X37084000Y-157754000D02*
X39034000Y-157754000D01*
%TO.C,C2*%
X41950000Y-189025580D02*
X41950000Y-188744420D01*
X42970000Y-189025580D02*
X42970000Y-188744420D01*
%TO.C,D10*%
X26130000Y-196480000D02*
X26130000Y-191080000D01*
X29430000Y-196480000D02*
X26130000Y-196480000D01*
X29430000Y-196480000D02*
X29430000Y-191080000D01*
%TO.C,C5*%
X45085580Y-159641000D02*
X44804420Y-159641000D01*
X45085580Y-158621000D02*
X44804420Y-158621000D01*
%TO.C,R16*%
X77961258Y-173242500D02*
X77486742Y-173242500D01*
X77961258Y-172197500D02*
X77486742Y-172197500D01*
%TO.C,Q7*%
X37482500Y-184850000D02*
X36832500Y-184850000D01*
X37482500Y-184850000D02*
X38132500Y-184850000D01*
X37482500Y-187970000D02*
X35807500Y-187970000D01*
X37482500Y-187970000D02*
X38132500Y-187970000D01*
%TO.C,C6*%
X61212000Y-161938580D02*
X61212000Y-161657420D01*
X62232000Y-161938580D02*
X62232000Y-161657420D01*
%TO.C,C10*%
X32271580Y-155196000D02*
X31990420Y-155196000D01*
X32271580Y-154176000D02*
X31990420Y-154176000D01*
%TO.C,C4*%
X36600580Y-176852000D02*
X36319420Y-176852000D01*
X36600580Y-175832000D02*
X36319420Y-175832000D01*
%TO.C,R17*%
X36634258Y-178261500D02*
X36159742Y-178261500D01*
X36634258Y-177216500D02*
X36159742Y-177216500D01*
%TO.C,D15*%
X33912000Y-175513000D02*
X28512000Y-175513000D01*
X33912000Y-172213000D02*
X33912000Y-175513000D01*
X33912000Y-172213000D02*
X28512000Y-172213000D01*
%TO.C,R22*%
X39141500Y-176802742D02*
X39141500Y-177277258D01*
X38096500Y-176802742D02*
X38096500Y-177277258D01*
%TO.C,R20*%
X36634258Y-181055500D02*
X36159742Y-181055500D01*
X36634258Y-180010500D02*
X36159742Y-180010500D01*
%TO.C,R24*%
X45182500Y-176947742D02*
X45182500Y-177422258D01*
X44137500Y-176947742D02*
X44137500Y-177422258D01*
%TO.C,D13*%
X34134000Y-187705000D02*
X28734000Y-187705000D01*
X34134000Y-184405000D02*
X34134000Y-187705000D01*
X34134000Y-184405000D02*
X28734000Y-184405000D01*
%TO.C,R6*%
X46877500Y-190402258D02*
X46877500Y-189927742D01*
X47922500Y-190402258D02*
X47922500Y-189927742D01*
%TO.C,R14*%
X56500500Y-176220658D02*
X56500500Y-175746142D01*
X57545500Y-176220658D02*
X57545500Y-175746142D01*
%TO.C,U2*%
X71516200Y-164960600D02*
X71516200Y-169760600D01*
X61116200Y-164960600D02*
X61116200Y-163560600D01*
X60716200Y-164960600D02*
X61116200Y-164960600D01*
X60716200Y-164960600D02*
X60716200Y-169760600D01*
%TO.C,D7*%
X33880000Y-167385000D02*
X28480000Y-167385000D01*
X33880000Y-164085000D02*
X33880000Y-167385000D01*
X33880000Y-164085000D02*
X28480000Y-164085000D01*
%TO.C,U5*%
X56809600Y-160287000D02*
X56809600Y-165087000D01*
X46409600Y-160287000D02*
X46409600Y-158887000D01*
X46009600Y-160287000D02*
X46409600Y-160287000D01*
X46009600Y-160287000D02*
X46009600Y-165087000D01*
%TO.C,R21*%
X36095742Y-181534500D02*
X36570258Y-181534500D01*
X36095742Y-182579500D02*
X36570258Y-182579500D01*
%TO.C,R18*%
X39491258Y-182579500D02*
X39016742Y-182579500D01*
X39491258Y-181534500D02*
X39016742Y-181534500D01*
%TO.C,C12*%
X36587580Y-179646000D02*
X36306420Y-179646000D01*
X36587580Y-178626000D02*
X36306420Y-178626000D01*
%TO.C,U6*%
X49494000Y-157588000D02*
X55504000Y-157588000D01*
X51744000Y-150768000D02*
X55504000Y-150768000D01*
X55504000Y-150768000D02*
X55504000Y-152028000D01*
X55504000Y-157588000D02*
X55504000Y-156328000D01*
%TO.C,C11*%
X34544580Y-152148000D02*
X34263420Y-152148000D01*
X34544580Y-151128000D02*
X34263420Y-151128000D01*
%TO.C,R19*%
X39079742Y-180010500D02*
X39554258Y-180010500D01*
X39079742Y-181055500D02*
X39554258Y-181055500D01*
%TO.C,D3*%
X33920000Y-180847000D02*
X28520000Y-180847000D01*
X33920000Y-177547000D02*
X33920000Y-180847000D01*
X33920000Y-177547000D02*
X28520000Y-177547000D01*
%TO.C,U9*%
X43597500Y-190395000D02*
X42797500Y-190395000D01*
X43597500Y-190395000D02*
X44397500Y-190395000D01*
X43597500Y-193515000D02*
X41797500Y-193515000D01*
X43597500Y-193515000D02*
X44397500Y-193515000D01*
%TO.C,Q8*%
X28512500Y-181030000D02*
X27862500Y-181030000D01*
X28512500Y-181030000D02*
X29162500Y-181030000D01*
X28512500Y-184150000D02*
X26837500Y-184150000D01*
X28512500Y-184150000D02*
X29162500Y-184150000D01*
%TO.C,C13*%
X41054420Y-185590000D02*
X41335580Y-185590000D01*
X41054420Y-186610000D02*
X41335580Y-186610000D01*
%TD*%
M02*
